<?xml version="1.0" encoding="utf-8" standalone="no"?>
<!DOCTYPE svg PUBLIC "-//W3C//DTD SVG 1.1//EN"
  "http://www.w3.org/Graphics/SVG/1.1/DTD/svg11.dtd">
<svg xmlns:xlink="http://www.w3.org/1999/xlink" width="576pt" height="432pt" viewBox="0 0 576 432" xmlns="http://www.w3.org/2000/svg" version="1.1">
 <metadata>
  <rdf:RDF xmlns:dc="http://purl.org/dc/elements/1.1/" xmlns:cc="http://creativecommons.org/ns#" xmlns:rdf="http://www.w3.org/1999/02/22-rdf-syntax-ns#">
   <cc:Work>
    <dc:type rdf:resource="http://purl.org/dc/dcmitype/StillImage"/>
    <dc:date>2025-01-01T14:24:28.035668</dc:date>
    <dc:format>image/svg+xml</dc:format>
    <dc:creator>
     <cc:Agent>
      <dc:title>Matplotlib v3.10.0, https://matplotlib.org/</dc:title>
     </cc:Agent>
    </dc:creator>
   </cc:Work>
  </rdf:RDF>
 </metadata>
 <defs>
  <style type="text/css">*{stroke-linejoin: round; stroke-linecap: butt}</style>
 </defs>
 <g id="figure_1">
  <g id="patch_1">
   <path d="M 0 432 
L 576 432 
L 576 0 
L 0 0 
z
" style="fill: #ffffff"/>
  </g>
  <g id="axes_1">
   <g id="patch_2">
    <path d="M 72 384.48 
L 518.4 384.48 
L 518.4 51.84 
L 72 51.84 
z
" style="fill: #ffffff"/>
   </g>
   <g id="matplotlib.axis_1">
    <g id="xtick_1">
     <g id="line2d_1">
      <path d="M 92.290909 384.48 
L 92.290909 51.84 
" clip-path="url(#p0df7ca83b2)" style="fill: none; stroke: #b0b0b0; stroke-opacity: 0.3; stroke-width: 0.8; stroke-linecap: square"/>
     </g>
     <g id="line2d_2">
      <defs>
       <path id="mdc38803d74" d="M 0 0 
L 0 3.5 
" style="stroke: #000000; stroke-width: 0.8"/>
      </defs>
      <g>
       <use xlink:href="#mdc38803d74" x="92.290909" y="384.48" style="stroke: #000000; stroke-width: 0.8"/>
      </g>
     </g>
     <g id="text_1">
      <!-- 0.0 -->
      <g transform="translate(84.339347 399.078438) scale(0.1 -0.1)">
       <defs>
        <path id="DejaVuSans-30" d="M 2034 4250 
Q 1547 4250 1301 3770 
Q 1056 3291 1056 2328 
Q 1056 1369 1301 889 
Q 1547 409 2034 409 
Q 2525 409 2770 889 
Q 3016 1369 3016 2328 
Q 3016 3291 2770 3770 
Q 2525 4250 2034 4250 
z
M 2034 4750 
Q 2819 4750 3233 4129 
Q 3647 3509 3647 2328 
Q 3647 1150 3233 529 
Q 2819 -91 2034 -91 
Q 1250 -91 836 529 
Q 422 1150 422 2328 
Q 422 3509 836 4129 
Q 1250 4750 2034 4750 
z
" transform="scale(0.015625)"/>
        <path id="DejaVuSans-2e" d="M 684 794 
L 1344 794 
L 1344 0 
L 684 0 
L 684 794 
z
" transform="scale(0.015625)"/>
       </defs>
       <use xlink:href="#DejaVuSans-30"/>
       <use xlink:href="#DejaVuSans-2e" transform="translate(63.623047 0)"/>
       <use xlink:href="#DejaVuSans-30" transform="translate(95.410156 0)"/>
      </g>
     </g>
    </g>
    <g id="xtick_2">
     <g id="line2d_3">
      <path d="M 173.454545 384.48 
L 173.454545 51.84 
" clip-path="url(#p0df7ca83b2)" style="fill: none; stroke: #b0b0b0; stroke-opacity: 0.3; stroke-width: 0.8; stroke-linecap: square"/>
     </g>
     <g id="line2d_4">
      <g>
       <use xlink:href="#mdc38803d74" x="173.454545" y="384.48" style="stroke: #000000; stroke-width: 0.8"/>
      </g>
     </g>
     <g id="text_2">
      <!-- 0.2 -->
      <g transform="translate(165.502983 399.078438) scale(0.1 -0.1)">
       <defs>
        <path id="DejaVuSans-32" d="M 1228 531 
L 3431 531 
L 3431 0 
L 469 0 
L 469 531 
Q 828 903 1448 1529 
Q 2069 2156 2228 2338 
Q 2531 2678 2651 2914 
Q 2772 3150 2772 3378 
Q 2772 3750 2511 3984 
Q 2250 4219 1831 4219 
Q 1534 4219 1204 4116 
Q 875 4013 500 3803 
L 500 4441 
Q 881 4594 1212 4672 
Q 1544 4750 1819 4750 
Q 2544 4750 2975 4387 
Q 3406 4025 3406 3419 
Q 3406 3131 3298 2873 
Q 3191 2616 2906 2266 
Q 2828 2175 2409 1742 
Q 1991 1309 1228 531 
z
" transform="scale(0.015625)"/>
       </defs>
       <use xlink:href="#DejaVuSans-30"/>
       <use xlink:href="#DejaVuSans-2e" transform="translate(63.623047 0)"/>
       <use xlink:href="#DejaVuSans-32" transform="translate(95.410156 0)"/>
      </g>
     </g>
    </g>
    <g id="xtick_3">
     <g id="line2d_5">
      <path d="M 254.618182 384.48 
L 254.618182 51.84 
" clip-path="url(#p0df7ca83b2)" style="fill: none; stroke: #b0b0b0; stroke-opacity: 0.3; stroke-width: 0.8; stroke-linecap: square"/>
     </g>
     <g id="line2d_6">
      <g>
       <use xlink:href="#mdc38803d74" x="254.618182" y="384.48" style="stroke: #000000; stroke-width: 0.8"/>
      </g>
     </g>
     <g id="text_3">
      <!-- 0.4 -->
      <g transform="translate(246.666619 399.078438) scale(0.1 -0.1)">
       <defs>
        <path id="DejaVuSans-34" d="M 2419 4116 
L 825 1625 
L 2419 1625 
L 2419 4116 
z
M 2253 4666 
L 3047 4666 
L 3047 1625 
L 3713 1625 
L 3713 1100 
L 3047 1100 
L 3047 0 
L 2419 0 
L 2419 1100 
L 313 1100 
L 313 1709 
L 2253 4666 
z
" transform="scale(0.015625)"/>
       </defs>
       <use xlink:href="#DejaVuSans-30"/>
       <use xlink:href="#DejaVuSans-2e" transform="translate(63.623047 0)"/>
       <use xlink:href="#DejaVuSans-34" transform="translate(95.410156 0)"/>
      </g>
     </g>
    </g>
    <g id="xtick_4">
     <g id="line2d_7">
      <path d="M 335.781818 384.48 
L 335.781818 51.84 
" clip-path="url(#p0df7ca83b2)" style="fill: none; stroke: #b0b0b0; stroke-opacity: 0.3; stroke-width: 0.8; stroke-linecap: square"/>
     </g>
     <g id="line2d_8">
      <g>
       <use xlink:href="#mdc38803d74" x="335.781818" y="384.48" style="stroke: #000000; stroke-width: 0.8"/>
      </g>
     </g>
     <g id="text_4">
      <!-- 0.6 -->
      <g transform="translate(327.830256 399.078438) scale(0.1 -0.1)">
       <defs>
        <path id="DejaVuSans-36" d="M 2113 2584 
Q 1688 2584 1439 2293 
Q 1191 2003 1191 1497 
Q 1191 994 1439 701 
Q 1688 409 2113 409 
Q 2538 409 2786 701 
Q 3034 994 3034 1497 
Q 3034 2003 2786 2293 
Q 2538 2584 2113 2584 
z
M 3366 4563 
L 3366 3988 
Q 3128 4100 2886 4159 
Q 2644 4219 2406 4219 
Q 1781 4219 1451 3797 
Q 1122 3375 1075 2522 
Q 1259 2794 1537 2939 
Q 1816 3084 2150 3084 
Q 2853 3084 3261 2657 
Q 3669 2231 3669 1497 
Q 3669 778 3244 343 
Q 2819 -91 2113 -91 
Q 1303 -91 875 529 
Q 447 1150 447 2328 
Q 447 3434 972 4092 
Q 1497 4750 2381 4750 
Q 2619 4750 2861 4703 
Q 3103 4656 3366 4563 
z
" transform="scale(0.015625)"/>
       </defs>
       <use xlink:href="#DejaVuSans-30"/>
       <use xlink:href="#DejaVuSans-2e" transform="translate(63.623047 0)"/>
       <use xlink:href="#DejaVuSans-36" transform="translate(95.410156 0)"/>
      </g>
     </g>
    </g>
    <g id="xtick_5">
     <g id="line2d_9">
      <path d="M 416.945455 384.48 
L 416.945455 51.84 
" clip-path="url(#p0df7ca83b2)" style="fill: none; stroke: #b0b0b0; stroke-opacity: 0.3; stroke-width: 0.8; stroke-linecap: square"/>
     </g>
     <g id="line2d_10">
      <g>
       <use xlink:href="#mdc38803d74" x="416.945455" y="384.48" style="stroke: #000000; stroke-width: 0.8"/>
      </g>
     </g>
     <g id="text_5">
      <!-- 0.8 -->
      <g transform="translate(408.993892 399.078438) scale(0.1 -0.1)">
       <defs>
        <path id="DejaVuSans-38" d="M 2034 2216 
Q 1584 2216 1326 1975 
Q 1069 1734 1069 1313 
Q 1069 891 1326 650 
Q 1584 409 2034 409 
Q 2484 409 2743 651 
Q 3003 894 3003 1313 
Q 3003 1734 2745 1975 
Q 2488 2216 2034 2216 
z
M 1403 2484 
Q 997 2584 770 2862 
Q 544 3141 544 3541 
Q 544 4100 942 4425 
Q 1341 4750 2034 4750 
Q 2731 4750 3128 4425 
Q 3525 4100 3525 3541 
Q 3525 3141 3298 2862 
Q 3072 2584 2669 2484 
Q 3125 2378 3379 2068 
Q 3634 1759 3634 1313 
Q 3634 634 3220 271 
Q 2806 -91 2034 -91 
Q 1263 -91 848 271 
Q 434 634 434 1313 
Q 434 1759 690 2068 
Q 947 2378 1403 2484 
z
M 1172 3481 
Q 1172 3119 1398 2916 
Q 1625 2713 2034 2713 
Q 2441 2713 2670 2916 
Q 2900 3119 2900 3481 
Q 2900 3844 2670 4047 
Q 2441 4250 2034 4250 
Q 1625 4250 1398 4047 
Q 1172 3844 1172 3481 
z
" transform="scale(0.015625)"/>
       </defs>
       <use xlink:href="#DejaVuSans-30"/>
       <use xlink:href="#DejaVuSans-2e" transform="translate(63.623047 0)"/>
       <use xlink:href="#DejaVuSans-38" transform="translate(95.410156 0)"/>
      </g>
     </g>
    </g>
    <g id="xtick_6">
     <g id="line2d_11">
      <path d="M 498.109091 384.48 
L 498.109091 51.84 
" clip-path="url(#p0df7ca83b2)" style="fill: none; stroke: #b0b0b0; stroke-opacity: 0.3; stroke-width: 0.8; stroke-linecap: square"/>
     </g>
     <g id="line2d_12">
      <g>
       <use xlink:href="#mdc38803d74" x="498.109091" y="384.48" style="stroke: #000000; stroke-width: 0.8"/>
      </g>
     </g>
     <g id="text_6">
      <!-- 1.0 -->
      <g transform="translate(490.157528 399.078438) scale(0.1 -0.1)">
       <defs>
        <path id="DejaVuSans-31" d="M 794 531 
L 1825 531 
L 1825 4091 
L 703 3866 
L 703 4441 
L 1819 4666 
L 2450 4666 
L 2450 531 
L 3481 531 
L 3481 0 
L 794 0 
L 794 531 
z
" transform="scale(0.015625)"/>
       </defs>
       <use xlink:href="#DejaVuSans-31"/>
       <use xlink:href="#DejaVuSans-2e" transform="translate(63.623047 0)"/>
       <use xlink:href="#DejaVuSans-30" transform="translate(95.410156 0)"/>
      </g>
     </g>
    </g>
    <g id="text_7">
     <!-- False Positive Rate -->
     <g transform="translate(248.733594 412.756563) scale(0.1 -0.1)">
      <defs>
       <path id="DejaVuSans-46" d="M 628 4666 
L 3309 4666 
L 3309 4134 
L 1259 4134 
L 1259 2759 
L 3109 2759 
L 3109 2228 
L 1259 2228 
L 1259 0 
L 628 0 
L 628 4666 
z
" transform="scale(0.015625)"/>
       <path id="DejaVuSans-61" d="M 2194 1759 
Q 1497 1759 1228 1600 
Q 959 1441 959 1056 
Q 959 750 1161 570 
Q 1363 391 1709 391 
Q 2188 391 2477 730 
Q 2766 1069 2766 1631 
L 2766 1759 
L 2194 1759 
z
M 3341 1997 
L 3341 0 
L 2766 0 
L 2766 531 
Q 2569 213 2275 61 
Q 1981 -91 1556 -91 
Q 1019 -91 701 211 
Q 384 513 384 1019 
Q 384 1609 779 1909 
Q 1175 2209 1959 2209 
L 2766 2209 
L 2766 2266 
Q 2766 2663 2505 2880 
Q 2244 3097 1772 3097 
Q 1472 3097 1187 3025 
Q 903 2953 641 2809 
L 641 3341 
Q 956 3463 1253 3523 
Q 1550 3584 1831 3584 
Q 2591 3584 2966 3190 
Q 3341 2797 3341 1997 
z
" transform="scale(0.015625)"/>
       <path id="DejaVuSans-6c" d="M 603 4863 
L 1178 4863 
L 1178 0 
L 603 0 
L 603 4863 
z
" transform="scale(0.015625)"/>
       <path id="DejaVuSans-73" d="M 2834 3397 
L 2834 2853 
Q 2591 2978 2328 3040 
Q 2066 3103 1784 3103 
Q 1356 3103 1142 2972 
Q 928 2841 928 2578 
Q 928 2378 1081 2264 
Q 1234 2150 1697 2047 
L 1894 2003 
Q 2506 1872 2764 1633 
Q 3022 1394 3022 966 
Q 3022 478 2636 193 
Q 2250 -91 1575 -91 
Q 1294 -91 989 -36 
Q 684 19 347 128 
L 347 722 
Q 666 556 975 473 
Q 1284 391 1588 391 
Q 1994 391 2212 530 
Q 2431 669 2431 922 
Q 2431 1156 2273 1281 
Q 2116 1406 1581 1522 
L 1381 1569 
Q 847 1681 609 1914 
Q 372 2147 372 2553 
Q 372 3047 722 3315 
Q 1072 3584 1716 3584 
Q 2034 3584 2315 3537 
Q 2597 3491 2834 3397 
z
" transform="scale(0.015625)"/>
       <path id="DejaVuSans-65" d="M 3597 1894 
L 3597 1613 
L 953 1613 
Q 991 1019 1311 708 
Q 1631 397 2203 397 
Q 2534 397 2845 478 
Q 3156 559 3463 722 
L 3463 178 
Q 3153 47 2828 -22 
Q 2503 -91 2169 -91 
Q 1331 -91 842 396 
Q 353 884 353 1716 
Q 353 2575 817 3079 
Q 1281 3584 2069 3584 
Q 2775 3584 3186 3129 
Q 3597 2675 3597 1894 
z
M 3022 2063 
Q 3016 2534 2758 2815 
Q 2500 3097 2075 3097 
Q 1594 3097 1305 2825 
Q 1016 2553 972 2059 
L 3022 2063 
z
" transform="scale(0.015625)"/>
       <path id="DejaVuSans-20" transform="scale(0.015625)"/>
       <path id="DejaVuSans-50" d="M 1259 4147 
L 1259 2394 
L 2053 2394 
Q 2494 2394 2734 2622 
Q 2975 2850 2975 3272 
Q 2975 3691 2734 3919 
Q 2494 4147 2053 4147 
L 1259 4147 
z
M 628 4666 
L 2053 4666 
Q 2838 4666 3239 4311 
Q 3641 3956 3641 3272 
Q 3641 2581 3239 2228 
Q 2838 1875 2053 1875 
L 1259 1875 
L 1259 0 
L 628 0 
L 628 4666 
z
" transform="scale(0.015625)"/>
       <path id="DejaVuSans-6f" d="M 1959 3097 
Q 1497 3097 1228 2736 
Q 959 2375 959 1747 
Q 959 1119 1226 758 
Q 1494 397 1959 397 
Q 2419 397 2687 759 
Q 2956 1122 2956 1747 
Q 2956 2369 2687 2733 
Q 2419 3097 1959 3097 
z
M 1959 3584 
Q 2709 3584 3137 3096 
Q 3566 2609 3566 1747 
Q 3566 888 3137 398 
Q 2709 -91 1959 -91 
Q 1206 -91 779 398 
Q 353 888 353 1747 
Q 353 2609 779 3096 
Q 1206 3584 1959 3584 
z
" transform="scale(0.015625)"/>
       <path id="DejaVuSans-69" d="M 603 3500 
L 1178 3500 
L 1178 0 
L 603 0 
L 603 3500 
z
M 603 4863 
L 1178 4863 
L 1178 4134 
L 603 4134 
L 603 4863 
z
" transform="scale(0.015625)"/>
       <path id="DejaVuSans-74" d="M 1172 4494 
L 1172 3500 
L 2356 3500 
L 2356 3053 
L 1172 3053 
L 1172 1153 
Q 1172 725 1289 603 
Q 1406 481 1766 481 
L 2356 481 
L 2356 0 
L 1766 0 
Q 1100 0 847 248 
Q 594 497 594 1153 
L 594 3053 
L 172 3053 
L 172 3500 
L 594 3500 
L 594 4494 
L 1172 4494 
z
" transform="scale(0.015625)"/>
       <path id="DejaVuSans-76" d="M 191 3500 
L 800 3500 
L 1894 563 
L 2988 3500 
L 3597 3500 
L 2284 0 
L 1503 0 
L 191 3500 
z
" transform="scale(0.015625)"/>
       <path id="DejaVuSans-52" d="M 2841 2188 
Q 3044 2119 3236 1894 
Q 3428 1669 3622 1275 
L 4263 0 
L 3584 0 
L 2988 1197 
Q 2756 1666 2539 1819 
Q 2322 1972 1947 1972 
L 1259 1972 
L 1259 0 
L 628 0 
L 628 4666 
L 2053 4666 
Q 2853 4666 3247 4331 
Q 3641 3997 3641 3322 
Q 3641 2881 3436 2590 
Q 3231 2300 2841 2188 
z
M 1259 4147 
L 1259 2491 
L 2053 2491 
Q 2509 2491 2742 2702 
Q 2975 2913 2975 3322 
Q 2975 3731 2742 3939 
Q 2509 4147 2053 4147 
L 1259 4147 
z
" transform="scale(0.015625)"/>
      </defs>
      <use xlink:href="#DejaVuSans-46"/>
      <use xlink:href="#DejaVuSans-61" transform="translate(48.394531 0)"/>
      <use xlink:href="#DejaVuSans-6c" transform="translate(109.673828 0)"/>
      <use xlink:href="#DejaVuSans-73" transform="translate(137.457031 0)"/>
      <use xlink:href="#DejaVuSans-65" transform="translate(189.556641 0)"/>
      <use xlink:href="#DejaVuSans-20" transform="translate(251.080078 0)"/>
      <use xlink:href="#DejaVuSans-50" transform="translate(282.867188 0)"/>
      <use xlink:href="#DejaVuSans-6f" transform="translate(339.544922 0)"/>
      <use xlink:href="#DejaVuSans-73" transform="translate(400.726562 0)"/>
      <use xlink:href="#DejaVuSans-69" transform="translate(452.826172 0)"/>
      <use xlink:href="#DejaVuSans-74" transform="translate(480.609375 0)"/>
      <use xlink:href="#DejaVuSans-69" transform="translate(519.818359 0)"/>
      <use xlink:href="#DejaVuSans-76" transform="translate(547.601562 0)"/>
      <use xlink:href="#DejaVuSans-65" transform="translate(606.78125 0)"/>
      <use xlink:href="#DejaVuSans-20" transform="translate(668.304688 0)"/>
      <use xlink:href="#DejaVuSans-52" transform="translate(700.091797 0)"/>
      <use xlink:href="#DejaVuSans-61" transform="translate(767.324219 0)"/>
      <use xlink:href="#DejaVuSans-74" transform="translate(828.603516 0)"/>
      <use xlink:href="#DejaVuSans-65" transform="translate(867.8125 0)"/>
     </g>
    </g>
   </g>
   <g id="matplotlib.axis_2">
    <g id="ytick_1">
     <g id="line2d_13">
      <path d="M 72 369.36 
L 518.4 369.36 
" clip-path="url(#p0df7ca83b2)" style="fill: none; stroke: #b0b0b0; stroke-opacity: 0.3; stroke-width: 0.8; stroke-linecap: square"/>
     </g>
     <g id="line2d_14">
      <defs>
       <path id="m93ebfe998b" d="M 0 0 
L -3.5 0 
" style="stroke: #000000; stroke-width: 0.8"/>
      </defs>
      <g>
       <use xlink:href="#m93ebfe998b" x="72" y="369.36" style="stroke: #000000; stroke-width: 0.8"/>
      </g>
     </g>
     <g id="text_8">
      <!-- 0.0 -->
      <g transform="translate(49.096875 373.159219) scale(0.1 -0.1)">
       <use xlink:href="#DejaVuSans-30"/>
       <use xlink:href="#DejaVuSans-2e" transform="translate(63.623047 0)"/>
       <use xlink:href="#DejaVuSans-30" transform="translate(95.410156 0)"/>
      </g>
     </g>
    </g>
    <g id="ytick_2">
     <g id="line2d_15">
      <path d="M 72 308.88 
L 518.4 308.88 
" clip-path="url(#p0df7ca83b2)" style="fill: none; stroke: #b0b0b0; stroke-opacity: 0.3; stroke-width: 0.8; stroke-linecap: square"/>
     </g>
     <g id="line2d_16">
      <g>
       <use xlink:href="#m93ebfe998b" x="72" y="308.88" style="stroke: #000000; stroke-width: 0.8"/>
      </g>
     </g>
     <g id="text_9">
      <!-- 0.2 -->
      <g transform="translate(49.096875 312.679219) scale(0.1 -0.1)">
       <use xlink:href="#DejaVuSans-30"/>
       <use xlink:href="#DejaVuSans-2e" transform="translate(63.623047 0)"/>
       <use xlink:href="#DejaVuSans-32" transform="translate(95.410156 0)"/>
      </g>
     </g>
    </g>
    <g id="ytick_3">
     <g id="line2d_17">
      <path d="M 72 248.4 
L 518.4 248.4 
" clip-path="url(#p0df7ca83b2)" style="fill: none; stroke: #b0b0b0; stroke-opacity: 0.3; stroke-width: 0.8; stroke-linecap: square"/>
     </g>
     <g id="line2d_18">
      <g>
       <use xlink:href="#m93ebfe998b" x="72" y="248.4" style="stroke: #000000; stroke-width: 0.8"/>
      </g>
     </g>
     <g id="text_10">
      <!-- 0.4 -->
      <g transform="translate(49.096875 252.199219) scale(0.1 -0.1)">
       <use xlink:href="#DejaVuSans-30"/>
       <use xlink:href="#DejaVuSans-2e" transform="translate(63.623047 0)"/>
       <use xlink:href="#DejaVuSans-34" transform="translate(95.410156 0)"/>
      </g>
     </g>
    </g>
    <g id="ytick_4">
     <g id="line2d_19">
      <path d="M 72 187.92 
L 518.4 187.92 
" clip-path="url(#p0df7ca83b2)" style="fill: none; stroke: #b0b0b0; stroke-opacity: 0.3; stroke-width: 0.8; stroke-linecap: square"/>
     </g>
     <g id="line2d_20">
      <g>
       <use xlink:href="#m93ebfe998b" x="72" y="187.92" style="stroke: #000000; stroke-width: 0.8"/>
      </g>
     </g>
     <g id="text_11">
      <!-- 0.6 -->
      <g transform="translate(49.096875 191.719219) scale(0.1 -0.1)">
       <use xlink:href="#DejaVuSans-30"/>
       <use xlink:href="#DejaVuSans-2e" transform="translate(63.623047 0)"/>
       <use xlink:href="#DejaVuSans-36" transform="translate(95.410156 0)"/>
      </g>
     </g>
    </g>
    <g id="ytick_5">
     <g id="line2d_21">
      <path d="M 72 127.44 
L 518.4 127.44 
" clip-path="url(#p0df7ca83b2)" style="fill: none; stroke: #b0b0b0; stroke-opacity: 0.3; stroke-width: 0.8; stroke-linecap: square"/>
     </g>
     <g id="line2d_22">
      <g>
       <use xlink:href="#m93ebfe998b" x="72" y="127.44" style="stroke: #000000; stroke-width: 0.8"/>
      </g>
     </g>
     <g id="text_12">
      <!-- 0.8 -->
      <g transform="translate(49.096875 131.239219) scale(0.1 -0.1)">
       <use xlink:href="#DejaVuSans-30"/>
       <use xlink:href="#DejaVuSans-2e" transform="translate(63.623047 0)"/>
       <use xlink:href="#DejaVuSans-38" transform="translate(95.410156 0)"/>
      </g>
     </g>
    </g>
    <g id="ytick_6">
     <g id="line2d_23">
      <path d="M 72 66.96 
L 518.4 66.96 
" clip-path="url(#p0df7ca83b2)" style="fill: none; stroke: #b0b0b0; stroke-opacity: 0.3; stroke-width: 0.8; stroke-linecap: square"/>
     </g>
     <g id="line2d_24">
      <g>
       <use xlink:href="#m93ebfe998b" x="72" y="66.96" style="stroke: #000000; stroke-width: 0.8"/>
      </g>
     </g>
     <g id="text_13">
      <!-- 1.0 -->
      <g transform="translate(49.096875 70.759219) scale(0.1 -0.1)">
       <use xlink:href="#DejaVuSans-31"/>
       <use xlink:href="#DejaVuSans-2e" transform="translate(63.623047 0)"/>
       <use xlink:href="#DejaVuSans-30" transform="translate(95.410156 0)"/>
      </g>
     </g>
    </g>
    <g id="text_14">
     <!-- True Positive Rate -->
     <g transform="translate(43.017187 262.689687) rotate(-90) scale(0.1 -0.1)">
      <defs>
       <path id="DejaVuSans-54" d="M -19 4666 
L 3928 4666 
L 3928 4134 
L 2272 4134 
L 2272 0 
L 1638 0 
L 1638 4134 
L -19 4134 
L -19 4666 
z
" transform="scale(0.015625)"/>
       <path id="DejaVuSans-72" d="M 2631 2963 
Q 2534 3019 2420 3045 
Q 2306 3072 2169 3072 
Q 1681 3072 1420 2755 
Q 1159 2438 1159 1844 
L 1159 0 
L 581 0 
L 581 3500 
L 1159 3500 
L 1159 2956 
Q 1341 3275 1631 3429 
Q 1922 3584 2338 3584 
Q 2397 3584 2469 3576 
Q 2541 3569 2628 3553 
L 2631 2963 
z
" transform="scale(0.015625)"/>
       <path id="DejaVuSans-75" d="M 544 1381 
L 544 3500 
L 1119 3500 
L 1119 1403 
Q 1119 906 1312 657 
Q 1506 409 1894 409 
Q 2359 409 2629 706 
Q 2900 1003 2900 1516 
L 2900 3500 
L 3475 3500 
L 3475 0 
L 2900 0 
L 2900 538 
Q 2691 219 2414 64 
Q 2138 -91 1772 -91 
Q 1169 -91 856 284 
Q 544 659 544 1381 
z
M 1991 3584 
L 1991 3584 
z
" transform="scale(0.015625)"/>
      </defs>
      <use xlink:href="#DejaVuSans-54"/>
      <use xlink:href="#DejaVuSans-72" transform="translate(46.333984 0)"/>
      <use xlink:href="#DejaVuSans-75" transform="translate(87.447266 0)"/>
      <use xlink:href="#DejaVuSans-65" transform="translate(150.826172 0)"/>
      <use xlink:href="#DejaVuSans-20" transform="translate(212.349609 0)"/>
      <use xlink:href="#DejaVuSans-50" transform="translate(244.136719 0)"/>
      <use xlink:href="#DejaVuSans-6f" transform="translate(300.814453 0)"/>
      <use xlink:href="#DejaVuSans-73" transform="translate(361.996094 0)"/>
      <use xlink:href="#DejaVuSans-69" transform="translate(414.095703 0)"/>
      <use xlink:href="#DejaVuSans-74" transform="translate(441.878906 0)"/>
      <use xlink:href="#DejaVuSans-69" transform="translate(481.087891 0)"/>
      <use xlink:href="#DejaVuSans-76" transform="translate(508.871094 0)"/>
      <use xlink:href="#DejaVuSans-65" transform="translate(568.050781 0)"/>
      <use xlink:href="#DejaVuSans-20" transform="translate(629.574219 0)"/>
      <use xlink:href="#DejaVuSans-52" transform="translate(661.361328 0)"/>
      <use xlink:href="#DejaVuSans-61" transform="translate(728.59375 0)"/>
      <use xlink:href="#DejaVuSans-74" transform="translate(789.873047 0)"/>
      <use xlink:href="#DejaVuSans-65" transform="translate(829.082031 0)"/>
     </g>
    </g>
   </g>
   <g id="line2d_25">
    <path d="M 92.290909 369.36 
L 92.463158 369.36 
L 92.463158 368.874607 
L 92.635407 368.389213 
L 92.979904 368.389213 
L 92.979904 367.90382 
L 93.152153 367.90382 
L 93.152153 367.418427 
L 93.324402 366.933034 
L 93.496651 366.933034 
L 93.6689 366.44764 
L 94.185646 366.44764 
L 94.185646 365.962247 
L 94.357895 365.962247 
L 94.357895 365.476854 
L 94.530144 365.476854 
L 94.702392 364.991461 
L 94.874641 364.991461 
L 95.219139 364.020674 
L 95.219139 363.535281 
L 96.42488 363.535281 
L 96.42488 363.049888 
L 96.769378 362.079101 
L 96.769378 361.108315 
L 96.941627 360.622921 
L 97.113876 360.622921 
L 97.113876 360.137528 
L 98.147368 360.137528 
L 98.147368 359.652135 
L 98.319617 359.652135 
L 98.319617 358.681348 
L 99.525359 358.681348 
L 99.525359 358.195955 
L 99.697608 358.195955 
L 99.697608 357.710562 
L 100.042105 356.739775 
L 100.214354 356.739775 
L 100.386603 356.254382 
L 100.558852 356.254382 
L 100.7311 355.768989 
L 101.075598 355.768989 
L 101.247847 355.283596 
L 101.592344 355.283596 
L 101.592344 354.798202 
L 101.764593 354.312809 
L 101.936842 354.312809 
L 101.936842 353.827416 
L 102.28134 353.827416 
L 102.453589 353.342022 
L 102.625837 353.342022 
L 102.625837 352.856629 
L 103.142584 352.856629 
L 103.142584 351.885843 
L 103.314833 351.885843 
L 103.314833 351.400449 
L 103.65933 351.400449 
L 103.65933 350.915056 
L 103.831579 350.915056 
L 103.831579 349.94427 
L 104.348325 348.48809 
L 104.520574 348.48809 
L 104.520574 348.002697 
L 104.692823 348.002697 
L 104.692823 347.517303 
L 104.865072 347.517303 
L 104.865072 346.546517 
L 105.554067 346.546517 
L 105.554067 346.061124 
L 105.726316 345.57573 
L 105.726316 344.604944 
L 105.898565 344.119551 
L 105.898565 343.634157 
L 106.070813 343.148764 
L 106.070813 341.692584 
L 106.243062 341.207191 
L 106.243062 340.721798 
L 106.58756 340.721798 
L 106.58756 339.751011 
L 106.932057 339.751011 
L 106.932057 339.265618 
L 107.621053 339.265618 
L 107.793301 338.780225 
L 107.96555 338.780225 
L 107.96555 338.294831 
L 108.310048 337.324045 
L 108.310048 335.867865 
L 108.482297 335.867865 
L 108.654545 335.382472 
L 108.826794 335.382472 
L 108.826794 333.926292 
L 109.515789 333.926292 
L 109.515789 332.470112 
L 110.549282 332.470112 
L 110.721531 331.984719 
L 110.89378 331.984719 
L 111.066029 331.499326 
L 111.238278 331.499326 
L 111.238278 331.013933 
L 111.410526 331.013933 
L 111.410526 329.557753 
L 112.444019 329.557753 
L 112.444019 329.07236 
L 112.788517 329.07236 
L 112.788517 328.101573 
L 113.133014 328.101573 
L 113.133014 327.61618 
L 113.305263 327.61618 
L 113.305263 326.645393 
L 113.477512 326.645393 
L 113.477512 326.16 
L 113.82201 326.16 
L 113.82201 325.674607 
L 113.994258 325.189213 
L 114.166507 325.189213 
L 114.338756 324.70382 
L 114.511005 324.70382 
L 114.683254 324.218427 
L 115.027751 324.218427 
L 115.027751 323.24764 
L 115.2 322.762247 
L 115.716746 322.762247 
L 115.716746 322.276854 
L 115.888995 322.276854 
L 115.888995 321.791461 
L 116.57799 321.791461 
L 116.57799 321.306067 
L 116.922488 321.306067 
L 116.922488 320.820674 
L 117.439234 320.820674 
L 117.439234 320.335281 
L 117.611483 319.849888 
L 118.300478 319.849888 
L 118.300478 318.879101 
L 118.644976 318.879101 
L 118.644976 318.393708 
L 118.817225 318.393708 
L 118.989474 317.908315 
L 119.50622 317.908315 
L 119.678469 317.422921 
L 120.022967 317.422921 
L 120.022967 316.937528 
L 120.711962 316.937528 
L 120.711962 315.966742 
L 120.884211 315.481348 
L 121.056459 315.481348 
L 121.056459 314.510562 
L 121.228708 314.510562 
L 121.573206 313.539775 
L 122.089952 313.539775 
L 122.089952 313.054382 
L 122.262201 312.568989 
L 123.123445 312.568989 
L 123.123445 312.083596 
L 123.467943 312.083596 
L 123.640191 311.598202 
L 123.81244 311.598202 
L 123.81244 310.627416 
L 123.984689 310.627416 
L 123.984689 310.142022 
L 124.673684 310.142022 
L 124.673684 309.656629 
L 125.018182 309.656629 
L 125.190431 309.171236 
L 125.362679 309.171236 
L 125.534928 308.685843 
L 125.879426 308.685843 
L 125.879426 308.200449 
L 126.051675 308.200449 
L 126.051675 307.715056 
L 126.568421 307.715056 
L 126.568421 307.229663 
L 127.257416 307.229663 
L 127.429665 306.74427 
L 128.290909 306.74427 
L 128.463158 306.258876 
L 128.807656 306.258876 
L 128.807656 305.773483 
L 128.979904 305.773483 
L 128.979904 304.802697 
L 129.152153 304.802697 
L 129.152153 304.317303 
L 129.496651 304.317303 
L 129.6689 303.83191 
L 130.702392 303.83191 
L 130.702392 302.861124 
L 131.04689 302.861124 
L 131.219139 302.37573 
L 131.735885 302.37573 
L 131.908134 301.890337 
L 132.080383 301.890337 
L 132.080383 301.404944 
L 133.286124 301.404944 
L 133.286124 300.919551 
L 134.319617 300.919551 
L 134.664115 299.948764 
L 135.008612 299.948764 
L 135.180861 299.463371 
L 135.180861 298.977978 
L 136.386603 298.977978 
L 136.386603 298.492584 
L 136.7311 298.492584 
L 136.7311 298.007191 
L 136.903349 298.007191 
L 137.075598 297.521798 
L 137.075598 297.036404 
L 137.592344 295.580225 
L 137.764593 295.580225 
L 137.764593 295.094831 
L 138.28134 295.094831 
L 138.28134 294.609438 
L 138.453589 294.609438 
L 138.453589 293.638652 
L 140.003828 293.638652 
L 140.003828 293.153258 
L 141.554067 293.153258 
L 141.554067 292.667865 
L 141.726316 292.182472 
L 141.726316 291.697079 
L 142.070813 291.697079 
L 142.070813 291.211685 
L 142.243062 291.211685 
L 142.415311 290.726292 
L 142.932057 290.726292 
L 142.932057 290.240899 
L 143.448804 290.240899 
L 143.448804 289.755506 
L 143.793301 289.755506 
L 143.793301 289.270112 
L 144.137799 289.270112 
L 144.137799 288.299326 
L 145.515789 288.299326 
L 145.515789 287.813933 
L 145.688038 287.813933 
L 145.860287 287.328539 
L 146.032536 287.328539 
L 146.032536 286.843146 
L 146.89378 286.843146 
L 147.066029 286.357753 
L 147.238278 286.357753 
L 147.238278 285.87236 
L 147.582775 285.87236 
L 147.582775 285.386966 
L 148.099522 285.386966 
L 148.099522 284.901573 
L 148.616268 284.901573 
L 148.616268 284.41618 
L 149.305263 284.41618 
L 149.305263 283.930787 
L 149.477512 283.930787 
L 149.649761 283.445393 
L 149.994258 283.445393 
L 149.994258 281.989213 
L 151.888995 281.989213 
L 152.233493 281.018427 
L 153.783732 281.018427 
L 154.12823 280.04764 
L 154.300478 280.04764 
L 154.300478 279.562247 
L 154.817225 279.562247 
L 154.817225 279.076854 
L 155.50622 279.076854 
L 155.50622 278.591461 
L 155.678469 278.591461 
L 155.850718 278.106067 
L 155.850718 277.620674 
L 156.539713 277.620674 
L 156.539713 276.649888 
L 157.400957 276.649888 
L 157.573206 276.164494 
L 157.745455 276.164494 
L 157.745455 275.679101 
L 158.262201 275.679101 
L 158.262201 275.193708 
L 159.81244 275.193708 
L 159.984689 274.708315 
L 160.156938 274.708315 
L 160.329187 274.222921 
L 160.673684 274.222921 
L 160.845933 273.737528 
L 161.707177 273.737528 
L 161.707177 273.252135 
L 162.223923 273.252135 
L 162.568421 272.281348 
L 163.085167 272.281348 
L 163.085167 271.795955 
L 164.635407 271.795955 
L 164.635407 271.310562 
L 164.807656 271.310562 
L 164.807656 270.339775 
L 164.979904 270.339775 
L 165.152153 269.854382 
L 165.152153 269.368989 
L 166.013397 269.368989 
L 166.013397 268.398202 
L 166.185646 268.398202 
L 166.185646 267.912809 
L 166.357895 267.427416 
L 166.530144 267.427416 
L 166.702392 266.942022 
L 167.908134 266.942022 
L 167.908134 266.456629 
L 168.42488 266.456629 
L 168.597129 265.971236 
L 170.836364 265.971236 
L 170.836364 265.485843 
L 171.180861 264.515056 
L 171.525359 264.515056 
L 171.525359 264.029663 
L 172.7311 264.029663 
L 172.903349 263.54427 
L 172.903349 263.058876 
L 173.075598 263.058876 
L 173.247847 262.573483 
L 173.420096 262.573483 
L 173.420096 262.08809 
L 173.764593 262.08809 
L 173.764593 261.602697 
L 174.28134 261.602697 
L 174.453589 261.117303 
L 174.625837 261.117303 
L 174.625837 260.63191 
L 176.176077 260.63191 
L 176.520574 259.661124 
L 177.037321 259.661124 
L 177.209569 259.17573 
L 182.032536 259.17573 
L 182.032536 258.204944 
L 182.721531 258.204944 
L 182.89378 257.719551 
L 182.89378 257.234157 
L 183.066029 257.234157 
L 183.066029 256.748764 
L 183.582775 256.748764 
L 183.755024 256.263371 
L 185.305263 256.263371 
L 185.305263 255.777978 
L 185.649761 255.777978 
L 185.649761 255.292584 
L 186.683254 255.292584 
L 187.027751 254.321798 
L 187.888995 254.321798 
L 188.061244 253.836404 
L 188.233493 253.836404 
L 188.405742 253.351011 
L 189.094737 253.351011 
L 189.266986 252.865618 
L 190.472727 252.865618 
L 190.644976 252.380225 
L 192.884211 252.380225 
L 193.056459 251.894831 
L 193.573206 251.894831 
L 193.745455 251.409438 
L 194.089952 251.409438 
L 194.089952 250.924045 
L 194.778947 250.924045 
L 194.951196 250.438652 
L 195.295694 250.438652 
L 195.467943 249.953258 
L 196.156938 249.953258 
L 196.156938 249.467865 
L 196.673684 249.467865 
L 196.845933 248.982472 
L 197.362679 248.982472 
L 197.534928 248.497079 
L 198.74067 248.497079 
L 199.085167 247.526292 
L 200.290909 247.526292 
L 200.463158 247.040899 
L 201.496651 247.040899 
L 201.6689 246.555506 
L 202.874641 246.555506 
L 202.874641 246.070112 
L 203.04689 246.070112 
L 203.04689 245.584719 
L 203.391388 245.584719 
L 203.563636 245.099326 
L 204.42488 245.099326 
L 204.42488 244.613933 
L 204.597129 244.613933 
L 204.597129 244.128539 
L 204.769378 244.128539 
L 204.769378 243.643146 
L 205.113876 243.643146 
L 205.458373 242.67236 
L 207.35311 242.67236 
L 207.35311 242.186966 
L 208.558852 242.186966 
L 208.7311 241.701573 
L 208.7311 241.21618 
L 209.420096 241.21618 
L 209.592344 240.730787 
L 209.764593 240.730787 
L 209.764593 240.245393 
L 210.109091 240.245393 
L 210.28134 239.76 
L 210.798086 239.76 
L 210.798086 239.274607 
L 210.970335 238.789213 
L 211.142584 238.789213 
L 211.314833 238.30382 
L 211.487081 238.30382 
L 211.65933 237.818427 
L 213.037321 237.818427 
L 213.209569 237.333034 
L 213.726316 237.333034 
L 213.898565 236.84764 
L 214.243062 236.84764 
L 214.243062 236.362247 
L 214.759809 236.362247 
L 214.759809 235.876854 
L 216.999043 235.876854 
L 216.999043 235.391461 
L 217.171292 234.906067 
L 217.171292 234.420674 
L 217.343541 233.935281 
L 217.688038 233.935281 
L 217.688038 233.449888 
L 217.860287 232.964494 
L 218.204785 232.964494 
L 218.204785 232.479101 
L 218.549282 231.508315 
L 219.238278 231.508315 
L 219.410526 231.022921 
L 219.755024 231.022921 
L 219.927273 230.537528 
L 221.305263 230.537528 
L 221.477512 230.052135 
L 221.477512 229.566742 
L 221.82201 229.566742 
L 221.994258 229.081348 
L 223.372249 229.081348 
L 223.544498 228.595955 
L 223.544498 228.110562 
L 224.750239 228.110562 
L 224.922488 227.625169 
L 224.922488 227.139775 
L 225.094737 226.654382 
L 225.266986 226.654382 
L 225.439234 226.168989 
L 225.783732 226.168989 
L 225.955981 225.683596 
L 226.300478 225.683596 
L 226.300478 225.198202 
L 226.472727 225.198202 
L 226.472727 224.712809 
L 226.817225 224.712809 
L 226.989474 224.227416 
L 229.745455 224.227416 
L 229.917703 223.742022 
L 229.917703 223.256629 
L 230.089952 222.771236 
L 230.089952 222.285843 
L 231.640191 222.285843 
L 231.640191 221.800449 
L 231.984689 221.800449 
L 232.156938 221.315056 
L 232.673684 221.315056 
L 232.845933 220.829663 
L 233.018182 220.829663 
L 233.018182 220.34427 
L 233.190431 220.34427 
L 233.362679 219.858876 
L 233.879426 219.858876 
L 233.879426 219.373483 
L 234.396172 219.373483 
L 234.568421 218.88809 
L 237.324402 218.88809 
L 237.496651 218.402697 
L 238.185646 218.402697 
L 238.357895 217.917303 
L 238.357895 217.43191 
L 241.458373 217.43191 
L 241.630622 216.946517 
L 244.903349 216.946517 
L 244.903349 216.461124 
L 245.247847 216.461124 
L 245.247847 215.490337 
L 245.420096 215.490337 
L 245.420096 215.004944 
L 246.109091 215.004944 
L 246.28134 214.519551 
L 246.453589 214.519551 
L 246.798086 213.548764 
L 248.348325 213.548764 
L 248.520574 213.063371 
L 250.070813 213.063371 
L 250.243062 212.577978 
L 250.243062 212.092584 
L 250.415311 211.607191 
L 251.448804 211.607191 
L 251.621053 211.121798 
L 252.310048 211.121798 
L 252.482297 210.636404 
L 252.826794 210.636404 
L 252.999043 210.151011 
L 253.343541 210.151011 
L 253.343541 209.665618 
L 254.549282 209.665618 
L 254.721531 209.180225 
L 256.788517 209.180225 
L 256.960766 208.694831 
L 257.649761 208.694831 
L 257.649761 208.209438 
L 257.82201 208.209438 
L 257.82201 207.724045 
L 258.511005 207.724045 
L 258.511005 207.238652 
L 258.855502 207.238652 
L 258.855502 206.753258 
L 259.544498 206.753258 
L 259.544498 206.267865 
L 259.716746 205.782472 
L 259.888995 205.782472 
L 260.061244 205.297079 
L 261.266986 205.297079 
L 261.439234 204.811685 
L 261.783732 204.811685 
L 261.783732 204.326292 
L 261.955981 203.840899 
L 262.817225 203.840899 
L 262.989474 203.355506 
L 263.678469 203.355506 
L 263.678469 202.870112 
L 264.711962 202.870112 
L 264.711962 201.899326 
L 265.917703 201.899326 
L 266.089952 201.413933 
L 266.089952 200.928539 
L 266.262201 200.443146 
L 266.262201 199.957753 
L 266.606699 199.957753 
L 266.778947 199.47236 
L 267.295694 199.47236 
L 267.295694 198.986966 
L 267.467943 198.986966 
L 267.640191 198.501573 
L 269.190431 198.501573 
L 269.362679 198.01618 
L 269.362679 197.530787 
L 270.396172 197.530787 
L 270.396172 197.045393 
L 271.601914 197.045393 
L 271.601914 196.074607 
L 273.152153 196.074607 
L 273.152153 195.589213 
L 274.013397 195.589213 
L 274.185646 195.10382 
L 275.04689 195.10382 
L 275.04689 194.618427 
L 275.563636 194.618427 
L 275.735885 194.133034 
L 276.42488 194.133034 
L 276.597129 193.64764 
L 277.630622 193.64764 
L 277.802871 193.162247 
L 279.525359 193.162247 
L 279.525359 192.676854 
L 279.697608 192.191461 
L 279.697608 191.706067 
L 282.625837 191.706067 
L 282.798086 191.220674 
L 283.65933 191.220674 
L 283.65933 190.735281 
L 283.831579 190.735281 
L 284.003828 190.249888 
L 284.176077 190.249888 
L 284.348325 189.764494 
L 285.898565 189.764494 
L 285.898565 189.279101 
L 286.415311 189.279101 
L 286.415311 188.793708 
L 287.104306 188.793708 
L 287.104306 188.308315 
L 287.448804 188.308315 
L 287.621053 187.822921 
L 287.96555 187.822921 
L 287.96555 187.337528 
L 288.826794 187.337528 
L 288.999043 186.852135 
L 289.171292 186.852135 
L 289.343541 186.366742 
L 289.515789 186.366742 
L 289.688038 185.881348 
L 290.549282 185.881348 
L 290.721531 185.395955 
L 291.410526 185.395955 
L 291.410526 184.910562 
L 292.444019 184.910562 
L 292.788517 183.939775 
L 293.649761 183.939775 
L 293.82201 183.454382 
L 295.372249 183.454382 
L 295.544498 182.968989 
L 295.544498 182.483596 
L 298.12823 182.483596 
L 298.12823 181.998202 
L 298.300478 181.998202 
L 298.472727 181.512809 
L 298.817225 181.512809 
L 298.989474 181.027416 
L 299.50622 181.027416 
L 299.678469 180.542022 
L 300.884211 180.542022 
L 300.884211 180.056629 
L 301.056459 180.056629 
L 301.228708 179.571236 
L 303.640191 179.571236 
L 303.81244 179.085843 
L 304.329187 179.085843 
L 304.329187 178.600449 
L 306.051675 178.600449 
L 306.396172 177.629663 
L 307.257416 177.629663 
L 307.429665 177.14427 
L 308.290909 177.14427 
L 308.290909 176.658876 
L 308.463158 176.173483 
L 308.807656 176.173483 
L 308.807656 175.68809 
L 309.152153 175.68809 
L 309.324402 175.202697 
L 311.391388 175.202697 
L 311.563636 174.717303 
L 311.908134 174.717303 
L 312.080383 174.23191 
L 312.252632 174.23191 
L 312.42488 173.746517 
L 312.941627 173.746517 
L 313.113876 173.261124 
L 314.664115 173.261124 
L 314.836364 172.77573 
L 315.525359 172.77573 
L 315.697608 172.290337 
L 318.28134 172.290337 
L 318.453589 171.804944 
L 318.453589 171.319551 
L 318.798086 171.319551 
L 318.970335 170.834157 
L 320.865072 170.834157 
L 321.037321 170.348764 
L 321.898565 170.348764 
L 322.070813 169.863371 
L 322.243062 169.863371 
L 322.243062 169.377978 
L 323.448804 169.377978 
L 323.621053 168.892584 
L 325.860287 168.892584 
L 325.860287 168.407191 
L 327.755024 168.407191 
L 327.755024 167.921798 
L 328.099522 167.921798 
L 328.27177 167.436404 
L 328.444019 167.436404 
L 328.788517 166.465618 
L 329.133014 166.465618 
L 329.305263 165.980225 
L 329.649761 165.980225 
L 329.649761 165.494831 
L 329.82201 165.494831 
L 329.82201 165.009438 
L 329.994258 165.009438 
L 330.166507 164.524045 
L 330.511005 164.524045 
L 330.511005 164.038652 
L 330.855502 164.038652 
L 330.855502 163.553258 
L 331.2 163.553258 
L 331.372249 163.067865 
L 332.405742 163.067865 
L 332.57799 162.582472 
L 332.750239 162.582472 
L 332.750239 162.097079 
L 333.094737 161.126292 
L 333.955981 161.126292 
L 333.955981 160.640899 
L 334.12823 160.640899 
L 334.300478 160.155506 
L 334.472727 160.155506 
L 334.472727 159.670112 
L 334.989474 159.670112 
L 335.161722 159.184719 
L 335.50622 159.184719 
L 335.678469 158.699326 
L 336.367464 158.699326 
L 336.539713 158.213933 
L 336.539713 157.728539 
L 337.745455 157.728539 
L 337.917703 157.243146 
L 338.606699 157.243146 
L 338.606699 156.757753 
L 339.123445 156.757753 
L 339.123445 156.27236 
L 341.190431 156.27236 
L 341.362679 155.786966 
L 341.534928 155.786966 
L 341.534928 155.301573 
L 341.707177 155.301573 
L 341.879426 154.81618 
L 342.396172 154.81618 
L 342.568421 154.330787 
L 343.946411 154.330787 
L 343.946411 153.845393 
L 344.635407 153.845393 
L 344.635407 153.36 
L 345.324402 153.36 
L 345.496651 152.874607 
L 345.6689 152.874607 
L 345.841148 152.389213 
L 346.013397 152.389213 
L 346.185646 151.90382 
L 347.391388 151.90382 
L 347.391388 151.418427 
L 347.908134 151.418427 
L 348.080383 150.933034 
L 348.252632 150.933034 
L 348.252632 150.44764 
L 348.941627 150.44764 
L 348.941627 149.962247 
L 350.319617 149.962247 
L 350.491866 149.476854 
L 350.491866 148.991461 
L 350.836364 148.991461 
L 351.008612 148.506067 
L 351.525359 148.506067 
L 351.697608 148.020674 
L 355.65933 148.020674 
L 355.65933 147.535281 
L 357.381818 147.535281 
L 357.381818 147.049888 
L 357.726316 147.049888 
L 357.726316 146.564494 
L 358.932057 146.564494 
L 358.932057 146.079101 
L 359.276555 146.079101 
L 359.276555 145.593708 
L 359.448804 145.108315 
L 359.793301 145.108315 
L 359.793301 144.622921 
L 363.066029 144.622921 
L 363.066029 144.137528 
L 363.238278 144.137528 
L 363.238278 143.652135 
L 364.099522 143.652135 
L 364.27177 143.166742 
L 364.444019 143.166742 
L 364.616268 142.681348 
L 364.960766 142.681348 
L 365.82201 140.254382 
L 366.683254 140.254382 
L 366.855502 139.768989 
L 369.955981 139.768989 
L 370.300478 138.798202 
L 370.472727 138.798202 
L 370.472727 138.312809 
L 374.089952 138.312809 
L 374.262201 137.827416 
L 374.43445 137.827416 
L 374.43445 137.342022 
L 374.951196 137.342022 
L 374.951196 136.856629 
L 375.640191 136.856629 
L 375.81244 136.371236 
L 377.534928 136.371236 
L 377.707177 135.885843 
L 377.879426 135.885843 
L 377.879426 135.400449 
L 378.74067 135.400449 
L 378.912919 134.915056 
L 378.912919 133.458876 
L 379.774163 133.458876 
L 379.774163 132.973483 
L 379.946411 132.48809 
L 380.807656 132.48809 
L 380.807656 132.002697 
L 381.152153 131.03191 
L 382.530144 131.03191 
L 382.530144 130.546517 
L 386.319617 130.546517 
L 386.491866 130.061124 
L 386.836364 130.061124 
L 387.697608 127.634157 
L 388.558852 127.634157 
L 388.7311 127.148764 
L 389.075598 127.148764 
L 389.247847 126.663371 
L 389.764593 126.663371 
L 390.109091 125.692584 
L 390.109091 123.265618 
L 390.625837 123.265618 
L 390.970335 122.294831 
L 391.487081 122.294831 
L 391.65933 121.809438 
L 392.692823 121.809438 
L 392.865072 121.324045 
L 393.209569 121.324045 
L 393.209569 120.838652 
L 394.243062 120.838652 
L 394.415311 120.353258 
L 394.58756 120.353258 
L 394.759809 119.867865 
L 397.171292 119.867865 
L 397.343541 119.382472 
L 397.515789 119.382472 
L 397.860287 118.411685 
L 398.549282 118.411685 
L 398.721531 117.926292 
L 402.511005 117.926292 
L 402.683254 117.440899 
L 403.2 117.440899 
L 403.372249 116.955506 
L 403.716746 116.955506 
L 403.716746 116.470112 
L 405.783732 116.470112 
L 405.955981 115.984719 
L 406.12823 115.984719 
L 406.300478 115.499326 
L 406.644976 115.499326 
L 406.644976 115.013933 
L 406.989474 115.013933 
L 407.161722 114.528539 
L 408.195215 114.528539 
L 408.367464 114.043146 
L 408.711962 114.043146 
L 408.884211 113.557753 
L 408.884211 113.07236 
L 411.123445 113.07236 
L 411.295694 112.586966 
L 411.467943 112.586966 
L 411.467943 112.101573 
L 412.845933 112.101573 
L 413.018182 111.61618 
L 413.534928 111.61618 
L 413.707177 111.130787 
L 414.396172 111.130787 
L 414.396172 110.16 
L 415.429665 110.16 
L 415.429665 109.674607 
L 415.946411 109.674607 
L 416.11866 109.189213 
L 417.841148 109.189213 
L 417.841148 108.70382 
L 418.530144 108.70382 
L 418.702392 108.218427 
L 419.563636 108.218427 
L 419.735885 107.733034 
L 420.597129 107.733034 
L 420.769378 107.24764 
L 422.491866 107.24764 
L 422.664115 106.762247 
L 423.697608 106.762247 
L 423.697608 106.276854 
L 424.042105 106.276854 
L 424.214354 105.791461 
L 424.903349 105.791461 
L 425.075598 105.306067 
L 425.592344 105.306067 
L 425.764593 104.820674 
L 427.831579 104.820674 
L 427.831579 104.335281 
L 428.348325 104.335281 
L 428.348325 103.849888 
L 430.932057 103.849888 
L 431.104306 103.364494 
L 431.448804 103.364494 
L 431.621053 102.879101 
L 431.793301 102.879101 
L 431.793301 102.393708 
L 432.999043 102.393708 
L 433.171292 101.908315 
L 435.582775 101.908315 
L 435.755024 101.422921 
L 436.960766 101.422921 
L 437.133014 100.937528 
L 437.649761 100.937528 
L 437.82201 100.452135 
L 437.994258 100.452135 
L 438.166507 99.966742 
L 439.2 99.966742 
L 439.372249 99.481348 
L 439.372249 98.995955 
L 439.544498 98.995955 
L 439.716746 98.510562 
L 439.888995 98.510562 
L 440.061244 98.025169 
L 440.233493 98.025169 
L 440.405742 97.539775 
L 440.922488 97.539775 
L 441.094737 97.054382 
L 441.094737 96.083596 
L 442.472727 96.083596 
L 442.644976 95.598202 
L 442.989474 95.598202 
L 443.161722 95.112809 
L 446.606699 95.112809 
L 446.951196 94.142022 
L 449.018182 94.142022 
L 449.018182 93.656629 
L 450.396172 93.656629 
L 450.74067 92.685843 
L 455.563636 92.685843 
L 455.735885 92.200449 
L 457.97512 92.200449 
L 458.147368 91.715056 
L 459.008612 91.715056 
L 459.008612 91.229663 
L 459.869856 91.229663 
L 460.042105 90.74427 
L 460.558852 90.74427 
L 460.7311 90.258876 
L 461.075598 90.258876 
L 461.075598 89.773483 
L 461.936842 89.773483 
L 461.936842 89.28809 
L 462.28134 89.28809 
L 462.453589 88.802697 
L 462.625837 88.802697 
L 462.798086 88.317303 
L 463.142584 88.317303 
L 463.142584 87.83191 
L 463.487081 87.83191 
L 463.65933 87.346517 
L 464.003828 87.346517 
L 464.003828 86.861124 
L 464.348325 86.861124 
L 464.520574 86.37573 
L 465.209569 86.37573 
L 465.209569 85.890337 
L 465.726316 85.890337 
L 466.070813 84.919551 
L 466.243062 84.919551 
L 466.243062 84.434157 
L 466.415311 83.948764 
L 466.932057 83.948764 
L 466.932057 83.463371 
L 467.104306 82.977978 
L 468.310048 82.977978 
L 468.310048 82.007191 
L 468.482297 81.521798 
L 469.171292 81.521798 
L 469.343541 81.036404 
L 469.688038 81.036404 
L 469.688038 80.551011 
L 470.721531 80.551011 
L 470.89378 80.065618 
L 472.27177 80.065618 
L 472.27177 79.580225 
L 472.444019 79.580225 
L 472.616268 79.094831 
L 472.960766 79.094831 
L 473.133014 78.609438 
L 473.305263 78.609438 
L 473.477512 78.124045 
L 473.649761 78.124045 
L 473.82201 77.638652 
L 474.166507 77.638652 
L 474.166507 77.153258 
L 474.855502 77.153258 
L 475.027751 76.667865 
L 475.544498 76.667865 
L 475.544498 76.182472 
L 476.061244 74.726292 
L 478.300478 74.726292 
L 478.472727 74.240899 
L 480.884211 74.240899 
L 480.884211 73.755506 
L 481.400957 73.755506 
L 481.573206 73.270112 
L 482.606699 73.270112 
L 482.606699 72.784719 
L 483.467943 72.784719 
L 483.640191 72.299326 
L 484.845933 72.299326 
L 485.018182 71.813933 
L 485.362679 71.813933 
L 485.534928 71.328539 
L 487.085167 71.328539 
L 487.257416 70.843146 
L 489.152153 70.843146 
L 489.324402 70.357753 
L 489.496651 70.357753 
L 489.496651 69.87236 
L 490.185646 69.87236 
L 490.357895 69.386966 
L 490.530144 69.386966 
L 490.702392 68.901573 
L 490.874641 68.901573 
L 491.04689 68.41618 
L 493.113876 68.41618 
L 493.286124 67.930787 
L 493.802871 67.930787 
L 493.97512 67.445393 
L 495.869856 67.445393 
L 496.042105 66.96 
L 498.109091 66.96 
L 498.109091 66.96 
" clip-path="url(#p0df7ca83b2)" style="fill: none; stroke: #0000ff; stroke-width: 2; stroke-linecap: square"/>
   </g>
   <g id="line2d_26">
    <path d="M 92.290909 369.36 
L 498.109091 66.96 
" clip-path="url(#p0df7ca83b2)" style="fill: none; stroke-dasharray: 7.4,3.2; stroke-dashoffset: 0; stroke: #000080; stroke-width: 2"/>
   </g>
   <g id="patch_3">
    <path d="M 72 384.48 
L 72 51.84 
" style="fill: none; stroke: #000000; stroke-width: 0.8; stroke-linejoin: miter; stroke-linecap: square"/>
   </g>
   <g id="patch_4">
    <path d="M 518.4 384.48 
L 518.4 51.84 
" style="fill: none; stroke: #000000; stroke-width: 0.8; stroke-linejoin: miter; stroke-linecap: square"/>
   </g>
   <g id="patch_5">
    <path d="M 72 384.48 
L 518.4 384.48 
" style="fill: none; stroke: #000000; stroke-width: 0.8; stroke-linejoin: miter; stroke-linecap: square"/>
   </g>
   <g id="patch_6">
    <path d="M 72 51.84 
L 518.4 51.84 
" style="fill: none; stroke: #000000; stroke-width: 0.8; stroke-linejoin: miter; stroke-linecap: square"/>
   </g>
   <g id="text_15">
    <!-- ROC Curve for Logistic Regression -->
    <g transform="translate(192.894375 45.84) scale(0.12 -0.12)">
     <defs>
      <path id="DejaVuSans-4f" d="M 2522 4238 
Q 1834 4238 1429 3725 
Q 1025 3213 1025 2328 
Q 1025 1447 1429 934 
Q 1834 422 2522 422 
Q 3209 422 3611 934 
Q 4013 1447 4013 2328 
Q 4013 3213 3611 3725 
Q 3209 4238 2522 4238 
z
M 2522 4750 
Q 3503 4750 4090 4092 
Q 4678 3434 4678 2328 
Q 4678 1225 4090 567 
Q 3503 -91 2522 -91 
Q 1538 -91 948 565 
Q 359 1222 359 2328 
Q 359 3434 948 4092 
Q 1538 4750 2522 4750 
z
" transform="scale(0.015625)"/>
      <path id="DejaVuSans-43" d="M 4122 4306 
L 4122 3641 
Q 3803 3938 3442 4084 
Q 3081 4231 2675 4231 
Q 1875 4231 1450 3742 
Q 1025 3253 1025 2328 
Q 1025 1406 1450 917 
Q 1875 428 2675 428 
Q 3081 428 3442 575 
Q 3803 722 4122 1019 
L 4122 359 
Q 3791 134 3420 21 
Q 3050 -91 2638 -91 
Q 1578 -91 968 557 
Q 359 1206 359 2328 
Q 359 3453 968 4101 
Q 1578 4750 2638 4750 
Q 3056 4750 3426 4639 
Q 3797 4528 4122 4306 
z
" transform="scale(0.015625)"/>
      <path id="DejaVuSans-66" d="M 2375 4863 
L 2375 4384 
L 1825 4384 
Q 1516 4384 1395 4259 
Q 1275 4134 1275 3809 
L 1275 3500 
L 2222 3500 
L 2222 3053 
L 1275 3053 
L 1275 0 
L 697 0 
L 697 3053 
L 147 3053 
L 147 3500 
L 697 3500 
L 697 3744 
Q 697 4328 969 4595 
Q 1241 4863 1831 4863 
L 2375 4863 
z
" transform="scale(0.015625)"/>
      <path id="DejaVuSans-4c" d="M 628 4666 
L 1259 4666 
L 1259 531 
L 3531 531 
L 3531 0 
L 628 0 
L 628 4666 
z
" transform="scale(0.015625)"/>
      <path id="DejaVuSans-67" d="M 2906 1791 
Q 2906 2416 2648 2759 
Q 2391 3103 1925 3103 
Q 1463 3103 1205 2759 
Q 947 2416 947 1791 
Q 947 1169 1205 825 
Q 1463 481 1925 481 
Q 2391 481 2648 825 
Q 2906 1169 2906 1791 
z
M 3481 434 
Q 3481 -459 3084 -895 
Q 2688 -1331 1869 -1331 
Q 1566 -1331 1297 -1286 
Q 1028 -1241 775 -1147 
L 775 -588 
Q 1028 -725 1275 -790 
Q 1522 -856 1778 -856 
Q 2344 -856 2625 -561 
Q 2906 -266 2906 331 
L 2906 616 
Q 2728 306 2450 153 
Q 2172 0 1784 0 
Q 1141 0 747 490 
Q 353 981 353 1791 
Q 353 2603 747 3093 
Q 1141 3584 1784 3584 
Q 2172 3584 2450 3431 
Q 2728 3278 2906 2969 
L 2906 3500 
L 3481 3500 
L 3481 434 
z
" transform="scale(0.015625)"/>
      <path id="DejaVuSans-63" d="M 3122 3366 
L 3122 2828 
Q 2878 2963 2633 3030 
Q 2388 3097 2138 3097 
Q 1578 3097 1268 2742 
Q 959 2388 959 1747 
Q 959 1106 1268 751 
Q 1578 397 2138 397 
Q 2388 397 2633 464 
Q 2878 531 3122 666 
L 3122 134 
Q 2881 22 2623 -34 
Q 2366 -91 2075 -91 
Q 1284 -91 818 406 
Q 353 903 353 1747 
Q 353 2603 823 3093 
Q 1294 3584 2113 3584 
Q 2378 3584 2631 3529 
Q 2884 3475 3122 3366 
z
" transform="scale(0.015625)"/>
      <path id="DejaVuSans-6e" d="M 3513 2113 
L 3513 0 
L 2938 0 
L 2938 2094 
Q 2938 2591 2744 2837 
Q 2550 3084 2163 3084 
Q 1697 3084 1428 2787 
Q 1159 2491 1159 1978 
L 1159 0 
L 581 0 
L 581 3500 
L 1159 3500 
L 1159 2956 
Q 1366 3272 1645 3428 
Q 1925 3584 2291 3584 
Q 2894 3584 3203 3211 
Q 3513 2838 3513 2113 
z
" transform="scale(0.015625)"/>
     </defs>
     <use xlink:href="#DejaVuSans-52"/>
     <use xlink:href="#DejaVuSans-4f" transform="translate(69.482422 0)"/>
     <use xlink:href="#DejaVuSans-43" transform="translate(148.193359 0)"/>
     <use xlink:href="#DejaVuSans-20" transform="translate(218.017578 0)"/>
     <use xlink:href="#DejaVuSans-43" transform="translate(249.804688 0)"/>
     <use xlink:href="#DejaVuSans-75" transform="translate(319.628906 0)"/>
     <use xlink:href="#DejaVuSans-72" transform="translate(383.007812 0)"/>
     <use xlink:href="#DejaVuSans-76" transform="translate(424.121094 0)"/>
     <use xlink:href="#DejaVuSans-65" transform="translate(483.300781 0)"/>
     <use xlink:href="#DejaVuSans-20" transform="translate(544.824219 0)"/>
     <use xlink:href="#DejaVuSans-66" transform="translate(576.611328 0)"/>
     <use xlink:href="#DejaVuSans-6f" transform="translate(611.816406 0)"/>
     <use xlink:href="#DejaVuSans-72" transform="translate(672.998047 0)"/>
     <use xlink:href="#DejaVuSans-20" transform="translate(714.111328 0)"/>
     <use xlink:href="#DejaVuSans-4c" transform="translate(745.898438 0)"/>
     <use xlink:href="#DejaVuSans-6f" transform="translate(799.861328 0)"/>
     <use xlink:href="#DejaVuSans-67" transform="translate(861.042969 0)"/>
     <use xlink:href="#DejaVuSans-69" transform="translate(924.519531 0)"/>
     <use xlink:href="#DejaVuSans-73" transform="translate(952.302734 0)"/>
     <use xlink:href="#DejaVuSans-74" transform="translate(1004.402344 0)"/>
     <use xlink:href="#DejaVuSans-69" transform="translate(1043.611328 0)"/>
     <use xlink:href="#DejaVuSans-63" transform="translate(1071.394531 0)"/>
     <use xlink:href="#DejaVuSans-20" transform="translate(1126.375 0)"/>
     <use xlink:href="#DejaVuSans-52" transform="translate(1158.162109 0)"/>
     <use xlink:href="#DejaVuSans-65" transform="translate(1223.144531 0)"/>
     <use xlink:href="#DejaVuSans-67" transform="translate(1284.667969 0)"/>
     <use xlink:href="#DejaVuSans-72" transform="translate(1348.144531 0)"/>
     <use xlink:href="#DejaVuSans-65" transform="translate(1387.007812 0)"/>
     <use xlink:href="#DejaVuSans-73" transform="translate(1448.53125 0)"/>
     <use xlink:href="#DejaVuSans-73" transform="translate(1500.630859 0)"/>
     <use xlink:href="#DejaVuSans-69" transform="translate(1552.730469 0)"/>
     <use xlink:href="#DejaVuSans-6f" transform="translate(1580.513672 0)"/>
     <use xlink:href="#DejaVuSans-6e" transform="translate(1641.695312 0)"/>
    </g>
   </g>
   <g id="legend_1">
    <g id="patch_7">
     <path d="M 314.35625 379.48 
L 511.4 379.48 
Q 513.4 379.48 513.4 377.48 
L 513.4 363.801875 
Q 513.4 361.801875 511.4 361.801875 
L 314.35625 361.801875 
Q 312.35625 361.801875 312.35625 363.801875 
L 312.35625 377.48 
Q 312.35625 379.48 314.35625 379.48 
z
" style="fill: #ffffff; opacity: 0.8; stroke: #cccccc; stroke-linejoin: miter"/>
    </g>
    <g id="line2d_27">
     <path d="M 316.35625 369.900312 
L 326.35625 369.900312 
L 336.35625 369.900312 
" style="fill: none; stroke: #0000ff; stroke-width: 2; stroke-linecap: square"/>
    </g>
    <g id="text_16">
     <!-- Logistic Regression (AUC = 0.59) -->
     <g transform="translate(344.35625 373.400312) scale(0.1 -0.1)">
      <defs>
       <path id="DejaVuSans-28" d="M 1984 4856 
Q 1566 4138 1362 3434 
Q 1159 2731 1159 2009 
Q 1159 1288 1364 580 
Q 1569 -128 1984 -844 
L 1484 -844 
Q 1016 -109 783 600 
Q 550 1309 550 2009 
Q 550 2706 781 3412 
Q 1013 4119 1484 4856 
L 1984 4856 
z
" transform="scale(0.015625)"/>
       <path id="DejaVuSans-41" d="M 2188 4044 
L 1331 1722 
L 3047 1722 
L 2188 4044 
z
M 1831 4666 
L 2547 4666 
L 4325 0 
L 3669 0 
L 3244 1197 
L 1141 1197 
L 716 0 
L 50 0 
L 1831 4666 
z
" transform="scale(0.015625)"/>
       <path id="DejaVuSans-55" d="M 556 4666 
L 1191 4666 
L 1191 1831 
Q 1191 1081 1462 751 
Q 1734 422 2344 422 
Q 2950 422 3222 751 
Q 3494 1081 3494 1831 
L 3494 4666 
L 4128 4666 
L 4128 1753 
Q 4128 841 3676 375 
Q 3225 -91 2344 -91 
Q 1459 -91 1007 375 
Q 556 841 556 1753 
L 556 4666 
z
" transform="scale(0.015625)"/>
       <path id="DejaVuSans-3d" d="M 678 2906 
L 4684 2906 
L 4684 2381 
L 678 2381 
L 678 2906 
z
M 678 1631 
L 4684 1631 
L 4684 1100 
L 678 1100 
L 678 1631 
z
" transform="scale(0.015625)"/>
       <path id="DejaVuSans-35" d="M 691 4666 
L 3169 4666 
L 3169 4134 
L 1269 4134 
L 1269 2991 
Q 1406 3038 1543 3061 
Q 1681 3084 1819 3084 
Q 2600 3084 3056 2656 
Q 3513 2228 3513 1497 
Q 3513 744 3044 326 
Q 2575 -91 1722 -91 
Q 1428 -91 1123 -41 
Q 819 9 494 109 
L 494 744 
Q 775 591 1075 516 
Q 1375 441 1709 441 
Q 2250 441 2565 725 
Q 2881 1009 2881 1497 
Q 2881 1984 2565 2268 
Q 2250 2553 1709 2553 
Q 1456 2553 1204 2497 
Q 953 2441 691 2322 
L 691 4666 
z
" transform="scale(0.015625)"/>
       <path id="DejaVuSans-39" d="M 703 97 
L 703 672 
Q 941 559 1184 500 
Q 1428 441 1663 441 
Q 2288 441 2617 861 
Q 2947 1281 2994 2138 
Q 2813 1869 2534 1725 
Q 2256 1581 1919 1581 
Q 1219 1581 811 2004 
Q 403 2428 403 3163 
Q 403 3881 828 4315 
Q 1253 4750 1959 4750 
Q 2769 4750 3195 4129 
Q 3622 3509 3622 2328 
Q 3622 1225 3098 567 
Q 2575 -91 1691 -91 
Q 1453 -91 1209 -44 
Q 966 3 703 97 
z
M 1959 2075 
Q 2384 2075 2632 2365 
Q 2881 2656 2881 3163 
Q 2881 3666 2632 3958 
Q 2384 4250 1959 4250 
Q 1534 4250 1286 3958 
Q 1038 3666 1038 3163 
Q 1038 2656 1286 2365 
Q 1534 2075 1959 2075 
z
" transform="scale(0.015625)"/>
       <path id="DejaVuSans-29" d="M 513 4856 
L 1013 4856 
Q 1481 4119 1714 3412 
Q 1947 2706 1947 2009 
Q 1947 1309 1714 600 
Q 1481 -109 1013 -844 
L 513 -844 
Q 928 -128 1133 580 
Q 1338 1288 1338 2009 
Q 1338 2731 1133 3434 
Q 928 4138 513 4856 
z
" transform="scale(0.015625)"/>
      </defs>
      <use xlink:href="#DejaVuSans-4c"/>
      <use xlink:href="#DejaVuSans-6f" transform="translate(53.962891 0)"/>
      <use xlink:href="#DejaVuSans-67" transform="translate(115.144531 0)"/>
      <use xlink:href="#DejaVuSans-69" transform="translate(178.621094 0)"/>
      <use xlink:href="#DejaVuSans-73" transform="translate(206.404297 0)"/>
      <use xlink:href="#DejaVuSans-74" transform="translate(258.503906 0)"/>
      <use xlink:href="#DejaVuSans-69" transform="translate(297.712891 0)"/>
      <use xlink:href="#DejaVuSans-63" transform="translate(325.496094 0)"/>
      <use xlink:href="#DejaVuSans-20" transform="translate(380.476562 0)"/>
      <use xlink:href="#DejaVuSans-52" transform="translate(412.263672 0)"/>
      <use xlink:href="#DejaVuSans-65" transform="translate(477.246094 0)"/>
      <use xlink:href="#DejaVuSans-67" transform="translate(538.769531 0)"/>
      <use xlink:href="#DejaVuSans-72" transform="translate(602.246094 0)"/>
      <use xlink:href="#DejaVuSans-65" transform="translate(641.109375 0)"/>
      <use xlink:href="#DejaVuSans-73" transform="translate(702.632812 0)"/>
      <use xlink:href="#DejaVuSans-73" transform="translate(754.732422 0)"/>
      <use xlink:href="#DejaVuSans-69" transform="translate(806.832031 0)"/>
      <use xlink:href="#DejaVuSans-6f" transform="translate(834.615234 0)"/>
      <use xlink:href="#DejaVuSans-6e" transform="translate(895.796875 0)"/>
      <use xlink:href="#DejaVuSans-20" transform="translate(959.175781 0)"/>
      <use xlink:href="#DejaVuSans-28" transform="translate(990.962891 0)"/>
      <use xlink:href="#DejaVuSans-41" transform="translate(1029.976562 0)"/>
      <use xlink:href="#DejaVuSans-55" transform="translate(1098.384766 0)"/>
      <use xlink:href="#DejaVuSans-43" transform="translate(1171.578125 0)"/>
      <use xlink:href="#DejaVuSans-20" transform="translate(1241.402344 0)"/>
      <use xlink:href="#DejaVuSans-3d" transform="translate(1273.189453 0)"/>
      <use xlink:href="#DejaVuSans-20" transform="translate(1356.978516 0)"/>
      <use xlink:href="#DejaVuSans-30" transform="translate(1388.765625 0)"/>
      <use xlink:href="#DejaVuSans-2e" transform="translate(1452.388672 0)"/>
      <use xlink:href="#DejaVuSans-35" transform="translate(1484.175781 0)"/>
      <use xlink:href="#DejaVuSans-39" transform="translate(1547.798828 0)"/>
      <use xlink:href="#DejaVuSans-29" transform="translate(1611.421875 0)"/>
     </g>
    </g>
   </g>
  </g>
 </g>
 <defs>
  <clipPath id="p0df7ca83b2">
   <rect x="72" y="51.84" width="446.4" height="332.64"/>
  </clipPath>
 </defs>
</svg>
