<?xml version="1.0" encoding="utf-8" standalone="no"?>
<!DOCTYPE svg PUBLIC "-//W3C//DTD SVG 1.1//EN"
  "http://www.w3.org/Graphics/SVG/1.1/DTD/svg11.dtd">
<svg xmlns:xlink="http://www.w3.org/1999/xlink" width="864pt" height="432pt" viewBox="0 0 864 432" xmlns="http://www.w3.org/2000/svg" version="1.1">
 <metadata>
  <rdf:RDF xmlns:dc="http://purl.org/dc/elements/1.1/" xmlns:cc="http://creativecommons.org/ns#" xmlns:rdf="http://www.w3.org/1999/02/22-rdf-syntax-ns#">
   <cc:Work>
    <dc:type rdf:resource="http://purl.org/dc/dcmitype/StillImage"/>
    <dc:date>2025-01-01T14:24:36.356592</dc:date>
    <dc:format>image/svg+xml</dc:format>
    <dc:creator>
     <cc:Agent>
      <dc:title>Matplotlib v3.10.0, https://matplotlib.org/</dc:title>
     </cc:Agent>
    </dc:creator>
   </cc:Work>
  </rdf:RDF>
 </metadata>
 <defs>
  <style type="text/css">*{stroke-linejoin: round; stroke-linecap: butt}</style>
 </defs>
 <g id="figure_1">
  <g id="patch_1">
   <path d="M 0 432 
L 864 432 
L 864 0 
L 0 0 
z
" style="fill: #ffffff"/>
  </g>
  <g id="axes_1">
   <g id="patch_2">
    <path d="M 108 384.48 
L 777.6 384.48 
L 777.6 51.84 
L 108 51.84 
z
" style="fill: #ffffff"/>
   </g>
   <g id="matplotlib.axis_1">
    <g id="xtick_1">
     <g id="line2d_1">
      <path d="M 120.293413 384.48 
L 120.293413 51.84 
" clip-path="url(#p780e0a731a)" style="fill: none; stroke: #b0b0b0; stroke-width: 0.8; stroke-linecap: square"/>
     </g>
     <g id="line2d_2">
      <defs>
       <path id="ma16a3bf0ce" d="M 0 0 
L 0 3.5 
" style="stroke: #000000; stroke-width: 0.8"/>
      </defs>
      <g>
       <use xlink:href="#ma16a3bf0ce" x="120.293413" y="384.48" style="stroke: #000000; stroke-width: 0.8"/>
      </g>
     </g>
     <g id="text_1">
      <!-- 2016 -->
      <g transform="translate(107.568413 399.078438) scale(0.1 -0.1)">
       <defs>
        <path id="DejaVuSans-32" d="M 1228 531 
L 3431 531 
L 3431 0 
L 469 0 
L 469 531 
Q 828 903 1448 1529 
Q 2069 2156 2228 2338 
Q 2531 2678 2651 2914 
Q 2772 3150 2772 3378 
Q 2772 3750 2511 3984 
Q 2250 4219 1831 4219 
Q 1534 4219 1204 4116 
Q 875 4013 500 3803 
L 500 4441 
Q 881 4594 1212 4672 
Q 1544 4750 1819 4750 
Q 2544 4750 2975 4387 
Q 3406 4025 3406 3419 
Q 3406 3131 3298 2873 
Q 3191 2616 2906 2266 
Q 2828 2175 2409 1742 
Q 1991 1309 1228 531 
z
" transform="scale(0.015625)"/>
        <path id="DejaVuSans-30" d="M 2034 4250 
Q 1547 4250 1301 3770 
Q 1056 3291 1056 2328 
Q 1056 1369 1301 889 
Q 1547 409 2034 409 
Q 2525 409 2770 889 
Q 3016 1369 3016 2328 
Q 3016 3291 2770 3770 
Q 2525 4250 2034 4250 
z
M 2034 4750 
Q 2819 4750 3233 4129 
Q 3647 3509 3647 2328 
Q 3647 1150 3233 529 
Q 2819 -91 2034 -91 
Q 1250 -91 836 529 
Q 422 1150 422 2328 
Q 422 3509 836 4129 
Q 1250 4750 2034 4750 
z
" transform="scale(0.015625)"/>
        <path id="DejaVuSans-31" d="M 794 531 
L 1825 531 
L 1825 4091 
L 703 3866 
L 703 4441 
L 1819 4666 
L 2450 4666 
L 2450 531 
L 3481 531 
L 3481 0 
L 794 0 
L 794 531 
z
" transform="scale(0.015625)"/>
        <path id="DejaVuSans-36" d="M 2113 2584 
Q 1688 2584 1439 2293 
Q 1191 2003 1191 1497 
Q 1191 994 1439 701 
Q 1688 409 2113 409 
Q 2538 409 2786 701 
Q 3034 994 3034 1497 
Q 3034 2003 2786 2293 
Q 2538 2584 2113 2584 
z
M 3366 4563 
L 3366 3988 
Q 3128 4100 2886 4159 
Q 2644 4219 2406 4219 
Q 1781 4219 1451 3797 
Q 1122 3375 1075 2522 
Q 1259 2794 1537 2939 
Q 1816 3084 2150 3084 
Q 2853 3084 3261 2657 
Q 3669 2231 3669 1497 
Q 3669 778 3244 343 
Q 2819 -91 2113 -91 
Q 1303 -91 875 529 
Q 447 1150 447 2328 
Q 447 3434 972 4092 
Q 1497 4750 2381 4750 
Q 2619 4750 2861 4703 
Q 3103 4656 3366 4563 
z
" transform="scale(0.015625)"/>
       </defs>
       <use xlink:href="#DejaVuSans-32"/>
       <use xlink:href="#DejaVuSans-30" transform="translate(63.623047 0)"/>
       <use xlink:href="#DejaVuSans-31" transform="translate(127.246094 0)"/>
       <use xlink:href="#DejaVuSans-36" transform="translate(190.869141 0)"/>
      </g>
     </g>
    </g>
    <g id="xtick_2">
     <g id="line2d_3">
      <path d="M 196.618929 384.48 
L 196.618929 51.84 
" clip-path="url(#p780e0a731a)" style="fill: none; stroke: #b0b0b0; stroke-width: 0.8; stroke-linecap: square"/>
     </g>
     <g id="line2d_4">
      <g>
       <use xlink:href="#ma16a3bf0ce" x="196.618929" y="384.48" style="stroke: #000000; stroke-width: 0.8"/>
      </g>
     </g>
     <g id="text_2">
      <!-- 2017 -->
      <g transform="translate(183.893929 399.078438) scale(0.1 -0.1)">
       <defs>
        <path id="DejaVuSans-37" d="M 525 4666 
L 3525 4666 
L 3525 4397 
L 1831 0 
L 1172 0 
L 2766 4134 
L 525 4134 
L 525 4666 
z
" transform="scale(0.015625)"/>
       </defs>
       <use xlink:href="#DejaVuSans-32"/>
       <use xlink:href="#DejaVuSans-30" transform="translate(63.623047 0)"/>
       <use xlink:href="#DejaVuSans-31" transform="translate(127.246094 0)"/>
       <use xlink:href="#DejaVuSans-37" transform="translate(190.869141 0)"/>
      </g>
     </g>
    </g>
    <g id="xtick_3">
     <g id="line2d_5">
      <path d="M 272.735906 384.48 
L 272.735906 51.84 
" clip-path="url(#p780e0a731a)" style="fill: none; stroke: #b0b0b0; stroke-width: 0.8; stroke-linecap: square"/>
     </g>
     <g id="line2d_6">
      <g>
       <use xlink:href="#ma16a3bf0ce" x="272.735906" y="384.48" style="stroke: #000000; stroke-width: 0.8"/>
      </g>
     </g>
     <g id="text_3">
      <!-- 2018 -->
      <g transform="translate(260.010906 399.078438) scale(0.1 -0.1)">
       <defs>
        <path id="DejaVuSans-38" d="M 2034 2216 
Q 1584 2216 1326 1975 
Q 1069 1734 1069 1313 
Q 1069 891 1326 650 
Q 1584 409 2034 409 
Q 2484 409 2743 651 
Q 3003 894 3003 1313 
Q 3003 1734 2745 1975 
Q 2488 2216 2034 2216 
z
M 1403 2484 
Q 997 2584 770 2862 
Q 544 3141 544 3541 
Q 544 4100 942 4425 
Q 1341 4750 2034 4750 
Q 2731 4750 3128 4425 
Q 3525 4100 3525 3541 
Q 3525 3141 3298 2862 
Q 3072 2584 2669 2484 
Q 3125 2378 3379 2068 
Q 3634 1759 3634 1313 
Q 3634 634 3220 271 
Q 2806 -91 2034 -91 
Q 1263 -91 848 271 
Q 434 634 434 1313 
Q 434 1759 690 2068 
Q 947 2378 1403 2484 
z
M 1172 3481 
Q 1172 3119 1398 2916 
Q 1625 2713 2034 2713 
Q 2441 2713 2670 2916 
Q 2900 3119 2900 3481 
Q 2900 3844 2670 4047 
Q 2441 4250 2034 4250 
Q 1625 4250 1398 4047 
Q 1172 3844 1172 3481 
z
" transform="scale(0.015625)"/>
       </defs>
       <use xlink:href="#DejaVuSans-32"/>
       <use xlink:href="#DejaVuSans-30" transform="translate(63.623047 0)"/>
       <use xlink:href="#DejaVuSans-31" transform="translate(127.246094 0)"/>
       <use xlink:href="#DejaVuSans-38" transform="translate(190.869141 0)"/>
      </g>
     </g>
    </g>
    <g id="xtick_4">
     <g id="line2d_7">
      <path d="M 348.852882 384.48 
L 348.852882 51.84 
" clip-path="url(#p780e0a731a)" style="fill: none; stroke: #b0b0b0; stroke-width: 0.8; stroke-linecap: square"/>
     </g>
     <g id="line2d_8">
      <g>
       <use xlink:href="#ma16a3bf0ce" x="348.852882" y="384.48" style="stroke: #000000; stroke-width: 0.8"/>
      </g>
     </g>
     <g id="text_4">
      <!-- 2019 -->
      <g transform="translate(336.127882 399.078438) scale(0.1 -0.1)">
       <defs>
        <path id="DejaVuSans-39" d="M 703 97 
L 703 672 
Q 941 559 1184 500 
Q 1428 441 1663 441 
Q 2288 441 2617 861 
Q 2947 1281 2994 2138 
Q 2813 1869 2534 1725 
Q 2256 1581 1919 1581 
Q 1219 1581 811 2004 
Q 403 2428 403 3163 
Q 403 3881 828 4315 
Q 1253 4750 1959 4750 
Q 2769 4750 3195 4129 
Q 3622 3509 3622 2328 
Q 3622 1225 3098 567 
Q 2575 -91 1691 -91 
Q 1453 -91 1209 -44 
Q 966 3 703 97 
z
M 1959 2075 
Q 2384 2075 2632 2365 
Q 2881 2656 2881 3163 
Q 2881 3666 2632 3958 
Q 2384 4250 1959 4250 
Q 1534 4250 1286 3958 
Q 1038 3666 1038 3163 
Q 1038 2656 1286 2365 
Q 1534 2075 1959 2075 
z
" transform="scale(0.015625)"/>
       </defs>
       <use xlink:href="#DejaVuSans-32"/>
       <use xlink:href="#DejaVuSans-30" transform="translate(63.623047 0)"/>
       <use xlink:href="#DejaVuSans-31" transform="translate(127.246094 0)"/>
       <use xlink:href="#DejaVuSans-39" transform="translate(190.869141 0)"/>
      </g>
     </g>
    </g>
    <g id="xtick_5">
     <g id="line2d_9">
      <path d="M 424.969859 384.48 
L 424.969859 51.84 
" clip-path="url(#p780e0a731a)" style="fill: none; stroke: #b0b0b0; stroke-width: 0.8; stroke-linecap: square"/>
     </g>
     <g id="line2d_10">
      <g>
       <use xlink:href="#ma16a3bf0ce" x="424.969859" y="384.48" style="stroke: #000000; stroke-width: 0.8"/>
      </g>
     </g>
     <g id="text_5">
      <!-- 2020 -->
      <g transform="translate(412.244859 399.078438) scale(0.1 -0.1)">
       <use xlink:href="#DejaVuSans-32"/>
       <use xlink:href="#DejaVuSans-30" transform="translate(63.623047 0)"/>
       <use xlink:href="#DejaVuSans-32" transform="translate(127.246094 0)"/>
       <use xlink:href="#DejaVuSans-30" transform="translate(190.869141 0)"/>
      </g>
     </g>
    </g>
    <g id="xtick_6">
     <g id="line2d_11">
      <path d="M 501.295375 384.48 
L 501.295375 51.84 
" clip-path="url(#p780e0a731a)" style="fill: none; stroke: #b0b0b0; stroke-width: 0.8; stroke-linecap: square"/>
     </g>
     <g id="line2d_12">
      <g>
       <use xlink:href="#ma16a3bf0ce" x="501.295375" y="384.48" style="stroke: #000000; stroke-width: 0.8"/>
      </g>
     </g>
     <g id="text_6">
      <!-- 2021 -->
      <g transform="translate(488.570375 399.078438) scale(0.1 -0.1)">
       <use xlink:href="#DejaVuSans-32"/>
       <use xlink:href="#DejaVuSans-30" transform="translate(63.623047 0)"/>
       <use xlink:href="#DejaVuSans-32" transform="translate(127.246094 0)"/>
       <use xlink:href="#DejaVuSans-31" transform="translate(190.869141 0)"/>
      </g>
     </g>
    </g>
    <g id="xtick_7">
     <g id="line2d_13">
      <path d="M 577.412352 384.48 
L 577.412352 51.84 
" clip-path="url(#p780e0a731a)" style="fill: none; stroke: #b0b0b0; stroke-width: 0.8; stroke-linecap: square"/>
     </g>
     <g id="line2d_14">
      <g>
       <use xlink:href="#ma16a3bf0ce" x="577.412352" y="384.48" style="stroke: #000000; stroke-width: 0.8"/>
      </g>
     </g>
     <g id="text_7">
      <!-- 2022 -->
      <g transform="translate(564.687352 399.078438) scale(0.1 -0.1)">
       <use xlink:href="#DejaVuSans-32"/>
       <use xlink:href="#DejaVuSans-30" transform="translate(63.623047 0)"/>
       <use xlink:href="#DejaVuSans-32" transform="translate(127.246094 0)"/>
       <use xlink:href="#DejaVuSans-32" transform="translate(190.869141 0)"/>
      </g>
     </g>
    </g>
    <g id="xtick_8">
     <g id="line2d_15">
      <path d="M 653.529328 384.48 
L 653.529328 51.84 
" clip-path="url(#p780e0a731a)" style="fill: none; stroke: #b0b0b0; stroke-width: 0.8; stroke-linecap: square"/>
     </g>
     <g id="line2d_16">
      <g>
       <use xlink:href="#ma16a3bf0ce" x="653.529328" y="384.48" style="stroke: #000000; stroke-width: 0.8"/>
      </g>
     </g>
     <g id="text_8">
      <!-- 2023 -->
      <g transform="translate(640.804328 399.078438) scale(0.1 -0.1)">
       <defs>
        <path id="DejaVuSans-33" d="M 2597 2516 
Q 3050 2419 3304 2112 
Q 3559 1806 3559 1356 
Q 3559 666 3084 287 
Q 2609 -91 1734 -91 
Q 1441 -91 1130 -33 
Q 819 25 488 141 
L 488 750 
Q 750 597 1062 519 
Q 1375 441 1716 441 
Q 2309 441 2620 675 
Q 2931 909 2931 1356 
Q 2931 1769 2642 2001 
Q 2353 2234 1838 2234 
L 1294 2234 
L 1294 2753 
L 1863 2753 
Q 2328 2753 2575 2939 
Q 2822 3125 2822 3475 
Q 2822 3834 2567 4026 
Q 2313 4219 1838 4219 
Q 1578 4219 1281 4162 
Q 984 4106 628 3988 
L 628 4550 
Q 988 4650 1302 4700 
Q 1616 4750 1894 4750 
Q 2613 4750 3031 4423 
Q 3450 4097 3450 3541 
Q 3450 3153 3228 2886 
Q 3006 2619 2597 2516 
z
" transform="scale(0.015625)"/>
       </defs>
       <use xlink:href="#DejaVuSans-32"/>
       <use xlink:href="#DejaVuSans-30" transform="translate(63.623047 0)"/>
       <use xlink:href="#DejaVuSans-32" transform="translate(127.246094 0)"/>
       <use xlink:href="#DejaVuSans-33" transform="translate(190.869141 0)"/>
      </g>
     </g>
    </g>
    <g id="xtick_9">
     <g id="line2d_17">
      <path d="M 729.646305 384.48 
L 729.646305 51.84 
" clip-path="url(#p780e0a731a)" style="fill: none; stroke: #b0b0b0; stroke-width: 0.8; stroke-linecap: square"/>
     </g>
     <g id="line2d_18">
      <g>
       <use xlink:href="#ma16a3bf0ce" x="729.646305" y="384.48" style="stroke: #000000; stroke-width: 0.8"/>
      </g>
     </g>
     <g id="text_9">
      <!-- 2024 -->
      <g transform="translate(716.921305 399.078438) scale(0.1 -0.1)">
       <defs>
        <path id="DejaVuSans-34" d="M 2419 4116 
L 825 1625 
L 2419 1625 
L 2419 4116 
z
M 2253 4666 
L 3047 4666 
L 3047 1625 
L 3713 1625 
L 3713 1100 
L 3047 1100 
L 3047 0 
L 2419 0 
L 2419 1100 
L 313 1100 
L 313 1709 
L 2253 4666 
z
" transform="scale(0.015625)"/>
       </defs>
       <use xlink:href="#DejaVuSans-32"/>
       <use xlink:href="#DejaVuSans-30" transform="translate(63.623047 0)"/>
       <use xlink:href="#DejaVuSans-32" transform="translate(127.246094 0)"/>
       <use xlink:href="#DejaVuSans-34" transform="translate(190.869141 0)"/>
      </g>
     </g>
    </g>
    <g id="text_10">
     <!-- Date -->
     <g transform="translate(430.849219 412.756563) scale(0.1 -0.1)">
      <defs>
       <path id="DejaVuSans-44" d="M 1259 4147 
L 1259 519 
L 2022 519 
Q 2988 519 3436 956 
Q 3884 1394 3884 2338 
Q 3884 3275 3436 3711 
Q 2988 4147 2022 4147 
L 1259 4147 
z
M 628 4666 
L 1925 4666 
Q 3281 4666 3915 4102 
Q 4550 3538 4550 2338 
Q 4550 1131 3912 565 
Q 3275 0 1925 0 
L 628 0 
L 628 4666 
z
" transform="scale(0.015625)"/>
       <path id="DejaVuSans-61" d="M 2194 1759 
Q 1497 1759 1228 1600 
Q 959 1441 959 1056 
Q 959 750 1161 570 
Q 1363 391 1709 391 
Q 2188 391 2477 730 
Q 2766 1069 2766 1631 
L 2766 1759 
L 2194 1759 
z
M 3341 1997 
L 3341 0 
L 2766 0 
L 2766 531 
Q 2569 213 2275 61 
Q 1981 -91 1556 -91 
Q 1019 -91 701 211 
Q 384 513 384 1019 
Q 384 1609 779 1909 
Q 1175 2209 1959 2209 
L 2766 2209 
L 2766 2266 
Q 2766 2663 2505 2880 
Q 2244 3097 1772 3097 
Q 1472 3097 1187 3025 
Q 903 2953 641 2809 
L 641 3341 
Q 956 3463 1253 3523 
Q 1550 3584 1831 3584 
Q 2591 3584 2966 3190 
Q 3341 2797 3341 1997 
z
" transform="scale(0.015625)"/>
       <path id="DejaVuSans-74" d="M 1172 4494 
L 1172 3500 
L 2356 3500 
L 2356 3053 
L 1172 3053 
L 1172 1153 
Q 1172 725 1289 603 
Q 1406 481 1766 481 
L 2356 481 
L 2356 0 
L 1766 0 
Q 1100 0 847 248 
Q 594 497 594 1153 
L 594 3053 
L 172 3053 
L 172 3500 
L 594 3500 
L 594 4494 
L 1172 4494 
z
" transform="scale(0.015625)"/>
       <path id="DejaVuSans-65" d="M 3597 1894 
L 3597 1613 
L 953 1613 
Q 991 1019 1311 708 
Q 1631 397 2203 397 
Q 2534 397 2845 478 
Q 3156 559 3463 722 
L 3463 178 
Q 3153 47 2828 -22 
Q 2503 -91 2169 -91 
Q 1331 -91 842 396 
Q 353 884 353 1716 
Q 353 2575 817 3079 
Q 1281 3584 2069 3584 
Q 2775 3584 3186 3129 
Q 3597 2675 3597 1894 
z
M 3022 2063 
Q 3016 2534 2758 2815 
Q 2500 3097 2075 3097 
Q 1594 3097 1305 2825 
Q 1016 2553 972 2059 
L 3022 2063 
z
" transform="scale(0.015625)"/>
      </defs>
      <use xlink:href="#DejaVuSans-44"/>
      <use xlink:href="#DejaVuSans-61" transform="translate(77.001953 0)"/>
      <use xlink:href="#DejaVuSans-74" transform="translate(138.28125 0)"/>
      <use xlink:href="#DejaVuSans-65" transform="translate(177.490234 0)"/>
     </g>
    </g>
   </g>
   <g id="matplotlib.axis_2">
    <g id="ytick_1">
     <g id="line2d_19">
      <path d="M 108 372.075429 
L 777.6 372.075429 
" clip-path="url(#p780e0a731a)" style="fill: none; stroke: #b0b0b0; stroke-width: 0.8; stroke-linecap: square"/>
     </g>
     <g id="line2d_20">
      <defs>
       <path id="m79eead57f8" d="M 0 0 
L -3.5 0 
" style="stroke: #000000; stroke-width: 0.8"/>
      </defs>
      <g>
       <use xlink:href="#m79eead57f8" x="108" y="372.075429" style="stroke: #000000; stroke-width: 0.8"/>
      </g>
     </g>
     <g id="text_11">
      <!-- 0 -->
      <g transform="translate(94.6375 375.874647) scale(0.1 -0.1)">
       <use xlink:href="#DejaVuSans-30"/>
      </g>
     </g>
    </g>
    <g id="ytick_2">
     <g id="line2d_21">
      <path d="M 108 322.704 
L 777.6 322.704 
" clip-path="url(#p780e0a731a)" style="fill: none; stroke: #b0b0b0; stroke-width: 0.8; stroke-linecap: square"/>
     </g>
     <g id="line2d_22">
      <g>
       <use xlink:href="#m79eead57f8" x="108" y="322.704" style="stroke: #000000; stroke-width: 0.8"/>
      </g>
     </g>
     <g id="text_12">
      <!-- 200 -->
      <g transform="translate(81.9125 326.503219) scale(0.1 -0.1)">
       <use xlink:href="#DejaVuSans-32"/>
       <use xlink:href="#DejaVuSans-30" transform="translate(63.623047 0)"/>
       <use xlink:href="#DejaVuSans-30" transform="translate(127.246094 0)"/>
      </g>
     </g>
    </g>
    <g id="ytick_3">
     <g id="line2d_23">
      <path d="M 108 273.332571 
L 777.6 273.332571 
" clip-path="url(#p780e0a731a)" style="fill: none; stroke: #b0b0b0; stroke-width: 0.8; stroke-linecap: square"/>
     </g>
     <g id="line2d_24">
      <g>
       <use xlink:href="#m79eead57f8" x="108" y="273.332571" style="stroke: #000000; stroke-width: 0.8"/>
      </g>
     </g>
     <g id="text_13">
      <!-- 400 -->
      <g transform="translate(81.9125 277.13179) scale(0.1 -0.1)">
       <use xlink:href="#DejaVuSans-34"/>
       <use xlink:href="#DejaVuSans-30" transform="translate(63.623047 0)"/>
       <use xlink:href="#DejaVuSans-30" transform="translate(127.246094 0)"/>
      </g>
     </g>
    </g>
    <g id="ytick_4">
     <g id="line2d_25">
      <path d="M 108 223.961143 
L 777.6 223.961143 
" clip-path="url(#p780e0a731a)" style="fill: none; stroke: #b0b0b0; stroke-width: 0.8; stroke-linecap: square"/>
     </g>
     <g id="line2d_26">
      <g>
       <use xlink:href="#m79eead57f8" x="108" y="223.961143" style="stroke: #000000; stroke-width: 0.8"/>
      </g>
     </g>
     <g id="text_14">
      <!-- 600 -->
      <g transform="translate(81.9125 227.760362) scale(0.1 -0.1)">
       <use xlink:href="#DejaVuSans-36"/>
       <use xlink:href="#DejaVuSans-30" transform="translate(63.623047 0)"/>
       <use xlink:href="#DejaVuSans-30" transform="translate(127.246094 0)"/>
      </g>
     </g>
    </g>
    <g id="ytick_5">
     <g id="line2d_27">
      <path d="M 108 174.589714 
L 777.6 174.589714 
" clip-path="url(#p780e0a731a)" style="fill: none; stroke: #b0b0b0; stroke-width: 0.8; stroke-linecap: square"/>
     </g>
     <g id="line2d_28">
      <g>
       <use xlink:href="#m79eead57f8" x="108" y="174.589714" style="stroke: #000000; stroke-width: 0.8"/>
      </g>
     </g>
     <g id="text_15">
      <!-- 800 -->
      <g transform="translate(81.9125 178.388933) scale(0.1 -0.1)">
       <use xlink:href="#DejaVuSans-38"/>
       <use xlink:href="#DejaVuSans-30" transform="translate(63.623047 0)"/>
       <use xlink:href="#DejaVuSans-30" transform="translate(127.246094 0)"/>
      </g>
     </g>
    </g>
    <g id="ytick_6">
     <g id="line2d_29">
      <path d="M 108 125.218286 
L 777.6 125.218286 
" clip-path="url(#p780e0a731a)" style="fill: none; stroke: #b0b0b0; stroke-width: 0.8; stroke-linecap: square"/>
     </g>
     <g id="line2d_30">
      <g>
       <use xlink:href="#m79eead57f8" x="108" y="125.218286" style="stroke: #000000; stroke-width: 0.8"/>
      </g>
     </g>
     <g id="text_16">
      <!-- 1000 -->
      <g transform="translate(75.55 129.017504) scale(0.1 -0.1)">
       <use xlink:href="#DejaVuSans-31"/>
       <use xlink:href="#DejaVuSans-30" transform="translate(63.623047 0)"/>
       <use xlink:href="#DejaVuSans-30" transform="translate(127.246094 0)"/>
       <use xlink:href="#DejaVuSans-30" transform="translate(190.869141 0)"/>
      </g>
     </g>
    </g>
    <g id="ytick_7">
     <g id="line2d_31">
      <path d="M 108 75.846857 
L 777.6 75.846857 
" clip-path="url(#p780e0a731a)" style="fill: none; stroke: #b0b0b0; stroke-width: 0.8; stroke-linecap: square"/>
     </g>
     <g id="line2d_32">
      <g>
       <use xlink:href="#m79eead57f8" x="108" y="75.846857" style="stroke: #000000; stroke-width: 0.8"/>
      </g>
     </g>
     <g id="text_17">
      <!-- 1200 -->
      <g transform="translate(75.55 79.646076) scale(0.1 -0.1)">
       <use xlink:href="#DejaVuSans-31"/>
       <use xlink:href="#DejaVuSans-32" transform="translate(63.623047 0)"/>
       <use xlink:href="#DejaVuSans-30" transform="translate(127.246094 0)"/>
       <use xlink:href="#DejaVuSans-30" transform="translate(190.869141 0)"/>
      </g>
     </g>
    </g>
    <g id="text_18">
     <!-- Stock Price -->
     <g transform="translate(69.470312 245.785) rotate(-90) scale(0.1 -0.1)">
      <defs>
       <path id="DejaVuSans-53" d="M 3425 4513 
L 3425 3897 
Q 3066 4069 2747 4153 
Q 2428 4238 2131 4238 
Q 1616 4238 1336 4038 
Q 1056 3838 1056 3469 
Q 1056 3159 1242 3001 
Q 1428 2844 1947 2747 
L 2328 2669 
Q 3034 2534 3370 2195 
Q 3706 1856 3706 1288 
Q 3706 609 3251 259 
Q 2797 -91 1919 -91 
Q 1588 -91 1214 -16 
Q 841 59 441 206 
L 441 856 
Q 825 641 1194 531 
Q 1563 422 1919 422 
Q 2459 422 2753 634 
Q 3047 847 3047 1241 
Q 3047 1584 2836 1778 
Q 2625 1972 2144 2069 
L 1759 2144 
Q 1053 2284 737 2584 
Q 422 2884 422 3419 
Q 422 4038 858 4394 
Q 1294 4750 2059 4750 
Q 2388 4750 2728 4690 
Q 3069 4631 3425 4513 
z
" transform="scale(0.015625)"/>
       <path id="DejaVuSans-6f" d="M 1959 3097 
Q 1497 3097 1228 2736 
Q 959 2375 959 1747 
Q 959 1119 1226 758 
Q 1494 397 1959 397 
Q 2419 397 2687 759 
Q 2956 1122 2956 1747 
Q 2956 2369 2687 2733 
Q 2419 3097 1959 3097 
z
M 1959 3584 
Q 2709 3584 3137 3096 
Q 3566 2609 3566 1747 
Q 3566 888 3137 398 
Q 2709 -91 1959 -91 
Q 1206 -91 779 398 
Q 353 888 353 1747 
Q 353 2609 779 3096 
Q 1206 3584 1959 3584 
z
" transform="scale(0.015625)"/>
       <path id="DejaVuSans-63" d="M 3122 3366 
L 3122 2828 
Q 2878 2963 2633 3030 
Q 2388 3097 2138 3097 
Q 1578 3097 1268 2742 
Q 959 2388 959 1747 
Q 959 1106 1268 751 
Q 1578 397 2138 397 
Q 2388 397 2633 464 
Q 2878 531 3122 666 
L 3122 134 
Q 2881 22 2623 -34 
Q 2366 -91 2075 -91 
Q 1284 -91 818 406 
Q 353 903 353 1747 
Q 353 2603 823 3093 
Q 1294 3584 2113 3584 
Q 2378 3584 2631 3529 
Q 2884 3475 3122 3366 
z
" transform="scale(0.015625)"/>
       <path id="DejaVuSans-6b" d="M 581 4863 
L 1159 4863 
L 1159 1991 
L 2875 3500 
L 3609 3500 
L 1753 1863 
L 3688 0 
L 2938 0 
L 1159 1709 
L 1159 0 
L 581 0 
L 581 4863 
z
" transform="scale(0.015625)"/>
       <path id="DejaVuSans-20" transform="scale(0.015625)"/>
       <path id="DejaVuSans-50" d="M 1259 4147 
L 1259 2394 
L 2053 2394 
Q 2494 2394 2734 2622 
Q 2975 2850 2975 3272 
Q 2975 3691 2734 3919 
Q 2494 4147 2053 4147 
L 1259 4147 
z
M 628 4666 
L 2053 4666 
Q 2838 4666 3239 4311 
Q 3641 3956 3641 3272 
Q 3641 2581 3239 2228 
Q 2838 1875 2053 1875 
L 1259 1875 
L 1259 0 
L 628 0 
L 628 4666 
z
" transform="scale(0.015625)"/>
       <path id="DejaVuSans-72" d="M 2631 2963 
Q 2534 3019 2420 3045 
Q 2306 3072 2169 3072 
Q 1681 3072 1420 2755 
Q 1159 2438 1159 1844 
L 1159 0 
L 581 0 
L 581 3500 
L 1159 3500 
L 1159 2956 
Q 1341 3275 1631 3429 
Q 1922 3584 2338 3584 
Q 2397 3584 2469 3576 
Q 2541 3569 2628 3553 
L 2631 2963 
z
" transform="scale(0.015625)"/>
       <path id="DejaVuSans-69" d="M 603 3500 
L 1178 3500 
L 1178 0 
L 603 0 
L 603 3500 
z
M 603 4863 
L 1178 4863 
L 1178 4134 
L 603 4134 
L 603 4863 
z
" transform="scale(0.015625)"/>
      </defs>
      <use xlink:href="#DejaVuSans-53"/>
      <use xlink:href="#DejaVuSans-74" transform="translate(63.476562 0)"/>
      <use xlink:href="#DejaVuSans-6f" transform="translate(102.685547 0)"/>
      <use xlink:href="#DejaVuSans-63" transform="translate(163.867188 0)"/>
      <use xlink:href="#DejaVuSans-6b" transform="translate(218.847656 0)"/>
      <use xlink:href="#DejaVuSans-20" transform="translate(276.757812 0)"/>
      <use xlink:href="#DejaVuSans-50" transform="translate(308.544922 0)"/>
      <use xlink:href="#DejaVuSans-72" transform="translate(367.097656 0)"/>
      <use xlink:href="#DejaVuSans-69" transform="translate(408.210938 0)"/>
      <use xlink:href="#DejaVuSans-63" transform="translate(435.994141 0)"/>
      <use xlink:href="#DejaVuSans-65" transform="translate(490.974609 0)"/>
     </g>
    </g>
   </g>
   <g id="line2d_33">
    <path d="M 138.436364 318.507429 
L 139.896141 318.260571 
L 141.355919 319.001143 
L 142.815697 317.026286 
L 144.275474 319.248 
L 145.735252 318.754286 
L 147.195029 319.494857 
L 148.654807 319.741714 
L 150.114585 314.557714 
L 151.574362 313.817143 
L 153.03414 313.817143 
L 154.493918 314.804571 
L 155.953695 312.829714 
L 157.413473 313.817143 
L 158.87325 309.373714 
L 160.333028 310.854857 
L 163.252583 310.361143 
L 164.712361 309.867429 
L 167.631916 309.373714 
L 169.091694 309.867429 
L 170.551472 309.620571 
L 172.011249 307.152 
L 173.471027 308.88 
L 174.930804 307.398857 
L 177.85036 311.842286 
L 180.769915 312.829714 
L 182.229693 312.582857 
L 183.68947 312.089143 
L 185.149248 309.373714 
L 186.609026 312.089143 
L 188.068803 315.792 
L 189.528581 315.792 
L 190.988358 315.545143 
L 192.448136 314.310857 
L 193.907914 316.532571 
L 195.367691 316.532571 
L 196.827469 312.336 
L 198.287247 312.089143 
L 201.206802 309.126857 
L 202.666579 308.386286 
L 204.126357 304.189714 
L 205.586135 304.189714 
L 207.045912 306.411429 
L 208.50569 306.411429 
L 209.965468 307.152 
L 211.425245 307.152 
L 212.885023 302.214857 
L 214.344801 302.955429 
L 215.804578 302.214857 
L 217.264356 304.189714 
L 218.724133 303.696 
L 220.183911 303.942857 
L 221.643689 303.449143 
L 223.103466 303.449143 
L 224.563244 303.942857 
L 226.023022 299.993143 
L 228.942577 294.315429 
L 230.402354 296.290286 
L 233.32191 295.302857 
L 234.781687 286.662857 
L 236.241465 290.118857 
L 237.701243 289.378286 
L 239.16102 300.486857 
L 240.620798 300.486857 
L 243.540353 304.436571 
L 245.000131 302.461714 
L 246.459908 302.461714 
L 247.919686 302.214857 
L 249.379464 304.930286 
L 250.839241 305.177143 
L 252.299019 305.917714 
L 253.758797 308.386286 
L 255.218574 305.917714 
L 256.678352 306.411429 
L 258.138129 305.424 
L 259.597907 305.670857 
L 262.517462 307.152 
L 263.97724 308.139429 
L 265.437018 307.892571 
L 266.896795 308.88 
L 268.356573 306.658286 
L 269.816351 306.411429 
L 271.276128 307.152 
L 272.735906 307.152 
L 274.195683 306.905143 
L 275.655461 305.917714 
L 277.115239 304.189714 
L 278.575016 302.708571 
L 280.034794 304.436571 
L 281.494572 304.930286 
L 282.954349 306.411429 
L 284.414127 305.670857 
L 285.873905 307.152 
L 287.333682 306.905143 
L 288.79346 307.645714 
L 290.253237 309.620571 
L 293.172793 307.645714 
L 294.63257 307.892571 
L 296.092348 303.942857 
L 297.552126 302.955429 
L 299.011903 303.449143 
L 300.471681 302.214857 
L 301.931458 302.461714 
L 303.391236 304.436571 
L 304.851014 305.424 
L 306.310791 305.917714 
L 307.770569 306.905143 
L 309.230347 306.658286 
L 310.690124 306.164571 
L 312.149902 304.189714 
L 313.60968 305.424 
L 315.069457 302.955429 
L 316.529235 297.524571 
L 317.989012 296.784 
L 319.44879 297.030857 
L 320.908568 294.562286 
L 322.368345 295.302857 
L 323.828123 292.340571 
L 325.287901 295.549714 
L 326.747678 296.784 
L 328.207456 296.784 
L 329.667233 297.771429 
L 331.127011 303.202286 
L 332.586789 303.202286 
L 334.046566 299.993143 
L 335.506344 302.461714 
L 336.966122 301.721143 
L 338.425899 303.449143 
L 339.885677 303.696 
L 341.345455 302.708571 
L 342.805232 301.227429 
L 344.26501 304.930286 
L 345.724787 303.696 
L 347.184565 303.202286 
L 348.644343 302.214857 
L 350.10412 301.968 
L 351.563898 299.499429 
L 353.023676 299.746286 
L 354.483453 303.202286 
L 355.943231 302.461714 
L 357.403009 303.942857 
L 358.862786 303.202286 
L 360.322564 304.436571 
L 361.782341 303.449143 
L 363.242119 299.746286 
L 364.701897 299.993143 
L 366.161674 298.758857 
L 367.621452 298.758857 
L 369.08123 299.252571 
L 370.541007 296.043429 
L 372.000785 297.030857 
L 373.460562 296.784 
L 374.92034 297.030857 
L 376.380118 299.252571 
L 377.839895 296.290286 
L 379.299673 300.24 
L 380.759451 302.708571 
L 382.219228 303.449143 
L 383.679006 303.202286 
L 385.138784 304.436571 
L 386.598561 304.436571 
L 388.058339 302.955429 
L 389.518116 304.189714 
L 390.977894 305.917714 
L 392.437672 305.424 
L 393.897449 306.905143 
L 395.357227 309.373714 
L 396.817005 309.373714 
L 398.276782 312.582857 
L 399.73656 311.348571 
L 401.196337 311.595429 
L 402.656115 312.829714 
L 404.115893 310.361143 
L 405.57567 309.126857 
L 407.035448 308.386286 
L 408.495226 311.595429 
L 409.955003 311.348571 
L 411.414781 310.854857 
L 412.874559 307.152 
L 414.334336 307.645714 
L 415.794114 310.114286 
L 417.253891 310.854857 
L 418.713669 311.348571 
L 420.173447 312.089143 
L 421.633224 312.089143 
L 423.093002 312.336 
L 424.55278 313.323429 
L 427.472335 313.323429 
L 428.932112 312.829714 
L 430.39189 313.570286 
L 431.851668 319.001143 
L 433.311445 319.248 
L 434.771223 320.729143 
L 436.231001 320.976 
L 437.690778 322.704 
L 440.610334 333.072 
L 442.070111 333.072 
L 443.529889 333.565714 
L 444.989666 328.134857 
L 447.909222 325.172571 
L 449.368999 327.641143 
L 450.828777 327.147429 
L 452.288555 332.578286 
L 453.748332 331.097143 
L 455.20811 326.16 
L 456.667888 322.457143 
L 458.127665 321.963429 
L 459.587443 324.185143 
L 461.04722 326.16 
L 462.506998 322.210286 
L 463.966776 322.704 
L 465.426553 323.691429 
L 466.886331 323.938286 
L 468.346109 322.704 
L 469.805886 324.185143 
L 472.725441 323.197714 
L 474.185219 323.444571 
L 475.644997 322.950857 
L 477.104774 325.913143 
L 478.564552 326.16 
L 480.02433 327.641143 
L 481.484107 329.862857 
L 482.943885 329.862857 
L 484.403663 330.109714 
L 485.86344 330.850286 
L 487.323218 329.616 
L 488.782995 330.850286 
L 490.242773 329.122286 
L 491.702551 325.913143 
L 493.162328 324.678857 
L 494.622106 324.185143 
L 496.081884 323.197714 
L 497.541661 318.260571 
L 499.001439 319.248 
L 500.461216 320.482286 
L 501.920994 319.248 
L 503.380772 321.716571 
L 504.840549 318.260571 
L 506.300327 319.741714 
L 507.760105 321.716571 
L 509.219882 313.323429 
L 510.67966 318.260571 
L 512.139438 319.741714 
L 513.599215 321.469714 
L 515.058993 320.235429 
L 516.51877 321.222857 
L 517.978548 317.026286 
L 519.438326 319.988571 
L 520.898103 318.260571 
L 522.357881 320.235429 
L 523.817659 321.469714 
L 525.277436 321.222857 
L 526.737214 322.457143 
L 528.196991 320.976 
L 529.656769 318.507429 
L 531.116547 320.235429 
L 532.576324 319.001143 
L 534.036102 320.235429 
L 535.49588 320.729143 
L 536.955657 321.963429 
L 538.415435 321.222857 
L 539.875213 321.963429 
L 541.33499 322.210286 
L 542.794768 320.976 
L 544.254545 319.248 
L 545.714323 321.222857 
L 547.174101 319.001143 
L 548.633878 319.988571 
L 550.093656 320.235429 
L 551.553434 321.222857 
L 553.013211 319.988571 
L 554.472989 319.494857 
L 555.932767 315.051429 
L 557.392544 312.829714 
L 560.312099 314.804571 
L 561.771877 307.645714 
L 563.231655 314.310857 
L 564.691432 316.779429 
L 566.15121 315.298286 
L 569.070765 313.323429 
L 570.530543 317.273143 
L 571.99032 317.273143 
L 573.450098 313.323429 
L 574.909876 318.754286 
L 576.369653 318.260571 
L 577.829431 318.260571 
L 579.289209 317.766857 
L 580.748986 317.026286 
L 582.208764 318.507429 
L 583.668542 318.260571 
L 585.128319 314.310857 
L 586.588097 316.285714 
L 588.047874 317.766857 
L 589.507652 319.494857 
L 590.96743 317.273143 
L 592.427207 313.817143 
L 593.886985 311.348571 
L 595.346763 309.373714 
L 596.80654 309.620571 
L 598.266318 305.670857 
L 599.726095 305.917714 
L 601.185873 308.139429 
L 602.645651 308.386286 
L 604.105428 306.411429 
L 605.565206 307.892571 
L 607.024984 302.955429 
L 608.484761 305.424 
L 609.944539 304.930286 
L 611.404317 306.411429 
L 612.864094 307.152 
L 614.323872 306.164571 
L 615.783649 301.474286 
L 617.243427 299.746286 
L 618.703205 299.252571 
L 620.162982 298.265143 
L 621.62276 297.030857 
L 623.082538 295.302857 
L 624.542315 295.796571 
L 626.002093 295.302857 
L 627.461871 295.549714 
L 628.921648 291.846857 
L 630.381426 290.118857 
L 631.841203 290.859429 
L 633.300981 286.909714 
L 634.760759 289.872 
L 636.220536 290.612571 
L 637.680314 290.365714 
L 639.140092 285.922286 
L 640.599869 286.169143 
L 642.059647 284.441143 
L 643.519424 284.194286 
L 644.979202 288.390857 
L 646.43898 288.144 
L 647.898757 288.637714 
L 649.358535 287.897143 
L 650.818313 288.884571 
L 652.27809 291.6 
L 653.737868 290.365714 
L 655.197646 288.884571 
L 656.657423 290.612571 
L 658.117201 289.131429 
L 659.576978 286.416 
L 661.036756 277.776 
L 662.496534 279.997714 
L 663.956311 277.035429 
L 665.416089 277.035429 
L 666.875867 276.788571 
L 668.335644 276.048 
L 669.795422 279.997714 
L 671.255199 278.763429 
L 672.714977 277.282286 
L 674.174755 276.541714 
L 675.634532 275.060571 
L 678.554088 266.914286 
L 680.013865 265.68 
L 681.473643 268.395429 
L 682.933421 267.901714 
L 684.393198 262.224 
L 685.852976 262.224 
L 687.312753 263.458286 
L 688.772531 259.755429 
L 690.232309 261.730286 
L 691.692086 260.496 
L 693.151864 256.052571 
L 694.611642 255.065143 
L 696.071419 250.374857 
L 697.531197 256.299429 
L 698.990974 260.002286 
L 700.450752 261.236571 
L 701.91053 262.964571 
L 703.370307 262.224 
L 704.830085 262.717714 
L 706.289863 261.977143 
L 707.74964 261.483429 
L 709.209418 262.717714 
L 710.669196 262.470857 
L 712.128973 263.211429 
L 713.588751 261.483429 
L 715.048528 263.952 
L 716.508306 264.692571 
L 717.968084 264.939429 
L 719.427861 263.952 
L 720.887639 263.458286 
L 722.347417 263.952 
L 723.807194 259.755429 
L 725.266972 260.496 
L 726.72675 259.755429 
L 728.186527 259.755429 
L 729.646305 257.533714 
L 731.106082 254.818286 
L 732.56586 256.052571 
L 734.025638 255.558857 
L 735.485415 259.508571 
L 736.945193 262.964571 
L 738.404971 268.889143 
L 739.864748 272.098286 
L 741.324526 270.617143 
L 742.784303 270.370286 
L 744.244081 269.136 
L 745.703859 268.642286 
L 747.163636 266.173714 
L 747.163636 266.173714 
" clip-path="url(#p780e0a731a)" style="fill: none; stroke: #1f77b4; stroke-width: 1.5; stroke-linecap: square"/>
   </g>
   <g id="line2d_34">
    <path d="M 138.436364 294.068571 
L 139.896141 297.524571 
L 141.355919 296.043429 
L 142.815697 293.081143 
L 144.275474 293.328 
L 145.735252 291.353143 
L 147.195029 291.846857 
L 148.654807 293.081143 
L 150.114585 295.056 
L 151.574362 293.574857 
L 153.03414 292.587429 
L 154.493918 294.562286 
L 155.953695 292.834286 
L 157.413473 293.328 
L 158.87325 289.625143 
L 160.333028 290.612571 
L 161.792806 287.650286 
L 163.252583 291.106286 
L 164.712361 291.106286 
L 166.172139 291.353143 
L 167.631916 294.809143 
L 169.091694 294.068571 
L 170.551472 295.549714 
L 172.011249 301.227429 
L 173.471027 301.227429 
L 174.930804 300.24 
L 176.390582 299.499429 
L 177.85036 302.214857 
L 179.310137 301.227429 
L 180.769915 304.189714 
L 182.229693 303.942857 
L 183.68947 301.227429 
L 185.149248 302.708571 
L 186.609026 304.930286 
L 188.068803 304.436571 
L 189.528581 305.177143 
L 190.988358 301.474286 
L 192.448136 298.758857 
L 193.907914 302.955429 
L 195.367691 306.658286 
L 196.827469 304.683429 
L 198.287247 300.733714 
L 199.747024 300.980571 
L 201.206802 300.733714 
L 202.666579 300.24 
L 204.126357 293.328 
L 205.586135 293.328 
L 207.045912 289.625143 
L 208.50569 290.365714 
L 209.965468 292.093714 
L 211.425245 290.859429 
L 212.885023 295.056 
L 214.344801 296.537143 
L 215.804578 295.056 
L 217.264356 294.562286 
L 218.724133 295.796571 
L 220.183911 295.549714 
L 221.643689 293.081143 
L 223.103466 295.302857 
L 224.563244 290.612571 
L 226.023022 288.884571 
L 227.482799 288.637714 
L 228.942577 289.131429 
L 230.402354 290.365714 
L 231.862132 291.106286 
L 233.32191 290.612571 
L 234.781687 287.156571 
L 236.241465 284.934857 
L 237.701243 280.985143 
L 239.16102 281.478857 
L 240.620798 279.750857 
L 242.080576 278.516571 
L 243.540353 280.244571 
L 245.000131 277.776 
L 246.459908 275.554286 
L 247.919686 278.022857 
L 249.379464 281.478857 
L 250.839241 283.206857 
L 252.299019 283.700571 
L 253.758797 285.428571 
L 255.218574 287.403429 
L 256.678352 275.801143 
L 258.138129 266.420571 
L 259.597907 262.964571 
L 261.057685 251.856 
L 262.517462 260.249143 
L 263.97724 262.224 
L 265.437018 261.730286 
L 266.896795 264.198857 
L 268.356573 254.077714 
L 269.816351 259.755429 
L 271.276128 254.571429 
L 272.735906 253.830857 
L 274.195683 253.337143 
L 275.655461 258.768 
L 277.115239 261.730286 
L 278.575016 273.332571 
L 280.034794 279.010286 
L 281.494572 276.541714 
L 282.954349 278.763429 
L 284.414127 276.294857 
L 285.873905 277.035429 
L 287.333682 281.972571 
L 288.79346 279.010286 
L 290.253237 280.491429 
L 291.713015 283.206857 
L 293.172793 286.909714 
L 294.63257 288.144 
L 296.092348 282.713143 
L 297.552126 281.478857 
L 299.011903 282.713143 
L 300.471681 286.169143 
L 301.931458 291.6 
L 303.391236 288.144 
L 304.851014 286.662857 
L 306.310791 288.144 
L 307.770569 287.897143 
L 309.230347 289.378286 
L 310.690124 287.403429 
L 312.149902 290.612571 
L 313.60968 292.834286 
L 315.069457 295.302857 
L 317.989012 288.637714 
L 319.44879 290.118857 
L 320.908568 289.131429 
L 322.368345 289.872 
L 323.828123 285.922286 
L 325.287901 285.428571 
L 326.747678 287.403429 
L 328.207456 289.625143 
L 329.667233 296.537143 
L 331.127011 305.670857 
L 332.586789 307.645714 
L 334.046566 307.645714 
L 335.506344 305.424 
L 336.966122 305.177143 
L 338.425899 305.177143 
L 339.885677 298.758857 
L 341.345455 299.005714 
L 342.805232 301.721143 
L 344.26501 305.670857 
L 345.724787 300.980571 
L 347.184565 303.202286 
L 348.644343 300.980571 
L 350.10412 299.993143 
L 351.563898 297.771429 
L 353.023676 302.955429 
L 354.483453 303.449143 
L 355.943231 303.202286 
L 357.403009 301.968 
L 358.862786 303.696 
L 360.322564 302.214857 
L 361.782341 303.696 
L 363.242119 303.202286 
L 364.701897 296.784 
L 366.161674 298.018286 
L 367.621452 297.771429 
L 369.08123 292.340571 
L 370.541007 295.302857 
L 372.000785 295.549714 
L 373.460562 293.328 
L 374.92034 291.846857 
L 376.380118 294.068571 
L 377.839895 291.6 
L 379.299673 287.403429 
L 380.759451 286.909714 
L 382.219228 286.169143 
L 383.679006 285.922286 
L 385.138784 288.390857 
L 386.598561 287.897143 
L 388.058339 284.441143 
L 389.518116 285.428571 
L 390.977894 289.872 
L 392.437672 290.859429 
L 393.897449 289.625143 
L 395.357227 282.219429 
L 396.817005 283.947429 
L 398.276782 285.428571 
L 399.73656 288.144 
L 401.196337 287.156571 
L 402.656115 288.884571 
L 404.115893 285.922286 
L 405.57567 286.662857 
L 407.035448 290.118857 
L 408.495226 279.010286 
L 409.955003 279.257143 
L 411.414781 281.232 
L 412.874559 280.491429 
L 414.334336 282.219429 
L 417.253891 269.876571 
L 418.713669 258.027429 
L 420.173447 263.705143 
L 421.633224 267.901714 
L 423.093002 263.211429 
L 424.55278 260.496 
L 426.012557 261.977143 
L 427.472335 260.742857 
L 428.932112 251.115429 
L 430.39189 245.684571 
L 431.851668 251.856 
L 433.311445 241.241143 
L 434.771223 235.069714 
L 436.231001 240.747429 
L 437.690778 242.722286 
L 439.150556 248.4 
L 440.610334 257.533714 
L 442.070111 271.110857 
L 443.529889 264.445714 
L 444.989666 269.382857 
L 446.449444 253.090286 
L 447.909222 249.140571 
L 449.368999 251.362286 
L 450.828777 250.374857 
L 452.288555 242.969143 
L 453.748332 237.044571 
L 455.20811 228.404571 
L 456.667888 236.550857 
L 458.127665 229.638857 
L 459.587443 237.291429 
L 461.04722 232.601143 
L 462.506998 236.550857 
L 463.966776 229.638857 
L 465.426553 232.848 
L 466.886331 233.835429 
L 468.346109 236.797714 
L 469.805886 237.785143 
L 471.265664 235.316571 
L 472.725441 243.462857 
L 474.185219 246.672 
L 475.644997 246.425143 
L 477.104774 244.944 
L 478.564552 251.856 
L 480.02433 251.856 
L 481.484107 263.952 
L 482.943885 267.408 
L 484.403663 268.395429 
L 485.86344 274.32 
L 487.323218 266.914286 
L 488.782995 266.667429 
L 490.242773 261.483429 
L 491.702551 256.793143 
L 493.162328 254.077714 
L 494.622106 259.755429 
L 496.081884 251.362286 
L 497.541661 249.140571 
L 499.001439 249.140571 
L 500.461216 245.931429 
L 501.920994 246.918857 
L 503.380772 240.747429 
L 504.840549 225.936 
L 506.300327 231.860571 
L 507.760105 236.550857 
L 509.219882 229.392 
L 510.67966 228.651429 
L 512.139438 231.12 
L 513.599215 236.797714 
L 515.058993 243.462857 
L 516.51877 244.203429 
L 517.978548 242.969143 
L 519.438326 245.437714 
L 520.898103 245.931429 
L 522.357881 241.734857 
L 523.817659 243.216 
L 525.277436 245.437714 
L 526.737214 243.709714 
L 528.196991 233.588571 
L 529.656769 235.316571 
L 531.116547 243.462857 
L 532.576324 244.697143 
L 534.036102 242.722286 
L 535.49588 240.994286 
L 536.955657 242.475429 
L 538.415435 241.981714 
L 539.875213 244.203429 
L 541.33499 241.488 
L 542.794768 241.488 
L 544.254545 240.006857 
L 545.714323 234.822857 
L 547.174101 224.208 
L 548.633878 217.296 
L 550.093656 222.233143 
L 551.553434 227.664 
L 553.013211 211.124571 
L 554.472989 204.459429 
L 555.932767 196.313143 
L 557.392544 191.622857 
L 558.852322 205.446857 
L 560.312099 201.003429 
L 561.771877 199.275429 
L 563.231655 201.003429 
L 564.691432 201.744 
L 566.15121 197.547429 
L 567.610988 189.401143 
L 569.070765 189.401143 
L 570.530543 186.438857 
L 571.99032 194.832 
L 573.450098 195.572571 
L 574.909876 209.396571 
L 576.369653 205.446857 
L 577.829431 202.237714 
L 579.289209 198.041143 
L 580.748986 194.338286 
L 582.208764 201.744 
L 583.668542 192.363429 
L 585.128319 194.832 
L 586.588097 198.288 
L 588.047874 197.300571 
L 589.507652 203.965714 
L 590.96743 214.086857 
L 592.427207 202.237714 
L 593.886985 193.844571 
L 595.346763 195.572571 
L 596.80654 184.957714 
L 598.266318 185.204571 
L 599.726095 190.141714 
L 601.185873 191.869714 
L 602.645651 190.882286 
L 604.105428 197.794286 
L 605.565206 202.731429 
L 607.024984 203.718857 
L 608.484761 202.484571 
L 609.944539 203.718857 
L 611.404317 209.149714 
L 612.864094 212.852571 
L 614.323872 205.446857 
L 615.783649 206.681143 
L 617.243427 205.446857 
L 618.703205 209.890286 
L 620.162982 204.212571 
L 621.62276 204.706286 
L 623.082538 197.300571 
L 624.542315 196.806857 
L 626.002093 191.376 
L 627.461871 194.832 
L 628.921648 190.635429 
L 630.381426 182.736 
L 631.841203 181.008 
L 633.300981 181.995429 
L 634.760759 173.849143 
L 636.220536 178.292571 
L 637.680314 184.217143 
L 639.140092 174.589714 
L 640.599869 168.912 
L 642.059647 170.393143 
L 643.519424 170.146286 
L 644.979202 165.456 
L 646.43898 164.715429 
L 647.898757 162 
L 649.358535 166.443429 
L 650.818313 168.912 
L 652.27809 173.355429 
L 653.737868 173.108571 
L 655.197646 173.849143 
L 656.657423 182.982857 
L 658.117201 182.489143 
L 659.576978 181.501714 
L 661.036756 177.058286 
L 662.496534 181.748571 
L 663.956311 179.28 
L 665.416089 186.192 
L 666.875867 182.736 
L 668.335644 180.267429 
L 669.795422 185.698286 
L 671.255199 183.723429 
L 672.714977 185.698286 
L 674.174755 182.242286 
L 675.634532 177.305143 
L 677.09431 183.229714 
L 678.554088 174.836571 
L 680.013865 177.058286 
L 681.473643 176.317714 
L 682.933421 174.342857 
L 684.393198 167.430857 
L 685.852976 165.209143 
L 687.312753 165.949714 
L 688.772531 164.715429 
L 690.232309 160.518857 
L 691.692086 154.841143 
L 693.151864 158.050286 
L 694.611642 153.36 
L 696.071419 153.606857 
L 697.531197 151.385143 
L 698.990974 153.606857 
L 701.91053 160.765714 
L 703.370307 156.322286 
L 704.830085 158.297143 
L 706.289863 152.866286 
L 707.74964 142.745143 
L 709.209418 146.941714 
L 710.669196 143.485714 
L 712.128973 145.460571 
L 713.588751 135.586286 
L 715.048528 139.536 
L 716.508306 146.201143 
L 717.968084 141.510857 
L 719.427861 140.523429 
L 720.887639 137.808 
L 722.347417 131.883429 
L 723.807194 116.331429 
L 725.266972 126.205714 
L 726.72675 126.452571 
L 728.186527 127.686857 
L 729.646305 117.318857 
L 731.106082 112.875429 
L 732.56586 105.963429 
L 734.025638 94.361143 
L 735.485415 86.214857 
L 736.945193 87.202286 
L 738.404971 94.854857 
L 739.864748 95.348571 
L 741.324526 96.089143 
L 742.784303 92.633143 
L 744.244081 79.302857 
L 745.703859 69.675429 
L 747.163636 66.96 
L 747.163636 66.96 
" clip-path="url(#p780e0a731a)" style="fill: none; stroke: #ff7f0e; stroke-width: 1.5; stroke-linecap: square"/>
   </g>
   <g id="line2d_35">
    <path d="M 138.436364 276.788571 
L 139.896141 276.788571 
L 141.355919 279.750857 
L 142.815697 271.357714 
L 144.275474 268.889143 
L 145.735252 271.357714 
L 147.195029 273.332571 
L 148.654807 274.813714 
L 150.114585 276.048 
L 151.574362 272.098286 
L 153.03414 259.014857 
L 154.493918 260.742857 
L 155.953695 257.286857 
L 157.413473 260.496 
L 158.87325 256.793143 
L 160.333028 255.558857 
L 161.792806 249.881143 
L 163.252583 247.165714 
L 164.712361 246.918857 
L 166.172139 244.203429 
L 167.631916 244.450286 
L 169.091694 246.425143 
L 170.551472 243.216 
L 172.011249 236.304 
L 173.471027 236.057143 
L 174.930804 235.316571 
L 176.390582 236.304 
L 177.85036 239.019429 
L 179.310137 231.12 
L 182.229693 237.785143 
L 183.68947 239.513143 
L 185.149248 245.437714 
L 186.609026 246.918857 
L 188.068803 256.546286 
L 189.528581 260.742857 
L 190.988358 264.445714 
L 192.448136 258.027429 
L 193.907914 255.805714 
L 195.367691 257.04 
L 196.827469 255.558857 
L 198.287247 248.893714 
L 199.747024 243.956571 
L 201.206802 242.969143 
L 202.666579 238.278857 
L 205.586135 245.437714 
L 207.045912 260.496 
L 208.50569 257.533714 
L 209.965468 258.027429 
L 211.425245 256.299429 
L 212.885023 254.324571 
L 214.344801 256.299429 
L 215.804578 256.546286 
L 217.264356 255.558857 
L 218.724133 260.496 
L 220.183911 263.458286 
L 221.643689 258.768 
L 223.103466 267.161143 
L 224.563244 264.939429 
L 226.023022 261.977143 
L 227.482799 253.090286 
L 228.942577 254.077714 
L 230.402354 257.533714 
L 231.862132 260.002286 
L 234.781687 265.433143 
L 236.241465 261.730286 
L 237.701243 259.755429 
L 239.16102 257.286857 
L 240.620798 261.977143 
L 242.080576 263.705143 
L 243.540353 278.269714 
L 245.000131 277.776 
L 246.459908 276.788571 
L 247.919686 275.060571 
L 249.379464 278.269714 
L 250.839241 270.370286 
L 252.299019 269.876571 
L 253.758797 272.838857 
L 255.218574 267.408 
L 256.678352 266.914286 
L 258.138129 266.173714 
L 259.597907 266.420571 
L 261.057685 261.977143 
L 262.517462 267.654857 
L 263.97724 268.148571 
L 265.437018 267.654857 
L 266.896795 271.851429 
L 268.356573 270.370286 
L 269.816351 273.579429 
L 271.276128 267.901714 
L 272.735906 265.68 
L 274.195683 265.433143 
L 275.655461 263.952 
L 277.115239 268.642286 
L 278.575016 272.838857 
L 280.034794 278.022857 
L 281.494572 279.997714 
L 282.954349 279.750857 
L 284.414127 282.713143 
L 285.873905 280.985143 
L 287.333682 286.909714 
L 288.79346 287.897143 
L 290.253237 290.859429 
L 291.713015 289.378286 
L 293.172793 282.713143 
L 294.63257 285.428571 
L 296.092348 289.131429 
L 297.552126 288.637714 
L 299.011903 288.637714 
L 300.471681 289.872 
L 301.931458 296.784 
L 303.391236 299.499429 
L 304.851014 299.993143 
L 306.310791 295.302857 
L 307.770569 297.277714 
L 309.230347 296.537143 
L 310.690124 303.942857 
L 312.149902 304.189714 
L 313.60968 307.892571 
L 315.069457 309.126857 
L 316.529235 305.917714 
L 317.989012 307.892571 
L 319.44879 310.608 
L 320.908568 307.398857 
L 322.368345 308.633143 
L 323.828123 305.177143 
L 325.287901 303.942857 
L 328.207456 310.361143 
L 329.667233 316.532571 
L 331.127011 318.260571 
L 332.586789 326.16 
L 334.046566 328.628571 
L 335.506344 330.109714 
L 336.966122 324.925714 
L 338.425899 324.185143 
L 339.885677 327.394286 
L 341.345455 326.653714 
L 342.805232 329.369143 
L 344.26501 332.578286 
L 345.724787 330.850286 
L 347.184565 328.628571 
L 348.644343 329.616 
L 350.10412 329.369143 
L 351.563898 327.641143 
L 353.023676 326.653714 
L 354.483453 329.369143 
L 355.943231 327.394286 
L 357.403009 335.046857 
L 360.322564 328.875429 
L 361.782341 327.641143 
L 363.242119 327.147429 
L 364.701897 327.394286 
L 366.161674 329.122286 
L 367.621452 328.628571 
L 369.08123 321.222857 
L 370.541007 318.507429 
L 372.000785 314.064 
L 373.460562 318.754286 
L 374.92034 321.716571 
L 376.380118 326.16 
L 377.839895 327.394286 
L 379.299673 327.147429 
L 380.759451 330.109714 
L 382.219228 329.862857 
L 383.679006 331.590857 
L 385.138784 332.825143 
L 386.598561 331.590857 
L 388.058339 332.825143 
L 389.518116 332.825143 
L 390.977894 333.812571 
L 392.437672 335.787429 
L 393.897449 340.477714 
L 395.357227 341.958857 
L 396.817005 342.205714 
L 398.276782 343.686857 
L 401.196337 342.699429 
L 402.656115 340.477714 
L 404.115893 338.749714 
L 405.57567 342.205714 
L 407.035448 342.452571 
L 408.495226 341.712 
L 409.955003 338.256 
L 411.414781 340.724571 
L 412.874559 329.616 
L 414.334336 330.356571 
L 415.794114 329.616 
L 417.253891 332.331429 
L 418.713669 332.331429 
L 420.173447 332.084571 
L 421.633224 328.381714 
L 424.55278 328.381714 
L 426.012557 324.925714 
L 427.472335 323.938286 
L 428.932112 323.197714 
L 430.39189 326.16 
L 431.851668 331.590857 
L 433.311445 329.369143 
L 434.771223 330.109714 
L 436.231001 334.059429 
L 437.690778 339.243429 
L 440.610334 350.845714 
L 442.070111 354.795429 
L 443.529889 355.042286 
L 444.989666 356.029714 
L 446.449444 353.314286 
L 447.909222 353.067429 
L 449.368999 353.314286 
L 450.828777 350.598857 
L 452.288555 352.08 
L 453.748332 351.339429 
L 455.20811 351.586286 
L 456.667888 350.105143 
L 458.127665 343.933714 
L 459.587443 346.155429 
L 461.04722 346.896 
L 462.506998 347.142857 
L 465.426553 345.168 
L 466.886331 345.908571 
L 468.346109 346.402286 
L 469.805886 346.649143 
L 471.265664 342.452571 
L 472.725441 341.465143 
L 474.185219 341.958857 
L 475.644997 336.528 
L 477.104774 335.046857 
L 478.564552 335.787429 
L 480.02433 335.540571 
L 481.484107 340.230857 
L 482.943885 338.256 
L 484.403663 337.515429 
L 485.86344 339.984 
L 487.323218 338.009143 
L 488.782995 338.996571 
L 490.242773 337.268571 
L 491.702551 336.034286 
L 493.162328 330.109714 
L 494.622106 327.641143 
L 496.081884 326.653714 
L 497.541661 327.394286 
L 499.001439 328.628571 
L 500.461216 327.641143 
L 501.920994 324.678857 
L 503.380772 322.704 
L 504.840549 307.398857 
L 506.300327 298.758857 
L 507.760105 305.424 
L 509.219882 293.328 
L 510.67966 290.612571 
L 512.139438 295.056 
L 513.599215 290.612571 
L 515.058993 290.118857 
L 516.51877 293.081143 
L 517.978548 296.537143 
L 519.438326 299.005714 
L 520.898103 296.290286 
L 522.357881 296.043429 
L 523.817659 299.252571 
L 525.277436 298.758857 
L 526.737214 300.733714 
L 528.196991 297.030857 
L 529.656769 294.315429 
L 531.116547 294.315429 
L 532.576324 293.328 
L 534.036102 288.144 
L 535.49588 285.675429 
L 536.955657 290.365714 
L 538.415435 287.897143 
L 539.875213 286.416 
L 541.33499 295.302857 
L 542.794768 295.796571 
L 544.254545 299.252571 
L 545.714323 298.265143 
L 547.174101 297.771429 
L 548.633878 296.537143 
L 550.093656 301.227429 
L 551.553434 300.486857 
L 553.013211 298.512 
L 554.472989 298.265143 
L 555.932767 296.784 
L 557.392544 292.340571 
L 558.852322 288.884571 
L 560.312099 275.801143 
L 561.771877 246.918857 
L 563.231655 250.128 
L 564.691432 252.102857 
L 566.15121 250.128 
L 567.610988 247.165714 
L 569.070765 245.684571 
L 570.530543 259.261714 
L 571.99032 253.584 
L 573.450098 248.893714 
L 574.909876 258.521143 
L 576.369653 257.04 
L 577.829431 250.128 
L 579.289209 250.374857 
L 580.748986 244.944 
L 582.208764 248.646857 
L 583.668542 247.412571 
L 585.128319 247.906286 
L 586.588097 251.856 
L 588.047874 251.115429 
L 590.96743 272.838857 
L 593.886985 264.445714 
L 595.346763 265.433143 
L 598.266318 259.261714 
L 599.726095 265.926857 
L 601.185873 265.186286 
L 602.645651 263.952 
L 604.105428 271.604571 
L 605.565206 270.370286 
L 607.024984 267.901714 
L 608.484761 264.198857 
L 609.944539 266.420571 
L 611.404317 269.629714 
L 612.864094 275.554286 
L 614.323872 268.889143 
L 615.783649 270.370286 
L 617.243427 263.952 
L 618.703205 262.470857 
L 620.162982 259.508571 
L 621.62276 260.496 
L 623.082538 257.04 
L 624.542315 254.077714 
L 626.002093 256.546286 
L 627.461871 260.742857 
L 628.921648 258.521143 
L 630.381426 261.483429 
L 633.300981 269.382857 
L 634.760759 271.851429 
L 636.220536 272.592 
L 637.680314 274.813714 
L 639.140092 271.851429 
L 640.599869 269.876571 
L 642.059647 266.420571 
L 643.519424 267.408 
L 644.979202 266.914286 
L 646.43898 264.692571 
L 647.898757 264.445714 
L 649.358535 270.370286 
L 650.818313 267.901714 
L 652.27809 278.269714 
L 653.737868 275.307429 
L 655.197646 276.788571 
L 656.657423 269.876571 
L 658.117201 271.604571 
L 659.576978 261.977143 
L 661.036756 262.470857 
L 662.496534 261.977143 
L 663.956311 262.964571 
L 665.416089 266.420571 
L 666.875867 265.68 
L 668.335644 264.445714 
L 669.795422 269.382857 
L 671.255199 269.382857 
L 672.714977 267.654857 
L 674.174755 260.496 
L 675.634532 255.805714 
L 677.09431 255.805714 
L 678.554088 252.349714 
L 680.013865 253.584 
L 681.473643 242.722286 
L 682.933421 242.475429 
L 684.393198 242.475429 
L 685.852976 239.019429 
L 687.312753 232.107429 
L 688.772531 231.12 
L 690.232309 233.835429 
L 691.692086 223.961143 
L 693.151864 218.036571 
L 694.611642 217.296 
L 696.071419 217.049143 
L 697.531197 214.086857 
L 698.990974 219.270857 
L 700.450752 220.998857 
L 701.91053 219.764571 
L 703.370307 222.726857 
L 704.830085 220.011429 
L 706.289863 215.321143 
L 707.74964 215.074286 
L 709.209418 218.036571 
L 710.669196 216.555429 
L 712.128973 218.777143 
L 713.588751 206.928 
L 715.048528 208.162286 
L 716.508306 213.099429 
L 717.968084 210.877714 
L 719.427861 210.877714 
L 720.887639 203.718857 
L 722.347417 205.693714 
L 723.807194 195.325714 
L 725.266972 194.832 
L 726.72675 191.129143 
L 728.186527 193.104 
L 729.646305 178.292571 
L 731.106082 175.083429 
L 732.56586 169.652571 
L 734.025638 168.665143 
L 735.485415 171.627429 
L 736.945193 141.510857 
L 738.404971 145.954286 
L 739.864748 139.289143 
L 741.324526 140.770286 
L 742.784303 126.946286 
L 744.244081 116.578286 
L 745.703859 138.548571 
L 747.163636 130.155429 
L 747.163636 130.155429 
" clip-path="url(#p780e0a731a)" style="fill: none; stroke: #2ca02c; stroke-width: 1.5; stroke-linecap: square"/>
   </g>
   <g id="line2d_36">
    <path d="M 138.436364 343.933714 
L 139.896141 342.205714 
L 141.355919 342.452571 
L 142.815697 341.958857 
L 144.275474 341.958857 
L 145.735252 340.230857 
L 147.195029 340.724571 
L 148.654807 341.958857 
L 150.114585 341.465143 
L 151.574362 340.230857 
L 153.03414 339.243429 
L 154.493918 339.490286 
L 155.953695 338.996571 
L 157.413473 339.243429 
L 158.87325 334.553143 
L 160.333028 333.072 
L 163.252583 333.072 
L 164.712361 331.837714 
L 166.172139 331.344 
L 167.631916 331.837714 
L 169.091694 330.850286 
L 170.551472 332.578286 
L 172.011249 335.046857 
L 173.471027 334.306286 
L 174.930804 335.787429 
L 176.390582 333.812571 
L 177.85036 335.540571 
L 179.310137 333.318857 
L 180.769915 334.8 
L 182.229693 333.318857 
L 183.68947 335.046857 
L 185.149248 337.268571 
L 186.609026 343.44 
L 188.068803 343.44 
L 189.528581 344.427429 
L 190.988358 344.921143 
L 192.448136 343.44 
L 193.907914 344.427429 
L 195.367691 344.427429 
L 196.827469 343.44 
L 198.287247 340.724571 
L 199.747024 340.971429 
L 201.206802 340.724571 
L 204.126357 336.281143 
L 205.586135 335.293714 
L 207.045912 336.774857 
L 208.50569 335.293714 
L 209.965468 336.281143 
L 211.425245 337.021714 
L 212.885023 335.540571 
L 214.344801 335.540571 
L 215.804578 335.293714 
L 217.264356 334.306286 
L 218.724133 332.578286 
L 220.183911 326.900571 
L 221.643689 326.16 
L 223.103466 326.16 
L 224.563244 320.235429 
L 226.023022 320.235429 
L 227.482799 325.666286 
L 228.942577 328.875429 
L 230.402354 326.900571 
L 231.862132 324.185143 
L 233.32191 324.678857 
L 234.781687 324.925714 
L 236.241465 321.963429 
L 237.701243 322.210286 
L 239.16102 323.691429 
L 240.620798 324.678857 
L 242.080576 325.172571 
L 243.540353 332.331429 
L 245.000131 326.653714 
L 246.459908 324.925714 
L 247.919686 324.925714 
L 249.379464 324.185143 
L 250.839241 324.185143 
L 252.299019 329.616 
L 253.758797 331.590857 
L 255.218574 329.616 
L 256.678352 329.369143 
L 258.138129 328.628571 
L 259.597907 326.406857 
L 261.057685 318.507429 
L 262.517462 322.704 
L 263.97724 316.779429 
L 265.437018 315.545143 
L 266.896795 315.545143 
L 268.356573 313.076571 
L 269.816351 316.532571 
L 271.276128 311.595429 
L 272.735906 308.139429 
L 274.195683 307.645714 
L 275.655461 305.670857 
L 277.115239 310.361143 
L 278.575016 309.126857 
L 280.034794 318.260571 
L 281.494572 314.804571 
L 282.954349 316.532571 
L 284.414127 316.038857 
L 287.333682 319.001143 
L 288.79346 316.285714 
L 290.253237 322.210286 
L 291.713015 321.716571 
L 293.172793 321.716571 
L 294.63257 320.729143 
L 296.092348 319.988571 
L 297.552126 316.285714 
L 299.011903 319.741714 
L 300.471681 319.494857 
L 301.931458 323.197714 
L 303.391236 321.716571 
L 304.851014 320.729143 
L 306.310791 320.976 
L 307.770569 322.950857 
L 309.230347 322.704 
L 310.690124 325.419429 
L 312.149902 325.666286 
L 313.60968 325.666286 
L 315.069457 330.109714 
L 316.529235 325.172571 
L 317.989012 325.172571 
L 319.44879 323.938286 
L 320.908568 319.494857 
L 322.368345 319.248 
L 323.828123 319.494857 
L 325.287901 320.976 
L 326.747678 320.976 
L 328.207456 322.704 
L 329.667233 332.825143 
L 331.127011 335.293714 
L 332.586789 333.318857 
L 334.046566 334.059429 
L 335.506344 333.812571 
L 336.966122 330.109714 
L 338.425899 328.628571 
L 339.885677 330.109714 
L 341.345455 328.134857 
L 342.805232 327.888 
L 344.26501 330.109714 
L 345.724787 327.641143 
L 347.184565 326.16 
L 348.644343 327.888 
L 350.10412 328.134857 
L 351.563898 327.147429 
L 353.023676 327.394286 
L 354.483453 332.578286 
L 355.943231 331.097143 
L 357.403009 331.344 
L 358.862786 332.825143 
L 360.322564 329.862857 
L 361.782341 330.850286 
L 363.242119 328.875429 
L 364.701897 323.197714 
L 366.161674 324.185143 
L 367.621452 321.963429 
L 369.08123 321.963429 
L 370.541007 326.900571 
L 372.000785 327.394286 
L 373.460562 329.122286 
L 374.92034 328.628571 
L 376.380118 331.344 
L 377.839895 330.356571 
L 379.299673 324.925714 
L 382.219228 324.925714 
L 383.679006 328.134857 
L 385.138784 328.134857 
L 386.598561 325.172571 
L 388.058339 326.406857 
L 389.518116 326.16 
L 390.977894 328.134857 
L 392.437672 327.641143 
L 393.897449 330.603429 
L 395.357227 328.628571 
L 396.817005 328.134857 
L 398.276782 333.565714 
L 399.73656 330.603429 
L 401.196337 334.059429 
L 404.115893 329.616 
L 405.57567 332.825143 
L 407.035448 335.540571 
L 408.495226 335.046857 
L 409.955003 330.356571 
L 411.414781 327.394286 
L 412.874559 326.406857 
L 414.334336 322.704 
L 415.794114 319.741714 
L 417.253891 317.766857 
L 418.713669 317.766857 
L 420.173447 318.260571 
L 421.633224 315.792 
L 423.093002 315.545143 
L 424.55278 314.557714 
L 426.012557 316.038857 
L 428.932112 307.398857 
L 430.39189 307.398857 
L 431.851668 315.298286 
L 433.311445 314.064 
L 434.771223 315.792 
L 436.231001 319.001143 
L 437.690778 321.222857 
L 439.150556 325.666286 
L 440.610334 333.812571 
L 442.070111 340.971429 
L 443.529889 338.996571 
L 444.989666 339.490286 
L 446.449444 335.540571 
L 447.909222 338.009143 
L 449.368999 339.737143 
L 450.828777 337.268571 
L 452.288555 339.243429 
L 453.748332 338.009143 
L 455.20811 338.749714 
L 456.667888 334.306286 
L 458.127665 332.084571 
L 459.587443 334.306286 
L 461.04722 331.590857 
L 462.506998 334.059429 
L 463.966776 334.306286 
L 465.426553 335.293714 
L 466.886331 337.021714 
L 468.346109 337.762286 
L 469.805886 337.515429 
L 472.725441 336.528 
L 474.185219 332.084571 
L 475.644997 328.875429 
L 477.104774 333.565714 
L 478.564552 333.565714 
L 480.02433 332.084571 
L 481.484107 334.306286 
L 482.943885 333.318857 
L 484.403663 333.072 
L 485.86344 331.590857 
L 487.323218 329.369143 
L 488.782995 332.578286 
L 490.242773 330.109714 
L 491.702551 326.406857 
L 493.162328 326.653714 
L 494.622106 325.913143 
L 496.081884 319.988571 
L 497.541661 318.260571 
L 499.001439 315.545143 
L 500.461216 315.051429 
L 503.380772 310.608 
L 504.840549 303.449143 
L 506.300327 304.436571 
L 507.760105 308.386286 
L 509.219882 294.068571 
L 510.67966 294.562286 
L 512.139438 298.018286 
L 513.599215 296.537143 
L 515.058993 292.834286 
L 516.51877 295.302857 
L 517.978548 300.733714 
L 519.438326 303.202286 
L 520.898103 300.733714 
L 522.357881 305.177143 
L 523.817659 311.842286 
L 525.277436 312.089143 
L 526.737214 311.842286 
L 528.196991 307.892571 
L 529.656769 309.620571 
L 531.116547 305.177143 
L 532.576324 301.474286 
L 534.036102 298.265143 
L 535.49588 294.562286 
L 536.955657 300.980571 
L 538.415435 299.499429 
L 539.875213 301.474286 
L 541.33499 297.277714 
L 542.794768 291.6 
L 544.254545 289.625143 
L 545.714323 288.144 
L 547.174101 286.909714 
L 548.633878 290.118857 
L 550.093656 294.562286 
L 551.553434 295.056 
L 553.013211 286.909714 
L 554.472989 289.625143 
L 555.932767 290.859429 
L 557.392544 269.876571 
L 558.852322 269.136 
L 560.312099 268.889143 
L 561.771877 266.173714 
L 563.231655 269.629714 
L 564.691432 272.345143 
L 566.15121 264.692571 
L 567.610988 265.926857 
L 569.070765 269.136 
L 570.530543 279.257143 
L 571.99032 276.788571 
L 573.450098 268.148571 
L 574.909876 277.282286 
L 576.369653 278.763429 
L 579.289209 272.098286 
L 580.748986 269.136 
L 582.208764 274.813714 
L 583.668542 277.776 
L 585.128319 273.332571 
L 586.588097 280.738286 
L 589.507652 287.650286 
L 590.96743 293.574857 
L 592.427207 284.688 
L 593.886985 281.972571 
L 595.346763 280.985143 
L 596.80654 276.541714 
L 598.266318 275.060571 
L 599.726095 276.788571 
L 601.185873 279.504 
L 602.645651 281.232 
L 604.105428 290.859429 
L 605.565206 292.834286 
L 607.024984 289.378286 
L 608.484761 290.859429 
L 609.944539 290.612571 
L 611.404317 294.315429 
L 612.864094 296.784 
L 614.323872 292.587429 
L 615.783649 292.340571 
L 617.243427 288.884571 
L 618.703205 283.947429 
L 620.162982 283.453714 
L 621.62276 277.035429 
L 623.082538 281.725714 
L 624.542315 279.997714 
L 626.002093 280.244571 
L 627.461871 281.725714 
L 628.921648 274.32 
L 630.381426 274.073143 
L 631.841203 275.554286 
L 633.300981 281.725714 
L 634.760759 283.947429 
L 636.220536 283.453714 
L 637.680314 283.947429 
L 639.140092 280.738286 
L 640.599869 276.788571 
L 642.059647 276.294857 
L 643.519424 272.838857 
L 646.43898 274.32 
L 647.898757 270.370286 
L 649.358535 272.838857 
L 650.818313 274.813714 
L 652.27809 283.453714 
L 653.737868 279.257143 
L 655.197646 279.997714 
L 656.657423 278.763429 
L 658.117201 280.491429 
L 659.576978 283.947429 
L 661.036756 284.688 
L 662.496534 282.713143 
L 663.956311 281.725714 
L 665.416089 286.416 
L 666.875867 282.96 
L 668.335644 285.428571 
L 669.795422 279.504 
L 671.255199 284.441143 
L 672.714977 283.700571 
L 674.174755 277.282286 
L 675.634532 269.382857 
L 677.09431 271.604571 
L 678.554088 266.914286 
L 680.013865 266.173714 
L 681.473643 262.717714 
L 682.933421 255.558857 
L 684.393198 254.077714 
L 685.852976 250.621714 
L 687.312753 251.856 
L 688.772531 249.387429 
L 690.232309 254.324571 
L 691.692086 250.374857 
L 693.151864 247.906286 
L 694.611642 250.128 
L 696.071419 247.906286 
L 697.531197 244.450286 
L 698.990974 250.621714 
L 700.450752 253.830857 
L 701.91053 255.065143 
L 703.370307 254.077714 
L 704.830085 247.659429 
L 706.289863 238.278857 
L 707.74964 240.994286 
L 709.209418 244.450286 
L 710.669196 240.994286 
L 712.128973 237.044571 
L 713.588751 232.354286 
L 716.508306 239.513143 
L 717.968084 224.454857 
L 719.427861 221.245714 
L 720.887639 216.061714 
L 722.347417 216.802286 
L 723.807194 214.333714 
L 725.266972 210.630857 
L 726.72675 198.781714 
L 728.186527 195.325714 
L 729.646305 192.610286 
L 731.106082 184.464 
L 732.56586 174.096 
L 734.025638 178.045714 
L 735.485415 184.217143 
L 736.945193 178.292571 
L 738.404971 166.443429 
L 739.864748 158.790857 
L 741.324526 150.397714 
L 742.784303 143.732571 
L 744.244081 142.992 
L 745.703859 168.171429 
L 747.163636 158.297143 
L 747.163636 158.297143 
" clip-path="url(#p780e0a731a)" style="fill: none; stroke: #d62728; stroke-width: 1.5; stroke-linecap: square"/>
   </g>
   <g id="line2d_37">
    <path d="M 138.436364 329.369143 
L 139.896141 329.862857 
L 141.355919 329.862857 
L 142.815697 329.616 
L 144.275474 328.875429 
L 145.735252 325.172571 
L 147.195029 326.900571 
L 148.654807 324.925714 
L 150.114585 323.444571 
L 151.574362 321.469714 
L 153.03414 320.235429 
L 154.493918 319.741714 
L 155.953695 319.741714 
L 157.413473 319.248 
L 158.87325 316.038857 
L 160.333028 316.285714 
L 161.792806 314.064 
L 163.252583 315.298286 
L 164.712361 311.595429 
L 166.172139 309.373714 
L 167.631916 308.386286 
L 169.091694 306.164571 
L 170.551472 306.658286 
L 172.011249 303.449143 
L 173.471027 310.361143 
L 174.930804 314.557714 
L 177.85036 309.126857 
L 179.310137 308.88 
L 180.769915 309.620571 
L 182.229693 306.905143 
L 183.68947 309.373714 
L 185.149248 312.336 
L 186.609026 312.089143 
L 188.068803 313.817143 
L 189.528581 316.038857 
L 190.988358 315.051429 
L 192.448136 312.336 
L 193.907914 313.570286 
L 195.367691 316.779429 
L 196.827469 314.804571 
L 198.287247 310.114286 
L 199.747024 306.905143 
L 202.666579 302.955429 
L 204.126357 302.461714 
L 205.586135 302.214857 
L 207.045912 300.980571 
L 208.50569 300.980571 
L 209.965468 300.733714 
L 211.425245 299.005714 
L 212.885023 297.030857 
L 214.344801 296.537143 
L 215.804578 295.549714 
L 217.264356 295.056 
L 218.724133 292.093714 
L 220.183911 295.549714 
L 221.643689 291.6 
L 223.103466 292.340571 
L 224.563244 298.265143 
L 226.023022 300.733714 
L 227.482799 298.265143 
L 228.942577 298.758857 
L 230.402354 299.005714 
L 231.862132 300.24 
L 233.32191 301.227429 
L 234.781687 299.499429 
L 236.241465 297.524571 
L 237.701243 294.562286 
L 239.16102 294.068571 
L 240.620798 280.738286 
L 242.080576 282.713143 
L 243.540353 285.675429 
L 245.000131 287.156571 
L 246.459908 286.909714 
L 247.919686 284.688 
L 249.379464 283.453714 
L 250.839241 280.738286 
L 252.299019 282.96 
L 253.758797 285.675429 
L 255.218574 281.232 
L 256.678352 279.750857 
L 258.138129 283.700571 
L 259.597907 295.056 
L 261.057685 291.353143 
L 262.517462 296.290286 
L 263.97724 295.796571 
L 265.437018 295.056 
L 266.896795 296.043429 
L 268.356573 294.562286 
L 269.816351 294.068571 
L 271.276128 295.549714 
L 272.735906 294.068571 
L 274.195683 289.131429 
L 275.655461 287.650286 
L 277.115239 285.675429 
L 278.575016 282.96 
L 280.034794 288.144 
L 282.954349 294.562286 
L 284.414127 291.6 
L 285.873905 293.574857 
L 287.333682 296.784 
L 288.79346 294.068571 
L 290.253237 301.474286 
L 291.713015 296.290286 
L 293.172793 294.068571 
L 294.63257 296.290286 
L 296.092348 295.302857 
L 297.552126 285.428571 
L 299.011903 286.169143 
L 300.471681 285.428571 
L 301.931458 286.662857 
L 303.391236 287.650286 
L 304.851014 287.156571 
L 306.310791 288.390857 
L 307.770569 290.365714 
L 309.230347 289.378286 
L 310.690124 288.637714 
L 312.149902 284.194286 
L 313.60968 279.257143 
L 315.069457 276.294857 
L 316.529235 280.244571 
L 317.989012 279.750857 
L 319.44879 278.516571 
L 320.908568 274.073143 
L 322.368345 278.763429 
L 323.828123 286.169143 
L 325.287901 292.093714 
L 326.747678 293.574857 
L 328.207456 313.817143 
L 329.667233 327.641143 
L 331.127011 320.235429 
L 332.586789 310.608 
L 334.046566 317.52 
L 335.506344 326.406857 
L 336.966122 320.482286 
L 338.425899 315.298286 
L 339.885677 323.197714 
L 341.345455 325.419429 
L 342.805232 329.122286 
L 344.26501 332.084571 
L 345.724787 326.900571 
L 347.184565 326.653714 
L 348.644343 326.900571 
L 350.10412 324.185143 
L 351.563898 326.406857 
L 353.023676 322.950857 
L 354.483453 317.273143 
L 355.943231 326.653714 
L 357.403009 328.875429 
L 358.862786 322.457143 
L 360.322564 316.779429 
L 361.782341 313.323429 
L 363.242119 314.557714 
L 364.701897 311.101714 
L 366.161674 310.361143 
L 367.621452 303.942857 
L 369.08123 306.164571 
L 370.541007 305.917714 
L 372.000785 309.373714 
L 373.460562 313.570286 
L 374.92034 330.603429 
L 376.380118 331.344 
L 377.839895 337.021714 
L 379.299673 337.021714 
L 380.759451 335.540571 
L 382.219228 337.021714 
L 383.679006 342.946286 
L 385.138784 344.427429 
L 386.598561 344.921143 
L 388.058339 350.598857 
L 389.518116 348.624 
L 390.977894 351.586286 
L 392.437672 348.377143 
L 393.897449 350.352 
L 395.357227 351.833143 
L 396.817005 352.573714 
L 398.276782 356.523429 
L 399.73656 357.264 
L 401.196337 357.264 
L 402.656115 355.289143 
L 404.115893 358.004571 
L 405.57567 360.226286 
L 407.035448 360.72 
L 408.495226 362.201143 
L 409.955003 359.485714 
L 411.414781 359.238857 
L 412.874559 357.264 
L 414.334336 354.795429 
L 415.794114 355.042286 
L 417.253891 356.029714 
L 418.713669 355.042286 
L 420.173447 358.251429 
L 421.633224 360.473143 
L 423.093002 359.485714 
L 424.55278 360.226286 
L 426.012557 360.473143 
L 427.472335 361.460571 
L 428.932112 362.201143 
L 430.39189 361.707429 
L 431.851668 362.694857 
L 433.311445 362.201143 
L 434.771223 362.201143 
L 436.231001 363.188571 
L 437.690778 363.435429 
L 439.150556 367.878857 
L 440.610334 365.410286 
L 442.070111 361.954286 
L 443.529889 365.163429 
L 444.989666 366.150857 
L 450.828777 365.163429 
L 452.288555 365.410286 
L 453.748332 364.916571 
L 455.20811 365.410286 
L 456.667888 365.163429 
L 458.127665 364.669714 
L 459.587443 364.669714 
L 461.04722 365.163429 
L 463.966776 365.657143 
L 465.426553 366.644571 
L 466.886331 367.138286 
L 468.346109 369.113143 
L 469.805886 369.113143 
L 471.265664 368.619429 
L 472.725441 368.372571 
L 475.644997 368.372571 
L 477.104774 368.619429 
L 478.564552 368.372571 
L 480.02433 368.619429 
L 481.484107 368.619429 
L 482.943885 368.866286 
L 485.86344 368.866286 
L 487.323218 368.619429 
L 488.782995 369.113143 
L 490.242773 369.113143 
L 491.702551 368.372571 
L 494.622106 368.372571 
L 496.081884 368.125714 
L 497.541661 367.385143 
L 499.001439 367.385143 
L 500.461216 367.632 
L 504.840549 367.632 
L 507.760105 368.125714 
L 509.219882 367.878857 
L 510.67966 368.125714 
L 513.599215 368.125714 
L 515.058993 367.878857 
L 519.438326 368.619429 
L 520.898103 368.125714 
L 523.817659 368.619429 
L 525.277436 368.619429 
L 526.737214 368.866286 
L 532.576324 368.866286 
L 534.036102 368.619429 
L 539.875213 368.619429 
L 541.33499 368.866286 
L 542.794768 368.866286 
L 544.254545 368.619429 
L 545.714323 368.866286 
L 547.174101 368.866286 
L 550.093656 369.36 
L 554.472989 369.36 
L 555.932767 368.866286 
L 561.771877 368.866286 
L 563.231655 368.619429 
L 564.691432 368.866286 
L 569.070765 368.866286 
L 570.530543 369.113143 
L 571.99032 368.866286 
L 573.450098 368.372571 
L 574.909876 368.866286 
L 576.369653 368.866286 
L 577.829431 368.619429 
L 588.047874 368.619429 
L 589.507652 368.866286 
L 596.80654 368.866286 
L 598.266318 368.125714 
L 599.726095 368.619429 
L 602.645651 368.619429 
L 604.105428 368.866286 
L 605.565206 368.866286 
L 607.024984 368.619429 
L 608.484761 368.866286 
L 611.404317 368.866286 
L 612.864094 369.113143 
L 614.323872 368.866286 
L 618.703205 368.866286 
L 620.162982 368.372571 
L 623.082538 367.878857 
L 624.542315 368.372571 
L 626.002093 368.125714 
L 628.921648 368.125714 
L 630.381426 367.632 
L 633.300981 368.125714 
L 640.599869 368.125714 
L 642.059647 367.878857 
L 646.43898 367.878857 
L 647.898757 367.632 
L 650.818313 366.644571 
L 652.27809 367.632 
L 653.737868 366.891429 
L 655.197646 366.891429 
L 656.657423 367.138286 
L 658.117201 367.632 
L 659.576978 367.632 
L 661.036756 368.125714 
L 662.496534 367.878857 
L 663.956311 368.125714 
L 665.416089 368.125714 
L 666.875867 367.878857 
L 668.335644 368.619429 
L 669.795422 368.372571 
L 675.634532 368.372571 
L 677.09431 368.125714 
L 685.852976 368.125714 
L 687.312753 367.878857 
L 688.772531 368.125714 
L 691.692086 368.125714 
L 694.611642 367.632 
L 696.071419 367.632 
L 697.531197 367.878857 
L 704.830085 367.878857 
L 706.289863 367.632 
L 709.209418 367.632 
L 710.669196 367.878857 
L 715.048528 367.878857 
L 716.508306 368.125714 
L 719.427861 367.632 
L 720.887639 366.891429 
L 722.347417 367.138286 
L 725.266972 367.138286 
L 726.72675 366.644571 
L 728.186527 366.891429 
L 729.646305 366.644571 
L 731.106082 366.150857 
L 732.56586 365.904 
L 735.485415 365.904 
L 736.945193 366.150857 
L 738.404971 364.176 
L 739.864748 365.163429 
L 741.324526 365.657143 
L 744.244081 366.150857 
L 747.163636 366.150857 
L 747.163636 366.150857 
" clip-path="url(#p780e0a731a)" style="fill: none; stroke: #9467bd; stroke-width: 1.5; stroke-linecap: square"/>
   </g>
   <g id="patch_3">
    <path d="M 108 384.48 
L 108 51.84 
" style="fill: none; stroke: #000000; stroke-width: 0.8; stroke-linejoin: miter; stroke-linecap: square"/>
   </g>
   <g id="patch_4">
    <path d="M 777.6 384.48 
L 777.6 51.84 
" style="fill: none; stroke: #000000; stroke-width: 0.8; stroke-linejoin: miter; stroke-linecap: square"/>
   </g>
   <g id="patch_5">
    <path d="M 108 384.48 
L 777.6 384.48 
" style="fill: none; stroke: #000000; stroke-width: 0.8; stroke-linejoin: miter; stroke-linecap: square"/>
   </g>
   <g id="patch_6">
    <path d="M 108 51.84 
L 777.6 51.84 
" style="fill: none; stroke: #000000; stroke-width: 0.8; stroke-linejoin: miter; stroke-linecap: square"/>
   </g>
   <g id="text_19">
    <!-- Stock Prices Over Time -->
    <g transform="translate(373.5975 45.84) scale(0.12 -0.12)">
     <defs>
      <path id="DejaVuSans-73" d="M 2834 3397 
L 2834 2853 
Q 2591 2978 2328 3040 
Q 2066 3103 1784 3103 
Q 1356 3103 1142 2972 
Q 928 2841 928 2578 
Q 928 2378 1081 2264 
Q 1234 2150 1697 2047 
L 1894 2003 
Q 2506 1872 2764 1633 
Q 3022 1394 3022 966 
Q 3022 478 2636 193 
Q 2250 -91 1575 -91 
Q 1294 -91 989 -36 
Q 684 19 347 128 
L 347 722 
Q 666 556 975 473 
Q 1284 391 1588 391 
Q 1994 391 2212 530 
Q 2431 669 2431 922 
Q 2431 1156 2273 1281 
Q 2116 1406 1581 1522 
L 1381 1569 
Q 847 1681 609 1914 
Q 372 2147 372 2553 
Q 372 3047 722 3315 
Q 1072 3584 1716 3584 
Q 2034 3584 2315 3537 
Q 2597 3491 2834 3397 
z
" transform="scale(0.015625)"/>
      <path id="DejaVuSans-4f" d="M 2522 4238 
Q 1834 4238 1429 3725 
Q 1025 3213 1025 2328 
Q 1025 1447 1429 934 
Q 1834 422 2522 422 
Q 3209 422 3611 934 
Q 4013 1447 4013 2328 
Q 4013 3213 3611 3725 
Q 3209 4238 2522 4238 
z
M 2522 4750 
Q 3503 4750 4090 4092 
Q 4678 3434 4678 2328 
Q 4678 1225 4090 567 
Q 3503 -91 2522 -91 
Q 1538 -91 948 565 
Q 359 1222 359 2328 
Q 359 3434 948 4092 
Q 1538 4750 2522 4750 
z
" transform="scale(0.015625)"/>
      <path id="DejaVuSans-76" d="M 191 3500 
L 800 3500 
L 1894 563 
L 2988 3500 
L 3597 3500 
L 2284 0 
L 1503 0 
L 191 3500 
z
" transform="scale(0.015625)"/>
      <path id="DejaVuSans-54" d="M -19 4666 
L 3928 4666 
L 3928 4134 
L 2272 4134 
L 2272 0 
L 1638 0 
L 1638 4134 
L -19 4134 
L -19 4666 
z
" transform="scale(0.015625)"/>
      <path id="DejaVuSans-6d" d="M 3328 2828 
Q 3544 3216 3844 3400 
Q 4144 3584 4550 3584 
Q 5097 3584 5394 3201 
Q 5691 2819 5691 2113 
L 5691 0 
L 5113 0 
L 5113 2094 
Q 5113 2597 4934 2840 
Q 4756 3084 4391 3084 
Q 3944 3084 3684 2787 
Q 3425 2491 3425 1978 
L 3425 0 
L 2847 0 
L 2847 2094 
Q 2847 2600 2669 2842 
Q 2491 3084 2119 3084 
Q 1678 3084 1418 2786 
Q 1159 2488 1159 1978 
L 1159 0 
L 581 0 
L 581 3500 
L 1159 3500 
L 1159 2956 
Q 1356 3278 1631 3431 
Q 1906 3584 2284 3584 
Q 2666 3584 2933 3390 
Q 3200 3197 3328 2828 
z
" transform="scale(0.015625)"/>
     </defs>
     <use xlink:href="#DejaVuSans-53"/>
     <use xlink:href="#DejaVuSans-74" transform="translate(63.476562 0)"/>
     <use xlink:href="#DejaVuSans-6f" transform="translate(102.685547 0)"/>
     <use xlink:href="#DejaVuSans-63" transform="translate(163.867188 0)"/>
     <use xlink:href="#DejaVuSans-6b" transform="translate(218.847656 0)"/>
     <use xlink:href="#DejaVuSans-20" transform="translate(276.757812 0)"/>
     <use xlink:href="#DejaVuSans-50" transform="translate(308.544922 0)"/>
     <use xlink:href="#DejaVuSans-72" transform="translate(367.097656 0)"/>
     <use xlink:href="#DejaVuSans-69" transform="translate(408.210938 0)"/>
     <use xlink:href="#DejaVuSans-63" transform="translate(435.994141 0)"/>
     <use xlink:href="#DejaVuSans-65" transform="translate(490.974609 0)"/>
     <use xlink:href="#DejaVuSans-73" transform="translate(552.498047 0)"/>
     <use xlink:href="#DejaVuSans-20" transform="translate(604.597656 0)"/>
     <use xlink:href="#DejaVuSans-4f" transform="translate(636.384766 0)"/>
     <use xlink:href="#DejaVuSans-76" transform="translate(715.095703 0)"/>
     <use xlink:href="#DejaVuSans-65" transform="translate(774.275391 0)"/>
     <use xlink:href="#DejaVuSans-72" transform="translate(835.798828 0)"/>
     <use xlink:href="#DejaVuSans-20" transform="translate(876.912109 0)"/>
     <use xlink:href="#DejaVuSans-54" transform="translate(908.699219 0)"/>
     <use xlink:href="#DejaVuSans-69" transform="translate(966.658203 0)"/>
     <use xlink:href="#DejaVuSans-6d" transform="translate(994.441406 0)"/>
     <use xlink:href="#DejaVuSans-65" transform="translate(1091.853516 0)"/>
    </g>
   </g>
   <g id="legend_1">
    <g id="patch_7">
     <path d="M 115 133.230625 
L 206.895312 133.230625 
Q 208.895312 133.230625 208.895312 131.230625 
L 208.895312 58.84 
Q 208.895312 56.84 206.895312 56.84 
L 115 56.84 
Q 113 56.84 113 58.84 
L 113 131.230625 
Q 113 133.230625 115 133.230625 
z
" style="fill: #ffffff; opacity: 0.8; stroke: #cccccc; stroke-linejoin: miter"/>
    </g>
    <g id="line2d_38">
     <path d="M 117 64.938437 
L 127 64.938437 
L 137 64.938437 
" style="fill: none; stroke: #1f77b4; stroke-width: 1.5; stroke-linecap: square"/>
    </g>
    <g id="text_20">
     <!-- ITC Limited -->
     <g transform="translate(145 68.438437) scale(0.1 -0.1)">
      <defs>
       <path id="DejaVuSans-49" d="M 628 4666 
L 1259 4666 
L 1259 0 
L 628 0 
L 628 4666 
z
" transform="scale(0.015625)"/>
       <path id="DejaVuSans-43" d="M 4122 4306 
L 4122 3641 
Q 3803 3938 3442 4084 
Q 3081 4231 2675 4231 
Q 1875 4231 1450 3742 
Q 1025 3253 1025 2328 
Q 1025 1406 1450 917 
Q 1875 428 2675 428 
Q 3081 428 3442 575 
Q 3803 722 4122 1019 
L 4122 359 
Q 3791 134 3420 21 
Q 3050 -91 2638 -91 
Q 1578 -91 968 557 
Q 359 1206 359 2328 
Q 359 3453 968 4101 
Q 1578 4750 2638 4750 
Q 3056 4750 3426 4639 
Q 3797 4528 4122 4306 
z
" transform="scale(0.015625)"/>
       <path id="DejaVuSans-4c" d="M 628 4666 
L 1259 4666 
L 1259 531 
L 3531 531 
L 3531 0 
L 628 0 
L 628 4666 
z
" transform="scale(0.015625)"/>
       <path id="DejaVuSans-64" d="M 2906 2969 
L 2906 4863 
L 3481 4863 
L 3481 0 
L 2906 0 
L 2906 525 
Q 2725 213 2448 61 
Q 2172 -91 1784 -91 
Q 1150 -91 751 415 
Q 353 922 353 1747 
Q 353 2572 751 3078 
Q 1150 3584 1784 3584 
Q 2172 3584 2448 3432 
Q 2725 3281 2906 2969 
z
M 947 1747 
Q 947 1113 1208 752 
Q 1469 391 1925 391 
Q 2381 391 2643 752 
Q 2906 1113 2906 1747 
Q 2906 2381 2643 2742 
Q 2381 3103 1925 3103 
Q 1469 3103 1208 2742 
Q 947 2381 947 1747 
z
" transform="scale(0.015625)"/>
      </defs>
      <use xlink:href="#DejaVuSans-49"/>
      <use xlink:href="#DejaVuSans-54" transform="translate(29.492188 0)"/>
      <use xlink:href="#DejaVuSans-43" transform="translate(84.701172 0)"/>
      <use xlink:href="#DejaVuSans-20" transform="translate(154.525391 0)"/>
      <use xlink:href="#DejaVuSans-4c" transform="translate(186.3125 0)"/>
      <use xlink:href="#DejaVuSans-69" transform="translate(242.025391 0)"/>
      <use xlink:href="#DejaVuSans-6d" transform="translate(269.808594 0)"/>
      <use xlink:href="#DejaVuSans-69" transform="translate(367.220703 0)"/>
      <use xlink:href="#DejaVuSans-74" transform="translate(395.003906 0)"/>
      <use xlink:href="#DejaVuSans-65" transform="translate(434.212891 0)"/>
      <use xlink:href="#DejaVuSans-64" transform="translate(495.736328 0)"/>
     </g>
    </g>
    <g id="line2d_39">
     <path d="M 117 79.616562 
L 127 79.616562 
L 137 79.616562 
" style="fill: none; stroke: #ff7f0e; stroke-width: 1.5; stroke-linecap: square"/>
    </g>
    <g id="text_21">
     <!-- Bharti Airtel -->
     <g transform="translate(145 83.116562) scale(0.1 -0.1)">
      <defs>
       <path id="DejaVuSans-42" d="M 1259 2228 
L 1259 519 
L 2272 519 
Q 2781 519 3026 730 
Q 3272 941 3272 1375 
Q 3272 1813 3026 2020 
Q 2781 2228 2272 2228 
L 1259 2228 
z
M 1259 4147 
L 1259 2741 
L 2194 2741 
Q 2656 2741 2882 2914 
Q 3109 3088 3109 3444 
Q 3109 3797 2882 3972 
Q 2656 4147 2194 4147 
L 1259 4147 
z
M 628 4666 
L 2241 4666 
Q 2963 4666 3353 4366 
Q 3744 4066 3744 3513 
Q 3744 3084 3544 2831 
Q 3344 2578 2956 2516 
Q 3422 2416 3680 2098 
Q 3938 1781 3938 1306 
Q 3938 681 3513 340 
Q 3088 0 2303 0 
L 628 0 
L 628 4666 
z
" transform="scale(0.015625)"/>
       <path id="DejaVuSans-68" d="M 3513 2113 
L 3513 0 
L 2938 0 
L 2938 2094 
Q 2938 2591 2744 2837 
Q 2550 3084 2163 3084 
Q 1697 3084 1428 2787 
Q 1159 2491 1159 1978 
L 1159 0 
L 581 0 
L 581 4863 
L 1159 4863 
L 1159 2956 
Q 1366 3272 1645 3428 
Q 1925 3584 2291 3584 
Q 2894 3584 3203 3211 
Q 3513 2838 3513 2113 
z
" transform="scale(0.015625)"/>
       <path id="DejaVuSans-41" d="M 2188 4044 
L 1331 1722 
L 3047 1722 
L 2188 4044 
z
M 1831 4666 
L 2547 4666 
L 4325 0 
L 3669 0 
L 3244 1197 
L 1141 1197 
L 716 0 
L 50 0 
L 1831 4666 
z
" transform="scale(0.015625)"/>
       <path id="DejaVuSans-6c" d="M 603 4863 
L 1178 4863 
L 1178 0 
L 603 0 
L 603 4863 
z
" transform="scale(0.015625)"/>
      </defs>
      <use xlink:href="#DejaVuSans-42"/>
      <use xlink:href="#DejaVuSans-68" transform="translate(68.603516 0)"/>
      <use xlink:href="#DejaVuSans-61" transform="translate(131.982422 0)"/>
      <use xlink:href="#DejaVuSans-72" transform="translate(193.261719 0)"/>
      <use xlink:href="#DejaVuSans-74" transform="translate(234.375 0)"/>
      <use xlink:href="#DejaVuSans-69" transform="translate(273.583984 0)"/>
      <use xlink:href="#DejaVuSans-20" transform="translate(301.367188 0)"/>
      <use xlink:href="#DejaVuSans-41" transform="translate(333.154297 0)"/>
      <use xlink:href="#DejaVuSans-69" transform="translate(401.5625 0)"/>
      <use xlink:href="#DejaVuSans-72" transform="translate(429.345703 0)"/>
      <use xlink:href="#DejaVuSans-74" transform="translate(470.458984 0)"/>
      <use xlink:href="#DejaVuSans-65" transform="translate(509.667969 0)"/>
      <use xlink:href="#DejaVuSans-6c" transform="translate(571.191406 0)"/>
     </g>
    </g>
    <g id="line2d_40">
     <path d="M 117 94.294687 
L 127 94.294687 
L 137 94.294687 
" style="fill: none; stroke: #2ca02c; stroke-width: 1.5; stroke-linecap: square"/>
    </g>
    <g id="text_22">
     <!-- Tata Motors -->
     <g transform="translate(145 97.794687) scale(0.1 -0.1)">
      <defs>
       <path id="DejaVuSans-4d" d="M 628 4666 
L 1569 4666 
L 2759 1491 
L 3956 4666 
L 4897 4666 
L 4897 0 
L 4281 0 
L 4281 4097 
L 3078 897 
L 2444 897 
L 1241 4097 
L 1241 0 
L 628 0 
L 628 4666 
z
" transform="scale(0.015625)"/>
      </defs>
      <use xlink:href="#DejaVuSans-54"/>
      <use xlink:href="#DejaVuSans-61" transform="translate(44.583984 0)"/>
      <use xlink:href="#DejaVuSans-74" transform="translate(105.863281 0)"/>
      <use xlink:href="#DejaVuSans-61" transform="translate(145.072266 0)"/>
      <use xlink:href="#DejaVuSans-20" transform="translate(206.351562 0)"/>
      <use xlink:href="#DejaVuSans-4d" transform="translate(238.138672 0)"/>
      <use xlink:href="#DejaVuSans-6f" transform="translate(324.417969 0)"/>
      <use xlink:href="#DejaVuSans-74" transform="translate(385.599609 0)"/>
      <use xlink:href="#DejaVuSans-6f" transform="translate(424.808594 0)"/>
      <use xlink:href="#DejaVuSans-72" transform="translate(485.990234 0)"/>
      <use xlink:href="#DejaVuSans-73" transform="translate(527.103516 0)"/>
     </g>
    </g>
    <g id="line2d_41">
     <path d="M 117 108.972812 
L 127 108.972812 
L 137 108.972812 
" style="fill: none; stroke: #d62728; stroke-width: 1.5; stroke-linecap: square"/>
    </g>
    <g id="text_23">
     <!-- DLF Limited -->
     <g transform="translate(145 112.472812) scale(0.1 -0.1)">
      <defs>
       <path id="DejaVuSans-46" d="M 628 4666 
L 3309 4666 
L 3309 4134 
L 1259 4134 
L 1259 2759 
L 3109 2759 
L 3109 2228 
L 1259 2228 
L 1259 0 
L 628 0 
L 628 4666 
z
" transform="scale(0.015625)"/>
      </defs>
      <use xlink:href="#DejaVuSans-44"/>
      <use xlink:href="#DejaVuSans-4c" transform="translate(77.001953 0)"/>
      <use xlink:href="#DejaVuSans-46" transform="translate(132.714844 0)"/>
      <use xlink:href="#DejaVuSans-20" transform="translate(190.234375 0)"/>
      <use xlink:href="#DejaVuSans-4c" transform="translate(222.021484 0)"/>
      <use xlink:href="#DejaVuSans-69" transform="translate(277.734375 0)"/>
      <use xlink:href="#DejaVuSans-6d" transform="translate(305.517578 0)"/>
      <use xlink:href="#DejaVuSans-69" transform="translate(402.929688 0)"/>
      <use xlink:href="#DejaVuSans-74" transform="translate(430.712891 0)"/>
      <use xlink:href="#DejaVuSans-65" transform="translate(469.921875 0)"/>
      <use xlink:href="#DejaVuSans-64" transform="translate(531.445312 0)"/>
     </g>
    </g>
    <g id="line2d_42">
     <path d="M 117 123.650937 
L 127 123.650937 
L 137 123.650937 
" style="fill: none; stroke: #9467bd; stroke-width: 1.5; stroke-linecap: square"/>
    </g>
    <g id="text_24">
     <!-- Yes Bank -->
     <g transform="translate(145 127.150937) scale(0.1 -0.1)">
      <defs>
       <path id="DejaVuSans-59" d="M -13 4666 
L 666 4666 
L 1959 2747 
L 3244 4666 
L 3922 4666 
L 2272 2222 
L 2272 0 
L 1638 0 
L 1638 2222 
L -13 4666 
z
" transform="scale(0.015625)"/>
       <path id="DejaVuSans-6e" d="M 3513 2113 
L 3513 0 
L 2938 0 
L 2938 2094 
Q 2938 2591 2744 2837 
Q 2550 3084 2163 3084 
Q 1697 3084 1428 2787 
Q 1159 2491 1159 1978 
L 1159 0 
L 581 0 
L 581 3500 
L 1159 3500 
L 1159 2956 
Q 1366 3272 1645 3428 
Q 1925 3584 2291 3584 
Q 2894 3584 3203 3211 
Q 3513 2838 3513 2113 
z
" transform="scale(0.015625)"/>
      </defs>
      <use xlink:href="#DejaVuSans-59"/>
      <use xlink:href="#DejaVuSans-65" transform="translate(47.833984 0)"/>
      <use xlink:href="#DejaVuSans-73" transform="translate(109.357422 0)"/>
      <use xlink:href="#DejaVuSans-20" transform="translate(161.457031 0)"/>
      <use xlink:href="#DejaVuSans-42" transform="translate(193.244141 0)"/>
      <use xlink:href="#DejaVuSans-61" transform="translate(261.847656 0)"/>
      <use xlink:href="#DejaVuSans-6e" transform="translate(323.126953 0)"/>
      <use xlink:href="#DejaVuSans-6b" transform="translate(386.505859 0)"/>
     </g>
    </g>
   </g>
  </g>
 </g>
 <defs>
  <clipPath id="p780e0a731a">
   <rect x="108" y="51.84" width="669.6" height="332.64"/>
  </clipPath>
 </defs>
</svg>
