<?xml version="1.0" encoding="utf-8" standalone="no"?>
<!DOCTYPE svg PUBLIC "-//W3C//DTD SVG 1.1//EN"
  "http://www.w3.org/Graphics/SVG/1.1/DTD/svg11.dtd">
<svg xmlns:xlink="http://www.w3.org/1999/xlink" width="1440pt" height="1440pt" viewBox="0 0 1440 1440" xmlns="http://www.w3.org/2000/svg" version="1.1">
 <metadata>
  <rdf:RDF xmlns:dc="http://purl.org/dc/elements/1.1/" xmlns:cc="http://creativecommons.org/ns#" xmlns:rdf="http://www.w3.org/1999/02/22-rdf-syntax-ns#">
   <cc:Work>
    <dc:type rdf:resource="http://purl.org/dc/dcmitype/StillImage"/>
    <dc:date>2025-01-01T18:58:21.469364</dc:date>
    <dc:format>image/svg+xml</dc:format>
    <dc:creator>
     <cc:Agent>
      <dc:title>Matplotlib v3.10.0, https://matplotlib.org/</dc:title>
     </cc:Agent>
    </dc:creator>
   </cc:Work>
  </rdf:RDF>
 </metadata>
 <defs>
  <style type="text/css">*{stroke-linejoin: round; stroke-linecap: butt}</style>
 </defs>
 <g id="figure_1">
  <g id="patch_1">
   <path d="M 0 1440 
L 1440 1440 
L 1440 0 
L 0 0 
z
" style="fill: #ffffff"/>
  </g>
  <g id="axes_1">
   <g id="patch_2">
    <path d="M 111.71 1398.04 
L 720.640844 1398.04 
L 720.640844 50.64 
L 111.71 50.64 
z
" style="fill: #ffffff"/>
   </g>
   <g id="patch_3">
    <path d="M 111.71 64.114 
L 691.644137 64.114 
L 691.644137 171.906 
L 111.71 171.906 
z
" clip-path="url(#pfd5ba0d4e8)" style="fill: #3274a1"/>
   </g>
   <g id="patch_4">
    <path d="M 111.71 198.854 
L 677.927183 198.854 
L 677.927183 306.646 
L 111.71 306.646 
z
" clip-path="url(#pfd5ba0d4e8)" style="fill: #3274a1"/>
   </g>
   <g id="patch_5">
    <path d="M 111.71 333.594 
L 666.997273 333.594 
L 666.997273 441.386 
L 111.71 441.386 
z
" clip-path="url(#pfd5ba0d4e8)" style="fill: #3274a1"/>
   </g>
   <g id="patch_6">
    <path d="M 111.71 468.334 
L 660.956875 468.334 
L 660.956875 576.126 
L 111.71 576.126 
z
" clip-path="url(#pfd5ba0d4e8)" style="fill: #3274a1"/>
   </g>
   <g id="patch_7">
    <path d="M 111.71 603.074 
L 660.708624 603.074 
L 660.708624 710.866 
L 111.71 710.866 
z
" clip-path="url(#pfd5ba0d4e8)" style="fill: #3274a1"/>
   </g>
   <g id="patch_8">
    <path d="M 111.71 737.814 
L 657.648431 737.814 
L 657.648431 845.606 
L 111.71 845.606 
z
" clip-path="url(#pfd5ba0d4e8)" style="fill: #3274a1"/>
   </g>
   <g id="patch_9">
    <path d="M 111.71 872.554 
L 651.585478 872.554 
L 651.585478 980.346 
L 111.71 980.346 
z
" clip-path="url(#pfd5ba0d4e8)" style="fill: #3274a1"/>
   </g>
   <g id="patch_10">
    <path d="M 111.71 1007.294 
L 647.702478 1007.294 
L 647.702478 1115.086 
L 111.71 1115.086 
z
" clip-path="url(#pfd5ba0d4e8)" style="fill: #3274a1"/>
   </g>
   <g id="patch_11">
    <path d="M 111.71 1142.034 
L 646.15499 1142.034 
L 646.15499 1249.826 
L 111.71 1249.826 
z
" clip-path="url(#pfd5ba0d4e8)" style="fill: #3274a1"/>
   </g>
   <g id="patch_12">
    <path d="M 111.71 1276.774 
L 645.524164 1276.774 
L 645.524164 1384.566 
L 111.71 1384.566 
z
" clip-path="url(#pfd5ba0d4e8)" style="fill: #3274a1"/>
   </g>
   <g id="matplotlib.axis_1">
    <g id="xtick_1">
     <g id="line2d_1">
      <defs>
       <path id="m51f1fa849a" d="M 0 0 
L 0 3.5 
" style="stroke: #000000; stroke-width: 0.8"/>
      </defs>
      <g>
       <use xlink:href="#m51f1fa849a" x="111.71" y="1398.04" style="stroke: #000000; stroke-width: 0.8"/>
      </g>
     </g>
     <g id="text_1">
      <!-- 0.0 -->
      <g transform="translate(103.758438 1412.638438) scale(0.1 -0.1)">
       <defs>
        <path id="DejaVuSans-30" d="M 2034 4250 
Q 1547 4250 1301 3770 
Q 1056 3291 1056 2328 
Q 1056 1369 1301 889 
Q 1547 409 2034 409 
Q 2525 409 2770 889 
Q 3016 1369 3016 2328 
Q 3016 3291 2770 3770 
Q 2525 4250 2034 4250 
z
M 2034 4750 
Q 2819 4750 3233 4129 
Q 3647 3509 3647 2328 
Q 3647 1150 3233 529 
Q 2819 -91 2034 -91 
Q 1250 -91 836 529 
Q 422 1150 422 2328 
Q 422 3509 836 4129 
Q 1250 4750 2034 4750 
z
" transform="scale(0.015625)"/>
        <path id="DejaVuSans-2e" d="M 684 794 
L 1344 794 
L 1344 0 
L 684 0 
L 684 794 
z
" transform="scale(0.015625)"/>
       </defs>
       <use xlink:href="#DejaVuSans-30"/>
       <use xlink:href="#DejaVuSans-2e" transform="translate(63.623047 0)"/>
       <use xlink:href="#DejaVuSans-30" transform="translate(95.410156 0)"/>
      </g>
     </g>
    </g>
    <g id="xtick_2">
     <g id="line2d_2">
      <g>
       <use xlink:href="#m51f1fa849a" x="205.884379" y="1398.04" style="stroke: #000000; stroke-width: 0.8"/>
      </g>
     </g>
     <g id="text_2">
      <!-- 0.2 -->
      <g transform="translate(197.932817 1412.638438) scale(0.1 -0.1)">
       <defs>
        <path id="DejaVuSans-32" d="M 1228 531 
L 3431 531 
L 3431 0 
L 469 0 
L 469 531 
Q 828 903 1448 1529 
Q 2069 2156 2228 2338 
Q 2531 2678 2651 2914 
Q 2772 3150 2772 3378 
Q 2772 3750 2511 3984 
Q 2250 4219 1831 4219 
Q 1534 4219 1204 4116 
Q 875 4013 500 3803 
L 500 4441 
Q 881 4594 1212 4672 
Q 1544 4750 1819 4750 
Q 2544 4750 2975 4387 
Q 3406 4025 3406 3419 
Q 3406 3131 3298 2873 
Q 3191 2616 2906 2266 
Q 2828 2175 2409 1742 
Q 1991 1309 1228 531 
z
" transform="scale(0.015625)"/>
       </defs>
       <use xlink:href="#DejaVuSans-30"/>
       <use xlink:href="#DejaVuSans-2e" transform="translate(63.623047 0)"/>
       <use xlink:href="#DejaVuSans-32" transform="translate(95.410156 0)"/>
      </g>
     </g>
    </g>
    <g id="xtick_3">
     <g id="line2d_3">
      <g>
       <use xlink:href="#m51f1fa849a" x="300.058759" y="1398.04" style="stroke: #000000; stroke-width: 0.8"/>
      </g>
     </g>
     <g id="text_3">
      <!-- 0.4 -->
      <g transform="translate(292.107196 1412.638438) scale(0.1 -0.1)">
       <defs>
        <path id="DejaVuSans-34" d="M 2419 4116 
L 825 1625 
L 2419 1625 
L 2419 4116 
z
M 2253 4666 
L 3047 4666 
L 3047 1625 
L 3713 1625 
L 3713 1100 
L 3047 1100 
L 3047 0 
L 2419 0 
L 2419 1100 
L 313 1100 
L 313 1709 
L 2253 4666 
z
" transform="scale(0.015625)"/>
       </defs>
       <use xlink:href="#DejaVuSans-30"/>
       <use xlink:href="#DejaVuSans-2e" transform="translate(63.623047 0)"/>
       <use xlink:href="#DejaVuSans-34" transform="translate(95.410156 0)"/>
      </g>
     </g>
    </g>
    <g id="xtick_4">
     <g id="line2d_4">
      <g>
       <use xlink:href="#m51f1fa849a" x="394.233138" y="1398.04" style="stroke: #000000; stroke-width: 0.8"/>
      </g>
     </g>
     <g id="text_4">
      <!-- 0.6 -->
      <g transform="translate(386.281575 1412.638438) scale(0.1 -0.1)">
       <defs>
        <path id="DejaVuSans-36" d="M 2113 2584 
Q 1688 2584 1439 2293 
Q 1191 2003 1191 1497 
Q 1191 994 1439 701 
Q 1688 409 2113 409 
Q 2538 409 2786 701 
Q 3034 994 3034 1497 
Q 3034 2003 2786 2293 
Q 2538 2584 2113 2584 
z
M 3366 4563 
L 3366 3988 
Q 3128 4100 2886 4159 
Q 2644 4219 2406 4219 
Q 1781 4219 1451 3797 
Q 1122 3375 1075 2522 
Q 1259 2794 1537 2939 
Q 1816 3084 2150 3084 
Q 2853 3084 3261 2657 
Q 3669 2231 3669 1497 
Q 3669 778 3244 343 
Q 2819 -91 2113 -91 
Q 1303 -91 875 529 
Q 447 1150 447 2328 
Q 447 3434 972 4092 
Q 1497 4750 2381 4750 
Q 2619 4750 2861 4703 
Q 3103 4656 3366 4563 
z
" transform="scale(0.015625)"/>
       </defs>
       <use xlink:href="#DejaVuSans-30"/>
       <use xlink:href="#DejaVuSans-2e" transform="translate(63.623047 0)"/>
       <use xlink:href="#DejaVuSans-36" transform="translate(95.410156 0)"/>
      </g>
     </g>
    </g>
    <g id="xtick_5">
     <g id="line2d_5">
      <g>
       <use xlink:href="#m51f1fa849a" x="488.407517" y="1398.04" style="stroke: #000000; stroke-width: 0.8"/>
      </g>
     </g>
     <g id="text_5">
      <!-- 0.8 -->
      <g transform="translate(480.455955 1412.638438) scale(0.1 -0.1)">
       <defs>
        <path id="DejaVuSans-38" d="M 2034 2216 
Q 1584 2216 1326 1975 
Q 1069 1734 1069 1313 
Q 1069 891 1326 650 
Q 1584 409 2034 409 
Q 2484 409 2743 651 
Q 3003 894 3003 1313 
Q 3003 1734 2745 1975 
Q 2488 2216 2034 2216 
z
M 1403 2484 
Q 997 2584 770 2862 
Q 544 3141 544 3541 
Q 544 4100 942 4425 
Q 1341 4750 2034 4750 
Q 2731 4750 3128 4425 
Q 3525 4100 3525 3541 
Q 3525 3141 3298 2862 
Q 3072 2584 2669 2484 
Q 3125 2378 3379 2068 
Q 3634 1759 3634 1313 
Q 3634 634 3220 271 
Q 2806 -91 2034 -91 
Q 1263 -91 848 271 
Q 434 634 434 1313 
Q 434 1759 690 2068 
Q 947 2378 1403 2484 
z
M 1172 3481 
Q 1172 3119 1398 2916 
Q 1625 2713 2034 2713 
Q 2441 2713 2670 2916 
Q 2900 3119 2900 3481 
Q 2900 3844 2670 4047 
Q 2441 4250 2034 4250 
Q 1625 4250 1398 4047 
Q 1172 3844 1172 3481 
z
" transform="scale(0.015625)"/>
       </defs>
       <use xlink:href="#DejaVuSans-30"/>
       <use xlink:href="#DejaVuSans-2e" transform="translate(63.623047 0)"/>
       <use xlink:href="#DejaVuSans-38" transform="translate(95.410156 0)"/>
      </g>
     </g>
    </g>
    <g id="xtick_6">
     <g id="line2d_6">
      <g>
       <use xlink:href="#m51f1fa849a" x="582.581897" y="1398.04" style="stroke: #000000; stroke-width: 0.8"/>
      </g>
     </g>
     <g id="text_6">
      <!-- 1.0 -->
      <g transform="translate(574.630334 1412.638438) scale(0.1 -0.1)">
       <defs>
        <path id="DejaVuSans-31" d="M 794 531 
L 1825 531 
L 1825 4091 
L 703 3866 
L 703 4441 
L 1819 4666 
L 2450 4666 
L 2450 531 
L 3481 531 
L 3481 0 
L 794 0 
L 794 531 
z
" transform="scale(0.015625)"/>
       </defs>
       <use xlink:href="#DejaVuSans-31"/>
       <use xlink:href="#DejaVuSans-2e" transform="translate(63.623047 0)"/>
       <use xlink:href="#DejaVuSans-30" transform="translate(95.410156 0)"/>
      </g>
     </g>
    </g>
    <g id="xtick_7">
     <g id="line2d_7">
      <g>
       <use xlink:href="#m51f1fa849a" x="676.756276" y="1398.04" style="stroke: #000000; stroke-width: 0.8"/>
      </g>
     </g>
     <g id="text_7">
      <!-- 1.2 -->
      <g transform="translate(668.804713 1412.638438) scale(0.1 -0.1)">
       <use xlink:href="#DejaVuSans-31"/>
       <use xlink:href="#DejaVuSans-2e" transform="translate(63.623047 0)"/>
       <use xlink:href="#DejaVuSans-32" transform="translate(95.410156 0)"/>
      </g>
     </g>
    </g>
    <g id="text_8">
     <!-- Child Gender Ratio -->
     <g transform="translate(369.124641 1426.316562) scale(0.1 -0.1)">
      <defs>
       <path id="DejaVuSans-43" d="M 4122 4306 
L 4122 3641 
Q 3803 3938 3442 4084 
Q 3081 4231 2675 4231 
Q 1875 4231 1450 3742 
Q 1025 3253 1025 2328 
Q 1025 1406 1450 917 
Q 1875 428 2675 428 
Q 3081 428 3442 575 
Q 3803 722 4122 1019 
L 4122 359 
Q 3791 134 3420 21 
Q 3050 -91 2638 -91 
Q 1578 -91 968 557 
Q 359 1206 359 2328 
Q 359 3453 968 4101 
Q 1578 4750 2638 4750 
Q 3056 4750 3426 4639 
Q 3797 4528 4122 4306 
z
" transform="scale(0.015625)"/>
       <path id="DejaVuSans-68" d="M 3513 2113 
L 3513 0 
L 2938 0 
L 2938 2094 
Q 2938 2591 2744 2837 
Q 2550 3084 2163 3084 
Q 1697 3084 1428 2787 
Q 1159 2491 1159 1978 
L 1159 0 
L 581 0 
L 581 4863 
L 1159 4863 
L 1159 2956 
Q 1366 3272 1645 3428 
Q 1925 3584 2291 3584 
Q 2894 3584 3203 3211 
Q 3513 2838 3513 2113 
z
" transform="scale(0.015625)"/>
       <path id="DejaVuSans-69" d="M 603 3500 
L 1178 3500 
L 1178 0 
L 603 0 
L 603 3500 
z
M 603 4863 
L 1178 4863 
L 1178 4134 
L 603 4134 
L 603 4863 
z
" transform="scale(0.015625)"/>
       <path id="DejaVuSans-6c" d="M 603 4863 
L 1178 4863 
L 1178 0 
L 603 0 
L 603 4863 
z
" transform="scale(0.015625)"/>
       <path id="DejaVuSans-64" d="M 2906 2969 
L 2906 4863 
L 3481 4863 
L 3481 0 
L 2906 0 
L 2906 525 
Q 2725 213 2448 61 
Q 2172 -91 1784 -91 
Q 1150 -91 751 415 
Q 353 922 353 1747 
Q 353 2572 751 3078 
Q 1150 3584 1784 3584 
Q 2172 3584 2448 3432 
Q 2725 3281 2906 2969 
z
M 947 1747 
Q 947 1113 1208 752 
Q 1469 391 1925 391 
Q 2381 391 2643 752 
Q 2906 1113 2906 1747 
Q 2906 2381 2643 2742 
Q 2381 3103 1925 3103 
Q 1469 3103 1208 2742 
Q 947 2381 947 1747 
z
" transform="scale(0.015625)"/>
       <path id="DejaVuSans-20" transform="scale(0.015625)"/>
       <path id="DejaVuSans-47" d="M 3809 666 
L 3809 1919 
L 2778 1919 
L 2778 2438 
L 4434 2438 
L 4434 434 
Q 4069 175 3628 42 
Q 3188 -91 2688 -91 
Q 1594 -91 976 548 
Q 359 1188 359 2328 
Q 359 3472 976 4111 
Q 1594 4750 2688 4750 
Q 3144 4750 3555 4637 
Q 3966 4525 4313 4306 
L 4313 3634 
Q 3963 3931 3569 4081 
Q 3175 4231 2741 4231 
Q 1884 4231 1454 3753 
Q 1025 3275 1025 2328 
Q 1025 1384 1454 906 
Q 1884 428 2741 428 
Q 3075 428 3337 486 
Q 3600 544 3809 666 
z
" transform="scale(0.015625)"/>
       <path id="DejaVuSans-65" d="M 3597 1894 
L 3597 1613 
L 953 1613 
Q 991 1019 1311 708 
Q 1631 397 2203 397 
Q 2534 397 2845 478 
Q 3156 559 3463 722 
L 3463 178 
Q 3153 47 2828 -22 
Q 2503 -91 2169 -91 
Q 1331 -91 842 396 
Q 353 884 353 1716 
Q 353 2575 817 3079 
Q 1281 3584 2069 3584 
Q 2775 3584 3186 3129 
Q 3597 2675 3597 1894 
z
M 3022 2063 
Q 3016 2534 2758 2815 
Q 2500 3097 2075 3097 
Q 1594 3097 1305 2825 
Q 1016 2553 972 2059 
L 3022 2063 
z
" transform="scale(0.015625)"/>
       <path id="DejaVuSans-6e" d="M 3513 2113 
L 3513 0 
L 2938 0 
L 2938 2094 
Q 2938 2591 2744 2837 
Q 2550 3084 2163 3084 
Q 1697 3084 1428 2787 
Q 1159 2491 1159 1978 
L 1159 0 
L 581 0 
L 581 3500 
L 1159 3500 
L 1159 2956 
Q 1366 3272 1645 3428 
Q 1925 3584 2291 3584 
Q 2894 3584 3203 3211 
Q 3513 2838 3513 2113 
z
" transform="scale(0.015625)"/>
       <path id="DejaVuSans-72" d="M 2631 2963 
Q 2534 3019 2420 3045 
Q 2306 3072 2169 3072 
Q 1681 3072 1420 2755 
Q 1159 2438 1159 1844 
L 1159 0 
L 581 0 
L 581 3500 
L 1159 3500 
L 1159 2956 
Q 1341 3275 1631 3429 
Q 1922 3584 2338 3584 
Q 2397 3584 2469 3576 
Q 2541 3569 2628 3553 
L 2631 2963 
z
" transform="scale(0.015625)"/>
       <path id="DejaVuSans-52" d="M 2841 2188 
Q 3044 2119 3236 1894 
Q 3428 1669 3622 1275 
L 4263 0 
L 3584 0 
L 2988 1197 
Q 2756 1666 2539 1819 
Q 2322 1972 1947 1972 
L 1259 1972 
L 1259 0 
L 628 0 
L 628 4666 
L 2053 4666 
Q 2853 4666 3247 4331 
Q 3641 3997 3641 3322 
Q 3641 2881 3436 2590 
Q 3231 2300 2841 2188 
z
M 1259 4147 
L 1259 2491 
L 2053 2491 
Q 2509 2491 2742 2702 
Q 2975 2913 2975 3322 
Q 2975 3731 2742 3939 
Q 2509 4147 2053 4147 
L 1259 4147 
z
" transform="scale(0.015625)"/>
       <path id="DejaVuSans-61" d="M 2194 1759 
Q 1497 1759 1228 1600 
Q 959 1441 959 1056 
Q 959 750 1161 570 
Q 1363 391 1709 391 
Q 2188 391 2477 730 
Q 2766 1069 2766 1631 
L 2766 1759 
L 2194 1759 
z
M 3341 1997 
L 3341 0 
L 2766 0 
L 2766 531 
Q 2569 213 2275 61 
Q 1981 -91 1556 -91 
Q 1019 -91 701 211 
Q 384 513 384 1019 
Q 384 1609 779 1909 
Q 1175 2209 1959 2209 
L 2766 2209 
L 2766 2266 
Q 2766 2663 2505 2880 
Q 2244 3097 1772 3097 
Q 1472 3097 1187 3025 
Q 903 2953 641 2809 
L 641 3341 
Q 956 3463 1253 3523 
Q 1550 3584 1831 3584 
Q 2591 3584 2966 3190 
Q 3341 2797 3341 1997 
z
" transform="scale(0.015625)"/>
       <path id="DejaVuSans-74" d="M 1172 4494 
L 1172 3500 
L 2356 3500 
L 2356 3053 
L 1172 3053 
L 1172 1153 
Q 1172 725 1289 603 
Q 1406 481 1766 481 
L 2356 481 
L 2356 0 
L 1766 0 
Q 1100 0 847 248 
Q 594 497 594 1153 
L 594 3053 
L 172 3053 
L 172 3500 
L 594 3500 
L 594 4494 
L 1172 4494 
z
" transform="scale(0.015625)"/>
       <path id="DejaVuSans-6f" d="M 1959 3097 
Q 1497 3097 1228 2736 
Q 959 2375 959 1747 
Q 959 1119 1226 758 
Q 1494 397 1959 397 
Q 2419 397 2687 759 
Q 2956 1122 2956 1747 
Q 2956 2369 2687 2733 
Q 2419 3097 1959 3097 
z
M 1959 3584 
Q 2709 3584 3137 3096 
Q 3566 2609 3566 1747 
Q 3566 888 3137 398 
Q 2709 -91 1959 -91 
Q 1206 -91 779 398 
Q 353 888 353 1747 
Q 353 2609 779 3096 
Q 1206 3584 1959 3584 
z
" transform="scale(0.015625)"/>
      </defs>
      <use xlink:href="#DejaVuSans-43"/>
      <use xlink:href="#DejaVuSans-68" transform="translate(69.824219 0)"/>
      <use xlink:href="#DejaVuSans-69" transform="translate(133.203125 0)"/>
      <use xlink:href="#DejaVuSans-6c" transform="translate(160.986328 0)"/>
      <use xlink:href="#DejaVuSans-64" transform="translate(188.769531 0)"/>
      <use xlink:href="#DejaVuSans-20" transform="translate(252.246094 0)"/>
      <use xlink:href="#DejaVuSans-47" transform="translate(284.033203 0)"/>
      <use xlink:href="#DejaVuSans-65" transform="translate(361.523438 0)"/>
      <use xlink:href="#DejaVuSans-6e" transform="translate(423.046875 0)"/>
      <use xlink:href="#DejaVuSans-64" transform="translate(486.425781 0)"/>
      <use xlink:href="#DejaVuSans-65" transform="translate(549.902344 0)"/>
      <use xlink:href="#DejaVuSans-72" transform="translate(611.425781 0)"/>
      <use xlink:href="#DejaVuSans-20" transform="translate(652.539062 0)"/>
      <use xlink:href="#DejaVuSans-52" transform="translate(684.326172 0)"/>
      <use xlink:href="#DejaVuSans-61" transform="translate(751.558594 0)"/>
      <use xlink:href="#DejaVuSans-74" transform="translate(812.837891 0)"/>
      <use xlink:href="#DejaVuSans-69" transform="translate(852.046875 0)"/>
      <use xlink:href="#DejaVuSans-6f" transform="translate(879.830078 0)"/>
     </g>
    </g>
   </g>
   <g id="matplotlib.axis_2">
    <g id="ytick_1">
     <g id="line2d_8">
      <defs>
       <path id="m1c6250d549" d="M 0 0 
L -3.5 0 
" style="stroke: #000000; stroke-width: 0.8"/>
      </defs>
      <g>
       <use xlink:href="#m1c6250d549" x="111.71" y="118.01" style="stroke: #000000; stroke-width: 0.8"/>
      </g>
     </g>
     <g id="text_9">
      <!-- East Kameng -->
      <g transform="translate(38.864688 121.809219) scale(0.1 -0.1)">
       <defs>
        <path id="DejaVuSans-45" d="M 628 4666 
L 3578 4666 
L 3578 4134 
L 1259 4134 
L 1259 2753 
L 3481 2753 
L 3481 2222 
L 1259 2222 
L 1259 531 
L 3634 531 
L 3634 0 
L 628 0 
L 628 4666 
z
" transform="scale(0.015625)"/>
        <path id="DejaVuSans-73" d="M 2834 3397 
L 2834 2853 
Q 2591 2978 2328 3040 
Q 2066 3103 1784 3103 
Q 1356 3103 1142 2972 
Q 928 2841 928 2578 
Q 928 2378 1081 2264 
Q 1234 2150 1697 2047 
L 1894 2003 
Q 2506 1872 2764 1633 
Q 3022 1394 3022 966 
Q 3022 478 2636 193 
Q 2250 -91 1575 -91 
Q 1294 -91 989 -36 
Q 684 19 347 128 
L 347 722 
Q 666 556 975 473 
Q 1284 391 1588 391 
Q 1994 391 2212 530 
Q 2431 669 2431 922 
Q 2431 1156 2273 1281 
Q 2116 1406 1581 1522 
L 1381 1569 
Q 847 1681 609 1914 
Q 372 2147 372 2553 
Q 372 3047 722 3315 
Q 1072 3584 1716 3584 
Q 2034 3584 2315 3537 
Q 2597 3491 2834 3397 
z
" transform="scale(0.015625)"/>
        <path id="DejaVuSans-4b" d="M 628 4666 
L 1259 4666 
L 1259 2694 
L 3353 4666 
L 4166 4666 
L 1850 2491 
L 4331 0 
L 3500 0 
L 1259 2247 
L 1259 0 
L 628 0 
L 628 4666 
z
" transform="scale(0.015625)"/>
        <path id="DejaVuSans-6d" d="M 3328 2828 
Q 3544 3216 3844 3400 
Q 4144 3584 4550 3584 
Q 5097 3584 5394 3201 
Q 5691 2819 5691 2113 
L 5691 0 
L 5113 0 
L 5113 2094 
Q 5113 2597 4934 2840 
Q 4756 3084 4391 3084 
Q 3944 3084 3684 2787 
Q 3425 2491 3425 1978 
L 3425 0 
L 2847 0 
L 2847 2094 
Q 2847 2600 2669 2842 
Q 2491 3084 2119 3084 
Q 1678 3084 1418 2786 
Q 1159 2488 1159 1978 
L 1159 0 
L 581 0 
L 581 3500 
L 1159 3500 
L 1159 2956 
Q 1356 3278 1631 3431 
Q 1906 3584 2284 3584 
Q 2666 3584 2933 3390 
Q 3200 3197 3328 2828 
z
" transform="scale(0.015625)"/>
        <path id="DejaVuSans-67" d="M 2906 1791 
Q 2906 2416 2648 2759 
Q 2391 3103 1925 3103 
Q 1463 3103 1205 2759 
Q 947 2416 947 1791 
Q 947 1169 1205 825 
Q 1463 481 1925 481 
Q 2391 481 2648 825 
Q 2906 1169 2906 1791 
z
M 3481 434 
Q 3481 -459 3084 -895 
Q 2688 -1331 1869 -1331 
Q 1566 -1331 1297 -1286 
Q 1028 -1241 775 -1147 
L 775 -588 
Q 1028 -725 1275 -790 
Q 1522 -856 1778 -856 
Q 2344 -856 2625 -561 
Q 2906 -266 2906 331 
L 2906 616 
Q 2728 306 2450 153 
Q 2172 0 1784 0 
Q 1141 0 747 490 
Q 353 981 353 1791 
Q 353 2603 747 3093 
Q 1141 3584 1784 3584 
Q 2172 3584 2450 3431 
Q 2728 3278 2906 2969 
L 2906 3500 
L 3481 3500 
L 3481 434 
z
" transform="scale(0.015625)"/>
       </defs>
       <use xlink:href="#DejaVuSans-45"/>
       <use xlink:href="#DejaVuSans-61" transform="translate(63.183594 0)"/>
       <use xlink:href="#DejaVuSans-73" transform="translate(124.462891 0)"/>
       <use xlink:href="#DejaVuSans-74" transform="translate(176.5625 0)"/>
       <use xlink:href="#DejaVuSans-20" transform="translate(215.771484 0)"/>
       <use xlink:href="#DejaVuSans-4b" transform="translate(247.558594 0)"/>
       <use xlink:href="#DejaVuSans-61" transform="translate(311.384766 0)"/>
       <use xlink:href="#DejaVuSans-6d" transform="translate(372.664062 0)"/>
       <use xlink:href="#DejaVuSans-65" transform="translate(470.076172 0)"/>
       <use xlink:href="#DejaVuSans-6e" transform="translate(531.599609 0)"/>
       <use xlink:href="#DejaVuSans-67" transform="translate(594.978516 0)"/>
      </g>
     </g>
    </g>
    <g id="ytick_2">
     <g id="line2d_9">
      <g>
       <use xlink:href="#m1c6250d549" x="111.71" y="252.75" style="stroke: #000000; stroke-width: 0.8"/>
      </g>
     </g>
     <g id="text_10">
      <!-- Kargil -->
      <g transform="translate(76.358438 256.549219) scale(0.1 -0.1)">
       <use xlink:href="#DejaVuSans-4b"/>
       <use xlink:href="#DejaVuSans-61" transform="translate(63.826172 0)"/>
       <use xlink:href="#DejaVuSans-72" transform="translate(125.105469 0)"/>
       <use xlink:href="#DejaVuSans-67" transform="translate(164.46875 0)"/>
       <use xlink:href="#DejaVuSans-69" transform="translate(227.945312 0)"/>
       <use xlink:href="#DejaVuSans-6c" transform="translate(255.728516 0)"/>
      </g>
     </g>
    </g>
    <g id="ytick_3">
     <g id="line2d_10">
      <g>
       <use xlink:href="#m1c6250d549" x="111.71" y="387.49" style="stroke: #000000; stroke-width: 0.8"/>
      </g>
     </g>
     <g id="text_11">
      <!-- Papum Pare -->
      <g transform="translate(45.650625 391.289219) scale(0.1 -0.1)">
       <defs>
        <path id="DejaVuSans-50" d="M 1259 4147 
L 1259 2394 
L 2053 2394 
Q 2494 2394 2734 2622 
Q 2975 2850 2975 3272 
Q 2975 3691 2734 3919 
Q 2494 4147 2053 4147 
L 1259 4147 
z
M 628 4666 
L 2053 4666 
Q 2838 4666 3239 4311 
Q 3641 3956 3641 3272 
Q 3641 2581 3239 2228 
Q 2838 1875 2053 1875 
L 1259 1875 
L 1259 0 
L 628 0 
L 628 4666 
z
" transform="scale(0.015625)"/>
        <path id="DejaVuSans-70" d="M 1159 525 
L 1159 -1331 
L 581 -1331 
L 581 3500 
L 1159 3500 
L 1159 2969 
Q 1341 3281 1617 3432 
Q 1894 3584 2278 3584 
Q 2916 3584 3314 3078 
Q 3713 2572 3713 1747 
Q 3713 922 3314 415 
Q 2916 -91 2278 -91 
Q 1894 -91 1617 61 
Q 1341 213 1159 525 
z
M 3116 1747 
Q 3116 2381 2855 2742 
Q 2594 3103 2138 3103 
Q 1681 3103 1420 2742 
Q 1159 2381 1159 1747 
Q 1159 1113 1420 752 
Q 1681 391 2138 391 
Q 2594 391 2855 752 
Q 3116 1113 3116 1747 
z
" transform="scale(0.015625)"/>
        <path id="DejaVuSans-75" d="M 544 1381 
L 544 3500 
L 1119 3500 
L 1119 1403 
Q 1119 906 1312 657 
Q 1506 409 1894 409 
Q 2359 409 2629 706 
Q 2900 1003 2900 1516 
L 2900 3500 
L 3475 3500 
L 3475 0 
L 2900 0 
L 2900 538 
Q 2691 219 2414 64 
Q 2138 -91 1772 -91 
Q 1169 -91 856 284 
Q 544 659 544 1381 
z
M 1991 3584 
L 1991 3584 
z
" transform="scale(0.015625)"/>
       </defs>
       <use xlink:href="#DejaVuSans-50"/>
       <use xlink:href="#DejaVuSans-61" transform="translate(55.802734 0)"/>
       <use xlink:href="#DejaVuSans-70" transform="translate(117.082031 0)"/>
       <use xlink:href="#DejaVuSans-75" transform="translate(180.558594 0)"/>
       <use xlink:href="#DejaVuSans-6d" transform="translate(243.9375 0)"/>
       <use xlink:href="#DejaVuSans-20" transform="translate(341.349609 0)"/>
       <use xlink:href="#DejaVuSans-50" transform="translate(373.136719 0)"/>
       <use xlink:href="#DejaVuSans-61" transform="translate(428.939453 0)"/>
       <use xlink:href="#DejaVuSans-72" transform="translate(490.21875 0)"/>
       <use xlink:href="#DejaVuSans-65" transform="translate(529.082031 0)"/>
      </g>
     </g>
    </g>
    <g id="ytick_4">
     <g id="line2d_11">
      <g>
       <use xlink:href="#m1c6250d549" x="111.71" y="522.23" style="stroke: #000000; stroke-width: 0.8"/>
      </g>
     </g>
     <g id="text_12">
      <!-- Changlang -->
      <g transform="translate(50.983438 526.029219) scale(0.1 -0.1)">
       <use xlink:href="#DejaVuSans-43"/>
       <use xlink:href="#DejaVuSans-68" transform="translate(69.824219 0)"/>
       <use xlink:href="#DejaVuSans-61" transform="translate(133.203125 0)"/>
       <use xlink:href="#DejaVuSans-6e" transform="translate(194.482422 0)"/>
       <use xlink:href="#DejaVuSans-67" transform="translate(257.861328 0)"/>
       <use xlink:href="#DejaVuSans-6c" transform="translate(321.337891 0)"/>
       <use xlink:href="#DejaVuSans-61" transform="translate(349.121094 0)"/>
       <use xlink:href="#DejaVuSans-6e" transform="translate(410.400391 0)"/>
       <use xlink:href="#DejaVuSans-67" transform="translate(473.779297 0)"/>
      </g>
     </g>
    </g>
    <g id="ytick_5">
     <g id="line2d_12">
      <g>
       <use xlink:href="#m1c6250d549" x="111.71" y="656.97" style="stroke: #000000; stroke-width: 0.8"/>
      </g>
     </g>
     <g id="text_13">
      <!-- Lower Subansiri -->
      <g transform="translate(25.1975 660.769219) scale(0.1 -0.1)">
       <defs>
        <path id="DejaVuSans-4c" d="M 628 4666 
L 1259 4666 
L 1259 531 
L 3531 531 
L 3531 0 
L 628 0 
L 628 4666 
z
" transform="scale(0.015625)"/>
        <path id="DejaVuSans-77" d="M 269 3500 
L 844 3500 
L 1563 769 
L 2278 3500 
L 2956 3500 
L 3675 769 
L 4391 3500 
L 4966 3500 
L 4050 0 
L 3372 0 
L 2619 2869 
L 1863 0 
L 1184 0 
L 269 3500 
z
" transform="scale(0.015625)"/>
        <path id="DejaVuSans-53" d="M 3425 4513 
L 3425 3897 
Q 3066 4069 2747 4153 
Q 2428 4238 2131 4238 
Q 1616 4238 1336 4038 
Q 1056 3838 1056 3469 
Q 1056 3159 1242 3001 
Q 1428 2844 1947 2747 
L 2328 2669 
Q 3034 2534 3370 2195 
Q 3706 1856 3706 1288 
Q 3706 609 3251 259 
Q 2797 -91 1919 -91 
Q 1588 -91 1214 -16 
Q 841 59 441 206 
L 441 856 
Q 825 641 1194 531 
Q 1563 422 1919 422 
Q 2459 422 2753 634 
Q 3047 847 3047 1241 
Q 3047 1584 2836 1778 
Q 2625 1972 2144 2069 
L 1759 2144 
Q 1053 2284 737 2584 
Q 422 2884 422 3419 
Q 422 4038 858 4394 
Q 1294 4750 2059 4750 
Q 2388 4750 2728 4690 
Q 3069 4631 3425 4513 
z
" transform="scale(0.015625)"/>
        <path id="DejaVuSans-62" d="M 3116 1747 
Q 3116 2381 2855 2742 
Q 2594 3103 2138 3103 
Q 1681 3103 1420 2742 
Q 1159 2381 1159 1747 
Q 1159 1113 1420 752 
Q 1681 391 2138 391 
Q 2594 391 2855 752 
Q 3116 1113 3116 1747 
z
M 1159 2969 
Q 1341 3281 1617 3432 
Q 1894 3584 2278 3584 
Q 2916 3584 3314 3078 
Q 3713 2572 3713 1747 
Q 3713 922 3314 415 
Q 2916 -91 2278 -91 
Q 1894 -91 1617 61 
Q 1341 213 1159 525 
L 1159 0 
L 581 0 
L 581 4863 
L 1159 4863 
L 1159 2969 
z
" transform="scale(0.015625)"/>
       </defs>
       <use xlink:href="#DejaVuSans-4c"/>
       <use xlink:href="#DejaVuSans-6f" transform="translate(53.962891 0)"/>
       <use xlink:href="#DejaVuSans-77" transform="translate(115.144531 0)"/>
       <use xlink:href="#DejaVuSans-65" transform="translate(196.931641 0)"/>
       <use xlink:href="#DejaVuSans-72" transform="translate(258.455078 0)"/>
       <use xlink:href="#DejaVuSans-20" transform="translate(299.568359 0)"/>
       <use xlink:href="#DejaVuSans-53" transform="translate(331.355469 0)"/>
       <use xlink:href="#DejaVuSans-75" transform="translate(394.832031 0)"/>
       <use xlink:href="#DejaVuSans-62" transform="translate(458.210938 0)"/>
       <use xlink:href="#DejaVuSans-61" transform="translate(521.6875 0)"/>
       <use xlink:href="#DejaVuSans-6e" transform="translate(582.966797 0)"/>
       <use xlink:href="#DejaVuSans-73" transform="translate(646.345703 0)"/>
       <use xlink:href="#DejaVuSans-69" transform="translate(698.445312 0)"/>
       <use xlink:href="#DejaVuSans-72" transform="translate(726.228516 0)"/>
       <use xlink:href="#DejaVuSans-69" transform="translate(767.341797 0)"/>
      </g>
     </g>
    </g>
    <g id="ytick_6">
     <g id="line2d_13">
      <g>
       <use xlink:href="#m1c6250d549" x="111.71" y="791.71" style="stroke: #000000; stroke-width: 0.8"/>
      </g>
     </g>
     <g id="text_14">
      <!-- Jamtara -->
      <g transform="translate(65.60375 795.509219) scale(0.1 -0.1)">
       <defs>
        <path id="DejaVuSans-4a" d="M 628 4666 
L 1259 4666 
L 1259 325 
Q 1259 -519 939 -900 
Q 619 -1281 -91 -1281 
L -331 -1281 
L -331 -750 
L -134 -750 
Q 284 -750 456 -515 
Q 628 -281 628 325 
L 628 4666 
z
" transform="scale(0.015625)"/>
       </defs>
       <use xlink:href="#DejaVuSans-4a"/>
       <use xlink:href="#DejaVuSans-61" transform="translate(29.492188 0)"/>
       <use xlink:href="#DejaVuSans-6d" transform="translate(90.771484 0)"/>
       <use xlink:href="#DejaVuSans-74" transform="translate(188.183594 0)"/>
       <use xlink:href="#DejaVuSans-61" transform="translate(227.392578 0)"/>
       <use xlink:href="#DejaVuSans-72" transform="translate(288.671875 0)"/>
       <use xlink:href="#DejaVuSans-61" transform="translate(329.785156 0)"/>
      </g>
     </g>
    </g>
    <g id="ytick_7">
     <g id="line2d_14">
      <g>
       <use xlink:href="#m1c6250d549" x="111.71" y="926.45" style="stroke: #000000; stroke-width: 0.8"/>
      </g>
     </g>
     <g id="text_15">
      <!-- Jalna -->
      <g transform="translate(80.388125 930.249219) scale(0.1 -0.1)">
       <use xlink:href="#DejaVuSans-4a"/>
       <use xlink:href="#DejaVuSans-61" transform="translate(29.492188 0)"/>
       <use xlink:href="#DejaVuSans-6c" transform="translate(90.771484 0)"/>
       <use xlink:href="#DejaVuSans-6e" transform="translate(118.554688 0)"/>
       <use xlink:href="#DejaVuSans-61" transform="translate(181.933594 0)"/>
      </g>
     </g>
    </g>
    <g id="ytick_8">
     <g id="line2d_15">
      <g>
       <use xlink:href="#m1c6250d549" x="111.71" y="1061.19" style="stroke: #000000; stroke-width: 0.8"/>
      </g>
     </g>
     <g id="text_16">
      <!-- West Kameng -->
      <g transform="translate(35.858438 1064.989219) scale(0.1 -0.1)">
       <defs>
        <path id="DejaVuSans-57" d="M 213 4666 
L 850 4666 
L 1831 722 
L 2809 4666 
L 3519 4666 
L 4500 722 
L 5478 4666 
L 6119 4666 
L 4947 0 
L 4153 0 
L 3169 4050 
L 2175 0 
L 1381 0 
L 213 4666 
z
" transform="scale(0.015625)"/>
       </defs>
       <use xlink:href="#DejaVuSans-57"/>
       <use xlink:href="#DejaVuSans-65" transform="translate(93.001953 0)"/>
       <use xlink:href="#DejaVuSans-73" transform="translate(154.525391 0)"/>
       <use xlink:href="#DejaVuSans-74" transform="translate(206.625 0)"/>
       <use xlink:href="#DejaVuSans-20" transform="translate(245.833984 0)"/>
       <use xlink:href="#DejaVuSans-4b" transform="translate(277.621094 0)"/>
       <use xlink:href="#DejaVuSans-61" transform="translate(341.447266 0)"/>
       <use xlink:href="#DejaVuSans-6d" transform="translate(402.726562 0)"/>
       <use xlink:href="#DejaVuSans-65" transform="translate(500.138672 0)"/>
       <use xlink:href="#DejaVuSans-6e" transform="translate(561.662109 0)"/>
       <use xlink:href="#DejaVuSans-67" transform="translate(625.041016 0)"/>
      </g>
     </g>
    </g>
    <g id="ytick_9">
     <g id="line2d_16">
      <g>
       <use xlink:href="#m1c6250d549" x="111.71" y="1195.93" style="stroke: #000000; stroke-width: 0.8"/>
      </g>
     </g>
     <g id="text_17">
      <!-- Upper Subansiri -->
      <g transform="translate(24.875625 1199.729219) scale(0.1 -0.1)">
       <defs>
        <path id="DejaVuSans-55" d="M 556 4666 
L 1191 4666 
L 1191 1831 
Q 1191 1081 1462 751 
Q 1734 422 2344 422 
Q 2950 422 3222 751 
Q 3494 1081 3494 1831 
L 3494 4666 
L 4128 4666 
L 4128 1753 
Q 4128 841 3676 375 
Q 3225 -91 2344 -91 
Q 1459 -91 1007 375 
Q 556 841 556 1753 
L 556 4666 
z
" transform="scale(0.015625)"/>
       </defs>
       <use xlink:href="#DejaVuSans-55"/>
       <use xlink:href="#DejaVuSans-70" transform="translate(73.193359 0)"/>
       <use xlink:href="#DejaVuSans-70" transform="translate(136.669922 0)"/>
       <use xlink:href="#DejaVuSans-65" transform="translate(200.146484 0)"/>
       <use xlink:href="#DejaVuSans-72" transform="translate(261.669922 0)"/>
       <use xlink:href="#DejaVuSans-20" transform="translate(302.783203 0)"/>
       <use xlink:href="#DejaVuSans-53" transform="translate(334.570312 0)"/>
       <use xlink:href="#DejaVuSans-75" transform="translate(398.046875 0)"/>
       <use xlink:href="#DejaVuSans-62" transform="translate(461.425781 0)"/>
       <use xlink:href="#DejaVuSans-61" transform="translate(524.902344 0)"/>
       <use xlink:href="#DejaVuSans-6e" transform="translate(586.181641 0)"/>
       <use xlink:href="#DejaVuSans-73" transform="translate(649.560547 0)"/>
       <use xlink:href="#DejaVuSans-69" transform="translate(701.660156 0)"/>
       <use xlink:href="#DejaVuSans-72" transform="translate(729.443359 0)"/>
       <use xlink:href="#DejaVuSans-69" transform="translate(770.556641 0)"/>
      </g>
     </g>
    </g>
    <g id="ytick_10">
     <g id="line2d_17">
      <g>
       <use xlink:href="#m1c6250d549" x="111.71" y="1330.67" style="stroke: #000000; stroke-width: 0.8"/>
      </g>
     </g>
     <g id="text_18">
      <!-- East Siang -->
      <g transform="translate(52.014688 1334.469219) scale(0.1 -0.1)">
       <use xlink:href="#DejaVuSans-45"/>
       <use xlink:href="#DejaVuSans-61" transform="translate(63.183594 0)"/>
       <use xlink:href="#DejaVuSans-73" transform="translate(124.462891 0)"/>
       <use xlink:href="#DejaVuSans-74" transform="translate(176.5625 0)"/>
       <use xlink:href="#DejaVuSans-20" transform="translate(215.771484 0)"/>
       <use xlink:href="#DejaVuSans-53" transform="translate(247.558594 0)"/>
       <use xlink:href="#DejaVuSans-69" transform="translate(311.035156 0)"/>
       <use xlink:href="#DejaVuSans-61" transform="translate(338.818359 0)"/>
       <use xlink:href="#DejaVuSans-6e" transform="translate(400.097656 0)"/>
       <use xlink:href="#DejaVuSans-67" transform="translate(463.476562 0)"/>
      </g>
     </g>
    </g>
    <g id="text_19">
     <!-- District -->
     <g transform="translate(18.795938 742.297813) rotate(-90) scale(0.1 -0.1)">
      <defs>
       <path id="DejaVuSans-44" d="M 1259 4147 
L 1259 519 
L 2022 519 
Q 2988 519 3436 956 
Q 3884 1394 3884 2338 
Q 3884 3275 3436 3711 
Q 2988 4147 2022 4147 
L 1259 4147 
z
M 628 4666 
L 1925 4666 
Q 3281 4666 3915 4102 
Q 4550 3538 4550 2338 
Q 4550 1131 3912 565 
Q 3275 0 1925 0 
L 628 0 
L 628 4666 
z
" transform="scale(0.015625)"/>
       <path id="DejaVuSans-63" d="M 3122 3366 
L 3122 2828 
Q 2878 2963 2633 3030 
Q 2388 3097 2138 3097 
Q 1578 3097 1268 2742 
Q 959 2388 959 1747 
Q 959 1106 1268 751 
Q 1578 397 2138 397 
Q 2388 397 2633 464 
Q 2878 531 3122 666 
L 3122 134 
Q 2881 22 2623 -34 
Q 2366 -91 2075 -91 
Q 1284 -91 818 406 
Q 353 903 353 1747 
Q 353 2603 823 3093 
Q 1294 3584 2113 3584 
Q 2378 3584 2631 3529 
Q 2884 3475 3122 3366 
z
" transform="scale(0.015625)"/>
      </defs>
      <use xlink:href="#DejaVuSans-44"/>
      <use xlink:href="#DejaVuSans-69" transform="translate(77.001953 0)"/>
      <use xlink:href="#DejaVuSans-73" transform="translate(104.785156 0)"/>
      <use xlink:href="#DejaVuSans-74" transform="translate(156.884766 0)"/>
      <use xlink:href="#DejaVuSans-72" transform="translate(196.09375 0)"/>
      <use xlink:href="#DejaVuSans-69" transform="translate(237.207031 0)"/>
      <use xlink:href="#DejaVuSans-63" transform="translate(264.990234 0)"/>
      <use xlink:href="#DejaVuSans-74" transform="translate(319.970703 0)"/>
     </g>
    </g>
   </g>
   <g id="line2d_18">
    <path clip-path="url(#pfd5ba0d4e8)" style="fill: none; stroke: #424242; stroke-width: 2.25; stroke-linecap: square"/>
   </g>
   <g id="line2d_19">
    <path clip-path="url(#pfd5ba0d4e8)" style="fill: none; stroke: #424242; stroke-width: 2.25; stroke-linecap: square"/>
   </g>
   <g id="line2d_20">
    <path clip-path="url(#pfd5ba0d4e8)" style="fill: none; stroke: #424242; stroke-width: 2.25; stroke-linecap: square"/>
   </g>
   <g id="line2d_21">
    <path clip-path="url(#pfd5ba0d4e8)" style="fill: none; stroke: #424242; stroke-width: 2.25; stroke-linecap: square"/>
   </g>
   <g id="line2d_22">
    <path clip-path="url(#pfd5ba0d4e8)" style="fill: none; stroke: #424242; stroke-width: 2.25; stroke-linecap: square"/>
   </g>
   <g id="line2d_23">
    <path clip-path="url(#pfd5ba0d4e8)" style="fill: none; stroke: #424242; stroke-width: 2.25; stroke-linecap: square"/>
   </g>
   <g id="line2d_24">
    <path clip-path="url(#pfd5ba0d4e8)" style="fill: none; stroke: #424242; stroke-width: 2.25; stroke-linecap: square"/>
   </g>
   <g id="line2d_25">
    <path clip-path="url(#pfd5ba0d4e8)" style="fill: none; stroke: #424242; stroke-width: 2.25; stroke-linecap: square"/>
   </g>
   <g id="line2d_26">
    <path clip-path="url(#pfd5ba0d4e8)" style="fill: none; stroke: #424242; stroke-width: 2.25; stroke-linecap: square"/>
   </g>
   <g id="line2d_27">
    <path clip-path="url(#pfd5ba0d4e8)" style="fill: none; stroke: #424242; stroke-width: 2.25; stroke-linecap: square"/>
   </g>
   <g id="patch_13">
    <path d="M 111.71 1398.04 
L 111.71 50.64 
" style="fill: none; stroke: #000000; stroke-width: 0.8; stroke-linejoin: miter; stroke-linecap: square"/>
   </g>
   <g id="patch_14">
    <path d="M 720.640844 1398.04 
L 720.640844 50.64 
" style="fill: none; stroke: #000000; stroke-width: 0.8; stroke-linejoin: miter; stroke-linecap: square"/>
   </g>
   <g id="patch_15">
    <path d="M 111.71 1398.04 
L 720.640844 1398.04 
" style="fill: none; stroke: #000000; stroke-width: 0.8; stroke-linejoin: miter; stroke-linecap: square"/>
   </g>
   <g id="patch_16">
    <path d="M 111.71 50.64 
L 720.640844 50.64 
" style="fill: none; stroke: #000000; stroke-width: 0.8; stroke-linejoin: miter; stroke-linecap: square"/>
   </g>
   <g id="text_20">
    <!-- 1.232 -->
    <g transform="translate(691.644137 120.769375) scale(0.1 -0.1)">
     <defs>
      <path id="DejaVuSans-33" d="M 2597 2516 
Q 3050 2419 3304 2112 
Q 3559 1806 3559 1356 
Q 3559 666 3084 287 
Q 2609 -91 1734 -91 
Q 1441 -91 1130 -33 
Q 819 25 488 141 
L 488 750 
Q 750 597 1062 519 
Q 1375 441 1716 441 
Q 2309 441 2620 675 
Q 2931 909 2931 1356 
Q 2931 1769 2642 2001 
Q 2353 2234 1838 2234 
L 1294 2234 
L 1294 2753 
L 1863 2753 
Q 2328 2753 2575 2939 
Q 2822 3125 2822 3475 
Q 2822 3834 2567 4026 
Q 2313 4219 1838 4219 
Q 1578 4219 1281 4162 
Q 984 4106 628 3988 
L 628 4550 
Q 988 4650 1302 4700 
Q 1616 4750 1894 4750 
Q 2613 4750 3031 4423 
Q 3450 4097 3450 3541 
Q 3450 3153 3228 2886 
Q 3006 2619 2597 2516 
z
" transform="scale(0.015625)"/>
     </defs>
     <use xlink:href="#DejaVuSans-31"/>
     <use xlink:href="#DejaVuSans-2e" transform="translate(63.623047 0)"/>
     <use xlink:href="#DejaVuSans-32" transform="translate(95.410156 0)"/>
     <use xlink:href="#DejaVuSans-33" transform="translate(159.033203 0)"/>
     <use xlink:href="#DejaVuSans-32" transform="translate(222.65625 0)"/>
    </g>
   </g>
   <g id="text_21">
    <!-- 1.202 -->
    <g transform="translate(677.927183 255.509375) scale(0.1 -0.1)">
     <use xlink:href="#DejaVuSans-31"/>
     <use xlink:href="#DejaVuSans-2e" transform="translate(63.623047 0)"/>
     <use xlink:href="#DejaVuSans-32" transform="translate(95.410156 0)"/>
     <use xlink:href="#DejaVuSans-30" transform="translate(159.033203 0)"/>
     <use xlink:href="#DejaVuSans-32" transform="translate(222.65625 0)"/>
    </g>
   </g>
   <g id="text_22">
    <!-- 1.179 -->
    <g transform="translate(666.997273 390.249375) scale(0.1 -0.1)">
     <defs>
      <path id="DejaVuSans-37" d="M 525 4666 
L 3525 4666 
L 3525 4397 
L 1831 0 
L 1172 0 
L 2766 4134 
L 525 4134 
L 525 4666 
z
" transform="scale(0.015625)"/>
      <path id="DejaVuSans-39" d="M 703 97 
L 703 672 
Q 941 559 1184 500 
Q 1428 441 1663 441 
Q 2288 441 2617 861 
Q 2947 1281 2994 2138 
Q 2813 1869 2534 1725 
Q 2256 1581 1919 1581 
Q 1219 1581 811 2004 
Q 403 2428 403 3163 
Q 403 3881 828 4315 
Q 1253 4750 1959 4750 
Q 2769 4750 3195 4129 
Q 3622 3509 3622 2328 
Q 3622 1225 3098 567 
Q 2575 -91 1691 -91 
Q 1453 -91 1209 -44 
Q 966 3 703 97 
z
M 1959 2075 
Q 2384 2075 2632 2365 
Q 2881 2656 2881 3163 
Q 2881 3666 2632 3958 
Q 2384 4250 1959 4250 
Q 1534 4250 1286 3958 
Q 1038 3666 1038 3163 
Q 1038 2656 1286 2365 
Q 1534 2075 1959 2075 
z
" transform="scale(0.015625)"/>
     </defs>
     <use xlink:href="#DejaVuSans-31"/>
     <use xlink:href="#DejaVuSans-2e" transform="translate(63.623047 0)"/>
     <use xlink:href="#DejaVuSans-31" transform="translate(95.410156 0)"/>
     <use xlink:href="#DejaVuSans-37" transform="translate(159.033203 0)"/>
     <use xlink:href="#DejaVuSans-39" transform="translate(222.65625 0)"/>
    </g>
   </g>
   <g id="text_23">
    <!-- 1.166 -->
    <g transform="translate(660.956875 524.989375) scale(0.1 -0.1)">
     <use xlink:href="#DejaVuSans-31"/>
     <use xlink:href="#DejaVuSans-2e" transform="translate(63.623047 0)"/>
     <use xlink:href="#DejaVuSans-31" transform="translate(95.410156 0)"/>
     <use xlink:href="#DejaVuSans-36" transform="translate(159.033203 0)"/>
     <use xlink:href="#DejaVuSans-36" transform="translate(222.65625 0)"/>
    </g>
   </g>
   <g id="text_24">
    <!-- 1.166 -->
    <g transform="translate(660.708624 659.729375) scale(0.1 -0.1)">
     <use xlink:href="#DejaVuSans-31"/>
     <use xlink:href="#DejaVuSans-2e" transform="translate(63.623047 0)"/>
     <use xlink:href="#DejaVuSans-31" transform="translate(95.410156 0)"/>
     <use xlink:href="#DejaVuSans-36" transform="translate(159.033203 0)"/>
     <use xlink:href="#DejaVuSans-36" transform="translate(222.65625 0)"/>
    </g>
   </g>
   <g id="text_25">
    <!-- 1.159 -->
    <g transform="translate(657.648431 794.469375) scale(0.1 -0.1)">
     <defs>
      <path id="DejaVuSans-35" d="M 691 4666 
L 3169 4666 
L 3169 4134 
L 1269 4134 
L 1269 2991 
Q 1406 3038 1543 3061 
Q 1681 3084 1819 3084 
Q 2600 3084 3056 2656 
Q 3513 2228 3513 1497 
Q 3513 744 3044 326 
Q 2575 -91 1722 -91 
Q 1428 -91 1123 -41 
Q 819 9 494 109 
L 494 744 
Q 775 591 1075 516 
Q 1375 441 1709 441 
Q 2250 441 2565 725 
Q 2881 1009 2881 1497 
Q 2881 1984 2565 2268 
Q 2250 2553 1709 2553 
Q 1456 2553 1204 2497 
Q 953 2441 691 2322 
L 691 4666 
z
" transform="scale(0.015625)"/>
     </defs>
     <use xlink:href="#DejaVuSans-31"/>
     <use xlink:href="#DejaVuSans-2e" transform="translate(63.623047 0)"/>
     <use xlink:href="#DejaVuSans-31" transform="translate(95.410156 0)"/>
     <use xlink:href="#DejaVuSans-35" transform="translate(159.033203 0)"/>
     <use xlink:href="#DejaVuSans-39" transform="translate(222.65625 0)"/>
    </g>
   </g>
   <g id="text_26">
    <!-- 1.147 -->
    <g transform="translate(651.585478 929.209375) scale(0.1 -0.1)">
     <use xlink:href="#DejaVuSans-31"/>
     <use xlink:href="#DejaVuSans-2e" transform="translate(63.623047 0)"/>
     <use xlink:href="#DejaVuSans-31" transform="translate(95.410156 0)"/>
     <use xlink:href="#DejaVuSans-34" transform="translate(159.033203 0)"/>
     <use xlink:href="#DejaVuSans-37" transform="translate(222.65625 0)"/>
    </g>
   </g>
   <g id="text_27">
    <!-- 1.138 -->
    <g transform="translate(647.702478 1063.949375) scale(0.1 -0.1)">
     <use xlink:href="#DejaVuSans-31"/>
     <use xlink:href="#DejaVuSans-2e" transform="translate(63.623047 0)"/>
     <use xlink:href="#DejaVuSans-31" transform="translate(95.410156 0)"/>
     <use xlink:href="#DejaVuSans-33" transform="translate(159.033203 0)"/>
     <use xlink:href="#DejaVuSans-38" transform="translate(222.65625 0)"/>
    </g>
   </g>
   <g id="text_28">
    <!-- 1.135 -->
    <g transform="translate(646.15499 1198.689375) scale(0.1 -0.1)">
     <use xlink:href="#DejaVuSans-31"/>
     <use xlink:href="#DejaVuSans-2e" transform="translate(63.623047 0)"/>
     <use xlink:href="#DejaVuSans-31" transform="translate(95.410156 0)"/>
     <use xlink:href="#DejaVuSans-33" transform="translate(159.033203 0)"/>
     <use xlink:href="#DejaVuSans-35" transform="translate(222.65625 0)"/>
    </g>
   </g>
   <g id="text_29">
    <!-- 1.134 -->
    <g transform="translate(645.524164 1333.429375) scale(0.1 -0.1)">
     <use xlink:href="#DejaVuSans-31"/>
     <use xlink:href="#DejaVuSans-2e" transform="translate(63.623047 0)"/>
     <use xlink:href="#DejaVuSans-31" transform="translate(95.410156 0)"/>
     <use xlink:href="#DejaVuSans-33" transform="translate(159.033203 0)"/>
     <use xlink:href="#DejaVuSans-34" transform="translate(222.65625 0)"/>
    </g>
   </g>
   <g id="text_30">
    <!-- Top 10 Child Gender Ratio by District -->
    <g transform="translate(305.417297 44.64) scale(0.12 -0.12)">
     <defs>
      <path id="DejaVuSans-54" d="M -19 4666 
L 3928 4666 
L 3928 4134 
L 2272 4134 
L 2272 0 
L 1638 0 
L 1638 4134 
L -19 4134 
L -19 4666 
z
" transform="scale(0.015625)"/>
      <path id="DejaVuSans-79" d="M 2059 -325 
Q 1816 -950 1584 -1140 
Q 1353 -1331 966 -1331 
L 506 -1331 
L 506 -850 
L 844 -850 
Q 1081 -850 1212 -737 
Q 1344 -625 1503 -206 
L 1606 56 
L 191 3500 
L 800 3500 
L 1894 763 
L 2988 3500 
L 3597 3500 
L 2059 -325 
z
" transform="scale(0.015625)"/>
     </defs>
     <use xlink:href="#DejaVuSans-54"/>
     <use xlink:href="#DejaVuSans-6f" transform="translate(44.083984 0)"/>
     <use xlink:href="#DejaVuSans-70" transform="translate(105.265625 0)"/>
     <use xlink:href="#DejaVuSans-20" transform="translate(168.742188 0)"/>
     <use xlink:href="#DejaVuSans-31" transform="translate(200.529297 0)"/>
     <use xlink:href="#DejaVuSans-30" transform="translate(264.152344 0)"/>
     <use xlink:href="#DejaVuSans-20" transform="translate(327.775391 0)"/>
     <use xlink:href="#DejaVuSans-43" transform="translate(359.5625 0)"/>
     <use xlink:href="#DejaVuSans-68" transform="translate(429.386719 0)"/>
     <use xlink:href="#DejaVuSans-69" transform="translate(492.765625 0)"/>
     <use xlink:href="#DejaVuSans-6c" transform="translate(520.548828 0)"/>
     <use xlink:href="#DejaVuSans-64" transform="translate(548.332031 0)"/>
     <use xlink:href="#DejaVuSans-20" transform="translate(611.808594 0)"/>
     <use xlink:href="#DejaVuSans-47" transform="translate(643.595703 0)"/>
     <use xlink:href="#DejaVuSans-65" transform="translate(721.085938 0)"/>
     <use xlink:href="#DejaVuSans-6e" transform="translate(782.609375 0)"/>
     <use xlink:href="#DejaVuSans-64" transform="translate(845.988281 0)"/>
     <use xlink:href="#DejaVuSans-65" transform="translate(909.464844 0)"/>
     <use xlink:href="#DejaVuSans-72" transform="translate(970.988281 0)"/>
     <use xlink:href="#DejaVuSans-20" transform="translate(1012.101562 0)"/>
     <use xlink:href="#DejaVuSans-52" transform="translate(1043.888672 0)"/>
     <use xlink:href="#DejaVuSans-61" transform="translate(1111.121094 0)"/>
     <use xlink:href="#DejaVuSans-74" transform="translate(1172.400391 0)"/>
     <use xlink:href="#DejaVuSans-69" transform="translate(1211.609375 0)"/>
     <use xlink:href="#DejaVuSans-6f" transform="translate(1239.392578 0)"/>
     <use xlink:href="#DejaVuSans-20" transform="translate(1300.574219 0)"/>
     <use xlink:href="#DejaVuSans-62" transform="translate(1332.361328 0)"/>
     <use xlink:href="#DejaVuSans-79" transform="translate(1395.837891 0)"/>
     <use xlink:href="#DejaVuSans-20" transform="translate(1455.017578 0)"/>
     <use xlink:href="#DejaVuSans-44" transform="translate(1486.804688 0)"/>
     <use xlink:href="#DejaVuSans-69" transform="translate(1563.806641 0)"/>
     <use xlink:href="#DejaVuSans-73" transform="translate(1591.589844 0)"/>
     <use xlink:href="#DejaVuSans-74" transform="translate(1643.689453 0)"/>
     <use xlink:href="#DejaVuSans-72" transform="translate(1682.898438 0)"/>
     <use xlink:href="#DejaVuSans-69" transform="translate(1724.011719 0)"/>
     <use xlink:href="#DejaVuSans-63" transform="translate(1751.794922 0)"/>
     <use xlink:href="#DejaVuSans-74" transform="translate(1806.775391 0)"/>
    </g>
   </g>
  </g>
  <g id="axes_2">
   <g id="patch_17">
    <path d="M 815.895 1398.04 
L 1424.825844 1398.04 
L 1424.825844 50.64 
L 815.895 50.64 
z
" style="fill: #ffffff"/>
   </g>
   <g id="patch_18">
    <path d="M 815.895 64.114 
L 1395.829137 64.114 
L 1395.829137 171.906 
L 815.895 171.906 
z
" clip-path="url(#p8063f0c28c)" style="fill: #3274a1"/>
   </g>
   <g id="patch_19">
    <path d="M 815.895 198.854 
L 1395.071968 198.854 
L 1395.071968 306.646 
L 815.895 306.646 
z
" clip-path="url(#p8063f0c28c)" style="fill: #3274a1"/>
   </g>
   <g id="patch_20">
    <path d="M 815.895 333.594 
L 1386.46198 333.594 
L 1386.46198 441.386 
L 815.895 441.386 
z
" clip-path="url(#p8063f0c28c)" style="fill: #3274a1"/>
   </g>
   <g id="patch_21">
    <path d="M 815.895 468.334 
L 1385.888404 468.334 
L 1385.888404 576.126 
L 815.895 576.126 
z
" clip-path="url(#p8063f0c28c)" style="fill: #3274a1"/>
   </g>
   <g id="patch_22">
    <path d="M 815.895 603.074 
L 1383.668818 603.074 
L 1383.668818 710.866 
L 815.895 710.866 
z
" clip-path="url(#p8063f0c28c)" style="fill: #3274a1"/>
   </g>
   <g id="patch_23">
    <path d="M 815.895 737.814 
L 1375.158705 737.814 
L 1375.158705 845.606 
L 815.895 845.606 
z
" clip-path="url(#p8063f0c28c)" style="fill: #3274a1"/>
   </g>
   <g id="patch_24">
    <path d="M 815.895 872.554 
L 1374.951582 872.554 
L 1374.951582 980.346 
L 815.895 980.346 
z
" clip-path="url(#p8063f0c28c)" style="fill: #3274a1"/>
   </g>
   <g id="patch_25">
    <path d="M 815.895 1007.294 
L 1373.950739 1007.294 
L 1373.950739 1115.086 
L 815.895 1115.086 
z
" clip-path="url(#p8063f0c28c)" style="fill: #3274a1"/>
   </g>
   <g id="patch_26">
    <path d="M 815.895 1142.034 
L 1367.638358 1142.034 
L 1367.638358 1249.826 
L 815.895 1249.826 
z
" clip-path="url(#p8063f0c28c)" style="fill: #3274a1"/>
   </g>
   <g id="patch_27">
    <path d="M 815.895 1276.774 
L 1346.43784 1276.774 
L 1346.43784 1384.566 
L 815.895 1384.566 
z
" clip-path="url(#p8063f0c28c)" style="fill: #3274a1"/>
   </g>
   <g id="matplotlib.axis_3">
    <g id="xtick_8">
     <g id="line2d_28">
      <g>
       <use xlink:href="#m51f1fa849a" x="815.895" y="1398.04" style="stroke: #000000; stroke-width: 0.8"/>
      </g>
     </g>
     <g id="text_31">
      <!-- 0.0 -->
      <g transform="translate(807.943437 1412.638438) scale(0.1 -0.1)">
       <use xlink:href="#DejaVuSans-30"/>
       <use xlink:href="#DejaVuSans-2e" transform="translate(63.623047 0)"/>
       <use xlink:href="#DejaVuSans-30" transform="translate(95.410156 0)"/>
      </g>
     </g>
    </g>
    <g id="xtick_9">
     <g id="line2d_29">
      <g>
       <use xlink:href="#m51f1fa849a" x="885.86169" y="1398.04" style="stroke: #000000; stroke-width: 0.8"/>
      </g>
     </g>
     <g id="text_32">
      <!-- 0.1 -->
      <g transform="translate(877.910128 1412.638438) scale(0.1 -0.1)">
       <use xlink:href="#DejaVuSans-30"/>
       <use xlink:href="#DejaVuSans-2e" transform="translate(63.623047 0)"/>
       <use xlink:href="#DejaVuSans-31" transform="translate(95.410156 0)"/>
      </g>
     </g>
    </g>
    <g id="xtick_10">
     <g id="line2d_30">
      <g>
       <use xlink:href="#m51f1fa849a" x="955.828381" y="1398.04" style="stroke: #000000; stroke-width: 0.8"/>
      </g>
     </g>
     <g id="text_33">
      <!-- 0.2 -->
      <g transform="translate(947.876818 1412.638438) scale(0.1 -0.1)">
       <use xlink:href="#DejaVuSans-30"/>
       <use xlink:href="#DejaVuSans-2e" transform="translate(63.623047 0)"/>
       <use xlink:href="#DejaVuSans-32" transform="translate(95.410156 0)"/>
      </g>
     </g>
    </g>
    <g id="xtick_11">
     <g id="line2d_31">
      <g>
       <use xlink:href="#m51f1fa849a" x="1025.795071" y="1398.04" style="stroke: #000000; stroke-width: 0.8"/>
      </g>
     </g>
     <g id="text_34">
      <!-- 0.3 -->
      <g transform="translate(1017.843509 1412.638438) scale(0.1 -0.1)">
       <use xlink:href="#DejaVuSans-30"/>
       <use xlink:href="#DejaVuSans-2e" transform="translate(63.623047 0)"/>
       <use xlink:href="#DejaVuSans-33" transform="translate(95.410156 0)"/>
      </g>
     </g>
    </g>
    <g id="xtick_12">
     <g id="line2d_32">
      <g>
       <use xlink:href="#m51f1fa849a" x="1095.761762" y="1398.04" style="stroke: #000000; stroke-width: 0.8"/>
      </g>
     </g>
     <g id="text_35">
      <!-- 0.4 -->
      <g transform="translate(1087.810199 1412.638438) scale(0.1 -0.1)">
       <use xlink:href="#DejaVuSans-30"/>
       <use xlink:href="#DejaVuSans-2e" transform="translate(63.623047 0)"/>
       <use xlink:href="#DejaVuSans-34" transform="translate(95.410156 0)"/>
      </g>
     </g>
    </g>
    <g id="xtick_13">
     <g id="line2d_33">
      <g>
       <use xlink:href="#m51f1fa849a" x="1165.728452" y="1398.04" style="stroke: #000000; stroke-width: 0.8"/>
      </g>
     </g>
     <g id="text_36">
      <!-- 0.5 -->
      <g transform="translate(1157.776889 1412.638438) scale(0.1 -0.1)">
       <use xlink:href="#DejaVuSans-30"/>
       <use xlink:href="#DejaVuSans-2e" transform="translate(63.623047 0)"/>
       <use xlink:href="#DejaVuSans-35" transform="translate(95.410156 0)"/>
      </g>
     </g>
    </g>
    <g id="xtick_14">
     <g id="line2d_34">
      <g>
       <use xlink:href="#m51f1fa849a" x="1235.695142" y="1398.04" style="stroke: #000000; stroke-width: 0.8"/>
      </g>
     </g>
     <g id="text_37">
      <!-- 0.6 -->
      <g transform="translate(1227.74358 1412.638438) scale(0.1 -0.1)">
       <use xlink:href="#DejaVuSans-30"/>
       <use xlink:href="#DejaVuSans-2e" transform="translate(63.623047 0)"/>
       <use xlink:href="#DejaVuSans-36" transform="translate(95.410156 0)"/>
      </g>
     </g>
    </g>
    <g id="xtick_15">
     <g id="line2d_35">
      <g>
       <use xlink:href="#m51f1fa849a" x="1305.661833" y="1398.04" style="stroke: #000000; stroke-width: 0.8"/>
      </g>
     </g>
     <g id="text_38">
      <!-- 0.7 -->
      <g transform="translate(1297.71027 1412.638438) scale(0.1 -0.1)">
       <use xlink:href="#DejaVuSans-30"/>
       <use xlink:href="#DejaVuSans-2e" transform="translate(63.623047 0)"/>
       <use xlink:href="#DejaVuSans-37" transform="translate(95.410156 0)"/>
      </g>
     </g>
    </g>
    <g id="xtick_16">
     <g id="line2d_36">
      <g>
       <use xlink:href="#m51f1fa849a" x="1375.628523" y="1398.04" style="stroke: #000000; stroke-width: 0.8"/>
      </g>
     </g>
     <g id="text_39">
      <!-- 0.8 -->
      <g transform="translate(1367.676961 1412.638438) scale(0.1 -0.1)">
       <use xlink:href="#DejaVuSans-30"/>
       <use xlink:href="#DejaVuSans-2e" transform="translate(63.623047 0)"/>
       <use xlink:href="#DejaVuSans-38" transform="translate(95.410156 0)"/>
      </g>
     </g>
    </g>
    <g id="text_40">
     <!-- Child Gender Ratio -->
     <g transform="translate(1073.309641 1426.316562) scale(0.1 -0.1)">
      <use xlink:href="#DejaVuSans-43"/>
      <use xlink:href="#DejaVuSans-68" transform="translate(69.824219 0)"/>
      <use xlink:href="#DejaVuSans-69" transform="translate(133.203125 0)"/>
      <use xlink:href="#DejaVuSans-6c" transform="translate(160.986328 0)"/>
      <use xlink:href="#DejaVuSans-64" transform="translate(188.769531 0)"/>
      <use xlink:href="#DejaVuSans-20" transform="translate(252.246094 0)"/>
      <use xlink:href="#DejaVuSans-47" transform="translate(284.033203 0)"/>
      <use xlink:href="#DejaVuSans-65" transform="translate(361.523438 0)"/>
      <use xlink:href="#DejaVuSans-6e" transform="translate(423.046875 0)"/>
      <use xlink:href="#DejaVuSans-64" transform="translate(486.425781 0)"/>
      <use xlink:href="#DejaVuSans-65" transform="translate(549.902344 0)"/>
      <use xlink:href="#DejaVuSans-72" transform="translate(611.425781 0)"/>
      <use xlink:href="#DejaVuSans-20" transform="translate(652.539062 0)"/>
      <use xlink:href="#DejaVuSans-52" transform="translate(684.326172 0)"/>
      <use xlink:href="#DejaVuSans-61" transform="translate(751.558594 0)"/>
      <use xlink:href="#DejaVuSans-74" transform="translate(812.837891 0)"/>
      <use xlink:href="#DejaVuSans-69" transform="translate(852.046875 0)"/>
      <use xlink:href="#DejaVuSans-6f" transform="translate(879.830078 0)"/>
     </g>
    </g>
   </g>
   <g id="matplotlib.axis_4">
    <g id="ytick_11">
     <g id="line2d_37">
      <g>
       <use xlink:href="#m1c6250d549" x="815.895" y="118.01" style="stroke: #000000; stroke-width: 0.8"/>
      </g>
     </g>
     <g id="text_41">
      <!-- Kaithal -->
      <g transform="translate(774.441875 121.809219) scale(0.1 -0.1)">
       <use xlink:href="#DejaVuSans-4b"/>
       <use xlink:href="#DejaVuSans-61" transform="translate(63.826172 0)"/>
       <use xlink:href="#DejaVuSans-69" transform="translate(125.105469 0)"/>
       <use xlink:href="#DejaVuSans-74" transform="translate(152.888672 0)"/>
       <use xlink:href="#DejaVuSans-68" transform="translate(192.097656 0)"/>
       <use xlink:href="#DejaVuSans-61" transform="translate(255.476562 0)"/>
       <use xlink:href="#DejaVuSans-6c" transform="translate(316.755859 0)"/>
      </g>
     </g>
    </g>
    <g id="ytick_12">
     <g id="line2d_38">
      <g>
       <use xlink:href="#m1c6250d549" x="815.895" y="252.75" style="stroke: #000000; stroke-width: 0.8"/>
      </g>
     </g>
     <g id="text_42">
      <!-- Tarn Taran -->
      <g transform="translate(757.695 256.549219) scale(0.1 -0.1)">
       <use xlink:href="#DejaVuSans-54"/>
       <use xlink:href="#DejaVuSans-61" transform="translate(44.583984 0)"/>
       <use xlink:href="#DejaVuSans-72" transform="translate(105.863281 0)"/>
       <use xlink:href="#DejaVuSans-6e" transform="translate(145.226562 0)"/>
       <use xlink:href="#DejaVuSans-20" transform="translate(208.605469 0)"/>
       <use xlink:href="#DejaVuSans-54" transform="translate(240.392578 0)"/>
       <use xlink:href="#DejaVuSans-61" transform="translate(284.976562 0)"/>
       <use xlink:href="#DejaVuSans-72" transform="translate(346.255859 0)"/>
       <use xlink:href="#DejaVuSans-61" transform="translate(387.369141 0)"/>
       <use xlink:href="#DejaVuSans-6e" transform="translate(448.648438 0)"/>
      </g>
     </g>
    </g>
    <g id="ytick_13">
     <g id="line2d_39">
      <g>
       <use xlink:href="#m1c6250d549" x="815.895" y="387.49" style="stroke: #000000; stroke-width: 0.8"/>
      </g>
     </g>
     <g id="text_43">
      <!-- Jhajjar -->
      <g transform="translate(777.684062 391.289219) scale(0.1 -0.1)">
       <defs>
        <path id="DejaVuSans-6a" d="M 603 3500 
L 1178 3500 
L 1178 -63 
Q 1178 -731 923 -1031 
Q 669 -1331 103 -1331 
L -116 -1331 
L -116 -844 
L 38 -844 
Q 366 -844 484 -692 
Q 603 -541 603 -63 
L 603 3500 
z
M 603 4863 
L 1178 4863 
L 1178 4134 
L 603 4134 
L 603 4863 
z
" transform="scale(0.015625)"/>
       </defs>
       <use xlink:href="#DejaVuSans-4a"/>
       <use xlink:href="#DejaVuSans-68" transform="translate(29.492188 0)"/>
       <use xlink:href="#DejaVuSans-61" transform="translate(92.871094 0)"/>
       <use xlink:href="#DejaVuSans-6a" transform="translate(154.150391 0)"/>
       <use xlink:href="#DejaVuSans-6a" transform="translate(181.933594 0)"/>
       <use xlink:href="#DejaVuSans-61" transform="translate(209.716797 0)"/>
       <use xlink:href="#DejaVuSans-72" transform="translate(270.996094 0)"/>
      </g>
     </g>
    </g>
    <g id="ytick_14">
     <g id="line2d_40">
      <g>
       <use xlink:href="#m1c6250d549" x="815.895" y="522.23" style="stroke: #000000; stroke-width: 0.8"/>
      </g>
     </g>
     <g id="text_44">
      <!-- Kathua -->
      <g transform="translate(773.660625 526.029219) scale(0.1 -0.1)">
       <use xlink:href="#DejaVuSans-4b"/>
       <use xlink:href="#DejaVuSans-61" transform="translate(63.826172 0)"/>
       <use xlink:href="#DejaVuSans-74" transform="translate(125.105469 0)"/>
       <use xlink:href="#DejaVuSans-68" transform="translate(164.314453 0)"/>
       <use xlink:href="#DejaVuSans-75" transform="translate(227.693359 0)"/>
       <use xlink:href="#DejaVuSans-61" transform="translate(291.072266 0)"/>
      </g>
     </g>
    </g>
    <g id="ytick_15">
     <g id="line2d_41">
      <g>
       <use xlink:href="#m1c6250d549" x="815.895" y="656.97" style="stroke: #000000; stroke-width: 0.8"/>
      </g>
     </g>
     <g id="text_45">
      <!-- Sonipat -->
      <g transform="translate(770.915313 660.769219) scale(0.1 -0.1)">
       <use xlink:href="#DejaVuSans-53"/>
       <use xlink:href="#DejaVuSans-6f" transform="translate(63.476562 0)"/>
       <use xlink:href="#DejaVuSans-6e" transform="translate(124.658203 0)"/>
       <use xlink:href="#DejaVuSans-69" transform="translate(188.037109 0)"/>
       <use xlink:href="#DejaVuSans-70" transform="translate(215.820312 0)"/>
       <use xlink:href="#DejaVuSans-61" transform="translate(279.296875 0)"/>
       <use xlink:href="#DejaVuSans-74" transform="translate(340.576172 0)"/>
      </g>
     </g>
    </g>
    <g id="ytick_16">
     <g id="line2d_42">
      <g>
       <use xlink:href="#m1c6250d549" x="815.895" y="791.71" style="stroke: #000000; stroke-width: 0.8"/>
      </g>
     </g>
     <g id="text_46">
      <!-- Rewari -->
      <g transform="translate(775.048125 795.509219) scale(0.1 -0.1)">
       <use xlink:href="#DejaVuSans-52"/>
       <use xlink:href="#DejaVuSans-65" transform="translate(64.982422 0)"/>
       <use xlink:href="#DejaVuSans-77" transform="translate(126.505859 0)"/>
       <use xlink:href="#DejaVuSans-61" transform="translate(208.292969 0)"/>
       <use xlink:href="#DejaVuSans-72" transform="translate(269.572266 0)"/>
       <use xlink:href="#DejaVuSans-69" transform="translate(310.685547 0)"/>
      </g>
     </g>
    </g>
    <g id="ytick_17">
     <g id="line2d_43">
      <g>
       <use xlink:href="#m1c6250d549" x="815.895" y="926.45" style="stroke: #000000; stroke-width: 0.8"/>
      </g>
     </g>
     <g id="text_47">
      <!-- Mahendragarh -->
      <g transform="translate(735.973125 930.249219) scale(0.1 -0.1)">
       <defs>
        <path id="DejaVuSans-4d" d="M 628 4666 
L 1569 4666 
L 2759 1491 
L 3956 4666 
L 4897 4666 
L 4897 0 
L 4281 0 
L 4281 4097 
L 3078 897 
L 2444 897 
L 1241 4097 
L 1241 0 
L 628 0 
L 628 4666 
z
" transform="scale(0.015625)"/>
       </defs>
       <use xlink:href="#DejaVuSans-4d"/>
       <use xlink:href="#DejaVuSans-61" transform="translate(86.279297 0)"/>
       <use xlink:href="#DejaVuSans-68" transform="translate(147.558594 0)"/>
       <use xlink:href="#DejaVuSans-65" transform="translate(210.9375 0)"/>
       <use xlink:href="#DejaVuSans-6e" transform="translate(272.460938 0)"/>
       <use xlink:href="#DejaVuSans-64" transform="translate(335.839844 0)"/>
       <use xlink:href="#DejaVuSans-72" transform="translate(399.316406 0)"/>
       <use xlink:href="#DejaVuSans-61" transform="translate(440.429688 0)"/>
       <use xlink:href="#DejaVuSans-67" transform="translate(501.708984 0)"/>
       <use xlink:href="#DejaVuSans-61" transform="translate(565.185547 0)"/>
       <use xlink:href="#DejaVuSans-72" transform="translate(626.464844 0)"/>
       <use xlink:href="#DejaVuSans-68" transform="translate(665.828125 0)"/>
      </g>
     </g>
    </g>
    <g id="ytick_18">
     <g id="line2d_44">
      <g>
       <use xlink:href="#m1c6250d549" x="815.895" y="1061.19" style="stroke: #000000; stroke-width: 0.8"/>
      </g>
     </g>
     <g id="text_48">
      <!-- Pithoragarh -->
      <g transform="translate(750.946563 1064.989219) scale(0.1 -0.1)">
       <use xlink:href="#DejaVuSans-50"/>
       <use xlink:href="#DejaVuSans-69" transform="translate(58.052734 0)"/>
       <use xlink:href="#DejaVuSans-74" transform="translate(85.835938 0)"/>
       <use xlink:href="#DejaVuSans-68" transform="translate(125.044922 0)"/>
       <use xlink:href="#DejaVuSans-6f" transform="translate(188.423828 0)"/>
       <use xlink:href="#DejaVuSans-72" transform="translate(249.605469 0)"/>
       <use xlink:href="#DejaVuSans-61" transform="translate(290.71875 0)"/>
       <use xlink:href="#DejaVuSans-67" transform="translate(351.998047 0)"/>
       <use xlink:href="#DejaVuSans-61" transform="translate(415.474609 0)"/>
       <use xlink:href="#DejaVuSans-72" transform="translate(476.753906 0)"/>
       <use xlink:href="#DejaVuSans-68" transform="translate(516.117188 0)"/>
      </g>
     </g>
    </g>
    <g id="ytick_19">
     <g id="line2d_45">
      <g>
       <use xlink:href="#m1c6250d549" x="815.895" y="1195.93" style="stroke: #000000; stroke-width: 0.8"/>
      </g>
     </g>
     <g id="text_49">
      <!-- Jammu -->
      <g transform="translate(773.998125 1199.729219) scale(0.1 -0.1)">
       <use xlink:href="#DejaVuSans-4a"/>
       <use xlink:href="#DejaVuSans-61" transform="translate(29.492188 0)"/>
       <use xlink:href="#DejaVuSans-6d" transform="translate(90.771484 0)"/>
       <use xlink:href="#DejaVuSans-6d" transform="translate(188.183594 0)"/>
       <use xlink:href="#DejaVuSans-75" transform="translate(285.595703 0)"/>
      </g>
     </g>
    </g>
    <g id="ytick_20">
     <g id="line2d_46">
      <g>
       <use xlink:href="#m1c6250d549" x="815.895" y="1330.67" style="stroke: #000000; stroke-width: 0.8"/>
      </g>
     </g>
     <g id="text_50">
      <!-- Samba -->
      <g transform="translate(774.20125 1334.469219) scale(0.1 -0.1)">
       <use xlink:href="#DejaVuSans-53"/>
       <use xlink:href="#DejaVuSans-61" transform="translate(63.476562 0)"/>
       <use xlink:href="#DejaVuSans-6d" transform="translate(124.755859 0)"/>
       <use xlink:href="#DejaVuSans-62" transform="translate(222.167969 0)"/>
       <use xlink:href="#DejaVuSans-61" transform="translate(285.644531 0)"/>
      </g>
     </g>
    </g>
   </g>
   <g id="line2d_47">
    <path clip-path="url(#p8063f0c28c)" style="fill: none; stroke: #424242; stroke-width: 2.25; stroke-linecap: square"/>
   </g>
   <g id="line2d_48">
    <path clip-path="url(#p8063f0c28c)" style="fill: none; stroke: #424242; stroke-width: 2.25; stroke-linecap: square"/>
   </g>
   <g id="line2d_49">
    <path clip-path="url(#p8063f0c28c)" style="fill: none; stroke: #424242; stroke-width: 2.25; stroke-linecap: square"/>
   </g>
   <g id="line2d_50">
    <path clip-path="url(#p8063f0c28c)" style="fill: none; stroke: #424242; stroke-width: 2.25; stroke-linecap: square"/>
   </g>
   <g id="line2d_51">
    <path clip-path="url(#p8063f0c28c)" style="fill: none; stroke: #424242; stroke-width: 2.25; stroke-linecap: square"/>
   </g>
   <g id="line2d_52">
    <path clip-path="url(#p8063f0c28c)" style="fill: none; stroke: #424242; stroke-width: 2.25; stroke-linecap: square"/>
   </g>
   <g id="line2d_53">
    <path clip-path="url(#p8063f0c28c)" style="fill: none; stroke: #424242; stroke-width: 2.25; stroke-linecap: square"/>
   </g>
   <g id="line2d_54">
    <path clip-path="url(#p8063f0c28c)" style="fill: none; stroke: #424242; stroke-width: 2.25; stroke-linecap: square"/>
   </g>
   <g id="line2d_55">
    <path clip-path="url(#p8063f0c28c)" style="fill: none; stroke: #424242; stroke-width: 2.25; stroke-linecap: square"/>
   </g>
   <g id="line2d_56">
    <path clip-path="url(#p8063f0c28c)" style="fill: none; stroke: #424242; stroke-width: 2.25; stroke-linecap: square"/>
   </g>
   <g id="patch_28">
    <path d="M 815.895 1398.04 
L 815.895 50.64 
" style="fill: none; stroke: #000000; stroke-width: 0.8; stroke-linejoin: miter; stroke-linecap: square"/>
   </g>
   <g id="patch_29">
    <path d="M 1424.825844 1398.04 
L 1424.825844 50.64 
" style="fill: none; stroke: #000000; stroke-width: 0.8; stroke-linejoin: miter; stroke-linecap: square"/>
   </g>
   <g id="patch_30">
    <path d="M 815.895 1398.04 
L 1424.825844 1398.04 
" style="fill: none; stroke: #000000; stroke-width: 0.8; stroke-linejoin: miter; stroke-linecap: square"/>
   </g>
   <g id="patch_31">
    <path d="M 815.895 50.64 
L 1424.825844 50.64 
" style="fill: none; stroke: #000000; stroke-width: 0.8; stroke-linejoin: miter; stroke-linecap: square"/>
   </g>
   <g id="text_51">
    <!-- 0.829 -->
    <g transform="translate(1395.829137 120.769375) scale(0.1 -0.1)">
     <use xlink:href="#DejaVuSans-30"/>
     <use xlink:href="#DejaVuSans-2e" transform="translate(63.623047 0)"/>
     <use xlink:href="#DejaVuSans-38" transform="translate(95.410156 0)"/>
     <use xlink:href="#DejaVuSans-32" transform="translate(159.033203 0)"/>
     <use xlink:href="#DejaVuSans-39" transform="translate(222.65625 0)"/>
    </g>
   </g>
   <g id="text_52">
    <!-- 0.828 -->
    <g transform="translate(1395.071968 255.509375) scale(0.1 -0.1)">
     <use xlink:href="#DejaVuSans-30"/>
     <use xlink:href="#DejaVuSans-2e" transform="translate(63.623047 0)"/>
     <use xlink:href="#DejaVuSans-38" transform="translate(95.410156 0)"/>
     <use xlink:href="#DejaVuSans-32" transform="translate(159.033203 0)"/>
     <use xlink:href="#DejaVuSans-38" transform="translate(222.65625 0)"/>
    </g>
   </g>
   <g id="text_53">
    <!-- 0.815 -->
    <g transform="translate(1386.46198 390.249375) scale(0.1 -0.1)">
     <use xlink:href="#DejaVuSans-30"/>
     <use xlink:href="#DejaVuSans-2e" transform="translate(63.623047 0)"/>
     <use xlink:href="#DejaVuSans-38" transform="translate(95.410156 0)"/>
     <use xlink:href="#DejaVuSans-31" transform="translate(159.033203 0)"/>
     <use xlink:href="#DejaVuSans-35" transform="translate(222.65625 0)"/>
    </g>
   </g>
   <g id="text_54">
    <!-- 0.815 -->
    <g transform="translate(1385.888404 524.989375) scale(0.1 -0.1)">
     <use xlink:href="#DejaVuSans-30"/>
     <use xlink:href="#DejaVuSans-2e" transform="translate(63.623047 0)"/>
     <use xlink:href="#DejaVuSans-38" transform="translate(95.410156 0)"/>
     <use xlink:href="#DejaVuSans-31" transform="translate(159.033203 0)"/>
     <use xlink:href="#DejaVuSans-35" transform="translate(222.65625 0)"/>
    </g>
   </g>
   <g id="text_55">
    <!-- 0.811 -->
    <g transform="translate(1383.668818 659.729375) scale(0.1 -0.1)">
     <use xlink:href="#DejaVuSans-30"/>
     <use xlink:href="#DejaVuSans-2e" transform="translate(63.623047 0)"/>
     <use xlink:href="#DejaVuSans-38" transform="translate(95.410156 0)"/>
     <use xlink:href="#DejaVuSans-31" transform="translate(159.033203 0)"/>
     <use xlink:href="#DejaVuSans-31" transform="translate(222.65625 0)"/>
    </g>
   </g>
   <g id="text_56">
    <!-- 0.799 -->
    <g transform="translate(1375.158705 794.469375) scale(0.1 -0.1)">
     <use xlink:href="#DejaVuSans-30"/>
     <use xlink:href="#DejaVuSans-2e" transform="translate(63.623047 0)"/>
     <use xlink:href="#DejaVuSans-37" transform="translate(95.410156 0)"/>
     <use xlink:href="#DejaVuSans-39" transform="translate(159.033203 0)"/>
     <use xlink:href="#DejaVuSans-39" transform="translate(222.65625 0)"/>
    </g>
   </g>
   <g id="text_57">
    <!-- 0.799 -->
    <g transform="translate(1374.951582 929.209375) scale(0.1 -0.1)">
     <use xlink:href="#DejaVuSans-30"/>
     <use xlink:href="#DejaVuSans-2e" transform="translate(63.623047 0)"/>
     <use xlink:href="#DejaVuSans-37" transform="translate(95.410156 0)"/>
     <use xlink:href="#DejaVuSans-39" transform="translate(159.033203 0)"/>
     <use xlink:href="#DejaVuSans-39" transform="translate(222.65625 0)"/>
    </g>
   </g>
   <g id="text_58">
    <!-- 0.798 -->
    <g transform="translate(1373.950739 1063.949375) scale(0.1 -0.1)">
     <use xlink:href="#DejaVuSans-30"/>
     <use xlink:href="#DejaVuSans-2e" transform="translate(63.623047 0)"/>
     <use xlink:href="#DejaVuSans-37" transform="translate(95.410156 0)"/>
     <use xlink:href="#DejaVuSans-39" transform="translate(159.033203 0)"/>
     <use xlink:href="#DejaVuSans-38" transform="translate(222.65625 0)"/>
    </g>
   </g>
   <g id="text_59">
    <!-- 0.789 -->
    <g transform="translate(1367.638358 1198.689375) scale(0.1 -0.1)">
     <use xlink:href="#DejaVuSans-30"/>
     <use xlink:href="#DejaVuSans-2e" transform="translate(63.623047 0)"/>
     <use xlink:href="#DejaVuSans-37" transform="translate(95.410156 0)"/>
     <use xlink:href="#DejaVuSans-38" transform="translate(159.033203 0)"/>
     <use xlink:href="#DejaVuSans-39" transform="translate(222.65625 0)"/>
    </g>
   </g>
   <g id="text_60">
    <!-- 0.758 -->
    <g transform="translate(1346.43784 1333.429375) scale(0.1 -0.1)">
     <use xlink:href="#DejaVuSans-30"/>
     <use xlink:href="#DejaVuSans-2e" transform="translate(63.623047 0)"/>
     <use xlink:href="#DejaVuSans-37" transform="translate(95.410156 0)"/>
     <use xlink:href="#DejaVuSans-35" transform="translate(159.033203 0)"/>
     <use xlink:href="#DejaVuSans-38" transform="translate(222.65625 0)"/>
    </g>
   </g>
   <g id="text_61">
    <!-- Least 10 Child Gender Ratio by District -->
    <g transform="translate(1003.64261 44.64) scale(0.12 -0.12)">
     <use xlink:href="#DejaVuSans-4c"/>
     <use xlink:href="#DejaVuSans-65" transform="translate(53.962891 0)"/>
     <use xlink:href="#DejaVuSans-61" transform="translate(115.486328 0)"/>
     <use xlink:href="#DejaVuSans-73" transform="translate(176.765625 0)"/>
     <use xlink:href="#DejaVuSans-74" transform="translate(228.865234 0)"/>
     <use xlink:href="#DejaVuSans-20" transform="translate(268.074219 0)"/>
     <use xlink:href="#DejaVuSans-31" transform="translate(299.861328 0)"/>
     <use xlink:href="#DejaVuSans-30" transform="translate(363.484375 0)"/>
     <use xlink:href="#DejaVuSans-20" transform="translate(427.107422 0)"/>
     <use xlink:href="#DejaVuSans-43" transform="translate(458.894531 0)"/>
     <use xlink:href="#DejaVuSans-68" transform="translate(528.71875 0)"/>
     <use xlink:href="#DejaVuSans-69" transform="translate(592.097656 0)"/>
     <use xlink:href="#DejaVuSans-6c" transform="translate(619.880859 0)"/>
     <use xlink:href="#DejaVuSans-64" transform="translate(647.664062 0)"/>
     <use xlink:href="#DejaVuSans-20" transform="translate(711.140625 0)"/>
     <use xlink:href="#DejaVuSans-47" transform="translate(742.927734 0)"/>
     <use xlink:href="#DejaVuSans-65" transform="translate(820.417969 0)"/>
     <use xlink:href="#DejaVuSans-6e" transform="translate(881.941406 0)"/>
     <use xlink:href="#DejaVuSans-64" transform="translate(945.320312 0)"/>
     <use xlink:href="#DejaVuSans-65" transform="translate(1008.796875 0)"/>
     <use xlink:href="#DejaVuSans-72" transform="translate(1070.320312 0)"/>
     <use xlink:href="#DejaVuSans-20" transform="translate(1111.433594 0)"/>
     <use xlink:href="#DejaVuSans-52" transform="translate(1143.220703 0)"/>
     <use xlink:href="#DejaVuSans-61" transform="translate(1210.453125 0)"/>
     <use xlink:href="#DejaVuSans-74" transform="translate(1271.732422 0)"/>
     <use xlink:href="#DejaVuSans-69" transform="translate(1310.941406 0)"/>
     <use xlink:href="#DejaVuSans-6f" transform="translate(1338.724609 0)"/>
     <use xlink:href="#DejaVuSans-20" transform="translate(1399.90625 0)"/>
     <use xlink:href="#DejaVuSans-62" transform="translate(1431.693359 0)"/>
     <use xlink:href="#DejaVuSans-79" transform="translate(1495.169922 0)"/>
     <use xlink:href="#DejaVuSans-20" transform="translate(1554.349609 0)"/>
     <use xlink:href="#DejaVuSans-44" transform="translate(1586.136719 0)"/>
     <use xlink:href="#DejaVuSans-69" transform="translate(1663.138672 0)"/>
     <use xlink:href="#DejaVuSans-73" transform="translate(1690.921875 0)"/>
     <use xlink:href="#DejaVuSans-74" transform="translate(1743.021484 0)"/>
     <use xlink:href="#DejaVuSans-72" transform="translate(1782.230469 0)"/>
     <use xlink:href="#DejaVuSans-69" transform="translate(1823.34375 0)"/>
     <use xlink:href="#DejaVuSans-63" transform="translate(1851.126953 0)"/>
     <use xlink:href="#DejaVuSans-74" transform="translate(1906.107422 0)"/>
    </g>
   </g>
  </g>
  <g id="text_62">
   <!-- Child Gender Ratio by District -->
   <g transform="translate(630.815625 37.918125) scale(0.12 -0.12)">
    <use xlink:href="#DejaVuSans-43"/>
    <use xlink:href="#DejaVuSans-68" transform="translate(69.824219 0)"/>
    <use xlink:href="#DejaVuSans-69" transform="translate(133.203125 0)"/>
    <use xlink:href="#DejaVuSans-6c" transform="translate(160.986328 0)"/>
    <use xlink:href="#DejaVuSans-64" transform="translate(188.769531 0)"/>
    <use xlink:href="#DejaVuSans-20" transform="translate(252.246094 0)"/>
    <use xlink:href="#DejaVuSans-47" transform="translate(284.033203 0)"/>
    <use xlink:href="#DejaVuSans-65" transform="translate(361.523438 0)"/>
    <use xlink:href="#DejaVuSans-6e" transform="translate(423.046875 0)"/>
    <use xlink:href="#DejaVuSans-64" transform="translate(486.425781 0)"/>
    <use xlink:href="#DejaVuSans-65" transform="translate(549.902344 0)"/>
    <use xlink:href="#DejaVuSans-72" transform="translate(611.425781 0)"/>
    <use xlink:href="#DejaVuSans-20" transform="translate(652.539062 0)"/>
    <use xlink:href="#DejaVuSans-52" transform="translate(684.326172 0)"/>
    <use xlink:href="#DejaVuSans-61" transform="translate(751.558594 0)"/>
    <use xlink:href="#DejaVuSans-74" transform="translate(812.837891 0)"/>
    <use xlink:href="#DejaVuSans-69" transform="translate(852.046875 0)"/>
    <use xlink:href="#DejaVuSans-6f" transform="translate(879.830078 0)"/>
    <use xlink:href="#DejaVuSans-20" transform="translate(941.011719 0)"/>
    <use xlink:href="#DejaVuSans-62" transform="translate(972.798828 0)"/>
    <use xlink:href="#DejaVuSans-79" transform="translate(1036.275391 0)"/>
    <use xlink:href="#DejaVuSans-20" transform="translate(1095.455078 0)"/>
    <use xlink:href="#DejaVuSans-44" transform="translate(1127.242188 0)"/>
    <use xlink:href="#DejaVuSans-69" transform="translate(1204.244141 0)"/>
    <use xlink:href="#DejaVuSans-73" transform="translate(1232.027344 0)"/>
    <use xlink:href="#DejaVuSans-74" transform="translate(1284.126953 0)"/>
    <use xlink:href="#DejaVuSans-72" transform="translate(1323.335938 0)"/>
    <use xlink:href="#DejaVuSans-69" transform="translate(1364.449219 0)"/>
    <use xlink:href="#DejaVuSans-63" transform="translate(1392.232422 0)"/>
    <use xlink:href="#DejaVuSans-74" transform="translate(1447.212891 0)"/>
   </g>
  </g>
 </g>
 <defs>
  <clipPath id="pfd5ba0d4e8">
   <rect x="111.71" y="50.64" width="608.930844" height="1347.4"/>
  </clipPath>
  <clipPath id="p8063f0c28c">
   <rect x="815.895" y="50.64" width="608.930844" height="1347.4"/>
  </clipPath>
 </defs>
</svg>
