<?xml version="1.0" encoding="utf-8" standalone="no"?>
<!DOCTYPE svg PUBLIC "-//W3C//DTD SVG 1.1//EN"
  "http://www.w3.org/Graphics/SVG/1.1/DTD/svg11.dtd">
<svg xmlns:xlink="http://www.w3.org/1999/xlink" width="1440pt" height="288pt" viewBox="0 0 1440 288" xmlns="http://www.w3.org/2000/svg" version="1.1">
 <metadata>
  <rdf:RDF xmlns:dc="http://purl.org/dc/elements/1.1/" xmlns:cc="http://creativecommons.org/ns#" xmlns:rdf="http://www.w3.org/1999/02/22-rdf-syntax-ns#">
   <cc:Work>
    <dc:type rdf:resource="http://purl.org/dc/dcmitype/StillImage"/>
    <dc:date>2025-01-01T18:59:23.506982</dc:date>
    <dc:format>image/svg+xml</dc:format>
    <dc:creator>
     <cc:Agent>
      <dc:title>Matplotlib v3.10.0, https://matplotlib.org/</dc:title>
     </cc:Agent>
    </dc:creator>
   </cc:Work>
  </rdf:RDF>
 </metadata>
 <defs>
  <style type="text/css">*{stroke-linejoin: round; stroke-linecap: butt}</style>
 </defs>
 <g id="figure_1">
  <g id="patch_1">
   <path d="M 0 288 
L 1440 288 
L 1440 0 
L 0 0 
z
" style="fill: #ffffff"/>
  </g>
  <g id="axes_1">
   <g id="patch_2">
    <path d="M 47.72 246.04 
L 476.4 246.04 
L 476.4 26.88 
L 47.72 26.88 
z
" style="fill: #ffffff"/>
   </g>
   <g id="patch_3">
    <path d="M 67.205455 246.04 
L 72.507619 246.04 
L 72.507619 37.31619 
L 67.205455 37.31619 
z
" clip-path="url(#p41e072093e)" style="fill: #1f77b4"/>
   </g>
   <g id="patch_4">
    <path d="M 73.83316 246.04 
L 79.135325 246.04 
L 79.135325 192.4036 
L 73.83316 192.4036 
z
" clip-path="url(#p41e072093e)" style="fill: #1f77b4"/>
   </g>
   <g id="patch_5">
    <path d="M 80.460866 246.04 
L 85.76303 246.04 
L 85.76303 216.286096 
L 80.460866 216.286096 
z
" clip-path="url(#p41e072093e)" style="fill: #1f77b4"/>
   </g>
   <g id="patch_6">
    <path d="M 87.088571 246.04 
L 92.390736 246.04 
L 92.390736 220.866885 
L 87.088571 220.866885 
z
" clip-path="url(#p41e072093e)" style="fill: #1f77b4"/>
   </g>
   <g id="patch_7">
    <path d="M 93.716277 246.04 
L 99.018442 246.04 
L 99.018442 231.165129 
L 93.716277 231.165129 
z
" clip-path="url(#p41e072093e)" style="fill: #1f77b4"/>
   </g>
   <g id="patch_8">
    <path d="M 100.343983 246.04 
L 105.646147 246.04 
L 105.646147 233.202967 
L 100.343983 233.202967 
z
" clip-path="url(#p41e072093e)" style="fill: #1f77b4"/>
   </g>
   <g id="patch_9">
    <path d="M 106.971688 246.04 
L 112.273853 246.04 
L 112.273853 237.030944 
L 106.971688 237.030944 
z
" clip-path="url(#p41e072093e)" style="fill: #1f77b4"/>
   </g>
   <g id="patch_10">
    <path d="M 113.599394 246.04 
L 118.901558 246.04 
L 118.901558 240.228124 
L 113.599394 240.228124 
z
" clip-path="url(#p41e072093e)" style="fill: #1f77b4"/>
   </g>
   <g id="patch_11">
    <path d="M 120.2271 246.04 
L 125.529264 246.04 
L 125.529264 241.324845 
L 120.2271 241.324845 
z
" clip-path="url(#p41e072093e)" style="fill: #1f77b4"/>
   </g>
   <g id="patch_12">
    <path d="M 126.854805 246.04 
L 132.15697 246.04 
L 132.15697 242.018061 
L 126.854805 242.018061 
z
" clip-path="url(#p41e072093e)" style="fill: #1f77b4"/>
   </g>
   <g id="patch_13">
    <path d="M 133.482511 246.04 
L 138.784675 246.04 
L 138.784675 242.801804 
L 133.482511 242.801804 
z
" clip-path="url(#p41e072093e)" style="fill: #1f77b4"/>
   </g>
   <g id="patch_14">
    <path d="M 140.110216 246.04 
L 145.412381 246.04 
L 145.412381 243.261935 
L 140.110216 243.261935 
z
" clip-path="url(#p41e072093e)" style="fill: #1f77b4"/>
   </g>
   <g id="patch_15">
    <path d="M 146.737922 246.04 
L 152.040087 246.04 
L 152.040087 243.787328 
L 146.737922 243.787328 
z
" clip-path="url(#p41e072093e)" style="fill: #1f77b4"/>
   </g>
   <g id="patch_16">
    <path d="M 153.365628 246.04 
L 158.667792 246.04 
L 158.667792 244.100496 
L 153.365628 244.100496 
z
" clip-path="url(#p41e072093e)" style="fill: #1f77b4"/>
   </g>
   <g id="patch_17">
    <path d="M 159.993333 246.04 
L 165.295498 246.04 
L 165.295498 244.232518 
L 159.993333 244.232518 
z
" clip-path="url(#p41e072093e)" style="fill: #1f77b4"/>
   </g>
   <g id="patch_18">
    <path d="M 166.621039 246.04 
L 171.923203 246.04 
L 171.923203 244.828326 
L 166.621039 244.828326 
z
" clip-path="url(#p41e072093e)" style="fill: #1f77b4"/>
   </g>
   <g id="patch_19">
    <path d="M 173.248745 246.04 
L 178.550909 246.04 
L 178.550909 245.196085 
L 173.248745 245.196085 
z
" clip-path="url(#p41e072093e)" style="fill: #1f77b4"/>
   </g>
   <g id="patch_20">
    <path d="M 179.87645 246.04 
L 185.178615 246.04 
L 185.178615 245.30946 
L 179.87645 245.30946 
z
" clip-path="url(#p41e072093e)" style="fill: #1f77b4"/>
   </g>
   <g id="patch_21">
    <path d="M 186.504156 246.04 
L 191.80632 246.04 
L 191.80632 245.36148 
L 186.504156 245.36148 
z
" clip-path="url(#p41e072093e)" style="fill: #1f77b4"/>
   </g>
   <g id="patch_22">
    <path d="M 193.131861 246.04 
L 198.434026 246.04 
L 198.434026 245.402428 
L 193.131861 245.402428 
z
" clip-path="url(#p41e072093e)" style="fill: #1f77b4"/>
   </g>
   <g id="patch_23">
    <path d="M 199.759567 246.04 
L 205.061732 246.04 
L 205.061732 245.527722 
L 199.759567 245.527722 
z
" clip-path="url(#p41e072093e)" style="fill: #1f77b4"/>
   </g>
   <g id="patch_24">
    <path d="M 206.387273 246.04 
L 211.689437 246.04 
L 211.689437 245.673466 
L 206.387273 245.673466 
z
" clip-path="url(#p41e072093e)" style="fill: #1f77b4"/>
   </g>
   <g id="patch_25">
    <path d="M 213.014978 246.04 
L 218.317143 246.04 
L 218.317143 245.749051 
L 213.014978 245.749051 
z
" clip-path="url(#p41e072093e)" style="fill: #1f77b4"/>
   </g>
   <g id="patch_26">
    <path d="M 219.642684 246.04 
L 224.944848 246.04 
L 224.944848 245.79199 
L 219.642684 245.79199 
z
" clip-path="url(#p41e072093e)" style="fill: #1f77b4"/>
   </g>
   <g id="patch_27">
    <path d="M 226.27039 246.04 
L 231.572554 246.04 
L 231.572554 245.845665 
L 226.27039 245.845665 
z
" clip-path="url(#p41e072093e)" style="fill: #1f77b4"/>
   </g>
   <g id="patch_28">
    <path d="M 232.898095 246.04 
L 238.20026 246.04 
L 238.20026 245.862782 
L 232.898095 245.862782 
z
" clip-path="url(#p41e072093e)" style="fill: #1f77b4"/>
   </g>
   <g id="patch_29">
    <path d="M 239.525801 246.04 
L 244.827965 246.04 
L 244.827965 245.886462 
L 239.525801 245.886462 
z
" clip-path="url(#p41e072093e)" style="fill: #1f77b4"/>
   </g>
   <g id="patch_30">
    <path d="M 246.153506 246.04 
L 251.455671 246.04 
L 251.455671 245.945938 
L 246.153506 245.945938 
z
" clip-path="url(#p41e072093e)" style="fill: #1f77b4"/>
   </g>
   <g id="patch_31">
    <path d="M 252.781212 246.04 
L 258.083377 246.04 
L 258.083377 245.967321 
L 252.781212 245.967321 
z
" clip-path="url(#p41e072093e)" style="fill: #1f77b4"/>
   </g>
   <g id="patch_32">
    <path d="M 259.408918 246.04 
L 264.711082 246.04 
L 264.711082 245.979167 
L 259.408918 245.979167 
z
" clip-path="url(#p41e072093e)" style="fill: #1f77b4"/>
   </g>
   <g id="patch_33">
    <path d="M 266.036623 246.04 
L 271.338788 246.04 
L 271.338788 245.985822 
L 266.036623 245.985822 
z
" clip-path="url(#p41e072093e)" style="fill: #1f77b4"/>
   </g>
   <g id="patch_34">
    <path d="M 272.664329 246.04 
L 277.966494 246.04 
L 277.966494 245.990134 
L 272.664329 245.990134 
z
" clip-path="url(#p41e072093e)" style="fill: #1f77b4"/>
   </g>
   <g id="patch_35">
    <path d="M 279.292035 246.04 
L 284.594199 246.04 
L 284.594199 246.007101 
L 279.292035 246.007101 
z
" clip-path="url(#p41e072093e)" style="fill: #1f77b4"/>
   </g>
   <g id="patch_36">
    <path d="M 285.91974 246.04 
L 291.221905 246.04 
L 291.221905 246.01053 
L 285.91974 246.01053 
z
" clip-path="url(#p41e072093e)" style="fill: #1f77b4"/>
   </g>
   <g id="patch_37">
    <path d="M 292.547446 246.04 
L 297.84961 246.04 
L 297.84961 246.023523 
L 292.547446 246.023523 
z
" clip-path="url(#p41e072093e)" style="fill: #1f77b4"/>
   </g>
   <g id="patch_38">
    <path d="M 299.175152 246.04 
L 304.477316 246.04 
L 304.477316 246.03304 
L 299.175152 246.03304 
z
" clip-path="url(#p41e072093e)" style="fill: #1f77b4"/>
   </g>
   <g id="patch_39">
    <path d="M 305.802857 246.04 
L 311.105022 246.04 
L 311.105022 246.035337 
L 305.802857 246.035337 
z
" clip-path="url(#p41e072093e)" style="fill: #1f77b4"/>
   </g>
   <g id="patch_40">
    <path d="M 312.430563 246.04 
L 317.732727 246.04 
L 317.732727 246.04 
L 312.430563 246.04 
z
" clip-path="url(#p41e072093e)" style="fill: #1f77b4"/>
   </g>
   <g id="patch_41">
    <path d="M 319.058268 246.04 
L 324.360433 246.04 
L 324.360433 246.04 
L 319.058268 246.04 
z
" clip-path="url(#p41e072093e)" style="fill: #1f77b4"/>
   </g>
   <g id="patch_42">
    <path d="M 325.685974 246.04 
L 330.988139 246.04 
L 330.988139 246.04 
L 325.685974 246.04 
z
" clip-path="url(#p41e072093e)" style="fill: #1f77b4"/>
   </g>
   <g id="patch_43">
    <path d="M 332.31368 246.04 
L 337.615844 246.04 
L 337.615844 246.04 
L 332.31368 246.04 
z
" clip-path="url(#p41e072093e)" style="fill: #1f77b4"/>
   </g>
   <g id="patch_44">
    <path d="M 338.941385 246.04 
L 344.24355 246.04 
L 344.24355 246.04 
L 338.941385 246.04 
z
" clip-path="url(#p41e072093e)" style="fill: #1f77b4"/>
   </g>
   <g id="patch_45">
    <path d="M 345.569091 246.04 
L 350.871255 246.04 
L 350.871255 246.04 
L 345.569091 246.04 
z
" clip-path="url(#p41e072093e)" style="fill: #1f77b4"/>
   </g>
   <g id="patch_46">
    <path d="M 352.196797 246.04 
L 357.498961 246.04 
L 357.498961 246.04 
L 352.196797 246.04 
z
" clip-path="url(#p41e072093e)" style="fill: #1f77b4"/>
   </g>
   <g id="patch_47">
    <path d="M 358.824502 246.04 
L 364.126667 246.04 
L 364.126667 246.04 
L 358.824502 246.04 
z
" clip-path="url(#p41e072093e)" style="fill: #1f77b4"/>
   </g>
   <g id="patch_48">
    <path d="M 365.452208 246.04 
L 370.754372 246.04 
L 370.754372 246.04 
L 365.452208 246.04 
z
" clip-path="url(#p41e072093e)" style="fill: #1f77b4"/>
   </g>
   <g id="patch_49">
    <path d="M 372.079913 246.04 
L 377.382078 246.04 
L 377.382078 246.04 
L 372.079913 246.04 
z
" clip-path="url(#p41e072093e)" style="fill: #1f77b4"/>
   </g>
   <g id="patch_50">
    <path d="M 378.707619 246.04 
L 384.009784 246.04 
L 384.009784 246.04 
L 378.707619 246.04 
z
" clip-path="url(#p41e072093e)" style="fill: #1f77b4"/>
   </g>
   <g id="patch_51">
    <path d="M 385.335325 246.04 
L 390.637489 246.04 
L 390.637489 246.04 
L 385.335325 246.04 
z
" clip-path="url(#p41e072093e)" style="fill: #1f77b4"/>
   </g>
   <g id="patch_52">
    <path d="M 391.96303 246.04 
L 397.265195 246.04 
L 397.265195 246.04 
L 391.96303 246.04 
z
" clip-path="url(#p41e072093e)" style="fill: #1f77b4"/>
   </g>
   <g id="patch_53">
    <path d="M 398.590736 246.04 
L 403.8929 246.04 
L 403.8929 246.04 
L 398.590736 246.04 
z
" clip-path="url(#p41e072093e)" style="fill: #1f77b4"/>
   </g>
   <g id="patch_54">
    <path d="M 405.218442 246.04 
L 410.520606 246.04 
L 410.520606 246.04 
L 405.218442 246.04 
z
" clip-path="url(#p41e072093e)" style="fill: #1f77b4"/>
   </g>
   <g id="patch_55">
    <path d="M 411.846147 246.04 
L 417.148312 246.04 
L 417.148312 246.04 
L 411.846147 246.04 
z
" clip-path="url(#p41e072093e)" style="fill: #1f77b4"/>
   </g>
   <g id="patch_56">
    <path d="M 418.473853 246.04 
L 423.776017 246.04 
L 423.776017 246.04 
L 418.473853 246.04 
z
" clip-path="url(#p41e072093e)" style="fill: #1f77b4"/>
   </g>
   <g id="patch_57">
    <path d="M 425.101558 246.04 
L 430.403723 246.04 
L 430.403723 246.04 
L 425.101558 246.04 
z
" clip-path="url(#p41e072093e)" style="fill: #1f77b4"/>
   </g>
   <g id="patch_58">
    <path d="M 431.729264 246.04 
L 437.031429 246.04 
L 437.031429 246.04 
L 431.729264 246.04 
z
" clip-path="url(#p41e072093e)" style="fill: #1f77b4"/>
   </g>
   <g id="patch_59">
    <path d="M 438.35697 246.04 
L 443.659134 246.04 
L 443.659134 246.04 
L 438.35697 246.04 
z
" clip-path="url(#p41e072093e)" style="fill: #1f77b4"/>
   </g>
   <g id="patch_60">
    <path d="M 444.984675 246.04 
L 450.28684 246.04 
L 450.28684 246.04 
L 444.984675 246.04 
z
" clip-path="url(#p41e072093e)" style="fill: #1f77b4"/>
   </g>
   <g id="patch_61">
    <path d="M 451.612381 246.04 
L 456.914545 246.04 
L 456.914545 246.04 
L 451.612381 246.04 
z
" clip-path="url(#p41e072093e)" style="fill: #1f77b4"/>
   </g>
   <g id="matplotlib.axis_1">
    <g id="xtick_1">
     <g id="line2d_1">
      <defs>
       <path id="mdf82a1f74b" d="M 0 0 
L 0 3.5 
" style="stroke: #000000; stroke-width: 0.8"/>
      </defs>
      <g>
       <use xlink:href="#mdf82a1f74b" x="63.228831" y="246.04" style="stroke: #000000; stroke-width: 0.8"/>
      </g>
     </g>
     <g id="text_1">
      <!-- 0 -->
      <g transform="translate(60.047581 260.638438) scale(0.1 -0.1)">
       <defs>
        <path id="DejaVuSans-30" d="M 2034 4250 
Q 1547 4250 1301 3770 
Q 1056 3291 1056 2328 
Q 1056 1369 1301 889 
Q 1547 409 2034 409 
Q 2525 409 2770 889 
Q 3016 1369 3016 2328 
Q 3016 3291 2770 3770 
Q 2525 4250 2034 4250 
z
M 2034 4750 
Q 2819 4750 3233 4129 
Q 3647 3509 3647 2328 
Q 3647 1150 3233 529 
Q 2819 -91 2034 -91 
Q 1250 -91 836 529 
Q 422 1150 422 2328 
Q 422 3509 836 4129 
Q 1250 4750 2034 4750 
z
" transform="scale(0.015625)"/>
       </defs>
       <use xlink:href="#DejaVuSans-30"/>
      </g>
     </g>
    </g>
    <g id="xtick_2">
     <g id="line2d_2">
      <g>
       <use xlink:href="#mdf82a1f74b" x="129.505887" y="246.04" style="stroke: #000000; stroke-width: 0.8"/>
      </g>
     </g>
     <g id="text_2">
      <!-- 10 -->
      <g transform="translate(123.143387 260.638438) scale(0.1 -0.1)">
       <defs>
        <path id="DejaVuSans-31" d="M 794 531 
L 1825 531 
L 1825 4091 
L 703 3866 
L 703 4441 
L 1819 4666 
L 2450 4666 
L 2450 531 
L 3481 531 
L 3481 0 
L 794 0 
L 794 531 
z
" transform="scale(0.015625)"/>
       </defs>
       <use xlink:href="#DejaVuSans-31"/>
       <use xlink:href="#DejaVuSans-30" transform="translate(63.623047 0)"/>
      </g>
     </g>
    </g>
    <g id="xtick_3">
     <g id="line2d_3">
      <g>
       <use xlink:href="#mdf82a1f74b" x="195.782944" y="246.04" style="stroke: #000000; stroke-width: 0.8"/>
      </g>
     </g>
     <g id="text_3">
      <!-- 20 -->
      <g transform="translate(189.420444 260.638438) scale(0.1 -0.1)">
       <defs>
        <path id="DejaVuSans-32" d="M 1228 531 
L 3431 531 
L 3431 0 
L 469 0 
L 469 531 
Q 828 903 1448 1529 
Q 2069 2156 2228 2338 
Q 2531 2678 2651 2914 
Q 2772 3150 2772 3378 
Q 2772 3750 2511 3984 
Q 2250 4219 1831 4219 
Q 1534 4219 1204 4116 
Q 875 4013 500 3803 
L 500 4441 
Q 881 4594 1212 4672 
Q 1544 4750 1819 4750 
Q 2544 4750 2975 4387 
Q 3406 4025 3406 3419 
Q 3406 3131 3298 2873 
Q 3191 2616 2906 2266 
Q 2828 2175 2409 1742 
Q 1991 1309 1228 531 
z
" transform="scale(0.015625)"/>
       </defs>
       <use xlink:href="#DejaVuSans-32"/>
       <use xlink:href="#DejaVuSans-30" transform="translate(63.623047 0)"/>
      </g>
     </g>
    </g>
    <g id="xtick_4">
     <g id="line2d_4">
      <g>
       <use xlink:href="#mdf82a1f74b" x="262.06" y="246.04" style="stroke: #000000; stroke-width: 0.8"/>
      </g>
     </g>
     <g id="text_4">
      <!-- 30 -->
      <g transform="translate(255.6975 260.638438) scale(0.1 -0.1)">
       <defs>
        <path id="DejaVuSans-33" d="M 2597 2516 
Q 3050 2419 3304 2112 
Q 3559 1806 3559 1356 
Q 3559 666 3084 287 
Q 2609 -91 1734 -91 
Q 1441 -91 1130 -33 
Q 819 25 488 141 
L 488 750 
Q 750 597 1062 519 
Q 1375 441 1716 441 
Q 2309 441 2620 675 
Q 2931 909 2931 1356 
Q 2931 1769 2642 2001 
Q 2353 2234 1838 2234 
L 1294 2234 
L 1294 2753 
L 1863 2753 
Q 2328 2753 2575 2939 
Q 2822 3125 2822 3475 
Q 2822 3834 2567 4026 
Q 2313 4219 1838 4219 
Q 1578 4219 1281 4162 
Q 984 4106 628 3988 
L 628 4550 
Q 988 4650 1302 4700 
Q 1616 4750 1894 4750 
Q 2613 4750 3031 4423 
Q 3450 4097 3450 3541 
Q 3450 3153 3228 2886 
Q 3006 2619 2597 2516 
z
" transform="scale(0.015625)"/>
       </defs>
       <use xlink:href="#DejaVuSans-33"/>
       <use xlink:href="#DejaVuSans-30" transform="translate(63.623047 0)"/>
      </g>
     </g>
    </g>
    <g id="xtick_5">
     <g id="line2d_5">
      <g>
       <use xlink:href="#mdf82a1f74b" x="328.337056" y="246.04" style="stroke: #000000; stroke-width: 0.8"/>
      </g>
     </g>
     <g id="text_5">
      <!-- 40 -->
      <g transform="translate(321.974556 260.638438) scale(0.1 -0.1)">
       <defs>
        <path id="DejaVuSans-34" d="M 2419 4116 
L 825 1625 
L 2419 1625 
L 2419 4116 
z
M 2253 4666 
L 3047 4666 
L 3047 1625 
L 3713 1625 
L 3713 1100 
L 3047 1100 
L 3047 0 
L 2419 0 
L 2419 1100 
L 313 1100 
L 313 1709 
L 2253 4666 
z
" transform="scale(0.015625)"/>
       </defs>
       <use xlink:href="#DejaVuSans-34"/>
       <use xlink:href="#DejaVuSans-30" transform="translate(63.623047 0)"/>
      </g>
     </g>
    </g>
    <g id="xtick_6">
     <g id="line2d_6">
      <g>
       <use xlink:href="#mdf82a1f74b" x="394.614113" y="246.04" style="stroke: #000000; stroke-width: 0.8"/>
      </g>
     </g>
     <g id="text_6">
      <!-- 50 -->
      <g transform="translate(388.251613 260.638438) scale(0.1 -0.1)">
       <defs>
        <path id="DejaVuSans-35" d="M 691 4666 
L 3169 4666 
L 3169 4134 
L 1269 4134 
L 1269 2991 
Q 1406 3038 1543 3061 
Q 1681 3084 1819 3084 
Q 2600 3084 3056 2656 
Q 3513 2228 3513 1497 
Q 3513 744 3044 326 
Q 2575 -91 1722 -91 
Q 1428 -91 1123 -41 
Q 819 9 494 109 
L 494 744 
Q 775 591 1075 516 
Q 1375 441 1709 441 
Q 2250 441 2565 725 
Q 2881 1009 2881 1497 
Q 2881 1984 2565 2268 
Q 2250 2553 1709 2553 
Q 1456 2553 1204 2497 
Q 953 2441 691 2322 
L 691 4666 
z
" transform="scale(0.015625)"/>
       </defs>
       <use xlink:href="#DejaVuSans-35"/>
       <use xlink:href="#DejaVuSans-30" transform="translate(63.623047 0)"/>
      </g>
     </g>
    </g>
    <g id="xtick_7">
     <g id="line2d_7">
      <g>
       <use xlink:href="#mdf82a1f74b" x="460.891169" y="246.04" style="stroke: #000000; stroke-width: 0.8"/>
      </g>
     </g>
     <g id="text_7">
      <!-- 60 -->
      <g transform="translate(454.528669 260.638438) scale(0.1 -0.1)">
       <defs>
        <path id="DejaVuSans-36" d="M 2113 2584 
Q 1688 2584 1439 2293 
Q 1191 2003 1191 1497 
Q 1191 994 1439 701 
Q 1688 409 2113 409 
Q 2538 409 2786 701 
Q 3034 994 3034 1497 
Q 3034 2003 2786 2293 
Q 2538 2584 2113 2584 
z
M 3366 4563 
L 3366 3988 
Q 3128 4100 2886 4159 
Q 2644 4219 2406 4219 
Q 1781 4219 1451 3797 
Q 1122 3375 1075 2522 
Q 1259 2794 1537 2939 
Q 1816 3084 2150 3084 
Q 2853 3084 3261 2657 
Q 3669 2231 3669 1497 
Q 3669 778 3244 343 
Q 2819 -91 2113 -91 
Q 1303 -91 875 529 
Q 447 1150 447 2328 
Q 447 3434 972 4092 
Q 1497 4750 2381 4750 
Q 2619 4750 2861 4703 
Q 3103 4656 3366 4563 
z
" transform="scale(0.015625)"/>
       </defs>
       <use xlink:href="#DejaVuSans-36"/>
       <use xlink:href="#DejaVuSans-30" transform="translate(63.623047 0)"/>
      </g>
     </g>
    </g>
    <g id="text_8">
     <!-- Principal Components -->
     <g transform="translate(207.531094 274.316562) scale(0.1 -0.1)">
      <defs>
       <path id="DejaVuSans-50" d="M 1259 4147 
L 1259 2394 
L 2053 2394 
Q 2494 2394 2734 2622 
Q 2975 2850 2975 3272 
Q 2975 3691 2734 3919 
Q 2494 4147 2053 4147 
L 1259 4147 
z
M 628 4666 
L 2053 4666 
Q 2838 4666 3239 4311 
Q 3641 3956 3641 3272 
Q 3641 2581 3239 2228 
Q 2838 1875 2053 1875 
L 1259 1875 
L 1259 0 
L 628 0 
L 628 4666 
z
" transform="scale(0.015625)"/>
       <path id="DejaVuSans-72" d="M 2631 2963 
Q 2534 3019 2420 3045 
Q 2306 3072 2169 3072 
Q 1681 3072 1420 2755 
Q 1159 2438 1159 1844 
L 1159 0 
L 581 0 
L 581 3500 
L 1159 3500 
L 1159 2956 
Q 1341 3275 1631 3429 
Q 1922 3584 2338 3584 
Q 2397 3584 2469 3576 
Q 2541 3569 2628 3553 
L 2631 2963 
z
" transform="scale(0.015625)"/>
       <path id="DejaVuSans-69" d="M 603 3500 
L 1178 3500 
L 1178 0 
L 603 0 
L 603 3500 
z
M 603 4863 
L 1178 4863 
L 1178 4134 
L 603 4134 
L 603 4863 
z
" transform="scale(0.015625)"/>
       <path id="DejaVuSans-6e" d="M 3513 2113 
L 3513 0 
L 2938 0 
L 2938 2094 
Q 2938 2591 2744 2837 
Q 2550 3084 2163 3084 
Q 1697 3084 1428 2787 
Q 1159 2491 1159 1978 
L 1159 0 
L 581 0 
L 581 3500 
L 1159 3500 
L 1159 2956 
Q 1366 3272 1645 3428 
Q 1925 3584 2291 3584 
Q 2894 3584 3203 3211 
Q 3513 2838 3513 2113 
z
" transform="scale(0.015625)"/>
       <path id="DejaVuSans-63" d="M 3122 3366 
L 3122 2828 
Q 2878 2963 2633 3030 
Q 2388 3097 2138 3097 
Q 1578 3097 1268 2742 
Q 959 2388 959 1747 
Q 959 1106 1268 751 
Q 1578 397 2138 397 
Q 2388 397 2633 464 
Q 2878 531 3122 666 
L 3122 134 
Q 2881 22 2623 -34 
Q 2366 -91 2075 -91 
Q 1284 -91 818 406 
Q 353 903 353 1747 
Q 353 2603 823 3093 
Q 1294 3584 2113 3584 
Q 2378 3584 2631 3529 
Q 2884 3475 3122 3366 
z
" transform="scale(0.015625)"/>
       <path id="DejaVuSans-70" d="M 1159 525 
L 1159 -1331 
L 581 -1331 
L 581 3500 
L 1159 3500 
L 1159 2969 
Q 1341 3281 1617 3432 
Q 1894 3584 2278 3584 
Q 2916 3584 3314 3078 
Q 3713 2572 3713 1747 
Q 3713 922 3314 415 
Q 2916 -91 2278 -91 
Q 1894 -91 1617 61 
Q 1341 213 1159 525 
z
M 3116 1747 
Q 3116 2381 2855 2742 
Q 2594 3103 2138 3103 
Q 1681 3103 1420 2742 
Q 1159 2381 1159 1747 
Q 1159 1113 1420 752 
Q 1681 391 2138 391 
Q 2594 391 2855 752 
Q 3116 1113 3116 1747 
z
" transform="scale(0.015625)"/>
       <path id="DejaVuSans-61" d="M 2194 1759 
Q 1497 1759 1228 1600 
Q 959 1441 959 1056 
Q 959 750 1161 570 
Q 1363 391 1709 391 
Q 2188 391 2477 730 
Q 2766 1069 2766 1631 
L 2766 1759 
L 2194 1759 
z
M 3341 1997 
L 3341 0 
L 2766 0 
L 2766 531 
Q 2569 213 2275 61 
Q 1981 -91 1556 -91 
Q 1019 -91 701 211 
Q 384 513 384 1019 
Q 384 1609 779 1909 
Q 1175 2209 1959 2209 
L 2766 2209 
L 2766 2266 
Q 2766 2663 2505 2880 
Q 2244 3097 1772 3097 
Q 1472 3097 1187 3025 
Q 903 2953 641 2809 
L 641 3341 
Q 956 3463 1253 3523 
Q 1550 3584 1831 3584 
Q 2591 3584 2966 3190 
Q 3341 2797 3341 1997 
z
" transform="scale(0.015625)"/>
       <path id="DejaVuSans-6c" d="M 603 4863 
L 1178 4863 
L 1178 0 
L 603 0 
L 603 4863 
z
" transform="scale(0.015625)"/>
       <path id="DejaVuSans-20" transform="scale(0.015625)"/>
       <path id="DejaVuSans-43" d="M 4122 4306 
L 4122 3641 
Q 3803 3938 3442 4084 
Q 3081 4231 2675 4231 
Q 1875 4231 1450 3742 
Q 1025 3253 1025 2328 
Q 1025 1406 1450 917 
Q 1875 428 2675 428 
Q 3081 428 3442 575 
Q 3803 722 4122 1019 
L 4122 359 
Q 3791 134 3420 21 
Q 3050 -91 2638 -91 
Q 1578 -91 968 557 
Q 359 1206 359 2328 
Q 359 3453 968 4101 
Q 1578 4750 2638 4750 
Q 3056 4750 3426 4639 
Q 3797 4528 4122 4306 
z
" transform="scale(0.015625)"/>
       <path id="DejaVuSans-6f" d="M 1959 3097 
Q 1497 3097 1228 2736 
Q 959 2375 959 1747 
Q 959 1119 1226 758 
Q 1494 397 1959 397 
Q 2419 397 2687 759 
Q 2956 1122 2956 1747 
Q 2956 2369 2687 2733 
Q 2419 3097 1959 3097 
z
M 1959 3584 
Q 2709 3584 3137 3096 
Q 3566 2609 3566 1747 
Q 3566 888 3137 398 
Q 2709 -91 1959 -91 
Q 1206 -91 779 398 
Q 353 888 353 1747 
Q 353 2609 779 3096 
Q 1206 3584 1959 3584 
z
" transform="scale(0.015625)"/>
       <path id="DejaVuSans-6d" d="M 3328 2828 
Q 3544 3216 3844 3400 
Q 4144 3584 4550 3584 
Q 5097 3584 5394 3201 
Q 5691 2819 5691 2113 
L 5691 0 
L 5113 0 
L 5113 2094 
Q 5113 2597 4934 2840 
Q 4756 3084 4391 3084 
Q 3944 3084 3684 2787 
Q 3425 2491 3425 1978 
L 3425 0 
L 2847 0 
L 2847 2094 
Q 2847 2600 2669 2842 
Q 2491 3084 2119 3084 
Q 1678 3084 1418 2786 
Q 1159 2488 1159 1978 
L 1159 0 
L 581 0 
L 581 3500 
L 1159 3500 
L 1159 2956 
Q 1356 3278 1631 3431 
Q 1906 3584 2284 3584 
Q 2666 3584 2933 3390 
Q 3200 3197 3328 2828 
z
" transform="scale(0.015625)"/>
       <path id="DejaVuSans-65" d="M 3597 1894 
L 3597 1613 
L 953 1613 
Q 991 1019 1311 708 
Q 1631 397 2203 397 
Q 2534 397 2845 478 
Q 3156 559 3463 722 
L 3463 178 
Q 3153 47 2828 -22 
Q 2503 -91 2169 -91 
Q 1331 -91 842 396 
Q 353 884 353 1716 
Q 353 2575 817 3079 
Q 1281 3584 2069 3584 
Q 2775 3584 3186 3129 
Q 3597 2675 3597 1894 
z
M 3022 2063 
Q 3016 2534 2758 2815 
Q 2500 3097 2075 3097 
Q 1594 3097 1305 2825 
Q 1016 2553 972 2059 
L 3022 2063 
z
" transform="scale(0.015625)"/>
       <path id="DejaVuSans-74" d="M 1172 4494 
L 1172 3500 
L 2356 3500 
L 2356 3053 
L 1172 3053 
L 1172 1153 
Q 1172 725 1289 603 
Q 1406 481 1766 481 
L 2356 481 
L 2356 0 
L 1766 0 
Q 1100 0 847 248 
Q 594 497 594 1153 
L 594 3053 
L 172 3053 
L 172 3500 
L 594 3500 
L 594 4494 
L 1172 4494 
z
" transform="scale(0.015625)"/>
       <path id="DejaVuSans-73" d="M 2834 3397 
L 2834 2853 
Q 2591 2978 2328 3040 
Q 2066 3103 1784 3103 
Q 1356 3103 1142 2972 
Q 928 2841 928 2578 
Q 928 2378 1081 2264 
Q 1234 2150 1697 2047 
L 1894 2003 
Q 2506 1872 2764 1633 
Q 3022 1394 3022 966 
Q 3022 478 2636 193 
Q 2250 -91 1575 -91 
Q 1294 -91 989 -36 
Q 684 19 347 128 
L 347 722 
Q 666 556 975 473 
Q 1284 391 1588 391 
Q 1994 391 2212 530 
Q 2431 669 2431 922 
Q 2431 1156 2273 1281 
Q 2116 1406 1581 1522 
L 1381 1569 
Q 847 1681 609 1914 
Q 372 2147 372 2553 
Q 372 3047 722 3315 
Q 1072 3584 1716 3584 
Q 2034 3584 2315 3537 
Q 2597 3491 2834 3397 
z
" transform="scale(0.015625)"/>
      </defs>
      <use xlink:href="#DejaVuSans-50"/>
      <use xlink:href="#DejaVuSans-72" transform="translate(58.552734 0)"/>
      <use xlink:href="#DejaVuSans-69" transform="translate(99.666016 0)"/>
      <use xlink:href="#DejaVuSans-6e" transform="translate(127.449219 0)"/>
      <use xlink:href="#DejaVuSans-63" transform="translate(190.828125 0)"/>
      <use xlink:href="#DejaVuSans-69" transform="translate(245.808594 0)"/>
      <use xlink:href="#DejaVuSans-70" transform="translate(273.591797 0)"/>
      <use xlink:href="#DejaVuSans-61" transform="translate(337.068359 0)"/>
      <use xlink:href="#DejaVuSans-6c" transform="translate(398.347656 0)"/>
      <use xlink:href="#DejaVuSans-20" transform="translate(426.130859 0)"/>
      <use xlink:href="#DejaVuSans-43" transform="translate(457.917969 0)"/>
      <use xlink:href="#DejaVuSans-6f" transform="translate(527.742188 0)"/>
      <use xlink:href="#DejaVuSans-6d" transform="translate(588.923828 0)"/>
      <use xlink:href="#DejaVuSans-70" transform="translate(686.335938 0)"/>
      <use xlink:href="#DejaVuSans-6f" transform="translate(749.8125 0)"/>
      <use xlink:href="#DejaVuSans-6e" transform="translate(810.994141 0)"/>
      <use xlink:href="#DejaVuSans-65" transform="translate(874.373047 0)"/>
      <use xlink:href="#DejaVuSans-6e" transform="translate(935.896484 0)"/>
      <use xlink:href="#DejaVuSans-74" transform="translate(999.275391 0)"/>
      <use xlink:href="#DejaVuSans-73" transform="translate(1038.484375 0)"/>
     </g>
    </g>
   </g>
   <g id="matplotlib.axis_2">
    <g id="ytick_1">
     <g id="line2d_8">
      <defs>
       <path id="m7ec878e32b" d="M 0 0 
L -3.5 0 
" style="stroke: #000000; stroke-width: 0.8"/>
      </defs>
      <g>
       <use xlink:href="#m7ec878e32b" x="47.72" y="246.04" style="stroke: #000000; stroke-width: 0.8"/>
      </g>
     </g>
     <g id="text_9">
      <!-- 0.0 -->
      <g transform="translate(24.816875 249.839219) scale(0.1 -0.1)">
       <defs>
        <path id="DejaVuSans-2e" d="M 684 794 
L 1344 794 
L 1344 0 
L 684 0 
L 684 794 
z
" transform="scale(0.015625)"/>
       </defs>
       <use xlink:href="#DejaVuSans-30"/>
       <use xlink:href="#DejaVuSans-2e" transform="translate(63.623047 0)"/>
       <use xlink:href="#DejaVuSans-30" transform="translate(95.410156 0)"/>
      </g>
     </g>
    </g>
    <g id="ytick_2">
     <g id="line2d_9">
      <g>
       <use xlink:href="#m7ec878e32b" x="47.72" y="207.335975" style="stroke: #000000; stroke-width: 0.8"/>
      </g>
     </g>
     <g id="text_10">
      <!-- 0.1 -->
      <g transform="translate(24.816875 211.135194) scale(0.1 -0.1)">
       <use xlink:href="#DejaVuSans-30"/>
       <use xlink:href="#DejaVuSans-2e" transform="translate(63.623047 0)"/>
       <use xlink:href="#DejaVuSans-31" transform="translate(95.410156 0)"/>
      </g>
     </g>
    </g>
    <g id="ytick_3">
     <g id="line2d_10">
      <g>
       <use xlink:href="#m7ec878e32b" x="47.72" y="168.63195" style="stroke: #000000; stroke-width: 0.8"/>
      </g>
     </g>
     <g id="text_11">
      <!-- 0.2 -->
      <g transform="translate(24.816875 172.431169) scale(0.1 -0.1)">
       <use xlink:href="#DejaVuSans-30"/>
       <use xlink:href="#DejaVuSans-2e" transform="translate(63.623047 0)"/>
       <use xlink:href="#DejaVuSans-32" transform="translate(95.410156 0)"/>
      </g>
     </g>
    </g>
    <g id="ytick_4">
     <g id="line2d_11">
      <g>
       <use xlink:href="#m7ec878e32b" x="47.72" y="129.927926" style="stroke: #000000; stroke-width: 0.8"/>
      </g>
     </g>
     <g id="text_12">
      <!-- 0.3 -->
      <g transform="translate(24.816875 133.727144) scale(0.1 -0.1)">
       <use xlink:href="#DejaVuSans-30"/>
       <use xlink:href="#DejaVuSans-2e" transform="translate(63.623047 0)"/>
       <use xlink:href="#DejaVuSans-33" transform="translate(95.410156 0)"/>
      </g>
     </g>
    </g>
    <g id="ytick_5">
     <g id="line2d_12">
      <g>
       <use xlink:href="#m7ec878e32b" x="47.72" y="91.223901" style="stroke: #000000; stroke-width: 0.8"/>
      </g>
     </g>
     <g id="text_13">
      <!-- 0.4 -->
      <g transform="translate(24.816875 95.023119) scale(0.1 -0.1)">
       <use xlink:href="#DejaVuSans-30"/>
       <use xlink:href="#DejaVuSans-2e" transform="translate(63.623047 0)"/>
       <use xlink:href="#DejaVuSans-34" transform="translate(95.410156 0)"/>
      </g>
     </g>
    </g>
    <g id="ytick_6">
     <g id="line2d_13">
      <g>
       <use xlink:href="#m7ec878e32b" x="47.72" y="52.519876" style="stroke: #000000; stroke-width: 0.8"/>
      </g>
     </g>
     <g id="text_14">
      <!-- 0.5 -->
      <g transform="translate(24.816875 56.319095) scale(0.1 -0.1)">
       <use xlink:href="#DejaVuSans-30"/>
       <use xlink:href="#DejaVuSans-2e" transform="translate(63.623047 0)"/>
       <use xlink:href="#DejaVuSans-35" transform="translate(95.410156 0)"/>
      </g>
     </g>
    </g>
    <g id="text_15">
     <!-- Explained Variance -->
     <g transform="translate(18.737187 184.20375) rotate(-90) scale(0.1 -0.1)">
      <defs>
       <path id="DejaVuSans-45" d="M 628 4666 
L 3578 4666 
L 3578 4134 
L 1259 4134 
L 1259 2753 
L 3481 2753 
L 3481 2222 
L 1259 2222 
L 1259 531 
L 3634 531 
L 3634 0 
L 628 0 
L 628 4666 
z
" transform="scale(0.015625)"/>
       <path id="DejaVuSans-78" d="M 3513 3500 
L 2247 1797 
L 3578 0 
L 2900 0 
L 1881 1375 
L 863 0 
L 184 0 
L 1544 1831 
L 300 3500 
L 978 3500 
L 1906 2253 
L 2834 3500 
L 3513 3500 
z
" transform="scale(0.015625)"/>
       <path id="DejaVuSans-64" d="M 2906 2969 
L 2906 4863 
L 3481 4863 
L 3481 0 
L 2906 0 
L 2906 525 
Q 2725 213 2448 61 
Q 2172 -91 1784 -91 
Q 1150 -91 751 415 
Q 353 922 353 1747 
Q 353 2572 751 3078 
Q 1150 3584 1784 3584 
Q 2172 3584 2448 3432 
Q 2725 3281 2906 2969 
z
M 947 1747 
Q 947 1113 1208 752 
Q 1469 391 1925 391 
Q 2381 391 2643 752 
Q 2906 1113 2906 1747 
Q 2906 2381 2643 2742 
Q 2381 3103 1925 3103 
Q 1469 3103 1208 2742 
Q 947 2381 947 1747 
z
" transform="scale(0.015625)"/>
       <path id="DejaVuSans-56" d="M 1831 0 
L 50 4666 
L 709 4666 
L 2188 738 
L 3669 4666 
L 4325 4666 
L 2547 0 
L 1831 0 
z
" transform="scale(0.015625)"/>
      </defs>
      <use xlink:href="#DejaVuSans-45"/>
      <use xlink:href="#DejaVuSans-78" transform="translate(63.183594 0)"/>
      <use xlink:href="#DejaVuSans-70" transform="translate(122.363281 0)"/>
      <use xlink:href="#DejaVuSans-6c" transform="translate(185.839844 0)"/>
      <use xlink:href="#DejaVuSans-61" transform="translate(213.623047 0)"/>
      <use xlink:href="#DejaVuSans-69" transform="translate(274.902344 0)"/>
      <use xlink:href="#DejaVuSans-6e" transform="translate(302.685547 0)"/>
      <use xlink:href="#DejaVuSans-65" transform="translate(366.064453 0)"/>
      <use xlink:href="#DejaVuSans-64" transform="translate(427.587891 0)"/>
      <use xlink:href="#DejaVuSans-20" transform="translate(491.064453 0)"/>
      <use xlink:href="#DejaVuSans-56" transform="translate(522.851562 0)"/>
      <use xlink:href="#DejaVuSans-61" transform="translate(583.509766 0)"/>
      <use xlink:href="#DejaVuSans-72" transform="translate(644.789062 0)"/>
      <use xlink:href="#DejaVuSans-69" transform="translate(685.902344 0)"/>
      <use xlink:href="#DejaVuSans-61" transform="translate(713.685547 0)"/>
      <use xlink:href="#DejaVuSans-6e" transform="translate(774.964844 0)"/>
      <use xlink:href="#DejaVuSans-63" transform="translate(838.34375 0)"/>
      <use xlink:href="#DejaVuSans-65" transform="translate(893.324219 0)"/>
     </g>
    </g>
   </g>
   <g id="patch_62">
    <path d="M 47.72 246.04 
L 47.72 26.88 
" style="fill: none; stroke: #000000; stroke-width: 0.8; stroke-linejoin: miter; stroke-linecap: square"/>
   </g>
   <g id="patch_63">
    <path d="M 476.4 246.04 
L 476.4 26.88 
" style="fill: none; stroke: #000000; stroke-width: 0.8; stroke-linejoin: miter; stroke-linecap: square"/>
   </g>
   <g id="patch_64">
    <path d="M 47.72 246.04 
L 476.4 246.04 
" style="fill: none; stroke: #000000; stroke-width: 0.8; stroke-linejoin: miter; stroke-linecap: square"/>
   </g>
   <g id="patch_65">
    <path d="M 47.72 26.88 
L 476.4 26.88 
" style="fill: none; stroke: #000000; stroke-width: 0.8; stroke-linejoin: miter; stroke-linecap: square"/>
   </g>
   <g id="text_16">
    <!-- Explained Variance Ratio -->
    <g transform="translate(187.459375 20.88) scale(0.12 -0.12)">
     <defs>
      <path id="DejaVuSans-52" d="M 2841 2188 
Q 3044 2119 3236 1894 
Q 3428 1669 3622 1275 
L 4263 0 
L 3584 0 
L 2988 1197 
Q 2756 1666 2539 1819 
Q 2322 1972 1947 1972 
L 1259 1972 
L 1259 0 
L 628 0 
L 628 4666 
L 2053 4666 
Q 2853 4666 3247 4331 
Q 3641 3997 3641 3322 
Q 3641 2881 3436 2590 
Q 3231 2300 2841 2188 
z
M 1259 4147 
L 1259 2491 
L 2053 2491 
Q 2509 2491 2742 2702 
Q 2975 2913 2975 3322 
Q 2975 3731 2742 3939 
Q 2509 4147 2053 4147 
L 1259 4147 
z
" transform="scale(0.015625)"/>
     </defs>
     <use xlink:href="#DejaVuSans-45"/>
     <use xlink:href="#DejaVuSans-78" transform="translate(63.183594 0)"/>
     <use xlink:href="#DejaVuSans-70" transform="translate(122.363281 0)"/>
     <use xlink:href="#DejaVuSans-6c" transform="translate(185.839844 0)"/>
     <use xlink:href="#DejaVuSans-61" transform="translate(213.623047 0)"/>
     <use xlink:href="#DejaVuSans-69" transform="translate(274.902344 0)"/>
     <use xlink:href="#DejaVuSans-6e" transform="translate(302.685547 0)"/>
     <use xlink:href="#DejaVuSans-65" transform="translate(366.064453 0)"/>
     <use xlink:href="#DejaVuSans-64" transform="translate(427.587891 0)"/>
     <use xlink:href="#DejaVuSans-20" transform="translate(491.064453 0)"/>
     <use xlink:href="#DejaVuSans-56" transform="translate(522.851562 0)"/>
     <use xlink:href="#DejaVuSans-61" transform="translate(583.509766 0)"/>
     <use xlink:href="#DejaVuSans-72" transform="translate(644.789062 0)"/>
     <use xlink:href="#DejaVuSans-69" transform="translate(685.902344 0)"/>
     <use xlink:href="#DejaVuSans-61" transform="translate(713.685547 0)"/>
     <use xlink:href="#DejaVuSans-6e" transform="translate(774.964844 0)"/>
     <use xlink:href="#DejaVuSans-63" transform="translate(838.34375 0)"/>
     <use xlink:href="#DejaVuSans-65" transform="translate(893.324219 0)"/>
     <use xlink:href="#DejaVuSans-20" transform="translate(954.847656 0)"/>
     <use xlink:href="#DejaVuSans-52" transform="translate(986.634766 0)"/>
     <use xlink:href="#DejaVuSans-61" transform="translate(1053.867188 0)"/>
     <use xlink:href="#DejaVuSans-74" transform="translate(1115.146484 0)"/>
     <use xlink:href="#DejaVuSans-69" transform="translate(1154.355469 0)"/>
     <use xlink:href="#DejaVuSans-6f" transform="translate(1182.138672 0)"/>
    </g>
   </g>
  </g>
  <g id="axes_2">
   <g id="patch_66">
    <path d="M 524.12 246.04 
L 952.8 246.04 
L 952.8 26.88 
L 524.12 26.88 
z
" style="fill: #ffffff"/>
   </g>
   <g id="FillBetweenPolyCollection_1"/>
   <g id="matplotlib.axis_3">
    <g id="xtick_8">
     <g id="line2d_14">
      <g>
       <use xlink:href="#mdf82a1f74b" x="536.886332" y="246.04" style="stroke: #000000; stroke-width: 0.8"/>
      </g>
     </g>
     <g id="text_17">
      <!-- 0 -->
      <g transform="translate(533.705082 260.638438) scale(0.1 -0.1)">
       <use xlink:href="#DejaVuSans-30"/>
      </g>
     </g>
    </g>
    <g id="xtick_9">
     <g id="line2d_15">
      <g>
       <use xlink:href="#mdf82a1f74b" x="604.077555" y="246.04" style="stroke: #000000; stroke-width: 0.8"/>
      </g>
     </g>
     <g id="text_18">
      <!-- 10 -->
      <g transform="translate(597.715055 260.638438) scale(0.1 -0.1)">
       <use xlink:href="#DejaVuSans-31"/>
       <use xlink:href="#DejaVuSans-30" transform="translate(63.623047 0)"/>
      </g>
     </g>
    </g>
    <g id="xtick_10">
     <g id="line2d_16">
      <g>
       <use xlink:href="#mdf82a1f74b" x="671.268777" y="246.04" style="stroke: #000000; stroke-width: 0.8"/>
      </g>
     </g>
     <g id="text_19">
      <!-- 20 -->
      <g transform="translate(664.906277 260.638438) scale(0.1 -0.1)">
       <use xlink:href="#DejaVuSans-32"/>
       <use xlink:href="#DejaVuSans-30" transform="translate(63.623047 0)"/>
      </g>
     </g>
    </g>
    <g id="xtick_11">
     <g id="line2d_17">
      <g>
       <use xlink:href="#mdf82a1f74b" x="738.46" y="246.04" style="stroke: #000000; stroke-width: 0.8"/>
      </g>
     </g>
     <g id="text_20">
      <!-- 30 -->
      <g transform="translate(732.0975 260.638438) scale(0.1 -0.1)">
       <use xlink:href="#DejaVuSans-33"/>
       <use xlink:href="#DejaVuSans-30" transform="translate(63.623047 0)"/>
      </g>
     </g>
    </g>
    <g id="xtick_12">
     <g id="line2d_18">
      <g>
       <use xlink:href="#mdf82a1f74b" x="805.651223" y="246.04" style="stroke: #000000; stroke-width: 0.8"/>
      </g>
     </g>
     <g id="text_21">
      <!-- 40 -->
      <g transform="translate(799.288723 260.638438) scale(0.1 -0.1)">
       <use xlink:href="#DejaVuSans-34"/>
       <use xlink:href="#DejaVuSans-30" transform="translate(63.623047 0)"/>
      </g>
     </g>
    </g>
    <g id="xtick_13">
     <g id="line2d_19">
      <g>
       <use xlink:href="#mdf82a1f74b" x="872.842445" y="246.04" style="stroke: #000000; stroke-width: 0.8"/>
      </g>
     </g>
     <g id="text_22">
      <!-- 50 -->
      <g transform="translate(866.479945 260.638438) scale(0.1 -0.1)">
       <use xlink:href="#DejaVuSans-35"/>
       <use xlink:href="#DejaVuSans-30" transform="translate(63.623047 0)"/>
      </g>
     </g>
    </g>
    <g id="xtick_14">
     <g id="line2d_20">
      <g>
       <use xlink:href="#mdf82a1f74b" x="940.033668" y="246.04" style="stroke: #000000; stroke-width: 0.8"/>
      </g>
     </g>
     <g id="text_23">
      <!-- 60 -->
      <g transform="translate(933.671168 260.638438) scale(0.1 -0.1)">
       <use xlink:href="#DejaVuSans-36"/>
       <use xlink:href="#DejaVuSans-30" transform="translate(63.623047 0)"/>
      </g>
     </g>
    </g>
    <g id="text_24">
     <!-- Number of Components -->
     <g transform="translate(678.742813 274.316562) scale(0.1 -0.1)">
      <defs>
       <path id="DejaVuSans-4e" d="M 628 4666 
L 1478 4666 
L 3547 763 
L 3547 4666 
L 4159 4666 
L 4159 0 
L 3309 0 
L 1241 3903 
L 1241 0 
L 628 0 
L 628 4666 
z
" transform="scale(0.015625)"/>
       <path id="DejaVuSans-75" d="M 544 1381 
L 544 3500 
L 1119 3500 
L 1119 1403 
Q 1119 906 1312 657 
Q 1506 409 1894 409 
Q 2359 409 2629 706 
Q 2900 1003 2900 1516 
L 2900 3500 
L 3475 3500 
L 3475 0 
L 2900 0 
L 2900 538 
Q 2691 219 2414 64 
Q 2138 -91 1772 -91 
Q 1169 -91 856 284 
Q 544 659 544 1381 
z
M 1991 3584 
L 1991 3584 
z
" transform="scale(0.015625)"/>
       <path id="DejaVuSans-62" d="M 3116 1747 
Q 3116 2381 2855 2742 
Q 2594 3103 2138 3103 
Q 1681 3103 1420 2742 
Q 1159 2381 1159 1747 
Q 1159 1113 1420 752 
Q 1681 391 2138 391 
Q 2594 391 2855 752 
Q 3116 1113 3116 1747 
z
M 1159 2969 
Q 1341 3281 1617 3432 
Q 1894 3584 2278 3584 
Q 2916 3584 3314 3078 
Q 3713 2572 3713 1747 
Q 3713 922 3314 415 
Q 2916 -91 2278 -91 
Q 1894 -91 1617 61 
Q 1341 213 1159 525 
L 1159 0 
L 581 0 
L 581 4863 
L 1159 4863 
L 1159 2969 
z
" transform="scale(0.015625)"/>
       <path id="DejaVuSans-66" d="M 2375 4863 
L 2375 4384 
L 1825 4384 
Q 1516 4384 1395 4259 
Q 1275 4134 1275 3809 
L 1275 3500 
L 2222 3500 
L 2222 3053 
L 1275 3053 
L 1275 0 
L 697 0 
L 697 3053 
L 147 3053 
L 147 3500 
L 697 3500 
L 697 3744 
Q 697 4328 969 4595 
Q 1241 4863 1831 4863 
L 2375 4863 
z
" transform="scale(0.015625)"/>
      </defs>
      <use xlink:href="#DejaVuSans-4e"/>
      <use xlink:href="#DejaVuSans-75" transform="translate(74.804688 0)"/>
      <use xlink:href="#DejaVuSans-6d" transform="translate(138.183594 0)"/>
      <use xlink:href="#DejaVuSans-62" transform="translate(235.595703 0)"/>
      <use xlink:href="#DejaVuSans-65" transform="translate(299.072266 0)"/>
      <use xlink:href="#DejaVuSans-72" transform="translate(360.595703 0)"/>
      <use xlink:href="#DejaVuSans-20" transform="translate(401.708984 0)"/>
      <use xlink:href="#DejaVuSans-6f" transform="translate(433.496094 0)"/>
      <use xlink:href="#DejaVuSans-66" transform="translate(494.677734 0)"/>
      <use xlink:href="#DejaVuSans-20" transform="translate(529.882812 0)"/>
      <use xlink:href="#DejaVuSans-43" transform="translate(561.669922 0)"/>
      <use xlink:href="#DejaVuSans-6f" transform="translate(631.494141 0)"/>
      <use xlink:href="#DejaVuSans-6d" transform="translate(692.675781 0)"/>
      <use xlink:href="#DejaVuSans-70" transform="translate(790.087891 0)"/>
      <use xlink:href="#DejaVuSans-6f" transform="translate(853.564453 0)"/>
      <use xlink:href="#DejaVuSans-6e" transform="translate(914.746094 0)"/>
      <use xlink:href="#DejaVuSans-65" transform="translate(978.125 0)"/>
      <use xlink:href="#DejaVuSans-6e" transform="translate(1039.648438 0)"/>
      <use xlink:href="#DejaVuSans-74" transform="translate(1103.027344 0)"/>
      <use xlink:href="#DejaVuSans-73" transform="translate(1142.236328 0)"/>
     </g>
    </g>
   </g>
   <g id="matplotlib.axis_4">
    <g id="ytick_7">
     <g id="line2d_21">
      <g>
       <use xlink:href="#m7ec878e32b" x="524.12" y="236.078182" style="stroke: #000000; stroke-width: 0.8"/>
      </g>
     </g>
     <g id="text_25">
      <!-- 0.0 -->
      <g transform="translate(501.216875 239.877401) scale(0.1 -0.1)">
       <use xlink:href="#DejaVuSans-30"/>
       <use xlink:href="#DejaVuSans-2e" transform="translate(63.623047 0)"/>
       <use xlink:href="#DejaVuSans-30" transform="translate(95.410156 0)"/>
      </g>
     </g>
    </g>
    <g id="ytick_8">
     <g id="line2d_22">
      <g>
       <use xlink:href="#m7ec878e32b" x="524.12" y="199.133431" style="stroke: #000000; stroke-width: 0.8"/>
      </g>
     </g>
     <g id="text_26">
      <!-- 0.1 -->
      <g transform="translate(501.216875 202.93265) scale(0.1 -0.1)">
       <use xlink:href="#DejaVuSans-30"/>
       <use xlink:href="#DejaVuSans-2e" transform="translate(63.623047 0)"/>
       <use xlink:href="#DejaVuSans-31" transform="translate(95.410156 0)"/>
      </g>
     </g>
    </g>
    <g id="ytick_9">
     <g id="line2d_23">
      <g>
       <use xlink:href="#m7ec878e32b" x="524.12" y="162.18868" style="stroke: #000000; stroke-width: 0.8"/>
      </g>
     </g>
     <g id="text_27">
      <!-- 0.2 -->
      <g transform="translate(501.216875 165.987899) scale(0.1 -0.1)">
       <use xlink:href="#DejaVuSans-30"/>
       <use xlink:href="#DejaVuSans-2e" transform="translate(63.623047 0)"/>
       <use xlink:href="#DejaVuSans-32" transform="translate(95.410156 0)"/>
      </g>
     </g>
    </g>
    <g id="ytick_10">
     <g id="line2d_24">
      <g>
       <use xlink:href="#m7ec878e32b" x="524.12" y="125.243929" style="stroke: #000000; stroke-width: 0.8"/>
      </g>
     </g>
     <g id="text_28">
      <!-- 0.3 -->
      <g transform="translate(501.216875 129.043148) scale(0.1 -0.1)">
       <use xlink:href="#DejaVuSans-30"/>
       <use xlink:href="#DejaVuSans-2e" transform="translate(63.623047 0)"/>
       <use xlink:href="#DejaVuSans-33" transform="translate(95.410156 0)"/>
      </g>
     </g>
    </g>
    <g id="ytick_11">
     <g id="line2d_25">
      <g>
       <use xlink:href="#m7ec878e32b" x="524.12" y="88.299178" style="stroke: #000000; stroke-width: 0.8"/>
      </g>
     </g>
     <g id="text_29">
      <!-- 0.4 -->
      <g transform="translate(501.216875 92.098397) scale(0.1 -0.1)">
       <use xlink:href="#DejaVuSans-30"/>
       <use xlink:href="#DejaVuSans-2e" transform="translate(63.623047 0)"/>
       <use xlink:href="#DejaVuSans-34" transform="translate(95.410156 0)"/>
      </g>
     </g>
    </g>
    <g id="ytick_12">
     <g id="line2d_26">
      <g>
       <use xlink:href="#m7ec878e32b" x="524.12" y="51.354427" style="stroke: #000000; stroke-width: 0.8"/>
      </g>
     </g>
     <g id="text_30">
      <!-- 0.5 -->
      <g transform="translate(501.216875 55.153646) scale(0.1 -0.1)">
       <use xlink:href="#DejaVuSans-30"/>
       <use xlink:href="#DejaVuSans-2e" transform="translate(63.623047 0)"/>
       <use xlink:href="#DejaVuSans-35" transform="translate(95.410156 0)"/>
      </g>
     </g>
    </g>
    <g id="text_31">
     <!-- Variance Explained Ratio -->
     <g transform="translate(495.137188 198.627187) rotate(-90) scale(0.1 -0.1)">
      <use xlink:href="#DejaVuSans-56"/>
      <use xlink:href="#DejaVuSans-61" transform="translate(60.658203 0)"/>
      <use xlink:href="#DejaVuSans-72" transform="translate(121.9375 0)"/>
      <use xlink:href="#DejaVuSans-69" transform="translate(163.050781 0)"/>
      <use xlink:href="#DejaVuSans-61" transform="translate(190.833984 0)"/>
      <use xlink:href="#DejaVuSans-6e" transform="translate(252.113281 0)"/>
      <use xlink:href="#DejaVuSans-63" transform="translate(315.492188 0)"/>
      <use xlink:href="#DejaVuSans-65" transform="translate(370.472656 0)"/>
      <use xlink:href="#DejaVuSans-20" transform="translate(431.996094 0)"/>
      <use xlink:href="#DejaVuSans-45" transform="translate(463.783203 0)"/>
      <use xlink:href="#DejaVuSans-78" transform="translate(526.966797 0)"/>
      <use xlink:href="#DejaVuSans-70" transform="translate(586.146484 0)"/>
      <use xlink:href="#DejaVuSans-6c" transform="translate(649.623047 0)"/>
      <use xlink:href="#DejaVuSans-61" transform="translate(677.40625 0)"/>
      <use xlink:href="#DejaVuSans-69" transform="translate(738.685547 0)"/>
      <use xlink:href="#DejaVuSans-6e" transform="translate(766.46875 0)"/>
      <use xlink:href="#DejaVuSans-65" transform="translate(829.847656 0)"/>
      <use xlink:href="#DejaVuSans-64" transform="translate(891.371094 0)"/>
      <use xlink:href="#DejaVuSans-20" transform="translate(954.847656 0)"/>
      <use xlink:href="#DejaVuSans-52" transform="translate(986.634766 0)"/>
      <use xlink:href="#DejaVuSans-61" transform="translate(1053.867188 0)"/>
      <use xlink:href="#DejaVuSans-74" transform="translate(1115.146484 0)"/>
      <use xlink:href="#DejaVuSans-69" transform="translate(1154.355469 0)"/>
      <use xlink:href="#DejaVuSans-6f" transform="translate(1182.138672 0)"/>
     </g>
    </g>
   </g>
   <g id="line2d_27">
    <path d="M 543.605455 36.841818 
L 550.324577 184.8798 
L 557.043699 207.676728 
L 563.762821 212.0493 
L 570.481944 221.879441 
L 577.201066 223.82465 
L 583.920188 227.478628 
L 590.63931 230.530482 
L 597.358433 231.577352 
L 604.077555 232.239058 
L 610.796677 232.987176 
L 617.515799 233.426392 
L 624.234922 233.927904 
L 630.954044 234.226837 
L 637.673166 234.352858 
L 644.392288 234.921584 
L 651.111411 235.272626 
L 657.830533 235.380848 
L 664.549655 235.430503 
L 671.268777 235.46959 
L 677.9879 235.58919 
L 684.707022 235.728309 
L 691.426144 235.800457 
L 698.145266 235.841445 
L 704.864389 235.89268 
L 711.583511 235.909019 
L 718.302633 235.931623 
L 725.021755 235.988395 
L 731.740878 236.008806 
L 738.46 236.020114 
L 745.179122 236.026466 
L 751.898245 236.030582 
L 758.617367 236.046778 
L 765.336489 236.050051 
L 772.055611 236.062453 
L 778.774734 236.071539 
L 785.493856 236.073731 
L 792.212978 236.078182 
L 798.9321 236.078182 
L 805.651223 236.078182 
L 812.370345 236.078182 
L 819.089467 236.078182 
L 825.808589 236.078182 
L 832.527712 236.078182 
L 839.246834 236.078182 
L 845.965956 236.078182 
L 852.685078 236.078182 
L 859.404201 236.078182 
L 866.123323 236.078182 
L 872.842445 236.078182 
L 879.561567 236.078182 
L 886.28069 236.078182 
L 892.999812 236.078182 
L 899.718934 236.078182 
L 906.438056 236.078182 
L 913.157179 236.078182 
L 919.876301 236.078182 
L 926.595423 236.078182 
L 933.314545 236.078182 
" clip-path="url(#pec90c92661)" style="fill: none; stroke: #1f77b4; stroke-linecap: square"/>
    <defs>
     <path id="mc161f8984a" d="M 0 3 
C 0.795609 3 1.55874 2.683901 2.12132 2.12132 
C 2.683901 1.55874 3 0.795609 3 0 
C 3 -0.795609 2.683901 -1.55874 2.12132 -2.12132 
C 1.55874 -2.683901 0.795609 -3 0 -3 
C -0.795609 -3 -1.55874 -2.683901 -2.12132 -2.12132 
C -2.683901 -1.55874 -3 -0.795609 -3 0 
C -3 0.795609 -2.683901 1.55874 -2.12132 2.12132 
C -1.55874 2.683901 -0.795609 3 0 3 
z
" style="stroke: #ffffff; stroke-width: 0.75"/>
    </defs>
    <g clip-path="url(#pec90c92661)">
     <use xlink:href="#mc161f8984a" x="543.605455" y="36.841818" style="fill: #1f77b4; stroke: #ffffff; stroke-width: 0.75"/>
     <use xlink:href="#mc161f8984a" x="550.324577" y="184.8798" style="fill: #1f77b4; stroke: #ffffff; stroke-width: 0.75"/>
     <use xlink:href="#mc161f8984a" x="557.043699" y="207.676728" style="fill: #1f77b4; stroke: #ffffff; stroke-width: 0.75"/>
     <use xlink:href="#mc161f8984a" x="563.762821" y="212.0493" style="fill: #1f77b4; stroke: #ffffff; stroke-width: 0.75"/>
     <use xlink:href="#mc161f8984a" x="570.481944" y="221.879441" style="fill: #1f77b4; stroke: #ffffff; stroke-width: 0.75"/>
     <use xlink:href="#mc161f8984a" x="577.201066" y="223.82465" style="fill: #1f77b4; stroke: #ffffff; stroke-width: 0.75"/>
     <use xlink:href="#mc161f8984a" x="583.920188" y="227.478628" style="fill: #1f77b4; stroke: #ffffff; stroke-width: 0.75"/>
     <use xlink:href="#mc161f8984a" x="590.63931" y="230.530482" style="fill: #1f77b4; stroke: #ffffff; stroke-width: 0.75"/>
     <use xlink:href="#mc161f8984a" x="597.358433" y="231.577352" style="fill: #1f77b4; stroke: #ffffff; stroke-width: 0.75"/>
     <use xlink:href="#mc161f8984a" x="604.077555" y="232.239058" style="fill: #1f77b4; stroke: #ffffff; stroke-width: 0.75"/>
     <use xlink:href="#mc161f8984a" x="610.796677" y="232.987176" style="fill: #1f77b4; stroke: #ffffff; stroke-width: 0.75"/>
     <use xlink:href="#mc161f8984a" x="617.515799" y="233.426392" style="fill: #1f77b4; stroke: #ffffff; stroke-width: 0.75"/>
     <use xlink:href="#mc161f8984a" x="624.234922" y="233.927904" style="fill: #1f77b4; stroke: #ffffff; stroke-width: 0.75"/>
     <use xlink:href="#mc161f8984a" x="630.954044" y="234.226837" style="fill: #1f77b4; stroke: #ffffff; stroke-width: 0.75"/>
     <use xlink:href="#mc161f8984a" x="637.673166" y="234.352858" style="fill: #1f77b4; stroke: #ffffff; stroke-width: 0.75"/>
     <use xlink:href="#mc161f8984a" x="644.392288" y="234.921584" style="fill: #1f77b4; stroke: #ffffff; stroke-width: 0.75"/>
     <use xlink:href="#mc161f8984a" x="651.111411" y="235.272626" style="fill: #1f77b4; stroke: #ffffff; stroke-width: 0.75"/>
     <use xlink:href="#mc161f8984a" x="657.830533" y="235.380848" style="fill: #1f77b4; stroke: #ffffff; stroke-width: 0.75"/>
     <use xlink:href="#mc161f8984a" x="664.549655" y="235.430503" style="fill: #1f77b4; stroke: #ffffff; stroke-width: 0.75"/>
     <use xlink:href="#mc161f8984a" x="671.268777" y="235.46959" style="fill: #1f77b4; stroke: #ffffff; stroke-width: 0.75"/>
     <use xlink:href="#mc161f8984a" x="677.9879" y="235.58919" style="fill: #1f77b4; stroke: #ffffff; stroke-width: 0.75"/>
     <use xlink:href="#mc161f8984a" x="684.707022" y="235.728309" style="fill: #1f77b4; stroke: #ffffff; stroke-width: 0.75"/>
     <use xlink:href="#mc161f8984a" x="691.426144" y="235.800457" style="fill: #1f77b4; stroke: #ffffff; stroke-width: 0.75"/>
     <use xlink:href="#mc161f8984a" x="698.145266" y="235.841445" style="fill: #1f77b4; stroke: #ffffff; stroke-width: 0.75"/>
     <use xlink:href="#mc161f8984a" x="704.864389" y="235.89268" style="fill: #1f77b4; stroke: #ffffff; stroke-width: 0.75"/>
     <use xlink:href="#mc161f8984a" x="711.583511" y="235.909019" style="fill: #1f77b4; stroke: #ffffff; stroke-width: 0.75"/>
     <use xlink:href="#mc161f8984a" x="718.302633" y="235.931623" style="fill: #1f77b4; stroke: #ffffff; stroke-width: 0.75"/>
     <use xlink:href="#mc161f8984a" x="725.021755" y="235.988395" style="fill: #1f77b4; stroke: #ffffff; stroke-width: 0.75"/>
     <use xlink:href="#mc161f8984a" x="731.740878" y="236.008806" style="fill: #1f77b4; stroke: #ffffff; stroke-width: 0.75"/>
     <use xlink:href="#mc161f8984a" x="738.46" y="236.020114" style="fill: #1f77b4; stroke: #ffffff; stroke-width: 0.75"/>
     <use xlink:href="#mc161f8984a" x="745.179122" y="236.026466" style="fill: #1f77b4; stroke: #ffffff; stroke-width: 0.75"/>
     <use xlink:href="#mc161f8984a" x="751.898245" y="236.030582" style="fill: #1f77b4; stroke: #ffffff; stroke-width: 0.75"/>
     <use xlink:href="#mc161f8984a" x="758.617367" y="236.046778" style="fill: #1f77b4; stroke: #ffffff; stroke-width: 0.75"/>
     <use xlink:href="#mc161f8984a" x="765.336489" y="236.050051" style="fill: #1f77b4; stroke: #ffffff; stroke-width: 0.75"/>
     <use xlink:href="#mc161f8984a" x="772.055611" y="236.062453" style="fill: #1f77b4; stroke: #ffffff; stroke-width: 0.75"/>
     <use xlink:href="#mc161f8984a" x="778.774734" y="236.071539" style="fill: #1f77b4; stroke: #ffffff; stroke-width: 0.75"/>
     <use xlink:href="#mc161f8984a" x="785.493856" y="236.073731" style="fill: #1f77b4; stroke: #ffffff; stroke-width: 0.75"/>
     <use xlink:href="#mc161f8984a" x="792.212978" y="236.078182" style="fill: #1f77b4; stroke: #ffffff; stroke-width: 0.75"/>
     <use xlink:href="#mc161f8984a" x="798.9321" y="236.078182" style="fill: #1f77b4; stroke: #ffffff; stroke-width: 0.75"/>
     <use xlink:href="#mc161f8984a" x="805.651223" y="236.078182" style="fill: #1f77b4; stroke: #ffffff; stroke-width: 0.75"/>
     <use xlink:href="#mc161f8984a" x="812.370345" y="236.078182" style="fill: #1f77b4; stroke: #ffffff; stroke-width: 0.75"/>
     <use xlink:href="#mc161f8984a" x="819.089467" y="236.078182" style="fill: #1f77b4; stroke: #ffffff; stroke-width: 0.75"/>
     <use xlink:href="#mc161f8984a" x="825.808589" y="236.078182" style="fill: #1f77b4; stroke: #ffffff; stroke-width: 0.75"/>
     <use xlink:href="#mc161f8984a" x="832.527712" y="236.078182" style="fill: #1f77b4; stroke: #ffffff; stroke-width: 0.75"/>
     <use xlink:href="#mc161f8984a" x="839.246834" y="236.078182" style="fill: #1f77b4; stroke: #ffffff; stroke-width: 0.75"/>
     <use xlink:href="#mc161f8984a" x="845.965956" y="236.078182" style="fill: #1f77b4; stroke: #ffffff; stroke-width: 0.75"/>
     <use xlink:href="#mc161f8984a" x="852.685078" y="236.078182" style="fill: #1f77b4; stroke: #ffffff; stroke-width: 0.75"/>
     <use xlink:href="#mc161f8984a" x="859.404201" y="236.078182" style="fill: #1f77b4; stroke: #ffffff; stroke-width: 0.75"/>
     <use xlink:href="#mc161f8984a" x="866.123323" y="236.078182" style="fill: #1f77b4; stroke: #ffffff; stroke-width: 0.75"/>
     <use xlink:href="#mc161f8984a" x="872.842445" y="236.078182" style="fill: #1f77b4; stroke: #ffffff; stroke-width: 0.75"/>
     <use xlink:href="#mc161f8984a" x="879.561567" y="236.078182" style="fill: #1f77b4; stroke: #ffffff; stroke-width: 0.75"/>
     <use xlink:href="#mc161f8984a" x="886.28069" y="236.078182" style="fill: #1f77b4; stroke: #ffffff; stroke-width: 0.75"/>
     <use xlink:href="#mc161f8984a" x="892.999812" y="236.078182" style="fill: #1f77b4; stroke: #ffffff; stroke-width: 0.75"/>
     <use xlink:href="#mc161f8984a" x="899.718934" y="236.078182" style="fill: #1f77b4; stroke: #ffffff; stroke-width: 0.75"/>
     <use xlink:href="#mc161f8984a" x="906.438056" y="236.078182" style="fill: #1f77b4; stroke: #ffffff; stroke-width: 0.75"/>
     <use xlink:href="#mc161f8984a" x="913.157179" y="236.078182" style="fill: #1f77b4; stroke: #ffffff; stroke-width: 0.75"/>
     <use xlink:href="#mc161f8984a" x="919.876301" y="236.078182" style="fill: #1f77b4; stroke: #ffffff; stroke-width: 0.75"/>
     <use xlink:href="#mc161f8984a" x="926.595423" y="236.078182" style="fill: #1f77b4; stroke: #ffffff; stroke-width: 0.75"/>
     <use xlink:href="#mc161f8984a" x="933.314545" y="236.078182" style="fill: #1f77b4; stroke: #ffffff; stroke-width: 0.75"/>
    </g>
   </g>
   <g id="patch_67">
    <path d="M 524.12 246.04 
L 524.12 26.88 
" style="fill: none; stroke: #000000; stroke-width: 0.8; stroke-linejoin: miter; stroke-linecap: square"/>
   </g>
   <g id="patch_68">
    <path d="M 952.8 246.04 
L 952.8 26.88 
" style="fill: none; stroke: #000000; stroke-width: 0.8; stroke-linejoin: miter; stroke-linecap: square"/>
   </g>
   <g id="patch_69">
    <path d="M 524.12 246.04 
L 952.8 246.04 
" style="fill: none; stroke: #000000; stroke-width: 0.8; stroke-linejoin: miter; stroke-linecap: square"/>
   </g>
   <g id="patch_70">
    <path d="M 524.12 26.88 
L 952.8 26.88 
" style="fill: none; stroke: #000000; stroke-width: 0.8; stroke-linejoin: miter; stroke-linecap: square"/>
   </g>
   <g id="text_32">
    <!-- Scree Plot -->
    <g transform="translate(708.421563 20.88) scale(0.12 -0.12)">
     <defs>
      <path id="DejaVuSans-53" d="M 3425 4513 
L 3425 3897 
Q 3066 4069 2747 4153 
Q 2428 4238 2131 4238 
Q 1616 4238 1336 4038 
Q 1056 3838 1056 3469 
Q 1056 3159 1242 3001 
Q 1428 2844 1947 2747 
L 2328 2669 
Q 3034 2534 3370 2195 
Q 3706 1856 3706 1288 
Q 3706 609 3251 259 
Q 2797 -91 1919 -91 
Q 1588 -91 1214 -16 
Q 841 59 441 206 
L 441 856 
Q 825 641 1194 531 
Q 1563 422 1919 422 
Q 2459 422 2753 634 
Q 3047 847 3047 1241 
Q 3047 1584 2836 1778 
Q 2625 1972 2144 2069 
L 1759 2144 
Q 1053 2284 737 2584 
Q 422 2884 422 3419 
Q 422 4038 858 4394 
Q 1294 4750 2059 4750 
Q 2388 4750 2728 4690 
Q 3069 4631 3425 4513 
z
" transform="scale(0.015625)"/>
     </defs>
     <use xlink:href="#DejaVuSans-53"/>
     <use xlink:href="#DejaVuSans-63" transform="translate(63.476562 0)"/>
     <use xlink:href="#DejaVuSans-72" transform="translate(118.457031 0)"/>
     <use xlink:href="#DejaVuSans-65" transform="translate(157.320312 0)"/>
     <use xlink:href="#DejaVuSans-65" transform="translate(218.84375 0)"/>
     <use xlink:href="#DejaVuSans-20" transform="translate(280.367188 0)"/>
     <use xlink:href="#DejaVuSans-50" transform="translate(312.154297 0)"/>
     <use xlink:href="#DejaVuSans-6c" transform="translate(372.457031 0)"/>
     <use xlink:href="#DejaVuSans-6f" transform="translate(400.240234 0)"/>
     <use xlink:href="#DejaVuSans-74" transform="translate(461.421875 0)"/>
    </g>
   </g>
  </g>
  <g id="axes_3">
   <g id="patch_71">
    <path d="M 1000.52 246.04 
L 1429.2 246.04 
L 1429.2 26.88 
L 1000.52 26.88 
z
" style="fill: #ffffff"/>
   </g>
   <g id="FillBetweenPolyCollection_2"/>
   <g id="matplotlib.axis_5">
    <g id="xtick_15">
     <g id="line2d_28">
      <g>
       <use xlink:href="#mdf82a1f74b" x="1013.286332" y="246.04" style="stroke: #000000; stroke-width: 0.8"/>
      </g>
     </g>
     <g id="text_33">
      <!-- 0 -->
      <g transform="translate(1010.105082 260.638438) scale(0.1 -0.1)">
       <use xlink:href="#DejaVuSans-30"/>
      </g>
     </g>
    </g>
    <g id="xtick_16">
     <g id="line2d_29">
      <g>
       <use xlink:href="#mdf82a1f74b" x="1080.477555" y="246.04" style="stroke: #000000; stroke-width: 0.8"/>
      </g>
     </g>
     <g id="text_34">
      <!-- 10 -->
      <g transform="translate(1074.115055 260.638438) scale(0.1 -0.1)">
       <use xlink:href="#DejaVuSans-31"/>
       <use xlink:href="#DejaVuSans-30" transform="translate(63.623047 0)"/>
      </g>
     </g>
    </g>
    <g id="xtick_17">
     <g id="line2d_30">
      <g>
       <use xlink:href="#mdf82a1f74b" x="1147.668777" y="246.04" style="stroke: #000000; stroke-width: 0.8"/>
      </g>
     </g>
     <g id="text_35">
      <!-- 20 -->
      <g transform="translate(1141.306277 260.638438) scale(0.1 -0.1)">
       <use xlink:href="#DejaVuSans-32"/>
       <use xlink:href="#DejaVuSans-30" transform="translate(63.623047 0)"/>
      </g>
     </g>
    </g>
    <g id="xtick_18">
     <g id="line2d_31">
      <g>
       <use xlink:href="#mdf82a1f74b" x="1214.86" y="246.04" style="stroke: #000000; stroke-width: 0.8"/>
      </g>
     </g>
     <g id="text_36">
      <!-- 30 -->
      <g transform="translate(1208.4975 260.638438) scale(0.1 -0.1)">
       <use xlink:href="#DejaVuSans-33"/>
       <use xlink:href="#DejaVuSans-30" transform="translate(63.623047 0)"/>
      </g>
     </g>
    </g>
    <g id="xtick_19">
     <g id="line2d_32">
      <g>
       <use xlink:href="#mdf82a1f74b" x="1282.051223" y="246.04" style="stroke: #000000; stroke-width: 0.8"/>
      </g>
     </g>
     <g id="text_37">
      <!-- 40 -->
      <g transform="translate(1275.688723 260.638438) scale(0.1 -0.1)">
       <use xlink:href="#DejaVuSans-34"/>
       <use xlink:href="#DejaVuSans-30" transform="translate(63.623047 0)"/>
      </g>
     </g>
    </g>
    <g id="xtick_20">
     <g id="line2d_33">
      <g>
       <use xlink:href="#mdf82a1f74b" x="1349.242445" y="246.04" style="stroke: #000000; stroke-width: 0.8"/>
      </g>
     </g>
     <g id="text_38">
      <!-- 50 -->
      <g transform="translate(1342.879945 260.638438) scale(0.1 -0.1)">
       <use xlink:href="#DejaVuSans-35"/>
       <use xlink:href="#DejaVuSans-30" transform="translate(63.623047 0)"/>
      </g>
     </g>
    </g>
    <g id="xtick_21">
     <g id="line2d_34">
      <g>
       <use xlink:href="#mdf82a1f74b" x="1416.433668" y="246.04" style="stroke: #000000; stroke-width: 0.8"/>
      </g>
     </g>
     <g id="text_39">
      <!-- 60 -->
      <g transform="translate(1410.071168 260.638438) scale(0.1 -0.1)">
       <use xlink:href="#DejaVuSans-36"/>
       <use xlink:href="#DejaVuSans-30" transform="translate(63.623047 0)"/>
      </g>
     </g>
    </g>
    <g id="text_40">
     <!-- Number of Components -->
     <g transform="translate(1155.142812 274.316562) scale(0.1 -0.1)">
      <use xlink:href="#DejaVuSans-4e"/>
      <use xlink:href="#DejaVuSans-75" transform="translate(74.804688 0)"/>
      <use xlink:href="#DejaVuSans-6d" transform="translate(138.183594 0)"/>
      <use xlink:href="#DejaVuSans-62" transform="translate(235.595703 0)"/>
      <use xlink:href="#DejaVuSans-65" transform="translate(299.072266 0)"/>
      <use xlink:href="#DejaVuSans-72" transform="translate(360.595703 0)"/>
      <use xlink:href="#DejaVuSans-20" transform="translate(401.708984 0)"/>
      <use xlink:href="#DejaVuSans-6f" transform="translate(433.496094 0)"/>
      <use xlink:href="#DejaVuSans-66" transform="translate(494.677734 0)"/>
      <use xlink:href="#DejaVuSans-20" transform="translate(529.882812 0)"/>
      <use xlink:href="#DejaVuSans-43" transform="translate(561.669922 0)"/>
      <use xlink:href="#DejaVuSans-6f" transform="translate(631.494141 0)"/>
      <use xlink:href="#DejaVuSans-6d" transform="translate(692.675781 0)"/>
      <use xlink:href="#DejaVuSans-70" transform="translate(790.087891 0)"/>
      <use xlink:href="#DejaVuSans-6f" transform="translate(853.564453 0)"/>
      <use xlink:href="#DejaVuSans-6e" transform="translate(914.746094 0)"/>
      <use xlink:href="#DejaVuSans-65" transform="translate(978.125 0)"/>
      <use xlink:href="#DejaVuSans-6e" transform="translate(1039.648438 0)"/>
      <use xlink:href="#DejaVuSans-74" transform="translate(1103.027344 0)"/>
      <use xlink:href="#DejaVuSans-73" transform="translate(1142.236328 0)"/>
     </g>
    </g>
   </g>
   <g id="matplotlib.axis_6">
    <g id="ytick_13">
     <g id="line2d_35">
      <g>
       <use xlink:href="#m7ec878e32b" x="1000.52" y="209.820804" style="stroke: #000000; stroke-width: 0.8"/>
      </g>
     </g>
     <g id="text_41">
      <!-- 0.6 -->
      <g transform="translate(977.616875 213.620022) scale(0.1 -0.1)">
       <use xlink:href="#DejaVuSans-30"/>
       <use xlink:href="#DejaVuSans-2e" transform="translate(63.623047 0)"/>
       <use xlink:href="#DejaVuSans-36" transform="translate(95.410156 0)"/>
      </g>
     </g>
    </g>
    <g id="ytick_14">
     <g id="line2d_36">
      <g>
       <use xlink:href="#m7ec878e32b" x="1000.52" y="166.576057" style="stroke: #000000; stroke-width: 0.8"/>
      </g>
     </g>
     <g id="text_42">
      <!-- 0.7 -->
      <g transform="translate(977.616875 170.375276) scale(0.1 -0.1)">
       <defs>
        <path id="DejaVuSans-37" d="M 525 4666 
L 3525 4666 
L 3525 4397 
L 1831 0 
L 1172 0 
L 2766 4134 
L 525 4134 
L 525 4666 
z
" transform="scale(0.015625)"/>
       </defs>
       <use xlink:href="#DejaVuSans-30"/>
       <use xlink:href="#DejaVuSans-2e" transform="translate(63.623047 0)"/>
       <use xlink:href="#DejaVuSans-37" transform="translate(95.410156 0)"/>
      </g>
     </g>
    </g>
    <g id="ytick_15">
     <g id="line2d_37">
      <g>
       <use xlink:href="#m7ec878e32b" x="1000.52" y="123.331311" style="stroke: #000000; stroke-width: 0.8"/>
      </g>
     </g>
     <g id="text_43">
      <!-- 0.8 -->
      <g transform="translate(977.616875 127.13053) scale(0.1 -0.1)">
       <defs>
        <path id="DejaVuSans-38" d="M 2034 2216 
Q 1584 2216 1326 1975 
Q 1069 1734 1069 1313 
Q 1069 891 1326 650 
Q 1584 409 2034 409 
Q 2484 409 2743 651 
Q 3003 894 3003 1313 
Q 3003 1734 2745 1975 
Q 2488 2216 2034 2216 
z
M 1403 2484 
Q 997 2584 770 2862 
Q 544 3141 544 3541 
Q 544 4100 942 4425 
Q 1341 4750 2034 4750 
Q 2731 4750 3128 4425 
Q 3525 4100 3525 3541 
Q 3525 3141 3298 2862 
Q 3072 2584 2669 2484 
Q 3125 2378 3379 2068 
Q 3634 1759 3634 1313 
Q 3634 634 3220 271 
Q 2806 -91 2034 -91 
Q 1263 -91 848 271 
Q 434 634 434 1313 
Q 434 1759 690 2068 
Q 947 2378 1403 2484 
z
M 1172 3481 
Q 1172 3119 1398 2916 
Q 1625 2713 2034 2713 
Q 2441 2713 2670 2916 
Q 2900 3119 2900 3481 
Q 2900 3844 2670 4047 
Q 2441 4250 2034 4250 
Q 1625 4250 1398 4047 
Q 1172 3844 1172 3481 
z
" transform="scale(0.015625)"/>
       </defs>
       <use xlink:href="#DejaVuSans-30"/>
       <use xlink:href="#DejaVuSans-2e" transform="translate(63.623047 0)"/>
       <use xlink:href="#DejaVuSans-38" transform="translate(95.410156 0)"/>
      </g>
     </g>
    </g>
    <g id="ytick_16">
     <g id="line2d_38">
      <g>
       <use xlink:href="#m7ec878e32b" x="1000.52" y="80.086565" style="stroke: #000000; stroke-width: 0.8"/>
      </g>
     </g>
     <g id="text_44">
      <!-- 0.9 -->
      <g transform="translate(977.616875 83.885783) scale(0.1 -0.1)">
       <defs>
        <path id="DejaVuSans-39" d="M 703 97 
L 703 672 
Q 941 559 1184 500 
Q 1428 441 1663 441 
Q 2288 441 2617 861 
Q 2947 1281 2994 2138 
Q 2813 1869 2534 1725 
Q 2256 1581 1919 1581 
Q 1219 1581 811 2004 
Q 403 2428 403 3163 
Q 403 3881 828 4315 
Q 1253 4750 1959 4750 
Q 2769 4750 3195 4129 
Q 3622 3509 3622 2328 
Q 3622 1225 3098 567 
Q 2575 -91 1691 -91 
Q 1453 -91 1209 -44 
Q 966 3 703 97 
z
M 1959 2075 
Q 2384 2075 2632 2365 
Q 2881 2656 2881 3163 
Q 2881 3666 2632 3958 
Q 2384 4250 1959 4250 
Q 1534 4250 1286 3958 
Q 1038 3666 1038 3163 
Q 1038 2656 1286 2365 
Q 1534 2075 1959 2075 
z
" transform="scale(0.015625)"/>
       </defs>
       <use xlink:href="#DejaVuSans-30"/>
       <use xlink:href="#DejaVuSans-2e" transform="translate(63.623047 0)"/>
       <use xlink:href="#DejaVuSans-39" transform="translate(95.410156 0)"/>
      </g>
     </g>
    </g>
    <g id="ytick_17">
     <g id="line2d_39">
      <g>
       <use xlink:href="#m7ec878e32b" x="1000.52" y="36.841818" style="stroke: #000000; stroke-width: 0.8"/>
      </g>
     </g>
     <g id="text_45">
      <!-- 1.0 -->
      <g transform="translate(977.616875 40.641037) scale(0.1 -0.1)">
       <use xlink:href="#DejaVuSans-31"/>
       <use xlink:href="#DejaVuSans-2e" transform="translate(63.623047 0)"/>
       <use xlink:href="#DejaVuSans-30" transform="translate(95.410156 0)"/>
      </g>
     </g>
    </g>
    <g id="text_46">
     <!-- Cumulative Variance Explained Ratio -->
     <g transform="translate(971.537187 228.75375) rotate(-90) scale(0.1 -0.1)">
      <defs>
       <path id="DejaVuSans-76" d="M 191 3500 
L 800 3500 
L 1894 563 
L 2988 3500 
L 3597 3500 
L 2284 0 
L 1503 0 
L 191 3500 
z
" transform="scale(0.015625)"/>
      </defs>
      <use xlink:href="#DejaVuSans-43"/>
      <use xlink:href="#DejaVuSans-75" transform="translate(69.824219 0)"/>
      <use xlink:href="#DejaVuSans-6d" transform="translate(133.203125 0)"/>
      <use xlink:href="#DejaVuSans-75" transform="translate(230.615234 0)"/>
      <use xlink:href="#DejaVuSans-6c" transform="translate(293.994141 0)"/>
      <use xlink:href="#DejaVuSans-61" transform="translate(321.777344 0)"/>
      <use xlink:href="#DejaVuSans-74" transform="translate(383.056641 0)"/>
      <use xlink:href="#DejaVuSans-69" transform="translate(422.265625 0)"/>
      <use xlink:href="#DejaVuSans-76" transform="translate(450.048828 0)"/>
      <use xlink:href="#DejaVuSans-65" transform="translate(509.228516 0)"/>
      <use xlink:href="#DejaVuSans-20" transform="translate(570.751953 0)"/>
      <use xlink:href="#DejaVuSans-56" transform="translate(602.539062 0)"/>
      <use xlink:href="#DejaVuSans-61" transform="translate(663.197266 0)"/>
      <use xlink:href="#DejaVuSans-72" transform="translate(724.476562 0)"/>
      <use xlink:href="#DejaVuSans-69" transform="translate(765.589844 0)"/>
      <use xlink:href="#DejaVuSans-61" transform="translate(793.373047 0)"/>
      <use xlink:href="#DejaVuSans-6e" transform="translate(854.652344 0)"/>
      <use xlink:href="#DejaVuSans-63" transform="translate(918.03125 0)"/>
      <use xlink:href="#DejaVuSans-65" transform="translate(973.011719 0)"/>
      <use xlink:href="#DejaVuSans-20" transform="translate(1034.535156 0)"/>
      <use xlink:href="#DejaVuSans-45" transform="translate(1066.322266 0)"/>
      <use xlink:href="#DejaVuSans-78" transform="translate(1129.505859 0)"/>
      <use xlink:href="#DejaVuSans-70" transform="translate(1188.685547 0)"/>
      <use xlink:href="#DejaVuSans-6c" transform="translate(1252.162109 0)"/>
      <use xlink:href="#DejaVuSans-61" transform="translate(1279.945312 0)"/>
      <use xlink:href="#DejaVuSans-69" transform="translate(1341.224609 0)"/>
      <use xlink:href="#DejaVuSans-6e" transform="translate(1369.007812 0)"/>
      <use xlink:href="#DejaVuSans-65" transform="translate(1432.386719 0)"/>
      <use xlink:href="#DejaVuSans-64" transform="translate(1493.910156 0)"/>
      <use xlink:href="#DejaVuSans-20" transform="translate(1557.386719 0)"/>
      <use xlink:href="#DejaVuSans-52" transform="translate(1589.173828 0)"/>
      <use xlink:href="#DejaVuSans-61" transform="translate(1656.40625 0)"/>
      <use xlink:href="#DejaVuSans-74" transform="translate(1717.685547 0)"/>
      <use xlink:href="#DejaVuSans-69" transform="translate(1756.894531 0)"/>
      <use xlink:href="#DejaVuSans-6f" transform="translate(1784.677734 0)"/>
     </g>
    </g>
   </g>
   <g id="line2d_40">
    <path d="M 1020.005455 236.078182 
L 1026.724577 176.149208 
L 1033.443699 142.904602 
L 1040.162821 114.7782 
L 1046.881944 98.158223 
L 1053.601066 83.815161 
L 1060.320188 73.74917 
L 1067.03931 67.255449 
L 1073.758433 61.987117 
L 1080.477555 57.493327 
L 1087.196677 53.875229 
L 1093.915799 50.771244 
L 1100.634922 48.25429 
L 1107.354044 46.087244 
L 1114.073166 44.067711 
L 1120.792288 42.713885 
L 1127.511411 41.770962 
L 1134.230533 40.954716 
L 1140.949655 40.196592 
L 1147.668777 39.484221 
L 1154.3879 38.911843 
L 1161.107022 38.502308 
L 1167.826144 38.177224 
L 1174.545266 37.900119 
L 1181.264389 37.682985 
L 1187.983511 37.484975 
L 1194.702633 37.313425 
L 1201.421755 37.208327 
L 1208.140878 37.127121 
L 1214.86 37.059152 
L 1221.579122 36.998618 
L 1228.298245 36.942901 
L 1235.017367 36.906142 
L 1241.736489 36.873214 
L 1248.455611 36.854804 
L 1255.174734 36.847028 
L 1261.893856 36.841818 
L 1268.612978 36.841818 
L 1275.3321 36.841818 
L 1282.051223 36.841818 
L 1288.770345 36.841818 
L 1295.489467 36.841818 
L 1302.208589 36.841818 
L 1308.927712 36.841818 
L 1315.646834 36.841818 
L 1322.365956 36.841818 
L 1329.085078 36.841818 
L 1335.804201 36.841818 
L 1342.523323 36.841818 
L 1349.242445 36.841818 
L 1355.961567 36.841818 
L 1362.68069 36.841818 
L 1369.399812 36.841818 
L 1376.118934 36.841818 
L 1382.838056 36.841818 
L 1389.557179 36.841818 
L 1396.276301 36.841818 
L 1402.995423 36.841818 
L 1409.714545 36.841818 
" clip-path="url(#p078fcbcf1f)" style="fill: none; stroke: #1f77b4; stroke-width: 1.5; stroke-linecap: square"/>
    <g clip-path="url(#p078fcbcf1f)">
     <use xlink:href="#mc161f8984a" x="1020.005455" y="236.078182" style="fill: #1f77b4; stroke: #ffffff; stroke-width: 0.75"/>
     <use xlink:href="#mc161f8984a" x="1026.724577" y="176.149208" style="fill: #1f77b4; stroke: #ffffff; stroke-width: 0.75"/>
     <use xlink:href="#mc161f8984a" x="1033.443699" y="142.904602" style="fill: #1f77b4; stroke: #ffffff; stroke-width: 0.75"/>
     <use xlink:href="#mc161f8984a" x="1040.162821" y="114.7782" style="fill: #1f77b4; stroke: #ffffff; stroke-width: 0.75"/>
     <use xlink:href="#mc161f8984a" x="1046.881944" y="98.158223" style="fill: #1f77b4; stroke: #ffffff; stroke-width: 0.75"/>
     <use xlink:href="#mc161f8984a" x="1053.601066" y="83.815161" style="fill: #1f77b4; stroke: #ffffff; stroke-width: 0.75"/>
     <use xlink:href="#mc161f8984a" x="1060.320188" y="73.74917" style="fill: #1f77b4; stroke: #ffffff; stroke-width: 0.75"/>
     <use xlink:href="#mc161f8984a" x="1067.03931" y="67.255449" style="fill: #1f77b4; stroke: #ffffff; stroke-width: 0.75"/>
     <use xlink:href="#mc161f8984a" x="1073.758433" y="61.987117" style="fill: #1f77b4; stroke: #ffffff; stroke-width: 0.75"/>
     <use xlink:href="#mc161f8984a" x="1080.477555" y="57.493327" style="fill: #1f77b4; stroke: #ffffff; stroke-width: 0.75"/>
     <use xlink:href="#mc161f8984a" x="1087.196677" y="53.875229" style="fill: #1f77b4; stroke: #ffffff; stroke-width: 0.75"/>
     <use xlink:href="#mc161f8984a" x="1093.915799" y="50.771244" style="fill: #1f77b4; stroke: #ffffff; stroke-width: 0.75"/>
     <use xlink:href="#mc161f8984a" x="1100.634922" y="48.25429" style="fill: #1f77b4; stroke: #ffffff; stroke-width: 0.75"/>
     <use xlink:href="#mc161f8984a" x="1107.354044" y="46.087244" style="fill: #1f77b4; stroke: #ffffff; stroke-width: 0.75"/>
     <use xlink:href="#mc161f8984a" x="1114.073166" y="44.067711" style="fill: #1f77b4; stroke: #ffffff; stroke-width: 0.75"/>
     <use xlink:href="#mc161f8984a" x="1120.792288" y="42.713885" style="fill: #1f77b4; stroke: #ffffff; stroke-width: 0.75"/>
     <use xlink:href="#mc161f8984a" x="1127.511411" y="41.770962" style="fill: #1f77b4; stroke: #ffffff; stroke-width: 0.75"/>
     <use xlink:href="#mc161f8984a" x="1134.230533" y="40.954716" style="fill: #1f77b4; stroke: #ffffff; stroke-width: 0.75"/>
     <use xlink:href="#mc161f8984a" x="1140.949655" y="40.196592" style="fill: #1f77b4; stroke: #ffffff; stroke-width: 0.75"/>
     <use xlink:href="#mc161f8984a" x="1147.668777" y="39.484221" style="fill: #1f77b4; stroke: #ffffff; stroke-width: 0.75"/>
     <use xlink:href="#mc161f8984a" x="1154.3879" y="38.911843" style="fill: #1f77b4; stroke: #ffffff; stroke-width: 0.75"/>
     <use xlink:href="#mc161f8984a" x="1161.107022" y="38.502308" style="fill: #1f77b4; stroke: #ffffff; stroke-width: 0.75"/>
     <use xlink:href="#mc161f8984a" x="1167.826144" y="38.177224" style="fill: #1f77b4; stroke: #ffffff; stroke-width: 0.75"/>
     <use xlink:href="#mc161f8984a" x="1174.545266" y="37.900119" style="fill: #1f77b4; stroke: #ffffff; stroke-width: 0.75"/>
     <use xlink:href="#mc161f8984a" x="1181.264389" y="37.682985" style="fill: #1f77b4; stroke: #ffffff; stroke-width: 0.75"/>
     <use xlink:href="#mc161f8984a" x="1187.983511" y="37.484975" style="fill: #1f77b4; stroke: #ffffff; stroke-width: 0.75"/>
     <use xlink:href="#mc161f8984a" x="1194.702633" y="37.313425" style="fill: #1f77b4; stroke: #ffffff; stroke-width: 0.75"/>
     <use xlink:href="#mc161f8984a" x="1201.421755" y="37.208327" style="fill: #1f77b4; stroke: #ffffff; stroke-width: 0.75"/>
     <use xlink:href="#mc161f8984a" x="1208.140878" y="37.127121" style="fill: #1f77b4; stroke: #ffffff; stroke-width: 0.75"/>
     <use xlink:href="#mc161f8984a" x="1214.86" y="37.059152" style="fill: #1f77b4; stroke: #ffffff; stroke-width: 0.75"/>
     <use xlink:href="#mc161f8984a" x="1221.579122" y="36.998618" style="fill: #1f77b4; stroke: #ffffff; stroke-width: 0.75"/>
     <use xlink:href="#mc161f8984a" x="1228.298245" y="36.942901" style="fill: #1f77b4; stroke: #ffffff; stroke-width: 0.75"/>
     <use xlink:href="#mc161f8984a" x="1235.017367" y="36.906142" style="fill: #1f77b4; stroke: #ffffff; stroke-width: 0.75"/>
     <use xlink:href="#mc161f8984a" x="1241.736489" y="36.873214" style="fill: #1f77b4; stroke: #ffffff; stroke-width: 0.75"/>
     <use xlink:href="#mc161f8984a" x="1248.455611" y="36.854804" style="fill: #1f77b4; stroke: #ffffff; stroke-width: 0.75"/>
     <use xlink:href="#mc161f8984a" x="1255.174734" y="36.847028" style="fill: #1f77b4; stroke: #ffffff; stroke-width: 0.75"/>
     <use xlink:href="#mc161f8984a" x="1261.893856" y="36.841818" style="fill: #1f77b4; stroke: #ffffff; stroke-width: 0.75"/>
     <use xlink:href="#mc161f8984a" x="1268.612978" y="36.841818" style="fill: #1f77b4; stroke: #ffffff; stroke-width: 0.75"/>
     <use xlink:href="#mc161f8984a" x="1275.3321" y="36.841818" style="fill: #1f77b4; stroke: #ffffff; stroke-width: 0.75"/>
     <use xlink:href="#mc161f8984a" x="1282.051223" y="36.841818" style="fill: #1f77b4; stroke: #ffffff; stroke-width: 0.75"/>
     <use xlink:href="#mc161f8984a" x="1288.770345" y="36.841818" style="fill: #1f77b4; stroke: #ffffff; stroke-width: 0.75"/>
     <use xlink:href="#mc161f8984a" x="1295.489467" y="36.841818" style="fill: #1f77b4; stroke: #ffffff; stroke-width: 0.75"/>
     <use xlink:href="#mc161f8984a" x="1302.208589" y="36.841818" style="fill: #1f77b4; stroke: #ffffff; stroke-width: 0.75"/>
     <use xlink:href="#mc161f8984a" x="1308.927712" y="36.841818" style="fill: #1f77b4; stroke: #ffffff; stroke-width: 0.75"/>
     <use xlink:href="#mc161f8984a" x="1315.646834" y="36.841818" style="fill: #1f77b4; stroke: #ffffff; stroke-width: 0.75"/>
     <use xlink:href="#mc161f8984a" x="1322.365956" y="36.841818" style="fill: #1f77b4; stroke: #ffffff; stroke-width: 0.75"/>
     <use xlink:href="#mc161f8984a" x="1329.085078" y="36.841818" style="fill: #1f77b4; stroke: #ffffff; stroke-width: 0.75"/>
     <use xlink:href="#mc161f8984a" x="1335.804201" y="36.841818" style="fill: #1f77b4; stroke: #ffffff; stroke-width: 0.75"/>
     <use xlink:href="#mc161f8984a" x="1342.523323" y="36.841818" style="fill: #1f77b4; stroke: #ffffff; stroke-width: 0.75"/>
     <use xlink:href="#mc161f8984a" x="1349.242445" y="36.841818" style="fill: #1f77b4; stroke: #ffffff; stroke-width: 0.75"/>
     <use xlink:href="#mc161f8984a" x="1355.961567" y="36.841818" style="fill: #1f77b4; stroke: #ffffff; stroke-width: 0.75"/>
     <use xlink:href="#mc161f8984a" x="1362.68069" y="36.841818" style="fill: #1f77b4; stroke: #ffffff; stroke-width: 0.75"/>
     <use xlink:href="#mc161f8984a" x="1369.399812" y="36.841818" style="fill: #1f77b4; stroke: #ffffff; stroke-width: 0.75"/>
     <use xlink:href="#mc161f8984a" x="1376.118934" y="36.841818" style="fill: #1f77b4; stroke: #ffffff; stroke-width: 0.75"/>
     <use xlink:href="#mc161f8984a" x="1382.838056" y="36.841818" style="fill: #1f77b4; stroke: #ffffff; stroke-width: 0.75"/>
     <use xlink:href="#mc161f8984a" x="1389.557179" y="36.841818" style="fill: #1f77b4; stroke: #ffffff; stroke-width: 0.75"/>
     <use xlink:href="#mc161f8984a" x="1396.276301" y="36.841818" style="fill: #1f77b4; stroke: #ffffff; stroke-width: 0.75"/>
     <use xlink:href="#mc161f8984a" x="1402.995423" y="36.841818" style="fill: #1f77b4; stroke: #ffffff; stroke-width: 0.75"/>
     <use xlink:href="#mc161f8984a" x="1409.714545" y="36.841818" style="fill: #1f77b4; stroke: #ffffff; stroke-width: 0.75"/>
    </g>
   </g>
   <g id="line2d_41">
    <path d="M 1000.52 80.086565 
L 1429.2 80.086565 
" clip-path="url(#p078fcbcf1f)" style="fill: none; stroke-dasharray: 5.55,2.4; stroke-dashoffset: 0; stroke: #ff0000; stroke-width: 1.5"/>
   </g>
   <g id="patch_72">
    <path d="M 1000.52 246.04 
L 1000.52 26.88 
" style="fill: none; stroke: #000000; stroke-width: 0.8; stroke-linejoin: miter; stroke-linecap: square"/>
   </g>
   <g id="patch_73">
    <path d="M 1429.2 246.04 
L 1429.2 26.88 
" style="fill: none; stroke: #000000; stroke-width: 0.8; stroke-linejoin: miter; stroke-linecap: square"/>
   </g>
   <g id="patch_74">
    <path d="M 1000.52 246.04 
L 1429.2 246.04 
" style="fill: none; stroke: #000000; stroke-width: 0.8; stroke-linejoin: miter; stroke-linecap: square"/>
   </g>
   <g id="patch_75">
    <path d="M 1000.52 26.88 
L 1429.2 26.88 
" style="fill: none; stroke: #000000; stroke-width: 0.8; stroke-linejoin: miter; stroke-linecap: square"/>
   </g>
   <g id="text_47">
    <!-- Cumulative Scree Plot -->
    <g transform="translate(1148.669687 20.88) scale(0.12 -0.12)">
     <use xlink:href="#DejaVuSans-43"/>
     <use xlink:href="#DejaVuSans-75" transform="translate(69.824219 0)"/>
     <use xlink:href="#DejaVuSans-6d" transform="translate(133.203125 0)"/>
     <use xlink:href="#DejaVuSans-75" transform="translate(230.615234 0)"/>
     <use xlink:href="#DejaVuSans-6c" transform="translate(293.994141 0)"/>
     <use xlink:href="#DejaVuSans-61" transform="translate(321.777344 0)"/>
     <use xlink:href="#DejaVuSans-74" transform="translate(383.056641 0)"/>
     <use xlink:href="#DejaVuSans-69" transform="translate(422.265625 0)"/>
     <use xlink:href="#DejaVuSans-76" transform="translate(450.048828 0)"/>
     <use xlink:href="#DejaVuSans-65" transform="translate(509.228516 0)"/>
     <use xlink:href="#DejaVuSans-20" transform="translate(570.751953 0)"/>
     <use xlink:href="#DejaVuSans-53" transform="translate(602.539062 0)"/>
     <use xlink:href="#DejaVuSans-63" transform="translate(666.015625 0)"/>
     <use xlink:href="#DejaVuSans-72" transform="translate(720.996094 0)"/>
     <use xlink:href="#DejaVuSans-65" transform="translate(759.859375 0)"/>
     <use xlink:href="#DejaVuSans-65" transform="translate(821.382812 0)"/>
     <use xlink:href="#DejaVuSans-20" transform="translate(882.90625 0)"/>
     <use xlink:href="#DejaVuSans-50" transform="translate(914.693359 0)"/>
     <use xlink:href="#DejaVuSans-6c" transform="translate(974.996094 0)"/>
     <use xlink:href="#DejaVuSans-6f" transform="translate(1002.779297 0)"/>
     <use xlink:href="#DejaVuSans-74" transform="translate(1063.960938 0)"/>
    </g>
   </g>
  </g>
 </g>
 <defs>
  <clipPath id="p41e072093e">
   <rect x="47.72" y="26.88" width="428.68" height="219.16"/>
  </clipPath>
  <clipPath id="pec90c92661">
   <rect x="524.12" y="26.88" width="428.68" height="219.16"/>
  </clipPath>
  <clipPath id="p078fcbcf1f">
   <rect x="1000.52" y="26.88" width="428.68" height="219.16"/>
  </clipPath>
 </defs>
</svg>
