<?xml version="1.0" encoding="utf-8" standalone="no"?>
<!DOCTYPE svg PUBLIC "-//W3C//DTD SVG 1.1//EN"
  "http://www.w3.org/Graphics/SVG/1.1/DTD/svg11.dtd">
<svg xmlns:xlink="http://www.w3.org/1999/xlink" width="864pt" height="432pt" viewBox="0 0 864 432" xmlns="http://www.w3.org/2000/svg" version="1.1">
 <metadata>
  <rdf:RDF xmlns:dc="http://purl.org/dc/elements/1.1/" xmlns:cc="http://creativecommons.org/ns#" xmlns:rdf="http://www.w3.org/1999/02/22-rdf-syntax-ns#">
   <cc:Work>
    <dc:type rdf:resource="http://purl.org/dc/dcmitype/StillImage"/>
    <dc:date>2025-01-01T17:01:19.242332</dc:date>
    <dc:format>image/svg+xml</dc:format>
    <dc:creator>
     <cc:Agent>
      <dc:title>Matplotlib v3.10.0, https://matplotlib.org/</dc:title>
     </cc:Agent>
    </dc:creator>
   </cc:Work>
  </rdf:RDF>
 </metadata>
 <defs>
  <style type="text/css">*{stroke-linejoin: round; stroke-linecap: butt}</style>
 </defs>
 <g id="figure_1">
  <g id="patch_1">
   <path d="M 0 432 
L 864 432 
L 864 0 
L 0 0 
z
" style="fill: #ffffff"/>
  </g>
  <g id="axes_1">
   <g id="patch_2">
    <path d="M 41.92 404.12 
L 426.6 404.12 
L 426.6 26.88 
L 41.92 26.88 
z
" style="fill: #ffffff"/>
   </g>
   <g id="matplotlib.axis_1">
    <g id="xtick_1">
     <g id="line2d_1">
      <defs>
       <path id="m58bb1a54b2" d="M 0 0 
L 0 3.5 
" style="stroke: #000000; stroke-width: 0.8"/>
      </defs>
      <g>
       <use xlink:href="#m58bb1a54b2" x="59.405455" y="404.12" style="stroke: #000000; stroke-width: 0.8"/>
      </g>
     </g>
     <g id="text_1">
      <!-- 0.0 -->
      <g transform="translate(51.453892 418.718437) scale(0.1 -0.1)">
       <defs>
        <path id="DejaVuSans-30" d="M 2034 4250 
Q 1547 4250 1301 3770 
Q 1056 3291 1056 2328 
Q 1056 1369 1301 889 
Q 1547 409 2034 409 
Q 2525 409 2770 889 
Q 3016 1369 3016 2328 
Q 3016 3291 2770 3770 
Q 2525 4250 2034 4250 
z
M 2034 4750 
Q 2819 4750 3233 4129 
Q 3647 3509 3647 2328 
Q 3647 1150 3233 529 
Q 2819 -91 2034 -91 
Q 1250 -91 836 529 
Q 422 1150 422 2328 
Q 422 3509 836 4129 
Q 1250 4750 2034 4750 
z
" transform="scale(0.015625)"/>
        <path id="DejaVuSans-2e" d="M 684 794 
L 1344 794 
L 1344 0 
L 684 0 
L 684 794 
z
" transform="scale(0.015625)"/>
       </defs>
       <use xlink:href="#DejaVuSans-30"/>
       <use xlink:href="#DejaVuSans-2e" transform="translate(63.623047 0)"/>
       <use xlink:href="#DejaVuSans-30" transform="translate(95.410156 0)"/>
      </g>
     </g>
    </g>
    <g id="xtick_2">
     <g id="line2d_2">
      <g>
       <use xlink:href="#m58bb1a54b2" x="103.119091" y="404.12" style="stroke: #000000; stroke-width: 0.8"/>
      </g>
     </g>
     <g id="text_2">
      <!-- 2.5 -->
      <g transform="translate(95.167528 418.718437) scale(0.1 -0.1)">
       <defs>
        <path id="DejaVuSans-32" d="M 1228 531 
L 3431 531 
L 3431 0 
L 469 0 
L 469 531 
Q 828 903 1448 1529 
Q 2069 2156 2228 2338 
Q 2531 2678 2651 2914 
Q 2772 3150 2772 3378 
Q 2772 3750 2511 3984 
Q 2250 4219 1831 4219 
Q 1534 4219 1204 4116 
Q 875 4013 500 3803 
L 500 4441 
Q 881 4594 1212 4672 
Q 1544 4750 1819 4750 
Q 2544 4750 2975 4387 
Q 3406 4025 3406 3419 
Q 3406 3131 3298 2873 
Q 3191 2616 2906 2266 
Q 2828 2175 2409 1742 
Q 1991 1309 1228 531 
z
" transform="scale(0.015625)"/>
        <path id="DejaVuSans-35" d="M 691 4666 
L 3169 4666 
L 3169 4134 
L 1269 4134 
L 1269 2991 
Q 1406 3038 1543 3061 
Q 1681 3084 1819 3084 
Q 2600 3084 3056 2656 
Q 3513 2228 3513 1497 
Q 3513 744 3044 326 
Q 2575 -91 1722 -91 
Q 1428 -91 1123 -41 
Q 819 9 494 109 
L 494 744 
Q 775 591 1075 516 
Q 1375 441 1709 441 
Q 2250 441 2565 725 
Q 2881 1009 2881 1497 
Q 2881 1984 2565 2268 
Q 2250 2553 1709 2553 
Q 1456 2553 1204 2497 
Q 953 2441 691 2322 
L 691 4666 
z
" transform="scale(0.015625)"/>
       </defs>
       <use xlink:href="#DejaVuSans-32"/>
       <use xlink:href="#DejaVuSans-2e" transform="translate(63.623047 0)"/>
       <use xlink:href="#DejaVuSans-35" transform="translate(95.410156 0)"/>
      </g>
     </g>
    </g>
    <g id="xtick_3">
     <g id="line2d_3">
      <g>
       <use xlink:href="#m58bb1a54b2" x="146.832727" y="404.12" style="stroke: #000000; stroke-width: 0.8"/>
      </g>
     </g>
     <g id="text_3">
      <!-- 5.0 -->
      <g transform="translate(138.881165 418.718437) scale(0.1 -0.1)">
       <use xlink:href="#DejaVuSans-35"/>
       <use xlink:href="#DejaVuSans-2e" transform="translate(63.623047 0)"/>
       <use xlink:href="#DejaVuSans-30" transform="translate(95.410156 0)"/>
      </g>
     </g>
    </g>
    <g id="xtick_4">
     <g id="line2d_4">
      <g>
       <use xlink:href="#m58bb1a54b2" x="190.546364" y="404.12" style="stroke: #000000; stroke-width: 0.8"/>
      </g>
     </g>
     <g id="text_4">
      <!-- 7.5 -->
      <g transform="translate(182.594801 418.718437) scale(0.1 -0.1)">
       <defs>
        <path id="DejaVuSans-37" d="M 525 4666 
L 3525 4666 
L 3525 4397 
L 1831 0 
L 1172 0 
L 2766 4134 
L 525 4134 
L 525 4666 
z
" transform="scale(0.015625)"/>
       </defs>
       <use xlink:href="#DejaVuSans-37"/>
       <use xlink:href="#DejaVuSans-2e" transform="translate(63.623047 0)"/>
       <use xlink:href="#DejaVuSans-35" transform="translate(95.410156 0)"/>
      </g>
     </g>
    </g>
    <g id="xtick_5">
     <g id="line2d_5">
      <g>
       <use xlink:href="#m58bb1a54b2" x="234.26" y="404.12" style="stroke: #000000; stroke-width: 0.8"/>
      </g>
     </g>
     <g id="text_5">
      <!-- 10.0 -->
      <g transform="translate(223.127188 418.718437) scale(0.1 -0.1)">
       <defs>
        <path id="DejaVuSans-31" d="M 794 531 
L 1825 531 
L 1825 4091 
L 703 3866 
L 703 4441 
L 1819 4666 
L 2450 4666 
L 2450 531 
L 3481 531 
L 3481 0 
L 794 0 
L 794 531 
z
" transform="scale(0.015625)"/>
       </defs>
       <use xlink:href="#DejaVuSans-31"/>
       <use xlink:href="#DejaVuSans-30" transform="translate(63.623047 0)"/>
       <use xlink:href="#DejaVuSans-2e" transform="translate(127.246094 0)"/>
       <use xlink:href="#DejaVuSans-30" transform="translate(159.033203 0)"/>
      </g>
     </g>
    </g>
    <g id="xtick_6">
     <g id="line2d_6">
      <g>
       <use xlink:href="#m58bb1a54b2" x="277.973636" y="404.12" style="stroke: #000000; stroke-width: 0.8"/>
      </g>
     </g>
     <g id="text_6">
      <!-- 12.5 -->
      <g transform="translate(266.840824 418.718437) scale(0.1 -0.1)">
       <use xlink:href="#DejaVuSans-31"/>
       <use xlink:href="#DejaVuSans-32" transform="translate(63.623047 0)"/>
       <use xlink:href="#DejaVuSans-2e" transform="translate(127.246094 0)"/>
       <use xlink:href="#DejaVuSans-35" transform="translate(159.033203 0)"/>
      </g>
     </g>
    </g>
    <g id="xtick_7">
     <g id="line2d_7">
      <g>
       <use xlink:href="#m58bb1a54b2" x="321.687273" y="404.12" style="stroke: #000000; stroke-width: 0.8"/>
      </g>
     </g>
     <g id="text_7">
      <!-- 15.0 -->
      <g transform="translate(310.55446 418.718437) scale(0.1 -0.1)">
       <use xlink:href="#DejaVuSans-31"/>
       <use xlink:href="#DejaVuSans-35" transform="translate(63.623047 0)"/>
       <use xlink:href="#DejaVuSans-2e" transform="translate(127.246094 0)"/>
       <use xlink:href="#DejaVuSans-30" transform="translate(159.033203 0)"/>
      </g>
     </g>
    </g>
    <g id="xtick_8">
     <g id="line2d_8">
      <g>
       <use xlink:href="#m58bb1a54b2" x="365.400909" y="404.12" style="stroke: #000000; stroke-width: 0.8"/>
      </g>
     </g>
     <g id="text_8">
      <!-- 17.5 -->
      <g transform="translate(354.268097 418.718437) scale(0.1 -0.1)">
       <use xlink:href="#DejaVuSans-31"/>
       <use xlink:href="#DejaVuSans-37" transform="translate(63.623047 0)"/>
       <use xlink:href="#DejaVuSans-2e" transform="translate(127.246094 0)"/>
       <use xlink:href="#DejaVuSans-35" transform="translate(159.033203 0)"/>
      </g>
     </g>
    </g>
    <g id="xtick_9">
     <g id="line2d_9">
      <g>
       <use xlink:href="#m58bb1a54b2" x="409.114545" y="404.12" style="stroke: #000000; stroke-width: 0.8"/>
      </g>
     </g>
     <g id="text_9">
      <!-- 20.0 -->
      <g transform="translate(397.981733 418.718437) scale(0.1 -0.1)">
       <use xlink:href="#DejaVuSans-32"/>
       <use xlink:href="#DejaVuSans-30" transform="translate(63.623047 0)"/>
       <use xlink:href="#DejaVuSans-2e" transform="translate(127.246094 0)"/>
       <use xlink:href="#DejaVuSans-30" transform="translate(159.033203 0)"/>
      </g>
     </g>
    </g>
   </g>
   <g id="matplotlib.axis_2">
    <g id="ytick_1">
     <g id="line2d_10">
      <defs>
       <path id="m2f473bd122" d="M 0 0 
L -3.5 0 
" style="stroke: #000000; stroke-width: 0.8"/>
      </defs>
      <g>
       <use xlink:href="#m2f473bd122" x="41.92" y="368.363619" style="stroke: #000000; stroke-width: 0.8"/>
      </g>
     </g>
     <g id="text_10">
      <!-- −0.4 -->
      <g transform="translate(10.637187 372.162838) scale(0.1 -0.1)">
       <defs>
        <path id="DejaVuSans-2212" d="M 678 2272 
L 4684 2272 
L 4684 1741 
L 678 1741 
L 678 2272 
z
" transform="scale(0.015625)"/>
        <path id="DejaVuSans-34" d="M 2419 4116 
L 825 1625 
L 2419 1625 
L 2419 4116 
z
M 2253 4666 
L 3047 4666 
L 3047 1625 
L 3713 1625 
L 3713 1100 
L 3047 1100 
L 3047 0 
L 2419 0 
L 2419 1100 
L 313 1100 
L 313 1709 
L 2253 4666 
z
" transform="scale(0.015625)"/>
       </defs>
       <use xlink:href="#DejaVuSans-2212"/>
       <use xlink:href="#DejaVuSans-30" transform="translate(83.789062 0)"/>
       <use xlink:href="#DejaVuSans-2e" transform="translate(147.412109 0)"/>
       <use xlink:href="#DejaVuSans-34" transform="translate(179.199219 0)"/>
      </g>
     </g>
    </g>
    <g id="ytick_2">
     <g id="line2d_11">
      <g>
       <use xlink:href="#m2f473bd122" x="41.92" y="322.029855" style="stroke: #000000; stroke-width: 0.8"/>
      </g>
     </g>
     <g id="text_11">
      <!-- −0.2 -->
      <g transform="translate(10.637187 325.829074) scale(0.1 -0.1)">
       <use xlink:href="#DejaVuSans-2212"/>
       <use xlink:href="#DejaVuSans-30" transform="translate(83.789062 0)"/>
       <use xlink:href="#DejaVuSans-2e" transform="translate(147.412109 0)"/>
       <use xlink:href="#DejaVuSans-32" transform="translate(179.199219 0)"/>
      </g>
     </g>
    </g>
    <g id="ytick_3">
     <g id="line2d_12">
      <g>
       <use xlink:href="#m2f473bd122" x="41.92" y="275.696092" style="stroke: #000000; stroke-width: 0.8"/>
      </g>
     </g>
     <g id="text_12">
      <!-- 0.0 -->
      <g transform="translate(19.016875 279.49531) scale(0.1 -0.1)">
       <use xlink:href="#DejaVuSans-30"/>
       <use xlink:href="#DejaVuSans-2e" transform="translate(63.623047 0)"/>
       <use xlink:href="#DejaVuSans-30" transform="translate(95.410156 0)"/>
      </g>
     </g>
    </g>
    <g id="ytick_4">
     <g id="line2d_13">
      <g>
       <use xlink:href="#m2f473bd122" x="41.92" y="229.362328" style="stroke: #000000; stroke-width: 0.8"/>
      </g>
     </g>
     <g id="text_13">
      <!-- 0.2 -->
      <g transform="translate(19.016875 233.161547) scale(0.1 -0.1)">
       <use xlink:href="#DejaVuSans-30"/>
       <use xlink:href="#DejaVuSans-2e" transform="translate(63.623047 0)"/>
       <use xlink:href="#DejaVuSans-32" transform="translate(95.410156 0)"/>
      </g>
     </g>
    </g>
    <g id="ytick_5">
     <g id="line2d_14">
      <g>
       <use xlink:href="#m2f473bd122" x="41.92" y="183.028564" style="stroke: #000000; stroke-width: 0.8"/>
      </g>
     </g>
     <g id="text_14">
      <!-- 0.4 -->
      <g transform="translate(19.016875 186.827783) scale(0.1 -0.1)">
       <use xlink:href="#DejaVuSans-30"/>
       <use xlink:href="#DejaVuSans-2e" transform="translate(63.623047 0)"/>
       <use xlink:href="#DejaVuSans-34" transform="translate(95.410156 0)"/>
      </g>
     </g>
    </g>
    <g id="ytick_6">
     <g id="line2d_15">
      <g>
       <use xlink:href="#m2f473bd122" x="41.92" y="136.6948" style="stroke: #000000; stroke-width: 0.8"/>
      </g>
     </g>
     <g id="text_15">
      <!-- 0.6 -->
      <g transform="translate(19.016875 140.494019) scale(0.1 -0.1)">
       <defs>
        <path id="DejaVuSans-36" d="M 2113 2584 
Q 1688 2584 1439 2293 
Q 1191 2003 1191 1497 
Q 1191 994 1439 701 
Q 1688 409 2113 409 
Q 2538 409 2786 701 
Q 3034 994 3034 1497 
Q 3034 2003 2786 2293 
Q 2538 2584 2113 2584 
z
M 3366 4563 
L 3366 3988 
Q 3128 4100 2886 4159 
Q 2644 4219 2406 4219 
Q 1781 4219 1451 3797 
Q 1122 3375 1075 2522 
Q 1259 2794 1537 2939 
Q 1816 3084 2150 3084 
Q 2853 3084 3261 2657 
Q 3669 2231 3669 1497 
Q 3669 778 3244 343 
Q 2819 -91 2113 -91 
Q 1303 -91 875 529 
Q 447 1150 447 2328 
Q 447 3434 972 4092 
Q 1497 4750 2381 4750 
Q 2619 4750 2861 4703 
Q 3103 4656 3366 4563 
z
" transform="scale(0.015625)"/>
       </defs>
       <use xlink:href="#DejaVuSans-30"/>
       <use xlink:href="#DejaVuSans-2e" transform="translate(63.623047 0)"/>
       <use xlink:href="#DejaVuSans-36" transform="translate(95.410156 0)"/>
      </g>
     </g>
    </g>
    <g id="ytick_7">
     <g id="line2d_16">
      <g>
       <use xlink:href="#m2f473bd122" x="41.92" y="90.361037" style="stroke: #000000; stroke-width: 0.8"/>
      </g>
     </g>
     <g id="text_16">
      <!-- 0.8 -->
      <g transform="translate(19.016875 94.160255) scale(0.1 -0.1)">
       <defs>
        <path id="DejaVuSans-38" d="M 2034 2216 
Q 1584 2216 1326 1975 
Q 1069 1734 1069 1313 
Q 1069 891 1326 650 
Q 1584 409 2034 409 
Q 2484 409 2743 651 
Q 3003 894 3003 1313 
Q 3003 1734 2745 1975 
Q 2488 2216 2034 2216 
z
M 1403 2484 
Q 997 2584 770 2862 
Q 544 3141 544 3541 
Q 544 4100 942 4425 
Q 1341 4750 2034 4750 
Q 2731 4750 3128 4425 
Q 3525 4100 3525 3541 
Q 3525 3141 3298 2862 
Q 3072 2584 2669 2484 
Q 3125 2378 3379 2068 
Q 3634 1759 3634 1313 
Q 3634 634 3220 271 
Q 2806 -91 2034 -91 
Q 1263 -91 848 271 
Q 434 634 434 1313 
Q 434 1759 690 2068 
Q 947 2378 1403 2484 
z
M 1172 3481 
Q 1172 3119 1398 2916 
Q 1625 2713 2034 2713 
Q 2441 2713 2670 2916 
Q 2900 3119 2900 3481 
Q 2900 3844 2670 4047 
Q 2441 4250 2034 4250 
Q 1625 4250 1398 4047 
Q 1172 3844 1172 3481 
z
" transform="scale(0.015625)"/>
       </defs>
       <use xlink:href="#DejaVuSans-30"/>
       <use xlink:href="#DejaVuSans-2e" transform="translate(63.623047 0)"/>
       <use xlink:href="#DejaVuSans-38" transform="translate(95.410156 0)"/>
      </g>
     </g>
    </g>
    <g id="ytick_8">
     <g id="line2d_17">
      <g>
       <use xlink:href="#m2f473bd122" x="41.92" y="44.027273" style="stroke: #000000; stroke-width: 0.8"/>
      </g>
     </g>
     <g id="text_17">
      <!-- 1.0 -->
      <g transform="translate(19.016875 47.826491) scale(0.1 -0.1)">
       <use xlink:href="#DejaVuSans-31"/>
       <use xlink:href="#DejaVuSans-2e" transform="translate(63.623047 0)"/>
       <use xlink:href="#DejaVuSans-30" transform="translate(95.410156 0)"/>
      </g>
     </g>
    </g>
   </g>
   <g id="LineCollection_1">
    <path d="M 59.405455 275.696092 
L 59.405455 44.027273 
" clip-path="url(#p615564411c)" style="fill: none; stroke: #1f77b4; stroke-width: 1.5"/>
    <path d="M 76.890909 275.696092 
L 76.890909 218.710463 
" clip-path="url(#p615564411c)" style="fill: none; stroke: #1f77b4; stroke-width: 1.5"/>
    <path d="M 94.376364 275.696092 
L 94.376364 284.067983 
" clip-path="url(#p615564411c)" style="fill: none; stroke: #1f77b4; stroke-width: 1.5"/>
    <path d="M 111.861818 275.696092 
L 111.861818 263.624284 
" clip-path="url(#p615564411c)" style="fill: none; stroke: #1f77b4; stroke-width: 1.5"/>
    <path d="M 129.347273 275.696092 
L 129.347273 295.877545 
" clip-path="url(#p615564411c)" style="fill: none; stroke: #1f77b4; stroke-width: 1.5"/>
    <path d="M 146.832727 275.696092 
L 146.832727 338.652381 
" clip-path="url(#p615564411c)" style="fill: none; stroke: #1f77b4; stroke-width: 1.5"/>
    <path d="M 164.318182 275.696092 
L 164.318182 334.708295 
" clip-path="url(#p615564411c)" style="fill: none; stroke: #1f77b4; stroke-width: 1.5"/>
    <path d="M 181.803636 275.696092 
L 181.803636 386.972727 
" clip-path="url(#p615564411c)" style="fill: none; stroke: #1f77b4; stroke-width: 1.5"/>
    <path d="M 199.289091 275.696092 
L 199.289091 294.580032 
" clip-path="url(#p615564411c)" style="fill: none; stroke: #1f77b4; stroke-width: 1.5"/>
    <path d="M 216.774545 275.696092 
L 216.774545 257.529216 
" clip-path="url(#p615564411c)" style="fill: none; stroke: #1f77b4; stroke-width: 1.5"/>
    <path d="M 234.26 275.696092 
L 234.26 266.157504 
" clip-path="url(#p615564411c)" style="fill: none; stroke: #1f77b4; stroke-width: 1.5"/>
    <path d="M 251.745455 275.696092 
L 251.745455 231.293397 
" clip-path="url(#p615564411c)" style="fill: none; stroke: #1f77b4; stroke-width: 1.5"/>
    <path d="M 269.230909 275.696092 
L 269.230909 139.041124 
" clip-path="url(#p615564411c)" style="fill: none; stroke: #1f77b4; stroke-width: 1.5"/>
    <path d="M 286.716364 275.696092 
L 286.716364 240.020021 
" clip-path="url(#p615564411c)" style="fill: none; stroke: #1f77b4; stroke-width: 1.5"/>
    <path d="M 304.201818 275.696092 
L 304.201818 282.140809 
" clip-path="url(#p615564411c)" style="fill: none; stroke: #1f77b4; stroke-width: 1.5"/>
    <path d="M 321.687273 275.696092 
L 321.687273 264.421933 
" clip-path="url(#p615564411c)" style="fill: none; stroke: #1f77b4; stroke-width: 1.5"/>
    <path d="M 339.172727 275.696092 
L 339.172727 294.462762 
" clip-path="url(#p615564411c)" style="fill: none; stroke: #1f77b4; stroke-width: 1.5"/>
    <path d="M 356.658182 275.696092 
L 356.658182 345.710252 
" clip-path="url(#p615564411c)" style="fill: none; stroke: #1f77b4; stroke-width: 1.5"/>
    <path d="M 374.143636 275.696092 
L 374.143636 328.028267 
" clip-path="url(#p615564411c)" style="fill: none; stroke: #1f77b4; stroke-width: 1.5"/>
    <path d="M 391.629091 275.696092 
L 391.629091 354.378775 
" clip-path="url(#p615564411c)" style="fill: none; stroke: #1f77b4; stroke-width: 1.5"/>
    <path d="M 409.114545 275.696092 
L 409.114545 294.599482 
" clip-path="url(#p615564411c)" style="fill: none; stroke: #1f77b4; stroke-width: 1.5"/>
   </g>
   <g id="line2d_18">
    <defs>
     <path id="m5fb1bbc1f3" d="M 0 3 
C 0.795609 3 1.55874 2.683901 2.12132 2.12132 
C 2.683901 1.55874 3 0.795609 3 0 
C 3 -0.795609 2.683901 -1.55874 2.12132 -2.12132 
C 1.55874 -2.683901 0.795609 -3 0 -3 
C -0.795609 -3 -1.55874 -2.683901 -2.12132 -2.12132 
C -2.683901 -1.55874 -3 -0.795609 -3 0 
C -3 0.795609 -2.683901 1.55874 -2.12132 2.12132 
C -1.55874 2.683901 -0.795609 3 0 3 
z
" style="stroke: #1f77b4"/>
    </defs>
    <g clip-path="url(#p615564411c)">
     <use xlink:href="#m5fb1bbc1f3" x="59.405455" y="44.027273" style="fill: #1f77b4; stroke: #1f77b4"/>
     <use xlink:href="#m5fb1bbc1f3" x="76.890909" y="218.710463" style="fill: #1f77b4; stroke: #1f77b4"/>
     <use xlink:href="#m5fb1bbc1f3" x="94.376364" y="284.067983" style="fill: #1f77b4; stroke: #1f77b4"/>
     <use xlink:href="#m5fb1bbc1f3" x="111.861818" y="263.624284" style="fill: #1f77b4; stroke: #1f77b4"/>
     <use xlink:href="#m5fb1bbc1f3" x="129.347273" y="295.877545" style="fill: #1f77b4; stroke: #1f77b4"/>
     <use xlink:href="#m5fb1bbc1f3" x="146.832727" y="338.652381" style="fill: #1f77b4; stroke: #1f77b4"/>
     <use xlink:href="#m5fb1bbc1f3" x="164.318182" y="334.708295" style="fill: #1f77b4; stroke: #1f77b4"/>
     <use xlink:href="#m5fb1bbc1f3" x="181.803636" y="386.972727" style="fill: #1f77b4; stroke: #1f77b4"/>
     <use xlink:href="#m5fb1bbc1f3" x="199.289091" y="294.580032" style="fill: #1f77b4; stroke: #1f77b4"/>
     <use xlink:href="#m5fb1bbc1f3" x="216.774545" y="257.529216" style="fill: #1f77b4; stroke: #1f77b4"/>
     <use xlink:href="#m5fb1bbc1f3" x="234.26" y="266.157504" style="fill: #1f77b4; stroke: #1f77b4"/>
     <use xlink:href="#m5fb1bbc1f3" x="251.745455" y="231.293397" style="fill: #1f77b4; stroke: #1f77b4"/>
     <use xlink:href="#m5fb1bbc1f3" x="269.230909" y="139.041124" style="fill: #1f77b4; stroke: #1f77b4"/>
     <use xlink:href="#m5fb1bbc1f3" x="286.716364" y="240.020021" style="fill: #1f77b4; stroke: #1f77b4"/>
     <use xlink:href="#m5fb1bbc1f3" x="304.201818" y="282.140809" style="fill: #1f77b4; stroke: #1f77b4"/>
     <use xlink:href="#m5fb1bbc1f3" x="321.687273" y="264.421933" style="fill: #1f77b4; stroke: #1f77b4"/>
     <use xlink:href="#m5fb1bbc1f3" x="339.172727" y="294.462762" style="fill: #1f77b4; stroke: #1f77b4"/>
     <use xlink:href="#m5fb1bbc1f3" x="356.658182" y="345.710252" style="fill: #1f77b4; stroke: #1f77b4"/>
     <use xlink:href="#m5fb1bbc1f3" x="374.143636" y="328.028267" style="fill: #1f77b4; stroke: #1f77b4"/>
     <use xlink:href="#m5fb1bbc1f3" x="391.629091" y="354.378775" style="fill: #1f77b4; stroke: #1f77b4"/>
     <use xlink:href="#m5fb1bbc1f3" x="409.114545" y="294.599482" style="fill: #1f77b4; stroke: #1f77b4"/>
    </g>
   </g>
   <g id="line2d_19">
    <path d="M 59.405455 275.696092 
L 409.114545 275.696092 
" clip-path="url(#p615564411c)" style="fill: none; stroke: #d62728; stroke-width: 1.5; stroke-linecap: square"/>
   </g>
   <g id="patch_3">
    <path d="M 41.92 404.12 
L 41.92 26.88 
" style="fill: none; stroke: #000000; stroke-width: 0.8; stroke-linejoin: miter; stroke-linecap: square"/>
   </g>
   <g id="patch_4">
    <path d="M 426.6 404.12 
L 426.6 26.88 
" style="fill: none; stroke: #000000; stroke-width: 0.8; stroke-linejoin: miter; stroke-linecap: square"/>
   </g>
   <g id="patch_5">
    <path d="M 41.92 404.12 
L 426.6 404.12 
" style="fill: none; stroke: #000000; stroke-width: 0.8; stroke-linejoin: miter; stroke-linecap: square"/>
   </g>
   <g id="patch_6">
    <path d="M 41.92 26.88 
L 426.6 26.88 
" style="fill: none; stroke: #000000; stroke-width: 0.8; stroke-linejoin: miter; stroke-linecap: square"/>
   </g>
   <g id="text_18">
    <!-- ACF Plot Rose -->
    <g transform="translate(193.110312 20.88) scale(0.12 -0.12)">
     <defs>
      <path id="DejaVuSans-41" d="M 2188 4044 
L 1331 1722 
L 3047 1722 
L 2188 4044 
z
M 1831 4666 
L 2547 4666 
L 4325 0 
L 3669 0 
L 3244 1197 
L 1141 1197 
L 716 0 
L 50 0 
L 1831 4666 
z
" transform="scale(0.015625)"/>
      <path id="DejaVuSans-43" d="M 4122 4306 
L 4122 3641 
Q 3803 3938 3442 4084 
Q 3081 4231 2675 4231 
Q 1875 4231 1450 3742 
Q 1025 3253 1025 2328 
Q 1025 1406 1450 917 
Q 1875 428 2675 428 
Q 3081 428 3442 575 
Q 3803 722 4122 1019 
L 4122 359 
Q 3791 134 3420 21 
Q 3050 -91 2638 -91 
Q 1578 -91 968 557 
Q 359 1206 359 2328 
Q 359 3453 968 4101 
Q 1578 4750 2638 4750 
Q 3056 4750 3426 4639 
Q 3797 4528 4122 4306 
z
" transform="scale(0.015625)"/>
      <path id="DejaVuSans-46" d="M 628 4666 
L 3309 4666 
L 3309 4134 
L 1259 4134 
L 1259 2759 
L 3109 2759 
L 3109 2228 
L 1259 2228 
L 1259 0 
L 628 0 
L 628 4666 
z
" transform="scale(0.015625)"/>
      <path id="DejaVuSans-20" transform="scale(0.015625)"/>
      <path id="DejaVuSans-50" d="M 1259 4147 
L 1259 2394 
L 2053 2394 
Q 2494 2394 2734 2622 
Q 2975 2850 2975 3272 
Q 2975 3691 2734 3919 
Q 2494 4147 2053 4147 
L 1259 4147 
z
M 628 4666 
L 2053 4666 
Q 2838 4666 3239 4311 
Q 3641 3956 3641 3272 
Q 3641 2581 3239 2228 
Q 2838 1875 2053 1875 
L 1259 1875 
L 1259 0 
L 628 0 
L 628 4666 
z
" transform="scale(0.015625)"/>
      <path id="DejaVuSans-6c" d="M 603 4863 
L 1178 4863 
L 1178 0 
L 603 0 
L 603 4863 
z
" transform="scale(0.015625)"/>
      <path id="DejaVuSans-6f" d="M 1959 3097 
Q 1497 3097 1228 2736 
Q 959 2375 959 1747 
Q 959 1119 1226 758 
Q 1494 397 1959 397 
Q 2419 397 2687 759 
Q 2956 1122 2956 1747 
Q 2956 2369 2687 2733 
Q 2419 3097 1959 3097 
z
M 1959 3584 
Q 2709 3584 3137 3096 
Q 3566 2609 3566 1747 
Q 3566 888 3137 398 
Q 2709 -91 1959 -91 
Q 1206 -91 779 398 
Q 353 888 353 1747 
Q 353 2609 779 3096 
Q 1206 3584 1959 3584 
z
" transform="scale(0.015625)"/>
      <path id="DejaVuSans-74" d="M 1172 4494 
L 1172 3500 
L 2356 3500 
L 2356 3053 
L 1172 3053 
L 1172 1153 
Q 1172 725 1289 603 
Q 1406 481 1766 481 
L 2356 481 
L 2356 0 
L 1766 0 
Q 1100 0 847 248 
Q 594 497 594 1153 
L 594 3053 
L 172 3053 
L 172 3500 
L 594 3500 
L 594 4494 
L 1172 4494 
z
" transform="scale(0.015625)"/>
      <path id="DejaVuSans-52" d="M 2841 2188 
Q 3044 2119 3236 1894 
Q 3428 1669 3622 1275 
L 4263 0 
L 3584 0 
L 2988 1197 
Q 2756 1666 2539 1819 
Q 2322 1972 1947 1972 
L 1259 1972 
L 1259 0 
L 628 0 
L 628 4666 
L 2053 4666 
Q 2853 4666 3247 4331 
Q 3641 3997 3641 3322 
Q 3641 2881 3436 2590 
Q 3231 2300 2841 2188 
z
M 1259 4147 
L 1259 2491 
L 2053 2491 
Q 2509 2491 2742 2702 
Q 2975 2913 2975 3322 
Q 2975 3731 2742 3939 
Q 2509 4147 2053 4147 
L 1259 4147 
z
" transform="scale(0.015625)"/>
      <path id="DejaVuSans-73" d="M 2834 3397 
L 2834 2853 
Q 2591 2978 2328 3040 
Q 2066 3103 1784 3103 
Q 1356 3103 1142 2972 
Q 928 2841 928 2578 
Q 928 2378 1081 2264 
Q 1234 2150 1697 2047 
L 1894 2003 
Q 2506 1872 2764 1633 
Q 3022 1394 3022 966 
Q 3022 478 2636 193 
Q 2250 -91 1575 -91 
Q 1294 -91 989 -36 
Q 684 19 347 128 
L 347 722 
Q 666 556 975 473 
Q 1284 391 1588 391 
Q 1994 391 2212 530 
Q 2431 669 2431 922 
Q 2431 1156 2273 1281 
Q 2116 1406 1581 1522 
L 1381 1569 
Q 847 1681 609 1914 
Q 372 2147 372 2553 
Q 372 3047 722 3315 
Q 1072 3584 1716 3584 
Q 2034 3584 2315 3537 
Q 2597 3491 2834 3397 
z
" transform="scale(0.015625)"/>
      <path id="DejaVuSans-65" d="M 3597 1894 
L 3597 1613 
L 953 1613 
Q 991 1019 1311 708 
Q 1631 397 2203 397 
Q 2534 397 2845 478 
Q 3156 559 3463 722 
L 3463 178 
Q 3153 47 2828 -22 
Q 2503 -91 2169 -91 
Q 1331 -91 842 396 
Q 353 884 353 1716 
Q 353 2575 817 3079 
Q 1281 3584 2069 3584 
Q 2775 3584 3186 3129 
Q 3597 2675 3597 1894 
z
M 3022 2063 
Q 3016 2534 2758 2815 
Q 2500 3097 2075 3097 
Q 1594 3097 1305 2825 
Q 1016 2553 972 2059 
L 3022 2063 
z
" transform="scale(0.015625)"/>
     </defs>
     <use xlink:href="#DejaVuSans-41"/>
     <use xlink:href="#DejaVuSans-43" transform="translate(66.658203 0)"/>
     <use xlink:href="#DejaVuSans-46" transform="translate(136.482422 0)"/>
     <use xlink:href="#DejaVuSans-20" transform="translate(194.001953 0)"/>
     <use xlink:href="#DejaVuSans-50" transform="translate(225.789062 0)"/>
     <use xlink:href="#DejaVuSans-6c" transform="translate(286.091797 0)"/>
     <use xlink:href="#DejaVuSans-6f" transform="translate(313.875 0)"/>
     <use xlink:href="#DejaVuSans-74" transform="translate(375.056641 0)"/>
     <use xlink:href="#DejaVuSans-20" transform="translate(414.265625 0)"/>
     <use xlink:href="#DejaVuSans-52" transform="translate(446.052734 0)"/>
     <use xlink:href="#DejaVuSans-6f" transform="translate(511.035156 0)"/>
     <use xlink:href="#DejaVuSans-73" transform="translate(572.216797 0)"/>
     <use xlink:href="#DejaVuSans-65" transform="translate(624.316406 0)"/>
    </g>
   </g>
  </g>
  <g id="axes_2">
   <g id="patch_7">
    <path d="M 468.52 404.12 
L 853.2 404.12 
L 853.2 26.88 
L 468.52 26.88 
z
" style="fill: #ffffff"/>
   </g>
   <g id="matplotlib.axis_3">
    <g id="xtick_10">
     <g id="line2d_20">
      <g>
       <use xlink:href="#m58bb1a54b2" x="486.005455" y="404.12" style="stroke: #000000; stroke-width: 0.8"/>
      </g>
     </g>
     <g id="text_19">
      <!-- 0.0 -->
      <g transform="translate(478.053892 418.718437) scale(0.1 -0.1)">
       <use xlink:href="#DejaVuSans-30"/>
       <use xlink:href="#DejaVuSans-2e" transform="translate(63.623047 0)"/>
       <use xlink:href="#DejaVuSans-30" transform="translate(95.410156 0)"/>
      </g>
     </g>
    </g>
    <g id="xtick_11">
     <g id="line2d_21">
      <g>
       <use xlink:href="#m58bb1a54b2" x="529.719091" y="404.12" style="stroke: #000000; stroke-width: 0.8"/>
      </g>
     </g>
     <g id="text_20">
      <!-- 2.5 -->
      <g transform="translate(521.767528 418.718437) scale(0.1 -0.1)">
       <use xlink:href="#DejaVuSans-32"/>
       <use xlink:href="#DejaVuSans-2e" transform="translate(63.623047 0)"/>
       <use xlink:href="#DejaVuSans-35" transform="translate(95.410156 0)"/>
      </g>
     </g>
    </g>
    <g id="xtick_12">
     <g id="line2d_22">
      <g>
       <use xlink:href="#m58bb1a54b2" x="573.432727" y="404.12" style="stroke: #000000; stroke-width: 0.8"/>
      </g>
     </g>
     <g id="text_21">
      <!-- 5.0 -->
      <g transform="translate(565.481165 418.718437) scale(0.1 -0.1)">
       <use xlink:href="#DejaVuSans-35"/>
       <use xlink:href="#DejaVuSans-2e" transform="translate(63.623047 0)"/>
       <use xlink:href="#DejaVuSans-30" transform="translate(95.410156 0)"/>
      </g>
     </g>
    </g>
    <g id="xtick_13">
     <g id="line2d_23">
      <g>
       <use xlink:href="#m58bb1a54b2" x="617.146364" y="404.12" style="stroke: #000000; stroke-width: 0.8"/>
      </g>
     </g>
     <g id="text_22">
      <!-- 7.5 -->
      <g transform="translate(609.194801 418.718437) scale(0.1 -0.1)">
       <use xlink:href="#DejaVuSans-37"/>
       <use xlink:href="#DejaVuSans-2e" transform="translate(63.623047 0)"/>
       <use xlink:href="#DejaVuSans-35" transform="translate(95.410156 0)"/>
      </g>
     </g>
    </g>
    <g id="xtick_14">
     <g id="line2d_24">
      <g>
       <use xlink:href="#m58bb1a54b2" x="660.86" y="404.12" style="stroke: #000000; stroke-width: 0.8"/>
      </g>
     </g>
     <g id="text_23">
      <!-- 10.0 -->
      <g transform="translate(649.727188 418.718437) scale(0.1 -0.1)">
       <use xlink:href="#DejaVuSans-31"/>
       <use xlink:href="#DejaVuSans-30" transform="translate(63.623047 0)"/>
       <use xlink:href="#DejaVuSans-2e" transform="translate(127.246094 0)"/>
       <use xlink:href="#DejaVuSans-30" transform="translate(159.033203 0)"/>
      </g>
     </g>
    </g>
    <g id="xtick_15">
     <g id="line2d_25">
      <g>
       <use xlink:href="#m58bb1a54b2" x="704.573636" y="404.12" style="stroke: #000000; stroke-width: 0.8"/>
      </g>
     </g>
     <g id="text_24">
      <!-- 12.5 -->
      <g transform="translate(693.440824 418.718437) scale(0.1 -0.1)">
       <use xlink:href="#DejaVuSans-31"/>
       <use xlink:href="#DejaVuSans-32" transform="translate(63.623047 0)"/>
       <use xlink:href="#DejaVuSans-2e" transform="translate(127.246094 0)"/>
       <use xlink:href="#DejaVuSans-35" transform="translate(159.033203 0)"/>
      </g>
     </g>
    </g>
    <g id="xtick_16">
     <g id="line2d_26">
      <g>
       <use xlink:href="#m58bb1a54b2" x="748.287273" y="404.12" style="stroke: #000000; stroke-width: 0.8"/>
      </g>
     </g>
     <g id="text_25">
      <!-- 15.0 -->
      <g transform="translate(737.15446 418.718437) scale(0.1 -0.1)">
       <use xlink:href="#DejaVuSans-31"/>
       <use xlink:href="#DejaVuSans-35" transform="translate(63.623047 0)"/>
       <use xlink:href="#DejaVuSans-2e" transform="translate(127.246094 0)"/>
       <use xlink:href="#DejaVuSans-30" transform="translate(159.033203 0)"/>
      </g>
     </g>
    </g>
    <g id="xtick_17">
     <g id="line2d_27">
      <g>
       <use xlink:href="#m58bb1a54b2" x="792.000909" y="404.12" style="stroke: #000000; stroke-width: 0.8"/>
      </g>
     </g>
     <g id="text_26">
      <!-- 17.5 -->
      <g transform="translate(780.868097 418.718437) scale(0.1 -0.1)">
       <use xlink:href="#DejaVuSans-31"/>
       <use xlink:href="#DejaVuSans-37" transform="translate(63.623047 0)"/>
       <use xlink:href="#DejaVuSans-2e" transform="translate(127.246094 0)"/>
       <use xlink:href="#DejaVuSans-35" transform="translate(159.033203 0)"/>
      </g>
     </g>
    </g>
    <g id="xtick_18">
     <g id="line2d_28">
      <g>
       <use xlink:href="#m58bb1a54b2" x="835.714545" y="404.12" style="stroke: #000000; stroke-width: 0.8"/>
      </g>
     </g>
     <g id="text_27">
      <!-- 20.0 -->
      <g transform="translate(824.581733 418.718437) scale(0.1 -0.1)">
       <use xlink:href="#DejaVuSans-32"/>
       <use xlink:href="#DejaVuSans-30" transform="translate(63.623047 0)"/>
       <use xlink:href="#DejaVuSans-2e" transform="translate(127.246094 0)"/>
       <use xlink:href="#DejaVuSans-30" transform="translate(159.033203 0)"/>
      </g>
     </g>
    </g>
   </g>
   <g id="matplotlib.axis_4">
    <g id="ytick_9">
     <g id="line2d_29">
      <g>
       <use xlink:href="#m2f473bd122" x="468.52" y="361.440189" style="stroke: #000000; stroke-width: 0.8"/>
      </g>
     </g>
     <g id="text_28">
      <!-- −0.4 -->
      <g transform="translate(437.237188 365.239408) scale(0.1 -0.1)">
       <use xlink:href="#DejaVuSans-2212"/>
       <use xlink:href="#DejaVuSans-30" transform="translate(83.789062 0)"/>
       <use xlink:href="#DejaVuSans-2e" transform="translate(147.412109 0)"/>
       <use xlink:href="#DejaVuSans-34" transform="translate(179.199219 0)"/>
      </g>
     </g>
    </g>
    <g id="ytick_10">
     <g id="line2d_30">
      <g>
       <use xlink:href="#m2f473bd122" x="468.52" y="316.095487" style="stroke: #000000; stroke-width: 0.8"/>
      </g>
     </g>
     <g id="text_29">
      <!-- −0.2 -->
      <g transform="translate(437.237188 319.894705) scale(0.1 -0.1)">
       <use xlink:href="#DejaVuSans-2212"/>
       <use xlink:href="#DejaVuSans-30" transform="translate(83.789062 0)"/>
       <use xlink:href="#DejaVuSans-2e" transform="translate(147.412109 0)"/>
       <use xlink:href="#DejaVuSans-32" transform="translate(179.199219 0)"/>
      </g>
     </g>
    </g>
    <g id="ytick_11">
     <g id="line2d_31">
      <g>
       <use xlink:href="#m2f473bd122" x="468.52" y="270.750784" style="stroke: #000000; stroke-width: 0.8"/>
      </g>
     </g>
     <g id="text_30">
      <!-- 0.0 -->
      <g transform="translate(445.616875 274.550003) scale(0.1 -0.1)">
       <use xlink:href="#DejaVuSans-30"/>
       <use xlink:href="#DejaVuSans-2e" transform="translate(63.623047 0)"/>
       <use xlink:href="#DejaVuSans-30" transform="translate(95.410156 0)"/>
      </g>
     </g>
    </g>
    <g id="ytick_12">
     <g id="line2d_32">
      <g>
       <use xlink:href="#m2f473bd122" x="468.52" y="225.406082" style="stroke: #000000; stroke-width: 0.8"/>
      </g>
     </g>
     <g id="text_31">
      <!-- 0.2 -->
      <g transform="translate(445.616875 229.205301) scale(0.1 -0.1)">
       <use xlink:href="#DejaVuSans-30"/>
       <use xlink:href="#DejaVuSans-2e" transform="translate(63.623047 0)"/>
       <use xlink:href="#DejaVuSans-32" transform="translate(95.410156 0)"/>
      </g>
     </g>
    </g>
    <g id="ytick_13">
     <g id="line2d_33">
      <g>
       <use xlink:href="#m2f473bd122" x="468.52" y="180.06138" style="stroke: #000000; stroke-width: 0.8"/>
      </g>
     </g>
     <g id="text_32">
      <!-- 0.4 -->
      <g transform="translate(445.616875 183.860598) scale(0.1 -0.1)">
       <use xlink:href="#DejaVuSans-30"/>
       <use xlink:href="#DejaVuSans-2e" transform="translate(63.623047 0)"/>
       <use xlink:href="#DejaVuSans-34" transform="translate(95.410156 0)"/>
      </g>
     </g>
    </g>
    <g id="ytick_14">
     <g id="line2d_34">
      <g>
       <use xlink:href="#m2f473bd122" x="468.52" y="134.716677" style="stroke: #000000; stroke-width: 0.8"/>
      </g>
     </g>
     <g id="text_33">
      <!-- 0.6 -->
      <g transform="translate(445.616875 138.515896) scale(0.1 -0.1)">
       <use xlink:href="#DejaVuSans-30"/>
       <use xlink:href="#DejaVuSans-2e" transform="translate(63.623047 0)"/>
       <use xlink:href="#DejaVuSans-36" transform="translate(95.410156 0)"/>
      </g>
     </g>
    </g>
    <g id="ytick_15">
     <g id="line2d_35">
      <g>
       <use xlink:href="#m2f473bd122" x="468.52" y="89.371975" style="stroke: #000000; stroke-width: 0.8"/>
      </g>
     </g>
     <g id="text_34">
      <!-- 0.8 -->
      <g transform="translate(445.616875 93.171194) scale(0.1 -0.1)">
       <use xlink:href="#DejaVuSans-30"/>
       <use xlink:href="#DejaVuSans-2e" transform="translate(63.623047 0)"/>
       <use xlink:href="#DejaVuSans-38" transform="translate(95.410156 0)"/>
      </g>
     </g>
    </g>
    <g id="ytick_16">
     <g id="line2d_36">
      <g>
       <use xlink:href="#m2f473bd122" x="468.52" y="44.027273" style="stroke: #000000; stroke-width: 0.8"/>
      </g>
     </g>
     <g id="text_35">
      <!-- 1.0 -->
      <g transform="translate(445.616875 47.826491) scale(0.1 -0.1)">
       <use xlink:href="#DejaVuSans-31"/>
       <use xlink:href="#DejaVuSans-2e" transform="translate(63.623047 0)"/>
       <use xlink:href="#DejaVuSans-30" transform="translate(95.410156 0)"/>
      </g>
     </g>
    </g>
   </g>
   <g id="LineCollection_2">
    <path d="M 486.005455 270.750784 
L 486.005455 44.027273 
" clip-path="url(#p13c37892f1)" style="fill: none; stroke: #1f77b4; stroke-width: 1.5"/>
    <path d="M 503.490909 270.750784 
L 503.490909 214.670037 
" clip-path="url(#p13c37892f1)" style="fill: none; stroke: #1f77b4; stroke-width: 1.5"/>
    <path d="M 520.976364 270.750784 
L 520.976364 294.351758 
" clip-path="url(#p13c37892f1)" style="fill: none; stroke: #1f77b4; stroke-width: 1.5"/>
    <path d="M 538.461818 270.750784 
L 538.461818 249.090331 
" clip-path="url(#p13c37892f1)" style="fill: none; stroke: #1f77b4; stroke-width: 1.5"/>
    <path d="M 555.947273 270.750784 
L 555.947273 303.393276 
" clip-path="url(#p13c37892f1)" style="fill: none; stroke: #1f77b4; stroke-width: 1.5"/>
    <path d="M 573.432727 270.750784 
L 573.432727 322.226895 
" clip-path="url(#p13c37892f1)" style="fill: none; stroke: #1f77b4; stroke-width: 1.5"/>
    <path d="M 590.918182 270.750784 
L 590.918182 311.145003 
" clip-path="url(#p13c37892f1)" style="fill: none; stroke: #1f77b4; stroke-width: 1.5"/>
    <path d="M 608.403636 270.750784 
L 608.403636 386.972727 
" clip-path="url(#p13c37892f1)" style="fill: none; stroke: #1f77b4; stroke-width: 1.5"/>
    <path d="M 625.889091 270.750784 
L 625.889091 242.506769 
" clip-path="url(#p13c37892f1)" style="fill: none; stroke: #1f77b4; stroke-width: 1.5"/>
    <path d="M 643.374545 270.750784 
L 643.374545 294.058204 
" clip-path="url(#p13c37892f1)" style="fill: none; stroke: #1f77b4; stroke-width: 1.5"/>
    <path d="M 660.86 270.750784 
L 660.86 262.295107 
" clip-path="url(#p13c37892f1)" style="fill: none; stroke: #1f77b4; stroke-width: 1.5"/>
    <path d="M 678.345455 270.750784 
L 678.345455 249.270246 
" clip-path="url(#p13c37892f1)" style="fill: none; stroke: #1f77b4; stroke-width: 1.5"/>
    <path d="M 695.830909 270.750784 
L 695.830909 151.552259 
" clip-path="url(#p13c37892f1)" style="fill: none; stroke: #1f77b4; stroke-width: 1.5"/>
    <path d="M 713.316364 270.750784 
L 713.316364 321.946772 
" clip-path="url(#p13c37892f1)" style="fill: none; stroke: #1f77b4; stroke-width: 1.5"/>
    <path d="M 730.801818 270.750784 
L 730.801818 305.992157 
" clip-path="url(#p13c37892f1)" style="fill: none; stroke: #1f77b4; stroke-width: 1.5"/>
    <path d="M 748.287273 270.750784 
L 748.287273 246.205867 
" clip-path="url(#p13c37892f1)" style="fill: none; stroke: #1f77b4; stroke-width: 1.5"/>
    <path d="M 765.772727 270.750784 
L 765.772727 294.822945 
" clip-path="url(#p13c37892f1)" style="fill: none; stroke: #1f77b4; stroke-width: 1.5"/>
    <path d="M 783.258182 270.750784 
L 783.258182 315.828252 
" clip-path="url(#p13c37892f1)" style="fill: none; stroke: #1f77b4; stroke-width: 1.5"/>
    <path d="M 800.743636 270.750784 
L 800.743636 258.126123 
" clip-path="url(#p13c37892f1)" style="fill: none; stroke: #1f77b4; stroke-width: 1.5"/>
    <path d="M 818.229091 270.750784 
L 818.229091 227.160673 
" clip-path="url(#p13c37892f1)" style="fill: none; stroke: #1f77b4; stroke-width: 1.5"/>
    <path d="M 835.714545 270.750784 
L 835.714545 331.941315 
" clip-path="url(#p13c37892f1)" style="fill: none; stroke: #1f77b4; stroke-width: 1.5"/>
   </g>
   <g id="line2d_37">
    <g clip-path="url(#p13c37892f1)">
     <use xlink:href="#m5fb1bbc1f3" x="486.005455" y="44.027273" style="fill: #1f77b4; stroke: #1f77b4"/>
     <use xlink:href="#m5fb1bbc1f3" x="503.490909" y="214.670037" style="fill: #1f77b4; stroke: #1f77b4"/>
     <use xlink:href="#m5fb1bbc1f3" x="520.976364" y="294.351758" style="fill: #1f77b4; stroke: #1f77b4"/>
     <use xlink:href="#m5fb1bbc1f3" x="538.461818" y="249.090331" style="fill: #1f77b4; stroke: #1f77b4"/>
     <use xlink:href="#m5fb1bbc1f3" x="555.947273" y="303.393276" style="fill: #1f77b4; stroke: #1f77b4"/>
     <use xlink:href="#m5fb1bbc1f3" x="573.432727" y="322.226895" style="fill: #1f77b4; stroke: #1f77b4"/>
     <use xlink:href="#m5fb1bbc1f3" x="590.918182" y="311.145003" style="fill: #1f77b4; stroke: #1f77b4"/>
     <use xlink:href="#m5fb1bbc1f3" x="608.403636" y="386.972727" style="fill: #1f77b4; stroke: #1f77b4"/>
     <use xlink:href="#m5fb1bbc1f3" x="625.889091" y="242.506769" style="fill: #1f77b4; stroke: #1f77b4"/>
     <use xlink:href="#m5fb1bbc1f3" x="643.374545" y="294.058204" style="fill: #1f77b4; stroke: #1f77b4"/>
     <use xlink:href="#m5fb1bbc1f3" x="660.86" y="262.295107" style="fill: #1f77b4; stroke: #1f77b4"/>
     <use xlink:href="#m5fb1bbc1f3" x="678.345455" y="249.270246" style="fill: #1f77b4; stroke: #1f77b4"/>
     <use xlink:href="#m5fb1bbc1f3" x="695.830909" y="151.552259" style="fill: #1f77b4; stroke: #1f77b4"/>
     <use xlink:href="#m5fb1bbc1f3" x="713.316364" y="321.946772" style="fill: #1f77b4; stroke: #1f77b4"/>
     <use xlink:href="#m5fb1bbc1f3" x="730.801818" y="305.992157" style="fill: #1f77b4; stroke: #1f77b4"/>
     <use xlink:href="#m5fb1bbc1f3" x="748.287273" y="246.205867" style="fill: #1f77b4; stroke: #1f77b4"/>
     <use xlink:href="#m5fb1bbc1f3" x="765.772727" y="294.822945" style="fill: #1f77b4; stroke: #1f77b4"/>
     <use xlink:href="#m5fb1bbc1f3" x="783.258182" y="315.828252" style="fill: #1f77b4; stroke: #1f77b4"/>
     <use xlink:href="#m5fb1bbc1f3" x="800.743636" y="258.126123" style="fill: #1f77b4; stroke: #1f77b4"/>
     <use xlink:href="#m5fb1bbc1f3" x="818.229091" y="227.160673" style="fill: #1f77b4; stroke: #1f77b4"/>
     <use xlink:href="#m5fb1bbc1f3" x="835.714545" y="331.941315" style="fill: #1f77b4; stroke: #1f77b4"/>
    </g>
   </g>
   <g id="line2d_38">
    <path d="M 486.005455 270.750784 
L 835.714545 270.750784 
" clip-path="url(#p13c37892f1)" style="fill: none; stroke: #d62728; stroke-width: 1.5; stroke-linecap: square"/>
   </g>
   <g id="patch_8">
    <path d="M 468.52 404.12 
L 468.52 26.88 
" style="fill: none; stroke: #000000; stroke-width: 0.8; stroke-linejoin: miter; stroke-linecap: square"/>
   </g>
   <g id="patch_9">
    <path d="M 853.2 404.12 
L 853.2 26.88 
" style="fill: none; stroke: #000000; stroke-width: 0.8; stroke-linejoin: miter; stroke-linecap: square"/>
   </g>
   <g id="patch_10">
    <path d="M 468.52 404.12 
L 853.2 404.12 
" style="fill: none; stroke: #000000; stroke-width: 0.8; stroke-linejoin: miter; stroke-linecap: square"/>
   </g>
   <g id="patch_11">
    <path d="M 468.52 26.88 
L 853.2 26.88 
" style="fill: none; stroke: #000000; stroke-width: 0.8; stroke-linejoin: miter; stroke-linecap: square"/>
   </g>
   <g id="text_36">
    <!-- PACF Plot Rose -->
    <g transform="translate(616.475 20.88) scale(0.12 -0.12)">
     <use xlink:href="#DejaVuSans-50"/>
     <use xlink:href="#DejaVuSans-41" transform="translate(53.927734 0)"/>
     <use xlink:href="#DejaVuSans-43" transform="translate(120.585938 0)"/>
     <use xlink:href="#DejaVuSans-46" transform="translate(190.410156 0)"/>
     <use xlink:href="#DejaVuSans-20" transform="translate(247.929688 0)"/>
     <use xlink:href="#DejaVuSans-50" transform="translate(279.716797 0)"/>
     <use xlink:href="#DejaVuSans-6c" transform="translate(340.019531 0)"/>
     <use xlink:href="#DejaVuSans-6f" transform="translate(367.802734 0)"/>
     <use xlink:href="#DejaVuSans-74" transform="translate(428.984375 0)"/>
     <use xlink:href="#DejaVuSans-20" transform="translate(468.193359 0)"/>
     <use xlink:href="#DejaVuSans-52" transform="translate(499.980469 0)"/>
     <use xlink:href="#DejaVuSans-6f" transform="translate(564.962891 0)"/>
     <use xlink:href="#DejaVuSans-73" transform="translate(626.144531 0)"/>
     <use xlink:href="#DejaVuSans-65" transform="translate(678.244141 0)"/>
    </g>
   </g>
  </g>
 </g>
 <defs>
  <clipPath id="p615564411c">
   <rect x="41.92" y="26.88" width="384.68" height="377.24"/>
  </clipPath>
  <clipPath id="p13c37892f1">
   <rect x="468.52" y="26.88" width="384.68" height="377.24"/>
  </clipPath>
 </defs>
</svg>
