<?xml version="1.0" encoding="utf-8" standalone="no"?>
<!DOCTYPE svg PUBLIC "-//W3C//DTD SVG 1.1//EN"
  "http://www.w3.org/Graphics/SVG/1.1/DTD/svg11.dtd">
<svg xmlns:xlink="http://www.w3.org/1999/xlink" width="460.8pt" height="345.6pt" viewBox="0 0 460.8 345.6" xmlns="http://www.w3.org/2000/svg" version="1.1">
 <metadata>
  <rdf:RDF xmlns:dc="http://purl.org/dc/elements/1.1/" xmlns:cc="http://creativecommons.org/ns#" xmlns:rdf="http://www.w3.org/1999/02/22-rdf-syntax-ns#">
   <cc:Work>
    <dc:type rdf:resource="http://purl.org/dc/dcmitype/StillImage"/>
    <dc:date>2025-01-01T17:01:13.306918</dc:date>
    <dc:format>image/svg+xml</dc:format>
    <dc:creator>
     <cc:Agent>
      <dc:title>Matplotlib v3.10.0, https://matplotlib.org/</dc:title>
     </cc:Agent>
    </dc:creator>
   </cc:Work>
  </rdf:RDF>
 </metadata>
 <defs>
  <style type="text/css">*{stroke-linejoin: round; stroke-linecap: butt}</style>
 </defs>
 <g id="figure_1">
  <g id="patch_1">
   <path d="M 0 345.6 
L 460.8 345.6 
L 460.8 0 
L 0 0 
z
" style="fill: #ffffff"/>
  </g>
  <g id="axes_1">
   <g id="patch_2">
    <path d="M 57.08 107.765 
L 450 107.765 
L 450 52.08 
L 57.08 52.08 
z
" style="fill: #ffffff"/>
   </g>
   <g id="matplotlib.axis_1">
    <g id="xtick_1">
     <g id="line2d_1">
      <defs>
       <path id="m5173884b00" d="M 0 0 
L 0 3.5 
" style="stroke: #000000; stroke-width: 0.8"/>
      </defs>
      <g>
       <use xlink:href="#m5173884b00" x="57.08" y="107.765" style="stroke: #000000; stroke-width: 0.8"/>
      </g>
     </g>
    </g>
    <g id="xtick_2">
     <g id="line2d_2">
      <g>
       <use xlink:href="#m5173884b00" x="109.891828" y="107.765" style="stroke: #000000; stroke-width: 0.8"/>
      </g>
     </g>
    </g>
    <g id="xtick_3">
     <g id="line2d_3">
      <g>
       <use xlink:href="#m5173884b00" x="162.703656" y="107.765" style="stroke: #000000; stroke-width: 0.8"/>
      </g>
     </g>
    </g>
    <g id="xtick_4">
     <g id="line2d_4">
      <g>
       <use xlink:href="#m5173884b00" x="215.515484" y="107.765" style="stroke: #000000; stroke-width: 0.8"/>
      </g>
     </g>
    </g>
    <g id="xtick_5">
     <g id="line2d_5">
      <g>
       <use xlink:href="#m5173884b00" x="268.327312" y="107.765" style="stroke: #000000; stroke-width: 0.8"/>
      </g>
     </g>
    </g>
    <g id="xtick_6">
     <g id="line2d_6">
      <g>
       <use xlink:href="#m5173884b00" x="321.13914" y="107.765" style="stroke: #000000; stroke-width: 0.8"/>
      </g>
     </g>
    </g>
    <g id="xtick_7">
     <g id="line2d_7">
      <g>
       <use xlink:href="#m5173884b00" x="373.950968" y="107.765" style="stroke: #000000; stroke-width: 0.8"/>
      </g>
     </g>
    </g>
    <g id="xtick_8">
     <g id="line2d_8">
      <g>
       <use xlink:href="#m5173884b00" x="426.762796" y="107.765" style="stroke: #000000; stroke-width: 0.8"/>
      </g>
     </g>
    </g>
   </g>
   <g id="matplotlib.axis_2">
    <g id="ytick_1">
     <g id="line2d_9">
      <defs>
       <path id="m003170324e" d="M 0 0 
L -3.5 0 
" style="stroke: #000000; stroke-width: 0.8"/>
      </defs>
      <g>
       <use xlink:href="#m003170324e" x="57.08" y="93.505008" style="stroke: #000000; stroke-width: 0.8"/>
      </g>
     </g>
     <g id="text_1">
      <!-- 2500 -->
      <g transform="translate(24.63 97.304226) scale(0.1 -0.1)">
       <defs>
        <path id="DejaVuSans-32" d="M 1228 531 
L 3431 531 
L 3431 0 
L 469 0 
L 469 531 
Q 828 903 1448 1529 
Q 2069 2156 2228 2338 
Q 2531 2678 2651 2914 
Q 2772 3150 2772 3378 
Q 2772 3750 2511 3984 
Q 2250 4219 1831 4219 
Q 1534 4219 1204 4116 
Q 875 4013 500 3803 
L 500 4441 
Q 881 4594 1212 4672 
Q 1544 4750 1819 4750 
Q 2544 4750 2975 4387 
Q 3406 4025 3406 3419 
Q 3406 3131 3298 2873 
Q 3191 2616 2906 2266 
Q 2828 2175 2409 1742 
Q 1991 1309 1228 531 
z
" transform="scale(0.015625)"/>
        <path id="DejaVuSans-35" d="M 691 4666 
L 3169 4666 
L 3169 4134 
L 1269 4134 
L 1269 2991 
Q 1406 3038 1543 3061 
Q 1681 3084 1819 3084 
Q 2600 3084 3056 2656 
Q 3513 2228 3513 1497 
Q 3513 744 3044 326 
Q 2575 -91 1722 -91 
Q 1428 -91 1123 -41 
Q 819 9 494 109 
L 494 744 
Q 775 591 1075 516 
Q 1375 441 1709 441 
Q 2250 441 2565 725 
Q 2881 1009 2881 1497 
Q 2881 1984 2565 2268 
Q 2250 2553 1709 2553 
Q 1456 2553 1204 2497 
Q 953 2441 691 2322 
L 691 4666 
z
" transform="scale(0.015625)"/>
        <path id="DejaVuSans-30" d="M 2034 4250 
Q 1547 4250 1301 3770 
Q 1056 3291 1056 2328 
Q 1056 1369 1301 889 
Q 1547 409 2034 409 
Q 2525 409 2770 889 
Q 3016 1369 3016 2328 
Q 3016 3291 2770 3770 
Q 2525 4250 2034 4250 
z
M 2034 4750 
Q 2819 4750 3233 4129 
Q 3647 3509 3647 2328 
Q 3647 1150 3233 529 
Q 2819 -91 2034 -91 
Q 1250 -91 836 529 
Q 422 1150 422 2328 
Q 422 3509 836 4129 
Q 1250 4750 2034 4750 
z
" transform="scale(0.015625)"/>
       </defs>
       <use xlink:href="#DejaVuSans-32"/>
       <use xlink:href="#DejaVuSans-35" transform="translate(63.623047 0)"/>
       <use xlink:href="#DejaVuSans-30" transform="translate(127.246094 0)"/>
       <use xlink:href="#DejaVuSans-30" transform="translate(190.869141 0)"/>
      </g>
     </g>
    </g>
    <g id="ytick_2">
     <g id="line2d_10">
      <g>
       <use xlink:href="#m003170324e" x="57.08" y="73.000014" style="stroke: #000000; stroke-width: 0.8"/>
      </g>
     </g>
     <g id="text_2">
      <!-- 5000 -->
      <g transform="translate(24.63 76.799233) scale(0.1 -0.1)">
       <use xlink:href="#DejaVuSans-35"/>
       <use xlink:href="#DejaVuSans-30" transform="translate(63.623047 0)"/>
       <use xlink:href="#DejaVuSans-30" transform="translate(127.246094 0)"/>
       <use xlink:href="#DejaVuSans-30" transform="translate(190.869141 0)"/>
      </g>
     </g>
    </g>
    <g id="ytick_3">
     <g id="line2d_11">
      <g>
       <use xlink:href="#m003170324e" x="57.08" y="52.495021" style="stroke: #000000; stroke-width: 0.8"/>
      </g>
     </g>
     <g id="text_3">
      <!-- 7500 -->
      <g transform="translate(24.63 56.29424) scale(0.1 -0.1)">
       <defs>
        <path id="DejaVuSans-37" d="M 525 4666 
L 3525 4666 
L 3525 4397 
L 1831 0 
L 1172 0 
L 2766 4134 
L 525 4134 
L 525 4666 
z
" transform="scale(0.015625)"/>
       </defs>
       <use xlink:href="#DejaVuSans-37"/>
       <use xlink:href="#DejaVuSans-35" transform="translate(63.623047 0)"/>
       <use xlink:href="#DejaVuSans-30" transform="translate(127.246094 0)"/>
       <use xlink:href="#DejaVuSans-30" transform="translate(190.869141 0)"/>
      </g>
     </g>
    </g>
   </g>
   <g id="line2d_12">
    <path d="M 57.08 100.181433 
L 59.192473 100.960623 
L 61.304946 95.112599 
L 63.417419 99.968181 
L 65.529892 101.944863 
L 67.642366 102.71585 
L 69.754839 97.884874 
L 71.867312 93.890501 
L 73.979785 97.737238 
L 76.092258 92.717616 
L 78.204731 80.488438 
L 80.317204 71.531857 
L 82.429677 101.460945 
L 84.542151 101.518359 
L 86.654624 100.616139 
L 88.767097 97.802854 
L 90.87957 104.413664 
L 95.104516 99.402244 
L 97.216989 93.734663 
L 99.329462 97.761844 
L 101.441935 95.366861 
L 103.554409 82.374897 
L 105.666882 76.682711 
L 107.779355 101.624985 
L 109.891828 103.109546 
L 112.004301 101.559369 
L 114.116774 99.328426 
L 116.229247 101.403531 
L 118.34172 102.125307 
L 120.454194 97.983298 
L 122.566667 98.450812 
L 124.67914 100.017393 
L 126.791613 93.39018 
L 128.904086 84.540224 
L 131.016559 76.904165 
L 133.129032 100.812987 
L 135.241505 100.575129 
L 137.353978 97.359946 
L 139.466452 102.732254 
L 141.578925 103.183364 
L 143.691398 103.798514 
L 145.803871 100.886805 
L 147.916344 95.161811 
L 150.028817 96.039425 
L 152.14129 93.414786 
L 154.253763 85.79513 
L 156.366237 73.631568 
L 158.47871 100.812987 
L 160.591183 102.240135 
L 162.703656 97.105684 
L 164.816129 99.336628 
L 166.928602 101.157471 
L 169.041075 102.494397 
L 171.153548 100.911411 
L 173.266022 88.099891 
L 175.378495 99.582688 
L 177.490968 93.4722 
L 179.603441 78.962866 
L 181.715914 70.752667 
L 183.828387 99.484264 
L 185.94086 100.214241 
L 188.053333 98.869114 
L 190.165806 100.977027 
L 192.27828 98.459014 
L 194.390753 102.699446 
L 196.503226 100.517715 
L 198.615699 93.406584 
L 200.728172 99.484264 
L 202.840645 83.441157 
L 204.953118 78.019637 
L 207.065591 69.440347 
L 209.178065 100.837593 
L 211.290538 101.518359 
L 213.403011 101.075451 
L 215.515484 100.845795 
L 217.627957 99.533476 
L 219.74043 102.502599 
L 221.852903 92.81604 
L 223.965376 86.795774 
L 226.077849 101.198481 
L 228.190323 94.743509 
L 230.302796 81.308638 
L 232.415269 65.692035 
L 234.527742 102.617427 
L 236.640215 102.182721 
L 238.752688 101.313309 
L 240.865161 98.139136 
L 242.977634 101.559369 
L 245.090108 103.757504 
L 247.202581 98.860912 
L 249.315054 98.180146 
L 251.427527 92.373132 
L 253.54 88.468981 
L 255.652473 77.880203 
L 257.764946 54.611136 
L 259.877419 98.8117 
L 261.989892 99.418648 
L 264.102366 96.72019 
L 266.214839 94.850135 
L 268.327312 99.836949 
L 270.439785 100.386483 
L 272.552258 95.719547 
L 274.664731 100.517715 
L 276.777204 94.152965 
L 278.889677 83.334531 
L 281.002151 73.098438 
L 283.114624 58.589105 
L 285.227097 99.599091 
L 287.33957 102.576417 
L 289.452043 97.753642 
L 291.564516 100.476705 
L 293.676989 100.443897 
L 295.789462 102.477993 
L 297.901935 97.843864 
L 300.014409 97.86847 
L 302.126882 92.619192 
L 304.239355 82.473321 
L 306.351828 76.986185 
L 308.464301 59.105831 
L 310.576774 99.902565 
L 312.689247 103.175162 
L 314.80172 98.762488 
L 316.914194 100.657149 
L 319.026667 100.763775 
L 321.13914 102.059691 
L 323.251613 98.434408 
L 325.364086 100.845795 
L 327.476559 94.128359 
L 329.589032 88.452577 
L 331.701505 78.85624 
L 333.813978 64.412523 
L 335.926452 98.409802 
L 338.038925 97.204108 
L 340.151398 98.639458 
L 342.263871 103.519646 
L 344.376344 102.264741 
L 346.488817 101.378925 
L 348.60129 95.850779 
L 350.713763 98.778892 
L 352.826237 94.259591 
L 354.93871 87.337106 
L 357.051183 84.261357 
L 359.163656 63.543111 
L 361.276129 101.075451 
L 363.388602 100.337271 
L 365.501075 97.66342 
L 367.613548 97.630612 
L 369.726022 99.38584 
L 371.838495 100.681755 
L 373.950968 96.982654 
L 376.063441 99.46786 
L 378.175914 94.513853 
L 380.288387 88.682233 
L 382.40086 80.41462 
L 384.513333 63.821979 
L 386.625806 101.756217 
L 388.73828 101.182077 
L 390.850753 98.44261 
L 392.963226 96.613564 
L 395.075699 98.992144 
L 397.188172 101.583975 
L 399.300645 97.21231 
L 401.413118 91.085418 
L 403.525591 99.664707 
L 405.638065 86.623532 
L 407.750538 79.340158 
L 409.863011 61.435198 
L 411.975484 104.19221 
L 414.087957 97.86847 
L 416.20043 99.902565 
L 418.312903 99.861555 
L 420.425376 100.279857 
L 422.537849 100.124019 
L 424.650323 97.351744 
L 426.762796 101.748015 
L 428.875269 89.666473 
L 430.987742 86.24624 
L 433.100215 83.424753 
L 435.212688 64.806219 
L 437.325161 105.233864 
L 439.437634 102.510801 
L 441.550108 98.450812 
L 443.662581 98.737882 
L 445.775054 100.312665 
L 447.887527 100.165029 
L 450 97.351744 
L 450 97.351744 
" clip-path="url(#p41dba789b4)" style="fill: none; stroke: #1f77b4; stroke-width: 1.5; stroke-linecap: square"/>
   </g>
   <g id="patch_3">
    <path d="M 57.08 107.765 
L 57.08 52.08 
" style="fill: none; stroke: #000000; stroke-width: 0.8; stroke-linejoin: miter; stroke-linecap: square"/>
   </g>
   <g id="patch_4">
    <path d="M 450 107.765 
L 450 52.08 
" style="fill: none; stroke: #000000; stroke-width: 0.8; stroke-linejoin: miter; stroke-linecap: square"/>
   </g>
   <g id="patch_5">
    <path d="M 57.08 107.765 
L 450 107.765 
" style="fill: none; stroke: #000000; stroke-width: 0.8; stroke-linejoin: miter; stroke-linecap: square"/>
   </g>
   <g id="patch_6">
    <path d="M 57.08 52.08 
L 450 52.08 
" style="fill: none; stroke: #000000; stroke-width: 0.8; stroke-linejoin: miter; stroke-linecap: square"/>
   </g>
   <g id="text_4">
    <!-- Sparkling -->
    <g transform="translate(225.35875 46.08) scale(0.12 -0.12)">
     <defs>
      <path id="DejaVuSans-53" d="M 3425 4513 
L 3425 3897 
Q 3066 4069 2747 4153 
Q 2428 4238 2131 4238 
Q 1616 4238 1336 4038 
Q 1056 3838 1056 3469 
Q 1056 3159 1242 3001 
Q 1428 2844 1947 2747 
L 2328 2669 
Q 3034 2534 3370 2195 
Q 3706 1856 3706 1288 
Q 3706 609 3251 259 
Q 2797 -91 1919 -91 
Q 1588 -91 1214 -16 
Q 841 59 441 206 
L 441 856 
Q 825 641 1194 531 
Q 1563 422 1919 422 
Q 2459 422 2753 634 
Q 3047 847 3047 1241 
Q 3047 1584 2836 1778 
Q 2625 1972 2144 2069 
L 1759 2144 
Q 1053 2284 737 2584 
Q 422 2884 422 3419 
Q 422 4038 858 4394 
Q 1294 4750 2059 4750 
Q 2388 4750 2728 4690 
Q 3069 4631 3425 4513 
z
" transform="scale(0.015625)"/>
      <path id="DejaVuSans-70" d="M 1159 525 
L 1159 -1331 
L 581 -1331 
L 581 3500 
L 1159 3500 
L 1159 2969 
Q 1341 3281 1617 3432 
Q 1894 3584 2278 3584 
Q 2916 3584 3314 3078 
Q 3713 2572 3713 1747 
Q 3713 922 3314 415 
Q 2916 -91 2278 -91 
Q 1894 -91 1617 61 
Q 1341 213 1159 525 
z
M 3116 1747 
Q 3116 2381 2855 2742 
Q 2594 3103 2138 3103 
Q 1681 3103 1420 2742 
Q 1159 2381 1159 1747 
Q 1159 1113 1420 752 
Q 1681 391 2138 391 
Q 2594 391 2855 752 
Q 3116 1113 3116 1747 
z
" transform="scale(0.015625)"/>
      <path id="DejaVuSans-61" d="M 2194 1759 
Q 1497 1759 1228 1600 
Q 959 1441 959 1056 
Q 959 750 1161 570 
Q 1363 391 1709 391 
Q 2188 391 2477 730 
Q 2766 1069 2766 1631 
L 2766 1759 
L 2194 1759 
z
M 3341 1997 
L 3341 0 
L 2766 0 
L 2766 531 
Q 2569 213 2275 61 
Q 1981 -91 1556 -91 
Q 1019 -91 701 211 
Q 384 513 384 1019 
Q 384 1609 779 1909 
Q 1175 2209 1959 2209 
L 2766 2209 
L 2766 2266 
Q 2766 2663 2505 2880 
Q 2244 3097 1772 3097 
Q 1472 3097 1187 3025 
Q 903 2953 641 2809 
L 641 3341 
Q 956 3463 1253 3523 
Q 1550 3584 1831 3584 
Q 2591 3584 2966 3190 
Q 3341 2797 3341 1997 
z
" transform="scale(0.015625)"/>
      <path id="DejaVuSans-72" d="M 2631 2963 
Q 2534 3019 2420 3045 
Q 2306 3072 2169 3072 
Q 1681 3072 1420 2755 
Q 1159 2438 1159 1844 
L 1159 0 
L 581 0 
L 581 3500 
L 1159 3500 
L 1159 2956 
Q 1341 3275 1631 3429 
Q 1922 3584 2338 3584 
Q 2397 3584 2469 3576 
Q 2541 3569 2628 3553 
L 2631 2963 
z
" transform="scale(0.015625)"/>
      <path id="DejaVuSans-6b" d="M 581 4863 
L 1159 4863 
L 1159 1991 
L 2875 3500 
L 3609 3500 
L 1753 1863 
L 3688 0 
L 2938 0 
L 1159 1709 
L 1159 0 
L 581 0 
L 581 4863 
z
" transform="scale(0.015625)"/>
      <path id="DejaVuSans-6c" d="M 603 4863 
L 1178 4863 
L 1178 0 
L 603 0 
L 603 4863 
z
" transform="scale(0.015625)"/>
      <path id="DejaVuSans-69" d="M 603 3500 
L 1178 3500 
L 1178 0 
L 603 0 
L 603 3500 
z
M 603 4863 
L 1178 4863 
L 1178 4134 
L 603 4134 
L 603 4863 
z
" transform="scale(0.015625)"/>
      <path id="DejaVuSans-6e" d="M 3513 2113 
L 3513 0 
L 2938 0 
L 2938 2094 
Q 2938 2591 2744 2837 
Q 2550 3084 2163 3084 
Q 1697 3084 1428 2787 
Q 1159 2491 1159 1978 
L 1159 0 
L 581 0 
L 581 3500 
L 1159 3500 
L 1159 2956 
Q 1366 3272 1645 3428 
Q 1925 3584 2291 3584 
Q 2894 3584 3203 3211 
Q 3513 2838 3513 2113 
z
" transform="scale(0.015625)"/>
      <path id="DejaVuSans-67" d="M 2906 1791 
Q 2906 2416 2648 2759 
Q 2391 3103 1925 3103 
Q 1463 3103 1205 2759 
Q 947 2416 947 1791 
Q 947 1169 1205 825 
Q 1463 481 1925 481 
Q 2391 481 2648 825 
Q 2906 1169 2906 1791 
z
M 3481 434 
Q 3481 -459 3084 -895 
Q 2688 -1331 1869 -1331 
Q 1566 -1331 1297 -1286 
Q 1028 -1241 775 -1147 
L 775 -588 
Q 1028 -725 1275 -790 
Q 1522 -856 1778 -856 
Q 2344 -856 2625 -561 
Q 2906 -266 2906 331 
L 2906 616 
Q 2728 306 2450 153 
Q 2172 0 1784 0 
Q 1141 0 747 490 
Q 353 981 353 1791 
Q 353 2603 747 3093 
Q 1141 3584 1784 3584 
Q 2172 3584 2450 3431 
Q 2728 3278 2906 2969 
L 2906 3500 
L 3481 3500 
L 3481 434 
z
" transform="scale(0.015625)"/>
     </defs>
     <use xlink:href="#DejaVuSans-53"/>
     <use xlink:href="#DejaVuSans-70" transform="translate(63.476562 0)"/>
     <use xlink:href="#DejaVuSans-61" transform="translate(126.953125 0)"/>
     <use xlink:href="#DejaVuSans-72" transform="translate(188.232422 0)"/>
     <use xlink:href="#DejaVuSans-6b" transform="translate(229.345703 0)"/>
     <use xlink:href="#DejaVuSans-6c" transform="translate(287.255859 0)"/>
     <use xlink:href="#DejaVuSans-69" transform="translate(315.039062 0)"/>
     <use xlink:href="#DejaVuSans-6e" transform="translate(342.822266 0)"/>
     <use xlink:href="#DejaVuSans-67" transform="translate(406.201172 0)"/>
    </g>
   </g>
  </g>
  <g id="axes_2">
   <g id="patch_7">
    <path d="M 57.08 177.75 
L 450 177.75 
L 450 122.065 
L 57.08 122.065 
z
" style="fill: #ffffff"/>
   </g>
   <g id="matplotlib.axis_3">
    <g id="xtick_9">
     <g id="line2d_13">
      <g>
       <use xlink:href="#m5173884b00" x="57.08" y="177.75" style="stroke: #000000; stroke-width: 0.8"/>
      </g>
     </g>
    </g>
    <g id="xtick_10">
     <g id="line2d_14">
      <g>
       <use xlink:href="#m5173884b00" x="109.891828" y="177.75" style="stroke: #000000; stroke-width: 0.8"/>
      </g>
     </g>
    </g>
    <g id="xtick_11">
     <g id="line2d_15">
      <g>
       <use xlink:href="#m5173884b00" x="162.703656" y="177.75" style="stroke: #000000; stroke-width: 0.8"/>
      </g>
     </g>
    </g>
    <g id="xtick_12">
     <g id="line2d_16">
      <g>
       <use xlink:href="#m5173884b00" x="215.515484" y="177.75" style="stroke: #000000; stroke-width: 0.8"/>
      </g>
     </g>
    </g>
    <g id="xtick_13">
     <g id="line2d_17">
      <g>
       <use xlink:href="#m5173884b00" x="268.327312" y="177.75" style="stroke: #000000; stroke-width: 0.8"/>
      </g>
     </g>
    </g>
    <g id="xtick_14">
     <g id="line2d_18">
      <g>
       <use xlink:href="#m5173884b00" x="321.13914" y="177.75" style="stroke: #000000; stroke-width: 0.8"/>
      </g>
     </g>
    </g>
    <g id="xtick_15">
     <g id="line2d_19">
      <g>
       <use xlink:href="#m5173884b00" x="373.950968" y="177.75" style="stroke: #000000; stroke-width: 0.8"/>
      </g>
     </g>
    </g>
    <g id="xtick_16">
     <g id="line2d_20">
      <g>
       <use xlink:href="#m5173884b00" x="426.762796" y="177.75" style="stroke: #000000; stroke-width: 0.8"/>
      </g>
     </g>
    </g>
   </g>
   <g id="matplotlib.axis_4">
    <g id="ytick_4">
     <g id="line2d_21">
      <g>
       <use xlink:href="#m003170324e" x="57.08" y="164.359536" style="stroke: #000000; stroke-width: 0.8"/>
      </g>
     </g>
     <g id="text_5">
      <!-- 2250 -->
      <g transform="translate(24.63 168.158755) scale(0.1 -0.1)">
       <use xlink:href="#DejaVuSans-32"/>
       <use xlink:href="#DejaVuSans-32" transform="translate(63.623047 0)"/>
       <use xlink:href="#DejaVuSans-35" transform="translate(127.246094 0)"/>
       <use xlink:href="#DejaVuSans-30" transform="translate(190.869141 0)"/>
      </g>
     </g>
    </g>
    <g id="ytick_5">
     <g id="line2d_22">
      <g>
       <use xlink:href="#m003170324e" x="57.08" y="145.974671" style="stroke: #000000; stroke-width: 0.8"/>
      </g>
     </g>
     <g id="text_6">
      <!-- 2500 -->
      <g transform="translate(24.63 149.77389) scale(0.1 -0.1)">
       <use xlink:href="#DejaVuSans-32"/>
       <use xlink:href="#DejaVuSans-35" transform="translate(63.623047 0)"/>
       <use xlink:href="#DejaVuSans-30" transform="translate(127.246094 0)"/>
       <use xlink:href="#DejaVuSans-30" transform="translate(190.869141 0)"/>
      </g>
     </g>
    </g>
    <g id="ytick_6">
     <g id="line2d_23">
      <g>
       <use xlink:href="#m003170324e" x="57.08" y="127.589805" style="stroke: #000000; stroke-width: 0.8"/>
      </g>
     </g>
     <g id="text_7">
      <!-- 2750 -->
      <g transform="translate(24.63 131.389024) scale(0.1 -0.1)">
       <use xlink:href="#DejaVuSans-32"/>
       <use xlink:href="#DejaVuSans-37" transform="translate(63.623047 0)"/>
       <use xlink:href="#DejaVuSans-35" transform="translate(127.246094 0)"/>
       <use xlink:href="#DejaVuSans-30" transform="translate(190.869141 0)"/>
      </g>
     </g>
    </g>
    <g id="text_8">
     <!-- Trend -->
     <g transform="translate(18.550313 163.586406) rotate(-90) scale(0.1 -0.1)">
      <defs>
       <path id="DejaVuSans-54" d="M -19 4666 
L 3928 4666 
L 3928 4134 
L 2272 4134 
L 2272 0 
L 1638 0 
L 1638 4134 
L -19 4134 
L -19 4666 
z
" transform="scale(0.015625)"/>
       <path id="DejaVuSans-65" d="M 3597 1894 
L 3597 1613 
L 953 1613 
Q 991 1019 1311 708 
Q 1631 397 2203 397 
Q 2534 397 2845 478 
Q 3156 559 3463 722 
L 3463 178 
Q 3153 47 2828 -22 
Q 2503 -91 2169 -91 
Q 1331 -91 842 396 
Q 353 884 353 1716 
Q 353 2575 817 3079 
Q 1281 3584 2069 3584 
Q 2775 3584 3186 3129 
Q 3597 2675 3597 1894 
z
M 3022 2063 
Q 3016 2534 2758 2815 
Q 2500 3097 2075 3097 
Q 1594 3097 1305 2825 
Q 1016 2553 972 2059 
L 3022 2063 
z
" transform="scale(0.015625)"/>
       <path id="DejaVuSans-64" d="M 2906 2969 
L 2906 4863 
L 3481 4863 
L 3481 0 
L 2906 0 
L 2906 525 
Q 2725 213 2448 61 
Q 2172 -91 1784 -91 
Q 1150 -91 751 415 
Q 353 922 353 1747 
Q 353 2572 751 3078 
Q 1150 3584 1784 3584 
Q 2172 3584 2448 3432 
Q 2725 3281 2906 2969 
z
M 947 1747 
Q 947 1113 1208 752 
Q 1469 391 1925 391 
Q 2381 391 2643 752 
Q 2906 1113 2906 1747 
Q 2906 2381 2643 2742 
Q 2381 3103 1925 3103 
Q 1469 3103 1208 2742 
Q 947 2381 947 1747 
z
" transform="scale(0.015625)"/>
      </defs>
      <use xlink:href="#DejaVuSans-54"/>
      <use xlink:href="#DejaVuSans-72" transform="translate(46.333984 0)"/>
      <use xlink:href="#DejaVuSans-65" transform="translate(85.197266 0)"/>
      <use xlink:href="#DejaVuSans-6e" transform="translate(146.720703 0)"/>
      <use xlink:href="#DejaVuSans-64" transform="translate(210.099609 0)"/>
     </g>
    </g>
   </g>
   <g id="line2d_24">
    <path d="M 69.754839 156.221169 
L 71.867312 156.907538 
L 73.979785 159.17194 
L 76.092258 160.419047 
L 78.204731 160.53242 
L 80.317204 161.139121 
L 82.429677 161.390381 
L 84.542151 161.899029 
L 86.654624 161.850002 
L 88.767097 162.848913 
L 90.87957 164.543385 
L 92.992043 167.172421 
L 95.104516 169.157986 
L 97.216989 169.813713 
L 101.441935 171.682841 
L 103.554409 171.128231 
L 105.666882 170.098679 
L 107.779355 169.66357 
L 109.891828 170.895356 
L 112.004301 173.499879 
L 116.229247 173.674535 
L 118.34172 174.566201 
L 120.454194 174.345583 
L 122.566667 173.095412 
L 124.67914 170.579749 
L 126.791613 170.282527 
L 128.904086 172.219066 
L 131.016559 173.509071 
L 133.129032 175.218864 
L 135.241505 175.074849 
L 137.353978 172.360017 
L 139.466452 170.8831 
L 141.578925 171.361106 
L 143.691398 170.607327 
L 145.803871 169.384733 
L 150.028817 170.533787 
L 152.14129 169.170243 
L 154.253763 167.144844 
L 156.366237 165.900801 
L 158.47871 165.422794 
L 160.591183 162.793759 
L 162.703656 161.479241 
L 164.816129 162.8244 
L 166.928602 160.293417 
L 169.041075 156.66547 
L 171.153548 155.093564 
L 173.266022 153.840329 
L 175.378495 153.742277 
L 177.490968 155.013896 
L 179.603441 154.618622 
L 181.715914 153.687122 
L 183.828387 153.616647 
L 188.053333 157.397801 
L 190.165806 153.613582 
L 192.27828 149.513757 
L 194.390753 148.671118 
L 196.503226 148.686439 
L 198.615699 149.679221 
L 200.728172 150.990675 
L 202.840645 151.765903 
L 207.065591 152.446144 
L 209.178065 149.495373 
L 211.290538 144.148441 
L 213.403011 142.319147 
L 215.515484 147.181944 
L 217.627957 152.633056 
L 219.74043 152.461464 
L 221.852903 151.72607 
L 223.965376 152.639185 
L 226.077849 152.97624 
L 228.190323 152.053933 
L 230.302796 151.799609 
L 232.415269 153.025267 
L 234.527742 155.752355 
L 236.640215 162.263662 
L 238.752688 163.219675 
L 240.865161 157.578585 
L 242.977634 153.953702 
L 247.202581 142.971809 
L 249.315054 140.51743 
L 251.427527 137.768893 
L 253.54 134.82425 
L 257.764946 131.049224 
L 259.877419 128.616294 
L 261.989892 128.316007 
L 264.102366 129.854208 
L 266.214839 128.600973 
L 268.327312 124.896423 
L 270.439785 124.596136 
L 272.552258 126.376404 
L 276.777204 129.416035 
L 281.002151 134.23287 
L 283.114624 135.240974 
L 285.227097 136.815944 
L 287.33957 136.619838 
L 289.452043 135.057125 
L 291.564516 134.162395 
L 293.676989 135.293064 
L 295.789462 136.938509 
L 300.014409 137.58198 
L 302.126882 138.182552 
L 304.239355 138.626853 
L 306.351828 138.813766 
L 310.576774 138.841343 
L 312.689247 140.174246 
L 314.80172 141.850333 
L 321.13914 150.261409 
L 323.251613 151.686236 
L 325.364086 148.897864 
L 327.476559 146.621205 
L 329.589032 147.644629 
L 331.701505 149.274754 
L 333.813978 149.581169 
L 335.926452 148.361639 
L 338.038925 146.624269 
L 340.151398 145.901131 
L 342.263871 145.533434 
L 346.488817 148.830453 
L 348.60129 149.501501 
L 350.713763 151.667851 
L 352.826237 152.473721 
L 354.93871 149.909032 
L 357.051183 146.633462 
L 359.163656 145.297495 
L 361.276129 145.459895 
L 363.388602 146.140135 
L 365.501075 146.492511 
L 367.613548 147.090019 
L 369.726022 146.155455 
L 371.838495 144.822553 
L 373.950968 145.181057 
L 378.175914 146.357689 
L 380.288387 146.268829 
L 382.40086 145.741796 
L 384.513333 145.931773 
L 386.625806 146.354625 
L 388.73828 143.308865 
L 390.850753 142.101593 
L 392.963226 143.256775 
L 397.188172 140.793203 
L 399.300645 140.811588 
L 401.413118 140.483724 
L 403.525591 139.791228 
L 407.750538 143.244518 
L 409.863011 143.180171 
L 411.975484 142.686844 
L 414.087957 146.722322 
L 416.20043 146.970518 
L 418.312903 143.094375 
L 420.425376 144.479368 
L 422.537849 147.264676 
L 424.650323 148.913185 
L 426.762796 151.036637 
L 428.875269 152.228589 
L 430.987742 151.266448 
L 433.100215 150.858917 
L 437.325161 150.901815 
L 437.325161 150.901815 
" clip-path="url(#pf427d2ae0c)" style="fill: none; stroke: #1f77b4; stroke-width: 1.5; stroke-linecap: square"/>
   </g>
   <g id="patch_8">
    <path d="M 57.08 177.75 
L 57.08 122.065 
" style="fill: none; stroke: #000000; stroke-width: 0.8; stroke-linejoin: miter; stroke-linecap: square"/>
   </g>
   <g id="patch_9">
    <path d="M 450 177.75 
L 450 122.065 
" style="fill: none; stroke: #000000; stroke-width: 0.8; stroke-linejoin: miter; stroke-linecap: square"/>
   </g>
   <g id="patch_10">
    <path d="M 57.08 177.75 
L 450 177.75 
" style="fill: none; stroke: #000000; stroke-width: 0.8; stroke-linejoin: miter; stroke-linecap: square"/>
   </g>
   <g id="patch_11">
    <path d="M 57.08 122.065 
L 450 122.065 
" style="fill: none; stroke: #000000; stroke-width: 0.8; stroke-linejoin: miter; stroke-linecap: square"/>
   </g>
  </g>
  <g id="axes_3">
   <g id="patch_12">
    <path d="M 57.08 247.735 
L 450 247.735 
L 450 192.05 
L 57.08 192.05 
z
" style="fill: #ffffff"/>
   </g>
   <g id="matplotlib.axis_5">
    <g id="xtick_17">
     <g id="line2d_25">
      <g>
       <use xlink:href="#m5173884b00" x="57.08" y="247.735" style="stroke: #000000; stroke-width: 0.8"/>
      </g>
     </g>
    </g>
    <g id="xtick_18">
     <g id="line2d_26">
      <g>
       <use xlink:href="#m5173884b00" x="109.891828" y="247.735" style="stroke: #000000; stroke-width: 0.8"/>
      </g>
     </g>
    </g>
    <g id="xtick_19">
     <g id="line2d_27">
      <g>
       <use xlink:href="#m5173884b00" x="162.703656" y="247.735" style="stroke: #000000; stroke-width: 0.8"/>
      </g>
     </g>
    </g>
    <g id="xtick_20">
     <g id="line2d_28">
      <g>
       <use xlink:href="#m5173884b00" x="215.515484" y="247.735" style="stroke: #000000; stroke-width: 0.8"/>
      </g>
     </g>
    </g>
    <g id="xtick_21">
     <g id="line2d_29">
      <g>
       <use xlink:href="#m5173884b00" x="268.327312" y="247.735" style="stroke: #000000; stroke-width: 0.8"/>
      </g>
     </g>
    </g>
    <g id="xtick_22">
     <g id="line2d_30">
      <g>
       <use xlink:href="#m5173884b00" x="321.13914" y="247.735" style="stroke: #000000; stroke-width: 0.8"/>
      </g>
     </g>
    </g>
    <g id="xtick_23">
     <g id="line2d_31">
      <g>
       <use xlink:href="#m5173884b00" x="373.950968" y="247.735" style="stroke: #000000; stroke-width: 0.8"/>
      </g>
     </g>
    </g>
    <g id="xtick_24">
     <g id="line2d_32">
      <g>
       <use xlink:href="#m5173884b00" x="426.762796" y="247.735" style="stroke: #000000; stroke-width: 0.8"/>
      </g>
     </g>
    </g>
   </g>
   <g id="matplotlib.axis_6">
    <g id="ytick_7">
     <g id="line2d_33">
      <g>
       <use xlink:href="#m003170324e" x="57.08" y="233.934882" style="stroke: #000000; stroke-width: 0.8"/>
      </g>
     </g>
     <g id="text_9">
      <!-- 1 -->
      <g transform="translate(43.7175 237.734101) scale(0.1 -0.1)">
       <defs>
        <path id="DejaVuSans-31" d="M 794 531 
L 1825 531 
L 1825 4091 
L 703 3866 
L 703 4441 
L 1819 4666 
L 2450 4666 
L 2450 531 
L 3481 531 
L 3481 0 
L 794 0 
L 794 531 
z
" transform="scale(0.015625)"/>
       </defs>
       <use xlink:href="#DejaVuSans-31"/>
      </g>
     </g>
    </g>
    <g id="ytick_8">
     <g id="line2d_34">
      <g>
       <use xlink:href="#m003170324e" x="57.08" y="205.516031" style="stroke: #000000; stroke-width: 0.8"/>
      </g>
     </g>
     <g id="text_10">
      <!-- 2 -->
      <g transform="translate(43.7175 209.31525) scale(0.1 -0.1)">
       <use xlink:href="#DejaVuSans-32"/>
      </g>
     </g>
    </g>
    <g id="text_11">
     <!-- Seasonal -->
     <g transform="translate(37.637813 242.493281) rotate(-90) scale(0.1 -0.1)">
      <defs>
       <path id="DejaVuSans-73" d="M 2834 3397 
L 2834 2853 
Q 2591 2978 2328 3040 
Q 2066 3103 1784 3103 
Q 1356 3103 1142 2972 
Q 928 2841 928 2578 
Q 928 2378 1081 2264 
Q 1234 2150 1697 2047 
L 1894 2003 
Q 2506 1872 2764 1633 
Q 3022 1394 3022 966 
Q 3022 478 2636 193 
Q 2250 -91 1575 -91 
Q 1294 -91 989 -36 
Q 684 19 347 128 
L 347 722 
Q 666 556 975 473 
Q 1284 391 1588 391 
Q 1994 391 2212 530 
Q 2431 669 2431 922 
Q 2431 1156 2273 1281 
Q 2116 1406 1581 1522 
L 1381 1569 
Q 847 1681 609 1914 
Q 372 2147 372 2553 
Q 372 3047 722 3315 
Q 1072 3584 1716 3584 
Q 2034 3584 2315 3537 
Q 2597 3491 2834 3397 
z
" transform="scale(0.015625)"/>
       <path id="DejaVuSans-6f" d="M 1959 3097 
Q 1497 3097 1228 2736 
Q 959 2375 959 1747 
Q 959 1119 1226 758 
Q 1494 397 1959 397 
Q 2419 397 2687 759 
Q 2956 1122 2956 1747 
Q 2956 2369 2687 2733 
Q 2419 3097 1959 3097 
z
M 1959 3584 
Q 2709 3584 3137 3096 
Q 3566 2609 3566 1747 
Q 3566 888 3137 398 
Q 2709 -91 1959 -91 
Q 1206 -91 779 398 
Q 353 888 353 1747 
Q 353 2609 779 3096 
Q 1206 3584 1959 3584 
z
" transform="scale(0.015625)"/>
      </defs>
      <use xlink:href="#DejaVuSans-53"/>
      <use xlink:href="#DejaVuSans-65" transform="translate(63.476562 0)"/>
      <use xlink:href="#DejaVuSans-61" transform="translate(125 0)"/>
      <use xlink:href="#DejaVuSans-73" transform="translate(186.279297 0)"/>
      <use xlink:href="#DejaVuSans-6f" transform="translate(238.378906 0)"/>
      <use xlink:href="#DejaVuSans-6e" transform="translate(299.560547 0)"/>
      <use xlink:href="#DejaVuSans-61" transform="translate(362.939453 0)"/>
      <use xlink:href="#DejaVuSans-6c" transform="translate(424.21875 0)"/>
     </g>
    </g>
   </g>
   <g id="line2d_35">
    <path d="M 57.08 243.885941 
L 59.192473 243.619635 
L 61.304946 240.828166 
L 63.417419 241.598007 
L 65.529892 243.579987 
L 67.642366 245.203864 
L 69.754839 239.358223 
L 71.867312 236.241854 
L 73.979785 236.936865 
L 76.092258 227.063526 
L 78.204731 214.321382 
L 80.317204 194.581136 
L 82.429677 243.885941 
L 84.542151 243.619635 
L 86.654624 240.828166 
L 88.767097 241.598007 
L 90.87957 243.579987 
L 92.992043 245.203864 
L 95.104516 239.358223 
L 97.216989 236.241854 
L 99.329462 236.936865 
L 101.441935 227.063526 
L 103.554409 214.321382 
L 105.666882 194.581136 
L 107.779355 243.885941 
L 109.891828 243.619635 
L 112.004301 240.828166 
L 114.116774 241.598007 
L 116.229247 243.579987 
L 118.34172 245.203864 
L 120.454194 239.358223 
L 122.566667 236.241854 
L 124.67914 236.936865 
L 126.791613 227.063526 
L 128.904086 214.321382 
L 131.016559 194.581136 
L 133.129032 243.885941 
L 135.241505 243.619635 
L 137.353978 240.828166 
L 139.466452 241.598007 
L 141.578925 243.579987 
L 143.691398 245.203864 
L 145.803871 239.358223 
L 147.916344 236.241854 
L 150.028817 236.936865 
L 152.14129 227.063526 
L 154.253763 214.321382 
L 156.366237 194.581136 
L 158.47871 243.885941 
L 160.591183 243.619635 
L 162.703656 240.828166 
L 164.816129 241.598007 
L 166.928602 243.579987 
L 169.041075 245.203864 
L 171.153548 239.358223 
L 173.266022 236.241854 
L 175.378495 236.936865 
L 177.490968 227.063526 
L 179.603441 214.321382 
L 181.715914 194.581136 
L 183.828387 243.885941 
L 185.94086 243.619635 
L 188.053333 240.828166 
L 190.165806 241.598007 
L 192.27828 243.579987 
L 194.390753 245.203864 
L 196.503226 239.358223 
L 198.615699 236.241854 
L 200.728172 236.936865 
L 202.840645 227.063526 
L 204.953118 214.321382 
L 207.065591 194.581136 
L 209.178065 243.885941 
L 211.290538 243.619635 
L 213.403011 240.828166 
L 215.515484 241.598007 
L 217.627957 243.579987 
L 219.74043 245.203864 
L 221.852903 239.358223 
L 223.965376 236.241854 
L 226.077849 236.936865 
L 228.190323 227.063526 
L 230.302796 214.321382 
L 232.415269 194.581136 
L 234.527742 243.885941 
L 236.640215 243.619635 
L 238.752688 240.828166 
L 240.865161 241.598007 
L 242.977634 243.579987 
L 245.090108 245.203864 
L 247.202581 239.358223 
L 249.315054 236.241854 
L 251.427527 236.936865 
L 253.54 227.063526 
L 255.652473 214.321382 
L 257.764946 194.581136 
L 259.877419 243.885941 
L 261.989892 243.619635 
L 264.102366 240.828166 
L 266.214839 241.598007 
L 268.327312 243.579987 
L 270.439785 245.203864 
L 272.552258 239.358223 
L 274.664731 236.241854 
L 276.777204 236.936865 
L 278.889677 227.063526 
L 281.002151 214.321382 
L 283.114624 194.581136 
L 285.227097 243.885941 
L 287.33957 243.619635 
L 289.452043 240.828166 
L 291.564516 241.598007 
L 293.676989 243.579987 
L 295.789462 245.203864 
L 297.901935 239.358223 
L 300.014409 236.241854 
L 302.126882 236.936865 
L 304.239355 227.063526 
L 306.351828 214.321382 
L 308.464301 194.581136 
L 310.576774 243.885941 
L 312.689247 243.619635 
L 314.80172 240.828166 
L 316.914194 241.598007 
L 319.026667 243.579987 
L 321.13914 245.203864 
L 323.251613 239.358223 
L 325.364086 236.241854 
L 327.476559 236.936865 
L 329.589032 227.063526 
L 331.701505 214.321382 
L 333.813978 194.581136 
L 335.926452 243.885941 
L 338.038925 243.619635 
L 340.151398 240.828166 
L 342.263871 241.598007 
L 344.376344 243.579987 
L 346.488817 245.203864 
L 348.60129 239.358223 
L 350.713763 236.241854 
L 352.826237 236.936865 
L 354.93871 227.063526 
L 357.051183 214.321382 
L 359.163656 194.581136 
L 361.276129 243.885941 
L 363.388602 243.619635 
L 365.501075 240.828166 
L 367.613548 241.598007 
L 369.726022 243.579987 
L 371.838495 245.203864 
L 373.950968 239.358223 
L 376.063441 236.241854 
L 378.175914 236.936865 
L 380.288387 227.063526 
L 382.40086 214.321382 
L 384.513333 194.581136 
L 386.625806 243.885941 
L 388.73828 243.619635 
L 390.850753 240.828166 
L 392.963226 241.598007 
L 395.075699 243.579987 
L 397.188172 245.203864 
L 399.300645 239.358223 
L 401.413118 236.241854 
L 403.525591 236.936865 
L 405.638065 227.063526 
L 407.750538 214.321382 
L 409.863011 194.581136 
L 411.975484 243.885941 
L 414.087957 243.619635 
L 416.20043 240.828166 
L 418.312903 241.598007 
L 420.425376 243.579987 
L 422.537849 245.203864 
L 424.650323 239.358223 
L 426.762796 236.241854 
L 428.875269 236.936865 
L 430.987742 227.063526 
L 433.100215 214.321382 
L 435.212688 194.581136 
L 437.325161 243.885941 
L 439.437634 243.619635 
L 441.550108 240.828166 
L 443.662581 241.598007 
L 445.775054 243.579987 
L 447.887527 245.203864 
L 450 239.358223 
L 450 239.358223 
" clip-path="url(#p626add270f)" style="fill: none; stroke: #1f77b4; stroke-width: 1.5; stroke-linecap: square"/>
   </g>
   <g id="patch_13">
    <path d="M 57.08 247.735 
L 57.08 192.05 
" style="fill: none; stroke: #000000; stroke-width: 0.8; stroke-linejoin: miter; stroke-linecap: square"/>
   </g>
   <g id="patch_14">
    <path d="M 450 247.735 
L 450 192.05 
" style="fill: none; stroke: #000000; stroke-width: 0.8; stroke-linejoin: miter; stroke-linecap: square"/>
   </g>
   <g id="patch_15">
    <path d="M 57.08 247.735 
L 450 247.735 
" style="fill: none; stroke: #000000; stroke-width: 0.8; stroke-linejoin: miter; stroke-linecap: square"/>
   </g>
   <g id="patch_16">
    <path d="M 57.08 192.05 
L 450 192.05 
" style="fill: none; stroke: #000000; stroke-width: 0.8; stroke-linejoin: miter; stroke-linecap: square"/>
   </g>
  </g>
  <g id="axes_4">
   <g id="patch_17">
    <path d="M 57.08 317.72 
L 450 317.72 
L 450 262.035 
L 57.08 262.035 
z
" style="fill: #ffffff"/>
   </g>
   <g id="line2d_36">
    <path d="M 57.08 315.188864 
L 450 315.188864 
" clip-path="url(#pf49443642b)" style="fill: none; stroke: #000000; stroke-width: 1.5; stroke-linecap: square"/>
   </g>
   <g id="matplotlib.axis_7">
    <g id="xtick_25">
     <g id="line2d_37">
      <g>
       <use xlink:href="#m5173884b00" x="57.08" y="317.72" style="stroke: #000000; stroke-width: 0.8"/>
      </g>
     </g>
     <g id="text_12">
      <!-- 0 -->
      <g transform="translate(53.89875 332.318437) scale(0.1 -0.1)">
       <use xlink:href="#DejaVuSans-30"/>
      </g>
     </g>
    </g>
    <g id="xtick_26">
     <g id="line2d_38">
      <g>
       <use xlink:href="#m5173884b00" x="109.891828" y="317.72" style="stroke: #000000; stroke-width: 0.8"/>
      </g>
     </g>
     <g id="text_13">
      <!-- 25 -->
      <g transform="translate(103.529328 332.318437) scale(0.1 -0.1)">
       <use xlink:href="#DejaVuSans-32"/>
       <use xlink:href="#DejaVuSans-35" transform="translate(63.623047 0)"/>
      </g>
     </g>
    </g>
    <g id="xtick_27">
     <g id="line2d_39">
      <g>
       <use xlink:href="#m5173884b00" x="162.703656" y="317.72" style="stroke: #000000; stroke-width: 0.8"/>
      </g>
     </g>
     <g id="text_14">
      <!-- 50 -->
      <g transform="translate(156.341156 332.318437) scale(0.1 -0.1)">
       <use xlink:href="#DejaVuSans-35"/>
       <use xlink:href="#DejaVuSans-30" transform="translate(63.623047 0)"/>
      </g>
     </g>
    </g>
    <g id="xtick_28">
     <g id="line2d_40">
      <g>
       <use xlink:href="#m5173884b00" x="215.515484" y="317.72" style="stroke: #000000; stroke-width: 0.8"/>
      </g>
     </g>
     <g id="text_15">
      <!-- 75 -->
      <g transform="translate(209.152984 332.318437) scale(0.1 -0.1)">
       <use xlink:href="#DejaVuSans-37"/>
       <use xlink:href="#DejaVuSans-35" transform="translate(63.623047 0)"/>
      </g>
     </g>
    </g>
    <g id="xtick_29">
     <g id="line2d_41">
      <g>
       <use xlink:href="#m5173884b00" x="268.327312" y="317.72" style="stroke: #000000; stroke-width: 0.8"/>
      </g>
     </g>
     <g id="text_16">
      <!-- 100 -->
      <g transform="translate(258.783562 332.318437) scale(0.1 -0.1)">
       <use xlink:href="#DejaVuSans-31"/>
       <use xlink:href="#DejaVuSans-30" transform="translate(63.623047 0)"/>
       <use xlink:href="#DejaVuSans-30" transform="translate(127.246094 0)"/>
      </g>
     </g>
    </g>
    <g id="xtick_30">
     <g id="line2d_42">
      <g>
       <use xlink:href="#m5173884b00" x="321.13914" y="317.72" style="stroke: #000000; stroke-width: 0.8"/>
      </g>
     </g>
     <g id="text_17">
      <!-- 125 -->
      <g transform="translate(311.59539 332.318437) scale(0.1 -0.1)">
       <use xlink:href="#DejaVuSans-31"/>
       <use xlink:href="#DejaVuSans-32" transform="translate(63.623047 0)"/>
       <use xlink:href="#DejaVuSans-35" transform="translate(127.246094 0)"/>
      </g>
     </g>
    </g>
    <g id="xtick_31">
     <g id="line2d_43">
      <g>
       <use xlink:href="#m5173884b00" x="373.950968" y="317.72" style="stroke: #000000; stroke-width: 0.8"/>
      </g>
     </g>
     <g id="text_18">
      <!-- 150 -->
      <g transform="translate(364.407218 332.318437) scale(0.1 -0.1)">
       <use xlink:href="#DejaVuSans-31"/>
       <use xlink:href="#DejaVuSans-35" transform="translate(63.623047 0)"/>
       <use xlink:href="#DejaVuSans-30" transform="translate(127.246094 0)"/>
      </g>
     </g>
    </g>
    <g id="xtick_32">
     <g id="line2d_44">
      <g>
       <use xlink:href="#m5173884b00" x="426.762796" y="317.72" style="stroke: #000000; stroke-width: 0.8"/>
      </g>
     </g>
     <g id="text_19">
      <!-- 175 -->
      <g transform="translate(417.219046 332.318437) scale(0.1 -0.1)">
       <use xlink:href="#DejaVuSans-31"/>
       <use xlink:href="#DejaVuSans-37" transform="translate(63.623047 0)"/>
       <use xlink:href="#DejaVuSans-35" transform="translate(127.246094 0)"/>
      </g>
     </g>
    </g>
   </g>
   <g id="matplotlib.axis_8">
    <g id="ytick_9">
     <g id="line2d_45">
      <g>
       <use xlink:href="#m003170324e" x="57.08" y="315.188864" style="stroke: #000000; stroke-width: 0.8"/>
      </g>
     </g>
     <g id="text_20">
      <!-- 0 -->
      <g transform="translate(43.7175 318.988082) scale(0.1 -0.1)">
       <use xlink:href="#DejaVuSans-30"/>
      </g>
     </g>
    </g>
    <g id="ytick_10">
     <g id="line2d_46">
      <g>
       <use xlink:href="#m003170324e" x="57.08" y="281.413101" style="stroke: #000000; stroke-width: 0.8"/>
      </g>
     </g>
     <g id="text_21">
      <!-- 1 -->
      <g transform="translate(43.7175 285.212319) scale(0.1 -0.1)">
       <use xlink:href="#DejaVuSans-31"/>
      </g>
     </g>
    </g>
    <g id="text_22">
     <!-- Resid -->
     <g transform="translate(37.637813 303.37125) rotate(-90) scale(0.1 -0.1)">
      <defs>
       <path id="DejaVuSans-52" d="M 2841 2188 
Q 3044 2119 3236 1894 
Q 3428 1669 3622 1275 
L 4263 0 
L 3584 0 
L 2988 1197 
Q 2756 1666 2539 1819 
Q 2322 1972 1947 1972 
L 1259 1972 
L 1259 0 
L 628 0 
L 628 4666 
L 2053 4666 
Q 2853 4666 3247 4331 
Q 3641 3997 3641 3322 
Q 3641 2881 3436 2590 
Q 3231 2300 2841 2188 
z
M 1259 4147 
L 1259 2491 
L 2053 2491 
Q 2509 2491 2742 2702 
Q 2975 2913 2975 3322 
Q 2975 3731 2742 3939 
Q 2509 4147 2053 4147 
L 1259 4147 
z
" transform="scale(0.015625)"/>
      </defs>
      <use xlink:href="#DejaVuSans-52"/>
      <use xlink:href="#DejaVuSans-65" transform="translate(64.982422 0)"/>
      <use xlink:href="#DejaVuSans-73" transform="translate(126.505859 0)"/>
      <use xlink:href="#DejaVuSans-69" transform="translate(178.605469 0)"/>
      <use xlink:href="#DejaVuSans-64" transform="translate(206.388672 0)"/>
     </g>
    </g>
   </g>
   <g id="line2d_47">
    <defs>
     <path id="m80e6d26709" d="M 0 3 
C 0.795609 3 1.55874 2.683901 2.12132 2.12132 
C 2.683901 1.55874 3 0.795609 3 0 
C 3 -0.795609 2.683901 -1.55874 2.12132 -2.12132 
C 1.55874 -2.683901 0.795609 -3 0 -3 
C -0.795609 -3 -1.55874 -2.683901 -2.12132 -2.12132 
C -2.683901 -1.55874 -3 -0.795609 -3 0 
C -3 0.795609 -2.683901 1.55874 -2.12132 2.12132 
C -1.55874 2.683901 -0.795609 3 0 3 
z
" style="stroke: #1f77b4"/>
    </defs>
    <g clip-path="url(#pf49443642b)">
     <use xlink:href="#m80e6d26709" x="69.754839" y="280.425846" style="fill: #1f77b4; stroke: #1f77b4"/>
     <use xlink:href="#m80e6d26709" x="71.867312" y="276.839611" style="fill: #1f77b4; stroke: #1f77b4"/>
     <use xlink:href="#m80e6d26709" x="73.979785" y="282.900804" style="fill: #1f77b4; stroke: #1f77b4"/>
     <use xlink:href="#m80e6d26709" x="76.092258" y="284.536905" style="fill: #1f77b4; stroke: #1f77b4"/>
     <use xlink:href="#m80e6d26709" x="78.204731" y="279.710033" style="fill: #1f77b4; stroke: #1f77b4"/>
     <use xlink:href="#m80e6d26709" x="80.317204" y="283.210996" style="fill: #1f77b4; stroke: #1f77b4"/>
     <use xlink:href="#m80e6d26709" x="82.429677" y="280.468717" style="fill: #1f77b4; stroke: #1f77b4"/>
     <use xlink:href="#m80e6d26709" x="84.542151" y="281.015659" style="fill: #1f77b4; stroke: #1f77b4"/>
     <use xlink:href="#m80e6d26709" x="86.654624" y="283.30849" style="fill: #1f77b4; stroke: #1f77b4"/>
     <use xlink:href="#m80e6d26709" x="88.767097" y="274.942076" style="fill: #1f77b4; stroke: #1f77b4"/>
     <use xlink:href="#m80e6d26709" x="90.87957" y="288.572612" style="fill: #1f77b4; stroke: #1f77b4"/>
     <use xlink:href="#m80e6d26709" x="92.992043" y="277.736732" style="fill: #1f77b4; stroke: #1f77b4"/>
     <use xlink:href="#m80e6d26709" x="95.104516" y="281.161304" style="fill: #1f77b4; stroke: #1f77b4"/>
     <use xlink:href="#m80e6d26709" x="97.216989" y="273.425411" style="fill: #1f77b4; stroke: #1f77b4"/>
     <use xlink:href="#m80e6d26709" x="99.329462" y="280.600823" style="fill: #1f77b4; stroke: #1f77b4"/>
     <use xlink:href="#m80e6d26709" x="101.441935" y="286.439099" style="fill: #1f77b4; stroke: #1f77b4"/>
     <use xlink:href="#m80e6d26709" x="103.554409" y="279.471087" style="fill: #1f77b4; stroke: #1f77b4"/>
     <use xlink:href="#m80e6d26709" x="105.666882" y="285.512349" style="fill: #1f77b4; stroke: #1f77b4"/>
     <use xlink:href="#m80e6d26709" x="107.779355" y="279.15252" style="fill: #1f77b4; stroke: #1f77b4"/>
     <use xlink:href="#m80e6d26709" x="109.891828" y="283.680635" style="fill: #1f77b4; stroke: #1f77b4"/>
     <use xlink:href="#m80e6d26709" x="112.004301" y="283.345042" style="fill: #1f77b4; stroke: #1f77b4"/>
     <use xlink:href="#m80e6d26709" x="114.116774" y="276.220457" style="fill: #1f77b4; stroke: #1f77b4"/>
     <use xlink:href="#m80e6d26709" x="116.229247" y="278.17909" style="fill: #1f77b4; stroke: #1f77b4"/>
     <use xlink:href="#m80e6d26709" x="118.34172" y="276.774985" style="fill: #1f77b4; stroke: #1f77b4"/>
     <use xlink:href="#m80e6d26709" x="120.454194" y="276.610358" style="fill: #1f77b4; stroke: #1f77b4"/>
     <use xlink:href="#m80e6d26709" x="122.566667" y="282.468737" style="fill: #1f77b4; stroke: #1f77b4"/>
     <use xlink:href="#m80e6d26709" x="124.67914" y="285.436108" style="fill: #1f77b4; stroke: #1f77b4"/>
     <use xlink:href="#m80e6d26709" x="126.791613" y="283.669936" style="fill: #1f77b4; stroke: #1f77b4"/>
     <use xlink:href="#m80e6d26709" x="128.904086" y="281.685566" style="fill: #1f77b4; stroke: #1f77b4"/>
     <use xlink:href="#m80e6d26709" x="131.016559" y="285.044785" style="fill: #1f77b4; stroke: #1f77b4"/>
     <use xlink:href="#m80e6d26709" x="133.129032" y="275.410109" style="fill: #1f77b4; stroke: #1f77b4"/>
     <use xlink:href="#m80e6d26709" x="135.241505" y="275.305952" style="fill: #1f77b4; stroke: #1f77b4"/>
     <use xlink:href="#m80e6d26709" x="137.353978" y="272.912834" style="fill: #1f77b4; stroke: #1f77b4"/>
     <use xlink:href="#m80e6d26709" x="139.466452" y="285.767481" style="fill: #1f77b4; stroke: #1f77b4"/>
     <use xlink:href="#m80e6d26709" x="141.578925" y="283.868313" style="fill: #1f77b4; stroke: #1f77b4"/>
     <use xlink:href="#m80e6d26709" x="143.691398" y="283.003831" style="fill: #1f77b4; stroke: #1f77b4"/>
     <use xlink:href="#m80e6d26709" x="145.803871" y="284.576264" style="fill: #1f77b4; stroke: #1f77b4"/>
     <use xlink:href="#m80e6d26709" x="147.916344" y="276.318176" style="fill: #1f77b4; stroke: #1f77b4"/>
     <use xlink:href="#m80e6d26709" x="150.028817" y="276.988701" style="fill: #1f77b4; stroke: #1f77b4"/>
     <use xlink:href="#m80e6d26709" x="152.14129" y="283.92551" style="fill: #1f77b4; stroke: #1f77b4"/>
     <use xlink:href="#m80e6d26709" x="154.253763" y="284.112756" style="fill: #1f77b4; stroke: #1f77b4"/>
     <use xlink:href="#m80e6d26709" x="156.366237" y="283.908686" style="fill: #1f77b4; stroke: #1f77b4"/>
     <use xlink:href="#m80e6d26709" x="158.47871" y="277.78039" style="fill: #1f77b4; stroke: #1f77b4"/>
     <use xlink:href="#m80e6d26709" x="160.591183" y="282.817732" style="fill: #1f77b4; stroke: #1f77b4"/>
     <use xlink:href="#m80e6d26709" x="162.703656" y="275.041442" style="fill: #1f77b4; stroke: #1f77b4"/>
     <use xlink:href="#m80e6d26709" x="164.816129" y="278.756204" style="fill: #1f77b4; stroke: #1f77b4"/>
     <use xlink:href="#m80e6d26709" x="166.928602" y="280.434939" style="fill: #1f77b4; stroke: #1f77b4"/>
     <use xlink:href="#m80e6d26709" x="169.041075" y="281.815789" style="fill: #1f77b4; stroke: #1f77b4"/>
     <use xlink:href="#m80e6d26709" x="171.153548" y="287.132776" style="fill: #1f77b4; stroke: #1f77b4"/>
     <use xlink:href="#m80e6d26709" x="173.266022" y="266.663039" style="fill: #1f77b4; stroke: #1f77b4"/>
     <use xlink:href="#m80e6d26709" x="175.378495" y="287.445232" style="fill: #1f77b4; stroke: #1f77b4"/>
     <use xlink:href="#m80e6d26709" x="177.490968" y="286.537362" style="fill: #1f77b4; stroke: #1f77b4"/>
     <use xlink:href="#m80e6d26709" x="179.603441" y="279.347426" style="fill: #1f77b4; stroke: #1f77b4"/>
     <use xlink:href="#m80e6d26709" x="181.715914" y="284.002158" style="fill: #1f77b4; stroke: #1f77b4"/>
     <use xlink:href="#m80e6d26709" x="183.828387" y="276.772756" style="fill: #1f77b4; stroke: #1f77b4"/>
     <use xlink:href="#m80e6d26709" x="185.94086" y="278.843381" style="fill: #1f77b4; stroke: #1f77b4"/>
     <use xlink:href="#m80e6d26709" x="188.053333" y="280.080736" style="fill: #1f77b4; stroke: #1f77b4"/>
     <use xlink:href="#m80e6d26709" x="190.165806" y="284.520671" style="fill: #1f77b4; stroke: #1f77b4"/>
     <use xlink:href="#m80e6d26709" x="192.27828" y="275.652134" style="fill: #1f77b4; stroke: #1f77b4"/>
     <use xlink:href="#m80e6d26709" x="194.390753" y="283.856587" style="fill: #1f77b4; stroke: #1f77b4"/>
     <use xlink:href="#m80e6d26709" x="196.503226" y="287.311733" style="fill: #1f77b4; stroke: #1f77b4"/>
     <use xlink:href="#m80e6d26709" x="198.615699" y="277.49301" style="fill: #1f77b4; stroke: #1f77b4"/>
     <use xlink:href="#m80e6d26709" x="200.728172" y="287.685752" style="fill: #1f77b4; stroke: #1f77b4"/>
     <use xlink:href="#m80e6d26709" x="202.840645" y="273.321344" style="fill: #1f77b4; stroke: #1f77b4"/>
     <use xlink:href="#m80e6d26709" x="204.953118" y="278.900687" style="fill: #1f77b4; stroke: #1f77b4"/>
     <use xlink:href="#m80e6d26709" x="207.065591" y="283.280841" style="fill: #1f77b4; stroke: #1f77b4"/>
     <use xlink:href="#m80e6d26709" x="209.178065" y="281.148072" style="fill: #1f77b4; stroke: #1f77b4"/>
     <use xlink:href="#m80e6d26709" x="211.290538" y="284.28263" style="fill: #1f77b4; stroke: #1f77b4"/>
     <use xlink:href="#m80e6d26709" x="213.403011" y="287.608609" style="fill: #1f77b4; stroke: #1f77b4"/>
     <use xlink:href="#m80e6d26709" x="215.515484" y="285.302708" style="fill: #1f77b4; stroke: #1f77b4"/>
     <use xlink:href="#m80e6d26709" x="217.627957" y="277.735914" style="fill: #1f77b4; stroke: #1f77b4"/>
     <use xlink:href="#m80e6d26709" x="219.74043" y="282.630037" style="fill: #1f77b4; stroke: #1f77b4"/>
     <use xlink:href="#m80e6d26709" x="221.852903" y="270.651515" style="fill: #1f77b4; stroke: #1f77b4"/>
     <use xlink:href="#m80e6d26709" x="223.965376" y="264.566136" style="fill: #1f77b4; stroke: #1f77b4"/>
     <use xlink:href="#m80e6d26709" x="226.077849" y="290.659108" style="fill: #1f77b4; stroke: #1f77b4"/>
     <use xlink:href="#m80e6d26709" x="228.190323" y="288.758451" style="fill: #1f77b4; stroke: #1f77b4"/>
     <use xlink:href="#m80e6d26709" x="230.302796" y="282.275925" style="fill: #1f77b4; stroke: #1f77b4"/>
     <use xlink:href="#m80e6d26709" x="232.415269" y="280.484065" style="fill: #1f77b4; stroke: #1f77b4"/>
     <use xlink:href="#m80e6d26709" x="234.527742" y="284.68934" style="fill: #1f77b4; stroke: #1f77b4"/>
     <use xlink:href="#m80e6d26709" x="236.640215" y="282.762733" style="fill: #1f77b4; stroke: #1f77b4"/>
     <use xlink:href="#m80e6d26709" x="238.752688" y="284.719459" style="fill: #1f77b4; stroke: #1f77b4"/>
     <use xlink:href="#m80e6d26709" x="240.865161" y="276.983072" style="fill: #1f77b4; stroke: #1f77b4"/>
     <use xlink:href="#m80e6d26709" x="242.977634" y="282.73532" style="fill: #1f77b4; stroke: #1f77b4"/>
     <use xlink:href="#m80e6d26709" x="245.090108" y="286.809199" style="fill: #1f77b4; stroke: #1f77b4"/>
     <use xlink:href="#m80e6d26709" x="247.202581" y="284.845806" style="fill: #1f77b4; stroke: #1f77b4"/>
     <use xlink:href="#m80e6d26709" x="249.315054" y="287.628358" style="fill: #1f77b4; stroke: #1f77b4"/>
     <use xlink:href="#m80e6d26709" x="251.427527" y="277.04185" style="fill: #1f77b4; stroke: #1f77b4"/>
     <use xlink:href="#m80e6d26709" x="253.54" y="283.246726" style="fill: #1f77b4; stroke: #1f77b4"/>
     <use xlink:href="#m80e6d26709" x="255.652473" y="282.306588" style="fill: #1f77b4; stroke: #1f77b4"/>
     <use xlink:href="#m80e6d26709" x="257.764946" y="277.241927" style="fill: #1f77b4; stroke: #1f77b4"/>
     <use xlink:href="#m80e6d26709" x="259.877419" y="279.988315" style="fill: #1f77b4; stroke: #1f77b4"/>
     <use xlink:href="#m80e6d26709" x="261.989892" y="281.924098" style="fill: #1f77b4; stroke: #1f77b4"/>
     <use xlink:href="#m80e6d26709" x="264.102366" y="280.619992" style="fill: #1f77b4; stroke: #1f77b4"/>
     <use xlink:href="#m80e6d26709" x="266.214839" y="275.70762" style="fill: #1f77b4; stroke: #1f77b4"/>
     <use xlink:href="#m80e6d26709" x="268.327312" y="283.483996" style="fill: #1f77b4; stroke: #1f77b4"/>
     <use xlink:href="#m80e6d26709" x="270.439785" y="281.876454" style="fill: #1f77b4; stroke: #1f77b4"/>
     <use xlink:href="#m80e6d26709" x="272.552258" y="281.542137" style="fill: #1f77b4; stroke: #1f77b4"/>
     <use xlink:href="#m80e6d26709" x="274.664731" y="293.171443" style="fill: #1f77b4; stroke: #1f77b4"/>
     <use xlink:href="#m80e6d26709" x="276.777204" y="281.638953" style="fill: #1f77b4; stroke: #1f77b4"/>
     <use xlink:href="#m80e6d26709" x="278.889677" y="277.391494" style="fill: #1f77b4; stroke: #1f77b4"/>
     <use xlink:href="#m80e6d26709" x="281.002151" y="277.710806" style="fill: #1f77b4; stroke: #1f77b4"/>
     <use xlink:href="#m80e6d26709" x="283.114624" y="279.020532" style="fill: #1f77b4; stroke: #1f77b4"/>
     <use xlink:href="#m80e6d26709" x="285.227097" y="280.39401" style="fill: #1f77b4; stroke: #1f77b4"/>
     <use xlink:href="#m80e6d26709" x="287.33957" y="288.002748" style="fill: #1f77b4; stroke: #1f77b4"/>
     <use xlink:href="#m80e6d26709" x="289.452043" y="281.817989" style="fill: #1f77b4; stroke: #1f77b4"/>
     <use xlink:href="#m80e6d26709" x="291.564516" y="286.509201" style="fill: #1f77b4; stroke: #1f77b4"/>
     <use xlink:href="#m80e6d26709" x="293.676989" y="283.219829" style="fill: #1f77b4; stroke: #1f77b4"/>
     <use xlink:href="#m80e6d26709" x="295.789462" y="285.186284" style="fill: #1f77b4; stroke: #1f77b4"/>
     <use xlink:href="#m80e6d26709" x="297.901935" y="283.771617" style="fill: #1f77b4; stroke: #1f77b4"/>
     <use xlink:href="#m80e6d26709" x="300.014409" y="287.51484" style="fill: #1f77b4; stroke: #1f77b4"/>
     <use xlink:href="#m80e6d26709" x="302.126882" y="277.394263" style="fill: #1f77b4; stroke: #1f77b4"/>
     <use xlink:href="#m80e6d26709" x="304.239355" y="274.964018" style="fill: #1f77b4; stroke: #1f77b4"/>
     <use xlink:href="#m80e6d26709" x="306.351828" y="280.458867" style="fill: #1f77b4; stroke: #1f77b4"/>
     <use xlink:href="#m80e6d26709" x="308.464301" y="278.694566" style="fill: #1f77b4; stroke: #1f77b4"/>
     <use xlink:href="#m80e6d26709" x="310.576774" y="280.765507" style="fill: #1f77b4; stroke: #1f77b4"/>
     <use xlink:href="#m80e6d26709" x="312.689247" y="288.943571" style="fill: #1f77b4; stroke: #1f77b4"/>
     <use xlink:href="#m80e6d26709" x="314.80172" y="282.75778" style="fill: #1f77b4; stroke: #1f77b4"/>
     <use xlink:href="#m80e6d26709" x="316.914194" y="285.289273" style="fill: #1f77b4; stroke: #1f77b4"/>
     <use xlink:href="#m80e6d26709" x="319.026667" y="281.869035" style="fill: #1f77b4; stroke: #1f77b4"/>
     <use xlink:href="#m80e6d26709" x="321.13914" y="281.791158" style="fill: #1f77b4; stroke: #1f77b4"/>
     <use xlink:href="#m80e6d26709" x="323.251613" y="282.465368" style="fill: #1f77b4; stroke: #1f77b4"/>
     <use xlink:href="#m80e6d26709" x="325.364086" y="291.20775" style="fill: #1f77b4; stroke: #1f77b4"/>
     <use xlink:href="#m80e6d26709" x="327.476559" y="278.442683" style="fill: #1f77b4; stroke: #1f77b4"/>
     <use xlink:href="#m80e6d26709" x="329.589032" y="280.976918" style="fill: #1f77b4; stroke: #1f77b4"/>
     <use xlink:href="#m80e6d26709" x="331.701505" y="280.302444" style="fill: #1f77b4; stroke: #1f77b4"/>
     <use xlink:href="#m80e6d26709" x="333.813978" y="280.24575" style="fill: #1f77b4; stroke: #1f77b4"/>
     <use xlink:href="#m80e6d26709" x="335.926452" y="275.125931" style="fill: #1f77b4; stroke: #1f77b4"/>
     <use xlink:href="#m80e6d26709" x="338.038925" y="273.04658" style="fill: #1f77b4; stroke: #1f77b4"/>
     <use xlink:href="#m80e6d26709" x="340.151398" y="281.776055" style="fill: #1f77b4; stroke: #1f77b4"/>
     <use xlink:href="#m80e6d26709" x="342.263871" y="291.586079" style="fill: #1f77b4; stroke: #1f77b4"/>
     <use xlink:href="#m80e6d26709" x="344.376344" y="285.716447" style="fill: #1f77b4; stroke: #1f77b4"/>
     <use xlink:href="#m80e6d26709" x="346.488817" y="280.167701" style="fill: #1f77b4; stroke: #1f77b4"/>
     <use xlink:href="#m80e6d26709" x="348.60129" y="277.499535" style="fill: #1f77b4; stroke: #1f77b4"/>
     <use xlink:href="#m80e6d26709" x="350.713763" y="287.011086" style="fill: #1f77b4; stroke: #1f77b4"/>
     <use xlink:href="#m80e6d26709" x="352.826237" y="277.480616" style="fill: #1f77b4; stroke: #1f77b4"/>
     <use xlink:href="#m80e6d26709" x="354.93871" y="279.034328" style="fill: #1f77b4; stroke: #1f77b4"/>
     <use xlink:href="#m80e6d26709" x="357.051183" y="286.092119" style="fill: #1f77b4; stroke: #1f77b4"/>
     <use xlink:href="#m80e6d26709" x="359.163656" y="280.458626" style="fill: #1f77b4; stroke: #1f77b4"/>
     <use xlink:href="#m80e6d26709" x="361.276129" y="282.49441" style="fill: #1f77b4; stroke: #1f77b4"/>
     <use xlink:href="#m80e6d26709" x="363.388602" y="280.993634" style="fill: #1f77b4; stroke: #1f77b4"/>
     <use xlink:href="#m80e6d26709" x="365.501075" y="279.539699" style="fill: #1f77b4; stroke: #1f77b4"/>
     <use xlink:href="#m80e6d26709" x="367.613548" y="278.022116" style="fill: #1f77b4; stroke: #1f77b4"/>
     <use xlink:href="#m80e6d26709" x="369.726022" y="278.688319" style="fill: #1f77b4; stroke: #1f77b4"/>
     <use xlink:href="#m80e6d26709" x="371.838495" y="279.035298" style="fill: #1f77b4; stroke: #1f77b4"/>
     <use xlink:href="#m80e6d26709" x="373.950968" y="280.675658" style="fill: #1f77b4; stroke: #1f77b4"/>
     <use xlink:href="#m80e6d26709" x="376.063441" y="289.150468" style="fill: #1f77b4; stroke: #1f77b4"/>
     <use xlink:href="#m80e6d26709" x="378.175914" y="279.206927" style="fill: #1f77b4; stroke: #1f77b4"/>
     <use xlink:href="#m80e6d26709" x="380.288387" y="281.538467" style="fill: #1f77b4; stroke: #1f77b4"/>
     <use xlink:href="#m80e6d26709" x="382.40086" y="282.488844" style="fill: #1f77b4; stroke: #1f77b4"/>
     <use xlink:href="#m80e6d26709" x="384.513333" y="280.531408" style="fill: #1f77b4; stroke: #1f77b4"/>
     <use xlink:href="#m80e6d26709" x="386.625806" y="284.06412" style="fill: #1f77b4; stroke: #1f77b4"/>
     <use xlink:href="#m80e6d26709" x="388.73828" y="283.593484" style="fill: #1f77b4; stroke: #1f77b4"/>
     <use xlink:href="#m80e6d26709" x="390.850753" y="282.033089" style="fill: #1f77b4; stroke: #1f77b4"/>
     <use xlink:href="#m80e6d26709" x="392.963226" y="276.52537" style="fill: #1f77b4; stroke: #1f77b4"/>
     <use xlink:href="#m80e6d26709" x="395.075699" y="278.518136" style="fill: #1f77b4; stroke: #1f77b4"/>
     <use xlink:href="#m80e6d26709" x="397.188172" y="282.201096" style="fill: #1f77b4; stroke: #1f77b4"/>
     <use xlink:href="#m80e6d26709" x="399.300645" y="281.92825" style="fill: #1f77b4; stroke: #1f77b4"/>
     <use xlink:href="#m80e6d26709" x="401.413118" y="275.283216" style="fill: #1f77b4; stroke: #1f77b4"/>
     <use xlink:href="#m80e6d26709" x="403.525591" y="289.628152" style="fill: #1f77b4; stroke: #1f77b4"/>
     <use xlink:href="#m80e6d26709" x="405.638065" y="279.715232" style="fill: #1f77b4; stroke: #1f77b4"/>
     <use xlink:href="#m80e6d26709" x="407.750538" y="281.894692" style="fill: #1f77b4; stroke: #1f77b4"/>
     <use xlink:href="#m80e6d26709" x="409.863011" y="279.41845" style="fill: #1f77b4; stroke: #1f77b4"/>
     <use xlink:href="#m80e6d26709" x="411.975484" y="290.740328" style="fill: #1f77b4; stroke: #1f77b4"/>
     <use xlink:href="#m80e6d26709" x="414.087957" y="274.690851" style="fill: #1f77b4; stroke: #1f77b4"/>
     <use xlink:href="#m80e6d26709" x="416.20043" y="284.342474" style="fill: #1f77b4; stroke: #1f77b4"/>
     <use xlink:href="#m80e6d26709" x="418.312903" y="283.771362" style="fill: #1f77b4; stroke: #1f77b4"/>
     <use xlink:href="#m80e6d26709" x="420.425376" y="281.229604" style="fill: #1f77b4; stroke: #1f77b4"/>
     <use xlink:href="#m80e6d26709" x="422.537849" y="277.018539" style="fill: #1f77b4; stroke: #1f77b4"/>
     <use xlink:href="#m80e6d26709" x="424.650323" y="280.727212" style="fill: #1f77b4; stroke: #1f77b4"/>
     <use xlink:href="#m80e6d26709" x="426.762796" y="292.584098" style="fill: #1f77b4; stroke: #1f77b4"/>
     <use xlink:href="#m80e6d26709" x="428.875269" y="268.775409" style="fill: #1f77b4; stroke: #1f77b4"/>
     <use xlink:href="#m80e6d26709" x="430.987742" y="277.26959" style="fill: #1f77b4; stroke: #1f77b4"/>
     <use xlink:href="#m80e6d26709" x="433.100215" y="284.567537" style="fill: #1f77b4; stroke: #1f77b4"/>
     <use xlink:href="#m80e6d26709" x="435.212688" y="280.27024" style="fill: #1f77b4; stroke: #1f77b4"/>
     <use xlink:href="#m80e6d26709" x="437.325161" y="292.330855" style="fill: #1f77b4; stroke: #1f77b4"/>
    </g>
   </g>
   <g id="patch_18">
    <path d="M 57.08 317.72 
L 57.08 262.035 
" style="fill: none; stroke: #000000; stroke-width: 0.8; stroke-linejoin: miter; stroke-linecap: square"/>
   </g>
   <g id="patch_19">
    <path d="M 450 317.72 
L 450 262.035 
" style="fill: none; stroke: #000000; stroke-width: 0.8; stroke-linejoin: miter; stroke-linecap: square"/>
   </g>
   <g id="patch_20">
    <path d="M 57.08 317.72 
L 450 317.72 
" style="fill: none; stroke: #000000; stroke-width: 0.8; stroke-linejoin: miter; stroke-linecap: square"/>
   </g>
   <g id="patch_21">
    <path d="M 57.08 262.035 
L 450 262.035 
" style="fill: none; stroke: #000000; stroke-width: 0.8; stroke-linejoin: miter; stroke-linecap: square"/>
   </g>
  </g>
  <g id="text_23">
   <!-- Seasonal Decomposition of Sparkling Sales (Multiplicative) -->
   <g transform="translate(-4.5475 19.0695) scale(0.16 -0.16)">
    <defs>
     <path id="DejaVuSans-20" transform="scale(0.015625)"/>
     <path id="DejaVuSans-44" d="M 1259 4147 
L 1259 519 
L 2022 519 
Q 2988 519 3436 956 
Q 3884 1394 3884 2338 
Q 3884 3275 3436 3711 
Q 2988 4147 2022 4147 
L 1259 4147 
z
M 628 4666 
L 1925 4666 
Q 3281 4666 3915 4102 
Q 4550 3538 4550 2338 
Q 4550 1131 3912 565 
Q 3275 0 1925 0 
L 628 0 
L 628 4666 
z
" transform="scale(0.015625)"/>
     <path id="DejaVuSans-63" d="M 3122 3366 
L 3122 2828 
Q 2878 2963 2633 3030 
Q 2388 3097 2138 3097 
Q 1578 3097 1268 2742 
Q 959 2388 959 1747 
Q 959 1106 1268 751 
Q 1578 397 2138 397 
Q 2388 397 2633 464 
Q 2878 531 3122 666 
L 3122 134 
Q 2881 22 2623 -34 
Q 2366 -91 2075 -91 
Q 1284 -91 818 406 
Q 353 903 353 1747 
Q 353 2603 823 3093 
Q 1294 3584 2113 3584 
Q 2378 3584 2631 3529 
Q 2884 3475 3122 3366 
z
" transform="scale(0.015625)"/>
     <path id="DejaVuSans-6d" d="M 3328 2828 
Q 3544 3216 3844 3400 
Q 4144 3584 4550 3584 
Q 5097 3584 5394 3201 
Q 5691 2819 5691 2113 
L 5691 0 
L 5113 0 
L 5113 2094 
Q 5113 2597 4934 2840 
Q 4756 3084 4391 3084 
Q 3944 3084 3684 2787 
Q 3425 2491 3425 1978 
L 3425 0 
L 2847 0 
L 2847 2094 
Q 2847 2600 2669 2842 
Q 2491 3084 2119 3084 
Q 1678 3084 1418 2786 
Q 1159 2488 1159 1978 
L 1159 0 
L 581 0 
L 581 3500 
L 1159 3500 
L 1159 2956 
Q 1356 3278 1631 3431 
Q 1906 3584 2284 3584 
Q 2666 3584 2933 3390 
Q 3200 3197 3328 2828 
z
" transform="scale(0.015625)"/>
     <path id="DejaVuSans-74" d="M 1172 4494 
L 1172 3500 
L 2356 3500 
L 2356 3053 
L 1172 3053 
L 1172 1153 
Q 1172 725 1289 603 
Q 1406 481 1766 481 
L 2356 481 
L 2356 0 
L 1766 0 
Q 1100 0 847 248 
Q 594 497 594 1153 
L 594 3053 
L 172 3053 
L 172 3500 
L 594 3500 
L 594 4494 
L 1172 4494 
z
" transform="scale(0.015625)"/>
     <path id="DejaVuSans-66" d="M 2375 4863 
L 2375 4384 
L 1825 4384 
Q 1516 4384 1395 4259 
Q 1275 4134 1275 3809 
L 1275 3500 
L 2222 3500 
L 2222 3053 
L 1275 3053 
L 1275 0 
L 697 0 
L 697 3053 
L 147 3053 
L 147 3500 
L 697 3500 
L 697 3744 
Q 697 4328 969 4595 
Q 1241 4863 1831 4863 
L 2375 4863 
z
" transform="scale(0.015625)"/>
     <path id="DejaVuSans-28" d="M 1984 4856 
Q 1566 4138 1362 3434 
Q 1159 2731 1159 2009 
Q 1159 1288 1364 580 
Q 1569 -128 1984 -844 
L 1484 -844 
Q 1016 -109 783 600 
Q 550 1309 550 2009 
Q 550 2706 781 3412 
Q 1013 4119 1484 4856 
L 1984 4856 
z
" transform="scale(0.015625)"/>
     <path id="DejaVuSans-4d" d="M 628 4666 
L 1569 4666 
L 2759 1491 
L 3956 4666 
L 4897 4666 
L 4897 0 
L 4281 0 
L 4281 4097 
L 3078 897 
L 2444 897 
L 1241 4097 
L 1241 0 
L 628 0 
L 628 4666 
z
" transform="scale(0.015625)"/>
     <path id="DejaVuSans-75" d="M 544 1381 
L 544 3500 
L 1119 3500 
L 1119 1403 
Q 1119 906 1312 657 
Q 1506 409 1894 409 
Q 2359 409 2629 706 
Q 2900 1003 2900 1516 
L 2900 3500 
L 3475 3500 
L 3475 0 
L 2900 0 
L 2900 538 
Q 2691 219 2414 64 
Q 2138 -91 1772 -91 
Q 1169 -91 856 284 
Q 544 659 544 1381 
z
M 1991 3584 
L 1991 3584 
z
" transform="scale(0.015625)"/>
     <path id="DejaVuSans-76" d="M 191 3500 
L 800 3500 
L 1894 563 
L 2988 3500 
L 3597 3500 
L 2284 0 
L 1503 0 
L 191 3500 
z
" transform="scale(0.015625)"/>
     <path id="DejaVuSans-29" d="M 513 4856 
L 1013 4856 
Q 1481 4119 1714 3412 
Q 1947 2706 1947 2009 
Q 1947 1309 1714 600 
Q 1481 -109 1013 -844 
L 513 -844 
Q 928 -128 1133 580 
Q 1338 1288 1338 2009 
Q 1338 2731 1133 3434 
Q 928 4138 513 4856 
z
" transform="scale(0.015625)"/>
    </defs>
    <use xlink:href="#DejaVuSans-53"/>
    <use xlink:href="#DejaVuSans-65" transform="translate(63.476562 0)"/>
    <use xlink:href="#DejaVuSans-61" transform="translate(125 0)"/>
    <use xlink:href="#DejaVuSans-73" transform="translate(186.279297 0)"/>
    <use xlink:href="#DejaVuSans-6f" transform="translate(238.378906 0)"/>
    <use xlink:href="#DejaVuSans-6e" transform="translate(299.560547 0)"/>
    <use xlink:href="#DejaVuSans-61" transform="translate(362.939453 0)"/>
    <use xlink:href="#DejaVuSans-6c" transform="translate(424.21875 0)"/>
    <use xlink:href="#DejaVuSans-20" transform="translate(452.001953 0)"/>
    <use xlink:href="#DejaVuSans-44" transform="translate(483.789062 0)"/>
    <use xlink:href="#DejaVuSans-65" transform="translate(560.791016 0)"/>
    <use xlink:href="#DejaVuSans-63" transform="translate(622.314453 0)"/>
    <use xlink:href="#DejaVuSans-6f" transform="translate(677.294922 0)"/>
    <use xlink:href="#DejaVuSans-6d" transform="translate(738.476562 0)"/>
    <use xlink:href="#DejaVuSans-70" transform="translate(835.888672 0)"/>
    <use xlink:href="#DejaVuSans-6f" transform="translate(899.365234 0)"/>
    <use xlink:href="#DejaVuSans-73" transform="translate(960.546875 0)"/>
    <use xlink:href="#DejaVuSans-69" transform="translate(1012.646484 0)"/>
    <use xlink:href="#DejaVuSans-74" transform="translate(1040.429688 0)"/>
    <use xlink:href="#DejaVuSans-69" transform="translate(1079.638672 0)"/>
    <use xlink:href="#DejaVuSans-6f" transform="translate(1107.421875 0)"/>
    <use xlink:href="#DejaVuSans-6e" transform="translate(1168.603516 0)"/>
    <use xlink:href="#DejaVuSans-20" transform="translate(1231.982422 0)"/>
    <use xlink:href="#DejaVuSans-6f" transform="translate(1263.769531 0)"/>
    <use xlink:href="#DejaVuSans-66" transform="translate(1324.951172 0)"/>
    <use xlink:href="#DejaVuSans-20" transform="translate(1360.15625 0)"/>
    <use xlink:href="#DejaVuSans-53" transform="translate(1391.943359 0)"/>
    <use xlink:href="#DejaVuSans-70" transform="translate(1455.419922 0)"/>
    <use xlink:href="#DejaVuSans-61" transform="translate(1518.896484 0)"/>
    <use xlink:href="#DejaVuSans-72" transform="translate(1580.175781 0)"/>
    <use xlink:href="#DejaVuSans-6b" transform="translate(1621.289062 0)"/>
    <use xlink:href="#DejaVuSans-6c" transform="translate(1679.199219 0)"/>
    <use xlink:href="#DejaVuSans-69" transform="translate(1706.982422 0)"/>
    <use xlink:href="#DejaVuSans-6e" transform="translate(1734.765625 0)"/>
    <use xlink:href="#DejaVuSans-67" transform="translate(1798.144531 0)"/>
    <use xlink:href="#DejaVuSans-20" transform="translate(1861.621094 0)"/>
    <use xlink:href="#DejaVuSans-53" transform="translate(1893.408203 0)"/>
    <use xlink:href="#DejaVuSans-61" transform="translate(1956.884766 0)"/>
    <use xlink:href="#DejaVuSans-6c" transform="translate(2018.164062 0)"/>
    <use xlink:href="#DejaVuSans-65" transform="translate(2045.947266 0)"/>
    <use xlink:href="#DejaVuSans-73" transform="translate(2107.470703 0)"/>
    <use xlink:href="#DejaVuSans-20" transform="translate(2159.570312 0)"/>
    <use xlink:href="#DejaVuSans-28" transform="translate(2191.357422 0)"/>
    <use xlink:href="#DejaVuSans-4d" transform="translate(2230.371094 0)"/>
    <use xlink:href="#DejaVuSans-75" transform="translate(2316.650391 0)"/>
    <use xlink:href="#DejaVuSans-6c" transform="translate(2380.029297 0)"/>
    <use xlink:href="#DejaVuSans-74" transform="translate(2407.8125 0)"/>
    <use xlink:href="#DejaVuSans-69" transform="translate(2447.021484 0)"/>
    <use xlink:href="#DejaVuSans-70" transform="translate(2474.804688 0)"/>
    <use xlink:href="#DejaVuSans-6c" transform="translate(2538.28125 0)"/>
    <use xlink:href="#DejaVuSans-69" transform="translate(2566.064453 0)"/>
    <use xlink:href="#DejaVuSans-63" transform="translate(2593.847656 0)"/>
    <use xlink:href="#DejaVuSans-61" transform="translate(2648.828125 0)"/>
    <use xlink:href="#DejaVuSans-74" transform="translate(2710.107422 0)"/>
    <use xlink:href="#DejaVuSans-69" transform="translate(2749.316406 0)"/>
    <use xlink:href="#DejaVuSans-76" transform="translate(2777.099609 0)"/>
    <use xlink:href="#DejaVuSans-65" transform="translate(2836.279297 0)"/>
    <use xlink:href="#DejaVuSans-29" transform="translate(2897.802734 0)"/>
   </g>
  </g>
 </g>
 <defs>
  <clipPath id="p41dba789b4">
   <rect x="57.08" y="52.08" width="392.92" height="55.685"/>
  </clipPath>
  <clipPath id="pf427d2ae0c">
   <rect x="57.08" y="122.065" width="392.92" height="55.685"/>
  </clipPath>
  <clipPath id="p626add270f">
   <rect x="57.08" y="192.05" width="392.92" height="55.685"/>
  </clipPath>
  <clipPath id="pf49443642b">
   <rect x="57.08" y="262.035" width="392.92" height="55.685"/>
  </clipPath>
 </defs>
</svg>
