<?xml version="1.0" encoding="utf-8" standalone="no"?>
<!DOCTYPE svg PUBLIC "-//W3C//DTD SVG 1.1//EN"
  "http://www.w3.org/Graphics/SVG/1.1/DTD/svg11.dtd">
<svg xmlns:xlink="http://www.w3.org/1999/xlink" width="460.8pt" height="345.6pt" viewBox="0 0 460.8 345.6" xmlns="http://www.w3.org/2000/svg" version="1.1">
 <metadata>
  <rdf:RDF xmlns:dc="http://purl.org/dc/elements/1.1/" xmlns:cc="http://creativecommons.org/ns#" xmlns:rdf="http://www.w3.org/1999/02/22-rdf-syntax-ns#">
   <cc:Work>
    <dc:type rdf:resource="http://purl.org/dc/dcmitype/StillImage"/>
    <dc:date>2025-01-01T17:01:14.194522</dc:date>
    <dc:format>image/svg+xml</dc:format>
    <dc:creator>
     <cc:Agent>
      <dc:title>Matplotlib v3.10.0, https://matplotlib.org/</dc:title>
     </cc:Agent>
    </dc:creator>
   </cc:Work>
  </rdf:RDF>
 </metadata>
 <defs>
  <style type="text/css">*{stroke-linejoin: round; stroke-linecap: butt}</style>
 </defs>
 <g id="figure_1">
  <g id="patch_1">
   <path d="M 0 345.6 
L 460.8 345.6 
L 460.8 0 
L 0 0 
z
" style="fill: #ffffff"/>
  </g>
  <g id="axes_1">
   <g id="patch_2">
    <path d="M 50.87 107.765 
L 450 107.765 
L 450 52.08 
L 50.87 52.08 
z
" style="fill: #ffffff"/>
   </g>
   <g id="matplotlib.axis_1">
    <g id="xtick_1">
     <g id="line2d_1">
      <defs>
       <path id="maf175f9958" d="M 0 0 
L 0 3.5 
" style="stroke: #000000; stroke-width: 0.8"/>
      </defs>
      <g>
       <use xlink:href="#maf175f9958" x="50.87" y="107.765" style="stroke: #000000; stroke-width: 0.8"/>
      </g>
     </g>
    </g>
    <g id="xtick_2">
     <g id="line2d_2">
      <g>
       <use xlink:href="#maf175f9958" x="104.516505" y="107.765" style="stroke: #000000; stroke-width: 0.8"/>
      </g>
     </g>
    </g>
    <g id="xtick_3">
     <g id="line2d_3">
      <g>
       <use xlink:href="#maf175f9958" x="158.163011" y="107.765" style="stroke: #000000; stroke-width: 0.8"/>
      </g>
     </g>
    </g>
    <g id="xtick_4">
     <g id="line2d_4">
      <g>
       <use xlink:href="#maf175f9958" x="211.809516" y="107.765" style="stroke: #000000; stroke-width: 0.8"/>
      </g>
     </g>
    </g>
    <g id="xtick_5">
     <g id="line2d_5">
      <g>
       <use xlink:href="#maf175f9958" x="265.456022" y="107.765" style="stroke: #000000; stroke-width: 0.8"/>
      </g>
     </g>
    </g>
    <g id="xtick_6">
     <g id="line2d_6">
      <g>
       <use xlink:href="#maf175f9958" x="319.102527" y="107.765" style="stroke: #000000; stroke-width: 0.8"/>
      </g>
     </g>
    </g>
    <g id="xtick_7">
     <g id="line2d_7">
      <g>
       <use xlink:href="#maf175f9958" x="372.749032" y="107.765" style="stroke: #000000; stroke-width: 0.8"/>
      </g>
     </g>
    </g>
    <g id="xtick_8">
     <g id="line2d_8">
      <g>
       <use xlink:href="#maf175f9958" x="426.395538" y="107.765" style="stroke: #000000; stroke-width: 0.8"/>
      </g>
     </g>
    </g>
   </g>
   <g id="matplotlib.axis_2">
    <g id="ytick_1">
     <g id="line2d_9">
      <defs>
       <path id="m7dea929576" d="M 0 0 
L -3.5 0 
" style="stroke: #000000; stroke-width: 0.8"/>
      </defs>
      <g>
       <use xlink:href="#m7dea929576" x="50.87" y="89.983502" style="stroke: #000000; stroke-width: 0.8"/>
      </g>
     </g>
     <g id="text_1">
      <!-- 100 -->
      <g transform="translate(24.7825 93.782721) scale(0.1 -0.1)">
       <defs>
        <path id="DejaVuSans-31" d="M 794 531 
L 1825 531 
L 1825 4091 
L 703 3866 
L 703 4441 
L 1819 4666 
L 2450 4666 
L 2450 531 
L 3481 531 
L 3481 0 
L 794 0 
L 794 531 
z
" transform="scale(0.015625)"/>
        <path id="DejaVuSans-30" d="M 2034 4250 
Q 1547 4250 1301 3770 
Q 1056 3291 1056 2328 
Q 1056 1369 1301 889 
Q 1547 409 2034 409 
Q 2525 409 2770 889 
Q 3016 1369 3016 2328 
Q 3016 3291 2770 3770 
Q 2525 4250 2034 4250 
z
M 2034 4750 
Q 2819 4750 3233 4129 
Q 3647 3509 3647 2328 
Q 3647 1150 3233 529 
Q 2819 -91 2034 -91 
Q 1250 -91 836 529 
Q 422 1150 422 2328 
Q 422 3509 836 4129 
Q 1250 4750 2034 4750 
z
" transform="scale(0.015625)"/>
       </defs>
       <use xlink:href="#DejaVuSans-31"/>
       <use xlink:href="#DejaVuSans-30" transform="translate(63.623047 0)"/>
       <use xlink:href="#DejaVuSans-30" transform="translate(127.246094 0)"/>
      </g>
     </g>
    </g>
    <g id="ytick_2">
     <g id="line2d_10">
      <g>
       <use xlink:href="#m7dea929576" x="50.87" y="68.802445" style="stroke: #000000; stroke-width: 0.8"/>
      </g>
     </g>
     <g id="text_2">
      <!-- 200 -->
      <g transform="translate(24.7825 72.601664) scale(0.1 -0.1)">
       <defs>
        <path id="DejaVuSans-32" d="M 1228 531 
L 3431 531 
L 3431 0 
L 469 0 
L 469 531 
Q 828 903 1448 1529 
Q 2069 2156 2228 2338 
Q 2531 2678 2651 2914 
Q 2772 3150 2772 3378 
Q 2772 3750 2511 3984 
Q 2250 4219 1831 4219 
Q 1534 4219 1204 4116 
Q 875 4013 500 3803 
L 500 4441 
Q 881 4594 1212 4672 
Q 1544 4750 1819 4750 
Q 2544 4750 2975 4387 
Q 3406 4025 3406 3419 
Q 3406 3131 3298 2873 
Q 3191 2616 2906 2266 
Q 2828 2175 2409 1742 
Q 1991 1309 1228 531 
z
" transform="scale(0.015625)"/>
       </defs>
       <use xlink:href="#DejaVuSans-32"/>
       <use xlink:href="#DejaVuSans-30" transform="translate(63.623047 0)"/>
       <use xlink:href="#DejaVuSans-30" transform="translate(127.246094 0)"/>
      </g>
     </g>
    </g>
   </g>
   <g id="line2d_11">
    <path d="M 50.87 87.441775 
L 53.01586 86.170912 
L 55.16172 83.840996 
L 57.307581 90.195313 
L 59.453441 86.594533 
L 61.599301 75.580383 
L 63.745161 86.170912 
L 65.891022 83.840996 
L 68.036882 67.743392 
L 70.182742 80.028405 
L 72.328602 79.392974 
L 74.474462 54.611136 
L 76.620323 84.476427 
L 78.766183 83.840996 
L 80.912043 84.900048 
L 83.057903 90.618934 
L 85.203763 89.559881 
L 87.349624 84.264617 
L 89.495484 64.142612 
L 91.641344 65.837097 
L 93.787204 86.170912 
L 95.933065 81.299269 
L 98.078925 78.545731 
L 100.224785 63.29537 
L 102.370645 92.313419 
L 104.516505 94.855145 
L 106.662366 93.796093 
L 108.808226 90.618934 
L 110.954086 84.264617 
L 113.099946 85.53548 
L 115.245806 86.382723 
L 117.391667 86.382723 
L 119.537527 88.712639 
L 121.683387 87.441775 
L 123.829247 82.781943 
L 125.975108 75.368573 
L 128.120968 95.278767 
L 130.266828 88.289018 
L 132.412688 86.806344 
L 134.558548 93.160661 
L 136.704409 89.771692 
L 138.850269 88.289018 
L 140.996129 88.077207 
L 143.141989 84.900048 
L 145.287849 88.924449 
L 147.43371 91.042555 
L 149.57957 82.570132 
L 151.72543 76.427626 
L 153.87129 92.525229 
L 156.017151 93.160661 
L 158.163011 87.441775 
L 160.308871 92.73704 
L 162.454731 91.889797 
L 164.600591 92.73704 
L 166.746452 92.73704 
L 168.892312 81.087458 
L 171.038172 91.042555 
L 173.184032 88.289018 
L 175.329892 81.72289 
L 177.475753 77.486678 
L 179.621613 98.244115 
L 181.767473 93.796093 
L 183.913333 84.900048 
L 186.059194 91.466176 
L 188.205054 88.289018 
L 190.350914 95.278767 
L 192.496774 92.73704 
L 194.642634 89.348071 
L 196.788495 92.101608 
L 198.934355 88.289018 
L 201.080215 85.111859 
L 203.226075 83.840996 
L 205.371935 99.091357 
L 207.517796 97.396872 
L 209.663656 96.973251 
L 211.809516 96.126009 
L 213.955376 95.066956 
L 216.101237 96.973251 
L 218.247097 87.865397 
L 220.392957 86.170912 
L 222.538817 90.195313 
L 224.684677 93.160661 
L 226.830538 88.500828 
L 228.976398 81.299269 
L 231.122258 98.879546 
L 233.268118 97.396872 
L 235.413978 96.33782 
L 237.559839 92.94885 
L 239.705699 91.466176 
L 241.851559 95.490577 
L 243.997419 92.73704 
L 246.14328 95.702388 
L 248.28914 89.771692 
L 250.435 89.983502 
L 252.58086 90.830745 
L 254.72672 77.9103 
L 256.872581 97.820494 
L 259.018441 86.806344 
L 261.164301 96.33782 
L 263.310161 97.185062 
L 265.456022 96.973251 
L 267.601882 93.584282 
L 269.747742 94.431524 
L 271.893602 94.855145 
L 274.039462 89.559881 
L 276.185323 86.594533 
L 278.331183 89.983502 
L 280.477043 82.570132 
L 282.622903 96.126009 
L 284.768763 98.455925 
L 286.914624 92.313419 
L 289.060484 95.490577 
L 291.206344 95.702388 
L 293.352204 91.889797 
L 295.498065 92.94885 
L 297.643925 95.490577 
L 299.789785 92.73704 
L 301.935645 92.73704 
L 304.081505 88.077207 
L 306.227366 82.146511 
L 308.373226 102.056705 
L 310.519086 96.54963 
L 314.810806 94.855145 
L 316.956667 96.54963 
L 319.102527 95.066956 
L 321.248387 94.643335 
L 323.394247 96.33782 
L 325.540108 93.584282 
L 327.685968 97.396872 
L 329.831828 87.865397 
L 331.977688 83.205564 
L 334.123548 99.726789 
L 336.269409 99.514978 
L 338.415269 97.185062 
L 340.561129 97.396872 
L 342.706989 98.455925 
L 344.852849 97.396872 
L 346.99871 90.830745 
L 349.14457 99.514978 
L 351.29043 96.126009 
L 353.43629 97.820494 
L 355.582151 95.490577 
L 357.728011 88.712639 
L 359.873871 103.963 
L 362.019731 101.209463 
L 364.165591 99.303168 
L 366.311452 99.938599 
L 368.457312 99.938599 
L 370.603172 99.514978 
L 372.749032 96.973251 
L 374.894892 100.15041 
L 377.040753 101.421273 
L 379.186613 100.36222 
L 381.332473 98.879546 
L 383.478333 91.889797 
L 385.624194 104.174811 
L 387.770054 102.692137 
L 389.915914 101.421273 
L 392.061774 101.633084 
L 394.207634 102.480326 
L 396.353495 99.514978 
L 398.499355 99.091357 
L 400.645215 99.726789 
L 402.791075 101.421273 
L 404.936935 100.15041 
L 407.082796 100.997652 
L 409.228656 94.855145 
L 411.374516 104.810242 
L 413.520376 103.75119 
L 415.666237 102.268516 
L 417.812097 100.997652 
L 419.957957 101.844894 
L 422.103817 101.633084 
L 426.395538 101.633084 
L 428.541398 101.421273 
L 430.687258 100.36222 
L 432.833118 97.820494 
L 434.978978 93.372471 
L 437.124839 104.810242 
L 439.270699 102.903947 
L 441.416559 101.633084 
L 443.562419 100.15041 
L 445.70828 105.233864 
L 447.85414 102.692137 
L 450 98.032304 
L 450 98.032304 
" clip-path="url(#p5d5c64b254)" style="fill: none; stroke: #1f77b4; stroke-width: 1.5; stroke-linecap: square"/>
   </g>
   <g id="patch_3">
    <path d="M 50.87 107.765 
L 50.87 52.08 
" style="fill: none; stroke: #000000; stroke-width: 0.8; stroke-linejoin: miter; stroke-linecap: square"/>
   </g>
   <g id="patch_4">
    <path d="M 450 107.765 
L 450 52.08 
" style="fill: none; stroke: #000000; stroke-width: 0.8; stroke-linejoin: miter; stroke-linecap: square"/>
   </g>
   <g id="patch_5">
    <path d="M 50.87 107.765 
L 450 107.765 
" style="fill: none; stroke: #000000; stroke-width: 0.8; stroke-linejoin: miter; stroke-linecap: square"/>
   </g>
   <g id="patch_6">
    <path d="M 50.87 52.08 
L 450 52.08 
" style="fill: none; stroke: #000000; stroke-width: 0.8; stroke-linejoin: miter; stroke-linecap: square"/>
   </g>
   <g id="text_3">
    <!-- Rose -->
    <g transform="translate(236.047188 46.08) scale(0.12 -0.12)">
     <defs>
      <path id="DejaVuSans-52" d="M 2841 2188 
Q 3044 2119 3236 1894 
Q 3428 1669 3622 1275 
L 4263 0 
L 3584 0 
L 2988 1197 
Q 2756 1666 2539 1819 
Q 2322 1972 1947 1972 
L 1259 1972 
L 1259 0 
L 628 0 
L 628 4666 
L 2053 4666 
Q 2853 4666 3247 4331 
Q 3641 3997 3641 3322 
Q 3641 2881 3436 2590 
Q 3231 2300 2841 2188 
z
M 1259 4147 
L 1259 2491 
L 2053 2491 
Q 2509 2491 2742 2702 
Q 2975 2913 2975 3322 
Q 2975 3731 2742 3939 
Q 2509 4147 2053 4147 
L 1259 4147 
z
" transform="scale(0.015625)"/>
      <path id="DejaVuSans-6f" d="M 1959 3097 
Q 1497 3097 1228 2736 
Q 959 2375 959 1747 
Q 959 1119 1226 758 
Q 1494 397 1959 397 
Q 2419 397 2687 759 
Q 2956 1122 2956 1747 
Q 2956 2369 2687 2733 
Q 2419 3097 1959 3097 
z
M 1959 3584 
Q 2709 3584 3137 3096 
Q 3566 2609 3566 1747 
Q 3566 888 3137 398 
Q 2709 -91 1959 -91 
Q 1206 -91 779 398 
Q 353 888 353 1747 
Q 353 2609 779 3096 
Q 1206 3584 1959 3584 
z
" transform="scale(0.015625)"/>
      <path id="DejaVuSans-73" d="M 2834 3397 
L 2834 2853 
Q 2591 2978 2328 3040 
Q 2066 3103 1784 3103 
Q 1356 3103 1142 2972 
Q 928 2841 928 2578 
Q 928 2378 1081 2264 
Q 1234 2150 1697 2047 
L 1894 2003 
Q 2506 1872 2764 1633 
Q 3022 1394 3022 966 
Q 3022 478 2636 193 
Q 2250 -91 1575 -91 
Q 1294 -91 989 -36 
Q 684 19 347 128 
L 347 722 
Q 666 556 975 473 
Q 1284 391 1588 391 
Q 1994 391 2212 530 
Q 2431 669 2431 922 
Q 2431 1156 2273 1281 
Q 2116 1406 1581 1522 
L 1381 1569 
Q 847 1681 609 1914 
Q 372 2147 372 2553 
Q 372 3047 722 3315 
Q 1072 3584 1716 3584 
Q 2034 3584 2315 3537 
Q 2597 3491 2834 3397 
z
" transform="scale(0.015625)"/>
      <path id="DejaVuSans-65" d="M 3597 1894 
L 3597 1613 
L 953 1613 
Q 991 1019 1311 708 
Q 1631 397 2203 397 
Q 2534 397 2845 478 
Q 3156 559 3463 722 
L 3463 178 
Q 3153 47 2828 -22 
Q 2503 -91 2169 -91 
Q 1331 -91 842 396 
Q 353 884 353 1716 
Q 353 2575 817 3079 
Q 1281 3584 2069 3584 
Q 2775 3584 3186 3129 
Q 3597 2675 3597 1894 
z
M 3022 2063 
Q 3016 2534 2758 2815 
Q 2500 3097 2075 3097 
Q 1594 3097 1305 2825 
Q 1016 2553 972 2059 
L 3022 2063 
z
" transform="scale(0.015625)"/>
     </defs>
     <use xlink:href="#DejaVuSans-52"/>
     <use xlink:href="#DejaVuSans-6f" transform="translate(64.982422 0)"/>
     <use xlink:href="#DejaVuSans-73" transform="translate(126.164062 0)"/>
     <use xlink:href="#DejaVuSans-65" transform="translate(178.263672 0)"/>
    </g>
   </g>
  </g>
  <g id="axes_2">
   <g id="patch_7">
    <path d="M 50.87 177.75 
L 450 177.75 
L 450 122.065 
L 50.87 122.065 
z
" style="fill: #ffffff"/>
   </g>
   <g id="matplotlib.axis_3">
    <g id="xtick_9">
     <g id="line2d_12">
      <g>
       <use xlink:href="#maf175f9958" x="50.87" y="177.75" style="stroke: #000000; stroke-width: 0.8"/>
      </g>
     </g>
    </g>
    <g id="xtick_10">
     <g id="line2d_13">
      <g>
       <use xlink:href="#maf175f9958" x="104.516505" y="177.75" style="stroke: #000000; stroke-width: 0.8"/>
      </g>
     </g>
    </g>
    <g id="xtick_11">
     <g id="line2d_14">
      <g>
       <use xlink:href="#maf175f9958" x="158.163011" y="177.75" style="stroke: #000000; stroke-width: 0.8"/>
      </g>
     </g>
    </g>
    <g id="xtick_12">
     <g id="line2d_15">
      <g>
       <use xlink:href="#maf175f9958" x="211.809516" y="177.75" style="stroke: #000000; stroke-width: 0.8"/>
      </g>
     </g>
    </g>
    <g id="xtick_13">
     <g id="line2d_16">
      <g>
       <use xlink:href="#maf175f9958" x="265.456022" y="177.75" style="stroke: #000000; stroke-width: 0.8"/>
      </g>
     </g>
    </g>
    <g id="xtick_14">
     <g id="line2d_17">
      <g>
       <use xlink:href="#maf175f9958" x="319.102527" y="177.75" style="stroke: #000000; stroke-width: 0.8"/>
      </g>
     </g>
    </g>
    <g id="xtick_15">
     <g id="line2d_18">
      <g>
       <use xlink:href="#maf175f9958" x="372.749032" y="177.75" style="stroke: #000000; stroke-width: 0.8"/>
      </g>
     </g>
    </g>
    <g id="xtick_16">
     <g id="line2d_19">
      <g>
       <use xlink:href="#maf175f9958" x="426.395538" y="177.75" style="stroke: #000000; stroke-width: 0.8"/>
      </g>
     </g>
    </g>
   </g>
   <g id="matplotlib.axis_4">
    <g id="ytick_3">
     <g id="line2d_20">
      <g>
       <use xlink:href="#m7dea929576" x="50.87" y="173.539162" style="stroke: #000000; stroke-width: 0.8"/>
      </g>
     </g>
     <g id="text_4">
      <!-- 50 -->
      <g transform="translate(31.145 177.338381) scale(0.1 -0.1)">
       <defs>
        <path id="DejaVuSans-35" d="M 691 4666 
L 3169 4666 
L 3169 4134 
L 1269 4134 
L 1269 2991 
Q 1406 3038 1543 3061 
Q 1681 3084 1819 3084 
Q 2600 3084 3056 2656 
Q 3513 2228 3513 1497 
Q 3513 744 3044 326 
Q 2575 -91 1722 -91 
Q 1428 -91 1123 -41 
Q 819 9 494 109 
L 494 744 
Q 775 591 1075 516 
Q 1375 441 1709 441 
Q 2250 441 2565 725 
Q 2881 1009 2881 1497 
Q 2881 1984 2565 2268 
Q 2250 2553 1709 2553 
Q 1456 2553 1204 2497 
Q 953 2441 691 2322 
L 691 4666 
z
" transform="scale(0.015625)"/>
       </defs>
       <use xlink:href="#DejaVuSans-35"/>
       <use xlink:href="#DejaVuSans-30" transform="translate(63.623047 0)"/>
      </g>
     </g>
    </g>
    <g id="ytick_4">
     <g id="line2d_21">
      <g>
       <use xlink:href="#m7dea929576" x="50.87" y="150.370866" style="stroke: #000000; stroke-width: 0.8"/>
      </g>
     </g>
     <g id="text_5">
      <!-- 100 -->
      <g transform="translate(24.7825 154.170085) scale(0.1 -0.1)">
       <use xlink:href="#DejaVuSans-31"/>
       <use xlink:href="#DejaVuSans-30" transform="translate(63.623047 0)"/>
       <use xlink:href="#DejaVuSans-30" transform="translate(127.246094 0)"/>
      </g>
     </g>
    </g>
    <g id="ytick_5">
     <g id="line2d_22">
      <g>
       <use xlink:href="#m7dea929576" x="50.87" y="127.20257" style="stroke: #000000; stroke-width: 0.8"/>
      </g>
     </g>
     <g id="text_6">
      <!-- 150 -->
      <g transform="translate(24.7825 131.001788) scale(0.1 -0.1)">
       <use xlink:href="#DejaVuSans-31"/>
       <use xlink:href="#DejaVuSans-35" transform="translate(63.623047 0)"/>
       <use xlink:href="#DejaVuSans-30" transform="translate(127.246094 0)"/>
      </g>
     </g>
    </g>
    <g id="text_7">
     <!-- Trend -->
     <g transform="translate(18.702812 163.586406) rotate(-90) scale(0.1 -0.1)">
      <defs>
       <path id="DejaVuSans-54" d="M -19 4666 
L 3928 4666 
L 3928 4134 
L 2272 4134 
L 2272 0 
L 1638 0 
L 1638 4134 
L -19 4134 
L -19 4666 
z
" transform="scale(0.015625)"/>
       <path id="DejaVuSans-72" d="M 2631 2963 
Q 2534 3019 2420 3045 
Q 2306 3072 2169 3072 
Q 1681 3072 1420 2755 
Q 1159 2438 1159 1844 
L 1159 0 
L 581 0 
L 581 3500 
L 1159 3500 
L 1159 2956 
Q 1341 3275 1631 3429 
Q 1922 3584 2338 3584 
Q 2397 3584 2469 3576 
Q 2541 3569 2628 3553 
L 2631 2963 
z
" transform="scale(0.015625)"/>
       <path id="DejaVuSans-6e" d="M 3513 2113 
L 3513 0 
L 2938 0 
L 2938 2094 
Q 2938 2591 2744 2837 
Q 2550 3084 2163 3084 
Q 1697 3084 1428 2787 
Q 1159 2491 1159 1978 
L 1159 0 
L 581 0 
L 581 3500 
L 1159 3500 
L 1159 2956 
Q 1366 3272 1645 3428 
Q 1925 3584 2291 3584 
Q 2894 3584 3203 3211 
Q 3513 2838 3513 2113 
z
" transform="scale(0.015625)"/>
       <path id="DejaVuSans-64" d="M 2906 2969 
L 2906 4863 
L 3481 4863 
L 3481 0 
L 2906 0 
L 2906 525 
Q 2725 213 2448 61 
Q 2172 -91 1784 -91 
Q 1150 -91 751 415 
Q 353 922 353 1747 
Q 353 2572 751 3078 
Q 1150 3584 1784 3584 
Q 2172 3584 2448 3432 
Q 2725 3281 2906 2969 
z
M 947 1747 
Q 947 1113 1208 752 
Q 1469 391 1925 391 
Q 2381 391 2643 752 
Q 2906 1113 2906 1747 
Q 2906 2381 2643 2742 
Q 2381 3103 1925 3103 
Q 1469 3103 1208 2742 
Q 947 2381 947 1747 
z
" transform="scale(0.015625)"/>
      </defs>
      <use xlink:href="#DejaVuSans-54"/>
      <use xlink:href="#DejaVuSans-72" transform="translate(46.333984 0)"/>
      <use xlink:href="#DejaVuSans-65" transform="translate(85.197266 0)"/>
      <use xlink:href="#DejaVuSans-6e" transform="translate(146.720703 0)"/>
      <use xlink:href="#DejaVuSans-64" transform="translate(210.099609 0)"/>
     </g>
    </g>
   </g>
   <g id="line2d_23">
    <path d="M 63.745161 128.554054 
L 65.891022 128.071381 
L 68.036882 127.955539 
L 70.182742 128.090688 
L 72.328602 128.399598 
L 74.474462 129.461479 
L 76.620323 128.245143 
L 78.766183 124.596136 
L 80.912043 124.63475 
L 83.057903 126.430293 
L 85.203763 126.468907 
L 87.349624 127.183263 
L 89.495484 128.689202 
L 93.787204 132.222367 
L 95.933065 133.033258 
L 98.078925 132.550585 
L 100.224785 132.183753 
L 102.370645 134.326821 
L 104.516505 138.226817 
L 106.662366 140.331271 
L 108.808226 141.122854 
L 110.954086 142.068893 
L 115.245806 144.926316 
L 117.391667 144.598099 
L 119.537527 143.362456 
L 121.683387 142.957011 
L 125.975108 144.443643 
L 128.120968 144.849089 
L 130.266828 144.868396 
L 132.412688 144.752554 
L 136.704409 145.408989 
L 138.850269 145.486217 
L 140.996129 145.331761 
L 143.141989 145.524831 
L 145.287849 146.02681 
L 147.43371 146.046117 
L 149.57957 146.200573 
L 151.72543 146.799087 
L 153.87129 147.629284 
L 156.017151 147.706512 
L 164.600591 147.185225 
L 168.892312 148.382254 
L 171.038172 148.208492 
L 175.329892 147.416908 
L 177.475753 147.320374 
L 179.621613 147.552057 
L 183.913333 149.15453 
L 186.059194 149.251065 
L 188.205054 149.559976 
L 190.350914 150.448094 
L 192.496774 151.104529 
L 194.642634 151.509974 
L 198.934355 154.463932 
L 201.080215 155.506505 
L 203.226075 156.278781 
L 205.371935 155.989178 
L 207.517796 155.255515 
L 209.663656 154.792149 
L 211.809516 155.062446 
L 213.955376 155.815416 
L 216.101237 155.892643 
L 218.247097 155.641653 
L 222.538817 155.564426 
L 224.684677 155.216901 
L 226.830538 154.59908 
L 228.976398 154.135714 
L 231.122258 154.444625 
L 233.268118 155.757495 
L 235.413978 156.587692 
L 237.559839 156.259475 
L 241.851559 156.085712 
L 243.997419 155.680267 
L 248.28914 153.653041 
L 250.435 154.039179 
L 252.58086 154.927298 
L 254.72672 155.255515 
L 261.164301 155.216901 
L 265.456022 154.502545 
L 269.747742 155.120367 
L 271.893602 156.027792 
L 274.039462 156.72284 
L 276.185323 156.201554 
L 282.622903 155.371357 
L 284.768763 155.294129 
L 286.914624 155.641653 
L 289.060484 156.491158 
L 291.206344 156.877296 
L 293.352204 156.66492 
L 295.498065 157.166899 
L 297.643925 157.533731 
L 299.789785 157.668879 
L 301.935645 157.919869 
L 304.081505 157.939176 
L 310.519086 158.981749 
L 312.664946 159.136205 
L 316.956667 160.04363 
L 319.102527 160.120857 
L 321.248387 160.005016 
L 323.394247 160.062937 
L 331.977688 161.626797 
L 336.269409 161.433727 
L 338.415269 161.955014 
L 340.561129 162.225311 
L 342.706989 162.958974 
L 344.852849 164.156002 
L 346.99871 165.04412 
L 349.14457 165.584714 
L 357.728011 167.052039 
L 359.873871 167.805009 
L 370.603172 170.816887 
L 372.749032 171.125798 
L 374.894892 171.280253 
L 383.478333 172.573816 
L 387.770054 172.921341 
L 392.061774 172.86342 
L 394.207634 173.037182 
L 396.353495 173.500548 
L 398.499355 173.828766 
L 402.791075 174.156983 
L 404.936935 174.17629 
L 407.082796 174.060449 
L 409.228656 174.195597 
L 413.520376 175.025795 
L 415.666237 175.199557 
L 417.812097 175.218864 
L 419.957957 174.948567 
L 422.103817 174.523815 
L 430.687258 174.041142 
L 432.833118 174.272825 
L 434.978978 174.67827 
L 437.124839 174.446587 
L 437.124839 174.446587 
" clip-path="url(#p7a85d3c5bc)" style="fill: none; stroke: #1f77b4; stroke-width: 1.5; stroke-linecap: square"/>
   </g>
   <g id="patch_8">
    <path d="M 50.87 177.75 
L 50.87 122.065 
" style="fill: none; stroke: #000000; stroke-width: 0.8; stroke-linejoin: miter; stroke-linecap: square"/>
   </g>
   <g id="patch_9">
    <path d="M 450 177.75 
L 450 122.065 
" style="fill: none; stroke: #000000; stroke-width: 0.8; stroke-linejoin: miter; stroke-linecap: square"/>
   </g>
   <g id="patch_10">
    <path d="M 50.87 177.75 
L 450 177.75 
" style="fill: none; stroke: #000000; stroke-width: 0.8; stroke-linejoin: miter; stroke-linecap: square"/>
   </g>
   <g id="patch_11">
    <path d="M 50.87 122.065 
L 450 122.065 
" style="fill: none; stroke: #000000; stroke-width: 0.8; stroke-linejoin: miter; stroke-linecap: square"/>
   </g>
  </g>
  <g id="axes_3">
   <g id="patch_12">
    <path d="M 50.87 247.735 
L 450 247.735 
L 450 192.05 
L 50.87 192.05 
z
" style="fill: #ffffff"/>
   </g>
   <g id="matplotlib.axis_5">
    <g id="xtick_17">
     <g id="line2d_24">
      <g>
       <use xlink:href="#maf175f9958" x="50.87" y="247.735" style="stroke: #000000; stroke-width: 0.8"/>
      </g>
     </g>
    </g>
    <g id="xtick_18">
     <g id="line2d_25">
      <g>
       <use xlink:href="#maf175f9958" x="104.516505" y="247.735" style="stroke: #000000; stroke-width: 0.8"/>
      </g>
     </g>
    </g>
    <g id="xtick_19">
     <g id="line2d_26">
      <g>
       <use xlink:href="#maf175f9958" x="158.163011" y="247.735" style="stroke: #000000; stroke-width: 0.8"/>
      </g>
     </g>
    </g>
    <g id="xtick_20">
     <g id="line2d_27">
      <g>
       <use xlink:href="#maf175f9958" x="211.809516" y="247.735" style="stroke: #000000; stroke-width: 0.8"/>
      </g>
     </g>
    </g>
    <g id="xtick_21">
     <g id="line2d_28">
      <g>
       <use xlink:href="#maf175f9958" x="265.456022" y="247.735" style="stroke: #000000; stroke-width: 0.8"/>
      </g>
     </g>
    </g>
    <g id="xtick_22">
     <g id="line2d_29">
      <g>
       <use xlink:href="#maf175f9958" x="319.102527" y="247.735" style="stroke: #000000; stroke-width: 0.8"/>
      </g>
     </g>
    </g>
    <g id="xtick_23">
     <g id="line2d_30">
      <g>
       <use xlink:href="#maf175f9958" x="372.749032" y="247.735" style="stroke: #000000; stroke-width: 0.8"/>
      </g>
     </g>
    </g>
    <g id="xtick_24">
     <g id="line2d_31">
      <g>
       <use xlink:href="#maf175f9958" x="426.395538" y="247.735" style="stroke: #000000; stroke-width: 0.8"/>
      </g>
     </g>
    </g>
   </g>
   <g id="matplotlib.axis_6">
    <g id="ytick_6">
     <g id="line2d_32">
      <g>
       <use xlink:href="#m7dea929576" x="50.87" y="227.787681" style="stroke: #000000; stroke-width: 0.8"/>
      </g>
     </g>
     <g id="text_8">
      <!-- 1.0 -->
      <g transform="translate(27.966875 231.5869) scale(0.1 -0.1)">
       <defs>
        <path id="DejaVuSans-2e" d="M 684 794 
L 1344 794 
L 1344 0 
L 684 0 
L 684 794 
z
" transform="scale(0.015625)"/>
       </defs>
       <use xlink:href="#DejaVuSans-31"/>
       <use xlink:href="#DejaVuSans-2e" transform="translate(63.623047 0)"/>
       <use xlink:href="#DejaVuSans-30" transform="translate(95.410156 0)"/>
      </g>
     </g>
    </g>
    <g id="ytick_7">
     <g id="line2d_33">
      <g>
       <use xlink:href="#m7dea929576" x="50.87" y="201.384982" style="stroke: #000000; stroke-width: 0.8"/>
      </g>
     </g>
     <g id="text_9">
      <!-- 1.5 -->
      <g transform="translate(27.966875 205.184201) scale(0.1 -0.1)">
       <use xlink:href="#DejaVuSans-31"/>
       <use xlink:href="#DejaVuSans-2e" transform="translate(63.623047 0)"/>
       <use xlink:href="#DejaVuSans-35" transform="translate(95.410156 0)"/>
      </g>
     </g>
    </g>
    <g id="text_10">
     <!-- Seasonal -->
     <g transform="translate(21.887187 242.493281) rotate(-90) scale(0.1 -0.1)">
      <defs>
       <path id="DejaVuSans-53" d="M 3425 4513 
L 3425 3897 
Q 3066 4069 2747 4153 
Q 2428 4238 2131 4238 
Q 1616 4238 1336 4038 
Q 1056 3838 1056 3469 
Q 1056 3159 1242 3001 
Q 1428 2844 1947 2747 
L 2328 2669 
Q 3034 2534 3370 2195 
Q 3706 1856 3706 1288 
Q 3706 609 3251 259 
Q 2797 -91 1919 -91 
Q 1588 -91 1214 -16 
Q 841 59 441 206 
L 441 856 
Q 825 641 1194 531 
Q 1563 422 1919 422 
Q 2459 422 2753 634 
Q 3047 847 3047 1241 
Q 3047 1584 2836 1778 
Q 2625 1972 2144 2069 
L 1759 2144 
Q 1053 2284 737 2584 
Q 422 2884 422 3419 
Q 422 4038 858 4394 
Q 1294 4750 2059 4750 
Q 2388 4750 2728 4690 
Q 3069 4631 3425 4513 
z
" transform="scale(0.015625)"/>
       <path id="DejaVuSans-61" d="M 2194 1759 
Q 1497 1759 1228 1600 
Q 959 1441 959 1056 
Q 959 750 1161 570 
Q 1363 391 1709 391 
Q 2188 391 2477 730 
Q 2766 1069 2766 1631 
L 2766 1759 
L 2194 1759 
z
M 3341 1997 
L 3341 0 
L 2766 0 
L 2766 531 
Q 2569 213 2275 61 
Q 1981 -91 1556 -91 
Q 1019 -91 701 211 
Q 384 513 384 1019 
Q 384 1609 779 1909 
Q 1175 2209 1959 2209 
L 2766 2209 
L 2766 2266 
Q 2766 2663 2505 2880 
Q 2244 3097 1772 3097 
Q 1472 3097 1187 3025 
Q 903 2953 641 2809 
L 641 3341 
Q 956 3463 1253 3523 
Q 1550 3584 1831 3584 
Q 2591 3584 2966 3190 
Q 3341 2797 3341 1997 
z
" transform="scale(0.015625)"/>
       <path id="DejaVuSans-6c" d="M 603 4863 
L 1178 4863 
L 1178 0 
L 603 0 
L 603 4863 
z
" transform="scale(0.015625)"/>
      </defs>
      <use xlink:href="#DejaVuSans-53"/>
      <use xlink:href="#DejaVuSans-65" transform="translate(63.476562 0)"/>
      <use xlink:href="#DejaVuSans-61" transform="translate(125 0)"/>
      <use xlink:href="#DejaVuSans-73" transform="translate(186.279297 0)"/>
      <use xlink:href="#DejaVuSans-6f" transform="translate(238.378906 0)"/>
      <use xlink:href="#DejaVuSans-6e" transform="translate(299.560547 0)"/>
      <use xlink:href="#DejaVuSans-61" transform="translate(362.939453 0)"/>
      <use xlink:href="#DejaVuSans-6c" transform="translate(424.21875 0)"/>
     </g>
    </g>
   </g>
   <g id="line2d_34">
    <path d="M 50.87 245.203864 
L 53.01586 238.020079 
L 55.16172 233.000759 
L 57.307581 235.489117 
L 61.599301 231.795644 
L 63.745161 224.741774 
L 65.891022 225.935986 
L 68.036882 226.850221 
L 70.182742 226.589609 
L 72.328602 217.622956 
L 74.474462 194.581136 
L 76.620323 245.203864 
L 78.766183 238.020079 
L 80.912043 233.000759 
L 83.057903 235.489117 
L 87.349624 231.795644 
L 89.495484 224.741774 
L 91.641344 225.935986 
L 93.787204 226.850221 
L 95.933065 226.589609 
L 98.078925 217.622956 
L 100.224785 194.581136 
L 102.370645 245.203864 
L 104.516505 238.020079 
L 106.662366 233.000759 
L 108.808226 235.489117 
L 113.099946 231.795644 
L 115.245806 224.741774 
L 117.391667 225.935986 
L 119.537527 226.850221 
L 121.683387 226.589609 
L 123.829247 217.622956 
L 125.975108 194.581136 
L 128.120968 245.203864 
L 130.266828 238.020079 
L 132.412688 233.000759 
L 134.558548 235.489117 
L 138.850269 231.795644 
L 140.996129 224.741774 
L 143.141989 225.935986 
L 145.287849 226.850221 
L 147.43371 226.589609 
L 149.57957 217.622956 
L 151.72543 194.581136 
L 153.87129 245.203864 
L 156.017151 238.020079 
L 158.163011 233.000759 
L 160.308871 235.489117 
L 164.600591 231.795644 
L 166.746452 224.741774 
L 168.892312 225.935986 
L 171.038172 226.850221 
L 173.184032 226.589609 
L 175.329892 217.622956 
L 177.475753 194.581136 
L 179.621613 245.203864 
L 181.767473 238.020079 
L 183.913333 233.000759 
L 186.059194 235.489117 
L 190.350914 231.795644 
L 192.496774 224.741774 
L 194.642634 225.935986 
L 196.788495 226.850221 
L 198.934355 226.589609 
L 201.080215 217.622956 
L 203.226075 194.581136 
L 205.371935 245.203864 
L 207.517796 238.020079 
L 209.663656 233.000759 
L 211.809516 235.489117 
L 216.101237 231.795644 
L 218.247097 224.741774 
L 220.392957 225.935986 
L 222.538817 226.850221 
L 224.684677 226.589609 
L 226.830538 217.622956 
L 228.976398 194.581136 
L 231.122258 245.203864 
L 233.268118 238.020079 
L 235.413978 233.000759 
L 237.559839 235.489117 
L 241.851559 231.795644 
L 243.997419 224.741774 
L 246.14328 225.935986 
L 248.28914 226.850221 
L 250.435 226.589609 
L 252.58086 217.622956 
L 254.72672 194.581136 
L 256.872581 245.203864 
L 259.018441 238.020079 
L 261.164301 233.000759 
L 263.310161 235.489117 
L 267.601882 231.795644 
L 269.747742 224.741774 
L 271.893602 225.935986 
L 274.039462 226.850221 
L 276.185323 226.589609 
L 278.331183 217.622956 
L 280.477043 194.581136 
L 282.622903 245.203864 
L 284.768763 238.020079 
L 286.914624 233.000759 
L 289.060484 235.489117 
L 293.352204 231.795644 
L 295.498065 224.741774 
L 297.643925 225.935986 
L 299.789785 226.850221 
L 301.935645 226.589609 
L 304.081505 217.622956 
L 306.227366 194.581136 
L 308.373226 245.203864 
L 310.519086 238.020079 
L 312.664946 233.000759 
L 314.810806 235.489117 
L 319.102527 231.795644 
L 321.248387 224.741774 
L 323.394247 225.935986 
L 325.540108 226.850221 
L 327.685968 226.589609 
L 329.831828 217.622956 
L 331.977688 194.581136 
L 334.123548 245.203864 
L 336.269409 238.020079 
L 338.415269 233.000759 
L 340.561129 235.489117 
L 344.852849 231.795644 
L 346.99871 224.741774 
L 349.14457 225.935986 
L 351.29043 226.850221 
L 353.43629 226.589609 
L 355.582151 217.622956 
L 357.728011 194.581136 
L 359.873871 245.203864 
L 362.019731 238.020079 
L 364.165591 233.000759 
L 366.311452 235.489117 
L 370.603172 231.795644 
L 372.749032 224.741774 
L 374.894892 225.935986 
L 377.040753 226.850221 
L 379.186613 226.589609 
L 381.332473 217.622956 
L 383.478333 194.581136 
L 385.624194 245.203864 
L 387.770054 238.020079 
L 389.915914 233.000759 
L 392.061774 235.489117 
L 396.353495 231.795644 
L 398.499355 224.741774 
L 400.645215 225.935986 
L 402.791075 226.850221 
L 404.936935 226.589609 
L 407.082796 217.622956 
L 409.228656 194.581136 
L 411.374516 245.203864 
L 413.520376 238.020079 
L 415.666237 233.000759 
L 417.812097 235.489117 
L 422.103817 231.795644 
L 424.249677 224.741774 
L 426.395538 225.935986 
L 428.541398 226.850221 
L 430.687258 226.589609 
L 432.833118 217.622956 
L 434.978978 194.581136 
L 437.124839 245.203864 
L 439.270699 238.020079 
L 441.416559 233.000759 
L 443.562419 235.489117 
L 447.85414 231.795644 
L 450 224.741774 
L 450 224.741774 
" clip-path="url(#p185cc322d4)" style="fill: none; stroke: #1f77b4; stroke-width: 1.5; stroke-linecap: square"/>
   </g>
   <g id="patch_13">
    <path d="M 50.87 247.735 
L 50.87 192.05 
" style="fill: none; stroke: #000000; stroke-width: 0.8; stroke-linejoin: miter; stroke-linecap: square"/>
   </g>
   <g id="patch_14">
    <path d="M 450 247.735 
L 450 192.05 
" style="fill: none; stroke: #000000; stroke-width: 0.8; stroke-linejoin: miter; stroke-linecap: square"/>
   </g>
   <g id="patch_15">
    <path d="M 50.87 247.735 
L 450 247.735 
" style="fill: none; stroke: #000000; stroke-width: 0.8; stroke-linejoin: miter; stroke-linecap: square"/>
   </g>
   <g id="patch_16">
    <path d="M 50.87 192.05 
L 450 192.05 
" style="fill: none; stroke: #000000; stroke-width: 0.8; stroke-linejoin: miter; stroke-linecap: square"/>
   </g>
  </g>
  <g id="axes_4">
   <g id="patch_17">
    <path d="M 50.87 317.72 
L 450 317.72 
L 450 262.035 
L 50.87 262.035 
z
" style="fill: #ffffff"/>
   </g>
   <g id="line2d_35">
    <path d="M 50.87 315.188864 
L 450 315.188864 
" clip-path="url(#p7ed069ac33)" style="fill: none; stroke: #000000; stroke-width: 1.5; stroke-linecap: square"/>
   </g>
   <g id="matplotlib.axis_7">
    <g id="xtick_25">
     <g id="line2d_36">
      <g>
       <use xlink:href="#maf175f9958" x="50.87" y="317.72" style="stroke: #000000; stroke-width: 0.8"/>
      </g>
     </g>
     <g id="text_11">
      <!-- 0 -->
      <g transform="translate(47.68875 332.318437) scale(0.1 -0.1)">
       <use xlink:href="#DejaVuSans-30"/>
      </g>
     </g>
    </g>
    <g id="xtick_26">
     <g id="line2d_37">
      <g>
       <use xlink:href="#maf175f9958" x="104.516505" y="317.72" style="stroke: #000000; stroke-width: 0.8"/>
      </g>
     </g>
     <g id="text_12">
      <!-- 25 -->
      <g transform="translate(98.154005 332.318437) scale(0.1 -0.1)">
       <use xlink:href="#DejaVuSans-32"/>
       <use xlink:href="#DejaVuSans-35" transform="translate(63.623047 0)"/>
      </g>
     </g>
    </g>
    <g id="xtick_27">
     <g id="line2d_38">
      <g>
       <use xlink:href="#maf175f9958" x="158.163011" y="317.72" style="stroke: #000000; stroke-width: 0.8"/>
      </g>
     </g>
     <g id="text_13">
      <!-- 50 -->
      <g transform="translate(151.800511 332.318437) scale(0.1 -0.1)">
       <use xlink:href="#DejaVuSans-35"/>
       <use xlink:href="#DejaVuSans-30" transform="translate(63.623047 0)"/>
      </g>
     </g>
    </g>
    <g id="xtick_28">
     <g id="line2d_39">
      <g>
       <use xlink:href="#maf175f9958" x="211.809516" y="317.72" style="stroke: #000000; stroke-width: 0.8"/>
      </g>
     </g>
     <g id="text_14">
      <!-- 75 -->
      <g transform="translate(205.447016 332.318437) scale(0.1 -0.1)">
       <defs>
        <path id="DejaVuSans-37" d="M 525 4666 
L 3525 4666 
L 3525 4397 
L 1831 0 
L 1172 0 
L 2766 4134 
L 525 4134 
L 525 4666 
z
" transform="scale(0.015625)"/>
       </defs>
       <use xlink:href="#DejaVuSans-37"/>
       <use xlink:href="#DejaVuSans-35" transform="translate(63.623047 0)"/>
      </g>
     </g>
    </g>
    <g id="xtick_29">
     <g id="line2d_40">
      <g>
       <use xlink:href="#maf175f9958" x="265.456022" y="317.72" style="stroke: #000000; stroke-width: 0.8"/>
      </g>
     </g>
     <g id="text_15">
      <!-- 100 -->
      <g transform="translate(255.912272 332.318437) scale(0.1 -0.1)">
       <use xlink:href="#DejaVuSans-31"/>
       <use xlink:href="#DejaVuSans-30" transform="translate(63.623047 0)"/>
       <use xlink:href="#DejaVuSans-30" transform="translate(127.246094 0)"/>
      </g>
     </g>
    </g>
    <g id="xtick_30">
     <g id="line2d_41">
      <g>
       <use xlink:href="#maf175f9958" x="319.102527" y="317.72" style="stroke: #000000; stroke-width: 0.8"/>
      </g>
     </g>
     <g id="text_16">
      <!-- 125 -->
      <g transform="translate(309.558777 332.318437) scale(0.1 -0.1)">
       <use xlink:href="#DejaVuSans-31"/>
       <use xlink:href="#DejaVuSans-32" transform="translate(63.623047 0)"/>
       <use xlink:href="#DejaVuSans-35" transform="translate(127.246094 0)"/>
      </g>
     </g>
    </g>
    <g id="xtick_31">
     <g id="line2d_42">
      <g>
       <use xlink:href="#maf175f9958" x="372.749032" y="317.72" style="stroke: #000000; stroke-width: 0.8"/>
      </g>
     </g>
     <g id="text_17">
      <!-- 150 -->
      <g transform="translate(363.205282 332.318437) scale(0.1 -0.1)">
       <use xlink:href="#DejaVuSans-31"/>
       <use xlink:href="#DejaVuSans-35" transform="translate(63.623047 0)"/>
       <use xlink:href="#DejaVuSans-30" transform="translate(127.246094 0)"/>
      </g>
     </g>
    </g>
    <g id="xtick_32">
     <g id="line2d_43">
      <g>
       <use xlink:href="#maf175f9958" x="426.395538" y="317.72" style="stroke: #000000; stroke-width: 0.8"/>
      </g>
     </g>
     <g id="text_18">
      <!-- 175 -->
      <g transform="translate(416.851788 332.318437) scale(0.1 -0.1)">
       <use xlink:href="#DejaVuSans-31"/>
       <use xlink:href="#DejaVuSans-37" transform="translate(63.623047 0)"/>
       <use xlink:href="#DejaVuSans-35" transform="translate(127.246094 0)"/>
      </g>
     </g>
    </g>
   </g>
   <g id="matplotlib.axis_8">
    <g id="ytick_8">
     <g id="line2d_44">
      <g>
       <use xlink:href="#m7dea929576" x="50.87" y="315.188864" style="stroke: #000000; stroke-width: 0.8"/>
      </g>
     </g>
     <g id="text_19">
      <!-- 0 -->
      <g transform="translate(37.5075 318.988082) scale(0.1 -0.1)">
       <use xlink:href="#DejaVuSans-30"/>
      </g>
     </g>
    </g>
    <g id="ytick_9">
     <g id="line2d_45">
      <g>
       <use xlink:href="#m7dea929576" x="50.87" y="283.484636" style="stroke: #000000; stroke-width: 0.8"/>
      </g>
     </g>
     <g id="text_20">
      <!-- 1 -->
      <g transform="translate(37.5075 287.283855) scale(0.1 -0.1)">
       <use xlink:href="#DejaVuSans-31"/>
      </g>
     </g>
    </g>
    <g id="text_21">
     <!-- Resid -->
     <g transform="translate(31.427812 303.37125) rotate(-90) scale(0.1 -0.1)">
      <defs>
       <path id="DejaVuSans-69" d="M 603 3500 
L 1178 3500 
L 1178 0 
L 603 0 
L 603 3500 
z
M 603 4863 
L 1178 4863 
L 1178 4134 
L 603 4134 
L 603 4863 
z
" transform="scale(0.015625)"/>
      </defs>
      <use xlink:href="#DejaVuSans-52"/>
      <use xlink:href="#DejaVuSans-65" transform="translate(64.982422 0)"/>
      <use xlink:href="#DejaVuSans-73" transform="translate(126.505859 0)"/>
      <use xlink:href="#DejaVuSans-69" transform="translate(178.605469 0)"/>
      <use xlink:href="#DejaVuSans-64" transform="translate(206.388672 0)"/>
     </g>
    </g>
   </g>
   <g id="line2d_46">
    <defs>
     <path id="m5d97896254" d="M 0 3 
C 0.795609 3 1.55874 2.683901 2.12132 2.12132 
C 2.683901 1.55874 3 0.795609 3 0 
C 3 -0.795609 2.683901 -1.55874 2.12132 -2.12132 
C 1.55874 -2.683901 0.795609 -3 0 -3 
C -0.795609 -3 -1.55874 -2.683901 -2.12132 -2.12132 
C -2.683901 -1.55874 -3 -0.795609 -3 0 
C -3 0.795609 -2.683901 1.55874 -2.12132 2.12132 
C -1.55874 2.683901 -0.795609 3 0 3 
z
" style="stroke: #1f77b4"/>
    </defs>
    <g clip-path="url(#p7ed069ac33)">
     <use xlink:href="#m5d97896254" x="63.745161" y="291.140767" style="fill: #1f77b4; stroke: #1f77b4"/>
     <use xlink:href="#m5d97896254" x="65.891022" y="288.513502" style="fill: #1f77b4; stroke: #1f77b4"/>
     <use xlink:href="#m5d97896254" x="68.036882" y="272.1493" style="fill: #1f77b4; stroke: #1f77b4"/>
     <use xlink:href="#m5d97896254" x="70.182742" y="284.414791" style="fill: #1f77b4; stroke: #1f77b4"/>
     <use xlink:href="#m5d97896254" x="72.328602" y="288.136474" style="fill: #1f77b4; stroke: #1f77b4"/>
     <use xlink:href="#m5d97896254" x="74.474462" y="279.378744" style="fill: #1f77b4; stroke: #1f77b4"/>
     <use xlink:href="#m5d97896254" x="76.620323" y="274.845917" style="fill: #1f77b4; stroke: #1f77b4"/>
     <use xlink:href="#m5d97896254" x="78.766183" y="282.592318" style="fill: #1f77b4; stroke: #1f77b4"/>
     <use xlink:href="#m5d97896254" x="80.912043" y="287.145277" style="fill: #1f77b4; stroke: #1f77b4"/>
     <use xlink:href="#m5d97896254" x="83.057903" y="291.449865" style="fill: #1f77b4; stroke: #1f77b4"/>
     <use xlink:href="#m5d97896254" x="85.203763" y="291.205797" style="fill: #1f77b4; stroke: #1f77b4"/>
     <use xlink:href="#m5d97896254" x="87.349624" y="286.149283" style="fill: #1f77b4; stroke: #1f77b4"/>
     <use xlink:href="#m5d97896254" x="89.495484" y="269.855939" style="fill: #1f77b4; stroke: #1f77b4"/>
     <use xlink:href="#m5d97896254" x="91.641344" y="269.37745" style="fill: #1f77b4; stroke: #1f77b4"/>
     <use xlink:href="#m5d97896254" x="93.787204" y="288.775633" style="fill: #1f77b4; stroke: #1f77b4"/>
     <use xlink:href="#m5d97896254" x="95.933065" y="283.379606" style="fill: #1f77b4; stroke: #1f77b4"/>
     <use xlink:href="#m5d97896254" x="98.078925" y="285.618097" style="fill: #1f77b4; stroke: #1f77b4"/>
     <use xlink:href="#m5d97896254" x="100.224785" y="283.598838" style="fill: #1f77b4; stroke: #1f77b4"/>
     <use xlink:href="#m5d97896254" x="102.370645" y="283.914473" style="fill: #1f77b4; stroke: #1f77b4"/>
     <use xlink:href="#m5d97896254" x="104.516505" y="291.197003" style="fill: #1f77b4; stroke: #1f77b4"/>
     <use xlink:href="#m5d97896254" x="106.662366" y="291.480539" style="fill: #1f77b4; stroke: #1f77b4"/>
     <use xlink:href="#m5d97896254" x="108.808226" y="285.174985" style="fill: #1f77b4; stroke: #1f77b4"/>
     <use xlink:href="#m5d97896254" x="110.954086" y="276.801832" style="fill: #1f77b4; stroke: #1f77b4"/>
     <use xlink:href="#m5d97896254" x="113.099946" y="278.998837" style="fill: #1f77b4; stroke: #1f77b4"/>
     <use xlink:href="#m5d97896254" x="115.245806" y="283.805427" style="fill: #1f77b4; stroke: #1f77b4"/>
     <use xlink:href="#m5d97896254" x="117.391667" y="283.321716" style="fill: #1f77b4; stroke: #1f77b4"/>
     <use xlink:href="#m5d97896254" x="119.537527" y="286.506763" style="fill: #1f77b4; stroke: #1f77b4"/>
     <use xlink:href="#m5d97896254" x="121.683387" y="285.256993" style="fill: #1f77b4; stroke: #1f77b4"/>
     <use xlink:href="#m5d97896254" x="123.829247" y="284.051885" style="fill: #1f77b4; stroke: #1f77b4"/>
     <use xlink:href="#m5d97896254" x="125.975108" y="286.024908" style="fill: #1f77b4; stroke: #1f77b4"/>
     <use xlink:href="#m5d97896254" x="128.120968" y="283.486543" style="fill: #1f77b4; stroke: #1f77b4"/>
     <use xlink:href="#m5d97896254" x="130.266828" y="277.226614" style="fill: #1f77b4; stroke: #1f77b4"/>
     <use xlink:href="#m5d97896254" x="132.412688" y="279.109904" style="fill: #1f77b4; stroke: #1f77b4"/>
     <use xlink:href="#m5d97896254" x="134.558548" y="286.861118" style="fill: #1f77b4; stroke: #1f77b4"/>
     <use xlink:href="#m5d97896254" x="136.704409" y="282.672868" style="fill: #1f77b4; stroke: #1f77b4"/>
     <use xlink:href="#m5d97896254" x="138.850269" y="281.669462" style="fill: #1f77b4; stroke: #1f77b4"/>
     <use xlink:href="#m5d97896254" x="140.996129" y="285.720567" style="fill: #1f77b4; stroke: #1f77b4"/>
     <use xlink:href="#m5d97896254" x="143.141989" y="280.803615" style="fill: #1f77b4; stroke: #1f77b4"/>
     <use xlink:href="#m5d97896254" x="145.287849" y="285.283715" style="fill: #1f77b4; stroke: #1f77b4"/>
     <use xlink:href="#m5d97896254" x="147.43371" y="288.252135" style="fill: #1f77b4; stroke: #1f77b4"/>
     <use xlink:href="#m5d97896254" x="149.57957" y="282.260646" style="fill: #1f77b4; stroke: #1f77b4"/>
     <use xlink:href="#m5d97896254" x="151.72543" y="285.552065" style="fill: #1f77b4; stroke: #1f77b4"/>
     <use xlink:href="#m5d97896254" x="153.87129" y="275.884304" style="fill: #1f77b4; stroke: #1f77b4"/>
     <use xlink:href="#m5d97896254" x="156.017151" y="283.580662" style="fill: #1f77b4; stroke: #1f77b4"/>
     <use xlink:href="#m5d97896254" x="158.163011" y="278.049925" style="fill: #1f77b4; stroke: #1f77b4"/>
     <use xlink:href="#m5d97896254" x="160.308871" y="284.784111" style="fill: #1f77b4; stroke: #1f77b4"/>
     <use xlink:href="#m5d97896254" x="162.454731" y="284.853306" style="fill: #1f77b4; stroke: #1f77b4"/>
     <use xlink:href="#m5d97896254" x="164.600591" y="287.260748" style="fill: #1f77b4; stroke: #1f77b4"/>
     <use xlink:href="#m5d97896254" x="166.746452" y="290.479733" style="fill: #1f77b4; stroke: #1f77b4"/>
     <use xlink:href="#m5d97896254" x="168.892312" y="273.483904" style="fill: #1f77b4; stroke: #1f77b4"/>
     <use xlink:href="#m5d97896254" x="171.038172" y="286.914688" style="fill: #1f77b4; stroke: #1f77b4"/>
     <use xlink:href="#m5d97896254" x="173.184032" y="283.428292" style="fill: #1f77b4; stroke: #1f77b4"/>
     <use xlink:href="#m5d97896254" x="175.329892" y="280.448354" style="fill: #1f77b4; stroke: #1f77b4"/>
     <use xlink:href="#m5d97896254" x="177.475753" y="286.152343" style="fill: #1f77b4; stroke: #1f77b4"/>
     <use xlink:href="#m5d97896254" x="179.621613" y="287.986463" style="fill: #1f77b4; stroke: #1f77b4"/>
     <use xlink:href="#m5d97896254" x="181.767473" y="284.319193" style="fill: #1f77b4; stroke: #1f77b4"/>
     <use xlink:href="#m5d97896254" x="183.913333" y="272.685125" style="fill: #1f77b4; stroke: #1f77b4"/>
     <use xlink:href="#m5d97896254" x="186.059194" y="281.483958" style="fill: #1f77b4; stroke: #1f77b4"/>
     <use xlink:href="#m5d97896254" x="188.205054" y="277.35808" style="fill: #1f77b4; stroke: #1f77b4"/>
     <use xlink:href="#m5d97896254" x="190.350914" y="289.414723" style="fill: #1f77b4; stroke: #1f77b4"/>
     <use xlink:href="#m5d97896254" x="192.496774" y="288.690884" style="fill: #1f77b4; stroke: #1f77b4"/>
     <use xlink:href="#m5d97896254" x="194.642634" y="282.844693" style="fill: #1f77b4; stroke: #1f77b4"/>
     <use xlink:href="#m5d97896254" x="196.788495" y="285.50797" style="fill: #1f77b4; stroke: #1f77b4"/>
     <use xlink:href="#m5d97896254" x="198.934355" y="278.463889" style="fill: #1f77b4; stroke: #1f77b4"/>
     <use xlink:href="#m5d97896254" x="201.080215" y="278.411305" style="fill: #1f77b4; stroke: #1f77b4"/>
     <use xlink:href="#m5d97896254" x="203.226075" y="286.410837" style="fill: #1f77b4; stroke: #1f77b4"/>
     <use xlink:href="#m5d97896254" x="205.371935" y="284.503302" style="fill: #1f77b4; stroke: #1f77b4"/>
     <use xlink:href="#m5d97896254" x="207.517796" y="286.615998" style="fill: #1f77b4; stroke: #1f77b4"/>
     <use xlink:href="#m5d97896254" x="209.663656" y="289.134238" style="fill: #1f77b4; stroke: #1f77b4"/>
     <use xlink:href="#m5d97896254" x="211.809516" y="285.866414" style="fill: #1f77b4; stroke: #1f77b4"/>
     <use xlink:href="#m5d97896254" x="213.955376" y="284.494766" style="fill: #1f77b4; stroke: #1f77b4"/>
     <use xlink:href="#m5d97896254" x="216.101237" y="289.092526" style="fill: #1f77b4; stroke: #1f77b4"/>
     <use xlink:href="#m5d97896254" x="218.247097" y="277.984095" style="fill: #1f77b4; stroke: #1f77b4"/>
     <use xlink:href="#m5d97896254" x="220.392957" y="274.425445" style="fill: #1f77b4; stroke: #1f77b4"/>
     <use xlink:href="#m5d97896254" x="222.538817" y="280.456229" style="fill: #1f77b4; stroke: #1f77b4"/>
     <use xlink:href="#m5d97896254" x="224.684677" y="285.760401" style="fill: #1f77b4; stroke: #1f77b4"/>
     <use xlink:href="#m5d97896254" x="226.830538" y="283.884829" style="fill: #1f77b4; stroke: #1f77b4"/>
     <use xlink:href="#m5d97896254" x="228.976398" y="285.317262" style="fill: #1f77b4; stroke: #1f77b4"/>
     <use xlink:href="#m5d97896254" x="231.122258" y="285.106079" style="fill: #1f77b4; stroke: #1f77b4"/>
     <use xlink:href="#m5d97896254" x="233.268118" y="286.265742" style="fill: #1f77b4; stroke: #1f77b4"/>
     <use xlink:href="#m5d97896254" x="235.413978" y="286.749337" style="fill: #1f77b4; stroke: #1f77b4"/>
     <use xlink:href="#m5d97896254" x="237.559839" y="278.62042" style="fill: #1f77b4; stroke: #1f77b4"/>
     <use xlink:href="#m5d97896254" x="239.705699" y="277.288991" style="fill: #1f77b4; stroke: #1f77b4"/>
     <use xlink:href="#m5d97896254" x="241.851559" y="286.229052" style="fill: #1f77b4; stroke: #1f77b4"/>
     <use xlink:href="#m5d97896254" x="243.997419" y="285.735579" style="fill: #1f77b4; stroke: #1f77b4"/>
     <use xlink:href="#m5d97896254" x="246.14328" y="290.572348" style="fill: #1f77b4; stroke: #1f77b4"/>
     <use xlink:href="#m5d97896254" x="248.28914" y="281.327652" style="fill: #1f77b4; stroke: #1f77b4"/>
     <use xlink:href="#m5d97896254" x="250.435" y="281.522765" style="fill: #1f77b4; stroke: #1f77b4"/>
     <use xlink:href="#m5d97896254" x="252.58086" y="286.882364" style="fill: #1f77b4; stroke: #1f77b4"/>
     <use xlink:href="#m5d97896254" x="254.72672" y="281.029042" style="fill: #1f77b4; stroke: #1f77b4"/>
     <use xlink:href="#m5d97896254" x="256.872581" y="281.889029" style="fill: #1f77b4; stroke: #1f77b4"/>
     <use xlink:href="#m5d97896254" x="259.018441" y="264.566136" style="fill: #1f77b4; stroke: #1f77b4"/>
     <use xlink:href="#m5d97896254" x="261.164301" y="287.68894" style="fill: #1f77b4; stroke: #1f77b4"/>
     <use xlink:href="#m5d97896254" x="263.310161" y="288.044633" style="fill: #1f77b4; stroke: #1f77b4"/>
     <use xlink:href="#m5d97896254" x="265.456022" y="288.971327" style="fill: #1f77b4; stroke: #1f77b4"/>
     <use xlink:href="#m5d97896254" x="267.601882" y="283.66579" style="fill: #1f77b4; stroke: #1f77b4"/>
     <use xlink:href="#m5d97896254" x="269.747742" y="288.804003" style="fill: #1f77b4; stroke: #1f77b4"/>
     <use xlink:href="#m5d97896254" x="271.893602" y="288.323891" style="fill: #1f77b4; stroke: #1f77b4"/>
     <use xlink:href="#m5d97896254" x="274.039462" y="278.366976" style="fill: #1f77b4; stroke: #1f77b4"/>
     <use xlink:href="#m5d97896254" x="276.185323" y="274.051394" style="fill: #1f77b4; stroke: #1f77b4"/>
     <use xlink:href="#m5d97896254" x="278.331183" y="284.976946" style="fill: #1f77b4; stroke: #1f77b4"/>
     <use xlink:href="#m5d97896254" x="280.477043" y="285.52563" style="fill: #1f77b4; stroke: #1f77b4"/>
     <use xlink:href="#m5d97896254" x="282.622903" y="277.53778" style="fill: #1f77b4; stroke: #1f77b4"/>
     <use xlink:href="#m5d97896254" x="284.768763" y="288.789319" style="fill: #1f77b4; stroke: #1f77b4"/>
     <use xlink:href="#m5d97896254" x="286.914624" y="279.863033" style="fill: #1f77b4; stroke: #1f77b4"/>
     <use xlink:href="#m5d97896254" x="289.060484" y="283.541721" style="fill: #1f77b4; stroke: #1f77b4"/>
     <use xlink:href="#m5d97896254" x="291.206344" y="284.920366" style="fill: #1f77b4; stroke: #1f77b4"/>
     <use xlink:href="#m5d97896254" x="293.352204" y="279.060991" style="fill: #1f77b4; stroke: #1f77b4"/>
     <use xlink:href="#m5d97896254" x="295.498065" y="284.979477" style="fill: #1f77b4; stroke: #1f77b4"/>
     <use xlink:href="#m5d97896254" x="297.643925" y="288.378057" style="fill: #1f77b4; stroke: #1f77b4"/>
     <use xlink:href="#m5d97896254" x="299.789785" y="283.020862" style="fill: #1f77b4; stroke: #1f77b4"/>
     <use xlink:href="#m5d97896254" x="301.935645" y="282.968949" style="fill: #1f77b4; stroke: #1f77b4"/>
     <use xlink:href="#m5d97896254" x="304.081505" y="280.552285" style="fill: #1f77b4; stroke: #1f77b4"/>
     <use xlink:href="#m5d97896254" x="306.227366" y="283.012737" style="fill: #1f77b4; stroke: #1f77b4"/>
     <use xlink:href="#m5d97896254" x="308.373226" y="290.356346" style="fill: #1f77b4; stroke: #1f77b4"/>
     <use xlink:href="#m5d97896254" x="310.519086" y="281.861803" style="fill: #1f77b4; stroke: #1f77b4"/>
     <use xlink:href="#m5d97896254" x="312.664946" y="283.518731" style="fill: #1f77b4; stroke: #1f77b4"/>
     <use xlink:href="#m5d97896254" x="314.810806" y="279.463098" style="fill: #1f77b4; stroke: #1f77b4"/>
     <use xlink:href="#m5d97896254" x="316.956667" y="284.108123" style="fill: #1f77b4; stroke: #1f77b4"/>
     <use xlink:href="#m5d97896254" x="319.102527" y="282.166046" style="fill: #1f77b4; stroke: #1f77b4"/>
     <use xlink:href="#m5d97896254" x="321.248387" y="285.670934" style="fill: #1f77b4; stroke: #1f77b4"/>
     <use xlink:href="#m5d97896254" x="323.394247" y="288.076833" style="fill: #1f77b4; stroke: #1f77b4"/>
     <use xlink:href="#m5d97896254" x="325.540108" y="282.129096" style="fill: #1f77b4; stroke: #1f77b4"/>
     <use xlink:href="#m5d97896254" x="327.685968" y="289.160149" style="fill: #1f77b4; stroke: #1f77b4"/>
     <use xlink:href="#m5d97896254" x="329.831828" y="276.980738" style="fill: #1f77b4; stroke: #1f77b4"/>
     <use xlink:href="#m5d97896254" x="331.977688" y="281.252368" style="fill: #1f77b4; stroke: #1f77b4"/>
     <use xlink:href="#m5d97896254" x="334.123548" y="281.576061" style="fill: #1f77b4; stroke: #1f77b4"/>
     <use xlink:href="#m5d97896254" x="336.269409" y="286.777203" style="fill: #1f77b4; stroke: #1f77b4"/>
     <use xlink:href="#m5d97896254" x="338.415269" y="284.233117" style="fill: #1f77b4; stroke: #1f77b4"/>
     <use xlink:href="#m5d97896254" x="340.561129" y="282.768047" style="fill: #1f77b4; stroke: #1f77b4"/>
     <use xlink:href="#m5d97896254" x="342.706989" y="285.827443" style="fill: #1f77b4; stroke: #1f77b4"/>
     <use xlink:href="#m5d97896254" x="344.852849" y="283.44458" style="fill: #1f77b4; stroke: #1f77b4"/>
     <use xlink:href="#m5d97896254" x="346.99871" y="273.077355" style="fill: #1f77b4; stroke: #1f77b4"/>
     <use xlink:href="#m5d97896254" x="349.14457" y="290.107112" style="fill: #1f77b4; stroke: #1f77b4"/>
     <use xlink:href="#m5d97896254" x="351.29043" y="281.887961" style="fill: #1f77b4; stroke: #1f77b4"/>
     <use xlink:href="#m5d97896254" x="353.43629" y="285.371237" style="fill: #1f77b4; stroke: #1f77b4"/>
     <use xlink:href="#m5d97896254" x="355.582151" y="284.784742" style="fill: #1f77b4; stroke: #1f77b4"/>
     <use xlink:href="#m5d97896254" x="357.728011" y="282.951269" style="fill: #1f77b4; stroke: #1f77b4"/>
     <use xlink:href="#m5d97896254" x="359.873871" y="289.402333" style="fill: #1f77b4; stroke: #1f77b4"/>
     <use xlink:href="#m5d97896254" x="362.019731" y="284.910478" style="fill: #1f77b4; stroke: #1f77b4"/>
     <use xlink:href="#m5d97896254" x="364.165591" y="282.288468" style="fill: #1f77b4; stroke: #1f77b4"/>
     <use xlink:href="#m5d97896254" x="366.311452" y="281.464801" style="fill: #1f77b4; stroke: #1f77b4"/>
     <use xlink:href="#m5d97896254" x="368.457312" y="282.145139" style="fill: #1f77b4; stroke: #1f77b4"/>
     <use xlink:href="#m5d97896254" x="370.603172" y="281.417884" style="fill: #1f77b4; stroke: #1f77b4"/>
     <use xlink:href="#m5d97896254" x="372.749032" y="278.811407" style="fill: #1f77b4; stroke: #1f77b4"/>
     <use xlink:href="#m5d97896254" x="374.894892" y="286.163493" style="fill: #1f77b4; stroke: #1f77b4"/>
     <use xlink:href="#m5d97896254" x="377.040753" y="288.734309" style="fill: #1f77b4; stroke: #1f77b4"/>
     <use xlink:href="#m5d97896254" x="379.186613" y="285.590533" style="fill: #1f77b4; stroke: #1f77b4"/>
     <use xlink:href="#m5d97896254" x="381.332473" y="285.863673" style="fill: #1f77b4; stroke: #1f77b4"/>
     <use xlink:href="#m5d97896254" x="383.478333" y="281.180999" style="fill: #1f77b4; stroke: #1f77b4"/>
     <use xlink:href="#m5d97896254" x="385.624194" y="284.973484" style="fill: #1f77b4; stroke: #1f77b4"/>
     <use xlink:href="#m5d97896254" x="387.770054" y="284.546535" style="fill: #1f77b4; stroke: #1f77b4"/>
     <use xlink:href="#m5d97896254" x="389.915914" y="283.71772" style="fill: #1f77b4; stroke: #1f77b4"/>
     <use xlink:href="#m5d97896254" x="392.061774" y="282.729679" style="fill: #1f77b4; stroke: #1f77b4"/>
     <use xlink:href="#m5d97896254" x="394.207634" y="286.582634" style="fill: #1f77b4; stroke: #1f77b4"/>
     <use xlink:href="#m5d97896254" x="396.353495" y="277.512588" style="fill: #1f77b4; stroke: #1f77b4"/>
     <use xlink:href="#m5d97896254" x="398.499355" y="280.584576" style="fill: #1f77b4; stroke: #1f77b4"/>
     <use xlink:href="#m5d97896254" x="400.645215" y="281.46188" style="fill: #1f77b4; stroke: #1f77b4"/>
     <use xlink:href="#m5d97896254" x="402.791075" y="285.744582" style="fill: #1f77b4; stroke: #1f77b4"/>
     <use xlink:href="#m5d97896254" x="404.936935" y="282.036266" style="fill: #1f77b4; stroke: #1f77b4"/>
     <use xlink:href="#m5d97896254" x="407.082796" y="289.078349" style="fill: #1f77b4; stroke: #1f77b4"/>
     <use xlink:href="#m5d97896254" x="409.228656" y="284.33993" style="fill: #1f77b4; stroke: #1f77b4"/>
     <use xlink:href="#m5d97896254" x="411.374516" y="285.415285" style="fill: #1f77b4; stroke: #1f77b4"/>
     <use xlink:href="#m5d97896254" x="413.520376" y="285.774411" style="fill: #1f77b4; stroke: #1f77b4"/>
     <use xlink:href="#m5d97896254" x="415.666237" y="283.35906" style="fill: #1f77b4; stroke: #1f77b4"/>
     <use xlink:href="#m5d97896254" x="417.812097" y="276.770565" style="fill: #1f77b4; stroke: #1f77b4"/>
     <use xlink:href="#m5d97896254" x="419.957957" y="281.792745" style="fill: #1f77b4; stroke: #1f77b4"/>
     <use xlink:href="#m5d97896254" x="422.103817" y="282.940905" style="fill: #1f77b4; stroke: #1f77b4"/>
     <use xlink:href="#m5d97896254" x="424.249677" y="287.184346" style="fill: #1f77b4; stroke: #1f77b4"/>
     <use xlink:href="#m5d97896254" x="426.395538" y="286.671148" style="fill: #1f77b4; stroke: #1f77b4"/>
     <use xlink:href="#m5d97896254" x="428.541398" y="285.719351" style="fill: #1f77b4; stroke: #1f77b4"/>
     <use xlink:href="#m5d97896254" x="430.687258" y="282.867688" style="fill: #1f77b4; stroke: #1f77b4"/>
     <use xlink:href="#m5d97896254" x="432.833118" y="280.594399" style="fill: #1f77b4; stroke: #1f77b4"/>
     <use xlink:href="#m5d97896254" x="434.978978" y="280.798115" style="fill: #1f77b4; stroke: #1f77b4"/>
     <use xlink:href="#m5d97896254" x="437.124839" y="285.64769" style="fill: #1f77b4; stroke: #1f77b4"/>
    </g>
   </g>
   <g id="patch_18">
    <path d="M 50.87 317.72 
L 50.87 262.035 
" style="fill: none; stroke: #000000; stroke-width: 0.8; stroke-linejoin: miter; stroke-linecap: square"/>
   </g>
   <g id="patch_19">
    <path d="M 450 317.72 
L 450 262.035 
" style="fill: none; stroke: #000000; stroke-width: 0.8; stroke-linejoin: miter; stroke-linecap: square"/>
   </g>
   <g id="patch_20">
    <path d="M 50.87 317.72 
L 450 317.72 
" style="fill: none; stroke: #000000; stroke-width: 0.8; stroke-linejoin: miter; stroke-linecap: square"/>
   </g>
   <g id="patch_21">
    <path d="M 50.87 262.035 
L 450 262.035 
" style="fill: none; stroke: #000000; stroke-width: 0.8; stroke-linejoin: miter; stroke-linecap: square"/>
   </g>
  </g>
  <g id="text_22">
   <!-- Seasonal Decomposition of Rose Sales (Multiplicative) -->
   <g transform="translate(13.84375 19.0695) scale(0.16 -0.16)">
    <defs>
     <path id="DejaVuSans-20" transform="scale(0.015625)"/>
     <path id="DejaVuSans-44" d="M 1259 4147 
L 1259 519 
L 2022 519 
Q 2988 519 3436 956 
Q 3884 1394 3884 2338 
Q 3884 3275 3436 3711 
Q 2988 4147 2022 4147 
L 1259 4147 
z
M 628 4666 
L 1925 4666 
Q 3281 4666 3915 4102 
Q 4550 3538 4550 2338 
Q 4550 1131 3912 565 
Q 3275 0 1925 0 
L 628 0 
L 628 4666 
z
" transform="scale(0.015625)"/>
     <path id="DejaVuSans-63" d="M 3122 3366 
L 3122 2828 
Q 2878 2963 2633 3030 
Q 2388 3097 2138 3097 
Q 1578 3097 1268 2742 
Q 959 2388 959 1747 
Q 959 1106 1268 751 
Q 1578 397 2138 397 
Q 2388 397 2633 464 
Q 2878 531 3122 666 
L 3122 134 
Q 2881 22 2623 -34 
Q 2366 -91 2075 -91 
Q 1284 -91 818 406 
Q 353 903 353 1747 
Q 353 2603 823 3093 
Q 1294 3584 2113 3584 
Q 2378 3584 2631 3529 
Q 2884 3475 3122 3366 
z
" transform="scale(0.015625)"/>
     <path id="DejaVuSans-6d" d="M 3328 2828 
Q 3544 3216 3844 3400 
Q 4144 3584 4550 3584 
Q 5097 3584 5394 3201 
Q 5691 2819 5691 2113 
L 5691 0 
L 5113 0 
L 5113 2094 
Q 5113 2597 4934 2840 
Q 4756 3084 4391 3084 
Q 3944 3084 3684 2787 
Q 3425 2491 3425 1978 
L 3425 0 
L 2847 0 
L 2847 2094 
Q 2847 2600 2669 2842 
Q 2491 3084 2119 3084 
Q 1678 3084 1418 2786 
Q 1159 2488 1159 1978 
L 1159 0 
L 581 0 
L 581 3500 
L 1159 3500 
L 1159 2956 
Q 1356 3278 1631 3431 
Q 1906 3584 2284 3584 
Q 2666 3584 2933 3390 
Q 3200 3197 3328 2828 
z
" transform="scale(0.015625)"/>
     <path id="DejaVuSans-70" d="M 1159 525 
L 1159 -1331 
L 581 -1331 
L 581 3500 
L 1159 3500 
L 1159 2969 
Q 1341 3281 1617 3432 
Q 1894 3584 2278 3584 
Q 2916 3584 3314 3078 
Q 3713 2572 3713 1747 
Q 3713 922 3314 415 
Q 2916 -91 2278 -91 
Q 1894 -91 1617 61 
Q 1341 213 1159 525 
z
M 3116 1747 
Q 3116 2381 2855 2742 
Q 2594 3103 2138 3103 
Q 1681 3103 1420 2742 
Q 1159 2381 1159 1747 
Q 1159 1113 1420 752 
Q 1681 391 2138 391 
Q 2594 391 2855 752 
Q 3116 1113 3116 1747 
z
" transform="scale(0.015625)"/>
     <path id="DejaVuSans-74" d="M 1172 4494 
L 1172 3500 
L 2356 3500 
L 2356 3053 
L 1172 3053 
L 1172 1153 
Q 1172 725 1289 603 
Q 1406 481 1766 481 
L 2356 481 
L 2356 0 
L 1766 0 
Q 1100 0 847 248 
Q 594 497 594 1153 
L 594 3053 
L 172 3053 
L 172 3500 
L 594 3500 
L 594 4494 
L 1172 4494 
z
" transform="scale(0.015625)"/>
     <path id="DejaVuSans-66" d="M 2375 4863 
L 2375 4384 
L 1825 4384 
Q 1516 4384 1395 4259 
Q 1275 4134 1275 3809 
L 1275 3500 
L 2222 3500 
L 2222 3053 
L 1275 3053 
L 1275 0 
L 697 0 
L 697 3053 
L 147 3053 
L 147 3500 
L 697 3500 
L 697 3744 
Q 697 4328 969 4595 
Q 1241 4863 1831 4863 
L 2375 4863 
z
" transform="scale(0.015625)"/>
     <path id="DejaVuSans-28" d="M 1984 4856 
Q 1566 4138 1362 3434 
Q 1159 2731 1159 2009 
Q 1159 1288 1364 580 
Q 1569 -128 1984 -844 
L 1484 -844 
Q 1016 -109 783 600 
Q 550 1309 550 2009 
Q 550 2706 781 3412 
Q 1013 4119 1484 4856 
L 1984 4856 
z
" transform="scale(0.015625)"/>
     <path id="DejaVuSans-4d" d="M 628 4666 
L 1569 4666 
L 2759 1491 
L 3956 4666 
L 4897 4666 
L 4897 0 
L 4281 0 
L 4281 4097 
L 3078 897 
L 2444 897 
L 1241 4097 
L 1241 0 
L 628 0 
L 628 4666 
z
" transform="scale(0.015625)"/>
     <path id="DejaVuSans-75" d="M 544 1381 
L 544 3500 
L 1119 3500 
L 1119 1403 
Q 1119 906 1312 657 
Q 1506 409 1894 409 
Q 2359 409 2629 706 
Q 2900 1003 2900 1516 
L 2900 3500 
L 3475 3500 
L 3475 0 
L 2900 0 
L 2900 538 
Q 2691 219 2414 64 
Q 2138 -91 1772 -91 
Q 1169 -91 856 284 
Q 544 659 544 1381 
z
M 1991 3584 
L 1991 3584 
z
" transform="scale(0.015625)"/>
     <path id="DejaVuSans-76" d="M 191 3500 
L 800 3500 
L 1894 563 
L 2988 3500 
L 3597 3500 
L 2284 0 
L 1503 0 
L 191 3500 
z
" transform="scale(0.015625)"/>
     <path id="DejaVuSans-29" d="M 513 4856 
L 1013 4856 
Q 1481 4119 1714 3412 
Q 1947 2706 1947 2009 
Q 1947 1309 1714 600 
Q 1481 -109 1013 -844 
L 513 -844 
Q 928 -128 1133 580 
Q 1338 1288 1338 2009 
Q 1338 2731 1133 3434 
Q 928 4138 513 4856 
z
" transform="scale(0.015625)"/>
    </defs>
    <use xlink:href="#DejaVuSans-53"/>
    <use xlink:href="#DejaVuSans-65" transform="translate(63.476562 0)"/>
    <use xlink:href="#DejaVuSans-61" transform="translate(125 0)"/>
    <use xlink:href="#DejaVuSans-73" transform="translate(186.279297 0)"/>
    <use xlink:href="#DejaVuSans-6f" transform="translate(238.378906 0)"/>
    <use xlink:href="#DejaVuSans-6e" transform="translate(299.560547 0)"/>
    <use xlink:href="#DejaVuSans-61" transform="translate(362.939453 0)"/>
    <use xlink:href="#DejaVuSans-6c" transform="translate(424.21875 0)"/>
    <use xlink:href="#DejaVuSans-20" transform="translate(452.001953 0)"/>
    <use xlink:href="#DejaVuSans-44" transform="translate(483.789062 0)"/>
    <use xlink:href="#DejaVuSans-65" transform="translate(560.791016 0)"/>
    <use xlink:href="#DejaVuSans-63" transform="translate(622.314453 0)"/>
    <use xlink:href="#DejaVuSans-6f" transform="translate(677.294922 0)"/>
    <use xlink:href="#DejaVuSans-6d" transform="translate(738.476562 0)"/>
    <use xlink:href="#DejaVuSans-70" transform="translate(835.888672 0)"/>
    <use xlink:href="#DejaVuSans-6f" transform="translate(899.365234 0)"/>
    <use xlink:href="#DejaVuSans-73" transform="translate(960.546875 0)"/>
    <use xlink:href="#DejaVuSans-69" transform="translate(1012.646484 0)"/>
    <use xlink:href="#DejaVuSans-74" transform="translate(1040.429688 0)"/>
    <use xlink:href="#DejaVuSans-69" transform="translate(1079.638672 0)"/>
    <use xlink:href="#DejaVuSans-6f" transform="translate(1107.421875 0)"/>
    <use xlink:href="#DejaVuSans-6e" transform="translate(1168.603516 0)"/>
    <use xlink:href="#DejaVuSans-20" transform="translate(1231.982422 0)"/>
    <use xlink:href="#DejaVuSans-6f" transform="translate(1263.769531 0)"/>
    <use xlink:href="#DejaVuSans-66" transform="translate(1324.951172 0)"/>
    <use xlink:href="#DejaVuSans-20" transform="translate(1360.15625 0)"/>
    <use xlink:href="#DejaVuSans-52" transform="translate(1391.943359 0)"/>
    <use xlink:href="#DejaVuSans-6f" transform="translate(1456.925781 0)"/>
    <use xlink:href="#DejaVuSans-73" transform="translate(1518.107422 0)"/>
    <use xlink:href="#DejaVuSans-65" transform="translate(1570.207031 0)"/>
    <use xlink:href="#DejaVuSans-20" transform="translate(1631.730469 0)"/>
    <use xlink:href="#DejaVuSans-53" transform="translate(1663.517578 0)"/>
    <use xlink:href="#DejaVuSans-61" transform="translate(1726.994141 0)"/>
    <use xlink:href="#DejaVuSans-6c" transform="translate(1788.273438 0)"/>
    <use xlink:href="#DejaVuSans-65" transform="translate(1816.056641 0)"/>
    <use xlink:href="#DejaVuSans-73" transform="translate(1877.580078 0)"/>
    <use xlink:href="#DejaVuSans-20" transform="translate(1929.679688 0)"/>
    <use xlink:href="#DejaVuSans-28" transform="translate(1961.466797 0)"/>
    <use xlink:href="#DejaVuSans-4d" transform="translate(2000.480469 0)"/>
    <use xlink:href="#DejaVuSans-75" transform="translate(2086.759766 0)"/>
    <use xlink:href="#DejaVuSans-6c" transform="translate(2150.138672 0)"/>
    <use xlink:href="#DejaVuSans-74" transform="translate(2177.921875 0)"/>
    <use xlink:href="#DejaVuSans-69" transform="translate(2217.130859 0)"/>
    <use xlink:href="#DejaVuSans-70" transform="translate(2244.914062 0)"/>
    <use xlink:href="#DejaVuSans-6c" transform="translate(2308.390625 0)"/>
    <use xlink:href="#DejaVuSans-69" transform="translate(2336.173828 0)"/>
    <use xlink:href="#DejaVuSans-63" transform="translate(2363.957031 0)"/>
    <use xlink:href="#DejaVuSans-61" transform="translate(2418.9375 0)"/>
    <use xlink:href="#DejaVuSans-74" transform="translate(2480.216797 0)"/>
    <use xlink:href="#DejaVuSans-69" transform="translate(2519.425781 0)"/>
    <use xlink:href="#DejaVuSans-76" transform="translate(2547.208984 0)"/>
    <use xlink:href="#DejaVuSans-65" transform="translate(2606.388672 0)"/>
    <use xlink:href="#DejaVuSans-29" transform="translate(2667.912109 0)"/>
   </g>
  </g>
 </g>
 <defs>
  <clipPath id="p5d5c64b254">
   <rect x="50.87" y="52.08" width="399.13" height="55.685"/>
  </clipPath>
  <clipPath id="p7a85d3c5bc">
   <rect x="50.87" y="122.065" width="399.13" height="55.685"/>
  </clipPath>
  <clipPath id="p185cc322d4">
   <rect x="50.87" y="192.05" width="399.13" height="55.685"/>
  </clipPath>
  <clipPath id="p7ed069ac33">
   <rect x="50.87" y="262.035" width="399.13" height="55.685"/>
  </clipPath>
 </defs>
</svg>
