<?xml version="1.0" encoding="utf-8" standalone="no"?>
<!DOCTYPE svg PUBLIC "-//W3C//DTD SVG 1.1//EN"
  "http://www.w3.org/Graphics/SVG/1.1/DTD/svg11.dtd">
<svg xmlns:xlink="http://www.w3.org/1999/xlink" width="460.8pt" height="345.6pt" viewBox="0 0 460.8 345.6" xmlns="http://www.w3.org/2000/svg" version="1.1">
 <metadata>
  <rdf:RDF xmlns:dc="http://purl.org/dc/elements/1.1/" xmlns:cc="http://creativecommons.org/ns#" xmlns:rdf="http://www.w3.org/1999/02/22-rdf-syntax-ns#">
   <cc:Work>
    <dc:type rdf:resource="http://purl.org/dc/dcmitype/StillImage"/>
    <dc:date>2025-01-01T17:01:13.690153</dc:date>
    <dc:format>image/svg+xml</dc:format>
    <dc:creator>
     <cc:Agent>
      <dc:title>Matplotlib v3.10.0, https://matplotlib.org/</dc:title>
     </cc:Agent>
    </dc:creator>
   </cc:Work>
  </rdf:RDF>
 </metadata>
 <defs>
  <style type="text/css">*{stroke-linejoin: round; stroke-linecap: butt}</style>
 </defs>
 <g id="figure_1">
  <g id="patch_1">
   <path d="M 0 345.6 
L 460.8 345.6 
L 460.8 0 
L 0 0 
z
" style="fill: #ffffff"/>
  </g>
  <g id="axes_1">
   <g id="patch_2">
    <path d="M 65.54 107.765 
L 450 107.765 
L 450 52.08 
L 65.54 52.08 
z
" style="fill: #ffffff"/>
   </g>
   <g id="matplotlib.axis_1">
    <g id="xtick_1">
     <g id="line2d_1">
      <defs>
       <path id="mfc2718cb76" d="M 0 0 
L 0 3.5 
" style="stroke: #000000; stroke-width: 0.8"/>
      </defs>
      <g>
       <use xlink:href="#mfc2718cb76" x="65.54" y="107.765" style="stroke: #000000; stroke-width: 0.8"/>
      </g>
     </g>
    </g>
    <g id="xtick_2">
     <g id="line2d_2">
      <g>
       <use xlink:href="#mfc2718cb76" x="117.214731" y="107.765" style="stroke: #000000; stroke-width: 0.8"/>
      </g>
     </g>
    </g>
    <g id="xtick_3">
     <g id="line2d_3">
      <g>
       <use xlink:href="#mfc2718cb76" x="168.889462" y="107.765" style="stroke: #000000; stroke-width: 0.8"/>
      </g>
     </g>
    </g>
    <g id="xtick_4">
     <g id="line2d_4">
      <g>
       <use xlink:href="#mfc2718cb76" x="220.564194" y="107.765" style="stroke: #000000; stroke-width: 0.8"/>
      </g>
     </g>
    </g>
    <g id="xtick_5">
     <g id="line2d_5">
      <g>
       <use xlink:href="#mfc2718cb76" x="272.238925" y="107.765" style="stroke: #000000; stroke-width: 0.8"/>
      </g>
     </g>
    </g>
    <g id="xtick_6">
     <g id="line2d_6">
      <g>
       <use xlink:href="#mfc2718cb76" x="323.913656" y="107.765" style="stroke: #000000; stroke-width: 0.8"/>
      </g>
     </g>
    </g>
    <g id="xtick_7">
     <g id="line2d_7">
      <g>
       <use xlink:href="#mfc2718cb76" x="375.588387" y="107.765" style="stroke: #000000; stroke-width: 0.8"/>
      </g>
     </g>
    </g>
    <g id="xtick_8">
     <g id="line2d_8">
      <g>
       <use xlink:href="#mfc2718cb76" x="427.263118" y="107.765" style="stroke: #000000; stroke-width: 0.8"/>
      </g>
     </g>
    </g>
   </g>
   <g id="matplotlib.axis_2">
    <g id="ytick_1">
     <g id="line2d_9">
      <defs>
       <path id="m43e2561a4f" d="M 0 0 
L -3.5 0 
" style="stroke: #000000; stroke-width: 0.8"/>
      </defs>
      <g>
       <use xlink:href="#m43e2561a4f" x="65.54" y="93.505008" style="stroke: #000000; stroke-width: 0.8"/>
      </g>
     </g>
     <g id="text_1">
      <!-- 2500 -->
      <g transform="translate(33.09 97.304226) scale(0.1 -0.1)">
       <defs>
        <path id="DejaVuSans-32" d="M 1228 531 
L 3431 531 
L 3431 0 
L 469 0 
L 469 531 
Q 828 903 1448 1529 
Q 2069 2156 2228 2338 
Q 2531 2678 2651 2914 
Q 2772 3150 2772 3378 
Q 2772 3750 2511 3984 
Q 2250 4219 1831 4219 
Q 1534 4219 1204 4116 
Q 875 4013 500 3803 
L 500 4441 
Q 881 4594 1212 4672 
Q 1544 4750 1819 4750 
Q 2544 4750 2975 4387 
Q 3406 4025 3406 3419 
Q 3406 3131 3298 2873 
Q 3191 2616 2906 2266 
Q 2828 2175 2409 1742 
Q 1991 1309 1228 531 
z
" transform="scale(0.015625)"/>
        <path id="DejaVuSans-35" d="M 691 4666 
L 3169 4666 
L 3169 4134 
L 1269 4134 
L 1269 2991 
Q 1406 3038 1543 3061 
Q 1681 3084 1819 3084 
Q 2600 3084 3056 2656 
Q 3513 2228 3513 1497 
Q 3513 744 3044 326 
Q 2575 -91 1722 -91 
Q 1428 -91 1123 -41 
Q 819 9 494 109 
L 494 744 
Q 775 591 1075 516 
Q 1375 441 1709 441 
Q 2250 441 2565 725 
Q 2881 1009 2881 1497 
Q 2881 1984 2565 2268 
Q 2250 2553 1709 2553 
Q 1456 2553 1204 2497 
Q 953 2441 691 2322 
L 691 4666 
z
" transform="scale(0.015625)"/>
        <path id="DejaVuSans-30" d="M 2034 4250 
Q 1547 4250 1301 3770 
Q 1056 3291 1056 2328 
Q 1056 1369 1301 889 
Q 1547 409 2034 409 
Q 2525 409 2770 889 
Q 3016 1369 3016 2328 
Q 3016 3291 2770 3770 
Q 2525 4250 2034 4250 
z
M 2034 4750 
Q 2819 4750 3233 4129 
Q 3647 3509 3647 2328 
Q 3647 1150 3233 529 
Q 2819 -91 2034 -91 
Q 1250 -91 836 529 
Q 422 1150 422 2328 
Q 422 3509 836 4129 
Q 1250 4750 2034 4750 
z
" transform="scale(0.015625)"/>
       </defs>
       <use xlink:href="#DejaVuSans-32"/>
       <use xlink:href="#DejaVuSans-35" transform="translate(63.623047 0)"/>
       <use xlink:href="#DejaVuSans-30" transform="translate(127.246094 0)"/>
       <use xlink:href="#DejaVuSans-30" transform="translate(190.869141 0)"/>
      </g>
     </g>
    </g>
    <g id="ytick_2">
     <g id="line2d_10">
      <g>
       <use xlink:href="#m43e2561a4f" x="65.54" y="73.000014" style="stroke: #000000; stroke-width: 0.8"/>
      </g>
     </g>
     <g id="text_2">
      <!-- 5000 -->
      <g transform="translate(33.09 76.799233) scale(0.1 -0.1)">
       <use xlink:href="#DejaVuSans-35"/>
       <use xlink:href="#DejaVuSans-30" transform="translate(63.623047 0)"/>
       <use xlink:href="#DejaVuSans-30" transform="translate(127.246094 0)"/>
       <use xlink:href="#DejaVuSans-30" transform="translate(190.869141 0)"/>
      </g>
     </g>
    </g>
    <g id="ytick_3">
     <g id="line2d_11">
      <g>
       <use xlink:href="#m43e2561a4f" x="65.54" y="52.495021" style="stroke: #000000; stroke-width: 0.8"/>
      </g>
     </g>
     <g id="text_3">
      <!-- 7500 -->
      <g transform="translate(33.09 56.29424) scale(0.1 -0.1)">
       <defs>
        <path id="DejaVuSans-37" d="M 525 4666 
L 3525 4666 
L 3525 4397 
L 1831 0 
L 1172 0 
L 2766 4134 
L 525 4134 
L 525 4666 
z
" transform="scale(0.015625)"/>
       </defs>
       <use xlink:href="#DejaVuSans-37"/>
       <use xlink:href="#DejaVuSans-35" transform="translate(63.623047 0)"/>
       <use xlink:href="#DejaVuSans-30" transform="translate(127.246094 0)"/>
       <use xlink:href="#DejaVuSans-30" transform="translate(190.869141 0)"/>
      </g>
     </g>
    </g>
   </g>
   <g id="line2d_12">
    <path d="M 65.54 100.181433 
L 67.606989 100.960623 
L 69.673978 95.112599 
L 71.740968 99.968181 
L 73.807957 101.944863 
L 75.874946 102.71585 
L 77.941935 97.884874 
L 80.008925 93.890501 
L 82.075914 97.737238 
L 84.142903 92.717616 
L 86.209892 80.488438 
L 88.276882 71.531857 
L 90.343871 101.460945 
L 92.41086 101.518359 
L 94.477849 100.616139 
L 96.544839 97.802854 
L 98.611828 104.413664 
L 102.745806 99.402244 
L 104.812796 93.734663 
L 106.879785 97.761844 
L 108.946774 95.366861 
L 111.013763 82.374897 
L 113.080753 76.682711 
L 115.147742 101.624985 
L 117.214731 103.109546 
L 119.28172 101.559369 
L 121.34871 99.328426 
L 123.415699 101.403531 
L 125.482688 102.125307 
L 127.549677 97.983298 
L 129.616667 98.450812 
L 131.683656 100.017393 
L 133.750645 93.39018 
L 135.817634 84.540224 
L 137.884624 76.904165 
L 139.951613 100.812987 
L 142.018602 100.575129 
L 144.085591 97.359946 
L 146.152581 102.732254 
L 148.21957 103.183364 
L 150.286559 103.798514 
L 152.353548 100.886805 
L 154.420538 95.161811 
L 156.487527 96.039425 
L 158.554516 93.414786 
L 160.621505 85.79513 
L 162.688495 73.631568 
L 164.755484 100.812987 
L 166.822473 102.240135 
L 168.889462 97.105684 
L 170.956452 99.336628 
L 173.023441 101.157471 
L 175.09043 102.494397 
L 177.157419 100.911411 
L 179.224409 88.099891 
L 181.291398 99.582688 
L 183.358387 93.4722 
L 185.425376 78.962866 
L 187.492366 70.752667 
L 189.559355 99.484264 
L 191.626344 100.214241 
L 193.693333 98.869114 
L 195.760323 100.977027 
L 197.827312 98.459014 
L 199.894301 102.699446 
L 201.96129 100.517715 
L 204.02828 93.406584 
L 206.095269 99.484264 
L 208.162258 83.441157 
L 210.229247 78.019637 
L 212.296237 69.440347 
L 214.363226 100.837593 
L 216.430215 101.518359 
L 218.497204 101.075451 
L 220.564194 100.845795 
L 222.631183 99.533476 
L 224.698172 102.502599 
L 226.765161 92.81604 
L 228.832151 86.795774 
L 230.89914 101.198481 
L 232.966129 94.743509 
L 235.033118 81.308638 
L 237.100108 65.692035 
L 239.167097 102.617427 
L 241.234086 102.182721 
L 243.301075 101.313309 
L 245.368065 98.139136 
L 247.435054 101.559369 
L 249.502043 103.757504 
L 251.569032 98.860912 
L 253.636022 98.180146 
L 255.703011 92.373132 
L 257.77 88.468981 
L 259.836989 77.880203 
L 261.903978 54.611136 
L 263.970968 98.8117 
L 266.037957 99.418648 
L 268.104946 96.72019 
L 270.171935 94.850135 
L 272.238925 99.836949 
L 274.305914 100.386483 
L 276.372903 95.719547 
L 278.439892 100.517715 
L 280.506882 94.152965 
L 284.64086 73.098438 
L 286.707849 58.589105 
L 288.774839 99.599091 
L 290.841828 102.576417 
L 292.908817 97.753642 
L 294.975806 100.476705 
L 297.042796 100.443897 
L 299.109785 102.477993 
L 301.176774 97.843864 
L 303.243763 97.86847 
L 305.310753 92.619192 
L 307.377742 82.473321 
L 309.444731 76.986185 
L 311.51172 59.105831 
L 313.57871 99.902565 
L 315.645699 103.175162 
L 317.712688 98.762488 
L 319.779677 100.657149 
L 321.846667 100.763775 
L 323.913656 102.059691 
L 325.980645 98.434408 
L 328.047634 100.845795 
L 330.114624 94.128359 
L 332.181613 88.452577 
L 334.248602 78.85624 
L 336.315591 64.412523 
L 338.382581 98.409802 
L 340.44957 97.204108 
L 342.516559 98.639458 
L 344.583548 103.519646 
L 346.650538 102.264741 
L 348.717527 101.378925 
L 350.784516 95.850779 
L 352.851505 98.778892 
L 354.918495 94.259591 
L 356.985484 87.337106 
L 359.052473 84.261357 
L 361.119462 63.543111 
L 363.186452 101.075451 
L 365.253441 100.337271 
L 367.32043 97.66342 
L 369.387419 97.630612 
L 371.454409 99.38584 
L 373.521398 100.681755 
L 375.588387 96.982654 
L 377.655376 99.46786 
L 379.722366 94.513853 
L 381.789355 88.682233 
L 383.856344 80.41462 
L 385.923333 63.821979 
L 387.990323 101.756217 
L 390.057312 101.182077 
L 392.124301 98.44261 
L 394.19129 96.613564 
L 396.25828 98.992144 
L 398.325269 101.583975 
L 400.392258 97.21231 
L 402.459247 91.085418 
L 404.526237 99.664707 
L 406.593226 86.623532 
L 408.660215 79.340158 
L 410.727204 61.435198 
L 412.794194 104.19221 
L 414.861183 97.86847 
L 416.928172 99.902565 
L 418.995161 99.861555 
L 421.062151 100.279857 
L 423.12914 100.124019 
L 425.196129 97.351744 
L 427.263118 101.748015 
L 429.330108 89.666473 
L 431.397097 86.24624 
L 433.464086 83.424753 
L 435.531075 64.806219 
L 437.598065 105.233864 
L 439.665054 102.510801 
L 441.732043 98.450812 
L 443.799032 98.737882 
L 445.866022 100.312665 
L 447.933011 100.165029 
L 450 97.351744 
L 450 97.351744 
" clip-path="url(#p8876f237e2)" style="fill: none; stroke: #1f77b4; stroke-width: 1.5; stroke-linecap: square"/>
   </g>
   <g id="patch_3">
    <path d="M 65.54 107.765 
L 65.54 52.08 
" style="fill: none; stroke: #000000; stroke-width: 0.8; stroke-linejoin: miter; stroke-linecap: square"/>
   </g>
   <g id="patch_4">
    <path d="M 450 107.765 
L 450 52.08 
" style="fill: none; stroke: #000000; stroke-width: 0.8; stroke-linejoin: miter; stroke-linecap: square"/>
   </g>
   <g id="patch_5">
    <path d="M 65.54 107.765 
L 450 107.765 
" style="fill: none; stroke: #000000; stroke-width: 0.8; stroke-linejoin: miter; stroke-linecap: square"/>
   </g>
   <g id="patch_6">
    <path d="M 65.54 52.08 
L 450 52.08 
" style="fill: none; stroke: #000000; stroke-width: 0.8; stroke-linejoin: miter; stroke-linecap: square"/>
   </g>
   <g id="text_4">
    <!-- Sparkling -->
    <g transform="translate(229.58875 46.08) scale(0.12 -0.12)">
     <defs>
      <path id="DejaVuSans-53" d="M 3425 4513 
L 3425 3897 
Q 3066 4069 2747 4153 
Q 2428 4238 2131 4238 
Q 1616 4238 1336 4038 
Q 1056 3838 1056 3469 
Q 1056 3159 1242 3001 
Q 1428 2844 1947 2747 
L 2328 2669 
Q 3034 2534 3370 2195 
Q 3706 1856 3706 1288 
Q 3706 609 3251 259 
Q 2797 -91 1919 -91 
Q 1588 -91 1214 -16 
Q 841 59 441 206 
L 441 856 
Q 825 641 1194 531 
Q 1563 422 1919 422 
Q 2459 422 2753 634 
Q 3047 847 3047 1241 
Q 3047 1584 2836 1778 
Q 2625 1972 2144 2069 
L 1759 2144 
Q 1053 2284 737 2584 
Q 422 2884 422 3419 
Q 422 4038 858 4394 
Q 1294 4750 2059 4750 
Q 2388 4750 2728 4690 
Q 3069 4631 3425 4513 
z
" transform="scale(0.015625)"/>
      <path id="DejaVuSans-70" d="M 1159 525 
L 1159 -1331 
L 581 -1331 
L 581 3500 
L 1159 3500 
L 1159 2969 
Q 1341 3281 1617 3432 
Q 1894 3584 2278 3584 
Q 2916 3584 3314 3078 
Q 3713 2572 3713 1747 
Q 3713 922 3314 415 
Q 2916 -91 2278 -91 
Q 1894 -91 1617 61 
Q 1341 213 1159 525 
z
M 3116 1747 
Q 3116 2381 2855 2742 
Q 2594 3103 2138 3103 
Q 1681 3103 1420 2742 
Q 1159 2381 1159 1747 
Q 1159 1113 1420 752 
Q 1681 391 2138 391 
Q 2594 391 2855 752 
Q 3116 1113 3116 1747 
z
" transform="scale(0.015625)"/>
      <path id="DejaVuSans-61" d="M 2194 1759 
Q 1497 1759 1228 1600 
Q 959 1441 959 1056 
Q 959 750 1161 570 
Q 1363 391 1709 391 
Q 2188 391 2477 730 
Q 2766 1069 2766 1631 
L 2766 1759 
L 2194 1759 
z
M 3341 1997 
L 3341 0 
L 2766 0 
L 2766 531 
Q 2569 213 2275 61 
Q 1981 -91 1556 -91 
Q 1019 -91 701 211 
Q 384 513 384 1019 
Q 384 1609 779 1909 
Q 1175 2209 1959 2209 
L 2766 2209 
L 2766 2266 
Q 2766 2663 2505 2880 
Q 2244 3097 1772 3097 
Q 1472 3097 1187 3025 
Q 903 2953 641 2809 
L 641 3341 
Q 956 3463 1253 3523 
Q 1550 3584 1831 3584 
Q 2591 3584 2966 3190 
Q 3341 2797 3341 1997 
z
" transform="scale(0.015625)"/>
      <path id="DejaVuSans-72" d="M 2631 2963 
Q 2534 3019 2420 3045 
Q 2306 3072 2169 3072 
Q 1681 3072 1420 2755 
Q 1159 2438 1159 1844 
L 1159 0 
L 581 0 
L 581 3500 
L 1159 3500 
L 1159 2956 
Q 1341 3275 1631 3429 
Q 1922 3584 2338 3584 
Q 2397 3584 2469 3576 
Q 2541 3569 2628 3553 
L 2631 2963 
z
" transform="scale(0.015625)"/>
      <path id="DejaVuSans-6b" d="M 581 4863 
L 1159 4863 
L 1159 1991 
L 2875 3500 
L 3609 3500 
L 1753 1863 
L 3688 0 
L 2938 0 
L 1159 1709 
L 1159 0 
L 581 0 
L 581 4863 
z
" transform="scale(0.015625)"/>
      <path id="DejaVuSans-6c" d="M 603 4863 
L 1178 4863 
L 1178 0 
L 603 0 
L 603 4863 
z
" transform="scale(0.015625)"/>
      <path id="DejaVuSans-69" d="M 603 3500 
L 1178 3500 
L 1178 0 
L 603 0 
L 603 3500 
z
M 603 4863 
L 1178 4863 
L 1178 4134 
L 603 4134 
L 603 4863 
z
" transform="scale(0.015625)"/>
      <path id="DejaVuSans-6e" d="M 3513 2113 
L 3513 0 
L 2938 0 
L 2938 2094 
Q 2938 2591 2744 2837 
Q 2550 3084 2163 3084 
Q 1697 3084 1428 2787 
Q 1159 2491 1159 1978 
L 1159 0 
L 581 0 
L 581 3500 
L 1159 3500 
L 1159 2956 
Q 1366 3272 1645 3428 
Q 1925 3584 2291 3584 
Q 2894 3584 3203 3211 
Q 3513 2838 3513 2113 
z
" transform="scale(0.015625)"/>
      <path id="DejaVuSans-67" d="M 2906 1791 
Q 2906 2416 2648 2759 
Q 2391 3103 1925 3103 
Q 1463 3103 1205 2759 
Q 947 2416 947 1791 
Q 947 1169 1205 825 
Q 1463 481 1925 481 
Q 2391 481 2648 825 
Q 2906 1169 2906 1791 
z
M 3481 434 
Q 3481 -459 3084 -895 
Q 2688 -1331 1869 -1331 
Q 1566 -1331 1297 -1286 
Q 1028 -1241 775 -1147 
L 775 -588 
Q 1028 -725 1275 -790 
Q 1522 -856 1778 -856 
Q 2344 -856 2625 -561 
Q 2906 -266 2906 331 
L 2906 616 
Q 2728 306 2450 153 
Q 2172 0 1784 0 
Q 1141 0 747 490 
Q 353 981 353 1791 
Q 353 2603 747 3093 
Q 1141 3584 1784 3584 
Q 2172 3584 2450 3431 
Q 2728 3278 2906 2969 
L 2906 3500 
L 3481 3500 
L 3481 434 
z
" transform="scale(0.015625)"/>
     </defs>
     <use xlink:href="#DejaVuSans-53"/>
     <use xlink:href="#DejaVuSans-70" transform="translate(63.476562 0)"/>
     <use xlink:href="#DejaVuSans-61" transform="translate(126.953125 0)"/>
     <use xlink:href="#DejaVuSans-72" transform="translate(188.232422 0)"/>
     <use xlink:href="#DejaVuSans-6b" transform="translate(229.345703 0)"/>
     <use xlink:href="#DejaVuSans-6c" transform="translate(287.255859 0)"/>
     <use xlink:href="#DejaVuSans-69" transform="translate(315.039062 0)"/>
     <use xlink:href="#DejaVuSans-6e" transform="translate(342.822266 0)"/>
     <use xlink:href="#DejaVuSans-67" transform="translate(406.201172 0)"/>
    </g>
   </g>
  </g>
  <g id="axes_2">
   <g id="patch_7">
    <path d="M 65.54 177.75 
L 450 177.75 
L 450 122.065 
L 65.54 122.065 
z
" style="fill: #ffffff"/>
   </g>
   <g id="matplotlib.axis_3">
    <g id="xtick_9">
     <g id="line2d_13">
      <g>
       <use xlink:href="#mfc2718cb76" x="65.54" y="177.75" style="stroke: #000000; stroke-width: 0.8"/>
      </g>
     </g>
    </g>
    <g id="xtick_10">
     <g id="line2d_14">
      <g>
       <use xlink:href="#mfc2718cb76" x="117.214731" y="177.75" style="stroke: #000000; stroke-width: 0.8"/>
      </g>
     </g>
    </g>
    <g id="xtick_11">
     <g id="line2d_15">
      <g>
       <use xlink:href="#mfc2718cb76" x="168.889462" y="177.75" style="stroke: #000000; stroke-width: 0.8"/>
      </g>
     </g>
    </g>
    <g id="xtick_12">
     <g id="line2d_16">
      <g>
       <use xlink:href="#mfc2718cb76" x="220.564194" y="177.75" style="stroke: #000000; stroke-width: 0.8"/>
      </g>
     </g>
    </g>
    <g id="xtick_13">
     <g id="line2d_17">
      <g>
       <use xlink:href="#mfc2718cb76" x="272.238925" y="177.75" style="stroke: #000000; stroke-width: 0.8"/>
      </g>
     </g>
    </g>
    <g id="xtick_14">
     <g id="line2d_18">
      <g>
       <use xlink:href="#mfc2718cb76" x="323.913656" y="177.75" style="stroke: #000000; stroke-width: 0.8"/>
      </g>
     </g>
    </g>
    <g id="xtick_15">
     <g id="line2d_19">
      <g>
       <use xlink:href="#mfc2718cb76" x="375.588387" y="177.75" style="stroke: #000000; stroke-width: 0.8"/>
      </g>
     </g>
    </g>
    <g id="xtick_16">
     <g id="line2d_20">
      <g>
       <use xlink:href="#mfc2718cb76" x="427.263118" y="177.75" style="stroke: #000000; stroke-width: 0.8"/>
      </g>
     </g>
    </g>
   </g>
   <g id="matplotlib.axis_4">
    <g id="ytick_4">
     <g id="line2d_21">
      <g>
       <use xlink:href="#m43e2561a4f" x="65.54" y="164.359536" style="stroke: #000000; stroke-width: 0.8"/>
      </g>
     </g>
     <g id="text_5">
      <!-- 2250 -->
      <g transform="translate(33.09 168.158755) scale(0.1 -0.1)">
       <use xlink:href="#DejaVuSans-32"/>
       <use xlink:href="#DejaVuSans-32" transform="translate(63.623047 0)"/>
       <use xlink:href="#DejaVuSans-35" transform="translate(127.246094 0)"/>
       <use xlink:href="#DejaVuSans-30" transform="translate(190.869141 0)"/>
      </g>
     </g>
    </g>
    <g id="ytick_5">
     <g id="line2d_22">
      <g>
       <use xlink:href="#m43e2561a4f" x="65.54" y="145.974671" style="stroke: #000000; stroke-width: 0.8"/>
      </g>
     </g>
     <g id="text_6">
      <!-- 2500 -->
      <g transform="translate(33.09 149.77389) scale(0.1 -0.1)">
       <use xlink:href="#DejaVuSans-32"/>
       <use xlink:href="#DejaVuSans-35" transform="translate(63.623047 0)"/>
       <use xlink:href="#DejaVuSans-30" transform="translate(127.246094 0)"/>
       <use xlink:href="#DejaVuSans-30" transform="translate(190.869141 0)"/>
      </g>
     </g>
    </g>
    <g id="ytick_6">
     <g id="line2d_23">
      <g>
       <use xlink:href="#m43e2561a4f" x="65.54" y="127.589805" style="stroke: #000000; stroke-width: 0.8"/>
      </g>
     </g>
     <g id="text_7">
      <!-- 2750 -->
      <g transform="translate(33.09 131.389024) scale(0.1 -0.1)">
       <use xlink:href="#DejaVuSans-32"/>
       <use xlink:href="#DejaVuSans-37" transform="translate(63.623047 0)"/>
       <use xlink:href="#DejaVuSans-35" transform="translate(127.246094 0)"/>
       <use xlink:href="#DejaVuSans-30" transform="translate(190.869141 0)"/>
      </g>
     </g>
    </g>
    <g id="text_8">
     <!-- Trend -->
     <g transform="translate(27.010313 163.586406) rotate(-90) scale(0.1 -0.1)">
      <defs>
       <path id="DejaVuSans-54" d="M -19 4666 
L 3928 4666 
L 3928 4134 
L 2272 4134 
L 2272 0 
L 1638 0 
L 1638 4134 
L -19 4134 
L -19 4666 
z
" transform="scale(0.015625)"/>
       <path id="DejaVuSans-65" d="M 3597 1894 
L 3597 1613 
L 953 1613 
Q 991 1019 1311 708 
Q 1631 397 2203 397 
Q 2534 397 2845 478 
Q 3156 559 3463 722 
L 3463 178 
Q 3153 47 2828 -22 
Q 2503 -91 2169 -91 
Q 1331 -91 842 396 
Q 353 884 353 1716 
Q 353 2575 817 3079 
Q 1281 3584 2069 3584 
Q 2775 3584 3186 3129 
Q 3597 2675 3597 1894 
z
M 3022 2063 
Q 3016 2534 2758 2815 
Q 2500 3097 2075 3097 
Q 1594 3097 1305 2825 
Q 1016 2553 972 2059 
L 3022 2063 
z
" transform="scale(0.015625)"/>
       <path id="DejaVuSans-64" d="M 2906 2969 
L 2906 4863 
L 3481 4863 
L 3481 0 
L 2906 0 
L 2906 525 
Q 2725 213 2448 61 
Q 2172 -91 1784 -91 
Q 1150 -91 751 415 
Q 353 922 353 1747 
Q 353 2572 751 3078 
Q 1150 3584 1784 3584 
Q 2172 3584 2448 3432 
Q 2725 3281 2906 2969 
z
M 947 1747 
Q 947 1113 1208 752 
Q 1469 391 1925 391 
Q 2381 391 2643 752 
Q 2906 1113 2906 1747 
Q 2906 2381 2643 2742 
Q 2381 3103 1925 3103 
Q 1469 3103 1208 2742 
Q 947 2381 947 1747 
z
" transform="scale(0.015625)"/>
      </defs>
      <use xlink:href="#DejaVuSans-54"/>
      <use xlink:href="#DejaVuSans-72" transform="translate(46.333984 0)"/>
      <use xlink:href="#DejaVuSans-65" transform="translate(85.197266 0)"/>
      <use xlink:href="#DejaVuSans-6e" transform="translate(146.720703 0)"/>
      <use xlink:href="#DejaVuSans-64" transform="translate(210.099609 0)"/>
     </g>
    </g>
   </g>
   <g id="line2d_24">
    <path d="M 77.941935 156.221169 
L 80.008925 156.907538 
L 82.075914 159.17194 
L 84.142903 160.419047 
L 86.209892 160.53242 
L 88.276882 161.139121 
L 90.343871 161.390381 
L 92.41086 161.899029 
L 94.477849 161.850002 
L 96.544839 162.848913 
L 98.611828 164.543385 
L 100.678817 167.172421 
L 102.745806 169.157986 
L 104.812796 169.813713 
L 108.946774 171.682841 
L 111.013763 171.128231 
L 113.080753 170.098679 
L 115.147742 169.66357 
L 117.214731 170.895356 
L 119.28172 173.499879 
L 123.415699 173.674535 
L 125.482688 174.566201 
L 127.549677 174.345583 
L 129.616667 173.095412 
L 131.683656 170.579749 
L 133.750645 170.282527 
L 135.817634 172.219066 
L 137.884624 173.509071 
L 139.951613 175.218864 
L 142.018602 175.074849 
L 144.085591 172.360017 
L 146.152581 170.8831 
L 148.21957 171.361106 
L 150.286559 170.607327 
L 152.353548 169.384733 
L 156.487527 170.533787 
L 158.554516 169.170243 
L 160.621505 167.144844 
L 162.688495 165.900801 
L 164.755484 165.422794 
L 166.822473 162.793759 
L 168.889462 161.479241 
L 170.956452 162.8244 
L 173.023441 160.293417 
L 175.09043 156.66547 
L 177.157419 155.093564 
L 179.224409 153.840329 
L 181.291398 153.742277 
L 183.358387 155.013896 
L 185.425376 154.618622 
L 187.492366 153.687122 
L 189.559355 153.616647 
L 193.693333 157.397801 
L 195.760323 153.613582 
L 197.827312 149.513757 
L 199.894301 148.671118 
L 201.96129 148.686439 
L 204.02828 149.679221 
L 206.095269 150.990675 
L 208.162258 151.765903 
L 212.296237 152.446144 
L 214.363226 149.495373 
L 216.430215 144.148441 
L 218.497204 142.319147 
L 220.564194 147.181944 
L 222.631183 152.633056 
L 224.698172 152.461464 
L 226.765161 151.72607 
L 228.832151 152.639185 
L 230.89914 152.97624 
L 232.966129 152.053933 
L 235.033118 151.799609 
L 237.100108 153.025267 
L 239.167097 155.752355 
L 241.234086 162.263662 
L 243.301075 163.219675 
L 245.368065 157.578585 
L 247.435054 153.953702 
L 251.569032 142.971809 
L 253.636022 140.51743 
L 255.703011 137.768893 
L 257.77 134.82425 
L 261.903978 131.049224 
L 263.970968 128.616294 
L 266.037957 128.316007 
L 268.104946 129.854208 
L 270.171935 128.600973 
L 272.238925 124.896423 
L 274.305914 124.596136 
L 276.372903 126.376404 
L 280.506882 129.416035 
L 284.64086 134.23287 
L 286.707849 135.240974 
L 288.774839 136.815944 
L 290.841828 136.619838 
L 292.908817 135.057125 
L 294.975806 134.162395 
L 297.042796 135.293064 
L 299.109785 136.938509 
L 303.243763 137.58198 
L 305.310753 138.182552 
L 307.377742 138.626853 
L 309.444731 138.813766 
L 313.57871 138.841343 
L 315.645699 140.174246 
L 317.712688 141.850333 
L 323.913656 150.261409 
L 325.980645 151.686236 
L 328.047634 148.897864 
L 330.114624 146.621205 
L 332.181613 147.644629 
L 334.248602 149.274754 
L 336.315591 149.581169 
L 338.382581 148.361639 
L 340.44957 146.624269 
L 342.516559 145.901131 
L 344.583548 145.533434 
L 348.717527 148.830453 
L 350.784516 149.501501 
L 352.851505 151.667851 
L 354.918495 152.473721 
L 356.985484 149.909032 
L 359.052473 146.633462 
L 361.119462 145.297495 
L 363.186452 145.459895 
L 365.253441 146.140135 
L 367.32043 146.492511 
L 369.387419 147.090019 
L 371.454409 146.155455 
L 373.521398 144.822553 
L 375.588387 145.181057 
L 379.722366 146.357689 
L 381.789355 146.268829 
L 383.856344 145.741796 
L 385.923333 145.931773 
L 387.990323 146.354625 
L 390.057312 143.308865 
L 392.124301 142.101593 
L 394.19129 143.256775 
L 398.325269 140.793203 
L 400.392258 140.811588 
L 402.459247 140.483724 
L 404.526237 139.791228 
L 408.660215 143.244518 
L 410.727204 143.180171 
L 412.794194 142.686844 
L 414.861183 146.722322 
L 416.928172 146.970518 
L 418.995161 143.094375 
L 421.062151 144.479368 
L 423.12914 147.264676 
L 425.196129 148.913185 
L 427.263118 151.036637 
L 429.330108 152.228589 
L 431.397097 151.266448 
L 433.464086 150.858917 
L 437.598065 150.901815 
L 437.598065 150.901815 
" clip-path="url(#pbe71a9ed0b)" style="fill: none; stroke: #1f77b4; stroke-width: 1.5; stroke-linecap: square"/>
   </g>
   <g id="patch_8">
    <path d="M 65.54 177.75 
L 65.54 122.065 
" style="fill: none; stroke: #000000; stroke-width: 0.8; stroke-linejoin: miter; stroke-linecap: square"/>
   </g>
   <g id="patch_9">
    <path d="M 450 177.75 
L 450 122.065 
" style="fill: none; stroke: #000000; stroke-width: 0.8; stroke-linejoin: miter; stroke-linecap: square"/>
   </g>
   <g id="patch_10">
    <path d="M 65.54 177.75 
L 450 177.75 
" style="fill: none; stroke: #000000; stroke-width: 0.8; stroke-linejoin: miter; stroke-linecap: square"/>
   </g>
   <g id="patch_11">
    <path d="M 65.54 122.065 
L 450 122.065 
" style="fill: none; stroke: #000000; stroke-width: 0.8; stroke-linejoin: miter; stroke-linecap: square"/>
   </g>
  </g>
  <g id="axes_3">
   <g id="patch_12">
    <path d="M 65.54 247.735 
L 450 247.735 
L 450 192.05 
L 65.54 192.05 
z
" style="fill: #ffffff"/>
   </g>
   <g id="matplotlib.axis_5">
    <g id="xtick_17">
     <g id="line2d_25">
      <g>
       <use xlink:href="#mfc2718cb76" x="65.54" y="247.735" style="stroke: #000000; stroke-width: 0.8"/>
      </g>
     </g>
    </g>
    <g id="xtick_18">
     <g id="line2d_26">
      <g>
       <use xlink:href="#mfc2718cb76" x="117.214731" y="247.735" style="stroke: #000000; stroke-width: 0.8"/>
      </g>
     </g>
    </g>
    <g id="xtick_19">
     <g id="line2d_27">
      <g>
       <use xlink:href="#mfc2718cb76" x="168.889462" y="247.735" style="stroke: #000000; stroke-width: 0.8"/>
      </g>
     </g>
    </g>
    <g id="xtick_20">
     <g id="line2d_28">
      <g>
       <use xlink:href="#mfc2718cb76" x="220.564194" y="247.735" style="stroke: #000000; stroke-width: 0.8"/>
      </g>
     </g>
    </g>
    <g id="xtick_21">
     <g id="line2d_29">
      <g>
       <use xlink:href="#mfc2718cb76" x="272.238925" y="247.735" style="stroke: #000000; stroke-width: 0.8"/>
      </g>
     </g>
    </g>
    <g id="xtick_22">
     <g id="line2d_30">
      <g>
       <use xlink:href="#mfc2718cb76" x="323.913656" y="247.735" style="stroke: #000000; stroke-width: 0.8"/>
      </g>
     </g>
    </g>
    <g id="xtick_23">
     <g id="line2d_31">
      <g>
       <use xlink:href="#mfc2718cb76" x="375.588387" y="247.735" style="stroke: #000000; stroke-width: 0.8"/>
      </g>
     </g>
    </g>
    <g id="xtick_24">
     <g id="line2d_32">
      <g>
       <use xlink:href="#mfc2718cb76" x="427.263118" y="247.735" style="stroke: #000000; stroke-width: 0.8"/>
      </g>
     </g>
    </g>
   </g>
   <g id="matplotlib.axis_6">
    <g id="ytick_7">
     <g id="line2d_33">
      <g>
       <use xlink:href="#m43e2561a4f" x="65.54" y="233.956861" style="stroke: #000000; stroke-width: 0.8"/>
      </g>
     </g>
     <g id="text_9">
      <!-- 0 -->
      <g transform="translate(52.1775 237.75608) scale(0.1 -0.1)">
       <use xlink:href="#DejaVuSans-30"/>
      </g>
     </g>
    </g>
    <g id="ytick_8">
     <g id="line2d_34">
      <g>
       <use xlink:href="#m43e2561a4f" x="65.54" y="204.892857" style="stroke: #000000; stroke-width: 0.8"/>
      </g>
     </g>
     <g id="text_10">
      <!-- 2500 -->
      <g transform="translate(33.09 208.692076) scale(0.1 -0.1)">
       <use xlink:href="#DejaVuSans-32"/>
       <use xlink:href="#DejaVuSans-35" transform="translate(63.623047 0)"/>
       <use xlink:href="#DejaVuSans-30" transform="translate(127.246094 0)"/>
       <use xlink:href="#DejaVuSans-30" transform="translate(190.869141 0)"/>
      </g>
     </g>
    </g>
    <g id="text_11">
     <!-- Seasonal -->
     <g transform="translate(27.010313 242.493281) rotate(-90) scale(0.1 -0.1)">
      <defs>
       <path id="DejaVuSans-73" d="M 2834 3397 
L 2834 2853 
Q 2591 2978 2328 3040 
Q 2066 3103 1784 3103 
Q 1356 3103 1142 2972 
Q 928 2841 928 2578 
Q 928 2378 1081 2264 
Q 1234 2150 1697 2047 
L 1894 2003 
Q 2506 1872 2764 1633 
Q 3022 1394 3022 966 
Q 3022 478 2636 193 
Q 2250 -91 1575 -91 
Q 1294 -91 989 -36 
Q 684 19 347 128 
L 347 722 
Q 666 556 975 473 
Q 1284 391 1588 391 
Q 1994 391 2212 530 
Q 2431 669 2431 922 
Q 2431 1156 2273 1281 
Q 2116 1406 1581 1522 
L 1381 1569 
Q 847 1681 609 1914 
Q 372 2147 372 2553 
Q 372 3047 722 3315 
Q 1072 3584 1716 3584 
Q 2034 3584 2315 3537 
Q 2597 3491 2834 3397 
z
" transform="scale(0.015625)"/>
       <path id="DejaVuSans-6f" d="M 1959 3097 
Q 1497 3097 1228 2736 
Q 959 2375 959 1747 
Q 959 1119 1226 758 
Q 1494 397 1959 397 
Q 2419 397 2687 759 
Q 2956 1122 2956 1747 
Q 2956 2369 2687 2733 
Q 2419 3097 1959 3097 
z
M 1959 3584 
Q 2709 3584 3137 3096 
Q 3566 2609 3566 1747 
Q 3566 888 3137 398 
Q 2709 -91 1959 -91 
Q 1206 -91 779 398 
Q 353 888 353 1747 
Q 353 2609 779 3096 
Q 1206 3584 1959 3584 
z
" transform="scale(0.015625)"/>
      </defs>
      <use xlink:href="#DejaVuSans-53"/>
      <use xlink:href="#DejaVuSans-65" transform="translate(63.476562 0)"/>
      <use xlink:href="#DejaVuSans-61" transform="translate(125 0)"/>
      <use xlink:href="#DejaVuSans-73" transform="translate(186.279297 0)"/>
      <use xlink:href="#DejaVuSans-6f" transform="translate(238.378906 0)"/>
      <use xlink:href="#DejaVuSans-6e" transform="translate(299.560547 0)"/>
      <use xlink:href="#DejaVuSans-61" transform="translate(362.939453 0)"/>
      <use xlink:href="#DejaVuSans-6c" transform="translate(424.21875 0)"/>
     </g>
    </g>
   </g>
   <g id="line2d_35">
    <path d="M 65.54 243.888155 
L 67.606989 243.610187 
L 69.673978 240.843363 
L 71.740968 241.61221 
L 73.807957 243.541195 
L 75.874946 245.203864 
L 77.941935 239.368605 
L 80.008925 236.448609 
L 82.075914 236.917638 
L 84.142903 226.984175 
L 86.209892 214.483198 
L 88.276882 194.581136 
L 90.343871 243.888155 
L 92.41086 243.610187 
L 94.477849 240.843363 
L 96.544839 241.61221 
L 98.611828 243.541195 
L 100.678817 245.203864 
L 102.745806 239.368605 
L 104.812796 236.448609 
L 106.879785 236.917638 
L 108.946774 226.984175 
L 111.013763 214.483198 
L 113.080753 194.581136 
L 115.147742 243.888155 
L 117.214731 243.610187 
L 119.28172 240.843363 
L 121.34871 241.61221 
L 123.415699 243.541195 
L 125.482688 245.203864 
L 127.549677 239.368605 
L 129.616667 236.448609 
L 131.683656 236.917638 
L 133.750645 226.984175 
L 135.817634 214.483198 
L 137.884624 194.581136 
L 139.951613 243.888155 
L 142.018602 243.610187 
L 144.085591 240.843363 
L 146.152581 241.61221 
L 148.21957 243.541195 
L 150.286559 245.203864 
L 152.353548 239.368605 
L 154.420538 236.448609 
L 156.487527 236.917638 
L 158.554516 226.984175 
L 160.621505 214.483198 
L 162.688495 194.581136 
L 164.755484 243.888155 
L 166.822473 243.610187 
L 168.889462 240.843363 
L 170.956452 241.61221 
L 173.023441 243.541195 
L 175.09043 245.203864 
L 177.157419 239.368605 
L 179.224409 236.448609 
L 181.291398 236.917638 
L 183.358387 226.984175 
L 185.425376 214.483198 
L 187.492366 194.581136 
L 189.559355 243.888155 
L 191.626344 243.610187 
L 193.693333 240.843363 
L 195.760323 241.61221 
L 197.827312 243.541195 
L 199.894301 245.203864 
L 201.96129 239.368605 
L 204.02828 236.448609 
L 206.095269 236.917638 
L 208.162258 226.984175 
L 210.229247 214.483198 
L 212.296237 194.581136 
L 214.363226 243.888155 
L 216.430215 243.610187 
L 218.497204 240.843363 
L 220.564194 241.61221 
L 222.631183 243.541195 
L 224.698172 245.203864 
L 226.765161 239.368605 
L 228.832151 236.448609 
L 230.89914 236.917638 
L 232.966129 226.984175 
L 235.033118 214.483198 
L 237.100108 194.581136 
L 239.167097 243.888155 
L 241.234086 243.610187 
L 243.301075 240.843363 
L 245.368065 241.61221 
L 247.435054 243.541195 
L 249.502043 245.203864 
L 251.569032 239.368605 
L 253.636022 236.448609 
L 255.703011 236.917638 
L 257.77 226.984175 
L 259.836989 214.483198 
L 261.903978 194.581136 
L 263.970968 243.888155 
L 266.037957 243.610187 
L 268.104946 240.843363 
L 270.171935 241.61221 
L 272.238925 243.541195 
L 274.305914 245.203864 
L 276.372903 239.368605 
L 278.439892 236.448609 
L 280.506882 236.917638 
L 282.573871 226.984175 
L 284.64086 214.483198 
L 286.707849 194.581136 
L 288.774839 243.888155 
L 290.841828 243.610187 
L 292.908817 240.843363 
L 294.975806 241.61221 
L 297.042796 243.541195 
L 299.109785 245.203864 
L 301.176774 239.368605 
L 303.243763 236.448609 
L 305.310753 236.917638 
L 307.377742 226.984175 
L 309.444731 214.483198 
L 311.51172 194.581136 
L 313.57871 243.888155 
L 315.645699 243.610187 
L 317.712688 240.843363 
L 319.779677 241.61221 
L 321.846667 243.541195 
L 323.913656 245.203864 
L 325.980645 239.368605 
L 328.047634 236.448609 
L 330.114624 236.917638 
L 332.181613 226.984175 
L 334.248602 214.483198 
L 336.315591 194.581136 
L 338.382581 243.888155 
L 340.44957 243.610187 
L 342.516559 240.843363 
L 344.583548 241.61221 
L 346.650538 243.541195 
L 348.717527 245.203864 
L 350.784516 239.368605 
L 352.851505 236.448609 
L 354.918495 236.917638 
L 356.985484 226.984175 
L 359.052473 214.483198 
L 361.119462 194.581136 
L 363.186452 243.888155 
L 365.253441 243.610187 
L 367.32043 240.843363 
L 369.387419 241.61221 
L 371.454409 243.541195 
L 373.521398 245.203864 
L 375.588387 239.368605 
L 377.655376 236.448609 
L 379.722366 236.917638 
L 381.789355 226.984175 
L 383.856344 214.483198 
L 385.923333 194.581136 
L 387.990323 243.888155 
L 390.057312 243.610187 
L 392.124301 240.843363 
L 394.19129 241.61221 
L 396.25828 243.541195 
L 398.325269 245.203864 
L 400.392258 239.368605 
L 402.459247 236.448609 
L 404.526237 236.917638 
L 406.593226 226.984175 
L 408.660215 214.483198 
L 410.727204 194.581136 
L 412.794194 243.888155 
L 414.861183 243.610187 
L 416.928172 240.843363 
L 418.995161 241.61221 
L 421.062151 243.541195 
L 423.12914 245.203864 
L 425.196129 239.368605 
L 427.263118 236.448609 
L 429.330108 236.917638 
L 431.397097 226.984175 
L 433.464086 214.483198 
L 435.531075 194.581136 
L 437.598065 243.888155 
L 439.665054 243.610187 
L 441.732043 240.843363 
L 443.799032 241.61221 
L 445.866022 243.541195 
L 447.933011 245.203864 
L 450 239.368605 
L 450 239.368605 
" clip-path="url(#p825ddc4b85)" style="fill: none; stroke: #1f77b4; stroke-width: 1.5; stroke-linecap: square"/>
   </g>
   <g id="patch_13">
    <path d="M 65.54 247.735 
L 65.54 192.05 
" style="fill: none; stroke: #000000; stroke-width: 0.8; stroke-linejoin: miter; stroke-linecap: square"/>
   </g>
   <g id="patch_14">
    <path d="M 450 247.735 
L 450 192.05 
" style="fill: none; stroke: #000000; stroke-width: 0.8; stroke-linejoin: miter; stroke-linecap: square"/>
   </g>
   <g id="patch_15">
    <path d="M 65.54 247.735 
L 450 247.735 
" style="fill: none; stroke: #000000; stroke-width: 0.8; stroke-linejoin: miter; stroke-linecap: square"/>
   </g>
   <g id="patch_16">
    <path d="M 65.54 192.05 
L 450 192.05 
" style="fill: none; stroke: #000000; stroke-width: 0.8; stroke-linejoin: miter; stroke-linecap: square"/>
   </g>
  </g>
  <g id="axes_4">
   <g id="patch_17">
    <path d="M 65.54 317.72 
L 450 317.72 
L 450 262.035 
L 65.54 262.035 
z
" style="fill: #ffffff"/>
   </g>
   <g id="line2d_36">
    <path d="M 65.54 291.566279 
L 450 291.566279 
" clip-path="url(#pea6aef929d)" style="fill: none; stroke: #000000; stroke-width: 1.5; stroke-linecap: square"/>
   </g>
   <g id="matplotlib.axis_7">
    <g id="xtick_25">
     <g id="line2d_37">
      <g>
       <use xlink:href="#mfc2718cb76" x="65.54" y="317.72" style="stroke: #000000; stroke-width: 0.8"/>
      </g>
     </g>
     <g id="text_12">
      <!-- 0 -->
      <g transform="translate(62.35875 332.318437) scale(0.1 -0.1)">
       <use xlink:href="#DejaVuSans-30"/>
      </g>
     </g>
    </g>
    <g id="xtick_26">
     <g id="line2d_38">
      <g>
       <use xlink:href="#mfc2718cb76" x="117.214731" y="317.72" style="stroke: #000000; stroke-width: 0.8"/>
      </g>
     </g>
     <g id="text_13">
      <!-- 25 -->
      <g transform="translate(110.852231 332.318437) scale(0.1 -0.1)">
       <use xlink:href="#DejaVuSans-32"/>
       <use xlink:href="#DejaVuSans-35" transform="translate(63.623047 0)"/>
      </g>
     </g>
    </g>
    <g id="xtick_27">
     <g id="line2d_39">
      <g>
       <use xlink:href="#mfc2718cb76" x="168.889462" y="317.72" style="stroke: #000000; stroke-width: 0.8"/>
      </g>
     </g>
     <g id="text_14">
      <!-- 50 -->
      <g transform="translate(162.526962 332.318437) scale(0.1 -0.1)">
       <use xlink:href="#DejaVuSans-35"/>
       <use xlink:href="#DejaVuSans-30" transform="translate(63.623047 0)"/>
      </g>
     </g>
    </g>
    <g id="xtick_28">
     <g id="line2d_40">
      <g>
       <use xlink:href="#mfc2718cb76" x="220.564194" y="317.72" style="stroke: #000000; stroke-width: 0.8"/>
      </g>
     </g>
     <g id="text_15">
      <!-- 75 -->
      <g transform="translate(214.201694 332.318437) scale(0.1 -0.1)">
       <use xlink:href="#DejaVuSans-37"/>
       <use xlink:href="#DejaVuSans-35" transform="translate(63.623047 0)"/>
      </g>
     </g>
    </g>
    <g id="xtick_29">
     <g id="line2d_41">
      <g>
       <use xlink:href="#mfc2718cb76" x="272.238925" y="317.72" style="stroke: #000000; stroke-width: 0.8"/>
      </g>
     </g>
     <g id="text_16">
      <!-- 100 -->
      <g transform="translate(262.695175 332.318437) scale(0.1 -0.1)">
       <defs>
        <path id="DejaVuSans-31" d="M 794 531 
L 1825 531 
L 1825 4091 
L 703 3866 
L 703 4441 
L 1819 4666 
L 2450 4666 
L 2450 531 
L 3481 531 
L 3481 0 
L 794 0 
L 794 531 
z
" transform="scale(0.015625)"/>
       </defs>
       <use xlink:href="#DejaVuSans-31"/>
       <use xlink:href="#DejaVuSans-30" transform="translate(63.623047 0)"/>
       <use xlink:href="#DejaVuSans-30" transform="translate(127.246094 0)"/>
      </g>
     </g>
    </g>
    <g id="xtick_30">
     <g id="line2d_42">
      <g>
       <use xlink:href="#mfc2718cb76" x="323.913656" y="317.72" style="stroke: #000000; stroke-width: 0.8"/>
      </g>
     </g>
     <g id="text_17">
      <!-- 125 -->
      <g transform="translate(314.369906 332.318437) scale(0.1 -0.1)">
       <use xlink:href="#DejaVuSans-31"/>
       <use xlink:href="#DejaVuSans-32" transform="translate(63.623047 0)"/>
       <use xlink:href="#DejaVuSans-35" transform="translate(127.246094 0)"/>
      </g>
     </g>
    </g>
    <g id="xtick_31">
     <g id="line2d_43">
      <g>
       <use xlink:href="#mfc2718cb76" x="375.588387" y="317.72" style="stroke: #000000; stroke-width: 0.8"/>
      </g>
     </g>
     <g id="text_18">
      <!-- 150 -->
      <g transform="translate(366.044637 332.318437) scale(0.1 -0.1)">
       <use xlink:href="#DejaVuSans-31"/>
       <use xlink:href="#DejaVuSans-35" transform="translate(63.623047 0)"/>
       <use xlink:href="#DejaVuSans-30" transform="translate(127.246094 0)"/>
      </g>
     </g>
    </g>
    <g id="xtick_32">
     <g id="line2d_44">
      <g>
       <use xlink:href="#mfc2718cb76" x="427.263118" y="317.72" style="stroke: #000000; stroke-width: 0.8"/>
      </g>
     </g>
     <g id="text_19">
      <!-- 175 -->
      <g transform="translate(417.719368 332.318437) scale(0.1 -0.1)">
       <use xlink:href="#DejaVuSans-31"/>
       <use xlink:href="#DejaVuSans-37" transform="translate(63.623047 0)"/>
       <use xlink:href="#DejaVuSans-35" transform="translate(127.246094 0)"/>
      </g>
     </g>
    </g>
   </g>
   <g id="matplotlib.axis_8">
    <g id="ytick_9">
     <g id="line2d_45">
      <g>
       <use xlink:href="#m43e2561a4f" x="65.54" y="315.002727" style="stroke: #000000; stroke-width: 0.8"/>
      </g>
     </g>
     <g id="text_20">
      <!-- −1000 -->
      <g transform="translate(24.710313 318.801946) scale(0.1 -0.1)">
       <defs>
        <path id="DejaVuSans-2212" d="M 678 2272 
L 4684 2272 
L 4684 1741 
L 678 1741 
L 678 2272 
z
" transform="scale(0.015625)"/>
       </defs>
       <use xlink:href="#DejaVuSans-2212"/>
       <use xlink:href="#DejaVuSans-31" transform="translate(83.789062 0)"/>
       <use xlink:href="#DejaVuSans-30" transform="translate(147.412109 0)"/>
       <use xlink:href="#DejaVuSans-30" transform="translate(211.035156 0)"/>
       <use xlink:href="#DejaVuSans-30" transform="translate(274.658203 0)"/>
      </g>
     </g>
    </g>
    <g id="ytick_10">
     <g id="line2d_46">
      <g>
       <use xlink:href="#m43e2561a4f" x="65.54" y="291.566279" style="stroke: #000000; stroke-width: 0.8"/>
      </g>
     </g>
     <g id="text_21">
      <!-- 0 -->
      <g transform="translate(52.1775 295.365498) scale(0.1 -0.1)">
       <use xlink:href="#DejaVuSans-30"/>
      </g>
     </g>
    </g>
    <g id="ytick_11">
     <g id="line2d_47">
      <g>
       <use xlink:href="#m43e2561a4f" x="65.54" y="268.129832" style="stroke: #000000; stroke-width: 0.8"/>
      </g>
     </g>
     <g id="text_22">
      <!-- 1000 -->
      <g transform="translate(33.09 271.92905) scale(0.1 -0.1)">
       <use xlink:href="#DejaVuSans-31"/>
       <use xlink:href="#DejaVuSans-30" transform="translate(63.623047 0)"/>
       <use xlink:href="#DejaVuSans-30" transform="translate(127.246094 0)"/>
       <use xlink:href="#DejaVuSans-30" transform="translate(190.869141 0)"/>
      </g>
     </g>
    </g>
    <g id="text_23">
     <!-- Resid -->
     <g transform="translate(18.630625 303.37125) rotate(-90) scale(0.1 -0.1)">
      <defs>
       <path id="DejaVuSans-52" d="M 2841 2188 
Q 3044 2119 3236 1894 
Q 3428 1669 3622 1275 
L 4263 0 
L 3584 0 
L 2988 1197 
Q 2756 1666 2539 1819 
Q 2322 1972 1947 1972 
L 1259 1972 
L 1259 0 
L 628 0 
L 628 4666 
L 2053 4666 
Q 2853 4666 3247 4331 
Q 3641 3997 3641 3322 
Q 3641 2881 3436 2590 
Q 3231 2300 2841 2188 
z
M 1259 4147 
L 1259 2491 
L 2053 2491 
Q 2509 2491 2742 2702 
Q 2975 2913 2975 3322 
Q 2975 3731 2742 3939 
Q 2509 4147 2053 4147 
L 1259 4147 
z
" transform="scale(0.015625)"/>
      </defs>
      <use xlink:href="#DejaVuSans-52"/>
      <use xlink:href="#DejaVuSans-65" transform="translate(64.982422 0)"/>
      <use xlink:href="#DejaVuSans-73" transform="translate(126.505859 0)"/>
      <use xlink:href="#DejaVuSans-69" transform="translate(178.605469 0)"/>
      <use xlink:href="#DejaVuSans-64" transform="translate(206.388672 0)"/>
     </g>
    </g>
   </g>
   <g id="line2d_48">
    <defs>
     <path id="mb3a0a0bf42" d="M 0 3 
C 0.795609 3 1.55874 2.683901 2.12132 2.12132 
C 2.683901 1.55874 3 0.795609 3 0 
C 3 -0.795609 2.683901 -1.55874 2.12132 -2.12132 
C 1.55874 -2.683901 0.795609 -3 0 -3 
C -0.795609 -3 -1.55874 -2.683901 -2.12132 -2.12132 
C -2.683901 -1.55874 -3 -0.795609 -3 0 
C -3 0.795609 -2.683901 1.55874 -2.12132 2.12132 
C -1.55874 2.683901 -0.795609 3 0 3 
z
" style="stroke: #1f77b4"/>
    </defs>
    <g clip-path="url(#pea6aef929d)">
     <use xlink:href="#mb3a0a0bf42" x="77.941935" y="289.906145" style="fill: #1f77b4; stroke: #1f77b4"/>
     <use xlink:href="#mb3a0a0bf42" x="80.008925" y="284.160374" style="fill: #1f77b4; stroke: #1f77b4"/>
     <use xlink:href="#mb3a0a0bf42" x="82.075914" y="293.48489" style="fill: #1f77b4; stroke: #1f77b4"/>
     <use xlink:href="#mb3a0a0bf42" x="84.142903" y="298.769549" style="fill: #1f77b4; stroke: #1f77b4"/>
     <use xlink:href="#mb3a0a0bf42" x="86.209892" y="288.990821" style="fill: #1f77b4; stroke: #1f77b4"/>
     <use xlink:href="#mb3a0a0bf42" x="88.276882" y="303.326115" style="fill: #1f77b4; stroke: #1f77b4"/>
     <use xlink:href="#mb3a0a0bf42" x="90.343871" y="289.365934" style="fill: #1f77b4; stroke: #1f77b4"/>
     <use xlink:href="#mb3a0a0bf42" x="92.41086" y="289.928251" style="fill: #1f77b4; stroke: #1f77b4"/>
     <use xlink:href="#mb3a0a0bf42" x="94.477849" y="292.943601" style="fill: #1f77b4; stroke: #1f77b4"/>
     <use xlink:href="#mb3a0a0bf42" x="96.544839" y="283.03661" style="fill: #1f77b4; stroke: #1f77b4"/>
     <use xlink:href="#mb3a0a0bf42" x="98.611828" y="297.497666" style="fill: #1f77b4; stroke: #1f77b4"/>
     <use xlink:href="#mb3a0a0bf42" x="100.678817" y="286.042683" style="fill: #1f77b4; stroke: #1f77b4"/>
     <use xlink:href="#mb3a0a0bf42" x="102.745806" y="290.119026" style="fill: #1f77b4; stroke: #1f77b4"/>
     <use xlink:href="#mb3a0a0bf42" x="104.812796" y="279.601985" style="fill: #1f77b4; stroke: #1f77b4"/>
     <use xlink:href="#mb3a0a0bf42" x="106.879785" y="289.862006" style="fill: #1f77b4; stroke: #1f77b4"/>
     <use xlink:href="#mb3a0a0bf42" x="108.946774" y="302.749839" style="fill: #1f77b4; stroke: #1f77b4"/>
     <use xlink:href="#mb3a0a0bf42" x="111.013763" y="291.004403" style="fill: #1f77b4; stroke: #1f77b4"/>
     <use xlink:href="#mb3a0a0bf42" x="113.080753" y="315.188864" style="fill: #1f77b4; stroke: #1f77b4"/>
     <use xlink:href="#mb3a0a0bf42" x="115.147742" y="287.198063" style="fill: #1f77b4; stroke: #1f77b4"/>
     <use xlink:href="#mb3a0a0bf42" x="117.214731" y="291.607863" style="fill: #1f77b4; stroke: #1f77b4"/>
     <use xlink:href="#mb3a0a0bf42" x="119.28172" y="291.926069" style="fill: #1f77b4; stroke: #1f77b4"/>
     <use xlink:href="#mb3a0a0bf42" x="121.34871" y="283.968209" style="fill: #1f77b4; stroke: #1f77b4"/>
     <use xlink:href="#mb3a0a0bf42" x="123.415699" y="285.986464" style="fill: #1f77b4; stroke: #1f77b4"/>
     <use xlink:href="#mb3a0a0bf42" x="125.482688" y="284.412874" style="fill: #1f77b4; stroke: #1f77b4"/>
     <use xlink:href="#mb3a0a0bf42" x="127.549677" y="284.411274" style="fill: #1f77b4; stroke: #1f77b4"/>
     <use xlink:href="#mb3a0a0bf42" x="129.616667" y="292.032091" style="fill: #1f77b4; stroke: #1f77b4"/>
     <use xlink:href="#mb3a0a0bf42" x="131.683656" y="296.364644" style="fill: #1f77b4; stroke: #1f77b4"/>
     <use xlink:href="#mb3a0a0bf42" x="133.750645" y="297.547924" style="fill: #1f77b4; stroke: #1f77b4"/>
     <use xlink:href="#mb3a0a0bf42" x="135.817634" y="296.843984" style="fill: #1f77b4; stroke: #1f77b4"/>
     <use xlink:href="#mb3a0a0bf42" x="137.884624" y="314.734782" style="fill: #1f77b4; stroke: #1f77b4"/>
     <use xlink:href="#mb3a0a0bf42" x="139.951613" y="283.107426" style="fill: #1f77b4; stroke: #1f77b4"/>
     <use xlink:href="#mb3a0a0bf42" x="142.018602" y="283.034029" style="fill: #1f77b4; stroke: #1f77b4"/>
     <use xlink:href="#mb3a0a0bf42" x="144.085591" y="280.289872" style="fill: #1f77b4; stroke: #1f77b4"/>
     <use xlink:href="#mb3a0a0bf42" x="146.152581" y="294.561483" style="fill: #1f77b4; stroke: #1f77b4"/>
     <use xlink:href="#mb3a0a0bf42" x="148.21957" y="291.809445" style="fill: #1f77b4; stroke: #1f77b4"/>
     <use xlink:href="#mb3a0a0bf42" x="150.286559" y="290.455571" style="fill: #1f77b4; stroke: #1f77b4"/>
     <use xlink:href="#mb3a0a0bf42" x="152.353548" y="294.28876" style="fill: #1f77b4; stroke: #1f77b4"/>
     <use xlink:href="#mb3a0a0bf42" x="154.420538" y="283.618406" style="fill: #1f77b4; stroke: #1f77b4"/>
     <use xlink:href="#mb3a0a0bf42" x="156.487527" y="285.012614" style="fill: #1f77b4; stroke: #1f77b4"/>
     <use xlink:href="#mb3a0a0bf42" x="158.554516" y="297.972709" style="fill: #1f77b4; stroke: #1f77b4"/>
     <use xlink:href="#mb3a0a0bf42" x="160.621505" y="302.046876" style="fill: #1f77b4; stroke: #1f77b4"/>
     <use xlink:href="#mb3a0a0bf42" x="162.688495" y="307.808336" style="fill: #1f77b4; stroke: #1f77b4"/>
     <use xlink:href="#mb3a0a0bf42" x="164.755484" y="286.229356" style="fill: #1f77b4; stroke: #1f77b4"/>
     <use xlink:href="#mb3a0a0bf42" x="166.822473" y="291.705515" style="fill: #1f77b4; stroke: #1f77b4"/>
     <use xlink:href="#mb3a0a0bf42" x="168.889462" y="283.03096" style="fill: #1f77b4; stroke: #1f77b4"/>
     <use xlink:href="#mb3a0a0bf42" x="170.956452" y="287.427038" style="fill: #1f77b4; stroke: #1f77b4"/>
     <use xlink:href="#mb3a0a0bf42" x="173.023441" y="289.547827" style="fill: #1f77b4; stroke: #1f77b4"/>
     <use xlink:href="#mb3a0a0bf42" x="175.09043" y="291.172336" style="fill: #1f77b4; stroke: #1f77b4"/>
     <use xlink:href="#mb3a0a0bf42" x="177.157419" y="298.913553" style="fill: #1f77b4; stroke: #1f77b4"/>
     <use xlink:href="#mb3a0a0bf42" x="179.224409" y="268.591737" style="fill: #1f77b4; stroke: #1f77b4"/>
     <use xlink:href="#mb3a0a0bf42" x="181.291398" y="300.488482" style="fill: #1f77b4; stroke: #1f77b4"/>
     <use xlink:href="#mb3a0a0bf42" x="183.358387" y="302.648281" style="fill: #1f77b4; stroke: #1f77b4"/>
     <use xlink:href="#mb3a0a0bf42" x="185.425376" y="286.516323" style="fill: #1f77b4; stroke: #1f77b4"/>
     <use xlink:href="#mb3a0a0bf42" x="187.492366" y="303.474546" style="fill: #1f77b4; stroke: #1f77b4"/>
     <use xlink:href="#mb3a0a0bf42" x="189.559355" y="286.195178" style="fill: #1f77b4; stroke: #1f77b4"/>
     <use xlink:href="#mb3a0a0bf42" x="191.626344" y="288.256451" style="fill: #1f77b4; stroke: #1f77b4"/>
     <use xlink:href="#mb3a0a0bf42" x="193.693333" y="289.370519" style="fill: #1f77b4; stroke: #1f77b4"/>
     <use xlink:href="#mb3a0a0bf42" x="195.760323" y="295.049743" style="fill: #1f77b4; stroke: #1f77b4"/>
     <use xlink:href="#mb3a0a0bf42" x="197.827312" y="285.272629" style="fill: #1f77b4; stroke: #1f77b4"/>
     <use xlink:href="#mb3a0a0bf42" x="199.894301" y="294.305984" style="fill: #1f77b4; stroke: #1f77b4"/>
     <use xlink:href="#mb3a0a0bf42" x="201.96129" y="299.830504" style="fill: #1f77b4; stroke: #1f77b4"/>
     <use xlink:href="#mb3a0a0bf42" x="204.02828" y="285.081231" style="fill: #1f77b4; stroke: #1f77b4"/>
     <use xlink:href="#mb3a0a0bf42" x="206.095269" y="301.084158" style="fill: #1f77b4; stroke: #1f77b4"/>
     <use xlink:href="#mb3a0a0bf42" x="208.162258" y="275.020615" style="fill: #1f77b4; stroke: #1f77b4"/>
     <use xlink:href="#mb3a0a0bf42" x="210.229247" y="284.617971" style="fill: #1f77b4; stroke: #1f77b4"/>
     <use xlink:href="#mb3a0a0bf42" x="212.296237" y="300.120204" style="fill: #1f77b4; stroke: #1f77b4"/>
     <use xlink:href="#mb3a0a0bf42" x="214.363226" y="291.37561" style="fill: #1f77b4; stroke: #1f77b4"/>
     <use xlink:href="#mb3a0a0bf42" x="216.430215" y="295.585224" style="fill: #1f77b4; stroke: #1f77b4"/>
     <use xlink:href="#mb3a0a0bf42" x="218.497204" y="300.480372" style="fill: #1f77b4; stroke: #1f77b4"/>
     <use xlink:href="#mb3a0a0bf42" x="220.564194" y="296.724472" style="fill: #1f77b4; stroke: #1f77b4"/>
     <use xlink:href="#mb3a0a0bf42" x="222.631183" y="287.348707" style="fill: #1f77b4; stroke: #1f77b4"/>
     <use xlink:href="#mb3a0a0bf42" x="224.698172" y="292.535556" style="fill: #1f77b4; stroke: #1f77b4"/>
     <use xlink:href="#mb3a0a0bf42" x="226.765161" y="276.854973" style="fill: #1f77b4; stroke: #1f77b4"/>
     <use xlink:href="#mb3a0a0bf42" x="228.832151" y="265.248137" style="fill: #1f77b4; stroke: #1f77b4"/>
     <use xlink:href="#mb3a0a0bf42" x="230.89914" y="305.349592" style="fill: #1f77b4; stroke: #1f77b4"/>
     <use xlink:href="#mb3a0a0bf42" x="232.966129" y="307.224247" style="fill: #1f77b4; stroke: #1f77b4"/>
     <use xlink:href="#mb3a0a0bf42" x="235.033118" y="294.117544" style="fill: #1f77b4; stroke: #1f77b4"/>
     <use xlink:href="#mb3a0a0bf42" x="237.100108" y="289.225186" style="fill: #1f77b4; stroke: #1f77b4"/>
     <use xlink:href="#mb3a0a0bf42" x="239.167097" y="294.467268" style="fill: #1f77b4; stroke: #1f77b4"/>
     <use xlink:href="#mb3a0a0bf42" x="241.234086" y="291.710398" style="fill: #1f77b4; stroke: #1f77b4"/>
     <use xlink:href="#mb3a0a0bf42" x="243.301075" y="294.499195" style="fill: #1f77b4; stroke: #1f77b4"/>
     <use xlink:href="#mb3a0a0bf42" x="245.368065" y="285.677117" style="fill: #1f77b4; stroke: #1f77b4"/>
     <use xlink:href="#mb3a0a0bf42" x="247.435054" y="292.71663" style="fill: #1f77b4; stroke: #1f77b4"/>
     <use xlink:href="#mb3a0a0bf42" x="249.502043" y="297.373229" style="fill: #1f77b4; stroke: #1f77b4"/>
     <use xlink:href="#mb3a0a0bf42" x="251.569032" y="296.917549" style="fill: #1f77b4; stroke: #1f77b4"/>
     <use xlink:href="#mb3a0a0bf42" x="253.636022" y="301.641034" style="fill: #1f77b4; stroke: #1f77b4"/>
     <use xlink:href="#mb3a0a0bf42" x="255.703011" y="284.978436" style="fill: #1f77b4; stroke: #1f77b4"/>
     <use xlink:href="#mb3a0a0bf42" x="257.77" y="294.786329" style="fill: #1f77b4; stroke: #1f77b4"/>
     <use xlink:href="#mb3a0a0bf42" x="259.836989" y="290.327675" style="fill: #1f77b4; stroke: #1f77b4"/>
     <use xlink:href="#mb3a0a0bf42" x="261.903978" y="264.566136" style="fill: #1f77b4; stroke: #1f77b4"/>
     <use xlink:href="#mb3a0a0bf42" x="263.970968" y="292.240805" style="fill: #1f77b4; stroke: #1f77b4"/>
     <use xlink:href="#mb3a0a0bf42" x="266.037957" y="294.631165" style="fill: #1f77b4; stroke: #1f77b4"/>
     <use xlink:href="#mb3a0a0bf42" x="268.104946" y="292.008096" style="fill: #1f77b4; stroke: #1f77b4"/>
     <use xlink:href="#mb3a0a0bf42" x="270.171935" y="285.514038" style="fill: #1f77b4; stroke: #1f77b4"/>
     <use xlink:href="#mb3a0a0bf42" x="272.238925" y="297.055303" style="fill: #1f77b4; stroke: #1f77b4"/>
     <use xlink:href="#mb3a0a0bf42" x="274.305914" y="295.369413" style="fill: #1f77b4; stroke: #1f77b4"/>
     <use xlink:href="#mb3a0a0bf42" x="276.372903" y="293.230214" style="fill: #1f77b4; stroke: #1f77b4"/>
     <use xlink:href="#mb3a0a0bf42" x="278.439892" y="312.35735" style="fill: #1f77b4; stroke: #1f77b4"/>
     <use xlink:href="#mb3a0a0bf42" x="280.506882" y="292.726135" style="fill: #1f77b4; stroke: #1f77b4"/>
     <use xlink:href="#mb3a0a0bf42" x="282.573871" y="281.045735" style="fill: #1f77b4; stroke: #1f77b4"/>
     <use xlink:href="#mb3a0a0bf42" x="284.64086" y="276.256041" style="fill: #1f77b4; stroke: #1f77b4"/>
     <use xlink:href="#mb3a0a0bf42" x="286.707849" y="274.596936" style="fill: #1f77b4; stroke: #1f77b4"/>
     <use xlink:href="#mb3a0a0bf42" x="288.774839" y="291.87754" style="fill: #1f77b4; stroke: #1f77b4"/>
     <use xlink:href="#mb3a0a0bf42" x="290.841828" y="301.007832" style="fill: #1f77b4; stroke: #1f77b4"/>
     <use xlink:href="#mb3a0a0bf42" x="292.908817" y="293.30296" style="fill: #1f77b4; stroke: #1f77b4"/>
     <use xlink:href="#mb3a0a0bf42" x="294.975806" y="299.81906" style="fill: #1f77b4; stroke: #1f77b4"/>
     <use xlink:href="#mb3a0a0bf42" x="297.042796" y="295.476272" style="fill: #1f77b4; stroke: #1f77b4"/>
     <use xlink:href="#mb3a0a0bf42" x="299.109785" y="297.41229" style="fill: #1f77b4; stroke: #1f77b4"/>
     <use xlink:href="#mb3a0a0bf42" x="301.176774" y="295.836542" style="fill: #1f77b4; stroke: #1f77b4"/>
     <use xlink:href="#mb3a0a0bf42" x="303.243763" y="301.685954" style="fill: #1f77b4; stroke: #1f77b4"/>
     <use xlink:href="#mb3a0a0bf42" x="305.310753" y="285.5497" style="fill: #1f77b4; stroke: #1f77b4"/>
     <use xlink:href="#mb3a0a0bf42" x="307.377742" y="276.442426" style="fill: #1f77b4; stroke: #1f77b4"/>
     <use xlink:href="#mb3a0a0bf42" x="309.444731" y="285.905022" style="fill: #1f77b4; stroke: #1f77b4"/>
     <use xlink:href="#mb3a0a0bf42" x="311.51172" y="274.94653" style="fill: #1f77b4; stroke: #1f77b4"/>
     <use xlink:href="#mb3a0a0bf42" x="313.57871" y="292.09921" style="fill: #1f77b4; stroke: #1f77b4"/>
     <use xlink:href="#mb3a0a0bf42" x="315.645699" y="301.585931" style="fill: #1f77b4; stroke: #1f77b4"/>
     <use xlink:href="#mb3a0a0bf42" x="317.712688" y="294.020701" style="fill: #1f77b4; stroke: #1f77b4"/>
     <use xlink:href="#mb3a0a0bf42" x="319.779677" y="296.993015" style="fill: #1f77b4; stroke: #1f77b4"/>
     <use xlink:href="#mb3a0a0bf42" x="321.846667" y="292.474454" style="fill: #1f77b4; stroke: #1f77b4"/>
     <use xlink:href="#mb3a0a0bf42" x="323.913656" y="291.971128" style="fill: #1f77b4; stroke: #1f77b4"/>
     <use xlink:href="#mb3a0a0bf42" x="325.980645" y="292.921634" style="fill: #1f77b4; stroke: #1f77b4"/>
     <use xlink:href="#mb3a0a0bf42" x="328.047634" y="306.587101" style="fill: #1f77b4; stroke: #1f77b4"/>
     <use xlink:href="#mb3a0a0bf42" x="330.114624" y="287.172674" style="fill: #1f77b4; stroke: #1f77b4"/>
     <use xlink:href="#mb3a0a0bf42" x="332.181613" y="290.653702" style="fill: #1f77b4; stroke: #1f77b4"/>
     <use xlink:href="#mb3a0a0bf42" x="334.248602" y="287.914697" style="fill: #1f77b4; stroke: #1f77b4"/>
     <use xlink:href="#mb3a0a0bf42" x="336.315591" y="286.666707" style="fill: #1f77b4; stroke: #1f77b4"/>
     <use xlink:href="#mb3a0a0bf42" x="338.382581" y="284.799733" style="fill: #1f77b4; stroke: #1f77b4"/>
     <use xlink:href="#mb3a0a0bf42" x="340.44957" y="282.468625" style="fill: #1f77b4; stroke: #1f77b4"/>
     <use xlink:href="#mb3a0a0bf42" x="342.516559" y="292.378197" style="fill: #1f77b4; stroke: #1f77b4"/>
     <use xlink:href="#mb3a0a0bf42" x="344.583548" y="304.890121" style="fill: #1f77b4; stroke: #1f77b4"/>
     <use xlink:href="#mb3a0a0bf42" x="346.650538" y="296.904919" style="fill: #1f77b4; stroke: #1f77b4"/>
     <use xlink:href="#mb3a0a0bf42" x="348.717527" y="290.481937" style="fill: #1f77b4; stroke: #1f77b4"/>
     <use xlink:href="#mb3a0a0bf42" x="350.784516" y="286.235411" style="fill: #1f77b4; stroke: #1f77b4"/>
     <use xlink:href="#mb3a0a0bf42" x="352.851505" y="299.798344" style="fill: #1f77b4; stroke: #1f77b4"/>
     <use xlink:href="#mb3a0a0bf42" x="354.918495" y="285.682506" style="fill: #1f77b4; stroke: #1f77b4"/>
     <use xlink:href="#mb3a0a0bf42" x="356.985484" y="286.744698" style="fill: #1f77b4; stroke: #1f77b4"/>
     <use xlink:href="#mb3a0a0bf42" x="359.052473" y="304.201076" style="fill: #1f77b4; stroke: #1f77b4"/>
     <use xlink:href="#mb3a0a0bf42" x="361.119462" y="285.547616" style="fill: #1f77b4; stroke: #1f77b4"/>
     <use xlink:href="#mb3a0a0bf42" x="363.186452" y="293.341342" style="fill: #1f77b4; stroke: #1f77b4"/>
     <use xlink:href="#mb3a0a0bf42" x="365.253441" y="291.575638" style="fill: #1f77b4; stroke: #1f77b4"/>
     <use xlink:href="#mb3a0a0bf42" x="367.32043" y="289.400791" style="fill: #1f77b4; stroke: #1f77b4"/>
     <use xlink:href="#mb3a0a0bf42" x="369.387419" y="287.56668" style="fill: #1f77b4; stroke: #1f77b4"/>
     <use xlink:href="#mb3a0a0bf42" x="371.454409" y="288.991212" style="fill: #1f77b4; stroke: #1f77b4"/>
     <use xlink:href="#mb3a0a0bf42" x="373.521398" y="289.767125" style="fill: #1f77b4; stroke: #1f77b4"/>
     <use xlink:href="#mb3a0a0bf42" x="375.588387" y="290.846532" style="fill: #1f77b4; stroke: #1f77b4"/>
     <use xlink:href="#mb3a0a0bf42" x="377.655376" y="303.652663" style="fill: #1f77b4; stroke: #1f77b4"/>
     <use xlink:href="#mb3a0a0bf42" x="379.722366" y="288.358167" style="fill: #1f77b4; stroke: #1f77b4"/>
     <use xlink:href="#mb3a0a0bf42" x="381.789355" y="291.74838" style="fill: #1f77b4; stroke: #1f77b4"/>
     <use xlink:href="#mb3a0a0bf42" x="383.856344" y="293.493549" style="fill: #1f77b4; stroke: #1f77b4"/>
     <use xlink:href="#mb3a0a0bf42" x="385.923333" y="286.142316" style="fill: #1f77b4; stroke: #1f77b4"/>
     <use xlink:href="#mb3a0a0bf42" x="387.990323" y="295.001424" style="fill: #1f77b4; stroke: #1f77b4"/>
     <use xlink:href="#mb3a0a0bf42" x="390.057312" y="294.891895" style="fill: #1f77b4; stroke: #1f77b4"/>
     <use xlink:href="#mb3a0a0bf42" x="392.124301" y="293.026605" style="fill: #1f77b4; stroke: #1f77b4"/>
     <use xlink:href="#mb3a0a0bf42" x="394.19129" y="285.882186" style="fill: #1f77b4; stroke: #1f77b4"/>
     <use xlink:href="#mb3a0a0bf42" x="396.25828" y="289.163079" style="fill: #1f77b4; stroke: #1f77b4"/>
     <use xlink:href="#mb3a0a0bf42" x="398.325269" y="293.629257" style="fill: #1f77b4; stroke: #1f77b4"/>
     <use xlink:href="#mb3a0a0bf42" x="400.392258" y="292.895268" style="fill: #1f77b4; stroke: #1f77b4"/>
     <use xlink:href="#mb3a0a0bf42" x="402.459247" y="281.379249" style="fill: #1f77b4; stroke: #1f77b4"/>
     <use xlink:href="#mb3a0a0bf42" x="404.526237" y="305.168936" style="fill: #1f77b4; stroke: #1f77b4"/>
     <use xlink:href="#mb3a0a0bf42" x="406.593226" y="287.36967" style="fill: #1f77b4; stroke: #1f77b4"/>
     <use xlink:href="#mb3a0a0bf42" x="408.660215" y="291.219237" style="fill: #1f77b4; stroke: #1f77b4"/>
     <use xlink:href="#mb3a0a0bf42" x="410.727204" y="280.199224" style="fill: #1f77b4; stroke: #1f77b4"/>
     <use xlink:href="#mb3a0a0bf42" x="412.794194" y="303.130941" style="fill: #1f77b4; stroke: #1f77b4"/>
     <use xlink:href="#mb3a0a0bf42" x="414.861183" y="284.335729" style="fill: #1f77b4; stroke: #1f77b4"/>
     <use xlink:href="#mb3a0a0bf42" x="416.928172" y="295.646605" style="fill: #1f77b4; stroke: #1f77b4"/>
     <use xlink:href="#mb3a0a0bf42" x="418.995161" y="295.214774" style="fill: #1f77b4; stroke: #1f77b4"/>
     <use xlink:href="#mb3a0a0bf42" x="421.062151" y="292.07994" style="fill: #1f77b4; stroke: #1f77b4"/>
     <use xlink:href="#mb3a0a0bf42" x="423.12914" y="287.395162" style="fill: #1f77b4; stroke: #1f77b4"/>
     <use xlink:href="#mb3a0a0bf42" x="425.196129" y="290.711772" style="fill: #1f77b4; stroke: #1f77b4"/>
     <use xlink:href="#mb3a0a0bf42" x="427.263118" y="308.483501" style="fill: #1f77b4; stroke: #1f77b4"/>
     <use xlink:href="#mb3a0a0bf42" x="429.330108" y="272.636217" style="fill: #1f77b4; stroke: #1f77b4"/>
     <use xlink:href="#mb3a0a0bf42" x="431.397097" y="283.195053" style="fill: #1f77b4; stroke: #1f77b4"/>
     <use xlink:href="#mb3a0a0bf42" x="433.464086" y="300.463939" style="fill: #1f77b4; stroke: #1f77b4"/>
     <use xlink:href="#mb3a0a0bf42" x="435.531075" y="287.375659" style="fill: #1f77b4; stroke: #1f77b4"/>
     <use xlink:href="#mb3a0a0bf42" x="437.598065" y="303.489324" style="fill: #1f77b4; stroke: #1f77b4"/>
    </g>
   </g>
   <g id="patch_18">
    <path d="M 65.54 317.72 
L 65.54 262.035 
" style="fill: none; stroke: #000000; stroke-width: 0.8; stroke-linejoin: miter; stroke-linecap: square"/>
   </g>
   <g id="patch_19">
    <path d="M 450 317.72 
L 450 262.035 
" style="fill: none; stroke: #000000; stroke-width: 0.8; stroke-linejoin: miter; stroke-linecap: square"/>
   </g>
   <g id="patch_20">
    <path d="M 65.54 317.72 
L 450 317.72 
" style="fill: none; stroke: #000000; stroke-width: 0.8; stroke-linejoin: miter; stroke-linecap: square"/>
   </g>
   <g id="patch_21">
    <path d="M 65.54 262.035 
L 450 262.035 
" style="fill: none; stroke: #000000; stroke-width: 0.8; stroke-linejoin: miter; stroke-linecap: square"/>
   </g>
  </g>
  <g id="text_24">
   <!-- Seasonal Decomposition of Sparkling Sales (additive) -->
   <g transform="translate(16.54875 19.0695) scale(0.16 -0.16)">
    <defs>
     <path id="DejaVuSans-20" transform="scale(0.015625)"/>
     <path id="DejaVuSans-44" d="M 1259 4147 
L 1259 519 
L 2022 519 
Q 2988 519 3436 956 
Q 3884 1394 3884 2338 
Q 3884 3275 3436 3711 
Q 2988 4147 2022 4147 
L 1259 4147 
z
M 628 4666 
L 1925 4666 
Q 3281 4666 3915 4102 
Q 4550 3538 4550 2338 
Q 4550 1131 3912 565 
Q 3275 0 1925 0 
L 628 0 
L 628 4666 
z
" transform="scale(0.015625)"/>
     <path id="DejaVuSans-63" d="M 3122 3366 
L 3122 2828 
Q 2878 2963 2633 3030 
Q 2388 3097 2138 3097 
Q 1578 3097 1268 2742 
Q 959 2388 959 1747 
Q 959 1106 1268 751 
Q 1578 397 2138 397 
Q 2388 397 2633 464 
Q 2878 531 3122 666 
L 3122 134 
Q 2881 22 2623 -34 
Q 2366 -91 2075 -91 
Q 1284 -91 818 406 
Q 353 903 353 1747 
Q 353 2603 823 3093 
Q 1294 3584 2113 3584 
Q 2378 3584 2631 3529 
Q 2884 3475 3122 3366 
z
" transform="scale(0.015625)"/>
     <path id="DejaVuSans-6d" d="M 3328 2828 
Q 3544 3216 3844 3400 
Q 4144 3584 4550 3584 
Q 5097 3584 5394 3201 
Q 5691 2819 5691 2113 
L 5691 0 
L 5113 0 
L 5113 2094 
Q 5113 2597 4934 2840 
Q 4756 3084 4391 3084 
Q 3944 3084 3684 2787 
Q 3425 2491 3425 1978 
L 3425 0 
L 2847 0 
L 2847 2094 
Q 2847 2600 2669 2842 
Q 2491 3084 2119 3084 
Q 1678 3084 1418 2786 
Q 1159 2488 1159 1978 
L 1159 0 
L 581 0 
L 581 3500 
L 1159 3500 
L 1159 2956 
Q 1356 3278 1631 3431 
Q 1906 3584 2284 3584 
Q 2666 3584 2933 3390 
Q 3200 3197 3328 2828 
z
" transform="scale(0.015625)"/>
     <path id="DejaVuSans-74" d="M 1172 4494 
L 1172 3500 
L 2356 3500 
L 2356 3053 
L 1172 3053 
L 1172 1153 
Q 1172 725 1289 603 
Q 1406 481 1766 481 
L 2356 481 
L 2356 0 
L 1766 0 
Q 1100 0 847 248 
Q 594 497 594 1153 
L 594 3053 
L 172 3053 
L 172 3500 
L 594 3500 
L 594 4494 
L 1172 4494 
z
" transform="scale(0.015625)"/>
     <path id="DejaVuSans-66" d="M 2375 4863 
L 2375 4384 
L 1825 4384 
Q 1516 4384 1395 4259 
Q 1275 4134 1275 3809 
L 1275 3500 
L 2222 3500 
L 2222 3053 
L 1275 3053 
L 1275 0 
L 697 0 
L 697 3053 
L 147 3053 
L 147 3500 
L 697 3500 
L 697 3744 
Q 697 4328 969 4595 
Q 1241 4863 1831 4863 
L 2375 4863 
z
" transform="scale(0.015625)"/>
     <path id="DejaVuSans-28" d="M 1984 4856 
Q 1566 4138 1362 3434 
Q 1159 2731 1159 2009 
Q 1159 1288 1364 580 
Q 1569 -128 1984 -844 
L 1484 -844 
Q 1016 -109 783 600 
Q 550 1309 550 2009 
Q 550 2706 781 3412 
Q 1013 4119 1484 4856 
L 1984 4856 
z
" transform="scale(0.015625)"/>
     <path id="DejaVuSans-76" d="M 191 3500 
L 800 3500 
L 1894 563 
L 2988 3500 
L 3597 3500 
L 2284 0 
L 1503 0 
L 191 3500 
z
" transform="scale(0.015625)"/>
     <path id="DejaVuSans-29" d="M 513 4856 
L 1013 4856 
Q 1481 4119 1714 3412 
Q 1947 2706 1947 2009 
Q 1947 1309 1714 600 
Q 1481 -109 1013 -844 
L 513 -844 
Q 928 -128 1133 580 
Q 1338 1288 1338 2009 
Q 1338 2731 1133 3434 
Q 928 4138 513 4856 
z
" transform="scale(0.015625)"/>
    </defs>
    <use xlink:href="#DejaVuSans-53"/>
    <use xlink:href="#DejaVuSans-65" transform="translate(63.476562 0)"/>
    <use xlink:href="#DejaVuSans-61" transform="translate(125 0)"/>
    <use xlink:href="#DejaVuSans-73" transform="translate(186.279297 0)"/>
    <use xlink:href="#DejaVuSans-6f" transform="translate(238.378906 0)"/>
    <use xlink:href="#DejaVuSans-6e" transform="translate(299.560547 0)"/>
    <use xlink:href="#DejaVuSans-61" transform="translate(362.939453 0)"/>
    <use xlink:href="#DejaVuSans-6c" transform="translate(424.21875 0)"/>
    <use xlink:href="#DejaVuSans-20" transform="translate(452.001953 0)"/>
    <use xlink:href="#DejaVuSans-44" transform="translate(483.789062 0)"/>
    <use xlink:href="#DejaVuSans-65" transform="translate(560.791016 0)"/>
    <use xlink:href="#DejaVuSans-63" transform="translate(622.314453 0)"/>
    <use xlink:href="#DejaVuSans-6f" transform="translate(677.294922 0)"/>
    <use xlink:href="#DejaVuSans-6d" transform="translate(738.476562 0)"/>
    <use xlink:href="#DejaVuSans-70" transform="translate(835.888672 0)"/>
    <use xlink:href="#DejaVuSans-6f" transform="translate(899.365234 0)"/>
    <use xlink:href="#DejaVuSans-73" transform="translate(960.546875 0)"/>
    <use xlink:href="#DejaVuSans-69" transform="translate(1012.646484 0)"/>
    <use xlink:href="#DejaVuSans-74" transform="translate(1040.429688 0)"/>
    <use xlink:href="#DejaVuSans-69" transform="translate(1079.638672 0)"/>
    <use xlink:href="#DejaVuSans-6f" transform="translate(1107.421875 0)"/>
    <use xlink:href="#DejaVuSans-6e" transform="translate(1168.603516 0)"/>
    <use xlink:href="#DejaVuSans-20" transform="translate(1231.982422 0)"/>
    <use xlink:href="#DejaVuSans-6f" transform="translate(1263.769531 0)"/>
    <use xlink:href="#DejaVuSans-66" transform="translate(1324.951172 0)"/>
    <use xlink:href="#DejaVuSans-20" transform="translate(1360.15625 0)"/>
    <use xlink:href="#DejaVuSans-53" transform="translate(1391.943359 0)"/>
    <use xlink:href="#DejaVuSans-70" transform="translate(1455.419922 0)"/>
    <use xlink:href="#DejaVuSans-61" transform="translate(1518.896484 0)"/>
    <use xlink:href="#DejaVuSans-72" transform="translate(1580.175781 0)"/>
    <use xlink:href="#DejaVuSans-6b" transform="translate(1621.289062 0)"/>
    <use xlink:href="#DejaVuSans-6c" transform="translate(1679.199219 0)"/>
    <use xlink:href="#DejaVuSans-69" transform="translate(1706.982422 0)"/>
    <use xlink:href="#DejaVuSans-6e" transform="translate(1734.765625 0)"/>
    <use xlink:href="#DejaVuSans-67" transform="translate(1798.144531 0)"/>
    <use xlink:href="#DejaVuSans-20" transform="translate(1861.621094 0)"/>
    <use xlink:href="#DejaVuSans-53" transform="translate(1893.408203 0)"/>
    <use xlink:href="#DejaVuSans-61" transform="translate(1956.884766 0)"/>
    <use xlink:href="#DejaVuSans-6c" transform="translate(2018.164062 0)"/>
    <use xlink:href="#DejaVuSans-65" transform="translate(2045.947266 0)"/>
    <use xlink:href="#DejaVuSans-73" transform="translate(2107.470703 0)"/>
    <use xlink:href="#DejaVuSans-20" transform="translate(2159.570312 0)"/>
    <use xlink:href="#DejaVuSans-28" transform="translate(2191.357422 0)"/>
    <use xlink:href="#DejaVuSans-61" transform="translate(2230.371094 0)"/>
    <use xlink:href="#DejaVuSans-64" transform="translate(2291.650391 0)"/>
    <use xlink:href="#DejaVuSans-64" transform="translate(2355.126953 0)"/>
    <use xlink:href="#DejaVuSans-69" transform="translate(2418.603516 0)"/>
    <use xlink:href="#DejaVuSans-74" transform="translate(2446.386719 0)"/>
    <use xlink:href="#DejaVuSans-69" transform="translate(2485.595703 0)"/>
    <use xlink:href="#DejaVuSans-76" transform="translate(2513.378906 0)"/>
    <use xlink:href="#DejaVuSans-65" transform="translate(2572.558594 0)"/>
    <use xlink:href="#DejaVuSans-29" transform="translate(2634.082031 0)"/>
   </g>
  </g>
 </g>
 <defs>
  <clipPath id="p8876f237e2">
   <rect x="65.54" y="52.08" width="384.46" height="55.685"/>
  </clipPath>
  <clipPath id="pbe71a9ed0b">
   <rect x="65.54" y="122.065" width="384.46" height="55.685"/>
  </clipPath>
  <clipPath id="p825ddc4b85">
   <rect x="65.54" y="192.05" width="384.46" height="55.685"/>
  </clipPath>
  <clipPath id="pea6aef929d">
   <rect x="65.54" y="262.035" width="384.46" height="55.685"/>
  </clipPath>
 </defs>
</svg>
