<?xml version="1.0" encoding="utf-8" standalone="no"?>
<!DOCTYPE svg PUBLIC "-//W3C//DTD SVG 1.1//EN"
  "http://www.w3.org/Graphics/SVG/1.1/DTD/svg11.dtd">
<svg xmlns:xlink="http://www.w3.org/1999/xlink" width="1008pt" height="504pt" viewBox="0 0 1008 504" xmlns="http://www.w3.org/2000/svg" version="1.1">
 <metadata>
  <rdf:RDF xmlns:dc="http://purl.org/dc/elements/1.1/" xmlns:cc="http://creativecommons.org/ns#" xmlns:rdf="http://www.w3.org/1999/02/22-rdf-syntax-ns#">
   <cc:Work>
    <dc:type rdf:resource="http://purl.org/dc/dcmitype/StillImage"/>
    <dc:date>2025-01-01T17:01:18.156435</dc:date>
    <dc:format>image/svg+xml</dc:format>
    <dc:creator>
     <cc:Agent>
      <dc:title>Matplotlib v3.10.0, https://matplotlib.org/</dc:title>
     </cc:Agent>
    </dc:creator>
   </cc:Work>
  </rdf:RDF>
 </metadata>
 <defs>
  <style type="text/css">*{stroke-linejoin: round; stroke-linecap: butt}</style>
 </defs>
 <g id="figure_1">
  <g id="patch_1">
   <path d="M 0 504 
L 1008 504 
L 1008 0 
L 0 0 
z
" style="fill: #ffffff"/>
  </g>
  <g id="axes_1">
   <g id="patch_2">
    <path d="M 50.87 462.04 
L 996.841908 462.04 
L 996.841908 26.88 
L 50.87 26.88 
z
" style="fill: #ffffff"/>
   </g>
   <g id="matplotlib.axis_1">
    <g id="xtick_1">
     <g id="line2d_1">
      <path d="M 93.868723 462.04 
L 93.868723 26.88 
" clip-path="url(#p27910053d0)" style="fill: none; stroke: #b0b0b0; stroke-width: 0.8; stroke-linecap: square"/>
     </g>
     <g id="line2d_2">
      <defs>
       <path id="m991c7abd5f" d="M 0 0 
L 0 3.5 
" style="stroke: #000000; stroke-width: 0.8"/>
      </defs>
      <g>
       <use xlink:href="#m991c7abd5f" x="93.868723" y="462.04" style="stroke: #000000; stroke-width: 0.8"/>
      </g>
     </g>
     <g id="text_1">
      <!-- 1980 -->
      <g transform="translate(81.143723 476.638438) scale(0.1 -0.1)">
       <defs>
        <path id="DejaVuSans-31" d="M 794 531 
L 1825 531 
L 1825 4091 
L 703 3866 
L 703 4441 
L 1819 4666 
L 2450 4666 
L 2450 531 
L 3481 531 
L 3481 0 
L 794 0 
L 794 531 
z
" transform="scale(0.015625)"/>
        <path id="DejaVuSans-39" d="M 703 97 
L 703 672 
Q 941 559 1184 500 
Q 1428 441 1663 441 
Q 2288 441 2617 861 
Q 2947 1281 2994 2138 
Q 2813 1869 2534 1725 
Q 2256 1581 1919 1581 
Q 1219 1581 811 2004 
Q 403 2428 403 3163 
Q 403 3881 828 4315 
Q 1253 4750 1959 4750 
Q 2769 4750 3195 4129 
Q 3622 3509 3622 2328 
Q 3622 1225 3098 567 
Q 2575 -91 1691 -91 
Q 1453 -91 1209 -44 
Q 966 3 703 97 
z
M 1959 2075 
Q 2384 2075 2632 2365 
Q 2881 2656 2881 3163 
Q 2881 3666 2632 3958 
Q 2384 4250 1959 4250 
Q 1534 4250 1286 3958 
Q 1038 3666 1038 3163 
Q 1038 2656 1286 2365 
Q 1534 2075 1959 2075 
z
" transform="scale(0.015625)"/>
        <path id="DejaVuSans-38" d="M 2034 2216 
Q 1584 2216 1326 1975 
Q 1069 1734 1069 1313 
Q 1069 891 1326 650 
Q 1584 409 2034 409 
Q 2484 409 2743 651 
Q 3003 894 3003 1313 
Q 3003 1734 2745 1975 
Q 2488 2216 2034 2216 
z
M 1403 2484 
Q 997 2584 770 2862 
Q 544 3141 544 3541 
Q 544 4100 942 4425 
Q 1341 4750 2034 4750 
Q 2731 4750 3128 4425 
Q 3525 4100 3525 3541 
Q 3525 3141 3298 2862 
Q 3072 2584 2669 2484 
Q 3125 2378 3379 2068 
Q 3634 1759 3634 1313 
Q 3634 634 3220 271 
Q 2806 -91 2034 -91 
Q 1263 -91 848 271 
Q 434 634 434 1313 
Q 434 1759 690 2068 
Q 947 2378 1403 2484 
z
M 1172 3481 
Q 1172 3119 1398 2916 
Q 1625 2713 2034 2713 
Q 2441 2713 2670 2916 
Q 2900 3119 2900 3481 
Q 2900 3844 2670 4047 
Q 2441 4250 2034 4250 
Q 1625 4250 1398 4047 
Q 1172 3844 1172 3481 
z
" transform="scale(0.015625)"/>
        <path id="DejaVuSans-30" d="M 2034 4250 
Q 1547 4250 1301 3770 
Q 1056 3291 1056 2328 
Q 1056 1369 1301 889 
Q 1547 409 2034 409 
Q 2525 409 2770 889 
Q 3016 1369 3016 2328 
Q 3016 3291 2770 3770 
Q 2525 4250 2034 4250 
z
M 2034 4750 
Q 2819 4750 3233 4129 
Q 3647 3509 3647 2328 
Q 3647 1150 3233 529 
Q 2819 -91 2034 -91 
Q 1250 -91 836 529 
Q 422 1150 422 2328 
Q 422 3509 836 4129 
Q 1250 4750 2034 4750 
z
" transform="scale(0.015625)"/>
       </defs>
       <use xlink:href="#DejaVuSans-31"/>
       <use xlink:href="#DejaVuSans-39" transform="translate(63.623047 0)"/>
       <use xlink:href="#DejaVuSans-38" transform="translate(127.246094 0)"/>
       <use xlink:href="#DejaVuSans-30" transform="translate(190.869141 0)"/>
      </g>
     </g>
    </g>
    <g id="xtick_2">
     <g id="line2d_3">
      <path d="M 204.936096 462.04 
L 204.936096 26.88 
" clip-path="url(#p27910053d0)" style="fill: none; stroke: #b0b0b0; stroke-width: 0.8; stroke-linecap: square"/>
     </g>
     <g id="line2d_4">
      <g>
       <use xlink:href="#m991c7abd5f" x="204.936096" y="462.04" style="stroke: #000000; stroke-width: 0.8"/>
      </g>
     </g>
     <g id="text_2">
      <!-- 1982 -->
      <g transform="translate(192.211096 476.638438) scale(0.1 -0.1)">
       <defs>
        <path id="DejaVuSans-32" d="M 1228 531 
L 3431 531 
L 3431 0 
L 469 0 
L 469 531 
Q 828 903 1448 1529 
Q 2069 2156 2228 2338 
Q 2531 2678 2651 2914 
Q 2772 3150 2772 3378 
Q 2772 3750 2511 3984 
Q 2250 4219 1831 4219 
Q 1534 4219 1204 4116 
Q 875 4013 500 3803 
L 500 4441 
Q 881 4594 1212 4672 
Q 1544 4750 1819 4750 
Q 2544 4750 2975 4387 
Q 3406 4025 3406 3419 
Q 3406 3131 3298 2873 
Q 3191 2616 2906 2266 
Q 2828 2175 2409 1742 
Q 1991 1309 1228 531 
z
" transform="scale(0.015625)"/>
       </defs>
       <use xlink:href="#DejaVuSans-31"/>
       <use xlink:href="#DejaVuSans-39" transform="translate(63.623047 0)"/>
       <use xlink:href="#DejaVuSans-38" transform="translate(127.246094 0)"/>
       <use xlink:href="#DejaVuSans-32" transform="translate(190.869141 0)"/>
      </g>
     </g>
    </g>
    <g id="xtick_3">
     <g id="line2d_5">
      <path d="M 315.85153 462.04 
L 315.85153 26.88 
" clip-path="url(#p27910053d0)" style="fill: none; stroke: #b0b0b0; stroke-width: 0.8; stroke-linecap: square"/>
     </g>
     <g id="line2d_6">
      <g>
       <use xlink:href="#m991c7abd5f" x="315.85153" y="462.04" style="stroke: #000000; stroke-width: 0.8"/>
      </g>
     </g>
     <g id="text_3">
      <!-- 1984 -->
      <g transform="translate(303.12653 476.638438) scale(0.1 -0.1)">
       <defs>
        <path id="DejaVuSans-34" d="M 2419 4116 
L 825 1625 
L 2419 1625 
L 2419 4116 
z
M 2253 4666 
L 3047 4666 
L 3047 1625 
L 3713 1625 
L 3713 1100 
L 3047 1100 
L 3047 0 
L 2419 0 
L 2419 1100 
L 313 1100 
L 313 1709 
L 2253 4666 
z
" transform="scale(0.015625)"/>
       </defs>
       <use xlink:href="#DejaVuSans-31"/>
       <use xlink:href="#DejaVuSans-39" transform="translate(63.623047 0)"/>
       <use xlink:href="#DejaVuSans-38" transform="translate(127.246094 0)"/>
       <use xlink:href="#DejaVuSans-34" transform="translate(190.869141 0)"/>
      </g>
     </g>
    </g>
    <g id="xtick_4">
     <g id="line2d_7">
      <path d="M 426.918903 462.04 
L 426.918903 26.88 
" clip-path="url(#p27910053d0)" style="fill: none; stroke: #b0b0b0; stroke-width: 0.8; stroke-linecap: square"/>
     </g>
     <g id="line2d_8">
      <g>
       <use xlink:href="#m991c7abd5f" x="426.918903" y="462.04" style="stroke: #000000; stroke-width: 0.8"/>
      </g>
     </g>
     <g id="text_4">
      <!-- 1986 -->
      <g transform="translate(414.193903 476.638438) scale(0.1 -0.1)">
       <defs>
        <path id="DejaVuSans-36" d="M 2113 2584 
Q 1688 2584 1439 2293 
Q 1191 2003 1191 1497 
Q 1191 994 1439 701 
Q 1688 409 2113 409 
Q 2538 409 2786 701 
Q 3034 994 3034 1497 
Q 3034 2003 2786 2293 
Q 2538 2584 2113 2584 
z
M 3366 4563 
L 3366 3988 
Q 3128 4100 2886 4159 
Q 2644 4219 2406 4219 
Q 1781 4219 1451 3797 
Q 1122 3375 1075 2522 
Q 1259 2794 1537 2939 
Q 1816 3084 2150 3084 
Q 2853 3084 3261 2657 
Q 3669 2231 3669 1497 
Q 3669 778 3244 343 
Q 2819 -91 2113 -91 
Q 1303 -91 875 529 
Q 447 1150 447 2328 
Q 447 3434 972 4092 
Q 1497 4750 2381 4750 
Q 2619 4750 2861 4703 
Q 3103 4656 3366 4563 
z
" transform="scale(0.015625)"/>
       </defs>
       <use xlink:href="#DejaVuSans-31"/>
       <use xlink:href="#DejaVuSans-39" transform="translate(63.623047 0)"/>
       <use xlink:href="#DejaVuSans-38" transform="translate(127.246094 0)"/>
       <use xlink:href="#DejaVuSans-36" transform="translate(190.869141 0)"/>
      </g>
     </g>
    </g>
    <g id="xtick_5">
     <g id="line2d_9">
      <path d="M 537.834338 462.04 
L 537.834338 26.88 
" clip-path="url(#p27910053d0)" style="fill: none; stroke: #b0b0b0; stroke-width: 0.8; stroke-linecap: square"/>
     </g>
     <g id="line2d_10">
      <g>
       <use xlink:href="#m991c7abd5f" x="537.834338" y="462.04" style="stroke: #000000; stroke-width: 0.8"/>
      </g>
     </g>
     <g id="text_5">
      <!-- 1988 -->
      <g transform="translate(525.109338 476.638438) scale(0.1 -0.1)">
       <use xlink:href="#DejaVuSans-31"/>
       <use xlink:href="#DejaVuSans-39" transform="translate(63.623047 0)"/>
       <use xlink:href="#DejaVuSans-38" transform="translate(127.246094 0)"/>
       <use xlink:href="#DejaVuSans-38" transform="translate(190.869141 0)"/>
      </g>
     </g>
    </g>
    <g id="xtick_6">
     <g id="line2d_11">
      <path d="M 648.901711 462.04 
L 648.901711 26.88 
" clip-path="url(#p27910053d0)" style="fill: none; stroke: #b0b0b0; stroke-width: 0.8; stroke-linecap: square"/>
     </g>
     <g id="line2d_12">
      <g>
       <use xlink:href="#m991c7abd5f" x="648.901711" y="462.04" style="stroke: #000000; stroke-width: 0.8"/>
      </g>
     </g>
     <g id="text_6">
      <!-- 1990 -->
      <g transform="translate(636.176711 476.638438) scale(0.1 -0.1)">
       <use xlink:href="#DejaVuSans-31"/>
       <use xlink:href="#DejaVuSans-39" transform="translate(63.623047 0)"/>
       <use xlink:href="#DejaVuSans-39" transform="translate(127.246094 0)"/>
       <use xlink:href="#DejaVuSans-30" transform="translate(190.869141 0)"/>
      </g>
     </g>
    </g>
    <g id="xtick_7">
     <g id="line2d_13">
      <path d="M 759.817145 462.04 
L 759.817145 26.88 
" clip-path="url(#p27910053d0)" style="fill: none; stroke: #b0b0b0; stroke-width: 0.8; stroke-linecap: square"/>
     </g>
     <g id="line2d_14">
      <g>
       <use xlink:href="#m991c7abd5f" x="759.817145" y="462.04" style="stroke: #000000; stroke-width: 0.8"/>
      </g>
     </g>
     <g id="text_7">
      <!-- 1992 -->
      <g transform="translate(747.092145 476.638438) scale(0.1 -0.1)">
       <use xlink:href="#DejaVuSans-31"/>
       <use xlink:href="#DejaVuSans-39" transform="translate(63.623047 0)"/>
       <use xlink:href="#DejaVuSans-39" transform="translate(127.246094 0)"/>
       <use xlink:href="#DejaVuSans-32" transform="translate(190.869141 0)"/>
      </g>
     </g>
    </g>
    <g id="xtick_8">
     <g id="line2d_15">
      <path d="M 870.884518 462.04 
L 870.884518 26.88 
" clip-path="url(#p27910053d0)" style="fill: none; stroke: #b0b0b0; stroke-width: 0.8; stroke-linecap: square"/>
     </g>
     <g id="line2d_16">
      <g>
       <use xlink:href="#m991c7abd5f" x="870.884518" y="462.04" style="stroke: #000000; stroke-width: 0.8"/>
      </g>
     </g>
     <g id="text_8">
      <!-- 1994 -->
      <g transform="translate(858.159518 476.638438) scale(0.1 -0.1)">
       <use xlink:href="#DejaVuSans-31"/>
       <use xlink:href="#DejaVuSans-39" transform="translate(63.623047 0)"/>
       <use xlink:href="#DejaVuSans-39" transform="translate(127.246094 0)"/>
       <use xlink:href="#DejaVuSans-34" transform="translate(190.869141 0)"/>
      </g>
     </g>
    </g>
    <g id="xtick_9">
     <g id="line2d_17">
      <path d="M 981.799952 462.04 
L 981.799952 26.88 
" clip-path="url(#p27910053d0)" style="fill: none; stroke: #b0b0b0; stroke-width: 0.8; stroke-linecap: square"/>
     </g>
     <g id="line2d_18">
      <g>
       <use xlink:href="#m991c7abd5f" x="981.799952" y="462.04" style="stroke: #000000; stroke-width: 0.8"/>
      </g>
     </g>
     <g id="text_9">
      <!-- 1996 -->
      <g transform="translate(969.074952 476.638438) scale(0.1 -0.1)">
       <use xlink:href="#DejaVuSans-31"/>
       <use xlink:href="#DejaVuSans-39" transform="translate(63.623047 0)"/>
       <use xlink:href="#DejaVuSans-39" transform="translate(127.246094 0)"/>
       <use xlink:href="#DejaVuSans-36" transform="translate(190.869141 0)"/>
      </g>
     </g>
    </g>
    <g id="text_10">
     <!-- Date -->
     <g transform="translate(511.905173 490.316563) scale(0.1 -0.1)">
      <defs>
       <path id="DejaVuSans-44" d="M 1259 4147 
L 1259 519 
L 2022 519 
Q 2988 519 3436 956 
Q 3884 1394 3884 2338 
Q 3884 3275 3436 3711 
Q 2988 4147 2022 4147 
L 1259 4147 
z
M 628 4666 
L 1925 4666 
Q 3281 4666 3915 4102 
Q 4550 3538 4550 2338 
Q 4550 1131 3912 565 
Q 3275 0 1925 0 
L 628 0 
L 628 4666 
z
" transform="scale(0.015625)"/>
       <path id="DejaVuSans-61" d="M 2194 1759 
Q 1497 1759 1228 1600 
Q 959 1441 959 1056 
Q 959 750 1161 570 
Q 1363 391 1709 391 
Q 2188 391 2477 730 
Q 2766 1069 2766 1631 
L 2766 1759 
L 2194 1759 
z
M 3341 1997 
L 3341 0 
L 2766 0 
L 2766 531 
Q 2569 213 2275 61 
Q 1981 -91 1556 -91 
Q 1019 -91 701 211 
Q 384 513 384 1019 
Q 384 1609 779 1909 
Q 1175 2209 1959 2209 
L 2766 2209 
L 2766 2266 
Q 2766 2663 2505 2880 
Q 2244 3097 1772 3097 
Q 1472 3097 1187 3025 
Q 903 2953 641 2809 
L 641 3341 
Q 956 3463 1253 3523 
Q 1550 3584 1831 3584 
Q 2591 3584 2966 3190 
Q 3341 2797 3341 1997 
z
" transform="scale(0.015625)"/>
       <path id="DejaVuSans-74" d="M 1172 4494 
L 1172 3500 
L 2356 3500 
L 2356 3053 
L 1172 3053 
L 1172 1153 
Q 1172 725 1289 603 
Q 1406 481 1766 481 
L 2356 481 
L 2356 0 
L 1766 0 
Q 1100 0 847 248 
Q 594 497 594 1153 
L 594 3053 
L 172 3053 
L 172 3500 
L 594 3500 
L 594 4494 
L 1172 4494 
z
" transform="scale(0.015625)"/>
       <path id="DejaVuSans-65" d="M 3597 1894 
L 3597 1613 
L 953 1613 
Q 991 1019 1311 708 
Q 1631 397 2203 397 
Q 2534 397 2845 478 
Q 3156 559 3463 722 
L 3463 178 
Q 3153 47 2828 -22 
Q 2503 -91 2169 -91 
Q 1331 -91 842 396 
Q 353 884 353 1716 
Q 353 2575 817 3079 
Q 1281 3584 2069 3584 
Q 2775 3584 3186 3129 
Q 3597 2675 3597 1894 
z
M 3022 2063 
Q 3016 2534 2758 2815 
Q 2500 3097 2075 3097 
Q 1594 3097 1305 2825 
Q 1016 2553 972 2059 
L 3022 2063 
z
" transform="scale(0.015625)"/>
      </defs>
      <use xlink:href="#DejaVuSans-44"/>
      <use xlink:href="#DejaVuSans-61" transform="translate(77.001953 0)"/>
      <use xlink:href="#DejaVuSans-74" transform="translate(138.28125 0)"/>
      <use xlink:href="#DejaVuSans-65" transform="translate(177.490234 0)"/>
     </g>
    </g>
   </g>
   <g id="matplotlib.axis_2">
    <g id="ytick_1">
     <g id="line2d_19">
      <path d="M 50.87 388.077489 
L 996.841908 388.077489 
" clip-path="url(#p27910053d0)" style="fill: none; stroke: #b0b0b0; stroke-width: 0.8; stroke-linecap: square"/>
     </g>
     <g id="line2d_20">
      <defs>
       <path id="m244ffa157f" d="M 0 0 
L -3.5 0 
" style="stroke: #000000; stroke-width: 0.8"/>
      </defs>
      <g>
       <use xlink:href="#m244ffa157f" x="50.87" y="388.077489" style="stroke: #000000; stroke-width: 0.8"/>
      </g>
     </g>
     <g id="text_11">
      <!-- 50 -->
      <g transform="translate(31.145 391.876708) scale(0.1 -0.1)">
       <defs>
        <path id="DejaVuSans-35" d="M 691 4666 
L 3169 4666 
L 3169 4134 
L 1269 4134 
L 1269 2991 
Q 1406 3038 1543 3061 
Q 1681 3084 1819 3084 
Q 2600 3084 3056 2656 
Q 3513 2228 3513 1497 
Q 3513 744 3044 326 
Q 2575 -91 1722 -91 
Q 1428 -91 1123 -41 
Q 819 9 494 109 
L 494 744 
Q 775 591 1075 516 
Q 1375 441 1709 441 
Q 2250 441 2565 725 
Q 2881 1009 2881 1497 
Q 2881 1984 2565 2268 
Q 2250 2553 1709 2553 
Q 1456 2553 1204 2497 
Q 953 2441 691 2322 
L 691 4666 
z
" transform="scale(0.015625)"/>
       </defs>
       <use xlink:href="#DejaVuSans-35"/>
       <use xlink:href="#DejaVuSans-30" transform="translate(63.623047 0)"/>
      </g>
     </g>
    </g>
    <g id="ytick_2">
     <g id="line2d_21">
      <path d="M 50.87 309.409865 
L 996.841908 309.409865 
" clip-path="url(#p27910053d0)" style="fill: none; stroke: #b0b0b0; stroke-width: 0.8; stroke-linecap: square"/>
     </g>
     <g id="line2d_22">
      <g>
       <use xlink:href="#m244ffa157f" x="50.87" y="309.409865" style="stroke: #000000; stroke-width: 0.8"/>
      </g>
     </g>
     <g id="text_12">
      <!-- 100 -->
      <g transform="translate(24.7825 313.209084) scale(0.1 -0.1)">
       <use xlink:href="#DejaVuSans-31"/>
       <use xlink:href="#DejaVuSans-30" transform="translate(63.623047 0)"/>
       <use xlink:href="#DejaVuSans-30" transform="translate(127.246094 0)"/>
      </g>
     </g>
    </g>
    <g id="ytick_3">
     <g id="line2d_23">
      <path d="M 50.87 230.742241 
L 996.841908 230.742241 
" clip-path="url(#p27910053d0)" style="fill: none; stroke: #b0b0b0; stroke-width: 0.8; stroke-linecap: square"/>
     </g>
     <g id="line2d_24">
      <g>
       <use xlink:href="#m244ffa157f" x="50.87" y="230.742241" style="stroke: #000000; stroke-width: 0.8"/>
      </g>
     </g>
     <g id="text_13">
      <!-- 150 -->
      <g transform="translate(24.7825 234.54146) scale(0.1 -0.1)">
       <use xlink:href="#DejaVuSans-31"/>
       <use xlink:href="#DejaVuSans-35" transform="translate(63.623047 0)"/>
       <use xlink:href="#DejaVuSans-30" transform="translate(127.246094 0)"/>
      </g>
     </g>
    </g>
    <g id="ytick_4">
     <g id="line2d_25">
      <path d="M 50.87 152.074617 
L 996.841908 152.074617 
" clip-path="url(#p27910053d0)" style="fill: none; stroke: #b0b0b0; stroke-width: 0.8; stroke-linecap: square"/>
     </g>
     <g id="line2d_26">
      <g>
       <use xlink:href="#m244ffa157f" x="50.87" y="152.074617" style="stroke: #000000; stroke-width: 0.8"/>
      </g>
     </g>
     <g id="text_14">
      <!-- 200 -->
      <g transform="translate(24.7825 155.873835) scale(0.1 -0.1)">
       <use xlink:href="#DejaVuSans-32"/>
       <use xlink:href="#DejaVuSans-30" transform="translate(63.623047 0)"/>
       <use xlink:href="#DejaVuSans-30" transform="translate(127.246094 0)"/>
      </g>
     </g>
    </g>
    <g id="ytick_5">
     <g id="line2d_27">
      <path d="M 50.87 73.406992 
L 996.841908 73.406992 
" clip-path="url(#p27910053d0)" style="fill: none; stroke: #b0b0b0; stroke-width: 0.8; stroke-linecap: square"/>
     </g>
     <g id="line2d_28">
      <g>
       <use xlink:href="#m244ffa157f" x="50.87" y="73.406992" style="stroke: #000000; stroke-width: 0.8"/>
      </g>
     </g>
     <g id="text_15">
      <!-- 250 -->
      <g transform="translate(24.7825 77.206211) scale(0.1 -0.1)">
       <use xlink:href="#DejaVuSans-32"/>
       <use xlink:href="#DejaVuSans-35" transform="translate(63.623047 0)"/>
       <use xlink:href="#DejaVuSans-30" transform="translate(127.246094 0)"/>
      </g>
     </g>
    </g>
    <g id="text_16">
     <!-- Sales -->
     <g transform="translate(18.702812 257.768594) rotate(-90) scale(0.1 -0.1)">
      <defs>
       <path id="DejaVuSans-53" d="M 3425 4513 
L 3425 3897 
Q 3066 4069 2747 4153 
Q 2428 4238 2131 4238 
Q 1616 4238 1336 4038 
Q 1056 3838 1056 3469 
Q 1056 3159 1242 3001 
Q 1428 2844 1947 2747 
L 2328 2669 
Q 3034 2534 3370 2195 
Q 3706 1856 3706 1288 
Q 3706 609 3251 259 
Q 2797 -91 1919 -91 
Q 1588 -91 1214 -16 
Q 841 59 441 206 
L 441 856 
Q 825 641 1194 531 
Q 1563 422 1919 422 
Q 2459 422 2753 634 
Q 3047 847 3047 1241 
Q 3047 1584 2836 1778 
Q 2625 1972 2144 2069 
L 1759 2144 
Q 1053 2284 737 2584 
Q 422 2884 422 3419 
Q 422 4038 858 4394 
Q 1294 4750 2059 4750 
Q 2388 4750 2728 4690 
Q 3069 4631 3425 4513 
z
" transform="scale(0.015625)"/>
       <path id="DejaVuSans-6c" d="M 603 4863 
L 1178 4863 
L 1178 0 
L 603 0 
L 603 4863 
z
" transform="scale(0.015625)"/>
       <path id="DejaVuSans-73" d="M 2834 3397 
L 2834 2853 
Q 2591 2978 2328 3040 
Q 2066 3103 1784 3103 
Q 1356 3103 1142 2972 
Q 928 2841 928 2578 
Q 928 2378 1081 2264 
Q 1234 2150 1697 2047 
L 1894 2003 
Q 2506 1872 2764 1633 
Q 3022 1394 3022 966 
Q 3022 478 2636 193 
Q 2250 -91 1575 -91 
Q 1294 -91 989 -36 
Q 684 19 347 128 
L 347 722 
Q 666 556 975 473 
Q 1284 391 1588 391 
Q 1994 391 2212 530 
Q 2431 669 2431 922 
Q 2431 1156 2273 1281 
Q 2116 1406 1581 1522 
L 1381 1569 
Q 847 1681 609 1914 
Q 372 2147 372 2553 
Q 372 3047 722 3315 
Q 1072 3584 1716 3584 
Q 2034 3584 2315 3537 
Q 2597 3491 2834 3397 
z
" transform="scale(0.015625)"/>
      </defs>
      <use xlink:href="#DejaVuSans-53"/>
      <use xlink:href="#DejaVuSans-61" transform="translate(63.476562 0)"/>
      <use xlink:href="#DejaVuSans-6c" transform="translate(124.755859 0)"/>
      <use xlink:href="#DejaVuSans-65" transform="translate(152.539062 0)"/>
      <use xlink:href="#DejaVuSans-73" transform="translate(214.0625 0)"/>
     </g>
    </g>
   </g>
   <g id="line2d_29">
    <path d="M 93.868723 290.529635 
L 98.578831 281.08952 
L 102.98506 263.782643 
L 107.695168 310.983217 
L 112.253336 284.236225 
L 116.963444 202.421896 
L 121.521612 281.08952 
L 126.23172 263.782643 
L 130.941827 144.207854 
L 135.499996 235.462298 
L 140.210103 230.742241 
L 144.768272 46.66 
L 149.478379 268.5027 
L 154.188487 263.782643 
L 158.442777 271.649405 
L 163.152885 314.129922 
L 167.711053 306.26316 
L 172.421161 266.929348 
L 176.979329 117.460862 
L 181.689437 130.047682 
L 186.399544 281.08952 
L 190.957713 244.902413 
L 195.66782 224.448831 
L 200.225989 111.167452 
L 204.936096 326.716742 
L 209.646204 345.596972 
L 213.900494 337.73021 
L 218.610602 314.129922 
L 223.16877 266.929348 
L 227.878878 276.369463 
L 232.437046 282.662873 
L 237.147154 282.662873 
L 241.857261 299.96975 
L 246.41543 290.529635 
L 251.125537 255.915881 
L 255.683706 200.848544 
L 260.393813 348.743677 
L 265.103921 296.823045 
L 269.358211 285.809578 
L 274.068319 333.010152 
L 278.626487 307.836513 
L 283.336595 296.823045 
L 287.894763 295.249693 
L 292.604871 271.649405 
L 297.314978 301.543103 
L 301.873147 317.276627 
L 306.583254 254.342528 
L 311.141423 208.715306 
L 315.85153 328.290095 
L 320.561638 333.010152 
L 324.967867 290.529635 
L 329.677975 329.863447 
L 334.236143 323.570037 
L 338.946251 329.863447 
L 343.504419 329.863447 
L 348.214527 243.329061 
L 352.924634 317.276627 
L 357.482803 296.823045 
L 362.19291 248.049118 
L 366.751079 216.582068 
L 371.461186 370.770612 
L 376.171294 337.73021 
L 380.425584 271.649405 
L 385.135692 320.423332 
L 389.69386 296.823045 
L 394.403968 348.743677 
L 398.962136 329.863447 
L 403.672244 304.689808 
L 408.382351 325.14339 
L 412.94052 296.823045 
L 417.650627 273.222758 
L 422.208796 263.782643 
L 426.918903 377.064022 
L 431.629011 364.477202 
L 435.883302 361.330497 
L 440.593409 355.037087 
L 445.151578 347.170325 
L 449.861685 361.330497 
L 454.419854 293.67634 
L 459.129961 281.08952 
L 463.840068 310.983217 
L 468.398237 333.010152 
L 473.108344 298.396398 
L 477.666513 244.902413 
L 482.37662 375.490669 
L 487.086728 364.477202 
L 491.341019 356.61044 
L 496.051126 331.4368 
L 500.609295 320.423332 
L 505.319402 350.31703 
L 509.877571 329.863447 
L 514.587678 351.890382 
L 519.297786 307.836513 
L 523.855954 309.409865 
L 528.566062 315.703275 
L 533.12423 219.728773 
L 537.834338 367.623907 
L 542.544445 285.809578 
L 546.950675 356.61044 
L 551.660782 362.90385 
L 556.218951 361.330497 
L 560.929058 336.156857 
L 565.487227 342.450267 
L 570.197334 345.596972 
L 574.907442 306.26316 
L 579.46561 284.236225 
L 584.175718 309.409865 
L 588.733886 254.342528 
L 593.443994 355.037087 
L 598.154101 372.343964 
L 602.408392 326.716742 
L 607.118499 350.31703 
L 611.676668 351.890382 
L 616.386775 323.570037 
L 620.944944 331.4368 
L 625.655051 350.31703 
L 630.365159 329.863447 
L 634.923327 329.863447 
L 639.633435 295.249693 
L 644.191603 251.195823 
L 648.901711 399.090957 
L 653.611818 358.183792 
L 657.866109 351.890382 
L 662.576216 345.596972 
L 667.134385 358.183792 
L 671.844492 347.170325 
L 676.402661 344.02362 
L 681.112768 356.61044 
L 685.822876 336.156857 
L 690.381044 364.477202 
L 690.381044 364.477202 
" clip-path="url(#p27910053d0)" style="fill: none; stroke: #ffa500; stroke-width: 1.5; stroke-linecap: square"/>
   </g>
   <g id="line2d_30">
    <path d="M 695.091152 293.67634 
L 699.64932 259.062585 
L 704.359428 381.784079 
L 709.069535 380.210727 
L 713.323826 362.90385 
L 718.033933 364.477202 
L 722.592102 372.343964 
L 727.302209 364.477202 
L 731.860378 315.703275 
L 736.570485 380.210727 
L 741.280593 355.037087 
L 745.838761 367.623907 
L 750.548869 350.31703 
L 755.107037 299.96975 
L 759.817145 413.251129 
L 764.527252 392.797547 
L 768.933482 378.637374 
L 773.643589 383.357432 
L 778.201758 383.357432 
L 782.911865 380.210727 
L 787.470034 361.330497 
L 792.180141 384.930784 
L 796.890249 394.370899 
L 801.448417 386.504137 
L 806.158525 375.490669 
L 810.716693 323.570037 
L 815.426801 414.824482 
L 820.136908 403.811014 
L 824.391199 394.370899 
L 829.101306 395.944252 
L 833.659475 402.237662 
L 838.369582 380.210727 
L 842.927751 377.064022 
L 847.637858 381.784079 
L 852.347966 394.370899 
L 856.906134 384.930784 
L 861.616242 391.224194 
L 866.17441 345.596972 
L 870.884518 419.544539 
L 875.594625 411.677777 
L 879.848916 400.664309 
L 884.559023 391.224194 
L 889.117192 397.517604 
L 893.827299 395.944252 
L 898.385468 395.944252 
L 903.095575 395.944252 
L 907.805683 394.370899 
L 912.363851 386.504137 
L 917.073959 367.623907 
L 921.632127 334.583505 
L 926.342235 419.544539 
L 931.052342 405.384367 
L 935.306633 395.944252 
L 940.016741 384.930784 
L 944.574909 422.691244 
L 949.285017 403.811014 
L 953.843185 369.197259 
" clip-path="url(#p27910053d0)" style="fill: none; stroke: #ff0000; stroke-width: 1.5; stroke-linecap: square"/>
   </g>
   <g id="line2d_31">
    <path d="M 695.091152 342.608355 
L 699.64932 342.608355 
L 704.359428 342.608355 
L 709.069535 342.608355 
L 713.323826 342.608355 
L 718.033933 342.608355 
L 722.592102 342.608355 
L 727.302209 342.608355 
L 731.860378 342.608355 
L 736.570485 342.608355 
L 741.280593 342.608355 
L 745.838761 342.608355 
L 750.548869 342.608355 
L 755.107037 342.608355 
L 759.817145 342.608355 
L 764.527252 342.608355 
L 768.933482 342.608355 
L 773.643589 342.608355 
L 778.201758 342.608355 
L 782.911865 342.608355 
L 787.470034 342.608355 
L 792.180141 342.608355 
L 796.890249 342.608355 
L 801.448417 342.608355 
L 806.158525 342.608355 
L 810.716693 342.608355 
L 815.426801 342.608355 
L 820.136908 342.608355 
L 824.391199 342.608355 
L 829.101306 342.608355 
L 833.659475 342.608355 
L 838.369582 342.608355 
L 842.927751 342.608355 
L 847.637858 342.608355 
L 852.347966 342.608355 
L 856.906134 342.608355 
L 861.616242 342.608355 
L 866.17441 342.608355 
L 870.884518 342.608355 
L 875.594625 342.608355 
L 879.848916 342.608355 
L 884.559023 342.608355 
L 889.117192 342.608355 
L 893.827299 342.608355 
L 898.385468 342.608355 
L 903.095575 342.608355 
L 907.805683 342.608355 
L 912.363851 342.608355 
L 917.073959 342.608355 
L 921.632127 342.608355 
L 926.342235 342.608355 
L 931.052342 342.608355 
L 935.306633 342.608355 
L 940.016741 342.608355 
L 944.574909 342.608355 
L 949.285017 342.608355 
L 953.843185 342.608355 
" clip-path="url(#p27910053d0)" style="fill: none; stroke-dasharray: 5.55,2.4; stroke-dashoffset: 0; stroke: #1f77b4; stroke-width: 1.5"/>
   </g>
   <g id="line2d_32">
    <path d="M 695.091152 356.562607 
L 699.64932 357.395208 
L 704.359428 358.22781 
L 709.069535 359.060411 
L 713.323826 359.893013 
L 718.033933 360.725614 
L 722.592102 361.558216 
L 727.302209 362.390817 
L 731.860378 363.223418 
L 736.570485 364.05602 
L 741.280593 364.888621 
L 745.838761 365.721223 
L 750.548869 366.553824 
L 755.107037 367.386426 
L 759.817145 368.219027 
L 764.527252 369.051629 
L 768.933482 369.88423 
L 773.643589 370.716832 
L 778.201758 371.549433 
L 782.911865 372.382035 
L 787.470034 373.214636 
L 792.180141 374.047238 
L 796.890249 374.879839 
L 801.448417 375.712441 
L 806.158525 376.545042 
L 810.716693 377.377644 
L 815.426801 378.210245 
L 820.136908 379.042846 
L 824.391199 379.875448 
L 829.101306 380.708049 
L 833.659475 381.540651 
L 838.369582 382.373252 
L 842.927751 383.205854 
L 847.637858 384.038455 
L 852.347966 384.871057 
L 856.906134 385.703658 
L 861.616242 386.53626 
L 866.17441 387.368861 
L 870.884518 388.201463 
L 875.594625 389.034064 
L 879.848916 389.866666 
L 884.559023 390.699267 
L 889.117192 391.531869 
L 893.827299 392.36447 
L 898.385468 393.197072 
L 903.095575 394.029673 
L 907.805683 394.862274 
L 912.363851 395.694876 
L 917.073959 396.527477 
L 921.632127 397.360079 
L 926.342235 398.19268 
L 931.052342 399.025282 
L 935.306633 399.857883 
L 940.016741 400.690485 
L 944.574909 401.523086 
L 949.285017 402.355688 
L 953.843185 403.188289 
" clip-path="url(#p27910053d0)" style="fill: none; stroke-dasharray: 5.55,2.4; stroke-dashoffset: 0; stroke: #008000; stroke-width: 1.5"/>
   </g>
   <g id="line2d_33">
    <path d="M 695.091152 319.238063 
L 699.64932 250.445735 
L 704.359428 400.855243 
L 709.069535 382.257788 
L 713.323826 370.537302 
L 718.033933 388.136055 
L 722.592102 375.141097 
L 727.302209 367.419326 
L 731.860378 352.661192 
L 736.570485 343.908706 
L 741.280593 351.020006 
L 745.838761 354.786428 
L 750.548869 329.589252 
L 755.107037 260.796924 
L 759.817145 411.206432 
L 764.527252 392.608977 
L 768.933482 380.888491 
L 773.643589 398.487244 
L 778.201758 385.492286 
L 782.911865 377.770516 
L 787.470034 363.012381 
L 792.180141 354.259896 
L 796.890249 361.371196 
L 801.448417 365.137617 
L 806.158525 339.940441 
L 810.716693 271.148114 
L 815.426801 421.557621 
L 820.136908 402.960166 
L 824.391199 391.239681 
L 829.101306 408.838433 
L 833.659475 395.843475 
L 838.369582 388.121705 
L 842.927751 373.36357 
L 847.637858 364.611085 
L 852.347966 371.722385 
L 856.906134 375.488807 
L 861.616242 350.291631 
L 866.17441 281.499303 
L 870.884518 431.908811 
L 875.594625 413.311355 
L 879.848916 401.59087 
L 884.559023 419.189622 
L 889.117192 406.194665 
L 893.827299 398.472894 
L 898.385468 383.71476 
L 903.095575 374.962274 
L 907.805683 382.073574 
L 912.363851 385.839996 
L 917.073959 360.64282 
L 921.632127 291.850492 
L 926.342235 442.26 
L 931.052342 423.662545 
L 935.306633 411.942059 
L 940.016741 429.540812 
L 944.574909 416.545854 
L 949.285017 408.824084 
L 953.843185 394.065949 
" clip-path="url(#p27910053d0)" style="fill: none; stroke-dasharray: 5.55,2.4; stroke-dashoffset: 0; stroke: #0000ff; stroke-width: 1.5"/>
   </g>
   <g id="patch_3">
    <path d="M 50.87 462.04 
L 50.87 26.88 
" style="fill: none; stroke: #000000; stroke-width: 0.8; stroke-linejoin: miter; stroke-linecap: square"/>
   </g>
   <g id="patch_4">
    <path d="M 996.841908 462.04 
L 996.841908 26.88 
" style="fill: none; stroke: #000000; stroke-width: 0.8; stroke-linejoin: miter; stroke-linecap: square"/>
   </g>
   <g id="patch_5">
    <path d="M 50.87 462.04 
L 996.841908 462.04 
" style="fill: none; stroke: #000000; stroke-width: 0.8; stroke-linejoin: miter; stroke-linecap: square"/>
   </g>
   <g id="patch_6">
    <path d="M 50.87 26.88 
L 996.841908 26.88 
" style="fill: none; stroke: #000000; stroke-width: 0.8; stroke-linejoin: miter; stroke-linecap: square"/>
   </g>
   <g id="text_17">
    <!-- Exponential Smoothing Forecasts Sparkling -->
    <g transform="translate(393.535017 20.88) scale(0.12 -0.12)">
     <defs>
      <path id="DejaVuSans-45" d="M 628 4666 
L 3578 4666 
L 3578 4134 
L 1259 4134 
L 1259 2753 
L 3481 2753 
L 3481 2222 
L 1259 2222 
L 1259 531 
L 3634 531 
L 3634 0 
L 628 0 
L 628 4666 
z
" transform="scale(0.015625)"/>
      <path id="DejaVuSans-78" d="M 3513 3500 
L 2247 1797 
L 3578 0 
L 2900 0 
L 1881 1375 
L 863 0 
L 184 0 
L 1544 1831 
L 300 3500 
L 978 3500 
L 1906 2253 
L 2834 3500 
L 3513 3500 
z
" transform="scale(0.015625)"/>
      <path id="DejaVuSans-70" d="M 1159 525 
L 1159 -1331 
L 581 -1331 
L 581 3500 
L 1159 3500 
L 1159 2969 
Q 1341 3281 1617 3432 
Q 1894 3584 2278 3584 
Q 2916 3584 3314 3078 
Q 3713 2572 3713 1747 
Q 3713 922 3314 415 
Q 2916 -91 2278 -91 
Q 1894 -91 1617 61 
Q 1341 213 1159 525 
z
M 3116 1747 
Q 3116 2381 2855 2742 
Q 2594 3103 2138 3103 
Q 1681 3103 1420 2742 
Q 1159 2381 1159 1747 
Q 1159 1113 1420 752 
Q 1681 391 2138 391 
Q 2594 391 2855 752 
Q 3116 1113 3116 1747 
z
" transform="scale(0.015625)"/>
      <path id="DejaVuSans-6f" d="M 1959 3097 
Q 1497 3097 1228 2736 
Q 959 2375 959 1747 
Q 959 1119 1226 758 
Q 1494 397 1959 397 
Q 2419 397 2687 759 
Q 2956 1122 2956 1747 
Q 2956 2369 2687 2733 
Q 2419 3097 1959 3097 
z
M 1959 3584 
Q 2709 3584 3137 3096 
Q 3566 2609 3566 1747 
Q 3566 888 3137 398 
Q 2709 -91 1959 -91 
Q 1206 -91 779 398 
Q 353 888 353 1747 
Q 353 2609 779 3096 
Q 1206 3584 1959 3584 
z
" transform="scale(0.015625)"/>
      <path id="DejaVuSans-6e" d="M 3513 2113 
L 3513 0 
L 2938 0 
L 2938 2094 
Q 2938 2591 2744 2837 
Q 2550 3084 2163 3084 
Q 1697 3084 1428 2787 
Q 1159 2491 1159 1978 
L 1159 0 
L 581 0 
L 581 3500 
L 1159 3500 
L 1159 2956 
Q 1366 3272 1645 3428 
Q 1925 3584 2291 3584 
Q 2894 3584 3203 3211 
Q 3513 2838 3513 2113 
z
" transform="scale(0.015625)"/>
      <path id="DejaVuSans-69" d="M 603 3500 
L 1178 3500 
L 1178 0 
L 603 0 
L 603 3500 
z
M 603 4863 
L 1178 4863 
L 1178 4134 
L 603 4134 
L 603 4863 
z
" transform="scale(0.015625)"/>
      <path id="DejaVuSans-20" transform="scale(0.015625)"/>
      <path id="DejaVuSans-6d" d="M 3328 2828 
Q 3544 3216 3844 3400 
Q 4144 3584 4550 3584 
Q 5097 3584 5394 3201 
Q 5691 2819 5691 2113 
L 5691 0 
L 5113 0 
L 5113 2094 
Q 5113 2597 4934 2840 
Q 4756 3084 4391 3084 
Q 3944 3084 3684 2787 
Q 3425 2491 3425 1978 
L 3425 0 
L 2847 0 
L 2847 2094 
Q 2847 2600 2669 2842 
Q 2491 3084 2119 3084 
Q 1678 3084 1418 2786 
Q 1159 2488 1159 1978 
L 1159 0 
L 581 0 
L 581 3500 
L 1159 3500 
L 1159 2956 
Q 1356 3278 1631 3431 
Q 1906 3584 2284 3584 
Q 2666 3584 2933 3390 
Q 3200 3197 3328 2828 
z
" transform="scale(0.015625)"/>
      <path id="DejaVuSans-68" d="M 3513 2113 
L 3513 0 
L 2938 0 
L 2938 2094 
Q 2938 2591 2744 2837 
Q 2550 3084 2163 3084 
Q 1697 3084 1428 2787 
Q 1159 2491 1159 1978 
L 1159 0 
L 581 0 
L 581 4863 
L 1159 4863 
L 1159 2956 
Q 1366 3272 1645 3428 
Q 1925 3584 2291 3584 
Q 2894 3584 3203 3211 
Q 3513 2838 3513 2113 
z
" transform="scale(0.015625)"/>
      <path id="DejaVuSans-67" d="M 2906 1791 
Q 2906 2416 2648 2759 
Q 2391 3103 1925 3103 
Q 1463 3103 1205 2759 
Q 947 2416 947 1791 
Q 947 1169 1205 825 
Q 1463 481 1925 481 
Q 2391 481 2648 825 
Q 2906 1169 2906 1791 
z
M 3481 434 
Q 3481 -459 3084 -895 
Q 2688 -1331 1869 -1331 
Q 1566 -1331 1297 -1286 
Q 1028 -1241 775 -1147 
L 775 -588 
Q 1028 -725 1275 -790 
Q 1522 -856 1778 -856 
Q 2344 -856 2625 -561 
Q 2906 -266 2906 331 
L 2906 616 
Q 2728 306 2450 153 
Q 2172 0 1784 0 
Q 1141 0 747 490 
Q 353 981 353 1791 
Q 353 2603 747 3093 
Q 1141 3584 1784 3584 
Q 2172 3584 2450 3431 
Q 2728 3278 2906 2969 
L 2906 3500 
L 3481 3500 
L 3481 434 
z
" transform="scale(0.015625)"/>
      <path id="DejaVuSans-46" d="M 628 4666 
L 3309 4666 
L 3309 4134 
L 1259 4134 
L 1259 2759 
L 3109 2759 
L 3109 2228 
L 1259 2228 
L 1259 0 
L 628 0 
L 628 4666 
z
" transform="scale(0.015625)"/>
      <path id="DejaVuSans-72" d="M 2631 2963 
Q 2534 3019 2420 3045 
Q 2306 3072 2169 3072 
Q 1681 3072 1420 2755 
Q 1159 2438 1159 1844 
L 1159 0 
L 581 0 
L 581 3500 
L 1159 3500 
L 1159 2956 
Q 1341 3275 1631 3429 
Q 1922 3584 2338 3584 
Q 2397 3584 2469 3576 
Q 2541 3569 2628 3553 
L 2631 2963 
z
" transform="scale(0.015625)"/>
      <path id="DejaVuSans-63" d="M 3122 3366 
L 3122 2828 
Q 2878 2963 2633 3030 
Q 2388 3097 2138 3097 
Q 1578 3097 1268 2742 
Q 959 2388 959 1747 
Q 959 1106 1268 751 
Q 1578 397 2138 397 
Q 2388 397 2633 464 
Q 2878 531 3122 666 
L 3122 134 
Q 2881 22 2623 -34 
Q 2366 -91 2075 -91 
Q 1284 -91 818 406 
Q 353 903 353 1747 
Q 353 2603 823 3093 
Q 1294 3584 2113 3584 
Q 2378 3584 2631 3529 
Q 2884 3475 3122 3366 
z
" transform="scale(0.015625)"/>
      <path id="DejaVuSans-6b" d="M 581 4863 
L 1159 4863 
L 1159 1991 
L 2875 3500 
L 3609 3500 
L 1753 1863 
L 3688 0 
L 2938 0 
L 1159 1709 
L 1159 0 
L 581 0 
L 581 4863 
z
" transform="scale(0.015625)"/>
     </defs>
     <use xlink:href="#DejaVuSans-45"/>
     <use xlink:href="#DejaVuSans-78" transform="translate(63.183594 0)"/>
     <use xlink:href="#DejaVuSans-70" transform="translate(122.363281 0)"/>
     <use xlink:href="#DejaVuSans-6f" transform="translate(185.839844 0)"/>
     <use xlink:href="#DejaVuSans-6e" transform="translate(247.021484 0)"/>
     <use xlink:href="#DejaVuSans-65" transform="translate(310.400391 0)"/>
     <use xlink:href="#DejaVuSans-6e" transform="translate(371.923828 0)"/>
     <use xlink:href="#DejaVuSans-74" transform="translate(435.302734 0)"/>
     <use xlink:href="#DejaVuSans-69" transform="translate(474.511719 0)"/>
     <use xlink:href="#DejaVuSans-61" transform="translate(502.294922 0)"/>
     <use xlink:href="#DejaVuSans-6c" transform="translate(563.574219 0)"/>
     <use xlink:href="#DejaVuSans-20" transform="translate(591.357422 0)"/>
     <use xlink:href="#DejaVuSans-53" transform="translate(623.144531 0)"/>
     <use xlink:href="#DejaVuSans-6d" transform="translate(686.621094 0)"/>
     <use xlink:href="#DejaVuSans-6f" transform="translate(784.033203 0)"/>
     <use xlink:href="#DejaVuSans-6f" transform="translate(845.214844 0)"/>
     <use xlink:href="#DejaVuSans-74" transform="translate(906.396484 0)"/>
     <use xlink:href="#DejaVuSans-68" transform="translate(945.605469 0)"/>
     <use xlink:href="#DejaVuSans-69" transform="translate(1008.984375 0)"/>
     <use xlink:href="#DejaVuSans-6e" transform="translate(1036.767578 0)"/>
     <use xlink:href="#DejaVuSans-67" transform="translate(1100.146484 0)"/>
     <use xlink:href="#DejaVuSans-20" transform="translate(1163.623047 0)"/>
     <use xlink:href="#DejaVuSans-46" transform="translate(1195.410156 0)"/>
     <use xlink:href="#DejaVuSans-6f" transform="translate(1249.304688 0)"/>
     <use xlink:href="#DejaVuSans-72" transform="translate(1310.486328 0)"/>
     <use xlink:href="#DejaVuSans-65" transform="translate(1349.349609 0)"/>
     <use xlink:href="#DejaVuSans-63" transform="translate(1410.873047 0)"/>
     <use xlink:href="#DejaVuSans-61" transform="translate(1465.853516 0)"/>
     <use xlink:href="#DejaVuSans-73" transform="translate(1527.132812 0)"/>
     <use xlink:href="#DejaVuSans-74" transform="translate(1579.232422 0)"/>
     <use xlink:href="#DejaVuSans-73" transform="translate(1618.441406 0)"/>
     <use xlink:href="#DejaVuSans-20" transform="translate(1670.541016 0)"/>
     <use xlink:href="#DejaVuSans-53" transform="translate(1702.328125 0)"/>
     <use xlink:href="#DejaVuSans-70" transform="translate(1765.804688 0)"/>
     <use xlink:href="#DejaVuSans-61" transform="translate(1829.28125 0)"/>
     <use xlink:href="#DejaVuSans-72" transform="translate(1890.560547 0)"/>
     <use xlink:href="#DejaVuSans-6b" transform="translate(1931.673828 0)"/>
     <use xlink:href="#DejaVuSans-6c" transform="translate(1989.583984 0)"/>
     <use xlink:href="#DejaVuSans-69" transform="translate(2017.367188 0)"/>
     <use xlink:href="#DejaVuSans-6e" transform="translate(2045.150391 0)"/>
     <use xlink:href="#DejaVuSans-67" transform="translate(2108.529297 0)"/>
    </g>
   </g>
   <g id="legend_1">
    <g id="patch_7">
     <path d="M 775.705971 108.270625 
L 989.841908 108.270625 
Q 991.841908 108.270625 991.841908 106.270625 
L 991.841908 33.88 
Q 991.841908 31.88 989.841908 31.88 
L 775.705971 31.88 
Q 773.705971 31.88 773.705971 33.88 
L 773.705971 106.270625 
Q 773.705971 108.270625 775.705971 108.270625 
z
" style="fill: #ffffff; opacity: 0.8; stroke: #cccccc; stroke-linejoin: miter"/>
    </g>
    <g id="line2d_34">
     <path d="M 777.705971 39.978437 
L 787.705971 39.978437 
L 797.705971 39.978437 
" style="fill: none; stroke: #ffa500; stroke-width: 1.5; stroke-linecap: square"/>
    </g>
    <g id="text_18">
     <!-- Sparkling Train -->
     <g transform="translate(805.705971 43.478437) scale(0.1 -0.1)">
      <defs>
       <path id="DejaVuSans-54" d="M -19 4666 
L 3928 4666 
L 3928 4134 
L 2272 4134 
L 2272 0 
L 1638 0 
L 1638 4134 
L -19 4134 
L -19 4666 
z
" transform="scale(0.015625)"/>
      </defs>
      <use xlink:href="#DejaVuSans-53"/>
      <use xlink:href="#DejaVuSans-70" transform="translate(63.476562 0)"/>
      <use xlink:href="#DejaVuSans-61" transform="translate(126.953125 0)"/>
      <use xlink:href="#DejaVuSans-72" transform="translate(188.232422 0)"/>
      <use xlink:href="#DejaVuSans-6b" transform="translate(229.345703 0)"/>
      <use xlink:href="#DejaVuSans-6c" transform="translate(287.255859 0)"/>
      <use xlink:href="#DejaVuSans-69" transform="translate(315.039062 0)"/>
      <use xlink:href="#DejaVuSans-6e" transform="translate(342.822266 0)"/>
      <use xlink:href="#DejaVuSans-67" transform="translate(406.201172 0)"/>
      <use xlink:href="#DejaVuSans-20" transform="translate(469.677734 0)"/>
      <use xlink:href="#DejaVuSans-54" transform="translate(501.464844 0)"/>
      <use xlink:href="#DejaVuSans-72" transform="translate(547.798828 0)"/>
      <use xlink:href="#DejaVuSans-61" transform="translate(588.912109 0)"/>
      <use xlink:href="#DejaVuSans-69" transform="translate(650.191406 0)"/>
      <use xlink:href="#DejaVuSans-6e" transform="translate(677.974609 0)"/>
     </g>
    </g>
    <g id="line2d_35">
     <path d="M 777.705971 54.656562 
L 787.705971 54.656562 
L 797.705971 54.656562 
" style="fill: none; stroke: #ff0000; stroke-width: 1.5; stroke-linecap: square"/>
    </g>
    <g id="text_19">
     <!-- Sparking Test -->
     <g transform="translate(805.705971 58.156562) scale(0.1 -0.1)">
      <use xlink:href="#DejaVuSans-53"/>
      <use xlink:href="#DejaVuSans-70" transform="translate(63.476562 0)"/>
      <use xlink:href="#DejaVuSans-61" transform="translate(126.953125 0)"/>
      <use xlink:href="#DejaVuSans-72" transform="translate(188.232422 0)"/>
      <use xlink:href="#DejaVuSans-6b" transform="translate(229.345703 0)"/>
      <use xlink:href="#DejaVuSans-69" transform="translate(287.255859 0)"/>
      <use xlink:href="#DejaVuSans-6e" transform="translate(315.039062 0)"/>
      <use xlink:href="#DejaVuSans-67" transform="translate(378.417969 0)"/>
      <use xlink:href="#DejaVuSans-20" transform="translate(441.894531 0)"/>
      <use xlink:href="#DejaVuSans-54" transform="translate(473.681641 0)"/>
      <use xlink:href="#DejaVuSans-65" transform="translate(517.765625 0)"/>
      <use xlink:href="#DejaVuSans-73" transform="translate(579.289062 0)"/>
      <use xlink:href="#DejaVuSans-74" transform="translate(631.388672 0)"/>
     </g>
    </g>
    <g id="line2d_36">
     <path d="M 777.705971 69.334687 
L 787.705971 69.334687 
L 797.705971 69.334687 
" style="fill: none; stroke-dasharray: 5.55,2.4; stroke-dashoffset: 0; stroke: #1f77b4; stroke-width: 1.5"/>
    </g>
    <g id="text_20">
     <!-- Single Exponential Smoothing Rose -->
     <g transform="translate(805.705971 72.834687) scale(0.1 -0.1)">
      <defs>
       <path id="DejaVuSans-52" d="M 2841 2188 
Q 3044 2119 3236 1894 
Q 3428 1669 3622 1275 
L 4263 0 
L 3584 0 
L 2988 1197 
Q 2756 1666 2539 1819 
Q 2322 1972 1947 1972 
L 1259 1972 
L 1259 0 
L 628 0 
L 628 4666 
L 2053 4666 
Q 2853 4666 3247 4331 
Q 3641 3997 3641 3322 
Q 3641 2881 3436 2590 
Q 3231 2300 2841 2188 
z
M 1259 4147 
L 1259 2491 
L 2053 2491 
Q 2509 2491 2742 2702 
Q 2975 2913 2975 3322 
Q 2975 3731 2742 3939 
Q 2509 4147 2053 4147 
L 1259 4147 
z
" transform="scale(0.015625)"/>
      </defs>
      <use xlink:href="#DejaVuSans-53"/>
      <use xlink:href="#DejaVuSans-69" transform="translate(63.476562 0)"/>
      <use xlink:href="#DejaVuSans-6e" transform="translate(91.259766 0)"/>
      <use xlink:href="#DejaVuSans-67" transform="translate(154.638672 0)"/>
      <use xlink:href="#DejaVuSans-6c" transform="translate(218.115234 0)"/>
      <use xlink:href="#DejaVuSans-65" transform="translate(245.898438 0)"/>
      <use xlink:href="#DejaVuSans-20" transform="translate(307.421875 0)"/>
      <use xlink:href="#DejaVuSans-45" transform="translate(339.208984 0)"/>
      <use xlink:href="#DejaVuSans-78" transform="translate(402.392578 0)"/>
      <use xlink:href="#DejaVuSans-70" transform="translate(461.572266 0)"/>
      <use xlink:href="#DejaVuSans-6f" transform="translate(525.048828 0)"/>
      <use xlink:href="#DejaVuSans-6e" transform="translate(586.230469 0)"/>
      <use xlink:href="#DejaVuSans-65" transform="translate(649.609375 0)"/>
      <use xlink:href="#DejaVuSans-6e" transform="translate(711.132812 0)"/>
      <use xlink:href="#DejaVuSans-74" transform="translate(774.511719 0)"/>
      <use xlink:href="#DejaVuSans-69" transform="translate(813.720703 0)"/>
      <use xlink:href="#DejaVuSans-61" transform="translate(841.503906 0)"/>
      <use xlink:href="#DejaVuSans-6c" transform="translate(902.783203 0)"/>
      <use xlink:href="#DejaVuSans-20" transform="translate(930.566406 0)"/>
      <use xlink:href="#DejaVuSans-53" transform="translate(962.353516 0)"/>
      <use xlink:href="#DejaVuSans-6d" transform="translate(1025.830078 0)"/>
      <use xlink:href="#DejaVuSans-6f" transform="translate(1123.242188 0)"/>
      <use xlink:href="#DejaVuSans-6f" transform="translate(1184.423828 0)"/>
      <use xlink:href="#DejaVuSans-74" transform="translate(1245.605469 0)"/>
      <use xlink:href="#DejaVuSans-68" transform="translate(1284.814453 0)"/>
      <use xlink:href="#DejaVuSans-69" transform="translate(1348.193359 0)"/>
      <use xlink:href="#DejaVuSans-6e" transform="translate(1375.976562 0)"/>
      <use xlink:href="#DejaVuSans-67" transform="translate(1439.355469 0)"/>
      <use xlink:href="#DejaVuSans-20" transform="translate(1502.832031 0)"/>
      <use xlink:href="#DejaVuSans-52" transform="translate(1534.619141 0)"/>
      <use xlink:href="#DejaVuSans-6f" transform="translate(1599.601562 0)"/>
      <use xlink:href="#DejaVuSans-73" transform="translate(1660.783203 0)"/>
      <use xlink:href="#DejaVuSans-65" transform="translate(1712.882812 0)"/>
     </g>
    </g>
    <g id="line2d_37">
     <path d="M 777.705971 84.012812 
L 787.705971 84.012812 
L 797.705971 84.012812 
" style="fill: none; stroke-dasharray: 5.55,2.4; stroke-dashoffset: 0; stroke: #008000; stroke-width: 1.5"/>
    </g>
    <g id="text_21">
     <!-- Double Exponential Smoothing Rose -->
     <g transform="translate(805.705971 87.512812) scale(0.1 -0.1)">
      <defs>
       <path id="DejaVuSans-75" d="M 544 1381 
L 544 3500 
L 1119 3500 
L 1119 1403 
Q 1119 906 1312 657 
Q 1506 409 1894 409 
Q 2359 409 2629 706 
Q 2900 1003 2900 1516 
L 2900 3500 
L 3475 3500 
L 3475 0 
L 2900 0 
L 2900 538 
Q 2691 219 2414 64 
Q 2138 -91 1772 -91 
Q 1169 -91 856 284 
Q 544 659 544 1381 
z
M 1991 3584 
L 1991 3584 
z
" transform="scale(0.015625)"/>
       <path id="DejaVuSans-62" d="M 3116 1747 
Q 3116 2381 2855 2742 
Q 2594 3103 2138 3103 
Q 1681 3103 1420 2742 
Q 1159 2381 1159 1747 
Q 1159 1113 1420 752 
Q 1681 391 2138 391 
Q 2594 391 2855 752 
Q 3116 1113 3116 1747 
z
M 1159 2969 
Q 1341 3281 1617 3432 
Q 1894 3584 2278 3584 
Q 2916 3584 3314 3078 
Q 3713 2572 3713 1747 
Q 3713 922 3314 415 
Q 2916 -91 2278 -91 
Q 1894 -91 1617 61 
Q 1341 213 1159 525 
L 1159 0 
L 581 0 
L 581 4863 
L 1159 4863 
L 1159 2969 
z
" transform="scale(0.015625)"/>
      </defs>
      <use xlink:href="#DejaVuSans-44"/>
      <use xlink:href="#DejaVuSans-6f" transform="translate(77.001953 0)"/>
      <use xlink:href="#DejaVuSans-75" transform="translate(138.183594 0)"/>
      <use xlink:href="#DejaVuSans-62" transform="translate(201.5625 0)"/>
      <use xlink:href="#DejaVuSans-6c" transform="translate(265.039062 0)"/>
      <use xlink:href="#DejaVuSans-65" transform="translate(292.822266 0)"/>
      <use xlink:href="#DejaVuSans-20" transform="translate(354.345703 0)"/>
      <use xlink:href="#DejaVuSans-45" transform="translate(386.132812 0)"/>
      <use xlink:href="#DejaVuSans-78" transform="translate(449.316406 0)"/>
      <use xlink:href="#DejaVuSans-70" transform="translate(508.496094 0)"/>
      <use xlink:href="#DejaVuSans-6f" transform="translate(571.972656 0)"/>
      <use xlink:href="#DejaVuSans-6e" transform="translate(633.154297 0)"/>
      <use xlink:href="#DejaVuSans-65" transform="translate(696.533203 0)"/>
      <use xlink:href="#DejaVuSans-6e" transform="translate(758.056641 0)"/>
      <use xlink:href="#DejaVuSans-74" transform="translate(821.435547 0)"/>
      <use xlink:href="#DejaVuSans-69" transform="translate(860.644531 0)"/>
      <use xlink:href="#DejaVuSans-61" transform="translate(888.427734 0)"/>
      <use xlink:href="#DejaVuSans-6c" transform="translate(949.707031 0)"/>
      <use xlink:href="#DejaVuSans-20" transform="translate(977.490234 0)"/>
      <use xlink:href="#DejaVuSans-53" transform="translate(1009.277344 0)"/>
      <use xlink:href="#DejaVuSans-6d" transform="translate(1072.753906 0)"/>
      <use xlink:href="#DejaVuSans-6f" transform="translate(1170.166016 0)"/>
      <use xlink:href="#DejaVuSans-6f" transform="translate(1231.347656 0)"/>
      <use xlink:href="#DejaVuSans-74" transform="translate(1292.529297 0)"/>
      <use xlink:href="#DejaVuSans-68" transform="translate(1331.738281 0)"/>
      <use xlink:href="#DejaVuSans-69" transform="translate(1395.117188 0)"/>
      <use xlink:href="#DejaVuSans-6e" transform="translate(1422.900391 0)"/>
      <use xlink:href="#DejaVuSans-67" transform="translate(1486.279297 0)"/>
      <use xlink:href="#DejaVuSans-20" transform="translate(1549.755859 0)"/>
      <use xlink:href="#DejaVuSans-52" transform="translate(1581.542969 0)"/>
      <use xlink:href="#DejaVuSans-6f" transform="translate(1646.525391 0)"/>
      <use xlink:href="#DejaVuSans-73" transform="translate(1707.707031 0)"/>
      <use xlink:href="#DejaVuSans-65" transform="translate(1759.806641 0)"/>
     </g>
    </g>
    <g id="line2d_38">
     <path d="M 777.705971 98.690937 
L 787.705971 98.690937 
L 797.705971 98.690937 
" style="fill: none; stroke-dasharray: 5.55,2.4; stroke-dashoffset: 0; stroke: #0000ff; stroke-width: 1.5"/>
    </g>
    <g id="text_22">
     <!-- Triple Exponential Smoothing Rose -->
     <g transform="translate(805.705971 102.190937) scale(0.1 -0.1)">
      <use xlink:href="#DejaVuSans-54"/>
      <use xlink:href="#DejaVuSans-72" transform="translate(46.333984 0)"/>
      <use xlink:href="#DejaVuSans-69" transform="translate(87.447266 0)"/>
      <use xlink:href="#DejaVuSans-70" transform="translate(115.230469 0)"/>
      <use xlink:href="#DejaVuSans-6c" transform="translate(178.707031 0)"/>
      <use xlink:href="#DejaVuSans-65" transform="translate(206.490234 0)"/>
      <use xlink:href="#DejaVuSans-20" transform="translate(268.013672 0)"/>
      <use xlink:href="#DejaVuSans-45" transform="translate(299.800781 0)"/>
      <use xlink:href="#DejaVuSans-78" transform="translate(362.984375 0)"/>
      <use xlink:href="#DejaVuSans-70" transform="translate(422.164062 0)"/>
      <use xlink:href="#DejaVuSans-6f" transform="translate(485.640625 0)"/>
      <use xlink:href="#DejaVuSans-6e" transform="translate(546.822266 0)"/>
      <use xlink:href="#DejaVuSans-65" transform="translate(610.201172 0)"/>
      <use xlink:href="#DejaVuSans-6e" transform="translate(671.724609 0)"/>
      <use xlink:href="#DejaVuSans-74" transform="translate(735.103516 0)"/>
      <use xlink:href="#DejaVuSans-69" transform="translate(774.3125 0)"/>
      <use xlink:href="#DejaVuSans-61" transform="translate(802.095703 0)"/>
      <use xlink:href="#DejaVuSans-6c" transform="translate(863.375 0)"/>
      <use xlink:href="#DejaVuSans-20" transform="translate(891.158203 0)"/>
      <use xlink:href="#DejaVuSans-53" transform="translate(922.945312 0)"/>
      <use xlink:href="#DejaVuSans-6d" transform="translate(986.421875 0)"/>
      <use xlink:href="#DejaVuSans-6f" transform="translate(1083.833984 0)"/>
      <use xlink:href="#DejaVuSans-6f" transform="translate(1145.015625 0)"/>
      <use xlink:href="#DejaVuSans-74" transform="translate(1206.197266 0)"/>
      <use xlink:href="#DejaVuSans-68" transform="translate(1245.40625 0)"/>
      <use xlink:href="#DejaVuSans-69" transform="translate(1308.785156 0)"/>
      <use xlink:href="#DejaVuSans-6e" transform="translate(1336.568359 0)"/>
      <use xlink:href="#DejaVuSans-67" transform="translate(1399.947266 0)"/>
      <use xlink:href="#DejaVuSans-20" transform="translate(1463.423828 0)"/>
      <use xlink:href="#DejaVuSans-52" transform="translate(1495.210938 0)"/>
      <use xlink:href="#DejaVuSans-6f" transform="translate(1560.193359 0)"/>
      <use xlink:href="#DejaVuSans-73" transform="translate(1621.375 0)"/>
      <use xlink:href="#DejaVuSans-65" transform="translate(1673.474609 0)"/>
     </g>
    </g>
   </g>
  </g>
 </g>
 <defs>
  <clipPath id="p27910053d0">
   <rect x="50.87" y="26.88" width="945.971908" height="435.16"/>
  </clipPath>
 </defs>
</svg>
