<?xml version="1.0" encoding="utf-8" standalone="no"?>
<!DOCTYPE svg PUBLIC "-//W3C//DTD SVG 1.1//EN"
  "http://www.w3.org/Graphics/SVG/1.1/DTD/svg11.dtd">
<svg xmlns:xlink="http://www.w3.org/1999/xlink" width="1080pt" height="720pt" viewBox="0 0 1080 720" xmlns="http://www.w3.org/2000/svg" version="1.1">
 <metadata>
  <rdf:RDF xmlns:dc="http://purl.org/dc/elements/1.1/" xmlns:cc="http://creativecommons.org/ns#" xmlns:rdf="http://www.w3.org/1999/02/22-rdf-syntax-ns#">
   <cc:Work>
    <dc:type rdf:resource="http://purl.org/dc/dcmitype/StillImage"/>
    <dc:date>2025-01-01T17:01:12.148952</dc:date>
    <dc:format>image/svg+xml</dc:format>
    <dc:creator>
     <cc:Agent>
      <dc:title>Matplotlib v3.10.0, https://matplotlib.org/</dc:title>
     </cc:Agent>
    </dc:creator>
   </cc:Work>
  </rdf:RDF>
 </metadata>
 <defs>
  <style type="text/css">*{stroke-linejoin: round; stroke-linecap: butt}</style>
 </defs>
 <g id="figure_1">
  <g id="patch_1">
   <path d="M 0 720 
L 1080 720 
L 1080 0 
L 0 0 
z
" style="fill: #ffffff"/>
  </g>
  <g id="axes_1">
   <g id="patch_2">
    <path d="M 50.87 678.04 
L 960.88 678.04 
L 960.88 26.88 
L 50.87 26.88 
z
" style="fill: #ffffff"/>
   </g>
   <g id="FillBetweenPolyCollection_1"/>
   <g id="FillBetweenPolyCollection_2"/>
   <g id="FillBetweenPolyCollection_3"/>
   <g id="FillBetweenPolyCollection_4"/>
   <g id="FillBetweenPolyCollection_5"/>
   <g id="FillBetweenPolyCollection_6"/>
   <g id="FillBetweenPolyCollection_7"/>
   <g id="FillBetweenPolyCollection_8"/>
   <g id="FillBetweenPolyCollection_9"/>
   <g id="FillBetweenPolyCollection_10"/>
   <g id="FillBetweenPolyCollection_11"/>
   <g id="FillBetweenPolyCollection_12"/>
   <g id="FillBetweenPolyCollection_13"/>
   <g id="FillBetweenPolyCollection_14"/>
   <g id="FillBetweenPolyCollection_15"/>
   <g id="FillBetweenPolyCollection_16"/>
   <g id="matplotlib.axis_1">
    <g id="xtick_1">
     <g id="line2d_1">
      <path d="M 92.234091 678.04 
L 92.234091 26.88 
" clip-path="url(#p40fe26f1e7)" style="fill: none; stroke: #b0b0b0; stroke-width: 0.8; stroke-linecap: square"/>
     </g>
     <g id="line2d_2">
      <defs>
       <path id="m907413daaf" d="M 0 0 
L 0 3.5 
" style="stroke: #000000; stroke-width: 0.8"/>
      </defs>
      <g>
       <use xlink:href="#m907413daaf" x="92.234091" y="678.04" style="stroke: #000000; stroke-width: 0.8"/>
      </g>
     </g>
     <g id="text_1">
      <!-- 1 -->
      <g transform="translate(89.052841 692.638438) scale(0.1 -0.1)">
       <defs>
        <path id="DejaVuSans-31" d="M 794 531 
L 1825 531 
L 1825 4091 
L 703 3866 
L 703 4441 
L 1819 4666 
L 2450 4666 
L 2450 531 
L 3481 531 
L 3481 0 
L 794 0 
L 794 531 
z
" transform="scale(0.015625)"/>
       </defs>
       <use xlink:href="#DejaVuSans-31"/>
      </g>
     </g>
    </g>
    <g id="xtick_2">
     <g id="line2d_3">
      <path d="M 167.441529 678.04 
L 167.441529 26.88 
" clip-path="url(#p40fe26f1e7)" style="fill: none; stroke: #b0b0b0; stroke-width: 0.8; stroke-linecap: square"/>
     </g>
     <g id="line2d_4">
      <g>
       <use xlink:href="#m907413daaf" x="167.441529" y="678.04" style="stroke: #000000; stroke-width: 0.8"/>
      </g>
     </g>
     <g id="text_2">
      <!-- 2 -->
      <g transform="translate(164.260279 692.638438) scale(0.1 -0.1)">
       <defs>
        <path id="DejaVuSans-32" d="M 1228 531 
L 3431 531 
L 3431 0 
L 469 0 
L 469 531 
Q 828 903 1448 1529 
Q 2069 2156 2228 2338 
Q 2531 2678 2651 2914 
Q 2772 3150 2772 3378 
Q 2772 3750 2511 3984 
Q 2250 4219 1831 4219 
Q 1534 4219 1204 4116 
Q 875 4013 500 3803 
L 500 4441 
Q 881 4594 1212 4672 
Q 1544 4750 1819 4750 
Q 2544 4750 2975 4387 
Q 3406 4025 3406 3419 
Q 3406 3131 3298 2873 
Q 3191 2616 2906 2266 
Q 2828 2175 2409 1742 
Q 1991 1309 1228 531 
z
" transform="scale(0.015625)"/>
       </defs>
       <use xlink:href="#DejaVuSans-32"/>
      </g>
     </g>
    </g>
    <g id="xtick_3">
     <g id="line2d_5">
      <path d="M 242.648967 678.04 
L 242.648967 26.88 
" clip-path="url(#p40fe26f1e7)" style="fill: none; stroke: #b0b0b0; stroke-width: 0.8; stroke-linecap: square"/>
     </g>
     <g id="line2d_6">
      <g>
       <use xlink:href="#m907413daaf" x="242.648967" y="678.04" style="stroke: #000000; stroke-width: 0.8"/>
      </g>
     </g>
     <g id="text_3">
      <!-- 3 -->
      <g transform="translate(239.467717 692.638438) scale(0.1 -0.1)">
       <defs>
        <path id="DejaVuSans-33" d="M 2597 2516 
Q 3050 2419 3304 2112 
Q 3559 1806 3559 1356 
Q 3559 666 3084 287 
Q 2609 -91 1734 -91 
Q 1441 -91 1130 -33 
Q 819 25 488 141 
L 488 750 
Q 750 597 1062 519 
Q 1375 441 1716 441 
Q 2309 441 2620 675 
Q 2931 909 2931 1356 
Q 2931 1769 2642 2001 
Q 2353 2234 1838 2234 
L 1294 2234 
L 1294 2753 
L 1863 2753 
Q 2328 2753 2575 2939 
Q 2822 3125 2822 3475 
Q 2822 3834 2567 4026 
Q 2313 4219 1838 4219 
Q 1578 4219 1281 4162 
Q 984 4106 628 3988 
L 628 4550 
Q 988 4650 1302 4700 
Q 1616 4750 1894 4750 
Q 2613 4750 3031 4423 
Q 3450 4097 3450 3541 
Q 3450 3153 3228 2886 
Q 3006 2619 2597 2516 
z
" transform="scale(0.015625)"/>
       </defs>
       <use xlink:href="#DejaVuSans-33"/>
      </g>
     </g>
    </g>
    <g id="xtick_4">
     <g id="line2d_7">
      <path d="M 317.856405 678.04 
L 317.856405 26.88 
" clip-path="url(#p40fe26f1e7)" style="fill: none; stroke: #b0b0b0; stroke-width: 0.8; stroke-linecap: square"/>
     </g>
     <g id="line2d_8">
      <g>
       <use xlink:href="#m907413daaf" x="317.856405" y="678.04" style="stroke: #000000; stroke-width: 0.8"/>
      </g>
     </g>
     <g id="text_4">
      <!-- 4 -->
      <g transform="translate(314.675155 692.638438) scale(0.1 -0.1)">
       <defs>
        <path id="DejaVuSans-34" d="M 2419 4116 
L 825 1625 
L 2419 1625 
L 2419 4116 
z
M 2253 4666 
L 3047 4666 
L 3047 1625 
L 3713 1625 
L 3713 1100 
L 3047 1100 
L 3047 0 
L 2419 0 
L 2419 1100 
L 313 1100 
L 313 1709 
L 2253 4666 
z
" transform="scale(0.015625)"/>
       </defs>
       <use xlink:href="#DejaVuSans-34"/>
      </g>
     </g>
    </g>
    <g id="xtick_5">
     <g id="line2d_9">
      <path d="M 393.063843 678.04 
L 393.063843 26.88 
" clip-path="url(#p40fe26f1e7)" style="fill: none; stroke: #b0b0b0; stroke-width: 0.8; stroke-linecap: square"/>
     </g>
     <g id="line2d_10">
      <g>
       <use xlink:href="#m907413daaf" x="393.063843" y="678.04" style="stroke: #000000; stroke-width: 0.8"/>
      </g>
     </g>
     <g id="text_5">
      <!-- 5 -->
      <g transform="translate(389.882593 692.638438) scale(0.1 -0.1)">
       <defs>
        <path id="DejaVuSans-35" d="M 691 4666 
L 3169 4666 
L 3169 4134 
L 1269 4134 
L 1269 2991 
Q 1406 3038 1543 3061 
Q 1681 3084 1819 3084 
Q 2600 3084 3056 2656 
Q 3513 2228 3513 1497 
Q 3513 744 3044 326 
Q 2575 -91 1722 -91 
Q 1428 -91 1123 -41 
Q 819 9 494 109 
L 494 744 
Q 775 591 1075 516 
Q 1375 441 1709 441 
Q 2250 441 2565 725 
Q 2881 1009 2881 1497 
Q 2881 1984 2565 2268 
Q 2250 2553 1709 2553 
Q 1456 2553 1204 2497 
Q 953 2441 691 2322 
L 691 4666 
z
" transform="scale(0.015625)"/>
       </defs>
       <use xlink:href="#DejaVuSans-35"/>
      </g>
     </g>
    </g>
    <g id="xtick_6">
     <g id="line2d_11">
      <path d="M 468.271281 678.04 
L 468.271281 26.88 
" clip-path="url(#p40fe26f1e7)" style="fill: none; stroke: #b0b0b0; stroke-width: 0.8; stroke-linecap: square"/>
     </g>
     <g id="line2d_12">
      <g>
       <use xlink:href="#m907413daaf" x="468.271281" y="678.04" style="stroke: #000000; stroke-width: 0.8"/>
      </g>
     </g>
     <g id="text_6">
      <!-- 6 -->
      <g transform="translate(465.090031 692.638438) scale(0.1 -0.1)">
       <defs>
        <path id="DejaVuSans-36" d="M 2113 2584 
Q 1688 2584 1439 2293 
Q 1191 2003 1191 1497 
Q 1191 994 1439 701 
Q 1688 409 2113 409 
Q 2538 409 2786 701 
Q 3034 994 3034 1497 
Q 3034 2003 2786 2293 
Q 2538 2584 2113 2584 
z
M 3366 4563 
L 3366 3988 
Q 3128 4100 2886 4159 
Q 2644 4219 2406 4219 
Q 1781 4219 1451 3797 
Q 1122 3375 1075 2522 
Q 1259 2794 1537 2939 
Q 1816 3084 2150 3084 
Q 2853 3084 3261 2657 
Q 3669 2231 3669 1497 
Q 3669 778 3244 343 
Q 2819 -91 2113 -91 
Q 1303 -91 875 529 
Q 447 1150 447 2328 
Q 447 3434 972 4092 
Q 1497 4750 2381 4750 
Q 2619 4750 2861 4703 
Q 3103 4656 3366 4563 
z
" transform="scale(0.015625)"/>
       </defs>
       <use xlink:href="#DejaVuSans-36"/>
      </g>
     </g>
    </g>
    <g id="xtick_7">
     <g id="line2d_13">
      <path d="M 543.478719 678.04 
L 543.478719 26.88 
" clip-path="url(#p40fe26f1e7)" style="fill: none; stroke: #b0b0b0; stroke-width: 0.8; stroke-linecap: square"/>
     </g>
     <g id="line2d_14">
      <g>
       <use xlink:href="#m907413daaf" x="543.478719" y="678.04" style="stroke: #000000; stroke-width: 0.8"/>
      </g>
     </g>
     <g id="text_7">
      <!-- 7 -->
      <g transform="translate(540.297469 692.638438) scale(0.1 -0.1)">
       <defs>
        <path id="DejaVuSans-37" d="M 525 4666 
L 3525 4666 
L 3525 4397 
L 1831 0 
L 1172 0 
L 2766 4134 
L 525 4134 
L 525 4666 
z
" transform="scale(0.015625)"/>
       </defs>
       <use xlink:href="#DejaVuSans-37"/>
      </g>
     </g>
    </g>
    <g id="xtick_8">
     <g id="line2d_15">
      <path d="M 618.686157 678.04 
L 618.686157 26.88 
" clip-path="url(#p40fe26f1e7)" style="fill: none; stroke: #b0b0b0; stroke-width: 0.8; stroke-linecap: square"/>
     </g>
     <g id="line2d_16">
      <g>
       <use xlink:href="#m907413daaf" x="618.686157" y="678.04" style="stroke: #000000; stroke-width: 0.8"/>
      </g>
     </g>
     <g id="text_8">
      <!-- 8 -->
      <g transform="translate(615.504907 692.638438) scale(0.1 -0.1)">
       <defs>
        <path id="DejaVuSans-38" d="M 2034 2216 
Q 1584 2216 1326 1975 
Q 1069 1734 1069 1313 
Q 1069 891 1326 650 
Q 1584 409 2034 409 
Q 2484 409 2743 651 
Q 3003 894 3003 1313 
Q 3003 1734 2745 1975 
Q 2488 2216 2034 2216 
z
M 1403 2484 
Q 997 2584 770 2862 
Q 544 3141 544 3541 
Q 544 4100 942 4425 
Q 1341 4750 2034 4750 
Q 2731 4750 3128 4425 
Q 3525 4100 3525 3541 
Q 3525 3141 3298 2862 
Q 3072 2584 2669 2484 
Q 3125 2378 3379 2068 
Q 3634 1759 3634 1313 
Q 3634 634 3220 271 
Q 2806 -91 2034 -91 
Q 1263 -91 848 271 
Q 434 634 434 1313 
Q 434 1759 690 2068 
Q 947 2378 1403 2484 
z
M 1172 3481 
Q 1172 3119 1398 2916 
Q 1625 2713 2034 2713 
Q 2441 2713 2670 2916 
Q 2900 3119 2900 3481 
Q 2900 3844 2670 4047 
Q 2441 4250 2034 4250 
Q 1625 4250 1398 4047 
Q 1172 3844 1172 3481 
z
" transform="scale(0.015625)"/>
       </defs>
       <use xlink:href="#DejaVuSans-38"/>
      </g>
     </g>
    </g>
    <g id="xtick_9">
     <g id="line2d_17">
      <path d="M 693.893595 678.04 
L 693.893595 26.88 
" clip-path="url(#p40fe26f1e7)" style="fill: none; stroke: #b0b0b0; stroke-width: 0.8; stroke-linecap: square"/>
     </g>
     <g id="line2d_18">
      <g>
       <use xlink:href="#m907413daaf" x="693.893595" y="678.04" style="stroke: #000000; stroke-width: 0.8"/>
      </g>
     </g>
     <g id="text_9">
      <!-- 9 -->
      <g transform="translate(690.712345 692.638438) scale(0.1 -0.1)">
       <defs>
        <path id="DejaVuSans-39" d="M 703 97 
L 703 672 
Q 941 559 1184 500 
Q 1428 441 1663 441 
Q 2288 441 2617 861 
Q 2947 1281 2994 2138 
Q 2813 1869 2534 1725 
Q 2256 1581 1919 1581 
Q 1219 1581 811 2004 
Q 403 2428 403 3163 
Q 403 3881 828 4315 
Q 1253 4750 1959 4750 
Q 2769 4750 3195 4129 
Q 3622 3509 3622 2328 
Q 3622 1225 3098 567 
Q 2575 -91 1691 -91 
Q 1453 -91 1209 -44 
Q 966 3 703 97 
z
M 1959 2075 
Q 2384 2075 2632 2365 
Q 2881 2656 2881 3163 
Q 2881 3666 2632 3958 
Q 2384 4250 1959 4250 
Q 1534 4250 1286 3958 
Q 1038 3666 1038 3163 
Q 1038 2656 1286 2365 
Q 1534 2075 1959 2075 
z
" transform="scale(0.015625)"/>
       </defs>
       <use xlink:href="#DejaVuSans-39"/>
      </g>
     </g>
    </g>
    <g id="xtick_10">
     <g id="line2d_19">
      <path d="M 769.101033 678.04 
L 769.101033 26.88 
" clip-path="url(#p40fe26f1e7)" style="fill: none; stroke: #b0b0b0; stroke-width: 0.8; stroke-linecap: square"/>
     </g>
     <g id="line2d_20">
      <g>
       <use xlink:href="#m907413daaf" x="769.101033" y="678.04" style="stroke: #000000; stroke-width: 0.8"/>
      </g>
     </g>
     <g id="text_10">
      <!-- 10 -->
      <g transform="translate(762.738533 692.638438) scale(0.1 -0.1)">
       <defs>
        <path id="DejaVuSans-30" d="M 2034 4250 
Q 1547 4250 1301 3770 
Q 1056 3291 1056 2328 
Q 1056 1369 1301 889 
Q 1547 409 2034 409 
Q 2525 409 2770 889 
Q 3016 1369 3016 2328 
Q 3016 3291 2770 3770 
Q 2525 4250 2034 4250 
z
M 2034 4750 
Q 2819 4750 3233 4129 
Q 3647 3509 3647 2328 
Q 3647 1150 3233 529 
Q 2819 -91 2034 -91 
Q 1250 -91 836 529 
Q 422 1150 422 2328 
Q 422 3509 836 4129 
Q 1250 4750 2034 4750 
z
" transform="scale(0.015625)"/>
       </defs>
       <use xlink:href="#DejaVuSans-31"/>
       <use xlink:href="#DejaVuSans-30" transform="translate(63.623047 0)"/>
      </g>
     </g>
    </g>
    <g id="xtick_11">
     <g id="line2d_21">
      <path d="M 844.308471 678.04 
L 844.308471 26.88 
" clip-path="url(#p40fe26f1e7)" style="fill: none; stroke: #b0b0b0; stroke-width: 0.8; stroke-linecap: square"/>
     </g>
     <g id="line2d_22">
      <g>
       <use xlink:href="#m907413daaf" x="844.308471" y="678.04" style="stroke: #000000; stroke-width: 0.8"/>
      </g>
     </g>
     <g id="text_11">
      <!-- 11 -->
      <g transform="translate(837.945971 692.638438) scale(0.1 -0.1)">
       <use xlink:href="#DejaVuSans-31"/>
       <use xlink:href="#DejaVuSans-31" transform="translate(63.623047 0)"/>
      </g>
     </g>
    </g>
    <g id="xtick_12">
     <g id="line2d_23">
      <path d="M 919.515909 678.04 
L 919.515909 26.88 
" clip-path="url(#p40fe26f1e7)" style="fill: none; stroke: #b0b0b0; stroke-width: 0.8; stroke-linecap: square"/>
     </g>
     <g id="line2d_24">
      <g>
       <use xlink:href="#m907413daaf" x="919.515909" y="678.04" style="stroke: #000000; stroke-width: 0.8"/>
      </g>
     </g>
     <g id="text_12">
      <!-- 12 -->
      <g transform="translate(913.153409 692.638438) scale(0.1 -0.1)">
       <use xlink:href="#DejaVuSans-31"/>
       <use xlink:href="#DejaVuSans-32" transform="translate(63.623047 0)"/>
      </g>
     </g>
    </g>
    <g id="text_13">
     <!-- Month -->
     <g transform="translate(490.203906 706.316563) scale(0.1 -0.1)">
      <defs>
       <path id="DejaVuSans-4d" d="M 628 4666 
L 1569 4666 
L 2759 1491 
L 3956 4666 
L 4897 4666 
L 4897 0 
L 4281 0 
L 4281 4097 
L 3078 897 
L 2444 897 
L 1241 4097 
L 1241 0 
L 628 0 
L 628 4666 
z
" transform="scale(0.015625)"/>
       <path id="DejaVuSans-6f" d="M 1959 3097 
Q 1497 3097 1228 2736 
Q 959 2375 959 1747 
Q 959 1119 1226 758 
Q 1494 397 1959 397 
Q 2419 397 2687 759 
Q 2956 1122 2956 1747 
Q 2956 2369 2687 2733 
Q 2419 3097 1959 3097 
z
M 1959 3584 
Q 2709 3584 3137 3096 
Q 3566 2609 3566 1747 
Q 3566 888 3137 398 
Q 2709 -91 1959 -91 
Q 1206 -91 779 398 
Q 353 888 353 1747 
Q 353 2609 779 3096 
Q 1206 3584 1959 3584 
z
" transform="scale(0.015625)"/>
       <path id="DejaVuSans-6e" d="M 3513 2113 
L 3513 0 
L 2938 0 
L 2938 2094 
Q 2938 2591 2744 2837 
Q 2550 3084 2163 3084 
Q 1697 3084 1428 2787 
Q 1159 2491 1159 1978 
L 1159 0 
L 581 0 
L 581 3500 
L 1159 3500 
L 1159 2956 
Q 1366 3272 1645 3428 
Q 1925 3584 2291 3584 
Q 2894 3584 3203 3211 
Q 3513 2838 3513 2113 
z
" transform="scale(0.015625)"/>
       <path id="DejaVuSans-74" d="M 1172 4494 
L 1172 3500 
L 2356 3500 
L 2356 3053 
L 1172 3053 
L 1172 1153 
Q 1172 725 1289 603 
Q 1406 481 1766 481 
L 2356 481 
L 2356 0 
L 1766 0 
Q 1100 0 847 248 
Q 594 497 594 1153 
L 594 3053 
L 172 3053 
L 172 3500 
L 594 3500 
L 594 4494 
L 1172 4494 
z
" transform="scale(0.015625)"/>
       <path id="DejaVuSans-68" d="M 3513 2113 
L 3513 0 
L 2938 0 
L 2938 2094 
Q 2938 2591 2744 2837 
Q 2550 3084 2163 3084 
Q 1697 3084 1428 2787 
Q 1159 2491 1159 1978 
L 1159 0 
L 581 0 
L 581 4863 
L 1159 4863 
L 1159 2956 
Q 1366 3272 1645 3428 
Q 1925 3584 2291 3584 
Q 2894 3584 3203 3211 
Q 3513 2838 3513 2113 
z
" transform="scale(0.015625)"/>
      </defs>
      <use xlink:href="#DejaVuSans-4d"/>
      <use xlink:href="#DejaVuSans-6f" transform="translate(86.279297 0)"/>
      <use xlink:href="#DejaVuSans-6e" transform="translate(147.460938 0)"/>
      <use xlink:href="#DejaVuSans-74" transform="translate(210.839844 0)"/>
      <use xlink:href="#DejaVuSans-68" transform="translate(250.048828 0)"/>
     </g>
    </g>
   </g>
   <g id="matplotlib.axis_2">
    <g id="ytick_1">
     <g id="line2d_25">
      <path d="M 50.87 593.951442 
L 960.88 593.951442 
" clip-path="url(#p40fe26f1e7)" style="fill: none; stroke: #b0b0b0; stroke-width: 0.8; stroke-linecap: square"/>
     </g>
     <g id="line2d_26">
      <defs>
       <path id="ma3ecbe7804" d="M 0 0 
L -3.5 0 
" style="stroke: #000000; stroke-width: 0.8"/>
      </defs>
      <g>
       <use xlink:href="#ma3ecbe7804" x="50.87" y="593.951442" style="stroke: #000000; stroke-width: 0.8"/>
      </g>
     </g>
     <g id="text_14">
      <!-- 50 -->
      <g transform="translate(31.145 597.75066) scale(0.1 -0.1)">
       <use xlink:href="#DejaVuSans-35"/>
       <use xlink:href="#DejaVuSans-30" transform="translate(63.623047 0)"/>
      </g>
     </g>
    </g>
    <g id="ytick_2">
     <g id="line2d_27">
      <path d="M 50.87 470.109677 
L 960.88 470.109677 
" clip-path="url(#p40fe26f1e7)" style="fill: none; stroke: #b0b0b0; stroke-width: 0.8; stroke-linecap: square"/>
     </g>
     <g id="line2d_28">
      <g>
       <use xlink:href="#ma3ecbe7804" x="50.87" y="470.109677" style="stroke: #000000; stroke-width: 0.8"/>
      </g>
     </g>
     <g id="text_15">
      <!-- 100 -->
      <g transform="translate(24.7825 473.908895) scale(0.1 -0.1)">
       <use xlink:href="#DejaVuSans-31"/>
       <use xlink:href="#DejaVuSans-30" transform="translate(63.623047 0)"/>
       <use xlink:href="#DejaVuSans-30" transform="translate(127.246094 0)"/>
      </g>
     </g>
    </g>
    <g id="ytick_3">
     <g id="line2d_29">
      <path d="M 50.87 346.267912 
L 960.88 346.267912 
" clip-path="url(#p40fe26f1e7)" style="fill: none; stroke: #b0b0b0; stroke-width: 0.8; stroke-linecap: square"/>
     </g>
     <g id="line2d_30">
      <g>
       <use xlink:href="#ma3ecbe7804" x="50.87" y="346.267912" style="stroke: #000000; stroke-width: 0.8"/>
      </g>
     </g>
     <g id="text_16">
      <!-- 150 -->
      <g transform="translate(24.7825 350.067131) scale(0.1 -0.1)">
       <use xlink:href="#DejaVuSans-31"/>
       <use xlink:href="#DejaVuSans-35" transform="translate(63.623047 0)"/>
       <use xlink:href="#DejaVuSans-30" transform="translate(127.246094 0)"/>
      </g>
     </g>
    </g>
    <g id="ytick_4">
     <g id="line2d_31">
      <path d="M 50.87 222.426147 
L 960.88 222.426147 
" clip-path="url(#p40fe26f1e7)" style="fill: none; stroke: #b0b0b0; stroke-width: 0.8; stroke-linecap: square"/>
     </g>
     <g id="line2d_32">
      <g>
       <use xlink:href="#ma3ecbe7804" x="50.87" y="222.426147" style="stroke: #000000; stroke-width: 0.8"/>
      </g>
     </g>
     <g id="text_17">
      <!-- 200 -->
      <g transform="translate(24.7825 226.225366) scale(0.1 -0.1)">
       <use xlink:href="#DejaVuSans-32"/>
       <use xlink:href="#DejaVuSans-30" transform="translate(63.623047 0)"/>
       <use xlink:href="#DejaVuSans-30" transform="translate(127.246094 0)"/>
      </g>
     </g>
    </g>
    <g id="ytick_5">
     <g id="line2d_33">
      <path d="M 50.87 98.584382 
L 960.88 98.584382 
" clip-path="url(#p40fe26f1e7)" style="fill: none; stroke: #b0b0b0; stroke-width: 0.8; stroke-linecap: square"/>
     </g>
     <g id="line2d_34">
      <g>
       <use xlink:href="#ma3ecbe7804" x="50.87" y="98.584382" style="stroke: #000000; stroke-width: 0.8"/>
      </g>
     </g>
     <g id="text_18">
      <!-- 250 -->
      <g transform="translate(24.7825 102.383601) scale(0.1 -0.1)">
       <use xlink:href="#DejaVuSans-32"/>
       <use xlink:href="#DejaVuSans-35" transform="translate(63.623047 0)"/>
       <use xlink:href="#DejaVuSans-30" transform="translate(127.246094 0)"/>
      </g>
     </g>
    </g>
    <g id="text_19">
     <!-- Sparkling Count -->
     <g transform="translate(18.702812 392.381875) rotate(-90) scale(0.1 -0.1)">
      <defs>
       <path id="DejaVuSans-53" d="M 3425 4513 
L 3425 3897 
Q 3066 4069 2747 4153 
Q 2428 4238 2131 4238 
Q 1616 4238 1336 4038 
Q 1056 3838 1056 3469 
Q 1056 3159 1242 3001 
Q 1428 2844 1947 2747 
L 2328 2669 
Q 3034 2534 3370 2195 
Q 3706 1856 3706 1288 
Q 3706 609 3251 259 
Q 2797 -91 1919 -91 
Q 1588 -91 1214 -16 
Q 841 59 441 206 
L 441 856 
Q 825 641 1194 531 
Q 1563 422 1919 422 
Q 2459 422 2753 634 
Q 3047 847 3047 1241 
Q 3047 1584 2836 1778 
Q 2625 1972 2144 2069 
L 1759 2144 
Q 1053 2284 737 2584 
Q 422 2884 422 3419 
Q 422 4038 858 4394 
Q 1294 4750 2059 4750 
Q 2388 4750 2728 4690 
Q 3069 4631 3425 4513 
z
" transform="scale(0.015625)"/>
       <path id="DejaVuSans-70" d="M 1159 525 
L 1159 -1331 
L 581 -1331 
L 581 3500 
L 1159 3500 
L 1159 2969 
Q 1341 3281 1617 3432 
Q 1894 3584 2278 3584 
Q 2916 3584 3314 3078 
Q 3713 2572 3713 1747 
Q 3713 922 3314 415 
Q 2916 -91 2278 -91 
Q 1894 -91 1617 61 
Q 1341 213 1159 525 
z
M 3116 1747 
Q 3116 2381 2855 2742 
Q 2594 3103 2138 3103 
Q 1681 3103 1420 2742 
Q 1159 2381 1159 1747 
Q 1159 1113 1420 752 
Q 1681 391 2138 391 
Q 2594 391 2855 752 
Q 3116 1113 3116 1747 
z
" transform="scale(0.015625)"/>
       <path id="DejaVuSans-61" d="M 2194 1759 
Q 1497 1759 1228 1600 
Q 959 1441 959 1056 
Q 959 750 1161 570 
Q 1363 391 1709 391 
Q 2188 391 2477 730 
Q 2766 1069 2766 1631 
L 2766 1759 
L 2194 1759 
z
M 3341 1997 
L 3341 0 
L 2766 0 
L 2766 531 
Q 2569 213 2275 61 
Q 1981 -91 1556 -91 
Q 1019 -91 701 211 
Q 384 513 384 1019 
Q 384 1609 779 1909 
Q 1175 2209 1959 2209 
L 2766 2209 
L 2766 2266 
Q 2766 2663 2505 2880 
Q 2244 3097 1772 3097 
Q 1472 3097 1187 3025 
Q 903 2953 641 2809 
L 641 3341 
Q 956 3463 1253 3523 
Q 1550 3584 1831 3584 
Q 2591 3584 2966 3190 
Q 3341 2797 3341 1997 
z
" transform="scale(0.015625)"/>
       <path id="DejaVuSans-72" d="M 2631 2963 
Q 2534 3019 2420 3045 
Q 2306 3072 2169 3072 
Q 1681 3072 1420 2755 
Q 1159 2438 1159 1844 
L 1159 0 
L 581 0 
L 581 3500 
L 1159 3500 
L 1159 2956 
Q 1341 3275 1631 3429 
Q 1922 3584 2338 3584 
Q 2397 3584 2469 3576 
Q 2541 3569 2628 3553 
L 2631 2963 
z
" transform="scale(0.015625)"/>
       <path id="DejaVuSans-6b" d="M 581 4863 
L 1159 4863 
L 1159 1991 
L 2875 3500 
L 3609 3500 
L 1753 1863 
L 3688 0 
L 2938 0 
L 1159 1709 
L 1159 0 
L 581 0 
L 581 4863 
z
" transform="scale(0.015625)"/>
       <path id="DejaVuSans-6c" d="M 603 4863 
L 1178 4863 
L 1178 0 
L 603 0 
L 603 4863 
z
" transform="scale(0.015625)"/>
       <path id="DejaVuSans-69" d="M 603 3500 
L 1178 3500 
L 1178 0 
L 603 0 
L 603 3500 
z
M 603 4863 
L 1178 4863 
L 1178 4134 
L 603 4134 
L 603 4863 
z
" transform="scale(0.015625)"/>
       <path id="DejaVuSans-67" d="M 2906 1791 
Q 2906 2416 2648 2759 
Q 2391 3103 1925 3103 
Q 1463 3103 1205 2759 
Q 947 2416 947 1791 
Q 947 1169 1205 825 
Q 1463 481 1925 481 
Q 2391 481 2648 825 
Q 2906 1169 2906 1791 
z
M 3481 434 
Q 3481 -459 3084 -895 
Q 2688 -1331 1869 -1331 
Q 1566 -1331 1297 -1286 
Q 1028 -1241 775 -1147 
L 775 -588 
Q 1028 -725 1275 -790 
Q 1522 -856 1778 -856 
Q 2344 -856 2625 -561 
Q 2906 -266 2906 331 
L 2906 616 
Q 2728 306 2450 153 
Q 2172 0 1784 0 
Q 1141 0 747 490 
Q 353 981 353 1791 
Q 353 2603 747 3093 
Q 1141 3584 1784 3584 
Q 2172 3584 2450 3431 
Q 2728 3278 2906 2969 
L 2906 3500 
L 3481 3500 
L 3481 434 
z
" transform="scale(0.015625)"/>
       <path id="DejaVuSans-20" transform="scale(0.015625)"/>
       <path id="DejaVuSans-43" d="M 4122 4306 
L 4122 3641 
Q 3803 3938 3442 4084 
Q 3081 4231 2675 4231 
Q 1875 4231 1450 3742 
Q 1025 3253 1025 2328 
Q 1025 1406 1450 917 
Q 1875 428 2675 428 
Q 3081 428 3442 575 
Q 3803 722 4122 1019 
L 4122 359 
Q 3791 134 3420 21 
Q 3050 -91 2638 -91 
Q 1578 -91 968 557 
Q 359 1206 359 2328 
Q 359 3453 968 4101 
Q 1578 4750 2638 4750 
Q 3056 4750 3426 4639 
Q 3797 4528 4122 4306 
z
" transform="scale(0.015625)"/>
       <path id="DejaVuSans-75" d="M 544 1381 
L 544 3500 
L 1119 3500 
L 1119 1403 
Q 1119 906 1312 657 
Q 1506 409 1894 409 
Q 2359 409 2629 706 
Q 2900 1003 2900 1516 
L 2900 3500 
L 3475 3500 
L 3475 0 
L 2900 0 
L 2900 538 
Q 2691 219 2414 64 
Q 2138 -91 1772 -91 
Q 1169 -91 856 284 
Q 544 659 544 1381 
z
M 1991 3584 
L 1991 3584 
z
" transform="scale(0.015625)"/>
      </defs>
      <use xlink:href="#DejaVuSans-53"/>
      <use xlink:href="#DejaVuSans-70" transform="translate(63.476562 0)"/>
      <use xlink:href="#DejaVuSans-61" transform="translate(126.953125 0)"/>
      <use xlink:href="#DejaVuSans-72" transform="translate(188.232422 0)"/>
      <use xlink:href="#DejaVuSans-6b" transform="translate(229.345703 0)"/>
      <use xlink:href="#DejaVuSans-6c" transform="translate(287.255859 0)"/>
      <use xlink:href="#DejaVuSans-69" transform="translate(315.039062 0)"/>
      <use xlink:href="#DejaVuSans-6e" transform="translate(342.822266 0)"/>
      <use xlink:href="#DejaVuSans-67" transform="translate(406.201172 0)"/>
      <use xlink:href="#DejaVuSans-20" transform="translate(469.677734 0)"/>
      <use xlink:href="#DejaVuSans-43" transform="translate(501.464844 0)"/>
      <use xlink:href="#DejaVuSans-6f" transform="translate(571.289062 0)"/>
      <use xlink:href="#DejaVuSans-75" transform="translate(632.470703 0)"/>
      <use xlink:href="#DejaVuSans-6e" transform="translate(695.849609 0)"/>
      <use xlink:href="#DejaVuSans-74" transform="translate(759.228516 0)"/>
     </g>
    </g>
   </g>
   <g id="line2d_35">
    <path d="M 92.234091 440.387653 
L 167.441529 425.526641 
L 242.648967 398.281453 
L 317.856405 472.586512 
L 393.063843 430.480312 
L 468.271281 301.684876 
L 543.478719 425.526641 
L 618.686157 398.281453 
L 693.893595 210.04197 
L 769.101033 353.698418 
L 844.308471 346.267912 
L 919.515909 56.478182 
" clip-path="url(#p40fe26f1e7)" style="fill: none; stroke: #edd1cb; stroke-width: 1.5; stroke-linecap: square"/>
    <defs>
     <path id="m361afe78d5" d="M 0 3 
C 0.795609 3 1.55874 2.683901 2.12132 2.12132 
C 2.683901 1.55874 3 0.795609 3 0 
C 3 -0.795609 2.683901 -1.55874 2.12132 -2.12132 
C 1.55874 -2.683901 0.795609 -3 0 -3 
C -0.795609 -3 -1.55874 -2.683901 -2.12132 -2.12132 
C -2.683901 -1.55874 -3 -0.795609 -3 0 
C -3 0.795609 -2.683901 1.55874 -2.12132 2.12132 
C -1.55874 2.683901 -0.795609 3 0 3 
z
" style="stroke: #ffffff; stroke-width: 0.75"/>
    </defs>
    <g clip-path="url(#p40fe26f1e7)">
     <use xlink:href="#m361afe78d5" x="92.234091" y="440.387653" style="fill: #edd1cb; stroke: #ffffff; stroke-width: 0.75"/>
     <use xlink:href="#m361afe78d5" x="167.441529" y="425.526641" style="fill: #edd1cb; stroke: #ffffff; stroke-width: 0.75"/>
     <use xlink:href="#m361afe78d5" x="242.648967" y="398.281453" style="fill: #edd1cb; stroke: #ffffff; stroke-width: 0.75"/>
     <use xlink:href="#m361afe78d5" x="317.856405" y="472.586512" style="fill: #edd1cb; stroke: #ffffff; stroke-width: 0.75"/>
     <use xlink:href="#m361afe78d5" x="393.063843" y="430.480312" style="fill: #edd1cb; stroke: #ffffff; stroke-width: 0.75"/>
     <use xlink:href="#m361afe78d5" x="468.271281" y="301.684876" style="fill: #edd1cb; stroke: #ffffff; stroke-width: 0.75"/>
     <use xlink:href="#m361afe78d5" x="543.478719" y="425.526641" style="fill: #edd1cb; stroke: #ffffff; stroke-width: 0.75"/>
     <use xlink:href="#m361afe78d5" x="618.686157" y="398.281453" style="fill: #edd1cb; stroke: #ffffff; stroke-width: 0.75"/>
     <use xlink:href="#m361afe78d5" x="693.893595" y="210.04197" style="fill: #edd1cb; stroke: #ffffff; stroke-width: 0.75"/>
     <use xlink:href="#m361afe78d5" x="769.101033" y="353.698418" style="fill: #edd1cb; stroke: #ffffff; stroke-width: 0.75"/>
     <use xlink:href="#m361afe78d5" x="844.308471" y="346.267912" style="fill: #edd1cb; stroke: #ffffff; stroke-width: 0.75"/>
     <use xlink:href="#m361afe78d5" x="919.515909" y="56.478182" style="fill: #edd1cb; stroke: #ffffff; stroke-width: 0.75"/>
    </g>
   </g>
   <g id="line2d_36">
    <path d="M 92.234091 405.711959 
L 167.441529 398.281453 
L 242.648967 410.66563 
L 317.856405 477.540183 
L 393.063843 465.156006 
L 468.271281 403.235124 
L 543.478719 167.93577 
L 618.686157 187.750453 
L 693.893595 425.526641 
L 769.101033 368.559429 
L 844.308471 336.360571 
L 919.515909 158.028429 
" clip-path="url(#p40fe26f1e7)" style="fill: none; stroke: #e8c2bf; stroke-width: 1.5; stroke-linecap: square"/>
    <defs>
     <path id="mf42e05c363" d="M 0 3 
C 0.795609 3 1.55874 2.683901 2.12132 2.12132 
C 2.683901 1.55874 3 0.795609 3 0 
C 3 -0.795609 2.683901 -1.55874 2.12132 -2.12132 
C 1.55874 -2.683901 0.795609 -3 0 -3 
C -0.795609 -3 -1.55874 -2.683901 -2.12132 -2.12132 
C -2.683901 -1.55874 -3 -0.795609 -3 0 
C -3 0.795609 -2.683901 1.55874 -2.12132 2.12132 
C -1.55874 2.683901 -0.795609 3 0 3 
z
" style="stroke: #ffffff; stroke-width: 0.75"/>
    </defs>
    <g clip-path="url(#p40fe26f1e7)">
     <use xlink:href="#mf42e05c363" x="92.234091" y="405.711959" style="fill: #e8c2bf; stroke: #ffffff; stroke-width: 0.75"/>
     <use xlink:href="#mf42e05c363" x="167.441529" y="398.281453" style="fill: #e8c2bf; stroke: #ffffff; stroke-width: 0.75"/>
     <use xlink:href="#mf42e05c363" x="242.648967" y="410.66563" style="fill: #e8c2bf; stroke: #ffffff; stroke-width: 0.75"/>
     <use xlink:href="#mf42e05c363" x="317.856405" y="477.540183" style="fill: #e8c2bf; stroke: #ffffff; stroke-width: 0.75"/>
     <use xlink:href="#mf42e05c363" x="393.063843" y="465.156006" style="fill: #e8c2bf; stroke: #ffffff; stroke-width: 0.75"/>
     <use xlink:href="#mf42e05c363" x="468.271281" y="403.235124" style="fill: #e8c2bf; stroke: #ffffff; stroke-width: 0.75"/>
     <use xlink:href="#mf42e05c363" x="543.478719" y="167.93577" style="fill: #e8c2bf; stroke: #ffffff; stroke-width: 0.75"/>
     <use xlink:href="#mf42e05c363" x="618.686157" y="187.750453" style="fill: #e8c2bf; stroke: #ffffff; stroke-width: 0.75"/>
     <use xlink:href="#mf42e05c363" x="693.893595" y="425.526641" style="fill: #e8c2bf; stroke: #ffffff; stroke-width: 0.75"/>
     <use xlink:href="#mf42e05c363" x="769.101033" y="368.559429" style="fill: #e8c2bf; stroke: #ffffff; stroke-width: 0.75"/>
     <use xlink:href="#mf42e05c363" x="844.308471" y="336.360571" style="fill: #e8c2bf; stroke: #ffffff; stroke-width: 0.75"/>
     <use xlink:href="#mf42e05c363" x="919.515909" y="158.028429" style="fill: #e8c2bf; stroke: #ffffff; stroke-width: 0.75"/>
    </g>
   </g>
   <g id="line2d_37">
    <path d="M 92.234091 497.354865 
L 167.441529 527.076889 
L 242.648967 514.692712 
L 317.856405 477.540183 
L 393.063843 403.235124 
L 468.271281 418.096135 
L 543.478719 428.003477 
L 618.686157 428.003477 
L 693.893595 455.248665 
L 769.101033 440.387653 
L 844.308471 385.897277 
L 919.515909 299.208041 
" clip-path="url(#p40fe26f1e7)" style="fill: none; stroke: #e2b3b5; stroke-width: 1.5; stroke-linecap: square"/>
    <defs>
     <path id="m2cb3ccbbf4" d="M 0 3 
C 0.795609 3 1.55874 2.683901 2.12132 2.12132 
C 2.683901 1.55874 3 0.795609 3 0 
C 3 -0.795609 2.683901 -1.55874 2.12132 -2.12132 
C 1.55874 -2.683901 0.795609 -3 0 -3 
C -0.795609 -3 -1.55874 -2.683901 -2.12132 -2.12132 
C -2.683901 -1.55874 -3 -0.795609 -3 0 
C -3 0.795609 -2.683901 1.55874 -2.12132 2.12132 
C -1.55874 2.683901 -0.795609 3 0 3 
z
" style="stroke: #ffffff; stroke-width: 0.75"/>
    </defs>
    <g clip-path="url(#p40fe26f1e7)">
     <use xlink:href="#m2cb3ccbbf4" x="92.234091" y="497.354865" style="fill: #e2b3b5; stroke: #ffffff; stroke-width: 0.75"/>
     <use xlink:href="#m2cb3ccbbf4" x="167.441529" y="527.076889" style="fill: #e2b3b5; stroke: #ffffff; stroke-width: 0.75"/>
     <use xlink:href="#m2cb3ccbbf4" x="242.648967" y="514.692712" style="fill: #e2b3b5; stroke: #ffffff; stroke-width: 0.75"/>
     <use xlink:href="#m2cb3ccbbf4" x="317.856405" y="477.540183" style="fill: #e2b3b5; stroke: #ffffff; stroke-width: 0.75"/>
     <use xlink:href="#m2cb3ccbbf4" x="393.063843" y="403.235124" style="fill: #e2b3b5; stroke: #ffffff; stroke-width: 0.75"/>
     <use xlink:href="#m2cb3ccbbf4" x="468.271281" y="418.096135" style="fill: #e2b3b5; stroke: #ffffff; stroke-width: 0.75"/>
     <use xlink:href="#m2cb3ccbbf4" x="543.478719" y="428.003477" style="fill: #e2b3b5; stroke: #ffffff; stroke-width: 0.75"/>
     <use xlink:href="#m2cb3ccbbf4" x="618.686157" y="428.003477" style="fill: #e2b3b5; stroke: #ffffff; stroke-width: 0.75"/>
     <use xlink:href="#m2cb3ccbbf4" x="693.893595" y="455.248665" style="fill: #e2b3b5; stroke: #ffffff; stroke-width: 0.75"/>
     <use xlink:href="#m2cb3ccbbf4" x="769.101033" y="440.387653" style="fill: #e2b3b5; stroke: #ffffff; stroke-width: 0.75"/>
     <use xlink:href="#m2cb3ccbbf4" x="844.308471" y="385.897277" style="fill: #e2b3b5; stroke: #ffffff; stroke-width: 0.75"/>
     <use xlink:href="#m2cb3ccbbf4" x="919.515909" y="299.208041" style="fill: #e2b3b5; stroke: #ffffff; stroke-width: 0.75"/>
    </g>
   </g>
   <g id="line2d_38">
    <path d="M 92.234091 532.030559 
L 167.441529 450.294994 
L 242.648967 432.957147 
L 317.856405 507.262206 
L 393.063843 467.632841 
L 468.271281 450.294994 
L 543.478719 447.818159 
L 618.686157 410.66563 
L 693.893595 457.7255 
L 769.101033 482.493853 
L 844.308471 383.420441 
L 919.515909 311.592218 
" clip-path="url(#p40fe26f1e7)" style="fill: none; stroke: #daa4ac; stroke-width: 1.5; stroke-linecap: square"/>
    <defs>
     <path id="mca0184efbf" d="M 0 3 
C 0.795609 3 1.55874 2.683901 2.12132 2.12132 
C 2.683901 1.55874 3 0.795609 3 0 
C 3 -0.795609 2.683901 -1.55874 2.12132 -2.12132 
C 1.55874 -2.683901 0.795609 -3 0 -3 
C -0.795609 -3 -1.55874 -2.683901 -2.12132 -2.12132 
C -2.683901 -1.55874 -3 -0.795609 -3 0 
C -3 0.795609 -2.683901 1.55874 -2.12132 2.12132 
C -1.55874 2.683901 -0.795609 3 0 3 
z
" style="stroke: #ffffff; stroke-width: 0.75"/>
    </defs>
    <g clip-path="url(#p40fe26f1e7)">
     <use xlink:href="#mca0184efbf" x="92.234091" y="532.030559" style="fill: #daa4ac; stroke: #ffffff; stroke-width: 0.75"/>
     <use xlink:href="#mca0184efbf" x="167.441529" y="450.294994" style="fill: #daa4ac; stroke: #ffffff; stroke-width: 0.75"/>
     <use xlink:href="#mca0184efbf" x="242.648967" y="432.957147" style="fill: #daa4ac; stroke: #ffffff; stroke-width: 0.75"/>
     <use xlink:href="#mca0184efbf" x="317.856405" y="507.262206" style="fill: #daa4ac; stroke: #ffffff; stroke-width: 0.75"/>
     <use xlink:href="#mca0184efbf" x="393.063843" y="467.632841" style="fill: #daa4ac; stroke: #ffffff; stroke-width: 0.75"/>
     <use xlink:href="#mca0184efbf" x="468.271281" y="450.294994" style="fill: #daa4ac; stroke: #ffffff; stroke-width: 0.75"/>
     <use xlink:href="#mca0184efbf" x="543.478719" y="447.818159" style="fill: #daa4ac; stroke: #ffffff; stroke-width: 0.75"/>
     <use xlink:href="#mca0184efbf" x="618.686157" y="410.66563" style="fill: #daa4ac; stroke: #ffffff; stroke-width: 0.75"/>
     <use xlink:href="#mca0184efbf" x="693.893595" y="457.7255" style="fill: #daa4ac; stroke: #ffffff; stroke-width: 0.75"/>
     <use xlink:href="#mca0184efbf" x="769.101033" y="482.493853" style="fill: #daa4ac; stroke: #ffffff; stroke-width: 0.75"/>
     <use xlink:href="#mca0184efbf" x="844.308471" y="383.420441" style="fill: #daa4ac; stroke: #ffffff; stroke-width: 0.75"/>
     <use xlink:href="#mca0184efbf" x="919.515909" y="311.592218" style="fill: #daa4ac; stroke: #ffffff; stroke-width: 0.75"/>
    </g>
   </g>
   <g id="line2d_39">
    <path d="M 92.234091 499.8317 
L 167.441529 507.262206 
L 242.648967 440.387653 
L 317.856405 502.308536 
L 393.063843 492.401194 
L 468.271281 502.308536 
L 543.478719 502.308536 
L 618.686157 366.082594 
L 693.893595 482.493853 
L 769.101033 450.294994 
L 844.308471 373.5131 
L 919.515909 323.976394 
" clip-path="url(#p40fe26f1e7)" style="fill: none; stroke: #d295a5; stroke-width: 1.5; stroke-linecap: square"/>
    <defs>
     <path id="m977c7a1fa0" d="M 0 3 
C 0.795609 3 1.55874 2.683901 2.12132 2.12132 
C 2.683901 1.55874 3 0.795609 3 0 
C 3 -0.795609 2.683901 -1.55874 2.12132 -2.12132 
C 1.55874 -2.683901 0.795609 -3 0 -3 
C -0.795609 -3 -1.55874 -2.683901 -2.12132 -2.12132 
C -2.683901 -1.55874 -3 -0.795609 -3 0 
C -3 0.795609 -2.683901 1.55874 -2.12132 2.12132 
C -1.55874 2.683901 -0.795609 3 0 3 
z
" style="stroke: #ffffff; stroke-width: 0.75"/>
    </defs>
    <g clip-path="url(#p40fe26f1e7)">
     <use xlink:href="#m977c7a1fa0" x="92.234091" y="499.8317" style="fill: #d295a5; stroke: #ffffff; stroke-width: 0.75"/>
     <use xlink:href="#m977c7a1fa0" x="167.441529" y="507.262206" style="fill: #d295a5; stroke: #ffffff; stroke-width: 0.75"/>
     <use xlink:href="#m977c7a1fa0" x="242.648967" y="440.387653" style="fill: #d295a5; stroke: #ffffff; stroke-width: 0.75"/>
     <use xlink:href="#m977c7a1fa0" x="317.856405" y="502.308536" style="fill: #d295a5; stroke: #ffffff; stroke-width: 0.75"/>
     <use xlink:href="#m977c7a1fa0" x="393.063843" y="492.401194" style="fill: #d295a5; stroke: #ffffff; stroke-width: 0.75"/>
     <use xlink:href="#m977c7a1fa0" x="468.271281" y="502.308536" style="fill: #d295a5; stroke: #ffffff; stroke-width: 0.75"/>
     <use xlink:href="#m977c7a1fa0" x="543.478719" y="502.308536" style="fill: #d295a5; stroke: #ffffff; stroke-width: 0.75"/>
     <use xlink:href="#m977c7a1fa0" x="618.686157" y="366.082594" style="fill: #d295a5; stroke: #ffffff; stroke-width: 0.75"/>
     <use xlink:href="#m977c7a1fa0" x="693.893595" y="482.493853" style="fill: #d295a5; stroke: #ffffff; stroke-width: 0.75"/>
     <use xlink:href="#m977c7a1fa0" x="769.101033" y="450.294994" style="fill: #d295a5; stroke: #ffffff; stroke-width: 0.75"/>
     <use xlink:href="#m977c7a1fa0" x="844.308471" y="373.5131" style="fill: #d295a5; stroke: #ffffff; stroke-width: 0.75"/>
     <use xlink:href="#m977c7a1fa0" x="919.515909" y="323.976394" style="fill: #d295a5; stroke: #ffffff; stroke-width: 0.75"/>
    </g>
   </g>
   <g id="line2d_40">
    <path d="M 92.234091 566.706253 
L 167.441529 514.692712 
L 242.648967 410.66563 
L 317.856405 487.447524 
L 393.063843 450.294994 
L 468.271281 532.030559 
L 543.478719 502.308536 
L 618.686157 462.679171 
L 693.893595 494.87803 
L 769.101033 450.294994 
L 844.308471 413.142465 
L 919.515909 398.281453 
" clip-path="url(#p40fe26f1e7)" style="fill: none; stroke: #c8879e; stroke-width: 1.5; stroke-linecap: square"/>
    <defs>
     <path id="m2e1d9e1358" d="M 0 3 
C 0.795609 3 1.55874 2.683901 2.12132 2.12132 
C 2.683901 1.55874 3 0.795609 3 0 
C 3 -0.795609 2.683901 -1.55874 2.12132 -2.12132 
C 1.55874 -2.683901 0.795609 -3 0 -3 
C -0.795609 -3 -1.55874 -2.683901 -2.12132 -2.12132 
C -2.683901 -1.55874 -3 -0.795609 -3 0 
C -3 0.795609 -2.683901 1.55874 -2.12132 2.12132 
C -1.55874 2.683901 -0.795609 3 0 3 
z
" style="stroke: #ffffff; stroke-width: 0.75"/>
    </defs>
    <g clip-path="url(#p40fe26f1e7)">
     <use xlink:href="#m2e1d9e1358" x="92.234091" y="566.706253" style="fill: #c8879e; stroke: #ffffff; stroke-width: 0.75"/>
     <use xlink:href="#m2e1d9e1358" x="167.441529" y="514.692712" style="fill: #c8879e; stroke: #ffffff; stroke-width: 0.75"/>
     <use xlink:href="#m2e1d9e1358" x="242.648967" y="410.66563" style="fill: #c8879e; stroke: #ffffff; stroke-width: 0.75"/>
     <use xlink:href="#m2e1d9e1358" x="317.856405" y="487.447524" style="fill: #c8879e; stroke: #ffffff; stroke-width: 0.75"/>
     <use xlink:href="#m2e1d9e1358" x="393.063843" y="450.294994" style="fill: #c8879e; stroke: #ffffff; stroke-width: 0.75"/>
     <use xlink:href="#m2e1d9e1358" x="468.271281" y="532.030559" style="fill: #c8879e; stroke: #ffffff; stroke-width: 0.75"/>
     <use xlink:href="#m2e1d9e1358" x="543.478719" y="502.308536" style="fill: #c8879e; stroke: #ffffff; stroke-width: 0.75"/>
     <use xlink:href="#m2e1d9e1358" x="618.686157" y="462.679171" style="fill: #c8879e; stroke: #ffffff; stroke-width: 0.75"/>
     <use xlink:href="#m2e1d9e1358" x="693.893595" y="494.87803" style="fill: #c8879e; stroke: #ffffff; stroke-width: 0.75"/>
     <use xlink:href="#m2e1d9e1358" x="769.101033" y="450.294994" style="fill: #c8879e; stroke: #ffffff; stroke-width: 0.75"/>
     <use xlink:href="#m2e1d9e1358" x="844.308471" y="413.142465" style="fill: #c8879e; stroke: #ffffff; stroke-width: 0.75"/>
     <use xlink:href="#m2e1d9e1358" x="919.515909" y="398.281453" style="fill: #c8879e; stroke: #ffffff; stroke-width: 0.75"/>
    </g>
   </g>
   <g id="line2d_41">
    <path d="M 92.234091 576.613595 
L 167.441529 556.798912 
L 242.648967 551.845242 
L 317.856405 541.9379 
L 393.063843 529.553724 
L 468.271281 551.845242 
L 543.478719 445.341324 
L 618.686157 425.526641 
L 693.893595 472.586512 
L 769.101033 507.262206 
L 844.308471 452.77183 
L 919.515909 368.559429 
" clip-path="url(#p40fe26f1e7)" style="fill: none; stroke: #bd7a98; stroke-width: 1.5; stroke-linecap: square"/>
    <defs>
     <path id="mea0b68c493" d="M 0 3 
C 0.795609 3 1.55874 2.683901 2.12132 2.12132 
C 2.683901 1.55874 3 0.795609 3 0 
C 3 -0.795609 2.683901 -1.55874 2.12132 -2.12132 
C 1.55874 -2.683901 0.795609 -3 0 -3 
C -0.795609 -3 -1.55874 -2.683901 -2.12132 -2.12132 
C -2.683901 -1.55874 -3 -0.795609 -3 0 
C -3 0.795609 -2.683901 1.55874 -2.12132 2.12132 
C -1.55874 2.683901 -0.795609 3 0 3 
z
" style="stroke: #ffffff; stroke-width: 0.75"/>
    </defs>
    <g clip-path="url(#p40fe26f1e7)">
     <use xlink:href="#mea0b68c493" x="92.234091" y="576.613595" style="fill: #bd7a98; stroke: #ffffff; stroke-width: 0.75"/>
     <use xlink:href="#mea0b68c493" x="167.441529" y="556.798912" style="fill: #bd7a98; stroke: #ffffff; stroke-width: 0.75"/>
     <use xlink:href="#mea0b68c493" x="242.648967" y="551.845242" style="fill: #bd7a98; stroke: #ffffff; stroke-width: 0.75"/>
     <use xlink:href="#mea0b68c493" x="317.856405" y="541.9379" style="fill: #bd7a98; stroke: #ffffff; stroke-width: 0.75"/>
     <use xlink:href="#mea0b68c493" x="393.063843" y="529.553724" style="fill: #bd7a98; stroke: #ffffff; stroke-width: 0.75"/>
     <use xlink:href="#mea0b68c493" x="468.271281" y="551.845242" style="fill: #bd7a98; stroke: #ffffff; stroke-width: 0.75"/>
     <use xlink:href="#mea0b68c493" x="543.478719" y="445.341324" style="fill: #bd7a98; stroke: #ffffff; stroke-width: 0.75"/>
     <use xlink:href="#mea0b68c493" x="618.686157" y="425.526641" style="fill: #bd7a98; stroke: #ffffff; stroke-width: 0.75"/>
     <use xlink:href="#mea0b68c493" x="693.893595" y="472.586512" style="fill: #bd7a98; stroke: #ffffff; stroke-width: 0.75"/>
     <use xlink:href="#mea0b68c493" x="769.101033" y="507.262206" style="fill: #bd7a98; stroke: #ffffff; stroke-width: 0.75"/>
     <use xlink:href="#mea0b68c493" x="844.308471" y="452.77183" style="fill: #bd7a98; stroke: #ffffff; stroke-width: 0.75"/>
     <use xlink:href="#mea0b68c493" x="919.515909" y="368.559429" style="fill: #bd7a98; stroke: #ffffff; stroke-width: 0.75"/>
    </g>
   </g>
   <g id="line2d_42">
    <path d="M 92.234091 574.136759 
L 167.441529 556.798912 
L 242.648967 544.414736 
L 317.856405 504.785371 
L 393.063843 487.447524 
L 468.271281 534.507394 
L 543.478719 502.308536 
L 618.686157 536.98423 
L 693.893595 467.632841 
L 769.101033 470.109677 
L 844.308471 480.017018 
L 919.515909 328.930065 
" clip-path="url(#p40fe26f1e7)" style="fill: none; stroke: #b06d92; stroke-width: 1.5; stroke-linecap: square"/>
    <defs>
     <path id="m295ab8db88" d="M 0 3 
C 0.795609 3 1.55874 2.683901 2.12132 2.12132 
C 2.683901 1.55874 3 0.795609 3 0 
C 3 -0.795609 2.683901 -1.55874 2.12132 -2.12132 
C 1.55874 -2.683901 0.795609 -3 0 -3 
C -0.795609 -3 -1.55874 -2.683901 -2.12132 -2.12132 
C -2.683901 -1.55874 -3 -0.795609 -3 0 
C -3 0.795609 -2.683901 1.55874 -2.12132 2.12132 
C -1.55874 2.683901 -0.795609 3 0 3 
z
" style="stroke: #ffffff; stroke-width: 0.75"/>
    </defs>
    <g clip-path="url(#p40fe26f1e7)">
     <use xlink:href="#m295ab8db88" x="92.234091" y="574.136759" style="fill: #b06d92; stroke: #ffffff; stroke-width: 0.75"/>
     <use xlink:href="#m295ab8db88" x="167.441529" y="556.798912" style="fill: #b06d92; stroke: #ffffff; stroke-width: 0.75"/>
     <use xlink:href="#m295ab8db88" x="242.648967" y="544.414736" style="fill: #b06d92; stroke: #ffffff; stroke-width: 0.75"/>
     <use xlink:href="#m295ab8db88" x="317.856405" y="504.785371" style="fill: #b06d92; stroke: #ffffff; stroke-width: 0.75"/>
     <use xlink:href="#m295ab8db88" x="393.063843" y="487.447524" style="fill: #b06d92; stroke: #ffffff; stroke-width: 0.75"/>
     <use xlink:href="#m295ab8db88" x="468.271281" y="534.507394" style="fill: #b06d92; stroke: #ffffff; stroke-width: 0.75"/>
     <use xlink:href="#m295ab8db88" x="543.478719" y="502.308536" style="fill: #b06d92; stroke: #ffffff; stroke-width: 0.75"/>
     <use xlink:href="#m295ab8db88" x="618.686157" y="536.98423" style="fill: #b06d92; stroke: #ffffff; stroke-width: 0.75"/>
     <use xlink:href="#m295ab8db88" x="693.893595" y="467.632841" style="fill: #b06d92; stroke: #ffffff; stroke-width: 0.75"/>
     <use xlink:href="#m295ab8db88" x="769.101033" y="470.109677" style="fill: #b06d92; stroke: #ffffff; stroke-width: 0.75"/>
     <use xlink:href="#m295ab8db88" x="844.308471" y="480.017018" style="fill: #b06d92; stroke: #ffffff; stroke-width: 0.75"/>
     <use xlink:href="#m295ab8db88" x="919.515909" y="328.930065" style="fill: #b06d92; stroke: #ffffff; stroke-width: 0.75"/>
    </g>
   </g>
   <g id="line2d_43">
    <path d="M 92.234091 561.752583 
L 167.441529 432.957147 
L 242.648967 544.414736 
L 317.856405 554.322077 
L 393.063843 551.845242 
L 468.271281 512.215877 
L 543.478719 522.123218 
L 618.686157 527.076889 
L 693.893595 465.156006 
L 769.101033 430.480312 
L 844.308471 470.109677 
L 919.515909 383.420441 
" clip-path="url(#p40fe26f1e7)" style="fill: none; stroke: #a3628c; stroke-width: 1.5; stroke-linecap: square"/>
    <defs>
     <path id="m777f7f8252" d="M 0 3 
C 0.795609 3 1.55874 2.683901 2.12132 2.12132 
C 2.683901 1.55874 3 0.795609 3 0 
C 3 -0.795609 2.683901 -1.55874 2.12132 -2.12132 
C 1.55874 -2.683901 0.795609 -3 0 -3 
C -0.795609 -3 -1.55874 -2.683901 -2.12132 -2.12132 
C -2.683901 -1.55874 -3 -0.795609 -3 0 
C -3 0.795609 -2.683901 1.55874 -2.12132 2.12132 
C -1.55874 2.683901 -0.795609 3 0 3 
z
" style="stroke: #ffffff; stroke-width: 0.75"/>
    </defs>
    <g clip-path="url(#p40fe26f1e7)">
     <use xlink:href="#m777f7f8252" x="92.234091" y="561.752583" style="fill: #a3628c; stroke: #ffffff; stroke-width: 0.75"/>
     <use xlink:href="#m777f7f8252" x="167.441529" y="432.957147" style="fill: #a3628c; stroke: #ffffff; stroke-width: 0.75"/>
     <use xlink:href="#m777f7f8252" x="242.648967" y="544.414736" style="fill: #a3628c; stroke: #ffffff; stroke-width: 0.75"/>
     <use xlink:href="#m777f7f8252" x="317.856405" y="554.322077" style="fill: #a3628c; stroke: #ffffff; stroke-width: 0.75"/>
     <use xlink:href="#m777f7f8252" x="393.063843" y="551.845242" style="fill: #a3628c; stroke: #ffffff; stroke-width: 0.75"/>
     <use xlink:href="#m777f7f8252" x="468.271281" y="512.215877" style="fill: #a3628c; stroke: #ffffff; stroke-width: 0.75"/>
     <use xlink:href="#m777f7f8252" x="543.478719" y="522.123218" style="fill: #a3628c; stroke: #ffffff; stroke-width: 0.75"/>
     <use xlink:href="#m777f7f8252" x="618.686157" y="527.076889" style="fill: #a3628c; stroke: #ffffff; stroke-width: 0.75"/>
     <use xlink:href="#m777f7f8252" x="693.893595" y="465.156006" style="fill: #a3628c; stroke: #ffffff; stroke-width: 0.75"/>
     <use xlink:href="#m777f7f8252" x="769.101033" y="430.480312" style="fill: #a3628c; stroke: #ffffff; stroke-width: 0.75"/>
     <use xlink:href="#m777f7f8252" x="844.308471" y="470.109677" style="fill: #a3628c; stroke: #ffffff; stroke-width: 0.75"/>
     <use xlink:href="#m777f7f8252" x="919.515909" y="383.420441" style="fill: #a3628c; stroke: #ffffff; stroke-width: 0.75"/>
    </g>
   </g>
   <g id="line2d_44">
    <path d="M 92.234091 541.9379 
L 167.441529 569.183089 
L 242.648967 497.354865 
L 317.856405 534.507394 
L 393.063843 536.98423 
L 468.271281 492.401194 
L 543.478719 504.785371 
L 618.686157 534.507394 
L 693.893595 502.308536 
L 769.101033 502.308536 
L 844.308471 447.818159 
L 919.515909 378.466771 
" clip-path="url(#p40fe26f1e7)" style="fill: none; stroke: #945785; stroke-width: 1.5; stroke-linecap: square"/>
    <defs>
     <path id="m6f9f388561" d="M 0 3 
C 0.795609 3 1.55874 2.683901 2.12132 2.12132 
C 2.683901 1.55874 3 0.795609 3 0 
C 3 -0.795609 2.683901 -1.55874 2.12132 -2.12132 
C 1.55874 -2.683901 0.795609 -3 0 -3 
C -0.795609 -3 -1.55874 -2.683901 -2.12132 -2.12132 
C -2.683901 -1.55874 -3 -0.795609 -3 0 
C -3 0.795609 -2.683901 1.55874 -2.12132 2.12132 
C -1.55874 2.683901 -0.795609 3 0 3 
z
" style="stroke: #ffffff; stroke-width: 0.75"/>
    </defs>
    <g clip-path="url(#p40fe26f1e7)">
     <use xlink:href="#m6f9f388561" x="92.234091" y="541.9379" style="fill: #945785; stroke: #ffffff; stroke-width: 0.75"/>
     <use xlink:href="#m6f9f388561" x="167.441529" y="569.183089" style="fill: #945785; stroke: #ffffff; stroke-width: 0.75"/>
     <use xlink:href="#m6f9f388561" x="242.648967" y="497.354865" style="fill: #945785; stroke: #ffffff; stroke-width: 0.75"/>
     <use xlink:href="#m6f9f388561" x="317.856405" y="534.507394" style="fill: #945785; stroke: #ffffff; stroke-width: 0.75"/>
     <use xlink:href="#m6f9f388561" x="393.063843" y="536.98423" style="fill: #945785; stroke: #ffffff; stroke-width: 0.75"/>
     <use xlink:href="#m6f9f388561" x="468.271281" y="492.401194" style="fill: #945785; stroke: #ffffff; stroke-width: 0.75"/>
     <use xlink:href="#m6f9f388561" x="543.478719" y="504.785371" style="fill: #945785; stroke: #ffffff; stroke-width: 0.75"/>
     <use xlink:href="#m6f9f388561" x="618.686157" y="534.507394" style="fill: #945785; stroke: #ffffff; stroke-width: 0.75"/>
     <use xlink:href="#m6f9f388561" x="693.893595" y="502.308536" style="fill: #945785; stroke: #ffffff; stroke-width: 0.75"/>
     <use xlink:href="#m6f9f388561" x="769.101033" y="502.308536" style="fill: #945785; stroke: #ffffff; stroke-width: 0.75"/>
     <use xlink:href="#m6f9f388561" x="844.308471" y="447.818159" style="fill: #945785; stroke: #ffffff; stroke-width: 0.75"/>
     <use xlink:href="#m6f9f388561" x="919.515909" y="378.466771" style="fill: #945785; stroke: #ffffff; stroke-width: 0.75"/>
    </g>
   </g>
   <g id="line2d_45">
    <path d="M 92.234091 611.289289 
L 167.441529 546.891571 
L 242.648967 536.98423 
L 317.856405 527.076889 
L 393.063843 546.891571 
L 468.271281 529.553724 
L 543.478719 524.600053 
L 618.686157 544.414736 
L 693.893595 512.215877 
L 769.101033 556.798912 
L 844.308471 445.341324 
L 919.515909 390.850947 
" clip-path="url(#p40fe26f1e7)" style="fill: none; stroke: #834c7d; stroke-width: 1.5; stroke-linecap: square"/>
    <defs>
     <path id="m92da122a1c" d="M 0 3 
C 0.795609 3 1.55874 2.683901 2.12132 2.12132 
C 2.683901 1.55874 3 0.795609 3 0 
C 3 -0.795609 2.683901 -1.55874 2.12132 -2.12132 
C 1.55874 -2.683901 0.795609 -3 0 -3 
C -0.795609 -3 -1.55874 -2.683901 -2.12132 -2.12132 
C -2.683901 -1.55874 -3 -0.795609 -3 0 
C -3 0.795609 -2.683901 1.55874 -2.12132 2.12132 
C -1.55874 2.683901 -0.795609 3 0 3 
z
" style="stroke: #ffffff; stroke-width: 0.75"/>
    </defs>
    <g clip-path="url(#p40fe26f1e7)">
     <use xlink:href="#m92da122a1c" x="92.234091" y="611.289289" style="fill: #834c7d; stroke: #ffffff; stroke-width: 0.75"/>
     <use xlink:href="#m92da122a1c" x="167.441529" y="546.891571" style="fill: #834c7d; stroke: #ffffff; stroke-width: 0.75"/>
     <use xlink:href="#m92da122a1c" x="242.648967" y="536.98423" style="fill: #834c7d; stroke: #ffffff; stroke-width: 0.75"/>
     <use xlink:href="#m92da122a1c" x="317.856405" y="527.076889" style="fill: #834c7d; stroke: #ffffff; stroke-width: 0.75"/>
     <use xlink:href="#m92da122a1c" x="393.063843" y="546.891571" style="fill: #834c7d; stroke: #ffffff; stroke-width: 0.75"/>
     <use xlink:href="#m92da122a1c" x="468.271281" y="529.553724" style="fill: #834c7d; stroke: #ffffff; stroke-width: 0.75"/>
     <use xlink:href="#m92da122a1c" x="543.478719" y="524.600053" style="fill: #834c7d; stroke: #ffffff; stroke-width: 0.75"/>
     <use xlink:href="#m92da122a1c" x="618.686157" y="544.414736" style="fill: #834c7d; stroke: #ffffff; stroke-width: 0.75"/>
     <use xlink:href="#m92da122a1c" x="693.893595" y="512.215877" style="fill: #834c7d; stroke: #ffffff; stroke-width: 0.75"/>
     <use xlink:href="#m92da122a1c" x="769.101033" y="556.798912" style="fill: #834c7d; stroke: #ffffff; stroke-width: 0.75"/>
     <use xlink:href="#m92da122a1c" x="844.308471" y="445.341324" style="fill: #834c7d; stroke: #ffffff; stroke-width: 0.75"/>
     <use xlink:href="#m92da122a1c" x="919.515909" y="390.850947" style="fill: #834c7d; stroke: #ffffff; stroke-width: 0.75"/>
    </g>
   </g>
   <g id="line2d_46">
    <path d="M 92.234091 584.0441 
L 167.441529 581.567265 
L 242.648967 554.322077 
L 317.856405 556.798912 
L 393.063843 569.183089 
L 468.271281 556.798912 
L 543.478719 480.017018 
L 618.686157 581.567265 
L 693.893595 541.9379 
L 769.101033 561.752583 
L 844.308471 534.507394 
L 919.515909 455.248665 
" clip-path="url(#p40fe26f1e7)" style="fill: none; stroke: #724274; stroke-width: 1.5; stroke-linecap: square"/>
    <defs>
     <path id="m736b9811e5" d="M 0 3 
C 0.795609 3 1.55874 2.683901 2.12132 2.12132 
C 2.683901 1.55874 3 0.795609 3 0 
C 3 -0.795609 2.683901 -1.55874 2.12132 -2.12132 
C 1.55874 -2.683901 0.795609 -3 0 -3 
C -0.795609 -3 -1.55874 -2.683901 -2.12132 -2.12132 
C -2.683901 -1.55874 -3 -0.795609 -3 0 
C -3 0.795609 -2.683901 1.55874 -2.12132 2.12132 
C -1.55874 2.683901 -0.795609 3 0 3 
z
" style="stroke: #ffffff; stroke-width: 0.75"/>
    </defs>
    <g clip-path="url(#p40fe26f1e7)">
     <use xlink:href="#m736b9811e5" x="92.234091" y="584.0441" style="fill: #724274; stroke: #ffffff; stroke-width: 0.75"/>
     <use xlink:href="#m736b9811e5" x="167.441529" y="581.567265" style="fill: #724274; stroke: #ffffff; stroke-width: 0.75"/>
     <use xlink:href="#m736b9811e5" x="242.648967" y="554.322077" style="fill: #724274; stroke: #ffffff; stroke-width: 0.75"/>
     <use xlink:href="#m736b9811e5" x="317.856405" y="556.798912" style="fill: #724274; stroke: #ffffff; stroke-width: 0.75"/>
     <use xlink:href="#m736b9811e5" x="393.063843" y="569.183089" style="fill: #724274; stroke: #ffffff; stroke-width: 0.75"/>
     <use xlink:href="#m736b9811e5" x="468.271281" y="556.798912" style="fill: #724274; stroke: #ffffff; stroke-width: 0.75"/>
     <use xlink:href="#m736b9811e5" x="543.478719" y="480.017018" style="fill: #724274; stroke: #ffffff; stroke-width: 0.75"/>
     <use xlink:href="#m736b9811e5" x="618.686157" y="581.567265" style="fill: #724274; stroke: #ffffff; stroke-width: 0.75"/>
     <use xlink:href="#m736b9811e5" x="693.893595" y="541.9379" style="fill: #724274; stroke: #ffffff; stroke-width: 0.75"/>
     <use xlink:href="#m736b9811e5" x="769.101033" y="561.752583" style="fill: #724274; stroke: #ffffff; stroke-width: 0.75"/>
     <use xlink:href="#m736b9811e5" x="844.308471" y="534.507394" style="fill: #724274; stroke: #ffffff; stroke-width: 0.75"/>
     <use xlink:href="#m736b9811e5" x="919.515909" y="455.248665" style="fill: #724274; stroke: #ffffff; stroke-width: 0.75"/>
    </g>
   </g>
   <g id="line2d_47">
    <path d="M 92.234091 633.580806 
L 167.441529 601.381948 
L 242.648967 579.09043 
L 317.856405 586.520936 
L 393.063843 586.520936 
L 468.271281 581.567265 
L 543.478719 551.845242 
L 618.686157 588.997771 
L 693.893595 603.858783 
L 769.101033 591.474606 
L 844.308471 574.136759 
L 919.515909 492.401194 
" clip-path="url(#p40fe26f1e7)" style="fill: none; stroke: #613969; stroke-width: 1.5; stroke-linecap: square"/>
    <defs>
     <path id="mbabac04bf1" d="M 0 3 
C 0.795609 3 1.55874 2.683901 2.12132 2.12132 
C 2.683901 1.55874 3 0.795609 3 0 
C 3 -0.795609 2.683901 -1.55874 2.12132 -2.12132 
C 1.55874 -2.683901 0.795609 -3 0 -3 
C -0.795609 -3 -1.55874 -2.683901 -2.12132 -2.12132 
C -2.683901 -1.55874 -3 -0.795609 -3 0 
C -3 0.795609 -2.683901 1.55874 -2.12132 2.12132 
C -1.55874 2.683901 -0.795609 3 0 3 
z
" style="stroke: #ffffff; stroke-width: 0.75"/>
    </defs>
    <g clip-path="url(#p40fe26f1e7)">
     <use xlink:href="#mbabac04bf1" x="92.234091" y="633.580806" style="fill: #613969; stroke: #ffffff; stroke-width: 0.75"/>
     <use xlink:href="#mbabac04bf1" x="167.441529" y="601.381948" style="fill: #613969; stroke: #ffffff; stroke-width: 0.75"/>
     <use xlink:href="#mbabac04bf1" x="242.648967" y="579.09043" style="fill: #613969; stroke: #ffffff; stroke-width: 0.75"/>
     <use xlink:href="#mbabac04bf1" x="317.856405" y="586.520936" style="fill: #613969; stroke: #ffffff; stroke-width: 0.75"/>
     <use xlink:href="#mbabac04bf1" x="393.063843" y="586.520936" style="fill: #613969; stroke: #ffffff; stroke-width: 0.75"/>
     <use xlink:href="#mbabac04bf1" x="468.271281" y="581.567265" style="fill: #613969; stroke: #ffffff; stroke-width: 0.75"/>
     <use xlink:href="#mbabac04bf1" x="543.478719" y="551.845242" style="fill: #613969; stroke: #ffffff; stroke-width: 0.75"/>
     <use xlink:href="#mbabac04bf1" x="618.686157" y="588.997771" style="fill: #613969; stroke: #ffffff; stroke-width: 0.75"/>
     <use xlink:href="#mbabac04bf1" x="693.893595" y="603.858783" style="fill: #613969; stroke: #ffffff; stroke-width: 0.75"/>
     <use xlink:href="#mbabac04bf1" x="769.101033" y="591.474606" style="fill: #613969; stroke: #ffffff; stroke-width: 0.75"/>
     <use xlink:href="#mbabac04bf1" x="844.308471" y="574.136759" style="fill: #613969; stroke: #ffffff; stroke-width: 0.75"/>
     <use xlink:href="#mbabac04bf1" x="919.515909" y="492.401194" style="fill: #613969; stroke: #ffffff; stroke-width: 0.75"/>
    </g>
   </g>
   <g id="line2d_48">
    <path d="M 92.234091 636.057642 
L 167.441529 618.719795 
L 242.648967 603.858783 
L 317.856405 606.335618 
L 393.063843 616.242959 
L 468.271281 581.567265 
L 543.478719 576.613595 
L 618.686157 584.0441 
L 693.893595 603.858783 
L 769.101033 588.997771 
L 844.308471 598.905112 
L 919.515909 527.076889 
" clip-path="url(#p40fe26f1e7)" style="fill: none; stroke: #4f305c; stroke-width: 1.5; stroke-linecap: square"/>
    <defs>
     <path id="mcfa3e5585c" d="M 0 3 
C 0.795609 3 1.55874 2.683901 2.12132 2.12132 
C 2.683901 1.55874 3 0.795609 3 0 
C 3 -0.795609 2.683901 -1.55874 2.12132 -2.12132 
C 1.55874 -2.683901 0.795609 -3 0 -3 
C -0.795609 -3 -1.55874 -2.683901 -2.12132 -2.12132 
C -2.683901 -1.55874 -3 -0.795609 -3 0 
C -3 0.795609 -2.683901 1.55874 -2.12132 2.12132 
C -1.55874 2.683901 -0.795609 3 0 3 
z
" style="stroke: #ffffff; stroke-width: 0.75"/>
    </defs>
    <g clip-path="url(#p40fe26f1e7)">
     <use xlink:href="#mcfa3e5585c" x="92.234091" y="636.057642" style="fill: #4f305c; stroke: #ffffff; stroke-width: 0.75"/>
     <use xlink:href="#mcfa3e5585c" x="167.441529" y="618.719795" style="fill: #4f305c; stroke: #ffffff; stroke-width: 0.75"/>
     <use xlink:href="#mcfa3e5585c" x="242.648967" y="603.858783" style="fill: #4f305c; stroke: #ffffff; stroke-width: 0.75"/>
     <use xlink:href="#mcfa3e5585c" x="317.856405" y="606.335618" style="fill: #4f305c; stroke: #ffffff; stroke-width: 0.75"/>
     <use xlink:href="#mcfa3e5585c" x="393.063843" y="616.242959" style="fill: #4f305c; stroke: #ffffff; stroke-width: 0.75"/>
     <use xlink:href="#mcfa3e5585c" x="468.271281" y="581.567265" style="fill: #4f305c; stroke: #ffffff; stroke-width: 0.75"/>
     <use xlink:href="#mcfa3e5585c" x="543.478719" y="576.613595" style="fill: #4f305c; stroke: #ffffff; stroke-width: 0.75"/>
     <use xlink:href="#mcfa3e5585c" x="618.686157" y="584.0441" style="fill: #4f305c; stroke: #ffffff; stroke-width: 0.75"/>
     <use xlink:href="#mcfa3e5585c" x="693.893595" y="603.858783" style="fill: #4f305c; stroke: #ffffff; stroke-width: 0.75"/>
     <use xlink:href="#mcfa3e5585c" x="769.101033" y="588.997771" style="fill: #4f305c; stroke: #ffffff; stroke-width: 0.75"/>
     <use xlink:href="#mcfa3e5585c" x="844.308471" y="598.905112" style="fill: #4f305c; stroke: #ffffff; stroke-width: 0.75"/>
     <use xlink:href="#mcfa3e5585c" x="919.515909" y="527.076889" style="fill: #4f305c; stroke: #ffffff; stroke-width: 0.75"/>
    </g>
   </g>
   <g id="line2d_49">
    <path d="M 92.234091 643.488148 
L 167.441529 631.103971 
L 242.648967 613.766124 
L 317.856405 598.905112 
L 393.063843 608.812453 
L 468.271281 606.335618 
L 693.893595 603.858783 
L 769.101033 591.474606 
L 844.308471 561.752583 
L 919.515909 509.739041 
" clip-path="url(#p40fe26f1e7)" style="fill: none; stroke: #3d274e; stroke-width: 1.5; stroke-linecap: square"/>
    <defs>
     <path id="mc4b36b9a81" d="M 0 3 
C 0.795609 3 1.55874 2.683901 2.12132 2.12132 
C 2.683901 1.55874 3 0.795609 3 0 
C 3 -0.795609 2.683901 -1.55874 2.12132 -2.12132 
C 1.55874 -2.683901 0.795609 -3 0 -3 
C -0.795609 -3 -1.55874 -2.683901 -2.12132 -2.12132 
C -2.683901 -1.55874 -3 -0.795609 -3 0 
C -3 0.795609 -2.683901 1.55874 -2.12132 2.12132 
C -1.55874 2.683901 -0.795609 3 0 3 
z
" style="stroke: #ffffff; stroke-width: 0.75"/>
    </defs>
    <g clip-path="url(#p40fe26f1e7)">
     <use xlink:href="#mc4b36b9a81" x="92.234091" y="643.488148" style="fill: #3d274e; stroke: #ffffff; stroke-width: 0.75"/>
     <use xlink:href="#mc4b36b9a81" x="167.441529" y="631.103971" style="fill: #3d274e; stroke: #ffffff; stroke-width: 0.75"/>
     <use xlink:href="#mc4b36b9a81" x="242.648967" y="613.766124" style="fill: #3d274e; stroke: #ffffff; stroke-width: 0.75"/>
     <use xlink:href="#mc4b36b9a81" x="317.856405" y="598.905112" style="fill: #3d274e; stroke: #ffffff; stroke-width: 0.75"/>
     <use xlink:href="#mc4b36b9a81" x="393.063843" y="608.812453" style="fill: #3d274e; stroke: #ffffff; stroke-width: 0.75"/>
     <use xlink:href="#mc4b36b9a81" x="468.271281" y="606.335618" style="fill: #3d274e; stroke: #ffffff; stroke-width: 0.75"/>
     <use xlink:href="#mc4b36b9a81" x="693.893595" y="603.858783" style="fill: #3d274e; stroke: #ffffff; stroke-width: 0.75"/>
     <use xlink:href="#mc4b36b9a81" x="769.101033" y="591.474606" style="fill: #3d274e; stroke: #ffffff; stroke-width: 0.75"/>
     <use xlink:href="#mc4b36b9a81" x="844.308471" y="561.752583" style="fill: #3d274e; stroke: #ffffff; stroke-width: 0.75"/>
     <use xlink:href="#mc4b36b9a81" x="919.515909" y="509.739041" style="fill: #3d274e; stroke: #ffffff; stroke-width: 0.75"/>
    </g>
   </g>
   <g id="line2d_50">
    <path d="M 92.234091 643.488148 
L 167.441529 621.19663 
L 242.648967 606.335618 
L 317.856405 588.997771 
L 393.063843 648.441818 
L 468.271281 618.719795 
L 543.478719 564.229418 
" clip-path="url(#p40fe26f1e7)" style="fill: none; stroke: #2d1e3e; stroke-width: 1.5; stroke-linecap: square"/>
    <defs>
     <path id="m0411957ede" d="M 0 3 
C 0.795609 3 1.55874 2.683901 2.12132 2.12132 
C 2.683901 1.55874 3 0.795609 3 0 
C 3 -0.795609 2.683901 -1.55874 2.12132 -2.12132 
C 1.55874 -2.683901 0.795609 -3 0 -3 
C -0.795609 -3 -1.55874 -2.683901 -2.12132 -2.12132 
C -2.683901 -1.55874 -3 -0.795609 -3 0 
C -3 0.795609 -2.683901 1.55874 -2.12132 2.12132 
C -1.55874 2.683901 -0.795609 3 0 3 
z
" style="stroke: #ffffff; stroke-width: 0.75"/>
    </defs>
    <g clip-path="url(#p40fe26f1e7)">
     <use xlink:href="#m0411957ede" x="92.234091" y="643.488148" style="fill: #2d1e3e; stroke: #ffffff; stroke-width: 0.75"/>
     <use xlink:href="#m0411957ede" x="167.441529" y="621.19663" style="fill: #2d1e3e; stroke: #ffffff; stroke-width: 0.75"/>
     <use xlink:href="#m0411957ede" x="242.648967" y="606.335618" style="fill: #2d1e3e; stroke: #ffffff; stroke-width: 0.75"/>
     <use xlink:href="#m0411957ede" x="317.856405" y="588.997771" style="fill: #2d1e3e; stroke: #ffffff; stroke-width: 0.75"/>
     <use xlink:href="#m0411957ede" x="393.063843" y="648.441818" style="fill: #2d1e3e; stroke: #ffffff; stroke-width: 0.75"/>
     <use xlink:href="#m0411957ede" x="468.271281" y="618.719795" style="fill: #2d1e3e; stroke: #ffffff; stroke-width: 0.75"/>
     <use xlink:href="#m0411957ede" x="543.478719" y="564.229418" style="fill: #2d1e3e; stroke: #ffffff; stroke-width: 0.75"/>
    </g>
   </g>
   <g id="line2d_51"/>
   <g id="line2d_52"/>
   <g id="line2d_53"/>
   <g id="line2d_54"/>
   <g id="line2d_55"/>
   <g id="line2d_56"/>
   <g id="line2d_57"/>
   <g id="patch_3">
    <path d="M 50.87 678.04 
L 50.87 26.88 
" style="fill: none; stroke: #000000; stroke-width: 0.8; stroke-linejoin: miter; stroke-linecap: square"/>
   </g>
   <g id="patch_4">
    <path d="M 960.88 678.04 
L 960.88 26.88 
" style="fill: none; stroke: #000000; stroke-width: 0.8; stroke-linejoin: miter; stroke-linecap: square"/>
   </g>
   <g id="patch_5">
    <path d="M 50.87 678.04 
L 960.88 678.04 
" style="fill: none; stroke: #000000; stroke-width: 0.8; stroke-linejoin: miter; stroke-linecap: square"/>
   </g>
   <g id="patch_6">
    <path d="M 50.87 26.88 
L 960.88 26.88 
" style="fill: none; stroke: #000000; stroke-width: 0.8; stroke-linejoin: miter; stroke-linecap: square"/>
   </g>
   <g id="text_20">
    <!-- Line Plot of Sparkling Counts by Month with Year as Hue -->
    <g transform="translate(337.677188 20.88) scale(0.12 -0.12)">
     <defs>
      <path id="DejaVuSans-4c" d="M 628 4666 
L 1259 4666 
L 1259 531 
L 3531 531 
L 3531 0 
L 628 0 
L 628 4666 
z
" transform="scale(0.015625)"/>
      <path id="DejaVuSans-65" d="M 3597 1894 
L 3597 1613 
L 953 1613 
Q 991 1019 1311 708 
Q 1631 397 2203 397 
Q 2534 397 2845 478 
Q 3156 559 3463 722 
L 3463 178 
Q 3153 47 2828 -22 
Q 2503 -91 2169 -91 
Q 1331 -91 842 396 
Q 353 884 353 1716 
Q 353 2575 817 3079 
Q 1281 3584 2069 3584 
Q 2775 3584 3186 3129 
Q 3597 2675 3597 1894 
z
M 3022 2063 
Q 3016 2534 2758 2815 
Q 2500 3097 2075 3097 
Q 1594 3097 1305 2825 
Q 1016 2553 972 2059 
L 3022 2063 
z
" transform="scale(0.015625)"/>
      <path id="DejaVuSans-50" d="M 1259 4147 
L 1259 2394 
L 2053 2394 
Q 2494 2394 2734 2622 
Q 2975 2850 2975 3272 
Q 2975 3691 2734 3919 
Q 2494 4147 2053 4147 
L 1259 4147 
z
M 628 4666 
L 2053 4666 
Q 2838 4666 3239 4311 
Q 3641 3956 3641 3272 
Q 3641 2581 3239 2228 
Q 2838 1875 2053 1875 
L 1259 1875 
L 1259 0 
L 628 0 
L 628 4666 
z
" transform="scale(0.015625)"/>
      <path id="DejaVuSans-66" d="M 2375 4863 
L 2375 4384 
L 1825 4384 
Q 1516 4384 1395 4259 
Q 1275 4134 1275 3809 
L 1275 3500 
L 2222 3500 
L 2222 3053 
L 1275 3053 
L 1275 0 
L 697 0 
L 697 3053 
L 147 3053 
L 147 3500 
L 697 3500 
L 697 3744 
Q 697 4328 969 4595 
Q 1241 4863 1831 4863 
L 2375 4863 
z
" transform="scale(0.015625)"/>
      <path id="DejaVuSans-73" d="M 2834 3397 
L 2834 2853 
Q 2591 2978 2328 3040 
Q 2066 3103 1784 3103 
Q 1356 3103 1142 2972 
Q 928 2841 928 2578 
Q 928 2378 1081 2264 
Q 1234 2150 1697 2047 
L 1894 2003 
Q 2506 1872 2764 1633 
Q 3022 1394 3022 966 
Q 3022 478 2636 193 
Q 2250 -91 1575 -91 
Q 1294 -91 989 -36 
Q 684 19 347 128 
L 347 722 
Q 666 556 975 473 
Q 1284 391 1588 391 
Q 1994 391 2212 530 
Q 2431 669 2431 922 
Q 2431 1156 2273 1281 
Q 2116 1406 1581 1522 
L 1381 1569 
Q 847 1681 609 1914 
Q 372 2147 372 2553 
Q 372 3047 722 3315 
Q 1072 3584 1716 3584 
Q 2034 3584 2315 3537 
Q 2597 3491 2834 3397 
z
" transform="scale(0.015625)"/>
      <path id="DejaVuSans-62" d="M 3116 1747 
Q 3116 2381 2855 2742 
Q 2594 3103 2138 3103 
Q 1681 3103 1420 2742 
Q 1159 2381 1159 1747 
Q 1159 1113 1420 752 
Q 1681 391 2138 391 
Q 2594 391 2855 752 
Q 3116 1113 3116 1747 
z
M 1159 2969 
Q 1341 3281 1617 3432 
Q 1894 3584 2278 3584 
Q 2916 3584 3314 3078 
Q 3713 2572 3713 1747 
Q 3713 922 3314 415 
Q 2916 -91 2278 -91 
Q 1894 -91 1617 61 
Q 1341 213 1159 525 
L 1159 0 
L 581 0 
L 581 4863 
L 1159 4863 
L 1159 2969 
z
" transform="scale(0.015625)"/>
      <path id="DejaVuSans-79" d="M 2059 -325 
Q 1816 -950 1584 -1140 
Q 1353 -1331 966 -1331 
L 506 -1331 
L 506 -850 
L 844 -850 
Q 1081 -850 1212 -737 
Q 1344 -625 1503 -206 
L 1606 56 
L 191 3500 
L 800 3500 
L 1894 763 
L 2988 3500 
L 3597 3500 
L 2059 -325 
z
" transform="scale(0.015625)"/>
      <path id="DejaVuSans-77" d="M 269 3500 
L 844 3500 
L 1563 769 
L 2278 3500 
L 2956 3500 
L 3675 769 
L 4391 3500 
L 4966 3500 
L 4050 0 
L 3372 0 
L 2619 2869 
L 1863 0 
L 1184 0 
L 269 3500 
z
" transform="scale(0.015625)"/>
      <path id="DejaVuSans-59" d="M -13 4666 
L 666 4666 
L 1959 2747 
L 3244 4666 
L 3922 4666 
L 2272 2222 
L 2272 0 
L 1638 0 
L 1638 2222 
L -13 4666 
z
" transform="scale(0.015625)"/>
      <path id="DejaVuSans-48" d="M 628 4666 
L 1259 4666 
L 1259 2753 
L 3553 2753 
L 3553 4666 
L 4184 4666 
L 4184 0 
L 3553 0 
L 3553 2222 
L 1259 2222 
L 1259 0 
L 628 0 
L 628 4666 
z
" transform="scale(0.015625)"/>
     </defs>
     <use xlink:href="#DejaVuSans-4c"/>
     <use xlink:href="#DejaVuSans-69" transform="translate(55.712891 0)"/>
     <use xlink:href="#DejaVuSans-6e" transform="translate(83.496094 0)"/>
     <use xlink:href="#DejaVuSans-65" transform="translate(146.875 0)"/>
     <use xlink:href="#DejaVuSans-20" transform="translate(208.398438 0)"/>
     <use xlink:href="#DejaVuSans-50" transform="translate(240.185547 0)"/>
     <use xlink:href="#DejaVuSans-6c" transform="translate(300.488281 0)"/>
     <use xlink:href="#DejaVuSans-6f" transform="translate(328.271484 0)"/>
     <use xlink:href="#DejaVuSans-74" transform="translate(389.453125 0)"/>
     <use xlink:href="#DejaVuSans-20" transform="translate(428.662109 0)"/>
     <use xlink:href="#DejaVuSans-6f" transform="translate(460.449219 0)"/>
     <use xlink:href="#DejaVuSans-66" transform="translate(521.630859 0)"/>
     <use xlink:href="#DejaVuSans-20" transform="translate(556.835938 0)"/>
     <use xlink:href="#DejaVuSans-53" transform="translate(588.623047 0)"/>
     <use xlink:href="#DejaVuSans-70" transform="translate(652.099609 0)"/>
     <use xlink:href="#DejaVuSans-61" transform="translate(715.576172 0)"/>
     <use xlink:href="#DejaVuSans-72" transform="translate(776.855469 0)"/>
     <use xlink:href="#DejaVuSans-6b" transform="translate(817.96875 0)"/>
     <use xlink:href="#DejaVuSans-6c" transform="translate(875.878906 0)"/>
     <use xlink:href="#DejaVuSans-69" transform="translate(903.662109 0)"/>
     <use xlink:href="#DejaVuSans-6e" transform="translate(931.445312 0)"/>
     <use xlink:href="#DejaVuSans-67" transform="translate(994.824219 0)"/>
     <use xlink:href="#DejaVuSans-20" transform="translate(1058.300781 0)"/>
     <use xlink:href="#DejaVuSans-43" transform="translate(1090.087891 0)"/>
     <use xlink:href="#DejaVuSans-6f" transform="translate(1159.912109 0)"/>
     <use xlink:href="#DejaVuSans-75" transform="translate(1221.09375 0)"/>
     <use xlink:href="#DejaVuSans-6e" transform="translate(1284.472656 0)"/>
     <use xlink:href="#DejaVuSans-74" transform="translate(1347.851562 0)"/>
     <use xlink:href="#DejaVuSans-73" transform="translate(1387.060547 0)"/>
     <use xlink:href="#DejaVuSans-20" transform="translate(1439.160156 0)"/>
     <use xlink:href="#DejaVuSans-62" transform="translate(1470.947266 0)"/>
     <use xlink:href="#DejaVuSans-79" transform="translate(1534.423828 0)"/>
     <use xlink:href="#DejaVuSans-20" transform="translate(1593.603516 0)"/>
     <use xlink:href="#DejaVuSans-4d" transform="translate(1625.390625 0)"/>
     <use xlink:href="#DejaVuSans-6f" transform="translate(1711.669922 0)"/>
     <use xlink:href="#DejaVuSans-6e" transform="translate(1772.851562 0)"/>
     <use xlink:href="#DejaVuSans-74" transform="translate(1836.230469 0)"/>
     <use xlink:href="#DejaVuSans-68" transform="translate(1875.439453 0)"/>
     <use xlink:href="#DejaVuSans-20" transform="translate(1938.818359 0)"/>
     <use xlink:href="#DejaVuSans-77" transform="translate(1970.605469 0)"/>
     <use xlink:href="#DejaVuSans-69" transform="translate(2052.392578 0)"/>
     <use xlink:href="#DejaVuSans-74" transform="translate(2080.175781 0)"/>
     <use xlink:href="#DejaVuSans-68" transform="translate(2119.384766 0)"/>
     <use xlink:href="#DejaVuSans-20" transform="translate(2182.763672 0)"/>
     <use xlink:href="#DejaVuSans-59" transform="translate(2214.550781 0)"/>
     <use xlink:href="#DejaVuSans-65" transform="translate(2262.384766 0)"/>
     <use xlink:href="#DejaVuSans-61" transform="translate(2323.908203 0)"/>
     <use xlink:href="#DejaVuSans-72" transform="translate(2385.1875 0)"/>
     <use xlink:href="#DejaVuSans-20" transform="translate(2426.300781 0)"/>
     <use xlink:href="#DejaVuSans-61" transform="translate(2458.087891 0)"/>
     <use xlink:href="#DejaVuSans-73" transform="translate(2519.367188 0)"/>
     <use xlink:href="#DejaVuSans-20" transform="translate(2571.466797 0)"/>
     <use xlink:href="#DejaVuSans-48" transform="translate(2603.253906 0)"/>
     <use xlink:href="#DejaVuSans-75" transform="translate(2678.449219 0)"/>
     <use xlink:href="#DejaVuSans-65" transform="translate(2741.828125 0)"/>
    </g>
   </g>
   <g id="legend_1">
    <g id="patch_7">
     <path d="M 1013.3805 152.305 
L 1070.8305 152.305 
Q 1072.8305 152.305 1072.8305 150.305 
L 1072.8305 33.88 
Q 1072.8305 31.88 1070.8305 31.88 
L 1013.3805 31.88 
Q 1011.3805 31.88 1011.3805 33.88 
L 1011.3805 150.305 
Q 1011.3805 152.305 1013.3805 152.305 
z
" style="fill: #ffffff; opacity: 0.8; stroke: #cccccc; stroke-linejoin: miter"/>
    </g>
    <g id="text_21">
     <!-- Year -->
     <g transform="translate(1031.518 43.478437) scale(0.1 -0.1)">
      <use xlink:href="#DejaVuSans-59"/>
      <use xlink:href="#DejaVuSans-65" transform="translate(47.833984 0)"/>
      <use xlink:href="#DejaVuSans-61" transform="translate(109.357422 0)"/>
      <use xlink:href="#DejaVuSans-72" transform="translate(170.636719 0)"/>
     </g>
    </g>
    <g id="line2d_58">
     <path d="M 1015.3805 54.656562 
L 1025.3805 54.656562 
L 1035.3805 54.656562 
" style="fill: none; stroke: #edd1cb; stroke-width: 1.5; stroke-linecap: square"/>
     <g>
      <use xlink:href="#m361afe78d5" x="1025.3805" y="54.656562" style="fill: #edd1cb; stroke: #ffffff; stroke-width: 0.75"/>
     </g>
    </g>
    <g id="text_22">
     <!-- 1980 -->
     <g transform="translate(1043.3805 58.156562) scale(0.1 -0.1)">
      <use xlink:href="#DejaVuSans-31"/>
      <use xlink:href="#DejaVuSans-39" transform="translate(63.623047 0)"/>
      <use xlink:href="#DejaVuSans-38" transform="translate(127.246094 0)"/>
      <use xlink:href="#DejaVuSans-30" transform="translate(190.869141 0)"/>
     </g>
    </g>
    <g id="line2d_59">
     <path d="M 1015.3805 69.334687 
L 1025.3805 69.334687 
L 1035.3805 69.334687 
" style="fill: none; stroke: #e2b3b5; stroke-width: 1.5; stroke-linecap: square"/>
     <g>
      <use xlink:href="#m2cb3ccbbf4" x="1025.3805" y="69.334687" style="fill: #e2b3b5; stroke: #ffffff; stroke-width: 0.75"/>
     </g>
    </g>
    <g id="text_23">
     <!-- 1982 -->
     <g transform="translate(1043.3805 72.834687) scale(0.1 -0.1)">
      <use xlink:href="#DejaVuSans-31"/>
      <use xlink:href="#DejaVuSans-39" transform="translate(63.623047 0)"/>
      <use xlink:href="#DejaVuSans-38" transform="translate(127.246094 0)"/>
      <use xlink:href="#DejaVuSans-32" transform="translate(190.869141 0)"/>
     </g>
    </g>
    <g id="line2d_60">
     <path d="M 1015.3805 84.012812 
L 1025.3805 84.012812 
L 1035.3805 84.012812 
" style="fill: none; stroke: #c8879e; stroke-width: 1.5; stroke-linecap: square"/>
     <g>
      <use xlink:href="#m2e1d9e1358" x="1025.3805" y="84.012812" style="fill: #c8879e; stroke: #ffffff; stroke-width: 0.75"/>
     </g>
    </g>
    <g id="text_24">
     <!-- 1985 -->
     <g transform="translate(1043.3805 87.512812) scale(0.1 -0.1)">
      <use xlink:href="#DejaVuSans-31"/>
      <use xlink:href="#DejaVuSans-39" transform="translate(63.623047 0)"/>
      <use xlink:href="#DejaVuSans-38" transform="translate(127.246094 0)"/>
      <use xlink:href="#DejaVuSans-35" transform="translate(190.869141 0)"/>
     </g>
    </g>
    <g id="line2d_61">
     <path d="M 1015.3805 98.690937 
L 1025.3805 98.690937 
L 1035.3805 98.690937 
" style="fill: none; stroke: #b06d92; stroke-width: 1.5; stroke-linecap: square"/>
     <g>
      <use xlink:href="#m295ab8db88" x="1025.3805" y="98.690937" style="fill: #b06d92; stroke: #ffffff; stroke-width: 0.75"/>
     </g>
    </g>
    <g id="text_25">
     <!-- 1987 -->
     <g transform="translate(1043.3805 102.190937) scale(0.1 -0.1)">
      <use xlink:href="#DejaVuSans-31"/>
      <use xlink:href="#DejaVuSans-39" transform="translate(63.623047 0)"/>
      <use xlink:href="#DejaVuSans-38" transform="translate(127.246094 0)"/>
      <use xlink:href="#DejaVuSans-37" transform="translate(190.869141 0)"/>
     </g>
    </g>
    <g id="line2d_62">
     <path d="M 1015.3805 113.369062 
L 1025.3805 113.369062 
L 1035.3805 113.369062 
" style="fill: none; stroke: #834c7d; stroke-width: 1.5; stroke-linecap: square"/>
     <g>
      <use xlink:href="#m92da122a1c" x="1025.3805" y="113.369062" style="fill: #834c7d; stroke: #ffffff; stroke-width: 0.75"/>
     </g>
    </g>
    <g id="text_26">
     <!-- 1990 -->
     <g transform="translate(1043.3805 116.869062) scale(0.1 -0.1)">
      <use xlink:href="#DejaVuSans-31"/>
      <use xlink:href="#DejaVuSans-39" transform="translate(63.623047 0)"/>
      <use xlink:href="#DejaVuSans-39" transform="translate(127.246094 0)"/>
      <use xlink:href="#DejaVuSans-30" transform="translate(190.869141 0)"/>
     </g>
    </g>
    <g id="line2d_63">
     <path d="M 1015.3805 128.047187 
L 1025.3805 128.047187 
L 1035.3805 128.047187 
" style="fill: none; stroke: #613969; stroke-width: 1.5; stroke-linecap: square"/>
     <g>
      <use xlink:href="#mbabac04bf1" x="1025.3805" y="128.047187" style="fill: #613969; stroke: #ffffff; stroke-width: 0.75"/>
     </g>
    </g>
    <g id="text_27">
     <!-- 1992 -->
     <g transform="translate(1043.3805 131.547187) scale(0.1 -0.1)">
      <use xlink:href="#DejaVuSans-31"/>
      <use xlink:href="#DejaVuSans-39" transform="translate(63.623047 0)"/>
      <use xlink:href="#DejaVuSans-39" transform="translate(127.246094 0)"/>
      <use xlink:href="#DejaVuSans-32" transform="translate(190.869141 0)"/>
     </g>
    </g>
    <g id="line2d_64">
     <path d="M 1015.3805 142.725312 
L 1025.3805 142.725312 
L 1035.3805 142.725312 
" style="fill: none; stroke: #2d1e3e; stroke-width: 1.5; stroke-linecap: square"/>
     <g>
      <use xlink:href="#m0411957ede" x="1025.3805" y="142.725312" style="fill: #2d1e3e; stroke: #ffffff; stroke-width: 0.75"/>
     </g>
    </g>
    <g id="text_28">
     <!-- 1995 -->
     <g transform="translate(1043.3805 146.225312) scale(0.1 -0.1)">
      <use xlink:href="#DejaVuSans-31"/>
      <use xlink:href="#DejaVuSans-39" transform="translate(63.623047 0)"/>
      <use xlink:href="#DejaVuSans-39" transform="translate(127.246094 0)"/>
      <use xlink:href="#DejaVuSans-35" transform="translate(190.869141 0)"/>
     </g>
    </g>
   </g>
  </g>
 </g>
 <defs>
  <clipPath id="p40fe26f1e7">
   <rect x="50.87" y="26.88" width="910.01" height="651.16"/>
  </clipPath>
 </defs>
</svg>
