<?xml version="1.0" encoding="utf-8" standalone="no"?>
<!DOCTYPE svg PUBLIC "-//W3C//DTD SVG 1.1//EN"
  "http://www.w3.org/Graphics/SVG/1.1/DTD/svg11.dtd">
<svg xmlns:xlink="http://www.w3.org/1999/xlink" width="1080pt" height="720pt" viewBox="0 0 1080 720" xmlns="http://www.w3.org/2000/svg" version="1.1">
 <metadata>
  <rdf:RDF xmlns:dc="http://purl.org/dc/elements/1.1/" xmlns:cc="http://creativecommons.org/ns#" xmlns:rdf="http://www.w3.org/1999/02/22-rdf-syntax-ns#">
   <cc:Work>
    <dc:type rdf:resource="http://purl.org/dc/dcmitype/StillImage"/>
    <dc:date>2025-01-01T17:01:10.856592</dc:date>
    <dc:format>image/svg+xml</dc:format>
    <dc:creator>
     <cc:Agent>
      <dc:title>Matplotlib v3.10.0, https://matplotlib.org/</dc:title>
     </cc:Agent>
    </dc:creator>
   </cc:Work>
  </rdf:RDF>
 </metadata>
 <defs>
  <style type="text/css">*{stroke-linejoin: round; stroke-linecap: butt}</style>
 </defs>
 <g id="figure_1">
  <g id="patch_1">
   <path d="M 0 720 
L 1080 720 
L 1080 0 
L 0 0 
z
" style="fill: #ffffff"/>
  </g>
  <g id="axes_1">
   <g id="patch_2">
    <path d="M 57.17 678.04 
L 960.88 678.04 
L 960.88 26.88 
L 57.17 26.88 
z
" style="fill: #ffffff"/>
   </g>
   <g id="FillBetweenPolyCollection_1"/>
   <g id="FillBetweenPolyCollection_2"/>
   <g id="FillBetweenPolyCollection_3"/>
   <g id="FillBetweenPolyCollection_4"/>
   <g id="FillBetweenPolyCollection_5"/>
   <g id="FillBetweenPolyCollection_6"/>
   <g id="FillBetweenPolyCollection_7"/>
   <g id="FillBetweenPolyCollection_8"/>
   <g id="FillBetweenPolyCollection_9"/>
   <g id="FillBetweenPolyCollection_10"/>
   <g id="FillBetweenPolyCollection_11"/>
   <g id="FillBetweenPolyCollection_12"/>
   <g id="FillBetweenPolyCollection_13"/>
   <g id="FillBetweenPolyCollection_14"/>
   <g id="FillBetweenPolyCollection_15"/>
   <g id="FillBetweenPolyCollection_16"/>
   <g id="matplotlib.axis_1">
    <g id="xtick_1">
     <g id="line2d_1">
      <path d="M 98.247727 678.04 
L 98.247727 26.88 
" clip-path="url(#p9916b0ab15)" style="fill: none; stroke: #b0b0b0; stroke-width: 0.8; stroke-linecap: square"/>
     </g>
     <g id="line2d_2">
      <defs>
       <path id="me404d1c416" d="M 0 0 
L 0 3.5 
" style="stroke: #000000; stroke-width: 0.8"/>
      </defs>
      <g>
       <use xlink:href="#me404d1c416" x="98.247727" y="678.04" style="stroke: #000000; stroke-width: 0.8"/>
      </g>
     </g>
     <g id="text_1">
      <!-- 1 -->
      <g transform="translate(95.066477 692.638438) scale(0.1 -0.1)">
       <defs>
        <path id="DejaVuSans-31" d="M 794 531 
L 1825 531 
L 1825 4091 
L 703 3866 
L 703 4441 
L 1819 4666 
L 2450 4666 
L 2450 531 
L 3481 531 
L 3481 0 
L 794 0 
L 794 531 
z
" transform="scale(0.015625)"/>
       </defs>
       <use xlink:href="#DejaVuSans-31"/>
      </g>
     </g>
    </g>
    <g id="xtick_2">
     <g id="line2d_3">
      <path d="M 172.934504 678.04 
L 172.934504 26.88 
" clip-path="url(#p9916b0ab15)" style="fill: none; stroke: #b0b0b0; stroke-width: 0.8; stroke-linecap: square"/>
     </g>
     <g id="line2d_4">
      <g>
       <use xlink:href="#me404d1c416" x="172.934504" y="678.04" style="stroke: #000000; stroke-width: 0.8"/>
      </g>
     </g>
     <g id="text_2">
      <!-- 2 -->
      <g transform="translate(169.753254 692.638438) scale(0.1 -0.1)">
       <defs>
        <path id="DejaVuSans-32" d="M 1228 531 
L 3431 531 
L 3431 0 
L 469 0 
L 469 531 
Q 828 903 1448 1529 
Q 2069 2156 2228 2338 
Q 2531 2678 2651 2914 
Q 2772 3150 2772 3378 
Q 2772 3750 2511 3984 
Q 2250 4219 1831 4219 
Q 1534 4219 1204 4116 
Q 875 4013 500 3803 
L 500 4441 
Q 881 4594 1212 4672 
Q 1544 4750 1819 4750 
Q 2544 4750 2975 4387 
Q 3406 4025 3406 3419 
Q 3406 3131 3298 2873 
Q 3191 2616 2906 2266 
Q 2828 2175 2409 1742 
Q 1991 1309 1228 531 
z
" transform="scale(0.015625)"/>
       </defs>
       <use xlink:href="#DejaVuSans-32"/>
      </g>
     </g>
    </g>
    <g id="xtick_3">
     <g id="line2d_5">
      <path d="M 247.621281 678.04 
L 247.621281 26.88 
" clip-path="url(#p9916b0ab15)" style="fill: none; stroke: #b0b0b0; stroke-width: 0.8; stroke-linecap: square"/>
     </g>
     <g id="line2d_6">
      <g>
       <use xlink:href="#me404d1c416" x="247.621281" y="678.04" style="stroke: #000000; stroke-width: 0.8"/>
      </g>
     </g>
     <g id="text_3">
      <!-- 3 -->
      <g transform="translate(244.440031 692.638438) scale(0.1 -0.1)">
       <defs>
        <path id="DejaVuSans-33" d="M 2597 2516 
Q 3050 2419 3304 2112 
Q 3559 1806 3559 1356 
Q 3559 666 3084 287 
Q 2609 -91 1734 -91 
Q 1441 -91 1130 -33 
Q 819 25 488 141 
L 488 750 
Q 750 597 1062 519 
Q 1375 441 1716 441 
Q 2309 441 2620 675 
Q 2931 909 2931 1356 
Q 2931 1769 2642 2001 
Q 2353 2234 1838 2234 
L 1294 2234 
L 1294 2753 
L 1863 2753 
Q 2328 2753 2575 2939 
Q 2822 3125 2822 3475 
Q 2822 3834 2567 4026 
Q 2313 4219 1838 4219 
Q 1578 4219 1281 4162 
Q 984 4106 628 3988 
L 628 4550 
Q 988 4650 1302 4700 
Q 1616 4750 1894 4750 
Q 2613 4750 3031 4423 
Q 3450 4097 3450 3541 
Q 3450 3153 3228 2886 
Q 3006 2619 2597 2516 
z
" transform="scale(0.015625)"/>
       </defs>
       <use xlink:href="#DejaVuSans-33"/>
      </g>
     </g>
    </g>
    <g id="xtick_4">
     <g id="line2d_7">
      <path d="M 322.308058 678.04 
L 322.308058 26.88 
" clip-path="url(#p9916b0ab15)" style="fill: none; stroke: #b0b0b0; stroke-width: 0.8; stroke-linecap: square"/>
     </g>
     <g id="line2d_8">
      <g>
       <use xlink:href="#me404d1c416" x="322.308058" y="678.04" style="stroke: #000000; stroke-width: 0.8"/>
      </g>
     </g>
     <g id="text_4">
      <!-- 4 -->
      <g transform="translate(319.126808 692.638438) scale(0.1 -0.1)">
       <defs>
        <path id="DejaVuSans-34" d="M 2419 4116 
L 825 1625 
L 2419 1625 
L 2419 4116 
z
M 2253 4666 
L 3047 4666 
L 3047 1625 
L 3713 1625 
L 3713 1100 
L 3047 1100 
L 3047 0 
L 2419 0 
L 2419 1100 
L 313 1100 
L 313 1709 
L 2253 4666 
z
" transform="scale(0.015625)"/>
       </defs>
       <use xlink:href="#DejaVuSans-34"/>
      </g>
     </g>
    </g>
    <g id="xtick_5">
     <g id="line2d_9">
      <path d="M 396.994835 678.04 
L 396.994835 26.88 
" clip-path="url(#p9916b0ab15)" style="fill: none; stroke: #b0b0b0; stroke-width: 0.8; stroke-linecap: square"/>
     </g>
     <g id="line2d_10">
      <g>
       <use xlink:href="#me404d1c416" x="396.994835" y="678.04" style="stroke: #000000; stroke-width: 0.8"/>
      </g>
     </g>
     <g id="text_5">
      <!-- 5 -->
      <g transform="translate(393.813585 692.638438) scale(0.1 -0.1)">
       <defs>
        <path id="DejaVuSans-35" d="M 691 4666 
L 3169 4666 
L 3169 4134 
L 1269 4134 
L 1269 2991 
Q 1406 3038 1543 3061 
Q 1681 3084 1819 3084 
Q 2600 3084 3056 2656 
Q 3513 2228 3513 1497 
Q 3513 744 3044 326 
Q 2575 -91 1722 -91 
Q 1428 -91 1123 -41 
Q 819 9 494 109 
L 494 744 
Q 775 591 1075 516 
Q 1375 441 1709 441 
Q 2250 441 2565 725 
Q 2881 1009 2881 1497 
Q 2881 1984 2565 2268 
Q 2250 2553 1709 2553 
Q 1456 2553 1204 2497 
Q 953 2441 691 2322 
L 691 4666 
z
" transform="scale(0.015625)"/>
       </defs>
       <use xlink:href="#DejaVuSans-35"/>
      </g>
     </g>
    </g>
    <g id="xtick_6">
     <g id="line2d_11">
      <path d="M 471.681612 678.04 
L 471.681612 26.88 
" clip-path="url(#p9916b0ab15)" style="fill: none; stroke: #b0b0b0; stroke-width: 0.8; stroke-linecap: square"/>
     </g>
     <g id="line2d_12">
      <g>
       <use xlink:href="#me404d1c416" x="471.681612" y="678.04" style="stroke: #000000; stroke-width: 0.8"/>
      </g>
     </g>
     <g id="text_6">
      <!-- 6 -->
      <g transform="translate(468.500362 692.638438) scale(0.1 -0.1)">
       <defs>
        <path id="DejaVuSans-36" d="M 2113 2584 
Q 1688 2584 1439 2293 
Q 1191 2003 1191 1497 
Q 1191 994 1439 701 
Q 1688 409 2113 409 
Q 2538 409 2786 701 
Q 3034 994 3034 1497 
Q 3034 2003 2786 2293 
Q 2538 2584 2113 2584 
z
M 3366 4563 
L 3366 3988 
Q 3128 4100 2886 4159 
Q 2644 4219 2406 4219 
Q 1781 4219 1451 3797 
Q 1122 3375 1075 2522 
Q 1259 2794 1537 2939 
Q 1816 3084 2150 3084 
Q 2853 3084 3261 2657 
Q 3669 2231 3669 1497 
Q 3669 778 3244 343 
Q 2819 -91 2113 -91 
Q 1303 -91 875 529 
Q 447 1150 447 2328 
Q 447 3434 972 4092 
Q 1497 4750 2381 4750 
Q 2619 4750 2861 4703 
Q 3103 4656 3366 4563 
z
" transform="scale(0.015625)"/>
       </defs>
       <use xlink:href="#DejaVuSans-36"/>
      </g>
     </g>
    </g>
    <g id="xtick_7">
     <g id="line2d_13">
      <path d="M 546.368388 678.04 
L 546.368388 26.88 
" clip-path="url(#p9916b0ab15)" style="fill: none; stroke: #b0b0b0; stroke-width: 0.8; stroke-linecap: square"/>
     </g>
     <g id="line2d_14">
      <g>
       <use xlink:href="#me404d1c416" x="546.368388" y="678.04" style="stroke: #000000; stroke-width: 0.8"/>
      </g>
     </g>
     <g id="text_7">
      <!-- 7 -->
      <g transform="translate(543.187138 692.638438) scale(0.1 -0.1)">
       <defs>
        <path id="DejaVuSans-37" d="M 525 4666 
L 3525 4666 
L 3525 4397 
L 1831 0 
L 1172 0 
L 2766 4134 
L 525 4134 
L 525 4666 
z
" transform="scale(0.015625)"/>
       </defs>
       <use xlink:href="#DejaVuSans-37"/>
      </g>
     </g>
    </g>
    <g id="xtick_8">
     <g id="line2d_15">
      <path d="M 621.055165 678.04 
L 621.055165 26.88 
" clip-path="url(#p9916b0ab15)" style="fill: none; stroke: #b0b0b0; stroke-width: 0.8; stroke-linecap: square"/>
     </g>
     <g id="line2d_16">
      <g>
       <use xlink:href="#me404d1c416" x="621.055165" y="678.04" style="stroke: #000000; stroke-width: 0.8"/>
      </g>
     </g>
     <g id="text_8">
      <!-- 8 -->
      <g transform="translate(617.873915 692.638438) scale(0.1 -0.1)">
       <defs>
        <path id="DejaVuSans-38" d="M 2034 2216 
Q 1584 2216 1326 1975 
Q 1069 1734 1069 1313 
Q 1069 891 1326 650 
Q 1584 409 2034 409 
Q 2484 409 2743 651 
Q 3003 894 3003 1313 
Q 3003 1734 2745 1975 
Q 2488 2216 2034 2216 
z
M 1403 2484 
Q 997 2584 770 2862 
Q 544 3141 544 3541 
Q 544 4100 942 4425 
Q 1341 4750 2034 4750 
Q 2731 4750 3128 4425 
Q 3525 4100 3525 3541 
Q 3525 3141 3298 2862 
Q 3072 2584 2669 2484 
Q 3125 2378 3379 2068 
Q 3634 1759 3634 1313 
Q 3634 634 3220 271 
Q 2806 -91 2034 -91 
Q 1263 -91 848 271 
Q 434 634 434 1313 
Q 434 1759 690 2068 
Q 947 2378 1403 2484 
z
M 1172 3481 
Q 1172 3119 1398 2916 
Q 1625 2713 2034 2713 
Q 2441 2713 2670 2916 
Q 2900 3119 2900 3481 
Q 2900 3844 2670 4047 
Q 2441 4250 2034 4250 
Q 1625 4250 1398 4047 
Q 1172 3844 1172 3481 
z
" transform="scale(0.015625)"/>
       </defs>
       <use xlink:href="#DejaVuSans-38"/>
      </g>
     </g>
    </g>
    <g id="xtick_9">
     <g id="line2d_17">
      <path d="M 695.741942 678.04 
L 695.741942 26.88 
" clip-path="url(#p9916b0ab15)" style="fill: none; stroke: #b0b0b0; stroke-width: 0.8; stroke-linecap: square"/>
     </g>
     <g id="line2d_18">
      <g>
       <use xlink:href="#me404d1c416" x="695.741942" y="678.04" style="stroke: #000000; stroke-width: 0.8"/>
      </g>
     </g>
     <g id="text_9">
      <!-- 9 -->
      <g transform="translate(692.560692 692.638438) scale(0.1 -0.1)">
       <defs>
        <path id="DejaVuSans-39" d="M 703 97 
L 703 672 
Q 941 559 1184 500 
Q 1428 441 1663 441 
Q 2288 441 2617 861 
Q 2947 1281 2994 2138 
Q 2813 1869 2534 1725 
Q 2256 1581 1919 1581 
Q 1219 1581 811 2004 
Q 403 2428 403 3163 
Q 403 3881 828 4315 
Q 1253 4750 1959 4750 
Q 2769 4750 3195 4129 
Q 3622 3509 3622 2328 
Q 3622 1225 3098 567 
Q 2575 -91 1691 -91 
Q 1453 -91 1209 -44 
Q 966 3 703 97 
z
M 1959 2075 
Q 2384 2075 2632 2365 
Q 2881 2656 2881 3163 
Q 2881 3666 2632 3958 
Q 2384 4250 1959 4250 
Q 1534 4250 1286 3958 
Q 1038 3666 1038 3163 
Q 1038 2656 1286 2365 
Q 1534 2075 1959 2075 
z
" transform="scale(0.015625)"/>
       </defs>
       <use xlink:href="#DejaVuSans-39"/>
      </g>
     </g>
    </g>
    <g id="xtick_10">
     <g id="line2d_19">
      <path d="M 770.428719 678.04 
L 770.428719 26.88 
" clip-path="url(#p9916b0ab15)" style="fill: none; stroke: #b0b0b0; stroke-width: 0.8; stroke-linecap: square"/>
     </g>
     <g id="line2d_20">
      <g>
       <use xlink:href="#me404d1c416" x="770.428719" y="678.04" style="stroke: #000000; stroke-width: 0.8"/>
      </g>
     </g>
     <g id="text_10">
      <!-- 10 -->
      <g transform="translate(764.066219 692.638438) scale(0.1 -0.1)">
       <defs>
        <path id="DejaVuSans-30" d="M 2034 4250 
Q 1547 4250 1301 3770 
Q 1056 3291 1056 2328 
Q 1056 1369 1301 889 
Q 1547 409 2034 409 
Q 2525 409 2770 889 
Q 3016 1369 3016 2328 
Q 3016 3291 2770 3770 
Q 2525 4250 2034 4250 
z
M 2034 4750 
Q 2819 4750 3233 4129 
Q 3647 3509 3647 2328 
Q 3647 1150 3233 529 
Q 2819 -91 2034 -91 
Q 1250 -91 836 529 
Q 422 1150 422 2328 
Q 422 3509 836 4129 
Q 1250 4750 2034 4750 
z
" transform="scale(0.015625)"/>
       </defs>
       <use xlink:href="#DejaVuSans-31"/>
       <use xlink:href="#DejaVuSans-30" transform="translate(63.623047 0)"/>
      </g>
     </g>
    </g>
    <g id="xtick_11">
     <g id="line2d_21">
      <path d="M 845.115496 678.04 
L 845.115496 26.88 
" clip-path="url(#p9916b0ab15)" style="fill: none; stroke: #b0b0b0; stroke-width: 0.8; stroke-linecap: square"/>
     </g>
     <g id="line2d_22">
      <g>
       <use xlink:href="#me404d1c416" x="845.115496" y="678.04" style="stroke: #000000; stroke-width: 0.8"/>
      </g>
     </g>
     <g id="text_11">
      <!-- 11 -->
      <g transform="translate(838.752996 692.638438) scale(0.1 -0.1)">
       <use xlink:href="#DejaVuSans-31"/>
       <use xlink:href="#DejaVuSans-31" transform="translate(63.623047 0)"/>
      </g>
     </g>
    </g>
    <g id="xtick_12">
     <g id="line2d_23">
      <path d="M 919.802273 678.04 
L 919.802273 26.88 
" clip-path="url(#p9916b0ab15)" style="fill: none; stroke: #b0b0b0; stroke-width: 0.8; stroke-linecap: square"/>
     </g>
     <g id="line2d_24">
      <g>
       <use xlink:href="#me404d1c416" x="919.802273" y="678.04" style="stroke: #000000; stroke-width: 0.8"/>
      </g>
     </g>
     <g id="text_12">
      <!-- 12 -->
      <g transform="translate(913.439773 692.638438) scale(0.1 -0.1)">
       <use xlink:href="#DejaVuSans-31"/>
       <use xlink:href="#DejaVuSans-32" transform="translate(63.623047 0)"/>
      </g>
     </g>
    </g>
    <g id="text_13">
     <!-- Month -->
     <g transform="translate(493.353906 706.316563) scale(0.1 -0.1)">
      <defs>
       <path id="DejaVuSans-4d" d="M 628 4666 
L 1569 4666 
L 2759 1491 
L 3956 4666 
L 4897 4666 
L 4897 0 
L 4281 0 
L 4281 4097 
L 3078 897 
L 2444 897 
L 1241 4097 
L 1241 0 
L 628 0 
L 628 4666 
z
" transform="scale(0.015625)"/>
       <path id="DejaVuSans-6f" d="M 1959 3097 
Q 1497 3097 1228 2736 
Q 959 2375 959 1747 
Q 959 1119 1226 758 
Q 1494 397 1959 397 
Q 2419 397 2687 759 
Q 2956 1122 2956 1747 
Q 2956 2369 2687 2733 
Q 2419 3097 1959 3097 
z
M 1959 3584 
Q 2709 3584 3137 3096 
Q 3566 2609 3566 1747 
Q 3566 888 3137 398 
Q 2709 -91 1959 -91 
Q 1206 -91 779 398 
Q 353 888 353 1747 
Q 353 2609 779 3096 
Q 1206 3584 1959 3584 
z
" transform="scale(0.015625)"/>
       <path id="DejaVuSans-6e" d="M 3513 2113 
L 3513 0 
L 2938 0 
L 2938 2094 
Q 2938 2591 2744 2837 
Q 2550 3084 2163 3084 
Q 1697 3084 1428 2787 
Q 1159 2491 1159 1978 
L 1159 0 
L 581 0 
L 581 3500 
L 1159 3500 
L 1159 2956 
Q 1366 3272 1645 3428 
Q 1925 3584 2291 3584 
Q 2894 3584 3203 3211 
Q 3513 2838 3513 2113 
z
" transform="scale(0.015625)"/>
       <path id="DejaVuSans-74" d="M 1172 4494 
L 1172 3500 
L 2356 3500 
L 2356 3053 
L 1172 3053 
L 1172 1153 
Q 1172 725 1289 603 
Q 1406 481 1766 481 
L 2356 481 
L 2356 0 
L 1766 0 
Q 1100 0 847 248 
Q 594 497 594 1153 
L 594 3053 
L 172 3053 
L 172 3500 
L 594 3500 
L 594 4494 
L 1172 4494 
z
" transform="scale(0.015625)"/>
       <path id="DejaVuSans-68" d="M 3513 2113 
L 3513 0 
L 2938 0 
L 2938 2094 
Q 2938 2591 2744 2837 
Q 2550 3084 2163 3084 
Q 1697 3084 1428 2787 
Q 1159 2491 1159 1978 
L 1159 0 
L 581 0 
L 581 4863 
L 1159 4863 
L 1159 2956 
Q 1366 3272 1645 3428 
Q 1925 3584 2291 3584 
Q 2894 3584 3203 3211 
Q 3513 2838 3513 2113 
z
" transform="scale(0.015625)"/>
      </defs>
      <use xlink:href="#DejaVuSans-4d"/>
      <use xlink:href="#DejaVuSans-6f" transform="translate(86.279297 0)"/>
      <use xlink:href="#DejaVuSans-6e" transform="translate(147.460938 0)"/>
      <use xlink:href="#DejaVuSans-74" transform="translate(210.839844 0)"/>
      <use xlink:href="#DejaVuSans-68" transform="translate(250.048828 0)"/>
     </g>
    </g>
   </g>
   <g id="matplotlib.axis_2">
    <g id="ytick_1">
     <g id="line2d_25">
      <path d="M 57.17 655.155599 
L 960.88 655.155599 
" clip-path="url(#p9916b0ab15)" style="fill: none; stroke: #b0b0b0; stroke-width: 0.8; stroke-linecap: square"/>
     </g>
     <g id="line2d_26">
      <defs>
       <path id="me18c2520ea" d="M 0 0 
L -3.5 0 
" style="stroke: #000000; stroke-width: 0.8"/>
      </defs>
      <g>
       <use xlink:href="#me18c2520ea" x="57.17" y="655.155599" style="stroke: #000000; stroke-width: 0.8"/>
      </g>
     </g>
     <g id="text_14">
      <!-- 1000 -->
      <g transform="translate(24.72 658.954818) scale(0.1 -0.1)">
       <use xlink:href="#DejaVuSans-31"/>
       <use xlink:href="#DejaVuSans-30" transform="translate(63.623047 0)"/>
       <use xlink:href="#DejaVuSans-30" transform="translate(127.246094 0)"/>
       <use xlink:href="#DejaVuSans-30" transform="translate(190.869141 0)"/>
      </g>
     </g>
    </g>
    <g id="ytick_2">
     <g id="line2d_27">
      <path d="M 57.17 559.244446 
L 960.88 559.244446 
" clip-path="url(#p9916b0ab15)" style="fill: none; stroke: #b0b0b0; stroke-width: 0.8; stroke-linecap: square"/>
     </g>
     <g id="line2d_28">
      <g>
       <use xlink:href="#me18c2520ea" x="57.17" y="559.244446" style="stroke: #000000; stroke-width: 0.8"/>
      </g>
     </g>
     <g id="text_15">
      <!-- 2000 -->
      <g transform="translate(24.72 563.043665) scale(0.1 -0.1)">
       <use xlink:href="#DejaVuSans-32"/>
       <use xlink:href="#DejaVuSans-30" transform="translate(63.623047 0)"/>
       <use xlink:href="#DejaVuSans-30" transform="translate(127.246094 0)"/>
       <use xlink:href="#DejaVuSans-30" transform="translate(190.869141 0)"/>
      </g>
     </g>
    </g>
    <g id="ytick_3">
     <g id="line2d_29">
      <path d="M 57.17 463.333293 
L 960.88 463.333293 
" clip-path="url(#p9916b0ab15)" style="fill: none; stroke: #b0b0b0; stroke-width: 0.8; stroke-linecap: square"/>
     </g>
     <g id="line2d_30">
      <g>
       <use xlink:href="#me18c2520ea" x="57.17" y="463.333293" style="stroke: #000000; stroke-width: 0.8"/>
      </g>
     </g>
     <g id="text_16">
      <!-- 3000 -->
      <g transform="translate(24.72 467.132512) scale(0.1 -0.1)">
       <use xlink:href="#DejaVuSans-33"/>
       <use xlink:href="#DejaVuSans-30" transform="translate(63.623047 0)"/>
       <use xlink:href="#DejaVuSans-30" transform="translate(127.246094 0)"/>
       <use xlink:href="#DejaVuSans-30" transform="translate(190.869141 0)"/>
      </g>
     </g>
    </g>
    <g id="ytick_4">
     <g id="line2d_31">
      <path d="M 57.17 367.42214 
L 960.88 367.42214 
" clip-path="url(#p9916b0ab15)" style="fill: none; stroke: #b0b0b0; stroke-width: 0.8; stroke-linecap: square"/>
     </g>
     <g id="line2d_32">
      <g>
       <use xlink:href="#me18c2520ea" x="57.17" y="367.42214" style="stroke: #000000; stroke-width: 0.8"/>
      </g>
     </g>
     <g id="text_17">
      <!-- 4000 -->
      <g transform="translate(24.72 371.221359) scale(0.1 -0.1)">
       <use xlink:href="#DejaVuSans-34"/>
       <use xlink:href="#DejaVuSans-30" transform="translate(63.623047 0)"/>
       <use xlink:href="#DejaVuSans-30" transform="translate(127.246094 0)"/>
       <use xlink:href="#DejaVuSans-30" transform="translate(190.869141 0)"/>
      </g>
     </g>
    </g>
    <g id="ytick_5">
     <g id="line2d_33">
      <path d="M 57.17 271.510987 
L 960.88 271.510987 
" clip-path="url(#p9916b0ab15)" style="fill: none; stroke: #b0b0b0; stroke-width: 0.8; stroke-linecap: square"/>
     </g>
     <g id="line2d_34">
      <g>
       <use xlink:href="#me18c2520ea" x="57.17" y="271.510987" style="stroke: #000000; stroke-width: 0.8"/>
      </g>
     </g>
     <g id="text_18">
      <!-- 5000 -->
      <g transform="translate(24.72 275.310206) scale(0.1 -0.1)">
       <use xlink:href="#DejaVuSans-35"/>
       <use xlink:href="#DejaVuSans-30" transform="translate(63.623047 0)"/>
       <use xlink:href="#DejaVuSans-30" transform="translate(127.246094 0)"/>
       <use xlink:href="#DejaVuSans-30" transform="translate(190.869141 0)"/>
      </g>
     </g>
    </g>
    <g id="ytick_6">
     <g id="line2d_35">
      <path d="M 57.17 175.599834 
L 960.88 175.599834 
" clip-path="url(#p9916b0ab15)" style="fill: none; stroke: #b0b0b0; stroke-width: 0.8; stroke-linecap: square"/>
     </g>
     <g id="line2d_36">
      <g>
       <use xlink:href="#me18c2520ea" x="57.17" y="175.599834" style="stroke: #000000; stroke-width: 0.8"/>
      </g>
     </g>
     <g id="text_19">
      <!-- 6000 -->
      <g transform="translate(24.72 179.399053) scale(0.1 -0.1)">
       <use xlink:href="#DejaVuSans-36"/>
       <use xlink:href="#DejaVuSans-30" transform="translate(63.623047 0)"/>
       <use xlink:href="#DejaVuSans-30" transform="translate(127.246094 0)"/>
       <use xlink:href="#DejaVuSans-30" transform="translate(190.869141 0)"/>
      </g>
     </g>
    </g>
    <g id="ytick_7">
     <g id="line2d_37">
      <path d="M 57.17 79.688681 
L 960.88 79.688681 
" clip-path="url(#p9916b0ab15)" style="fill: none; stroke: #b0b0b0; stroke-width: 0.8; stroke-linecap: square"/>
     </g>
     <g id="line2d_38">
      <g>
       <use xlink:href="#me18c2520ea" x="57.17" y="79.688681" style="stroke: #000000; stroke-width: 0.8"/>
      </g>
     </g>
     <g id="text_20">
      <!-- 7000 -->
      <g transform="translate(24.72 83.4879) scale(0.1 -0.1)">
       <use xlink:href="#DejaVuSans-37"/>
       <use xlink:href="#DejaVuSans-30" transform="translate(63.623047 0)"/>
       <use xlink:href="#DejaVuSans-30" transform="translate(127.246094 0)"/>
       <use xlink:href="#DejaVuSans-30" transform="translate(190.869141 0)"/>
      </g>
     </g>
    </g>
    <g id="text_21">
     <!-- Sparkling Count -->
     <g transform="translate(18.640312 392.381875) rotate(-90) scale(0.1 -0.1)">
      <defs>
       <path id="DejaVuSans-53" d="M 3425 4513 
L 3425 3897 
Q 3066 4069 2747 4153 
Q 2428 4238 2131 4238 
Q 1616 4238 1336 4038 
Q 1056 3838 1056 3469 
Q 1056 3159 1242 3001 
Q 1428 2844 1947 2747 
L 2328 2669 
Q 3034 2534 3370 2195 
Q 3706 1856 3706 1288 
Q 3706 609 3251 259 
Q 2797 -91 1919 -91 
Q 1588 -91 1214 -16 
Q 841 59 441 206 
L 441 856 
Q 825 641 1194 531 
Q 1563 422 1919 422 
Q 2459 422 2753 634 
Q 3047 847 3047 1241 
Q 3047 1584 2836 1778 
Q 2625 1972 2144 2069 
L 1759 2144 
Q 1053 2284 737 2584 
Q 422 2884 422 3419 
Q 422 4038 858 4394 
Q 1294 4750 2059 4750 
Q 2388 4750 2728 4690 
Q 3069 4631 3425 4513 
z
" transform="scale(0.015625)"/>
       <path id="DejaVuSans-70" d="M 1159 525 
L 1159 -1331 
L 581 -1331 
L 581 3500 
L 1159 3500 
L 1159 2969 
Q 1341 3281 1617 3432 
Q 1894 3584 2278 3584 
Q 2916 3584 3314 3078 
Q 3713 2572 3713 1747 
Q 3713 922 3314 415 
Q 2916 -91 2278 -91 
Q 1894 -91 1617 61 
Q 1341 213 1159 525 
z
M 3116 1747 
Q 3116 2381 2855 2742 
Q 2594 3103 2138 3103 
Q 1681 3103 1420 2742 
Q 1159 2381 1159 1747 
Q 1159 1113 1420 752 
Q 1681 391 2138 391 
Q 2594 391 2855 752 
Q 3116 1113 3116 1747 
z
" transform="scale(0.015625)"/>
       <path id="DejaVuSans-61" d="M 2194 1759 
Q 1497 1759 1228 1600 
Q 959 1441 959 1056 
Q 959 750 1161 570 
Q 1363 391 1709 391 
Q 2188 391 2477 730 
Q 2766 1069 2766 1631 
L 2766 1759 
L 2194 1759 
z
M 3341 1997 
L 3341 0 
L 2766 0 
L 2766 531 
Q 2569 213 2275 61 
Q 1981 -91 1556 -91 
Q 1019 -91 701 211 
Q 384 513 384 1019 
Q 384 1609 779 1909 
Q 1175 2209 1959 2209 
L 2766 2209 
L 2766 2266 
Q 2766 2663 2505 2880 
Q 2244 3097 1772 3097 
Q 1472 3097 1187 3025 
Q 903 2953 641 2809 
L 641 3341 
Q 956 3463 1253 3523 
Q 1550 3584 1831 3584 
Q 2591 3584 2966 3190 
Q 3341 2797 3341 1997 
z
" transform="scale(0.015625)"/>
       <path id="DejaVuSans-72" d="M 2631 2963 
Q 2534 3019 2420 3045 
Q 2306 3072 2169 3072 
Q 1681 3072 1420 2755 
Q 1159 2438 1159 1844 
L 1159 0 
L 581 0 
L 581 3500 
L 1159 3500 
L 1159 2956 
Q 1341 3275 1631 3429 
Q 1922 3584 2338 3584 
Q 2397 3584 2469 3576 
Q 2541 3569 2628 3553 
L 2631 2963 
z
" transform="scale(0.015625)"/>
       <path id="DejaVuSans-6b" d="M 581 4863 
L 1159 4863 
L 1159 1991 
L 2875 3500 
L 3609 3500 
L 1753 1863 
L 3688 0 
L 2938 0 
L 1159 1709 
L 1159 0 
L 581 0 
L 581 4863 
z
" transform="scale(0.015625)"/>
       <path id="DejaVuSans-6c" d="M 603 4863 
L 1178 4863 
L 1178 0 
L 603 0 
L 603 4863 
z
" transform="scale(0.015625)"/>
       <path id="DejaVuSans-69" d="M 603 3500 
L 1178 3500 
L 1178 0 
L 603 0 
L 603 3500 
z
M 603 4863 
L 1178 4863 
L 1178 4134 
L 603 4134 
L 603 4863 
z
" transform="scale(0.015625)"/>
       <path id="DejaVuSans-67" d="M 2906 1791 
Q 2906 2416 2648 2759 
Q 2391 3103 1925 3103 
Q 1463 3103 1205 2759 
Q 947 2416 947 1791 
Q 947 1169 1205 825 
Q 1463 481 1925 481 
Q 2391 481 2648 825 
Q 2906 1169 2906 1791 
z
M 3481 434 
Q 3481 -459 3084 -895 
Q 2688 -1331 1869 -1331 
Q 1566 -1331 1297 -1286 
Q 1028 -1241 775 -1147 
L 775 -588 
Q 1028 -725 1275 -790 
Q 1522 -856 1778 -856 
Q 2344 -856 2625 -561 
Q 2906 -266 2906 331 
L 2906 616 
Q 2728 306 2450 153 
Q 2172 0 1784 0 
Q 1141 0 747 490 
Q 353 981 353 1791 
Q 353 2603 747 3093 
Q 1141 3584 1784 3584 
Q 2172 3584 2450 3431 
Q 2728 3278 2906 2969 
L 2906 3500 
L 3481 3500 
L 3481 434 
z
" transform="scale(0.015625)"/>
       <path id="DejaVuSans-20" transform="scale(0.015625)"/>
       <path id="DejaVuSans-43" d="M 4122 4306 
L 4122 3641 
Q 3803 3938 3442 4084 
Q 3081 4231 2675 4231 
Q 1875 4231 1450 3742 
Q 1025 3253 1025 2328 
Q 1025 1406 1450 917 
Q 1875 428 2675 428 
Q 3081 428 3442 575 
Q 3803 722 4122 1019 
L 4122 359 
Q 3791 134 3420 21 
Q 3050 -91 2638 -91 
Q 1578 -91 968 557 
Q 359 1206 359 2328 
Q 359 3453 968 4101 
Q 1578 4750 2638 4750 
Q 3056 4750 3426 4639 
Q 3797 4528 4122 4306 
z
" transform="scale(0.015625)"/>
       <path id="DejaVuSans-75" d="M 544 1381 
L 544 3500 
L 1119 3500 
L 1119 1403 
Q 1119 906 1312 657 
Q 1506 409 1894 409 
Q 2359 409 2629 706 
Q 2900 1003 2900 1516 
L 2900 3500 
L 3475 3500 
L 3475 0 
L 2900 0 
L 2900 538 
Q 2691 219 2414 64 
Q 2138 -91 1772 -91 
Q 1169 -91 856 284 
Q 544 659 544 1381 
z
M 1991 3584 
L 1991 3584 
z
" transform="scale(0.015625)"/>
      </defs>
      <use xlink:href="#DejaVuSans-53"/>
      <use xlink:href="#DejaVuSans-70" transform="translate(63.476562 0)"/>
      <use xlink:href="#DejaVuSans-61" transform="translate(126.953125 0)"/>
      <use xlink:href="#DejaVuSans-72" transform="translate(188.232422 0)"/>
      <use xlink:href="#DejaVuSans-6b" transform="translate(229.345703 0)"/>
      <use xlink:href="#DejaVuSans-6c" transform="translate(287.255859 0)"/>
      <use xlink:href="#DejaVuSans-69" transform="translate(315.039062 0)"/>
      <use xlink:href="#DejaVuSans-6e" transform="translate(342.822266 0)"/>
      <use xlink:href="#DejaVuSans-67" transform="translate(406.201172 0)"/>
      <use xlink:href="#DejaVuSans-20" transform="translate(469.677734 0)"/>
      <use xlink:href="#DejaVuSans-43" transform="translate(501.464844 0)"/>
      <use xlink:href="#DejaVuSans-6f" transform="translate(571.289062 0)"/>
      <use xlink:href="#DejaVuSans-75" transform="translate(632.470703 0)"/>
      <use xlink:href="#DejaVuSans-6e" transform="translate(695.849609 0)"/>
      <use xlink:href="#DejaVuSans-74" transform="translate(759.228516 0)"/>
     </g>
    </g>
   </g>
   <g id="line2d_39">
    <path d="M 98.247727 589.360548 
L 172.934504 598.472107 
L 247.621281 530.087455 
L 322.308058 586.866858 
L 396.994835 609.981446 
L 471.681612 618.997094 
L 546.368388 562.505425 
L 621.055165 515.796694 
L 695.741942 560.779024 
L 770.428719 502.081399 
L 845.115496 359.07787 
L 919.802273 254.34289 
" clip-path="url(#p9916b0ab15)" style="fill: none; stroke: #edd1cb; stroke-width: 1.5; stroke-linecap: square"/>
    <defs>
     <path id="m192ace3ef4" d="M 0 3 
C 0.795609 3 1.55874 2.683901 2.12132 2.12132 
C 2.683901 1.55874 3 0.795609 3 0 
C 3 -0.795609 2.683901 -1.55874 2.12132 -2.12132 
C 1.55874 -2.683901 0.795609 -3 0 -3 
C -0.795609 -3 -1.55874 -2.683901 -2.12132 -2.12132 
C -2.683901 -1.55874 -3 -0.795609 -3 0 
C -3 0.795609 -2.683901 1.55874 -2.12132 2.12132 
C -1.55874 2.683901 -0.795609 3 0 3 
z
" style="stroke: #ffffff; stroke-width: 0.75"/>
    </defs>
    <g clip-path="url(#p9916b0ab15)">
     <use xlink:href="#m192ace3ef4" x="98.247727" y="589.360548" style="fill: #edd1cb; stroke: #ffffff; stroke-width: 0.75"/>
     <use xlink:href="#m192ace3ef4" x="172.934504" y="598.472107" style="fill: #edd1cb; stroke: #ffffff; stroke-width: 0.75"/>
     <use xlink:href="#m192ace3ef4" x="247.621281" y="530.087455" style="fill: #edd1cb; stroke: #ffffff; stroke-width: 0.75"/>
     <use xlink:href="#m192ace3ef4" x="322.308058" y="586.866858" style="fill: #edd1cb; stroke: #ffffff; stroke-width: 0.75"/>
     <use xlink:href="#m192ace3ef4" x="396.994835" y="609.981446" style="fill: #edd1cb; stroke: #ffffff; stroke-width: 0.75"/>
     <use xlink:href="#m192ace3ef4" x="471.681612" y="618.997094" style="fill: #edd1cb; stroke: #ffffff; stroke-width: 0.75"/>
     <use xlink:href="#m192ace3ef4" x="546.368388" y="562.505425" style="fill: #edd1cb; stroke: #ffffff; stroke-width: 0.75"/>
     <use xlink:href="#m192ace3ef4" x="621.055165" y="515.796694" style="fill: #edd1cb; stroke: #ffffff; stroke-width: 0.75"/>
     <use xlink:href="#m192ace3ef4" x="695.741942" y="560.779024" style="fill: #edd1cb; stroke: #ffffff; stroke-width: 0.75"/>
     <use xlink:href="#m192ace3ef4" x="770.428719" y="502.081399" style="fill: #edd1cb; stroke: #ffffff; stroke-width: 0.75"/>
     <use xlink:href="#m192ace3ef4" x="845.115496" y="359.07787" style="fill: #edd1cb; stroke: #ffffff; stroke-width: 0.75"/>
     <use xlink:href="#m192ace3ef4" x="919.802273" y="254.34289" style="fill: #edd1cb; stroke: #ffffff; stroke-width: 0.75"/>
    </g>
   </g>
   <g id="line2d_40">
    <path d="M 98.247727 604.322688 
L 172.934504 604.994066 
L 247.621281 594.443839 
L 322.308058 561.546314 
L 396.994835 638.850703 
L 471.681612 609.118245 
L 546.368388 580.248988 
L 621.055165 513.974382 
L 695.741942 561.066758 
L 770.428719 533.060701 
L 845.115496 381.137435 
L 919.802273 314.575095 
" clip-path="url(#p9916b0ab15)" style="fill: none; stroke: #e8c2bf; stroke-width: 1.5; stroke-linecap: square"/>
    <defs>
     <path id="mf74fa69da6" d="M 0 3 
C 0.795609 3 1.55874 2.683901 2.12132 2.12132 
C 2.683901 1.55874 3 0.795609 3 0 
C 3 -0.795609 2.683901 -1.55874 2.12132 -2.12132 
C 1.55874 -2.683901 0.795609 -3 0 -3 
C -0.795609 -3 -1.55874 -2.683901 -2.12132 -2.12132 
C -2.683901 -1.55874 -3 -0.795609 -3 0 
C -3 0.795609 -2.683901 1.55874 -2.12132 2.12132 
C -1.55874 2.683901 -0.795609 3 0 3 
z
" style="stroke: #ffffff; stroke-width: 0.75"/>
    </defs>
    <g clip-path="url(#p9916b0ab15)">
     <use xlink:href="#mf74fa69da6" x="98.247727" y="604.322688" style="fill: #e8c2bf; stroke: #ffffff; stroke-width: 0.75"/>
     <use xlink:href="#mf74fa69da6" x="172.934504" y="604.994066" style="fill: #e8c2bf; stroke: #ffffff; stroke-width: 0.75"/>
     <use xlink:href="#mf74fa69da6" x="247.621281" y="594.443839" style="fill: #e8c2bf; stroke: #ffffff; stroke-width: 0.75"/>
     <use xlink:href="#mf74fa69da6" x="322.308058" y="561.546314" style="fill: #e8c2bf; stroke: #ffffff; stroke-width: 0.75"/>
     <use xlink:href="#mf74fa69da6" x="396.994835" y="638.850703" style="fill: #e8c2bf; stroke: #ffffff; stroke-width: 0.75"/>
     <use xlink:href="#mf74fa69da6" x="471.681612" y="609.118245" style="fill: #e8c2bf; stroke: #ffffff; stroke-width: 0.75"/>
     <use xlink:href="#mf74fa69da6" x="546.368388" y="580.248988" style="fill: #e8c2bf; stroke: #ffffff; stroke-width: 0.75"/>
     <use xlink:href="#mf74fa69da6" x="621.055165" y="513.974382" style="fill: #e8c2bf; stroke: #ffffff; stroke-width: 0.75"/>
     <use xlink:href="#mf74fa69da6" x="695.741942" y="561.066758" style="fill: #e8c2bf; stroke: #ffffff; stroke-width: 0.75"/>
     <use xlink:href="#mf74fa69da6" x="770.428719" y="533.060701" style="fill: #e8c2bf; stroke: #ffffff; stroke-width: 0.75"/>
     <use xlink:href="#mf74fa69da6" x="845.115496" y="381.137435" style="fill: #e8c2bf; stroke: #ffffff; stroke-width: 0.75"/>
     <use xlink:href="#mf74fa69da6" x="919.802273" y="314.575095" style="fill: #e8c2bf; stroke: #ffffff; stroke-width: 0.75"/>
    </g>
   </g>
   <g id="line2d_41">
    <path d="M 98.247727 606.240911 
L 172.934504 623.60083 
L 247.621281 605.473622 
L 322.308058 579.385788 
L 396.994835 603.65131 
L 471.681612 612.091491 
L 546.368388 563.656359 
L 621.055165 569.123295 
L 695.741942 587.442325 
L 770.428719 509.946113 
L 845.115496 406.457979 
L 919.802273 317.164696 
" clip-path="url(#p9916b0ab15)" style="fill: none; stroke: #e2b3b5; stroke-width: 1.5; stroke-linecap: square"/>
    <defs>
     <path id="mbf82e7214d" d="M 0 3 
C 0.795609 3 1.55874 2.683901 2.12132 2.12132 
C 2.683901 1.55874 3 0.795609 3 0 
C 3 -0.795609 2.683901 -1.55874 2.12132 -2.12132 
C 1.55874 -2.683901 0.795609 -3 0 -3 
C -0.795609 -3 -1.55874 -2.683901 -2.12132 -2.12132 
C -2.683901 -1.55874 -3 -0.795609 -3 0 
C -3 0.795609 -2.683901 1.55874 -2.12132 2.12132 
C -1.55874 2.683901 -0.795609 3 0 3 
z
" style="stroke: #ffffff; stroke-width: 0.75"/>
    </defs>
    <g clip-path="url(#p9916b0ab15)">
     <use xlink:href="#mbf82e7214d" x="98.247727" y="606.240911" style="fill: #e2b3b5; stroke: #ffffff; stroke-width: 0.75"/>
     <use xlink:href="#mbf82e7214d" x="172.934504" y="623.60083" style="fill: #e2b3b5; stroke: #ffffff; stroke-width: 0.75"/>
     <use xlink:href="#mbf82e7214d" x="247.621281" y="605.473622" style="fill: #e2b3b5; stroke: #ffffff; stroke-width: 0.75"/>
     <use xlink:href="#mbf82e7214d" x="322.308058" y="579.385788" style="fill: #e2b3b5; stroke: #ffffff; stroke-width: 0.75"/>
     <use xlink:href="#mbf82e7214d" x="396.994835" y="603.65131" style="fill: #e2b3b5; stroke: #ffffff; stroke-width: 0.75"/>
     <use xlink:href="#mbf82e7214d" x="471.681612" y="612.091491" style="fill: #e2b3b5; stroke: #ffffff; stroke-width: 0.75"/>
     <use xlink:href="#mbf82e7214d" x="546.368388" y="563.656359" style="fill: #e2b3b5; stroke: #ffffff; stroke-width: 0.75"/>
     <use xlink:href="#mbf82e7214d" x="621.055165" y="569.123295" style="fill: #e2b3b5; stroke: #ffffff; stroke-width: 0.75"/>
     <use xlink:href="#mbf82e7214d" x="695.741942" y="587.442325" style="fill: #e2b3b5; stroke: #ffffff; stroke-width: 0.75"/>
     <use xlink:href="#mbf82e7214d" x="770.428719" y="509.946113" style="fill: #e2b3b5; stroke: #ffffff; stroke-width: 0.75"/>
     <use xlink:href="#mbf82e7214d" x="845.115496" y="406.457979" style="fill: #e2b3b5; stroke: #ffffff; stroke-width: 0.75"/>
     <use xlink:href="#mbf82e7214d" x="919.802273" y="317.164696" style="fill: #e2b3b5; stroke: #ffffff; stroke-width: 0.75"/>
    </g>
   </g>
   <g id="line2d_42">
    <path d="M 98.247727 596.745707 
L 172.934504 593.964283 
L 247.621281 556.367111 
L 322.308058 619.188917 
L 396.994835 624.46403 
L 471.681612 631.657366 
L 546.368388 597.608907 
L 621.055165 530.662922 
L 695.741942 540.925416 
L 770.428719 510.233847 
L 845.115496 421.132386 
L 919.802273 278.896146 
" clip-path="url(#p9916b0ab15)" style="fill: none; stroke: #daa4ac; stroke-width: 1.5; stroke-linecap: square"/>
    <defs>
     <path id="m43a935c2cd" d="M 0 3 
C 0.795609 3 1.55874 2.683901 2.12132 2.12132 
C 2.683901 1.55874 3 0.795609 3 0 
C 3 -0.795609 2.683901 -1.55874 2.12132 -2.12132 
C 1.55874 -2.683901 0.795609 -3 0 -3 
C -0.795609 -3 -1.55874 -2.683901 -2.12132 -2.12132 
C -2.683901 -1.55874 -3 -0.795609 -3 0 
C -3 0.795609 -2.683901 1.55874 -2.12132 2.12132 
C -1.55874 2.683901 -0.795609 3 0 3 
z
" style="stroke: #ffffff; stroke-width: 0.75"/>
    </defs>
    <g clip-path="url(#p9916b0ab15)">
     <use xlink:href="#m43a935c2cd" x="98.247727" y="596.745707" style="fill: #daa4ac; stroke: #ffffff; stroke-width: 0.75"/>
     <use xlink:href="#m43a935c2cd" x="172.934504" y="593.964283" style="fill: #daa4ac; stroke: #ffffff; stroke-width: 0.75"/>
     <use xlink:href="#m43a935c2cd" x="247.621281" y="556.367111" style="fill: #daa4ac; stroke: #ffffff; stroke-width: 0.75"/>
     <use xlink:href="#m43a935c2cd" x="322.308058" y="619.188917" style="fill: #daa4ac; stroke: #ffffff; stroke-width: 0.75"/>
     <use xlink:href="#m43a935c2cd" x="396.994835" y="624.46403" style="fill: #daa4ac; stroke: #ffffff; stroke-width: 0.75"/>
     <use xlink:href="#m43a935c2cd" x="471.681612" y="631.657366" style="fill: #daa4ac; stroke: #ffffff; stroke-width: 0.75"/>
     <use xlink:href="#m43a935c2cd" x="546.368388" y="597.608907" style="fill: #daa4ac; stroke: #ffffff; stroke-width: 0.75"/>
     <use xlink:href="#m43a935c2cd" x="621.055165" y="530.662922" style="fill: #daa4ac; stroke: #ffffff; stroke-width: 0.75"/>
     <use xlink:href="#m43a935c2cd" x="695.741942" y="540.925416" style="fill: #daa4ac; stroke: #ffffff; stroke-width: 0.75"/>
     <use xlink:href="#m43a935c2cd" x="770.428719" y="510.233847" style="fill: #daa4ac; stroke: #ffffff; stroke-width: 0.75"/>
     <use xlink:href="#m43a935c2cd" x="845.115496" y="421.132386" style="fill: #daa4ac; stroke: #ffffff; stroke-width: 0.75"/>
     <use xlink:href="#m43a935c2cd" x="919.802273" y="278.896146" style="fill: #daa4ac; stroke: #ffffff; stroke-width: 0.75"/>
    </g>
   </g>
   <g id="line2d_43">
    <path d="M 98.247727 596.745707 
L 172.934504 613.434247 
L 247.621281 553.393866 
L 322.308058 579.481699 
L 396.994835 600.773975 
L 471.681612 616.407493 
L 546.368388 597.896641 
L 621.055165 448.08342 
L 695.741942 582.359034 
L 770.428719 510.905225 
L 845.115496 341.238395 
L 919.802273 245.231331 
" clip-path="url(#p9916b0ab15)" style="fill: none; stroke: #d295a5; stroke-width: 1.5; stroke-linecap: square"/>
    <defs>
     <path id="m71b90f4848" d="M 0 3 
C 0.795609 3 1.55874 2.683901 2.12132 2.12132 
C 2.683901 1.55874 3 0.795609 3 0 
C 3 -0.795609 2.683901 -1.55874 2.12132 -2.12132 
C 1.55874 -2.683901 0.795609 -3 0 -3 
C -0.795609 -3 -1.55874 -2.683901 -2.12132 -2.12132 
C -2.683901 -1.55874 -3 -0.795609 -3 0 
C -3 0.795609 -2.683901 1.55874 -2.12132 2.12132 
C -1.55874 2.683901 -0.795609 3 0 3 
z
" style="stroke: #ffffff; stroke-width: 0.75"/>
    </defs>
    <g clip-path="url(#p9916b0ab15)">
     <use xlink:href="#m71b90f4848" x="98.247727" y="596.745707" style="fill: #d295a5; stroke: #ffffff; stroke-width: 0.75"/>
     <use xlink:href="#m71b90f4848" x="172.934504" y="613.434247" style="fill: #d295a5; stroke: #ffffff; stroke-width: 0.75"/>
     <use xlink:href="#m71b90f4848" x="247.621281" y="553.393866" style="fill: #d295a5; stroke: #ffffff; stroke-width: 0.75"/>
     <use xlink:href="#m71b90f4848" x="322.308058" y="579.481699" style="fill: #d295a5; stroke: #ffffff; stroke-width: 0.75"/>
     <use xlink:href="#m71b90f4848" x="396.994835" y="600.773975" style="fill: #d295a5; stroke: #ffffff; stroke-width: 0.75"/>
     <use xlink:href="#m71b90f4848" x="471.681612" y="616.407493" style="fill: #d295a5; stroke: #ffffff; stroke-width: 0.75"/>
     <use xlink:href="#m71b90f4848" x="546.368388" y="597.896641" style="fill: #d295a5; stroke: #ffffff; stroke-width: 0.75"/>
     <use xlink:href="#m71b90f4848" x="621.055165" y="448.08342" style="fill: #d295a5; stroke: #ffffff; stroke-width: 0.75"/>
     <use xlink:href="#m71b90f4848" x="695.741942" y="582.359034" style="fill: #d295a5; stroke: #ffffff; stroke-width: 0.75"/>
     <use xlink:href="#m71b90f4848" x="770.428719" y="510.905225" style="fill: #d295a5; stroke: #ffffff; stroke-width: 0.75"/>
     <use xlink:href="#m71b90f4848" x="845.115496" y="341.238395" style="fill: #d295a5; stroke: #ffffff; stroke-width: 0.75"/>
     <use xlink:href="#m71b90f4848" x="919.802273" y="245.231331" style="fill: #d295a5; stroke: #ffffff; stroke-width: 0.75"/>
    </g>
   </g>
   <g id="line2d_44">
    <path d="M 98.247727 581.2081 
L 172.934504 589.744193 
L 247.621281 574.014763 
L 322.308058 598.66393 
L 396.994835 569.219206 
L 471.681612 618.805272 
L 546.368388 593.292905 
L 621.055165 510.137936 
L 695.741942 581.2081 
L 770.428719 393.605885 
L 845.115496 330.208613 
L 919.802273 229.885546 
" clip-path="url(#p9916b0ab15)" style="fill: none; stroke: #c8879e; stroke-width: 1.5; stroke-linecap: square"/>
    <defs>
     <path id="m0b0db64d1e" d="M 0 3 
C 0.795609 3 1.55874 2.683901 2.12132 2.12132 
C 2.683901 1.55874 3 0.795609 3 0 
C 3 -0.795609 2.683901 -1.55874 2.12132 -2.12132 
C 1.55874 -2.683901 0.795609 -3 0 -3 
C -0.795609 -3 -1.55874 -2.683901 -2.12132 -2.12132 
C -2.683901 -1.55874 -3 -0.795609 -3 0 
C -3 0.795609 -2.683901 1.55874 -2.12132 2.12132 
C -1.55874 2.683901 -0.795609 3 0 3 
z
" style="stroke: #ffffff; stroke-width: 0.75"/>
    </defs>
    <g clip-path="url(#p9916b0ab15)">
     <use xlink:href="#m0b0db64d1e" x="98.247727" y="581.2081" style="fill: #c8879e; stroke: #ffffff; stroke-width: 0.75"/>
     <use xlink:href="#m0b0db64d1e" x="172.934504" y="589.744193" style="fill: #c8879e; stroke: #ffffff; stroke-width: 0.75"/>
     <use xlink:href="#m0b0db64d1e" x="247.621281" y="574.014763" style="fill: #c8879e; stroke: #ffffff; stroke-width: 0.75"/>
     <use xlink:href="#m0b0db64d1e" x="322.308058" y="598.66393" style="fill: #c8879e; stroke: #ffffff; stroke-width: 0.75"/>
     <use xlink:href="#m0b0db64d1e" x="396.994835" y="569.219206" style="fill: #c8879e; stroke: #ffffff; stroke-width: 0.75"/>
     <use xlink:href="#m0b0db64d1e" x="471.681612" y="618.805272" style="fill: #c8879e; stroke: #ffffff; stroke-width: 0.75"/>
     <use xlink:href="#m0b0db64d1e" x="546.368388" y="593.292905" style="fill: #c8879e; stroke: #ffffff; stroke-width: 0.75"/>
     <use xlink:href="#m0b0db64d1e" x="621.055165" y="510.137936" style="fill: #c8879e; stroke: #ffffff; stroke-width: 0.75"/>
     <use xlink:href="#m0b0db64d1e" x="695.741942" y="581.2081" style="fill: #c8879e; stroke: #ffffff; stroke-width: 0.75"/>
     <use xlink:href="#m0b0db64d1e" x="770.428719" y="393.605885" style="fill: #c8879e; stroke: #ffffff; stroke-width: 0.75"/>
     <use xlink:href="#m0b0db64d1e" x="845.115496" y="330.208613" style="fill: #c8879e; stroke: #ffffff; stroke-width: 0.75"/>
     <use xlink:href="#m0b0db64d1e" x="919.802273" y="229.885546" style="fill: #c8879e; stroke: #ffffff; stroke-width: 0.75"/>
    </g>
   </g>
   <g id="line2d_45">
    <path d="M 98.247727 597.03344 
L 172.934504 604.994066 
L 247.621281 599.814864 
L 322.308058 597.129351 
L 396.994835 581.783567 
L 471.681612 616.503404 
L 546.368388 503.232333 
L 621.055165 432.833546 
L 695.741942 601.253531 
L 770.428719 525.771453 
L 845.115496 368.668985 
L 919.802273 186.05415 
" clip-path="url(#p9916b0ab15)" style="fill: none; stroke: #bd7a98; stroke-width: 1.5; stroke-linecap: square"/>
    <defs>
     <path id="mb7734ee6be" d="M 0 3 
C 0.795609 3 1.55874 2.683901 2.12132 2.12132 
C 2.683901 1.55874 3 0.795609 3 0 
C 3 -0.795609 2.683901 -1.55874 2.12132 -2.12132 
C 1.55874 -2.683901 0.795609 -3 0 -3 
C -0.795609 -3 -1.55874 -2.683901 -2.12132 -2.12132 
C -2.683901 -1.55874 -3 -0.795609 -3 0 
C -3 0.795609 -2.683901 1.55874 -2.12132 2.12132 
C -1.55874 2.683901 -0.795609 3 0 3 
z
" style="stroke: #ffffff; stroke-width: 0.75"/>
    </defs>
    <g clip-path="url(#p9916b0ab15)">
     <use xlink:href="#mb7734ee6be" x="98.247727" y="597.03344" style="fill: #bd7a98; stroke: #ffffff; stroke-width: 0.75"/>
     <use xlink:href="#mb7734ee6be" x="172.934504" y="604.994066" style="fill: #bd7a98; stroke: #ffffff; stroke-width: 0.75"/>
     <use xlink:href="#mb7734ee6be" x="247.621281" y="599.814864" style="fill: #bd7a98; stroke: #ffffff; stroke-width: 0.75"/>
     <use xlink:href="#mb7734ee6be" x="322.308058" y="597.129351" style="fill: #bd7a98; stroke: #ffffff; stroke-width: 0.75"/>
     <use xlink:href="#mb7734ee6be" x="396.994835" y="581.783567" style="fill: #bd7a98; stroke: #ffffff; stroke-width: 0.75"/>
     <use xlink:href="#mb7734ee6be" x="471.681612" y="616.503404" style="fill: #bd7a98; stroke: #ffffff; stroke-width: 0.75"/>
     <use xlink:href="#mb7734ee6be" x="546.368388" y="503.232333" style="fill: #bd7a98; stroke: #ffffff; stroke-width: 0.75"/>
     <use xlink:href="#mb7734ee6be" x="621.055165" y="432.833546" style="fill: #bd7a98; stroke: #ffffff; stroke-width: 0.75"/>
     <use xlink:href="#mb7734ee6be" x="695.741942" y="601.253531" style="fill: #bd7a98; stroke: #ffffff; stroke-width: 0.75"/>
     <use xlink:href="#mb7734ee6be" x="770.428719" y="525.771453" style="fill: #bd7a98; stroke: #ffffff; stroke-width: 0.75"/>
     <use xlink:href="#mb7734ee6be" x="845.115496" y="368.668985" style="fill: #bd7a98; stroke: #ffffff; stroke-width: 0.75"/>
     <use xlink:href="#mb7734ee6be" x="919.802273" y="186.05415" style="fill: #bd7a98; stroke: #ffffff; stroke-width: 0.75"/>
    </g>
   </g>
   <g id="line2d_46">
    <path d="M 98.247727 617.84616 
L 172.934504 612.762869 
L 247.621281 602.596287 
L 322.308058 565.478671 
L 396.994835 605.473622 
L 471.681612 631.177811 
L 546.368388 573.918852 
L 621.055165 565.958227 
L 695.741942 498.05313 
L 770.428719 452.399421 
L 845.115496 328.578123 
L 919.802273 56.478182 
" clip-path="url(#p9916b0ab15)" style="fill: none; stroke: #b06d92; stroke-width: 1.5; stroke-linecap: square"/>
    <defs>
     <path id="m220644411f" d="M 0 3 
C 0.795609 3 1.55874 2.683901 2.12132 2.12132 
C 2.683901 1.55874 3 0.795609 3 0 
C 3 -0.795609 2.683901 -1.55874 2.12132 -2.12132 
C 1.55874 -2.683901 0.795609 -3 0 -3 
C -0.795609 -3 -1.55874 -2.683901 -2.12132 -2.12132 
C -2.683901 -1.55874 -3 -0.795609 -3 0 
C -3 0.795609 -2.683901 1.55874 -2.12132 2.12132 
C -1.55874 2.683901 -0.795609 3 0 3 
z
" style="stroke: #ffffff; stroke-width: 0.75"/>
    </defs>
    <g clip-path="url(#p9916b0ab15)">
     <use xlink:href="#m220644411f" x="98.247727" y="617.84616" style="fill: #b06d92; stroke: #ffffff; stroke-width: 0.75"/>
     <use xlink:href="#m220644411f" x="172.934504" y="612.762869" style="fill: #b06d92; stroke: #ffffff; stroke-width: 0.75"/>
     <use xlink:href="#m220644411f" x="247.621281" y="602.596287" style="fill: #b06d92; stroke: #ffffff; stroke-width: 0.75"/>
     <use xlink:href="#m220644411f" x="322.308058" y="565.478671" style="fill: #b06d92; stroke: #ffffff; stroke-width: 0.75"/>
     <use xlink:href="#m220644411f" x="396.994835" y="605.473622" style="fill: #b06d92; stroke: #ffffff; stroke-width: 0.75"/>
     <use xlink:href="#m220644411f" x="471.681612" y="631.177811" style="fill: #b06d92; stroke: #ffffff; stroke-width: 0.75"/>
     <use xlink:href="#m220644411f" x="546.368388" y="573.918852" style="fill: #b06d92; stroke: #ffffff; stroke-width: 0.75"/>
     <use xlink:href="#m220644411f" x="621.055165" y="565.958227" style="fill: #b06d92; stroke: #ffffff; stroke-width: 0.75"/>
     <use xlink:href="#m220644411f" x="695.741942" y="498.05313" style="fill: #b06d92; stroke: #ffffff; stroke-width: 0.75"/>
     <use xlink:href="#m220644411f" x="770.428719" y="452.399421" style="fill: #b06d92; stroke: #ffffff; stroke-width: 0.75"/>
     <use xlink:href="#m220644411f" x="845.115496" y="328.578123" style="fill: #b06d92; stroke: #ffffff; stroke-width: 0.75"/>
     <use xlink:href="#m220644411f" x="919.802273" y="56.478182" style="fill: #b06d92; stroke: #ffffff; stroke-width: 0.75"/>
    </g>
   </g>
   <g id="line2d_47">
    <path d="M 98.247727 573.343385 
L 172.934504 580.440811 
L 247.621281 548.886041 
L 322.308058 527.018298 
L 396.994835 585.33228 
L 471.681612 591.758327 
L 546.368388 537.184881 
L 621.055165 593.292905 
L 695.741942 518.86585 
L 770.428719 392.35904 
L 845.115496 272.661921 
L 919.802273 102.995091 
" clip-path="url(#p9916b0ab15)" style="fill: none; stroke: #a3628c; stroke-width: 1.5; stroke-linecap: square"/>
    <defs>
     <path id="mdc70b43516" d="M 0 3 
C 0.795609 3 1.55874 2.683901 2.12132 2.12132 
C 2.683901 1.55874 3 0.795609 3 0 
C 3 -0.795609 2.683901 -1.55874 2.12132 -2.12132 
C 1.55874 -2.683901 0.795609 -3 0 -3 
C -0.795609 -3 -1.55874 -2.683901 -2.12132 -2.12132 
C -2.683901 -1.55874 -3 -0.795609 -3 0 
C -3 0.795609 -2.683901 1.55874 -2.12132 2.12132 
C -1.55874 2.683901 -0.795609 3 0 3 
z
" style="stroke: #ffffff; stroke-width: 0.75"/>
    </defs>
    <g clip-path="url(#p9916b0ab15)">
     <use xlink:href="#mdc70b43516" x="98.247727" y="573.343385" style="fill: #a3628c; stroke: #ffffff; stroke-width: 0.75"/>
     <use xlink:href="#mdc70b43516" x="172.934504" y="580.440811" style="fill: #a3628c; stroke: #ffffff; stroke-width: 0.75"/>
     <use xlink:href="#mdc70b43516" x="247.621281" y="548.886041" style="fill: #a3628c; stroke: #ffffff; stroke-width: 0.75"/>
     <use xlink:href="#mdc70b43516" x="322.308058" y="527.018298" style="fill: #a3628c; stroke: #ffffff; stroke-width: 0.75"/>
     <use xlink:href="#mdc70b43516" x="396.994835" y="585.33228" style="fill: #a3628c; stroke: #ffffff; stroke-width: 0.75"/>
     <use xlink:href="#mdc70b43516" x="471.681612" y="591.758327" style="fill: #a3628c; stroke: #ffffff; stroke-width: 0.75"/>
     <use xlink:href="#mdc70b43516" x="546.368388" y="537.184881" style="fill: #a3628c; stroke: #ffffff; stroke-width: 0.75"/>
     <use xlink:href="#mdc70b43516" x="621.055165" y="593.292905" style="fill: #a3628c; stroke: #ffffff; stroke-width: 0.75"/>
     <use xlink:href="#mdc70b43516" x="695.741942" y="518.86585" style="fill: #a3628c; stroke: #ffffff; stroke-width: 0.75"/>
     <use xlink:href="#mdc70b43516" x="770.428719" y="392.35904" style="fill: #a3628c; stroke: #ffffff; stroke-width: 0.75"/>
     <use xlink:href="#mdc70b43516" x="845.115496" y="272.661921" style="fill: #a3628c; stroke: #ffffff; stroke-width: 0.75"/>
     <use xlink:href="#mdc70b43516" x="919.802273" y="102.995091" style="fill: #a3628c; stroke: #ffffff; stroke-width: 0.75"/>
    </g>
   </g>
   <g id="line2d_48">
    <path d="M 98.247727 582.550856 
L 172.934504 617.366605 
L 247.621281 560.970847 
L 322.308058 592.813349 
L 396.994835 592.429705 
L 471.681612 616.215671 
L 546.368388 562.025869 
L 621.055165 562.313603 
L 695.741942 500.930465 
L 770.428719 382.288369 
L 845.115496 318.123807 
L 919.802273 109.037494 
" clip-path="url(#p9916b0ab15)" style="fill: none; stroke: #945785; stroke-width: 1.5; stroke-linecap: square"/>
    <defs>
     <path id="m0f790dec27" d="M 0 3 
C 0.795609 3 1.55874 2.683901 2.12132 2.12132 
C 2.683901 1.55874 3 0.795609 3 0 
C 3 -0.795609 2.683901 -1.55874 2.12132 -2.12132 
C 1.55874 -2.683901 0.795609 -3 0 -3 
C -0.795609 -3 -1.55874 -2.683901 -2.12132 -2.12132 
C -2.683901 -1.55874 -3 -0.795609 -3 0 
C -3 0.795609 -2.683901 1.55874 -2.12132 2.12132 
C -1.55874 2.683901 -0.795609 3 0 3 
z
" style="stroke: #ffffff; stroke-width: 0.75"/>
    </defs>
    <g clip-path="url(#p9916b0ab15)">
     <use xlink:href="#m0f790dec27" x="98.247727" y="582.550856" style="fill: #945785; stroke: #ffffff; stroke-width: 0.75"/>
     <use xlink:href="#m0f790dec27" x="172.934504" y="617.366605" style="fill: #945785; stroke: #ffffff; stroke-width: 0.75"/>
     <use xlink:href="#m0f790dec27" x="247.621281" y="560.970847" style="fill: #945785; stroke: #ffffff; stroke-width: 0.75"/>
     <use xlink:href="#m0f790dec27" x="322.308058" y="592.813349" style="fill: #945785; stroke: #ffffff; stroke-width: 0.75"/>
     <use xlink:href="#m0f790dec27" x="396.994835" y="592.429705" style="fill: #945785; stroke: #ffffff; stroke-width: 0.75"/>
     <use xlink:href="#m0f790dec27" x="471.681612" y="616.215671" style="fill: #945785; stroke: #ffffff; stroke-width: 0.75"/>
     <use xlink:href="#m0f790dec27" x="546.368388" y="562.025869" style="fill: #945785; stroke: #ffffff; stroke-width: 0.75"/>
     <use xlink:href="#m0f790dec27" x="621.055165" y="562.313603" style="fill: #945785; stroke: #ffffff; stroke-width: 0.75"/>
     <use xlink:href="#m0f790dec27" x="695.741942" y="500.930465" style="fill: #945785; stroke: #ffffff; stroke-width: 0.75"/>
     <use xlink:href="#m0f790dec27" x="770.428719" y="382.288369" style="fill: #945785; stroke: #ffffff; stroke-width: 0.75"/>
     <use xlink:href="#m0f790dec27" x="845.115496" y="318.123807" style="fill: #945785; stroke: #ffffff; stroke-width: 0.75"/>
     <use xlink:href="#m0f790dec27" x="919.802273" y="109.037494" style="fill: #945785; stroke: #ffffff; stroke-width: 0.75"/>
    </g>
   </g>
   <g id="line2d_49">
    <path d="M 98.247727 586.099569 
L 172.934504 624.368119 
L 247.621281 572.767918 
L 322.308058 594.923395 
L 396.994835 596.17024 
L 471.681612 611.324202 
L 546.368388 568.931472 
L 621.055165 597.129351 
L 695.741942 518.578117 
L 770.428719 452.207599 
L 845.115496 339.99155 
L 919.802273 171.09201 
" clip-path="url(#p9916b0ab15)" style="fill: none; stroke: #834c7d; stroke-width: 1.5; stroke-linecap: square"/>
    <defs>
     <path id="me9a540d9a6" d="M 0 3 
C 0.795609 3 1.55874 2.683901 2.12132 2.12132 
C 2.683901 1.55874 3 0.795609 3 0 
C 3 -0.795609 2.683901 -1.55874 2.12132 -2.12132 
C 1.55874 -2.683901 0.795609 -3 0 -3 
C -0.795609 -3 -1.55874 -2.683901 -2.12132 -2.12132 
C -2.683901 -1.55874 -3 -0.795609 -3 0 
C -3 0.795609 -2.683901 1.55874 -2.12132 2.12132 
C -1.55874 2.683901 -0.795609 3 0 3 
z
" style="stroke: #ffffff; stroke-width: 0.75"/>
    </defs>
    <g clip-path="url(#p9916b0ab15)">
     <use xlink:href="#me9a540d9a6" x="98.247727" y="586.099569" style="fill: #834c7d; stroke: #ffffff; stroke-width: 0.75"/>
     <use xlink:href="#me9a540d9a6" x="172.934504" y="624.368119" style="fill: #834c7d; stroke: #ffffff; stroke-width: 0.75"/>
     <use xlink:href="#me9a540d9a6" x="247.621281" y="572.767918" style="fill: #834c7d; stroke: #ffffff; stroke-width: 0.75"/>
     <use xlink:href="#me9a540d9a6" x="322.308058" y="594.923395" style="fill: #834c7d; stroke: #ffffff; stroke-width: 0.75"/>
     <use xlink:href="#me9a540d9a6" x="396.994835" y="596.17024" style="fill: #834c7d; stroke: #ffffff; stroke-width: 0.75"/>
     <use xlink:href="#me9a540d9a6" x="471.681612" y="611.324202" style="fill: #834c7d; stroke: #ffffff; stroke-width: 0.75"/>
     <use xlink:href="#me9a540d9a6" x="546.368388" y="568.931472" style="fill: #834c7d; stroke: #ffffff; stroke-width: 0.75"/>
     <use xlink:href="#me9a540d9a6" x="621.055165" y="597.129351" style="fill: #834c7d; stroke: #ffffff; stroke-width: 0.75"/>
     <use xlink:href="#me9a540d9a6" x="695.741942" y="518.578117" style="fill: #834c7d; stroke: #ffffff; stroke-width: 0.75"/>
     <use xlink:href="#me9a540d9a6" x="770.428719" y="452.207599" style="fill: #834c7d; stroke: #ffffff; stroke-width: 0.75"/>
     <use xlink:href="#me9a540d9a6" x="845.115496" y="339.99155" style="fill: #834c7d; stroke: #ffffff; stroke-width: 0.75"/>
     <use xlink:href="#me9a540d9a6" x="919.802273" y="171.09201" style="fill: #834c7d; stroke: #ffffff; stroke-width: 0.75"/>
    </g>
   </g>
   <g id="line2d_50">
    <path d="M 98.247727 568.643739 
L 172.934504 554.544799 
L 247.621281 571.329251 
L 322.308058 628.396387 
L 396.994835 613.721981 
L 471.681612 603.363576 
L 546.368388 538.719459 
L 621.055165 572.959741 
L 695.741942 520.112695 
L 770.428719 439.163682 
L 845.115496 403.197 
L 919.802273 160.925427 
" clip-path="url(#p9916b0ab15)" style="fill: none; stroke: #724274; stroke-width: 1.5; stroke-linecap: square"/>
    <defs>
     <path id="ma5bac4b5d9" d="M 0 3 
C 0.795609 3 1.55874 2.683901 2.12132 2.12132 
C 2.683901 1.55874 3 0.795609 3 0 
C 3 -0.795609 2.683901 -1.55874 2.12132 -2.12132 
C 1.55874 -2.683901 0.795609 -3 0 -3 
C -0.795609 -3 -1.55874 -2.683901 -2.12132 -2.12132 
C -2.683901 -1.55874 -3 -0.795609 -3 0 
C -3 0.795609 -2.683901 1.55874 -2.12132 2.12132 
C -1.55874 2.683901 -0.795609 3 0 3 
z
" style="stroke: #ffffff; stroke-width: 0.75"/>
    </defs>
    <g clip-path="url(#p9916b0ab15)">
     <use xlink:href="#ma5bac4b5d9" x="98.247727" y="568.643739" style="fill: #724274; stroke: #ffffff; stroke-width: 0.75"/>
     <use xlink:href="#ma5bac4b5d9" x="172.934504" y="554.544799" style="fill: #724274; stroke: #ffffff; stroke-width: 0.75"/>
     <use xlink:href="#ma5bac4b5d9" x="247.621281" y="571.329251" style="fill: #724274; stroke: #ffffff; stroke-width: 0.75"/>
     <use xlink:href="#ma5bac4b5d9" x="322.308058" y="628.396387" style="fill: #724274; stroke: #ffffff; stroke-width: 0.75"/>
     <use xlink:href="#ma5bac4b5d9" x="396.994835" y="613.721981" style="fill: #724274; stroke: #ffffff; stroke-width: 0.75"/>
     <use xlink:href="#ma5bac4b5d9" x="471.681612" y="603.363576" style="fill: #724274; stroke: #ffffff; stroke-width: 0.75"/>
     <use xlink:href="#ma5bac4b5d9" x="546.368388" y="538.719459" style="fill: #724274; stroke: #ffffff; stroke-width: 0.75"/>
     <use xlink:href="#ma5bac4b5d9" x="621.055165" y="572.959741" style="fill: #724274; stroke: #ffffff; stroke-width: 0.75"/>
     <use xlink:href="#ma5bac4b5d9" x="695.741942" y="520.112695" style="fill: #724274; stroke: #ffffff; stroke-width: 0.75"/>
     <use xlink:href="#ma5bac4b5d9" x="770.428719" y="439.163682" style="fill: #724274; stroke: #ffffff; stroke-width: 0.75"/>
     <use xlink:href="#ma5bac4b5d9" x="845.115496" y="403.197" style="fill: #724274; stroke: #ffffff; stroke-width: 0.75"/>
     <use xlink:href="#ma5bac4b5d9" x="919.802273" y="160.925427" style="fill: #724274; stroke: #ffffff; stroke-width: 0.75"/>
    </g>
   </g>
   <g id="line2d_51">
    <path d="M 98.247727 599.814864 
L 172.934504 591.18286 
L 247.621281 559.915824 
L 322.308058 559.532179 
L 396.994835 580.057166 
L 471.681612 595.211128 
L 546.368388 551.955198 
L 621.055165 581.016278 
L 695.741942 523.085941 
L 770.428719 454.893111 
L 845.115496 358.214669 
L 919.802273 164.186407 
" clip-path="url(#p9916b0ab15)" style="fill: none; stroke: #613969; stroke-width: 1.5; stroke-linecap: square"/>
    <defs>
     <path id="m8c00397534" d="M 0 3 
C 0.795609 3 1.55874 2.683901 2.12132 2.12132 
C 2.683901 1.55874 3 0.795609 3 0 
C 3 -0.795609 2.683901 -1.55874 2.12132 -2.12132 
C 1.55874 -2.683901 0.795609 -3 0 -3 
C -0.795609 -3 -1.55874 -2.683901 -2.12132 -2.12132 
C -2.683901 -1.55874 -3 -0.795609 -3 0 
C -3 0.795609 -2.683901 1.55874 -2.12132 2.12132 
C -1.55874 2.683901 -0.795609 3 0 3 
z
" style="stroke: #ffffff; stroke-width: 0.75"/>
    </defs>
    <g clip-path="url(#p9916b0ab15)">
     <use xlink:href="#m8c00397534" x="98.247727" y="599.814864" style="fill: #613969; stroke: #ffffff; stroke-width: 0.75"/>
     <use xlink:href="#m8c00397534" x="172.934504" y="591.18286" style="fill: #613969; stroke: #ffffff; stroke-width: 0.75"/>
     <use xlink:href="#m8c00397534" x="247.621281" y="559.915824" style="fill: #613969; stroke: #ffffff; stroke-width: 0.75"/>
     <use xlink:href="#m8c00397534" x="322.308058" y="559.532179" style="fill: #613969; stroke: #ffffff; stroke-width: 0.75"/>
     <use xlink:href="#m8c00397534" x="396.994835" y="580.057166" style="fill: #613969; stroke: #ffffff; stroke-width: 0.75"/>
     <use xlink:href="#m8c00397534" x="471.681612" y="595.211128" style="fill: #613969; stroke: #ffffff; stroke-width: 0.75"/>
     <use xlink:href="#m8c00397534" x="546.368388" y="551.955198" style="fill: #613969; stroke: #ffffff; stroke-width: 0.75"/>
     <use xlink:href="#m8c00397534" x="621.055165" y="581.016278" style="fill: #613969; stroke: #ffffff; stroke-width: 0.75"/>
     <use xlink:href="#m8c00397534" x="695.741942" y="523.085941" style="fill: #613969; stroke: #ffffff; stroke-width: 0.75"/>
     <use xlink:href="#m8c00397534" x="770.428719" y="454.893111" style="fill: #613969; stroke: #ffffff; stroke-width: 0.75"/>
     <use xlink:href="#m8c00397534" x="845.115496" y="358.214669" style="fill: #613969; stroke: #ffffff; stroke-width: 0.75"/>
     <use xlink:href="#m8c00397534" x="919.802273" y="164.186407" style="fill: #613969; stroke: #ffffff; stroke-width: 0.75"/>
    </g>
   </g>
   <g id="line2d_52">
    <path d="M 98.247727 607.775489 
L 172.934504 601.061709 
L 247.621281 569.027383 
L 322.308058 547.639196 
L 396.994835 575.453431 
L 471.681612 605.761355 
L 546.368388 554.640711 
L 621.055165 482.995079 
L 695.741942 583.318145 
L 770.428719 430.819412 
L 845.115496 345.650308 
L 919.802273 136.276261 
" clip-path="url(#p9916b0ab15)" style="fill: none; stroke: #4f305c; stroke-width: 1.5; stroke-linecap: square"/>
    <defs>
     <path id="m5679789947" d="M 0 3 
C 0.795609 3 1.55874 2.683901 2.12132 2.12132 
C 2.683901 1.55874 3 0.795609 3 0 
C 3 -0.795609 2.683901 -1.55874 2.12132 -2.12132 
C 1.55874 -2.683901 0.795609 -3 0 -3 
C -0.795609 -3 -1.55874 -2.683901 -2.12132 -2.12132 
C -2.683901 -1.55874 -3 -0.795609 -3 0 
C -3 0.795609 -2.683901 1.55874 -2.12132 2.12132 
C -1.55874 2.683901 -0.795609 3 0 3 
z
" style="stroke: #ffffff; stroke-width: 0.75"/>
    </defs>
    <g clip-path="url(#p9916b0ab15)">
     <use xlink:href="#m5679789947" x="98.247727" y="607.775489" style="fill: #4f305c; stroke: #ffffff; stroke-width: 0.75"/>
     <use xlink:href="#m5679789947" x="172.934504" y="601.061709" style="fill: #4f305c; stroke: #ffffff; stroke-width: 0.75"/>
     <use xlink:href="#m5679789947" x="247.621281" y="569.027383" style="fill: #4f305c; stroke: #ffffff; stroke-width: 0.75"/>
     <use xlink:href="#m5679789947" x="322.308058" y="547.639196" style="fill: #4f305c; stroke: #ffffff; stroke-width: 0.75"/>
     <use xlink:href="#m5679789947" x="396.994835" y="575.453431" style="fill: #4f305c; stroke: #ffffff; stroke-width: 0.75"/>
     <use xlink:href="#m5679789947" x="471.681612" y="605.761355" style="fill: #4f305c; stroke: #ffffff; stroke-width: 0.75"/>
     <use xlink:href="#m5679789947" x="546.368388" y="554.640711" style="fill: #4f305c; stroke: #ffffff; stroke-width: 0.75"/>
     <use xlink:href="#m5679789947" x="621.055165" y="482.995079" style="fill: #4f305c; stroke: #ffffff; stroke-width: 0.75"/>
     <use xlink:href="#m5679789947" x="695.741942" y="583.318145" style="fill: #4f305c; stroke: #ffffff; stroke-width: 0.75"/>
     <use xlink:href="#m5679789947" x="770.428719" y="430.819412" style="fill: #4f305c; stroke: #ffffff; stroke-width: 0.75"/>
     <use xlink:href="#m5679789947" x="845.115496" y="345.650308" style="fill: #4f305c; stroke: #ffffff; stroke-width: 0.75"/>
     <use xlink:href="#m5679789947" x="919.802273" y="136.276261" style="fill: #4f305c; stroke: #ffffff; stroke-width: 0.75"/>
    </g>
   </g>
   <g id="line2d_53">
    <path d="M 98.247727 636.261102 
L 172.934504 562.313603 
L 247.621281 586.099569 
L 322.308058 585.620013 
L 396.994835 590.511482 
L 471.681612 588.68917 
L 546.368388 556.2712 
L 621.055165 607.679578 
L 695.741942 466.40245 
L 770.428719 426.407499 
L 845.115496 393.414062 
L 919.802273 175.695745 
" clip-path="url(#p9916b0ab15)" style="fill: none; stroke: #3d274e; stroke-width: 1.5; stroke-linecap: square"/>
    <defs>
     <path id="mac4eb104a2" d="M 0 3 
C 0.795609 3 1.55874 2.683901 2.12132 2.12132 
C 2.683901 1.55874 3 0.795609 3 0 
C 3 -0.795609 2.683901 -1.55874 2.12132 -2.12132 
C 1.55874 -2.683901 0.795609 -3 0 -3 
C -0.795609 -3 -1.55874 -2.683901 -2.12132 -2.12132 
C -2.683901 -1.55874 -3 -0.795609 -3 0 
C -3 0.795609 -2.683901 1.55874 -2.12132 2.12132 
C -1.55874 2.683901 -0.795609 3 0 3 
z
" style="stroke: #ffffff; stroke-width: 0.75"/>
    </defs>
    <g clip-path="url(#p9916b0ab15)">
     <use xlink:href="#mac4eb104a2" x="98.247727" y="636.261102" style="fill: #3d274e; stroke: #ffffff; stroke-width: 0.75"/>
     <use xlink:href="#mac4eb104a2" x="172.934504" y="562.313603" style="fill: #3d274e; stroke: #ffffff; stroke-width: 0.75"/>
     <use xlink:href="#mac4eb104a2" x="247.621281" y="586.099569" style="fill: #3d274e; stroke: #ffffff; stroke-width: 0.75"/>
     <use xlink:href="#mac4eb104a2" x="322.308058" y="585.620013" style="fill: #3d274e; stroke: #ffffff; stroke-width: 0.75"/>
     <use xlink:href="#mac4eb104a2" x="396.994835" y="590.511482" style="fill: #3d274e; stroke: #ffffff; stroke-width: 0.75"/>
     <use xlink:href="#mac4eb104a2" x="471.681612" y="588.68917" style="fill: #3d274e; stroke: #ffffff; stroke-width: 0.75"/>
     <use xlink:href="#mac4eb104a2" x="546.368388" y="556.2712" style="fill: #3d274e; stroke: #ffffff; stroke-width: 0.75"/>
     <use xlink:href="#mac4eb104a2" x="621.055165" y="607.679578" style="fill: #3d274e; stroke: #ffffff; stroke-width: 0.75"/>
     <use xlink:href="#mac4eb104a2" x="695.741942" y="466.40245" style="fill: #3d274e; stroke: #ffffff; stroke-width: 0.75"/>
     <use xlink:href="#mac4eb104a2" x="770.428719" y="426.407499" style="fill: #3d274e; stroke: #ffffff; stroke-width: 0.75"/>
     <use xlink:href="#mac4eb104a2" x="845.115496" y="393.414062" style="fill: #3d274e; stroke: #ffffff; stroke-width: 0.75"/>
     <use xlink:href="#mac4eb104a2" x="919.802273" y="175.695745" style="fill: #3d274e; stroke: #ffffff; stroke-width: 0.75"/>
    </g>
   </g>
   <g id="line2d_54">
    <path d="M 98.247727 648.441818 
L 172.934504 616.599315 
L 247.621281 569.123295 
L 322.308058 572.480185 
L 396.994835 590.895126 
L 471.681612 589.168726 
L 546.368388 556.2712 
" clip-path="url(#p9916b0ab15)" style="fill: none; stroke: #2d1e3e; stroke-width: 1.5; stroke-linecap: square"/>
    <defs>
     <path id="mf72583d0f6" d="M 0 3 
C 0.795609 3 1.55874 2.683901 2.12132 2.12132 
C 2.683901 1.55874 3 0.795609 3 0 
C 3 -0.795609 2.683901 -1.55874 2.12132 -2.12132 
C 1.55874 -2.683901 0.795609 -3 0 -3 
C -0.795609 -3 -1.55874 -2.683901 -2.12132 -2.12132 
C -2.683901 -1.55874 -3 -0.795609 -3 0 
C -3 0.795609 -2.683901 1.55874 -2.12132 2.12132 
C -1.55874 2.683901 -0.795609 3 0 3 
z
" style="stroke: #ffffff; stroke-width: 0.75"/>
    </defs>
    <g clip-path="url(#p9916b0ab15)">
     <use xlink:href="#mf72583d0f6" x="98.247727" y="648.441818" style="fill: #2d1e3e; stroke: #ffffff; stroke-width: 0.75"/>
     <use xlink:href="#mf72583d0f6" x="172.934504" y="616.599315" style="fill: #2d1e3e; stroke: #ffffff; stroke-width: 0.75"/>
     <use xlink:href="#mf72583d0f6" x="247.621281" y="569.123295" style="fill: #2d1e3e; stroke: #ffffff; stroke-width: 0.75"/>
     <use xlink:href="#mf72583d0f6" x="322.308058" y="572.480185" style="fill: #2d1e3e; stroke: #ffffff; stroke-width: 0.75"/>
     <use xlink:href="#mf72583d0f6" x="396.994835" y="590.895126" style="fill: #2d1e3e; stroke: #ffffff; stroke-width: 0.75"/>
     <use xlink:href="#mf72583d0f6" x="471.681612" y="589.168726" style="fill: #2d1e3e; stroke: #ffffff; stroke-width: 0.75"/>
     <use xlink:href="#mf72583d0f6" x="546.368388" y="556.2712" style="fill: #2d1e3e; stroke: #ffffff; stroke-width: 0.75"/>
    </g>
   </g>
   <g id="line2d_55"/>
   <g id="line2d_56"/>
   <g id="line2d_57"/>
   <g id="line2d_58"/>
   <g id="line2d_59"/>
   <g id="line2d_60"/>
   <g id="line2d_61"/>
   <g id="patch_3">
    <path d="M 57.17 678.04 
L 57.17 26.88 
" style="fill: none; stroke: #000000; stroke-width: 0.8; stroke-linejoin: miter; stroke-linecap: square"/>
   </g>
   <g id="patch_4">
    <path d="M 960.88 678.04 
L 960.88 26.88 
" style="fill: none; stroke: #000000; stroke-width: 0.8; stroke-linejoin: miter; stroke-linecap: square"/>
   </g>
   <g id="patch_5">
    <path d="M 57.17 678.04 
L 960.88 678.04 
" style="fill: none; stroke: #000000; stroke-width: 0.8; stroke-linejoin: miter; stroke-linecap: square"/>
   </g>
   <g id="patch_6">
    <path d="M 57.17 26.88 
L 960.88 26.88 
" style="fill: none; stroke: #000000; stroke-width: 0.8; stroke-linejoin: miter; stroke-linecap: square"/>
   </g>
   <g id="text_22">
    <!-- Line Plot of Sparkling Counts by Month with Year as Hue -->
    <g transform="translate(340.827188 20.88) scale(0.12 -0.12)">
     <defs>
      <path id="DejaVuSans-4c" d="M 628 4666 
L 1259 4666 
L 1259 531 
L 3531 531 
L 3531 0 
L 628 0 
L 628 4666 
z
" transform="scale(0.015625)"/>
      <path id="DejaVuSans-65" d="M 3597 1894 
L 3597 1613 
L 953 1613 
Q 991 1019 1311 708 
Q 1631 397 2203 397 
Q 2534 397 2845 478 
Q 3156 559 3463 722 
L 3463 178 
Q 3153 47 2828 -22 
Q 2503 -91 2169 -91 
Q 1331 -91 842 396 
Q 353 884 353 1716 
Q 353 2575 817 3079 
Q 1281 3584 2069 3584 
Q 2775 3584 3186 3129 
Q 3597 2675 3597 1894 
z
M 3022 2063 
Q 3016 2534 2758 2815 
Q 2500 3097 2075 3097 
Q 1594 3097 1305 2825 
Q 1016 2553 972 2059 
L 3022 2063 
z
" transform="scale(0.015625)"/>
      <path id="DejaVuSans-50" d="M 1259 4147 
L 1259 2394 
L 2053 2394 
Q 2494 2394 2734 2622 
Q 2975 2850 2975 3272 
Q 2975 3691 2734 3919 
Q 2494 4147 2053 4147 
L 1259 4147 
z
M 628 4666 
L 2053 4666 
Q 2838 4666 3239 4311 
Q 3641 3956 3641 3272 
Q 3641 2581 3239 2228 
Q 2838 1875 2053 1875 
L 1259 1875 
L 1259 0 
L 628 0 
L 628 4666 
z
" transform="scale(0.015625)"/>
      <path id="DejaVuSans-66" d="M 2375 4863 
L 2375 4384 
L 1825 4384 
Q 1516 4384 1395 4259 
Q 1275 4134 1275 3809 
L 1275 3500 
L 2222 3500 
L 2222 3053 
L 1275 3053 
L 1275 0 
L 697 0 
L 697 3053 
L 147 3053 
L 147 3500 
L 697 3500 
L 697 3744 
Q 697 4328 969 4595 
Q 1241 4863 1831 4863 
L 2375 4863 
z
" transform="scale(0.015625)"/>
      <path id="DejaVuSans-73" d="M 2834 3397 
L 2834 2853 
Q 2591 2978 2328 3040 
Q 2066 3103 1784 3103 
Q 1356 3103 1142 2972 
Q 928 2841 928 2578 
Q 928 2378 1081 2264 
Q 1234 2150 1697 2047 
L 1894 2003 
Q 2506 1872 2764 1633 
Q 3022 1394 3022 966 
Q 3022 478 2636 193 
Q 2250 -91 1575 -91 
Q 1294 -91 989 -36 
Q 684 19 347 128 
L 347 722 
Q 666 556 975 473 
Q 1284 391 1588 391 
Q 1994 391 2212 530 
Q 2431 669 2431 922 
Q 2431 1156 2273 1281 
Q 2116 1406 1581 1522 
L 1381 1569 
Q 847 1681 609 1914 
Q 372 2147 372 2553 
Q 372 3047 722 3315 
Q 1072 3584 1716 3584 
Q 2034 3584 2315 3537 
Q 2597 3491 2834 3397 
z
" transform="scale(0.015625)"/>
      <path id="DejaVuSans-62" d="M 3116 1747 
Q 3116 2381 2855 2742 
Q 2594 3103 2138 3103 
Q 1681 3103 1420 2742 
Q 1159 2381 1159 1747 
Q 1159 1113 1420 752 
Q 1681 391 2138 391 
Q 2594 391 2855 752 
Q 3116 1113 3116 1747 
z
M 1159 2969 
Q 1341 3281 1617 3432 
Q 1894 3584 2278 3584 
Q 2916 3584 3314 3078 
Q 3713 2572 3713 1747 
Q 3713 922 3314 415 
Q 2916 -91 2278 -91 
Q 1894 -91 1617 61 
Q 1341 213 1159 525 
L 1159 0 
L 581 0 
L 581 4863 
L 1159 4863 
L 1159 2969 
z
" transform="scale(0.015625)"/>
      <path id="DejaVuSans-79" d="M 2059 -325 
Q 1816 -950 1584 -1140 
Q 1353 -1331 966 -1331 
L 506 -1331 
L 506 -850 
L 844 -850 
Q 1081 -850 1212 -737 
Q 1344 -625 1503 -206 
L 1606 56 
L 191 3500 
L 800 3500 
L 1894 763 
L 2988 3500 
L 3597 3500 
L 2059 -325 
z
" transform="scale(0.015625)"/>
      <path id="DejaVuSans-77" d="M 269 3500 
L 844 3500 
L 1563 769 
L 2278 3500 
L 2956 3500 
L 3675 769 
L 4391 3500 
L 4966 3500 
L 4050 0 
L 3372 0 
L 2619 2869 
L 1863 0 
L 1184 0 
L 269 3500 
z
" transform="scale(0.015625)"/>
      <path id="DejaVuSans-59" d="M -13 4666 
L 666 4666 
L 1959 2747 
L 3244 4666 
L 3922 4666 
L 2272 2222 
L 2272 0 
L 1638 0 
L 1638 2222 
L -13 4666 
z
" transform="scale(0.015625)"/>
      <path id="DejaVuSans-48" d="M 628 4666 
L 1259 4666 
L 1259 2753 
L 3553 2753 
L 3553 4666 
L 4184 4666 
L 4184 0 
L 3553 0 
L 3553 2222 
L 1259 2222 
L 1259 0 
L 628 0 
L 628 4666 
z
" transform="scale(0.015625)"/>
     </defs>
     <use xlink:href="#DejaVuSans-4c"/>
     <use xlink:href="#DejaVuSans-69" transform="translate(55.712891 0)"/>
     <use xlink:href="#DejaVuSans-6e" transform="translate(83.496094 0)"/>
     <use xlink:href="#DejaVuSans-65" transform="translate(146.875 0)"/>
     <use xlink:href="#DejaVuSans-20" transform="translate(208.398438 0)"/>
     <use xlink:href="#DejaVuSans-50" transform="translate(240.185547 0)"/>
     <use xlink:href="#DejaVuSans-6c" transform="translate(300.488281 0)"/>
     <use xlink:href="#DejaVuSans-6f" transform="translate(328.271484 0)"/>
     <use xlink:href="#DejaVuSans-74" transform="translate(389.453125 0)"/>
     <use xlink:href="#DejaVuSans-20" transform="translate(428.662109 0)"/>
     <use xlink:href="#DejaVuSans-6f" transform="translate(460.449219 0)"/>
     <use xlink:href="#DejaVuSans-66" transform="translate(521.630859 0)"/>
     <use xlink:href="#DejaVuSans-20" transform="translate(556.835938 0)"/>
     <use xlink:href="#DejaVuSans-53" transform="translate(588.623047 0)"/>
     <use xlink:href="#DejaVuSans-70" transform="translate(652.099609 0)"/>
     <use xlink:href="#DejaVuSans-61" transform="translate(715.576172 0)"/>
     <use xlink:href="#DejaVuSans-72" transform="translate(776.855469 0)"/>
     <use xlink:href="#DejaVuSans-6b" transform="translate(817.96875 0)"/>
     <use xlink:href="#DejaVuSans-6c" transform="translate(875.878906 0)"/>
     <use xlink:href="#DejaVuSans-69" transform="translate(903.662109 0)"/>
     <use xlink:href="#DejaVuSans-6e" transform="translate(931.445312 0)"/>
     <use xlink:href="#DejaVuSans-67" transform="translate(994.824219 0)"/>
     <use xlink:href="#DejaVuSans-20" transform="translate(1058.300781 0)"/>
     <use xlink:href="#DejaVuSans-43" transform="translate(1090.087891 0)"/>
     <use xlink:href="#DejaVuSans-6f" transform="translate(1159.912109 0)"/>
     <use xlink:href="#DejaVuSans-75" transform="translate(1221.09375 0)"/>
     <use xlink:href="#DejaVuSans-6e" transform="translate(1284.472656 0)"/>
     <use xlink:href="#DejaVuSans-74" transform="translate(1347.851562 0)"/>
     <use xlink:href="#DejaVuSans-73" transform="translate(1387.060547 0)"/>
     <use xlink:href="#DejaVuSans-20" transform="translate(1439.160156 0)"/>
     <use xlink:href="#DejaVuSans-62" transform="translate(1470.947266 0)"/>
     <use xlink:href="#DejaVuSans-79" transform="translate(1534.423828 0)"/>
     <use xlink:href="#DejaVuSans-20" transform="translate(1593.603516 0)"/>
     <use xlink:href="#DejaVuSans-4d" transform="translate(1625.390625 0)"/>
     <use xlink:href="#DejaVuSans-6f" transform="translate(1711.669922 0)"/>
     <use xlink:href="#DejaVuSans-6e" transform="translate(1772.851562 0)"/>
     <use xlink:href="#DejaVuSans-74" transform="translate(1836.230469 0)"/>
     <use xlink:href="#DejaVuSans-68" transform="translate(1875.439453 0)"/>
     <use xlink:href="#DejaVuSans-20" transform="translate(1938.818359 0)"/>
     <use xlink:href="#DejaVuSans-77" transform="translate(1970.605469 0)"/>
     <use xlink:href="#DejaVuSans-69" transform="translate(2052.392578 0)"/>
     <use xlink:href="#DejaVuSans-74" transform="translate(2080.175781 0)"/>
     <use xlink:href="#DejaVuSans-68" transform="translate(2119.384766 0)"/>
     <use xlink:href="#DejaVuSans-20" transform="translate(2182.763672 0)"/>
     <use xlink:href="#DejaVuSans-59" transform="translate(2214.550781 0)"/>
     <use xlink:href="#DejaVuSans-65" transform="translate(2262.384766 0)"/>
     <use xlink:href="#DejaVuSans-61" transform="translate(2323.908203 0)"/>
     <use xlink:href="#DejaVuSans-72" transform="translate(2385.1875 0)"/>
     <use xlink:href="#DejaVuSans-20" transform="translate(2426.300781 0)"/>
     <use xlink:href="#DejaVuSans-61" transform="translate(2458.087891 0)"/>
     <use xlink:href="#DejaVuSans-73" transform="translate(2519.367188 0)"/>
     <use xlink:href="#DejaVuSans-20" transform="translate(2571.466797 0)"/>
     <use xlink:href="#DejaVuSans-48" transform="translate(2603.253906 0)"/>
     <use xlink:href="#DejaVuSans-75" transform="translate(2678.449219 0)"/>
     <use xlink:href="#DejaVuSans-65" transform="translate(2741.828125 0)"/>
    </g>
   </g>
   <g id="legend_1">
    <g id="patch_7">
     <path d="M 1013.0655 152.305 
L 1070.5155 152.305 
Q 1072.5155 152.305 1072.5155 150.305 
L 1072.5155 33.88 
Q 1072.5155 31.88 1070.5155 31.88 
L 1013.0655 31.88 
Q 1011.0655 31.88 1011.0655 33.88 
L 1011.0655 150.305 
Q 1011.0655 152.305 1013.0655 152.305 
z
" style="fill: #ffffff; opacity: 0.8; stroke: #cccccc; stroke-linejoin: miter"/>
    </g>
    <g id="text_23">
     <!-- Year -->
     <g transform="translate(1031.203 43.478437) scale(0.1 -0.1)">
      <use xlink:href="#DejaVuSans-59"/>
      <use xlink:href="#DejaVuSans-65" transform="translate(47.833984 0)"/>
      <use xlink:href="#DejaVuSans-61" transform="translate(109.357422 0)"/>
      <use xlink:href="#DejaVuSans-72" transform="translate(170.636719 0)"/>
     </g>
    </g>
    <g id="line2d_62">
     <path d="M 1015.0655 54.656562 
L 1025.0655 54.656562 
L 1035.0655 54.656562 
" style="fill: none; stroke: #edd1cb; stroke-width: 1.5; stroke-linecap: square"/>
     <g>
      <use xlink:href="#m192ace3ef4" x="1025.0655" y="54.656562" style="fill: #edd1cb; stroke: #ffffff; stroke-width: 0.75"/>
     </g>
    </g>
    <g id="text_24">
     <!-- 1980 -->
     <g transform="translate(1043.0655 58.156562) scale(0.1 -0.1)">
      <use xlink:href="#DejaVuSans-31"/>
      <use xlink:href="#DejaVuSans-39" transform="translate(63.623047 0)"/>
      <use xlink:href="#DejaVuSans-38" transform="translate(127.246094 0)"/>
      <use xlink:href="#DejaVuSans-30" transform="translate(190.869141 0)"/>
     </g>
    </g>
    <g id="line2d_63">
     <path d="M 1015.0655 69.334687 
L 1025.0655 69.334687 
L 1035.0655 69.334687 
" style="fill: none; stroke: #e2b3b5; stroke-width: 1.5; stroke-linecap: square"/>
     <g>
      <use xlink:href="#mbf82e7214d" x="1025.0655" y="69.334687" style="fill: #e2b3b5; stroke: #ffffff; stroke-width: 0.75"/>
     </g>
    </g>
    <g id="text_25">
     <!-- 1982 -->
     <g transform="translate(1043.0655 72.834687) scale(0.1 -0.1)">
      <use xlink:href="#DejaVuSans-31"/>
      <use xlink:href="#DejaVuSans-39" transform="translate(63.623047 0)"/>
      <use xlink:href="#DejaVuSans-38" transform="translate(127.246094 0)"/>
      <use xlink:href="#DejaVuSans-32" transform="translate(190.869141 0)"/>
     </g>
    </g>
    <g id="line2d_64">
     <path d="M 1015.0655 84.012812 
L 1025.0655 84.012812 
L 1035.0655 84.012812 
" style="fill: none; stroke: #c8879e; stroke-width: 1.5; stroke-linecap: square"/>
     <g>
      <use xlink:href="#m0b0db64d1e" x="1025.0655" y="84.012812" style="fill: #c8879e; stroke: #ffffff; stroke-width: 0.75"/>
     </g>
    </g>
    <g id="text_26">
     <!-- 1985 -->
     <g transform="translate(1043.0655 87.512812) scale(0.1 -0.1)">
      <use xlink:href="#DejaVuSans-31"/>
      <use xlink:href="#DejaVuSans-39" transform="translate(63.623047 0)"/>
      <use xlink:href="#DejaVuSans-38" transform="translate(127.246094 0)"/>
      <use xlink:href="#DejaVuSans-35" transform="translate(190.869141 0)"/>
     </g>
    </g>
    <g id="line2d_65">
     <path d="M 1015.0655 98.690937 
L 1025.0655 98.690937 
L 1035.0655 98.690937 
" style="fill: none; stroke: #b06d92; stroke-width: 1.5; stroke-linecap: square"/>
     <g>
      <use xlink:href="#m220644411f" x="1025.0655" y="98.690937" style="fill: #b06d92; stroke: #ffffff; stroke-width: 0.75"/>
     </g>
    </g>
    <g id="text_27">
     <!-- 1987 -->
     <g transform="translate(1043.0655 102.190937) scale(0.1 -0.1)">
      <use xlink:href="#DejaVuSans-31"/>
      <use xlink:href="#DejaVuSans-39" transform="translate(63.623047 0)"/>
      <use xlink:href="#DejaVuSans-38" transform="translate(127.246094 0)"/>
      <use xlink:href="#DejaVuSans-37" transform="translate(190.869141 0)"/>
     </g>
    </g>
    <g id="line2d_66">
     <path d="M 1015.0655 113.369062 
L 1025.0655 113.369062 
L 1035.0655 113.369062 
" style="fill: none; stroke: #834c7d; stroke-width: 1.5; stroke-linecap: square"/>
     <g>
      <use xlink:href="#me9a540d9a6" x="1025.0655" y="113.369062" style="fill: #834c7d; stroke: #ffffff; stroke-width: 0.75"/>
     </g>
    </g>
    <g id="text_28">
     <!-- 1990 -->
     <g transform="translate(1043.0655 116.869062) scale(0.1 -0.1)">
      <use xlink:href="#DejaVuSans-31"/>
      <use xlink:href="#DejaVuSans-39" transform="translate(63.623047 0)"/>
      <use xlink:href="#DejaVuSans-39" transform="translate(127.246094 0)"/>
      <use xlink:href="#DejaVuSans-30" transform="translate(190.869141 0)"/>
     </g>
    </g>
    <g id="line2d_67">
     <path d="M 1015.0655 128.047187 
L 1025.0655 128.047187 
L 1035.0655 128.047187 
" style="fill: none; stroke: #613969; stroke-width: 1.5; stroke-linecap: square"/>
     <g>
      <use xlink:href="#m8c00397534" x="1025.0655" y="128.047187" style="fill: #613969; stroke: #ffffff; stroke-width: 0.75"/>
     </g>
    </g>
    <g id="text_29">
     <!-- 1992 -->
     <g transform="translate(1043.0655 131.547187) scale(0.1 -0.1)">
      <use xlink:href="#DejaVuSans-31"/>
      <use xlink:href="#DejaVuSans-39" transform="translate(63.623047 0)"/>
      <use xlink:href="#DejaVuSans-39" transform="translate(127.246094 0)"/>
      <use xlink:href="#DejaVuSans-32" transform="translate(190.869141 0)"/>
     </g>
    </g>
    <g id="line2d_68">
     <path d="M 1015.0655 142.725312 
L 1025.0655 142.725312 
L 1035.0655 142.725312 
" style="fill: none; stroke: #2d1e3e; stroke-width: 1.5; stroke-linecap: square"/>
     <g>
      <use xlink:href="#mf72583d0f6" x="1025.0655" y="142.725312" style="fill: #2d1e3e; stroke: #ffffff; stroke-width: 0.75"/>
     </g>
    </g>
    <g id="text_30">
     <!-- 1995 -->
     <g transform="translate(1043.0655 146.225312) scale(0.1 -0.1)">
      <use xlink:href="#DejaVuSans-31"/>
      <use xlink:href="#DejaVuSans-39" transform="translate(63.623047 0)"/>
      <use xlink:href="#DejaVuSans-39" transform="translate(127.246094 0)"/>
      <use xlink:href="#DejaVuSans-35" transform="translate(190.869141 0)"/>
     </g>
    </g>
   </g>
  </g>
 </g>
 <defs>
  <clipPath id="p9916b0ab15">
   <rect x="57.17" y="26.88" width="903.71" height="651.16"/>
  </clipPath>
 </defs>
</svg>
