<?xml version="1.0" encoding="utf-8" standalone="no"?>
<!DOCTYPE svg PUBLIC "-//W3C//DTD SVG 1.1//EN"
  "http://www.w3.org/Graphics/SVG/1.1/DTD/svg11.dtd">
<svg xmlns:xlink="http://www.w3.org/1999/xlink" width="1008pt" height="504pt" viewBox="0 0 1008 504" xmlns="http://www.w3.org/2000/svg" version="1.1">
 <metadata>
  <rdf:RDF xmlns:dc="http://purl.org/dc/elements/1.1/" xmlns:cc="http://creativecommons.org/ns#" xmlns:rdf="http://www.w3.org/1999/02/22-rdf-syntax-ns#">
   <cc:Work>
    <dc:type rdf:resource="http://purl.org/dc/dcmitype/StillImage"/>
    <dc:date>2025-01-01T17:01:17.173183</dc:date>
    <dc:format>image/svg+xml</dc:format>
    <dc:creator>
     <cc:Agent>
      <dc:title>Matplotlib v3.10.0, https://matplotlib.org/</dc:title>
     </cc:Agent>
    </dc:creator>
   </cc:Work>
  </rdf:RDF>
 </metadata>
 <defs>
  <style type="text/css">*{stroke-linejoin: round; stroke-linecap: butt}</style>
 </defs>
 <g id="figure_1">
  <g id="patch_1">
   <path d="M 0 504 
L 1008 504 
L 1008 0 
L 0 0 
z
" style="fill: #ffffff"/>
  </g>
  <g id="axes_1">
   <g id="patch_2">
    <path d="M 50.87 462.04 
L 996.841908 462.04 
L 996.841908 26.88 
L 50.87 26.88 
z
" style="fill: #ffffff"/>
   </g>
   <g id="matplotlib.axis_1">
    <g id="xtick_1">
     <g id="line2d_1">
      <path d="M 93.868723 462.04 
L 93.868723 26.88 
" clip-path="url(#pcba9f370b5)" style="fill: none; stroke: #b0b0b0; stroke-width: 0.8; stroke-linecap: square"/>
     </g>
     <g id="line2d_2">
      <defs>
       <path id="m5d6509cad3" d="M 0 0 
L 0 3.5 
" style="stroke: #000000; stroke-width: 0.8"/>
      </defs>
      <g>
       <use xlink:href="#m5d6509cad3" x="93.868723" y="462.04" style="stroke: #000000; stroke-width: 0.8"/>
      </g>
     </g>
     <g id="text_1">
      <!-- 1980 -->
      <g transform="translate(81.143723 476.638438) scale(0.1 -0.1)">
       <defs>
        <path id="DejaVuSans-31" d="M 794 531 
L 1825 531 
L 1825 4091 
L 703 3866 
L 703 4441 
L 1819 4666 
L 2450 4666 
L 2450 531 
L 3481 531 
L 3481 0 
L 794 0 
L 794 531 
z
" transform="scale(0.015625)"/>
        <path id="DejaVuSans-39" d="M 703 97 
L 703 672 
Q 941 559 1184 500 
Q 1428 441 1663 441 
Q 2288 441 2617 861 
Q 2947 1281 2994 2138 
Q 2813 1869 2534 1725 
Q 2256 1581 1919 1581 
Q 1219 1581 811 2004 
Q 403 2428 403 3163 
Q 403 3881 828 4315 
Q 1253 4750 1959 4750 
Q 2769 4750 3195 4129 
Q 3622 3509 3622 2328 
Q 3622 1225 3098 567 
Q 2575 -91 1691 -91 
Q 1453 -91 1209 -44 
Q 966 3 703 97 
z
M 1959 2075 
Q 2384 2075 2632 2365 
Q 2881 2656 2881 3163 
Q 2881 3666 2632 3958 
Q 2384 4250 1959 4250 
Q 1534 4250 1286 3958 
Q 1038 3666 1038 3163 
Q 1038 2656 1286 2365 
Q 1534 2075 1959 2075 
z
" transform="scale(0.015625)"/>
        <path id="DejaVuSans-38" d="M 2034 2216 
Q 1584 2216 1326 1975 
Q 1069 1734 1069 1313 
Q 1069 891 1326 650 
Q 1584 409 2034 409 
Q 2484 409 2743 651 
Q 3003 894 3003 1313 
Q 3003 1734 2745 1975 
Q 2488 2216 2034 2216 
z
M 1403 2484 
Q 997 2584 770 2862 
Q 544 3141 544 3541 
Q 544 4100 942 4425 
Q 1341 4750 2034 4750 
Q 2731 4750 3128 4425 
Q 3525 4100 3525 3541 
Q 3525 3141 3298 2862 
Q 3072 2584 2669 2484 
Q 3125 2378 3379 2068 
Q 3634 1759 3634 1313 
Q 3634 634 3220 271 
Q 2806 -91 2034 -91 
Q 1263 -91 848 271 
Q 434 634 434 1313 
Q 434 1759 690 2068 
Q 947 2378 1403 2484 
z
M 1172 3481 
Q 1172 3119 1398 2916 
Q 1625 2713 2034 2713 
Q 2441 2713 2670 2916 
Q 2900 3119 2900 3481 
Q 2900 3844 2670 4047 
Q 2441 4250 2034 4250 
Q 1625 4250 1398 4047 
Q 1172 3844 1172 3481 
z
" transform="scale(0.015625)"/>
        <path id="DejaVuSans-30" d="M 2034 4250 
Q 1547 4250 1301 3770 
Q 1056 3291 1056 2328 
Q 1056 1369 1301 889 
Q 1547 409 2034 409 
Q 2525 409 2770 889 
Q 3016 1369 3016 2328 
Q 3016 3291 2770 3770 
Q 2525 4250 2034 4250 
z
M 2034 4750 
Q 2819 4750 3233 4129 
Q 3647 3509 3647 2328 
Q 3647 1150 3233 529 
Q 2819 -91 2034 -91 
Q 1250 -91 836 529 
Q 422 1150 422 2328 
Q 422 3509 836 4129 
Q 1250 4750 2034 4750 
z
" transform="scale(0.015625)"/>
       </defs>
       <use xlink:href="#DejaVuSans-31"/>
       <use xlink:href="#DejaVuSans-39" transform="translate(63.623047 0)"/>
       <use xlink:href="#DejaVuSans-38" transform="translate(127.246094 0)"/>
       <use xlink:href="#DejaVuSans-30" transform="translate(190.869141 0)"/>
      </g>
     </g>
    </g>
    <g id="xtick_2">
     <g id="line2d_3">
      <path d="M 204.936096 462.04 
L 204.936096 26.88 
" clip-path="url(#pcba9f370b5)" style="fill: none; stroke: #b0b0b0; stroke-width: 0.8; stroke-linecap: square"/>
     </g>
     <g id="line2d_4">
      <g>
       <use xlink:href="#m5d6509cad3" x="204.936096" y="462.04" style="stroke: #000000; stroke-width: 0.8"/>
      </g>
     </g>
     <g id="text_2">
      <!-- 1982 -->
      <g transform="translate(192.211096 476.638438) scale(0.1 -0.1)">
       <defs>
        <path id="DejaVuSans-32" d="M 1228 531 
L 3431 531 
L 3431 0 
L 469 0 
L 469 531 
Q 828 903 1448 1529 
Q 2069 2156 2228 2338 
Q 2531 2678 2651 2914 
Q 2772 3150 2772 3378 
Q 2772 3750 2511 3984 
Q 2250 4219 1831 4219 
Q 1534 4219 1204 4116 
Q 875 4013 500 3803 
L 500 4441 
Q 881 4594 1212 4672 
Q 1544 4750 1819 4750 
Q 2544 4750 2975 4387 
Q 3406 4025 3406 3419 
Q 3406 3131 3298 2873 
Q 3191 2616 2906 2266 
Q 2828 2175 2409 1742 
Q 1991 1309 1228 531 
z
" transform="scale(0.015625)"/>
       </defs>
       <use xlink:href="#DejaVuSans-31"/>
       <use xlink:href="#DejaVuSans-39" transform="translate(63.623047 0)"/>
       <use xlink:href="#DejaVuSans-38" transform="translate(127.246094 0)"/>
       <use xlink:href="#DejaVuSans-32" transform="translate(190.869141 0)"/>
      </g>
     </g>
    </g>
    <g id="xtick_3">
     <g id="line2d_5">
      <path d="M 315.85153 462.04 
L 315.85153 26.88 
" clip-path="url(#pcba9f370b5)" style="fill: none; stroke: #b0b0b0; stroke-width: 0.8; stroke-linecap: square"/>
     </g>
     <g id="line2d_6">
      <g>
       <use xlink:href="#m5d6509cad3" x="315.85153" y="462.04" style="stroke: #000000; stroke-width: 0.8"/>
      </g>
     </g>
     <g id="text_3">
      <!-- 1984 -->
      <g transform="translate(303.12653 476.638438) scale(0.1 -0.1)">
       <defs>
        <path id="DejaVuSans-34" d="M 2419 4116 
L 825 1625 
L 2419 1625 
L 2419 4116 
z
M 2253 4666 
L 3047 4666 
L 3047 1625 
L 3713 1625 
L 3713 1100 
L 3047 1100 
L 3047 0 
L 2419 0 
L 2419 1100 
L 313 1100 
L 313 1709 
L 2253 4666 
z
" transform="scale(0.015625)"/>
       </defs>
       <use xlink:href="#DejaVuSans-31"/>
       <use xlink:href="#DejaVuSans-39" transform="translate(63.623047 0)"/>
       <use xlink:href="#DejaVuSans-38" transform="translate(127.246094 0)"/>
       <use xlink:href="#DejaVuSans-34" transform="translate(190.869141 0)"/>
      </g>
     </g>
    </g>
    <g id="xtick_4">
     <g id="line2d_7">
      <path d="M 426.918903 462.04 
L 426.918903 26.88 
" clip-path="url(#pcba9f370b5)" style="fill: none; stroke: #b0b0b0; stroke-width: 0.8; stroke-linecap: square"/>
     </g>
     <g id="line2d_8">
      <g>
       <use xlink:href="#m5d6509cad3" x="426.918903" y="462.04" style="stroke: #000000; stroke-width: 0.8"/>
      </g>
     </g>
     <g id="text_4">
      <!-- 1986 -->
      <g transform="translate(414.193903 476.638438) scale(0.1 -0.1)">
       <defs>
        <path id="DejaVuSans-36" d="M 2113 2584 
Q 1688 2584 1439 2293 
Q 1191 2003 1191 1497 
Q 1191 994 1439 701 
Q 1688 409 2113 409 
Q 2538 409 2786 701 
Q 3034 994 3034 1497 
Q 3034 2003 2786 2293 
Q 2538 2584 2113 2584 
z
M 3366 4563 
L 3366 3988 
Q 3128 4100 2886 4159 
Q 2644 4219 2406 4219 
Q 1781 4219 1451 3797 
Q 1122 3375 1075 2522 
Q 1259 2794 1537 2939 
Q 1816 3084 2150 3084 
Q 2853 3084 3261 2657 
Q 3669 2231 3669 1497 
Q 3669 778 3244 343 
Q 2819 -91 2113 -91 
Q 1303 -91 875 529 
Q 447 1150 447 2328 
Q 447 3434 972 4092 
Q 1497 4750 2381 4750 
Q 2619 4750 2861 4703 
Q 3103 4656 3366 4563 
z
" transform="scale(0.015625)"/>
       </defs>
       <use xlink:href="#DejaVuSans-31"/>
       <use xlink:href="#DejaVuSans-39" transform="translate(63.623047 0)"/>
       <use xlink:href="#DejaVuSans-38" transform="translate(127.246094 0)"/>
       <use xlink:href="#DejaVuSans-36" transform="translate(190.869141 0)"/>
      </g>
     </g>
    </g>
    <g id="xtick_5">
     <g id="line2d_9">
      <path d="M 537.834338 462.04 
L 537.834338 26.88 
" clip-path="url(#pcba9f370b5)" style="fill: none; stroke: #b0b0b0; stroke-width: 0.8; stroke-linecap: square"/>
     </g>
     <g id="line2d_10">
      <g>
       <use xlink:href="#m5d6509cad3" x="537.834338" y="462.04" style="stroke: #000000; stroke-width: 0.8"/>
      </g>
     </g>
     <g id="text_5">
      <!-- 1988 -->
      <g transform="translate(525.109338 476.638438) scale(0.1 -0.1)">
       <use xlink:href="#DejaVuSans-31"/>
       <use xlink:href="#DejaVuSans-39" transform="translate(63.623047 0)"/>
       <use xlink:href="#DejaVuSans-38" transform="translate(127.246094 0)"/>
       <use xlink:href="#DejaVuSans-38" transform="translate(190.869141 0)"/>
      </g>
     </g>
    </g>
    <g id="xtick_6">
     <g id="line2d_11">
      <path d="M 648.901711 462.04 
L 648.901711 26.88 
" clip-path="url(#pcba9f370b5)" style="fill: none; stroke: #b0b0b0; stroke-width: 0.8; stroke-linecap: square"/>
     </g>
     <g id="line2d_12">
      <g>
       <use xlink:href="#m5d6509cad3" x="648.901711" y="462.04" style="stroke: #000000; stroke-width: 0.8"/>
      </g>
     </g>
     <g id="text_6">
      <!-- 1990 -->
      <g transform="translate(636.176711 476.638438) scale(0.1 -0.1)">
       <use xlink:href="#DejaVuSans-31"/>
       <use xlink:href="#DejaVuSans-39" transform="translate(63.623047 0)"/>
       <use xlink:href="#DejaVuSans-39" transform="translate(127.246094 0)"/>
       <use xlink:href="#DejaVuSans-30" transform="translate(190.869141 0)"/>
      </g>
     </g>
    </g>
    <g id="xtick_7">
     <g id="line2d_13">
      <path d="M 759.817145 462.04 
L 759.817145 26.88 
" clip-path="url(#pcba9f370b5)" style="fill: none; stroke: #b0b0b0; stroke-width: 0.8; stroke-linecap: square"/>
     </g>
     <g id="line2d_14">
      <g>
       <use xlink:href="#m5d6509cad3" x="759.817145" y="462.04" style="stroke: #000000; stroke-width: 0.8"/>
      </g>
     </g>
     <g id="text_7">
      <!-- 1992 -->
      <g transform="translate(747.092145 476.638438) scale(0.1 -0.1)">
       <use xlink:href="#DejaVuSans-31"/>
       <use xlink:href="#DejaVuSans-39" transform="translate(63.623047 0)"/>
       <use xlink:href="#DejaVuSans-39" transform="translate(127.246094 0)"/>
       <use xlink:href="#DejaVuSans-32" transform="translate(190.869141 0)"/>
      </g>
     </g>
    </g>
    <g id="xtick_8">
     <g id="line2d_15">
      <path d="M 870.884518 462.04 
L 870.884518 26.88 
" clip-path="url(#pcba9f370b5)" style="fill: none; stroke: #b0b0b0; stroke-width: 0.8; stroke-linecap: square"/>
     </g>
     <g id="line2d_16">
      <g>
       <use xlink:href="#m5d6509cad3" x="870.884518" y="462.04" style="stroke: #000000; stroke-width: 0.8"/>
      </g>
     </g>
     <g id="text_8">
      <!-- 1994 -->
      <g transform="translate(858.159518 476.638438) scale(0.1 -0.1)">
       <use xlink:href="#DejaVuSans-31"/>
       <use xlink:href="#DejaVuSans-39" transform="translate(63.623047 0)"/>
       <use xlink:href="#DejaVuSans-39" transform="translate(127.246094 0)"/>
       <use xlink:href="#DejaVuSans-34" transform="translate(190.869141 0)"/>
      </g>
     </g>
    </g>
    <g id="xtick_9">
     <g id="line2d_17">
      <path d="M 981.799952 462.04 
L 981.799952 26.88 
" clip-path="url(#pcba9f370b5)" style="fill: none; stroke: #b0b0b0; stroke-width: 0.8; stroke-linecap: square"/>
     </g>
     <g id="line2d_18">
      <g>
       <use xlink:href="#m5d6509cad3" x="981.799952" y="462.04" style="stroke: #000000; stroke-width: 0.8"/>
      </g>
     </g>
     <g id="text_9">
      <!-- 1996 -->
      <g transform="translate(969.074952 476.638438) scale(0.1 -0.1)">
       <use xlink:href="#DejaVuSans-31"/>
       <use xlink:href="#DejaVuSans-39" transform="translate(63.623047 0)"/>
       <use xlink:href="#DejaVuSans-39" transform="translate(127.246094 0)"/>
       <use xlink:href="#DejaVuSans-36" transform="translate(190.869141 0)"/>
      </g>
     </g>
    </g>
    <g id="text_10">
     <!-- Date -->
     <g transform="translate(511.905173 490.316563) scale(0.1 -0.1)">
      <defs>
       <path id="DejaVuSans-44" d="M 1259 4147 
L 1259 519 
L 2022 519 
Q 2988 519 3436 956 
Q 3884 1394 3884 2338 
Q 3884 3275 3436 3711 
Q 2988 4147 2022 4147 
L 1259 4147 
z
M 628 4666 
L 1925 4666 
Q 3281 4666 3915 4102 
Q 4550 3538 4550 2338 
Q 4550 1131 3912 565 
Q 3275 0 1925 0 
L 628 0 
L 628 4666 
z
" transform="scale(0.015625)"/>
       <path id="DejaVuSans-61" d="M 2194 1759 
Q 1497 1759 1228 1600 
Q 959 1441 959 1056 
Q 959 750 1161 570 
Q 1363 391 1709 391 
Q 2188 391 2477 730 
Q 2766 1069 2766 1631 
L 2766 1759 
L 2194 1759 
z
M 3341 1997 
L 3341 0 
L 2766 0 
L 2766 531 
Q 2569 213 2275 61 
Q 1981 -91 1556 -91 
Q 1019 -91 701 211 
Q 384 513 384 1019 
Q 384 1609 779 1909 
Q 1175 2209 1959 2209 
L 2766 2209 
L 2766 2266 
Q 2766 2663 2505 2880 
Q 2244 3097 1772 3097 
Q 1472 3097 1187 3025 
Q 903 2953 641 2809 
L 641 3341 
Q 956 3463 1253 3523 
Q 1550 3584 1831 3584 
Q 2591 3584 2966 3190 
Q 3341 2797 3341 1997 
z
" transform="scale(0.015625)"/>
       <path id="DejaVuSans-74" d="M 1172 4494 
L 1172 3500 
L 2356 3500 
L 2356 3053 
L 1172 3053 
L 1172 1153 
Q 1172 725 1289 603 
Q 1406 481 1766 481 
L 2356 481 
L 2356 0 
L 1766 0 
Q 1100 0 847 248 
Q 594 497 594 1153 
L 594 3053 
L 172 3053 
L 172 3500 
L 594 3500 
L 594 4494 
L 1172 4494 
z
" transform="scale(0.015625)"/>
       <path id="DejaVuSans-65" d="M 3597 1894 
L 3597 1613 
L 953 1613 
Q 991 1019 1311 708 
Q 1631 397 2203 397 
Q 2534 397 2845 478 
Q 3156 559 3463 722 
L 3463 178 
Q 3153 47 2828 -22 
Q 2503 -91 2169 -91 
Q 1331 -91 842 396 
Q 353 884 353 1716 
Q 353 2575 817 3079 
Q 1281 3584 2069 3584 
Q 2775 3584 3186 3129 
Q 3597 2675 3597 1894 
z
M 3022 2063 
Q 3016 2534 2758 2815 
Q 2500 3097 2075 3097 
Q 1594 3097 1305 2825 
Q 1016 2553 972 2059 
L 3022 2063 
z
" transform="scale(0.015625)"/>
      </defs>
      <use xlink:href="#DejaVuSans-44"/>
      <use xlink:href="#DejaVuSans-61" transform="translate(77.001953 0)"/>
      <use xlink:href="#DejaVuSans-74" transform="translate(138.28125 0)"/>
      <use xlink:href="#DejaVuSans-65" transform="translate(177.490234 0)"/>
     </g>
    </g>
   </g>
   <g id="matplotlib.axis_2">
    <g id="ytick_1">
     <g id="line2d_19">
      <path d="M 50.87 405.844937 
L 996.841908 405.844937 
" clip-path="url(#pcba9f370b5)" style="fill: none; stroke: #b0b0b0; stroke-width: 0.8; stroke-linecap: square"/>
     </g>
     <g id="line2d_20">
      <defs>
       <path id="mb67cfb8550" d="M 0 0 
L -3.5 0 
" style="stroke: #000000; stroke-width: 0.8"/>
      </defs>
      <g>
       <use xlink:href="#mb67cfb8550" x="50.87" y="405.844937" style="stroke: #000000; stroke-width: 0.8"/>
      </g>
     </g>
     <g id="text_11">
      <!-- 50 -->
      <g transform="translate(31.145 409.644156) scale(0.1 -0.1)">
       <defs>
        <path id="DejaVuSans-35" d="M 691 4666 
L 3169 4666 
L 3169 4134 
L 1269 4134 
L 1269 2991 
Q 1406 3038 1543 3061 
Q 1681 3084 1819 3084 
Q 2600 3084 3056 2656 
Q 3513 2228 3513 1497 
Q 3513 744 3044 326 
Q 2575 -91 1722 -91 
Q 1428 -91 1123 -41 
Q 819 9 494 109 
L 494 744 
Q 775 591 1075 516 
Q 1375 441 1709 441 
Q 2250 441 2565 725 
Q 2881 1009 2881 1497 
Q 2881 1984 2565 2268 
Q 2250 2553 1709 2553 
Q 1456 2553 1204 2497 
Q 953 2441 691 2322 
L 691 4666 
z
" transform="scale(0.015625)"/>
       </defs>
       <use xlink:href="#DejaVuSans-35"/>
       <use xlink:href="#DejaVuSans-30" transform="translate(63.623047 0)"/>
      </g>
     </g>
    </g>
    <g id="ytick_2">
     <g id="line2d_21">
      <path d="M 50.87 323.083431 
L 996.841908 323.083431 
" clip-path="url(#pcba9f370b5)" style="fill: none; stroke: #b0b0b0; stroke-width: 0.8; stroke-linecap: square"/>
     </g>
     <g id="line2d_22">
      <g>
       <use xlink:href="#mb67cfb8550" x="50.87" y="323.083431" style="stroke: #000000; stroke-width: 0.8"/>
      </g>
     </g>
     <g id="text_12">
      <!-- 100 -->
      <g transform="translate(24.7825 326.88265) scale(0.1 -0.1)">
       <use xlink:href="#DejaVuSans-31"/>
       <use xlink:href="#DejaVuSans-30" transform="translate(63.623047 0)"/>
       <use xlink:href="#DejaVuSans-30" transform="translate(127.246094 0)"/>
      </g>
     </g>
    </g>
    <g id="ytick_3">
     <g id="line2d_23">
      <path d="M 50.87 240.321925 
L 996.841908 240.321925 
" clip-path="url(#pcba9f370b5)" style="fill: none; stroke: #b0b0b0; stroke-width: 0.8; stroke-linecap: square"/>
     </g>
     <g id="line2d_24">
      <g>
       <use xlink:href="#mb67cfb8550" x="50.87" y="240.321925" style="stroke: #000000; stroke-width: 0.8"/>
      </g>
     </g>
     <g id="text_13">
      <!-- 150 -->
      <g transform="translate(24.7825 244.121143) scale(0.1 -0.1)">
       <use xlink:href="#DejaVuSans-31"/>
       <use xlink:href="#DejaVuSans-35" transform="translate(63.623047 0)"/>
       <use xlink:href="#DejaVuSans-30" transform="translate(127.246094 0)"/>
      </g>
     </g>
    </g>
    <g id="ytick_4">
     <g id="line2d_25">
      <path d="M 50.87 157.560418 
L 996.841908 157.560418 
" clip-path="url(#pcba9f370b5)" style="fill: none; stroke: #b0b0b0; stroke-width: 0.8; stroke-linecap: square"/>
     </g>
     <g id="line2d_26">
      <g>
       <use xlink:href="#mb67cfb8550" x="50.87" y="157.560418" style="stroke: #000000; stroke-width: 0.8"/>
      </g>
     </g>
     <g id="text_14">
      <!-- 200 -->
      <g transform="translate(24.7825 161.359637) scale(0.1 -0.1)">
       <use xlink:href="#DejaVuSans-32"/>
       <use xlink:href="#DejaVuSans-30" transform="translate(63.623047 0)"/>
       <use xlink:href="#DejaVuSans-30" transform="translate(127.246094 0)"/>
      </g>
     </g>
    </g>
    <g id="ytick_5">
     <g id="line2d_27">
      <path d="M 50.87 74.798912 
L 996.841908 74.798912 
" clip-path="url(#pcba9f370b5)" style="fill: none; stroke: #b0b0b0; stroke-width: 0.8; stroke-linecap: square"/>
     </g>
     <g id="line2d_28">
      <g>
       <use xlink:href="#mb67cfb8550" x="50.87" y="74.798912" style="stroke: #000000; stroke-width: 0.8"/>
      </g>
     </g>
     <g id="text_15">
      <!-- 250 -->
      <g transform="translate(24.7825 78.598131) scale(0.1 -0.1)">
       <use xlink:href="#DejaVuSans-32"/>
       <use xlink:href="#DejaVuSans-35" transform="translate(63.623047 0)"/>
       <use xlink:href="#DejaVuSans-30" transform="translate(127.246094 0)"/>
      </g>
     </g>
    </g>
    <g id="text_16">
     <!-- Sales -->
     <g transform="translate(18.702812 257.768594) rotate(-90) scale(0.1 -0.1)">
      <defs>
       <path id="DejaVuSans-53" d="M 3425 4513 
L 3425 3897 
Q 3066 4069 2747 4153 
Q 2428 4238 2131 4238 
Q 1616 4238 1336 4038 
Q 1056 3838 1056 3469 
Q 1056 3159 1242 3001 
Q 1428 2844 1947 2747 
L 2328 2669 
Q 3034 2534 3370 2195 
Q 3706 1856 3706 1288 
Q 3706 609 3251 259 
Q 2797 -91 1919 -91 
Q 1588 -91 1214 -16 
Q 841 59 441 206 
L 441 856 
Q 825 641 1194 531 
Q 1563 422 1919 422 
Q 2459 422 2753 634 
Q 3047 847 3047 1241 
Q 3047 1584 2836 1778 
Q 2625 1972 2144 2069 
L 1759 2144 
Q 1053 2284 737 2584 
Q 422 2884 422 3419 
Q 422 4038 858 4394 
Q 1294 4750 2059 4750 
Q 2388 4750 2728 4690 
Q 3069 4631 3425 4513 
z
" transform="scale(0.015625)"/>
       <path id="DejaVuSans-6c" d="M 603 4863 
L 1178 4863 
L 1178 0 
L 603 0 
L 603 4863 
z
" transform="scale(0.015625)"/>
       <path id="DejaVuSans-73" d="M 2834 3397 
L 2834 2853 
Q 2591 2978 2328 3040 
Q 2066 3103 1784 3103 
Q 1356 3103 1142 2972 
Q 928 2841 928 2578 
Q 928 2378 1081 2264 
Q 1234 2150 1697 2047 
L 1894 2003 
Q 2506 1872 2764 1633 
Q 3022 1394 3022 966 
Q 3022 478 2636 193 
Q 2250 -91 1575 -91 
Q 1294 -91 989 -36 
Q 684 19 347 128 
L 347 722 
Q 666 556 975 473 
Q 1284 391 1588 391 
Q 1994 391 2212 530 
Q 2431 669 2431 922 
Q 2431 1156 2273 1281 
Q 2116 1406 1581 1522 
L 1381 1569 
Q 847 1681 609 1914 
Q 372 2147 372 2553 
Q 372 3047 722 3315 
Q 1072 3584 1716 3584 
Q 2034 3584 2315 3537 
Q 2597 3491 2834 3397 
z
" transform="scale(0.015625)"/>
      </defs>
      <use xlink:href="#DejaVuSans-53"/>
      <use xlink:href="#DejaVuSans-61" transform="translate(63.476562 0)"/>
      <use xlink:href="#DejaVuSans-6c" transform="translate(124.755859 0)"/>
      <use xlink:href="#DejaVuSans-65" transform="translate(152.539062 0)"/>
      <use xlink:href="#DejaVuSans-73" transform="translate(214.0625 0)"/>
     </g>
    </g>
   </g>
   <g id="line2d_29">
    <path d="M 93.868723 303.220669 
L 98.578831 293.289289 
L 102.98506 275.081757 
L 107.695168 324.738661 
L 112.253336 296.599749 
L 116.963444 210.527782 
L 121.521612 293.289289 
L 126.23172 275.081757 
L 130.941827 149.284268 
L 135.499996 245.287615 
L 140.210103 240.321925 
L 144.768272 46.66 
L 149.478379 280.047448 
L 154.188487 275.081757 
L 158.442777 283.357908 
L 163.152885 328.049121 
L 167.711053 319.772971 
L 172.421161 278.392218 
L 176.979329 121.145356 
L 181.689437 134.387197 
L 186.399544 293.289289 
L 190.957713 255.218996 
L 195.66782 233.701004 
L 200.225989 114.524435 
L 204.936096 341.290962 
L 209.646204 361.153724 
L 213.900494 352.877573 
L 218.610602 328.049121 
L 223.16877 278.392218 
L 227.878878 288.323598 
L 232.437046 294.944519 
L 237.147154 294.944519 
L 241.857261 313.15205 
L 246.41543 303.220669 
L 251.125537 266.805607 
L 255.683706 208.872552 
L 260.393813 364.464184 
L 265.103921 309.84159 
L 269.358211 298.254979 
L 274.068319 347.911883 
L 278.626487 321.428201 
L 283.336595 309.84159 
L 287.894763 308.18636 
L 292.604871 283.357908 
L 297.314978 314.80728 
L 301.873147 331.359582 
L 306.583254 265.150377 
L 311.141423 217.148703 
L 315.85153 342.946192 
L 320.561638 347.911883 
L 324.967867 303.220669 
L 329.677975 344.601423 
L 334.236143 337.980502 
L 338.946251 344.601423 
L 343.504419 344.601423 
L 348.214527 253.563766 
L 352.924634 331.359582 
L 357.482803 309.84159 
L 362.19291 258.529456 
L 366.751079 225.424854 
L 371.461186 387.637406 
L 376.171294 352.877573 
L 380.425584 283.357908 
L 385.135692 334.670042 
L 389.69386 309.84159 
L 394.403968 364.464184 
L 398.962136 344.601423 
L 403.672244 318.117741 
L 408.382351 339.635732 
L 412.94052 309.84159 
L 417.650627 285.013138 
L 422.208796 275.081757 
L 426.918903 394.258326 
L 431.629011 381.016485 
L 435.883302 377.706025 
L 440.593409 371.085105 
L 445.151578 362.808954 
L 449.861685 377.706025 
L 454.419854 306.53113 
L 459.129961 293.289289 
L 463.840068 324.738661 
L 468.398237 347.911883 
L 473.108344 311.49682 
L 477.666513 255.218996 
L 482.37662 392.603096 
L 487.086728 381.016485 
L 491.341019 372.740335 
L 496.051126 346.256653 
L 500.609295 334.670042 
L 505.319402 366.119414 
L 509.877571 344.601423 
L 514.587678 367.774644 
L 519.297786 321.428201 
L 523.855954 323.083431 
L 528.566062 329.704351 
L 533.12423 228.735314 
L 537.834338 384.326946 
L 542.544445 298.254979 
L 546.950675 372.740335 
L 551.660782 379.361255 
L 556.218951 377.706025 
L 560.929058 351.222343 
L 565.487227 357.843264 
L 570.197334 361.153724 
L 574.907442 319.772971 
L 579.46561 296.599749 
L 584.175718 323.083431 
L 588.733886 265.150377 
L 593.443994 371.085105 
L 598.154101 389.292636 
L 602.408392 341.290962 
L 607.118499 366.119414 
L 611.676668 367.774644 
L 616.386775 337.980502 
L 620.944944 346.256653 
L 625.655051 366.119414 
L 630.365159 344.601423 
L 634.923327 344.601423 
L 639.633435 308.18636 
L 644.191603 261.839916 
L 648.901711 417.431548 
L 653.611818 374.395565 
L 657.866109 367.774644 
L 662.576216 361.153724 
L 667.134385 374.395565 
L 671.844492 362.808954 
L 676.402661 359.498494 
L 681.112768 372.740335 
L 685.822876 351.222343 
L 690.381044 381.016485 
L 690.381044 381.016485 
" clip-path="url(#pcba9f370b5)" style="fill: none; stroke: #ffa500; stroke-width: 1.5; stroke-linecap: square"/>
   </g>
   <g id="line2d_30">
    <path d="M 695.091152 306.53113 
L 699.64932 270.116067 
L 704.359428 399.224017 
L 709.069535 397.568787 
L 713.323826 379.361255 
L 718.033933 381.016485 
L 722.592102 389.292636 
L 727.302209 381.016485 
L 731.860378 329.704351 
L 736.570485 397.568787 
L 741.280593 371.085105 
L 745.838761 384.326946 
L 750.548869 366.119414 
L 755.107037 313.15205 
L 759.817145 432.328619 
L 764.527252 410.810628 
L 768.933482 395.913556 
L 773.643589 400.879247 
L 778.201758 400.879247 
L 782.911865 397.568787 
L 787.470034 377.706025 
L 792.180141 402.534477 
L 796.890249 412.465858 
L 801.448417 404.189707 
L 806.158525 392.603096 
L 810.716693 337.980502 
L 815.426801 433.983849 
L 820.136908 422.397238 
L 824.391199 412.465858 
L 829.101306 414.121088 
L 833.659475 420.742008 
L 838.369582 397.568787 
L 842.927751 394.258326 
L 847.637858 399.224017 
L 852.347966 412.465858 
L 856.906134 402.534477 
L 861.616242 409.155397 
L 866.17441 361.153724 
L 870.884518 438.94954 
L 875.594625 430.673389 
L 879.848916 419.086778 
L 884.559023 409.155397 
L 889.117192 415.776318 
L 893.827299 414.121088 
L 898.385468 414.121088 
L 903.095575 414.121088 
L 907.805683 412.465858 
L 912.363851 404.189707 
L 917.073959 384.326946 
L 921.632127 349.567113 
L 926.342235 438.94954 
L 931.052342 424.052469 
L 935.306633 414.121088 
L 940.016741 402.534477 
L 944.574909 442.26 
L 949.285017 422.397238 
L 953.843185 385.982176 
" clip-path="url(#pcba9f370b5)" style="fill: none; stroke: #ff0000; stroke-width: 1.5; stroke-linecap: square"/>
   </g>
   <g id="line2d_31">
    <path d="M 695.091152 368.326388 
L 699.64932 368.326388 
L 704.359428 368.326388 
L 709.069535 368.326388 
L 713.323826 368.326388 
L 718.033933 368.326388 
L 722.592102 368.326388 
L 727.302209 368.326388 
L 731.860378 368.326388 
L 736.570485 368.326388 
L 741.280593 368.326388 
L 745.838761 368.326388 
L 750.548869 368.326388 
L 755.107037 368.326388 
L 759.817145 368.326388 
L 764.527252 368.326388 
L 768.933482 368.326388 
L 773.643589 368.326388 
L 778.201758 368.326388 
L 782.911865 368.326388 
L 787.470034 368.326388 
L 792.180141 368.326388 
L 796.890249 368.326388 
L 801.448417 368.326388 
L 806.158525 368.326388 
L 810.716693 368.326388 
L 815.426801 368.326388 
L 820.136908 368.326388 
L 824.391199 368.326388 
L 829.101306 368.326388 
L 833.659475 368.326388 
L 838.369582 368.326388 
L 842.927751 368.326388 
L 847.637858 368.326388 
L 852.347966 368.326388 
L 856.906134 368.326388 
L 861.616242 368.326388 
L 866.17441 368.326388 
L 870.884518 368.326388 
L 875.594625 368.326388 
L 879.848916 368.326388 
L 884.559023 368.326388 
L 889.117192 368.326388 
L 893.827299 368.326388 
L 898.385468 368.326388 
L 903.095575 368.326388 
L 907.805683 368.326388 
L 912.363851 368.326388 
L 917.073959 368.326388 
L 921.632127 368.326388 
L 926.342235 368.326388 
L 931.052342 368.326388 
L 935.306633 368.326388 
L 940.016741 368.326388 
L 944.574909 368.326388 
L 949.285017 368.326388 
L 953.843185 368.326388 
" clip-path="url(#pcba9f370b5)" style="fill: none; stroke-dasharray: 5.55,2.4; stroke-dashoffset: 0; stroke: #1f77b4; stroke-width: 1.5"/>
   </g>
   <g id="patch_3">
    <path d="M 50.87 462.04 
L 50.87 26.88 
" style="fill: none; stroke: #000000; stroke-width: 0.8; stroke-linejoin: miter; stroke-linecap: square"/>
   </g>
   <g id="patch_4">
    <path d="M 996.841908 462.04 
L 996.841908 26.88 
" style="fill: none; stroke: #000000; stroke-width: 0.8; stroke-linejoin: miter; stroke-linecap: square"/>
   </g>
   <g id="patch_5">
    <path d="M 50.87 462.04 
L 996.841908 462.04 
" style="fill: none; stroke: #000000; stroke-width: 0.8; stroke-linejoin: miter; stroke-linecap: square"/>
   </g>
   <g id="patch_6">
    <path d="M 50.87 26.88 
L 996.841908 26.88 
" style="fill: none; stroke: #000000; stroke-width: 0.8; stroke-linejoin: miter; stroke-linecap: square"/>
   </g>
   <g id="text_17">
    <!-- Moving Average Forecast -->
    <g transform="translate(448.343142 20.88) scale(0.12 -0.12)">
     <defs>
      <path id="DejaVuSans-4d" d="M 628 4666 
L 1569 4666 
L 2759 1491 
L 3956 4666 
L 4897 4666 
L 4897 0 
L 4281 0 
L 4281 4097 
L 3078 897 
L 2444 897 
L 1241 4097 
L 1241 0 
L 628 0 
L 628 4666 
z
" transform="scale(0.015625)"/>
      <path id="DejaVuSans-6f" d="M 1959 3097 
Q 1497 3097 1228 2736 
Q 959 2375 959 1747 
Q 959 1119 1226 758 
Q 1494 397 1959 397 
Q 2419 397 2687 759 
Q 2956 1122 2956 1747 
Q 2956 2369 2687 2733 
Q 2419 3097 1959 3097 
z
M 1959 3584 
Q 2709 3584 3137 3096 
Q 3566 2609 3566 1747 
Q 3566 888 3137 398 
Q 2709 -91 1959 -91 
Q 1206 -91 779 398 
Q 353 888 353 1747 
Q 353 2609 779 3096 
Q 1206 3584 1959 3584 
z
" transform="scale(0.015625)"/>
      <path id="DejaVuSans-76" d="M 191 3500 
L 800 3500 
L 1894 563 
L 2988 3500 
L 3597 3500 
L 2284 0 
L 1503 0 
L 191 3500 
z
" transform="scale(0.015625)"/>
      <path id="DejaVuSans-69" d="M 603 3500 
L 1178 3500 
L 1178 0 
L 603 0 
L 603 3500 
z
M 603 4863 
L 1178 4863 
L 1178 4134 
L 603 4134 
L 603 4863 
z
" transform="scale(0.015625)"/>
      <path id="DejaVuSans-6e" d="M 3513 2113 
L 3513 0 
L 2938 0 
L 2938 2094 
Q 2938 2591 2744 2837 
Q 2550 3084 2163 3084 
Q 1697 3084 1428 2787 
Q 1159 2491 1159 1978 
L 1159 0 
L 581 0 
L 581 3500 
L 1159 3500 
L 1159 2956 
Q 1366 3272 1645 3428 
Q 1925 3584 2291 3584 
Q 2894 3584 3203 3211 
Q 3513 2838 3513 2113 
z
" transform="scale(0.015625)"/>
      <path id="DejaVuSans-67" d="M 2906 1791 
Q 2906 2416 2648 2759 
Q 2391 3103 1925 3103 
Q 1463 3103 1205 2759 
Q 947 2416 947 1791 
Q 947 1169 1205 825 
Q 1463 481 1925 481 
Q 2391 481 2648 825 
Q 2906 1169 2906 1791 
z
M 3481 434 
Q 3481 -459 3084 -895 
Q 2688 -1331 1869 -1331 
Q 1566 -1331 1297 -1286 
Q 1028 -1241 775 -1147 
L 775 -588 
Q 1028 -725 1275 -790 
Q 1522 -856 1778 -856 
Q 2344 -856 2625 -561 
Q 2906 -266 2906 331 
L 2906 616 
Q 2728 306 2450 153 
Q 2172 0 1784 0 
Q 1141 0 747 490 
Q 353 981 353 1791 
Q 353 2603 747 3093 
Q 1141 3584 1784 3584 
Q 2172 3584 2450 3431 
Q 2728 3278 2906 2969 
L 2906 3500 
L 3481 3500 
L 3481 434 
z
" transform="scale(0.015625)"/>
      <path id="DejaVuSans-20" transform="scale(0.015625)"/>
      <path id="DejaVuSans-41" d="M 2188 4044 
L 1331 1722 
L 3047 1722 
L 2188 4044 
z
M 1831 4666 
L 2547 4666 
L 4325 0 
L 3669 0 
L 3244 1197 
L 1141 1197 
L 716 0 
L 50 0 
L 1831 4666 
z
" transform="scale(0.015625)"/>
      <path id="DejaVuSans-72" d="M 2631 2963 
Q 2534 3019 2420 3045 
Q 2306 3072 2169 3072 
Q 1681 3072 1420 2755 
Q 1159 2438 1159 1844 
L 1159 0 
L 581 0 
L 581 3500 
L 1159 3500 
L 1159 2956 
Q 1341 3275 1631 3429 
Q 1922 3584 2338 3584 
Q 2397 3584 2469 3576 
Q 2541 3569 2628 3553 
L 2631 2963 
z
" transform="scale(0.015625)"/>
      <path id="DejaVuSans-46" d="M 628 4666 
L 3309 4666 
L 3309 4134 
L 1259 4134 
L 1259 2759 
L 3109 2759 
L 3109 2228 
L 1259 2228 
L 1259 0 
L 628 0 
L 628 4666 
z
" transform="scale(0.015625)"/>
      <path id="DejaVuSans-63" d="M 3122 3366 
L 3122 2828 
Q 2878 2963 2633 3030 
Q 2388 3097 2138 3097 
Q 1578 3097 1268 2742 
Q 959 2388 959 1747 
Q 959 1106 1268 751 
Q 1578 397 2138 397 
Q 2388 397 2633 464 
Q 2878 531 3122 666 
L 3122 134 
Q 2881 22 2623 -34 
Q 2366 -91 2075 -91 
Q 1284 -91 818 406 
Q 353 903 353 1747 
Q 353 2603 823 3093 
Q 1294 3584 2113 3584 
Q 2378 3584 2631 3529 
Q 2884 3475 3122 3366 
z
" transform="scale(0.015625)"/>
     </defs>
     <use xlink:href="#DejaVuSans-4d"/>
     <use xlink:href="#DejaVuSans-6f" transform="translate(86.279297 0)"/>
     <use xlink:href="#DejaVuSans-76" transform="translate(147.460938 0)"/>
     <use xlink:href="#DejaVuSans-69" transform="translate(206.640625 0)"/>
     <use xlink:href="#DejaVuSans-6e" transform="translate(234.423828 0)"/>
     <use xlink:href="#DejaVuSans-67" transform="translate(297.802734 0)"/>
     <use xlink:href="#DejaVuSans-20" transform="translate(361.279297 0)"/>
     <use xlink:href="#DejaVuSans-41" transform="translate(393.066406 0)"/>
     <use xlink:href="#DejaVuSans-76" transform="translate(455.599609 0)"/>
     <use xlink:href="#DejaVuSans-65" transform="translate(514.779297 0)"/>
     <use xlink:href="#DejaVuSans-72" transform="translate(576.302734 0)"/>
     <use xlink:href="#DejaVuSans-61" transform="translate(617.416016 0)"/>
     <use xlink:href="#DejaVuSans-67" transform="translate(678.695312 0)"/>
     <use xlink:href="#DejaVuSans-65" transform="translate(742.171875 0)"/>
     <use xlink:href="#DejaVuSans-20" transform="translate(803.695312 0)"/>
     <use xlink:href="#DejaVuSans-46" transform="translate(835.482422 0)"/>
     <use xlink:href="#DejaVuSans-6f" transform="translate(889.376953 0)"/>
     <use xlink:href="#DejaVuSans-72" transform="translate(950.558594 0)"/>
     <use xlink:href="#DejaVuSans-65" transform="translate(989.421875 0)"/>
     <use xlink:href="#DejaVuSans-63" transform="translate(1050.945312 0)"/>
     <use xlink:href="#DejaVuSans-61" transform="translate(1105.925781 0)"/>
     <use xlink:href="#DejaVuSans-73" transform="translate(1167.205078 0)"/>
     <use xlink:href="#DejaVuSans-74" transform="translate(1219.304688 0)"/>
    </g>
   </g>
   <g id="legend_1">
    <g id="patch_7">
     <path d="M 804.829408 78.914375 
L 989.841908 78.914375 
Q 991.841908 78.914375 991.841908 76.914375 
L 991.841908 33.88 
Q 991.841908 31.88 989.841908 31.88 
L 804.829408 31.88 
Q 802.829408 31.88 802.829408 33.88 
L 802.829408 76.914375 
Q 802.829408 78.914375 804.829408 78.914375 
z
" style="fill: #ffffff; opacity: 0.8; stroke: #cccccc; stroke-linejoin: miter"/>
    </g>
    <g id="line2d_32">
     <path d="M 806.829408 39.978437 
L 816.829408 39.978437 
L 826.829408 39.978437 
" style="fill: none; stroke: #ffa500; stroke-width: 1.5; stroke-linecap: square"/>
    </g>
    <g id="text_18">
     <!-- Rose Train -->
     <g transform="translate(834.829408 43.478437) scale(0.1 -0.1)">
      <defs>
       <path id="DejaVuSans-52" d="M 2841 2188 
Q 3044 2119 3236 1894 
Q 3428 1669 3622 1275 
L 4263 0 
L 3584 0 
L 2988 1197 
Q 2756 1666 2539 1819 
Q 2322 1972 1947 1972 
L 1259 1972 
L 1259 0 
L 628 0 
L 628 4666 
L 2053 4666 
Q 2853 4666 3247 4331 
Q 3641 3997 3641 3322 
Q 3641 2881 3436 2590 
Q 3231 2300 2841 2188 
z
M 1259 4147 
L 1259 2491 
L 2053 2491 
Q 2509 2491 2742 2702 
Q 2975 2913 2975 3322 
Q 2975 3731 2742 3939 
Q 2509 4147 2053 4147 
L 1259 4147 
z
" transform="scale(0.015625)"/>
       <path id="DejaVuSans-54" d="M -19 4666 
L 3928 4666 
L 3928 4134 
L 2272 4134 
L 2272 0 
L 1638 0 
L 1638 4134 
L -19 4134 
L -19 4666 
z
" transform="scale(0.015625)"/>
      </defs>
      <use xlink:href="#DejaVuSans-52"/>
      <use xlink:href="#DejaVuSans-6f" transform="translate(64.982422 0)"/>
      <use xlink:href="#DejaVuSans-73" transform="translate(126.164062 0)"/>
      <use xlink:href="#DejaVuSans-65" transform="translate(178.263672 0)"/>
      <use xlink:href="#DejaVuSans-20" transform="translate(239.787109 0)"/>
      <use xlink:href="#DejaVuSans-54" transform="translate(271.574219 0)"/>
      <use xlink:href="#DejaVuSans-72" transform="translate(317.908203 0)"/>
      <use xlink:href="#DejaVuSans-61" transform="translate(359.021484 0)"/>
      <use xlink:href="#DejaVuSans-69" transform="translate(420.300781 0)"/>
      <use xlink:href="#DejaVuSans-6e" transform="translate(448.083984 0)"/>
     </g>
    </g>
    <g id="line2d_33">
     <path d="M 806.829408 54.656562 
L 816.829408 54.656562 
L 826.829408 54.656562 
" style="fill: none; stroke: #ff0000; stroke-width: 1.5; stroke-linecap: square"/>
    </g>
    <g id="text_19">
     <!-- Rose Test -->
     <g transform="translate(834.829408 58.156562) scale(0.1 -0.1)">
      <use xlink:href="#DejaVuSans-52"/>
      <use xlink:href="#DejaVuSans-6f" transform="translate(64.982422 0)"/>
      <use xlink:href="#DejaVuSans-73" transform="translate(126.164062 0)"/>
      <use xlink:href="#DejaVuSans-65" transform="translate(178.263672 0)"/>
      <use xlink:href="#DejaVuSans-20" transform="translate(239.787109 0)"/>
      <use xlink:href="#DejaVuSans-54" transform="translate(271.574219 0)"/>
      <use xlink:href="#DejaVuSans-65" transform="translate(315.658203 0)"/>
      <use xlink:href="#DejaVuSans-73" transform="translate(377.181641 0)"/>
      <use xlink:href="#DejaVuSans-74" transform="translate(429.28125 0)"/>
     </g>
    </g>
    <g id="line2d_34">
     <path d="M 806.829408 69.334687 
L 816.829408 69.334687 
L 826.829408 69.334687 
" style="fill: none; stroke-dasharray: 5.55,2.4; stroke-dashoffset: 0; stroke: #1f77b4; stroke-width: 1.5"/>
    </g>
    <g id="text_20">
     <!-- Moving Average Forecast Rose -->
     <g transform="translate(834.829408 72.834687) scale(0.1 -0.1)">
      <use xlink:href="#DejaVuSans-4d"/>
      <use xlink:href="#DejaVuSans-6f" transform="translate(86.279297 0)"/>
      <use xlink:href="#DejaVuSans-76" transform="translate(147.460938 0)"/>
      <use xlink:href="#DejaVuSans-69" transform="translate(206.640625 0)"/>
      <use xlink:href="#DejaVuSans-6e" transform="translate(234.423828 0)"/>
      <use xlink:href="#DejaVuSans-67" transform="translate(297.802734 0)"/>
      <use xlink:href="#DejaVuSans-20" transform="translate(361.279297 0)"/>
      <use xlink:href="#DejaVuSans-41" transform="translate(393.066406 0)"/>
      <use xlink:href="#DejaVuSans-76" transform="translate(455.599609 0)"/>
      <use xlink:href="#DejaVuSans-65" transform="translate(514.779297 0)"/>
      <use xlink:href="#DejaVuSans-72" transform="translate(576.302734 0)"/>
      <use xlink:href="#DejaVuSans-61" transform="translate(617.416016 0)"/>
      <use xlink:href="#DejaVuSans-67" transform="translate(678.695312 0)"/>
      <use xlink:href="#DejaVuSans-65" transform="translate(742.171875 0)"/>
      <use xlink:href="#DejaVuSans-20" transform="translate(803.695312 0)"/>
      <use xlink:href="#DejaVuSans-46" transform="translate(835.482422 0)"/>
      <use xlink:href="#DejaVuSans-6f" transform="translate(889.376953 0)"/>
      <use xlink:href="#DejaVuSans-72" transform="translate(950.558594 0)"/>
      <use xlink:href="#DejaVuSans-65" transform="translate(989.421875 0)"/>
      <use xlink:href="#DejaVuSans-63" transform="translate(1050.945312 0)"/>
      <use xlink:href="#DejaVuSans-61" transform="translate(1105.925781 0)"/>
      <use xlink:href="#DejaVuSans-73" transform="translate(1167.205078 0)"/>
      <use xlink:href="#DejaVuSans-74" transform="translate(1219.304688 0)"/>
      <use xlink:href="#DejaVuSans-20" transform="translate(1258.513672 0)"/>
      <use xlink:href="#DejaVuSans-52" transform="translate(1290.300781 0)"/>
      <use xlink:href="#DejaVuSans-6f" transform="translate(1355.283203 0)"/>
      <use xlink:href="#DejaVuSans-73" transform="translate(1416.464844 0)"/>
      <use xlink:href="#DejaVuSans-65" transform="translate(1468.564453 0)"/>
     </g>
    </g>
   </g>
  </g>
 </g>
 <defs>
  <clipPath id="pcba9f370b5">
   <rect x="50.87" y="26.88" width="945.971908" height="435.16"/>
  </clipPath>
 </defs>
</svg>
