<?xml version="1.0" encoding="utf-8" standalone="no"?>
<!DOCTYPE svg PUBLIC "-//W3C//DTD SVG 1.1//EN"
  "http://www.w3.org/Graphics/SVG/1.1/DTD/svg11.dtd">
<svg xmlns:xlink="http://www.w3.org/1999/xlink" width="1008pt" height="504pt" viewBox="0 0 1008 504" xmlns="http://www.w3.org/2000/svg" version="1.1">
 <metadata>
  <rdf:RDF xmlns:dc="http://purl.org/dc/elements/1.1/" xmlns:cc="http://creativecommons.org/ns#" xmlns:rdf="http://www.w3.org/1999/02/22-rdf-syntax-ns#">
   <cc:Work>
    <dc:type rdf:resource="http://purl.org/dc/dcmitype/StillImage"/>
    <dc:date>2025-01-01T17:01:12.512284</dc:date>
    <dc:format>image/svg+xml</dc:format>
    <dc:creator>
     <cc:Agent>
      <dc:title>Matplotlib v3.10.0, https://matplotlib.org/</dc:title>
     </cc:Agent>
    </dc:creator>
   </cc:Work>
  </rdf:RDF>
 </metadata>
 <defs>
  <style type="text/css">*{stroke-linejoin: round; stroke-linecap: butt}</style>
 </defs>
 <g id="figure_1">
  <g id="patch_1">
   <path d="M 0 504 
L 1008 504 
L 1008 0 
L 0 0 
z
" style="fill: #ffffff"/>
  </g>
  <g id="axes_1">
   <g id="patch_2">
    <path d="M 57.17 462.04 
L 997.2 462.04 
L 997.2 26.88 
L 57.17 26.88 
z
" style="fill: #ffffff"/>
   </g>
   <g id="matplotlib.axis_1">
    <g id="xtick_1">
     <g id="line2d_1">
      <path d="M 99.898636 462.04 
L 99.898636 26.88 
" clip-path="url(#p8a13b72c1e)" style="fill: none; stroke: #b0b0b0; stroke-width: 0.8; stroke-linecap: square"/>
     </g>
     <g id="line2d_2">
      <defs>
       <path id="mbcd64570df" d="M 0 0 
L 0 3.5 
" style="stroke: #000000; stroke-width: 0.8"/>
      </defs>
      <g>
       <use xlink:href="#mbcd64570df" x="99.898636" y="462.04" style="stroke: #000000; stroke-width: 0.8"/>
      </g>
     </g>
     <g id="text_1">
      <!-- 0 -->
      <g transform="translate(96.717386 476.638438) scale(0.1 -0.1)">
       <defs>
        <path id="DejaVuSans-30" d="M 2034 4250 
Q 1547 4250 1301 3770 
Q 1056 3291 1056 2328 
Q 1056 1369 1301 889 
Q 1547 409 2034 409 
Q 2525 409 2770 889 
Q 3016 1369 3016 2328 
Q 3016 3291 2770 3770 
Q 2525 4250 2034 4250 
z
M 2034 4750 
Q 2819 4750 3233 4129 
Q 3647 3509 3647 2328 
Q 3647 1150 3233 529 
Q 2819 -91 2034 -91 
Q 1250 -91 836 529 
Q 422 1150 422 2328 
Q 422 3509 836 4129 
Q 1250 4750 2034 4750 
z
" transform="scale(0.015625)"/>
       </defs>
       <use xlink:href="#DejaVuSans-30"/>
      </g>
     </g>
    </g>
    <g id="xtick_2">
     <g id="line2d_3">
      <path d="M 214.760562 462.04 
L 214.760562 26.88 
" clip-path="url(#p8a13b72c1e)" style="fill: none; stroke: #b0b0b0; stroke-width: 0.8; stroke-linecap: square"/>
     </g>
     <g id="line2d_4">
      <g>
       <use xlink:href="#mbcd64570df" x="214.760562" y="462.04" style="stroke: #000000; stroke-width: 0.8"/>
      </g>
     </g>
     <g id="text_2">
      <!-- 25 -->
      <g transform="translate(208.398062 476.638438) scale(0.1 -0.1)">
       <defs>
        <path id="DejaVuSans-32" d="M 1228 531 
L 3431 531 
L 3431 0 
L 469 0 
L 469 531 
Q 828 903 1448 1529 
Q 2069 2156 2228 2338 
Q 2531 2678 2651 2914 
Q 2772 3150 2772 3378 
Q 2772 3750 2511 3984 
Q 2250 4219 1831 4219 
Q 1534 4219 1204 4116 
Q 875 4013 500 3803 
L 500 4441 
Q 881 4594 1212 4672 
Q 1544 4750 1819 4750 
Q 2544 4750 2975 4387 
Q 3406 4025 3406 3419 
Q 3406 3131 3298 2873 
Q 3191 2616 2906 2266 
Q 2828 2175 2409 1742 
Q 1991 1309 1228 531 
z
" transform="scale(0.015625)"/>
        <path id="DejaVuSans-35" d="M 691 4666 
L 3169 4666 
L 3169 4134 
L 1269 4134 
L 1269 2991 
Q 1406 3038 1543 3061 
Q 1681 3084 1819 3084 
Q 2600 3084 3056 2656 
Q 3513 2228 3513 1497 
Q 3513 744 3044 326 
Q 2575 -91 1722 -91 
Q 1428 -91 1123 -41 
Q 819 9 494 109 
L 494 744 
Q 775 591 1075 516 
Q 1375 441 1709 441 
Q 2250 441 2565 725 
Q 2881 1009 2881 1497 
Q 2881 1984 2565 2268 
Q 2250 2553 1709 2553 
Q 1456 2553 1204 2497 
Q 953 2441 691 2322 
L 691 4666 
z
" transform="scale(0.015625)"/>
       </defs>
       <use xlink:href="#DejaVuSans-32"/>
       <use xlink:href="#DejaVuSans-35" transform="translate(63.623047 0)"/>
      </g>
     </g>
    </g>
    <g id="xtick_3">
     <g id="line2d_5">
      <path d="M 329.622488 462.04 
L 329.622488 26.88 
" clip-path="url(#p8a13b72c1e)" style="fill: none; stroke: #b0b0b0; stroke-width: 0.8; stroke-linecap: square"/>
     </g>
     <g id="line2d_6">
      <g>
       <use xlink:href="#mbcd64570df" x="329.622488" y="462.04" style="stroke: #000000; stroke-width: 0.8"/>
      </g>
     </g>
     <g id="text_3">
      <!-- 50 -->
      <g transform="translate(323.259988 476.638438) scale(0.1 -0.1)">
       <use xlink:href="#DejaVuSans-35"/>
       <use xlink:href="#DejaVuSans-30" transform="translate(63.623047 0)"/>
      </g>
     </g>
    </g>
    <g id="xtick_4">
     <g id="line2d_7">
      <path d="M 444.484413 462.04 
L 444.484413 26.88 
" clip-path="url(#p8a13b72c1e)" style="fill: none; stroke: #b0b0b0; stroke-width: 0.8; stroke-linecap: square"/>
     </g>
     <g id="line2d_8">
      <g>
       <use xlink:href="#mbcd64570df" x="444.484413" y="462.04" style="stroke: #000000; stroke-width: 0.8"/>
      </g>
     </g>
     <g id="text_4">
      <!-- 75 -->
      <g transform="translate(438.121913 476.638438) scale(0.1 -0.1)">
       <defs>
        <path id="DejaVuSans-37" d="M 525 4666 
L 3525 4666 
L 3525 4397 
L 1831 0 
L 1172 0 
L 2766 4134 
L 525 4134 
L 525 4666 
z
" transform="scale(0.015625)"/>
       </defs>
       <use xlink:href="#DejaVuSans-37"/>
       <use xlink:href="#DejaVuSans-35" transform="translate(63.623047 0)"/>
      </g>
     </g>
    </g>
    <g id="xtick_5">
     <g id="line2d_9">
      <path d="M 559.346339 462.04 
L 559.346339 26.88 
" clip-path="url(#p8a13b72c1e)" style="fill: none; stroke: #b0b0b0; stroke-width: 0.8; stroke-linecap: square"/>
     </g>
     <g id="line2d_10">
      <g>
       <use xlink:href="#mbcd64570df" x="559.346339" y="462.04" style="stroke: #000000; stroke-width: 0.8"/>
      </g>
     </g>
     <g id="text_5">
      <!-- 100 -->
      <g transform="translate(549.802589 476.638438) scale(0.1 -0.1)">
       <defs>
        <path id="DejaVuSans-31" d="M 794 531 
L 1825 531 
L 1825 4091 
L 703 3866 
L 703 4441 
L 1819 4666 
L 2450 4666 
L 2450 531 
L 3481 531 
L 3481 0 
L 794 0 
L 794 531 
z
" transform="scale(0.015625)"/>
       </defs>
       <use xlink:href="#DejaVuSans-31"/>
       <use xlink:href="#DejaVuSans-30" transform="translate(63.623047 0)"/>
       <use xlink:href="#DejaVuSans-30" transform="translate(127.246094 0)"/>
      </g>
     </g>
    </g>
    <g id="xtick_6">
     <g id="line2d_11">
      <path d="M 674.208265 462.04 
L 674.208265 26.88 
" clip-path="url(#p8a13b72c1e)" style="fill: none; stroke: #b0b0b0; stroke-width: 0.8; stroke-linecap: square"/>
     </g>
     <g id="line2d_12">
      <g>
       <use xlink:href="#mbcd64570df" x="674.208265" y="462.04" style="stroke: #000000; stroke-width: 0.8"/>
      </g>
     </g>
     <g id="text_6">
      <!-- 125 -->
      <g transform="translate(664.664515 476.638438) scale(0.1 -0.1)">
       <use xlink:href="#DejaVuSans-31"/>
       <use xlink:href="#DejaVuSans-32" transform="translate(63.623047 0)"/>
       <use xlink:href="#DejaVuSans-35" transform="translate(127.246094 0)"/>
      </g>
     </g>
    </g>
    <g id="xtick_7">
     <g id="line2d_13">
      <path d="M 789.070191 462.04 
L 789.070191 26.88 
" clip-path="url(#p8a13b72c1e)" style="fill: none; stroke: #b0b0b0; stroke-width: 0.8; stroke-linecap: square"/>
     </g>
     <g id="line2d_14">
      <g>
       <use xlink:href="#mbcd64570df" x="789.070191" y="462.04" style="stroke: #000000; stroke-width: 0.8"/>
      </g>
     </g>
     <g id="text_7">
      <!-- 150 -->
      <g transform="translate(779.526441 476.638438) scale(0.1 -0.1)">
       <use xlink:href="#DejaVuSans-31"/>
       <use xlink:href="#DejaVuSans-35" transform="translate(63.623047 0)"/>
       <use xlink:href="#DejaVuSans-30" transform="translate(127.246094 0)"/>
      </g>
     </g>
    </g>
    <g id="xtick_8">
     <g id="line2d_15">
      <path d="M 903.932116 462.04 
L 903.932116 26.88 
" clip-path="url(#p8a13b72c1e)" style="fill: none; stroke: #b0b0b0; stroke-width: 0.8; stroke-linecap: square"/>
     </g>
     <g id="line2d_16">
      <g>
       <use xlink:href="#mbcd64570df" x="903.932116" y="462.04" style="stroke: #000000; stroke-width: 0.8"/>
      </g>
     </g>
     <g id="text_8">
      <!-- 175 -->
      <g transform="translate(894.388366 476.638438) scale(0.1 -0.1)">
       <use xlink:href="#DejaVuSans-31"/>
       <use xlink:href="#DejaVuSans-37" transform="translate(63.623047 0)"/>
       <use xlink:href="#DejaVuSans-35" transform="translate(127.246094 0)"/>
      </g>
     </g>
    </g>
    <g id="text_9">
     <!-- Date -->
     <g transform="translate(515.234219 490.316563) scale(0.1 -0.1)">
      <defs>
       <path id="DejaVuSans-44" d="M 1259 4147 
L 1259 519 
L 2022 519 
Q 2988 519 3436 956 
Q 3884 1394 3884 2338 
Q 3884 3275 3436 3711 
Q 2988 4147 2022 4147 
L 1259 4147 
z
M 628 4666 
L 1925 4666 
Q 3281 4666 3915 4102 
Q 4550 3538 4550 2338 
Q 4550 1131 3912 565 
Q 3275 0 1925 0 
L 628 0 
L 628 4666 
z
" transform="scale(0.015625)"/>
       <path id="DejaVuSans-61" d="M 2194 1759 
Q 1497 1759 1228 1600 
Q 959 1441 959 1056 
Q 959 750 1161 570 
Q 1363 391 1709 391 
Q 2188 391 2477 730 
Q 2766 1069 2766 1631 
L 2766 1759 
L 2194 1759 
z
M 3341 1997 
L 3341 0 
L 2766 0 
L 2766 531 
Q 2569 213 2275 61 
Q 1981 -91 1556 -91 
Q 1019 -91 701 211 
Q 384 513 384 1019 
Q 384 1609 779 1909 
Q 1175 2209 1959 2209 
L 2766 2209 
L 2766 2266 
Q 2766 2663 2505 2880 
Q 2244 3097 1772 3097 
Q 1472 3097 1187 3025 
Q 903 2953 641 2809 
L 641 3341 
Q 956 3463 1253 3523 
Q 1550 3584 1831 3584 
Q 2591 3584 2966 3190 
Q 3341 2797 3341 1997 
z
" transform="scale(0.015625)"/>
       <path id="DejaVuSans-74" d="M 1172 4494 
L 1172 3500 
L 2356 3500 
L 2356 3053 
L 1172 3053 
L 1172 1153 
Q 1172 725 1289 603 
Q 1406 481 1766 481 
L 2356 481 
L 2356 0 
L 1766 0 
Q 1100 0 847 248 
Q 594 497 594 1153 
L 594 3053 
L 172 3053 
L 172 3500 
L 594 3500 
L 594 4494 
L 1172 4494 
z
" transform="scale(0.015625)"/>
       <path id="DejaVuSans-65" d="M 3597 1894 
L 3597 1613 
L 953 1613 
Q 991 1019 1311 708 
Q 1631 397 2203 397 
Q 2534 397 2845 478 
Q 3156 559 3463 722 
L 3463 178 
Q 3153 47 2828 -22 
Q 2503 -91 2169 -91 
Q 1331 -91 842 396 
Q 353 884 353 1716 
Q 353 2575 817 3079 
Q 1281 3584 2069 3584 
Q 2775 3584 3186 3129 
Q 3597 2675 3597 1894 
z
M 3022 2063 
Q 3016 2534 2758 2815 
Q 2500 3097 2075 3097 
Q 1594 3097 1305 2825 
Q 1016 2553 972 2059 
L 3022 2063 
z
" transform="scale(0.015625)"/>
      </defs>
      <use xlink:href="#DejaVuSans-44"/>
      <use xlink:href="#DejaVuSans-61" transform="translate(77.001953 0)"/>
      <use xlink:href="#DejaVuSans-74" transform="translate(138.28125 0)"/>
      <use xlink:href="#DejaVuSans-65" transform="translate(177.490234 0)"/>
     </g>
    </g>
   </g>
   <g id="matplotlib.axis_2">
    <g id="ytick_1">
     <g id="line2d_17">
      <path d="M 57.17 438.434537 
L 997.2 438.434537 
" clip-path="url(#p8a13b72c1e)" style="fill: none; stroke: #b0b0b0; stroke-width: 0.8; stroke-linecap: square"/>
     </g>
     <g id="line2d_18">
      <defs>
       <path id="mc4a72e9509" d="M 0 0 
L -3.5 0 
" style="stroke: #000000; stroke-width: 0.8"/>
      </defs>
      <g>
       <use xlink:href="#mc4a72e9509" x="57.17" y="438.434537" style="stroke: #000000; stroke-width: 0.8"/>
      </g>
     </g>
     <g id="text_10">
      <!-- 1000 -->
      <g transform="translate(24.72 442.233756) scale(0.1 -0.1)">
       <use xlink:href="#DejaVuSans-31"/>
       <use xlink:href="#DejaVuSans-30" transform="translate(63.623047 0)"/>
       <use xlink:href="#DejaVuSans-30" transform="translate(127.246094 0)"/>
       <use xlink:href="#DejaVuSans-30" transform="translate(190.869141 0)"/>
      </g>
     </g>
    </g>
    <g id="ytick_2">
     <g id="line2d_19">
      <path d="M 57.17 375.670273 
L 997.2 375.670273 
" clip-path="url(#p8a13b72c1e)" style="fill: none; stroke: #b0b0b0; stroke-width: 0.8; stroke-linecap: square"/>
     </g>
     <g id="line2d_20">
      <g>
       <use xlink:href="#mc4a72e9509" x="57.17" y="375.670273" style="stroke: #000000; stroke-width: 0.8"/>
      </g>
     </g>
     <g id="text_11">
      <!-- 2000 -->
      <g transform="translate(24.72 379.469492) scale(0.1 -0.1)">
       <use xlink:href="#DejaVuSans-32"/>
       <use xlink:href="#DejaVuSans-30" transform="translate(63.623047 0)"/>
       <use xlink:href="#DejaVuSans-30" transform="translate(127.246094 0)"/>
       <use xlink:href="#DejaVuSans-30" transform="translate(190.869141 0)"/>
      </g>
     </g>
    </g>
    <g id="ytick_3">
     <g id="line2d_21">
      <path d="M 57.17 312.906009 
L 997.2 312.906009 
" clip-path="url(#p8a13b72c1e)" style="fill: none; stroke: #b0b0b0; stroke-width: 0.8; stroke-linecap: square"/>
     </g>
     <g id="line2d_22">
      <g>
       <use xlink:href="#mc4a72e9509" x="57.17" y="312.906009" style="stroke: #000000; stroke-width: 0.8"/>
      </g>
     </g>
     <g id="text_12">
      <!-- 3000 -->
      <g transform="translate(24.72 316.705228) scale(0.1 -0.1)">
       <defs>
        <path id="DejaVuSans-33" d="M 2597 2516 
Q 3050 2419 3304 2112 
Q 3559 1806 3559 1356 
Q 3559 666 3084 287 
Q 2609 -91 1734 -91 
Q 1441 -91 1130 -33 
Q 819 25 488 141 
L 488 750 
Q 750 597 1062 519 
Q 1375 441 1716 441 
Q 2309 441 2620 675 
Q 2931 909 2931 1356 
Q 2931 1769 2642 2001 
Q 2353 2234 1838 2234 
L 1294 2234 
L 1294 2753 
L 1863 2753 
Q 2328 2753 2575 2939 
Q 2822 3125 2822 3475 
Q 2822 3834 2567 4026 
Q 2313 4219 1838 4219 
Q 1578 4219 1281 4162 
Q 984 4106 628 3988 
L 628 4550 
Q 988 4650 1302 4700 
Q 1616 4750 1894 4750 
Q 2613 4750 3031 4423 
Q 3450 4097 3450 3541 
Q 3450 3153 3228 2886 
Q 3006 2619 2597 2516 
z
" transform="scale(0.015625)"/>
       </defs>
       <use xlink:href="#DejaVuSans-33"/>
       <use xlink:href="#DejaVuSans-30" transform="translate(63.623047 0)"/>
       <use xlink:href="#DejaVuSans-30" transform="translate(127.246094 0)"/>
       <use xlink:href="#DejaVuSans-30" transform="translate(190.869141 0)"/>
      </g>
     </g>
    </g>
    <g id="ytick_4">
     <g id="line2d_23">
      <path d="M 57.17 250.141745 
L 997.2 250.141745 
" clip-path="url(#p8a13b72c1e)" style="fill: none; stroke: #b0b0b0; stroke-width: 0.8; stroke-linecap: square"/>
     </g>
     <g id="line2d_24">
      <g>
       <use xlink:href="#mc4a72e9509" x="57.17" y="250.141745" style="stroke: #000000; stroke-width: 0.8"/>
      </g>
     </g>
     <g id="text_13">
      <!-- 4000 -->
      <g transform="translate(24.72 253.940963) scale(0.1 -0.1)">
       <defs>
        <path id="DejaVuSans-34" d="M 2419 4116 
L 825 1625 
L 2419 1625 
L 2419 4116 
z
M 2253 4666 
L 3047 4666 
L 3047 1625 
L 3713 1625 
L 3713 1100 
L 3047 1100 
L 3047 0 
L 2419 0 
L 2419 1100 
L 313 1100 
L 313 1709 
L 2253 4666 
z
" transform="scale(0.015625)"/>
       </defs>
       <use xlink:href="#DejaVuSans-34"/>
       <use xlink:href="#DejaVuSans-30" transform="translate(63.623047 0)"/>
       <use xlink:href="#DejaVuSans-30" transform="translate(127.246094 0)"/>
       <use xlink:href="#DejaVuSans-30" transform="translate(190.869141 0)"/>
      </g>
     </g>
    </g>
    <g id="ytick_5">
     <g id="line2d_25">
      <path d="M 57.17 187.37748 
L 997.2 187.37748 
" clip-path="url(#p8a13b72c1e)" style="fill: none; stroke: #b0b0b0; stroke-width: 0.8; stroke-linecap: square"/>
     </g>
     <g id="line2d_26">
      <g>
       <use xlink:href="#mc4a72e9509" x="57.17" y="187.37748" style="stroke: #000000; stroke-width: 0.8"/>
      </g>
     </g>
     <g id="text_14">
      <!-- 5000 -->
      <g transform="translate(24.72 191.176699) scale(0.1 -0.1)">
       <use xlink:href="#DejaVuSans-35"/>
       <use xlink:href="#DejaVuSans-30" transform="translate(63.623047 0)"/>
       <use xlink:href="#DejaVuSans-30" transform="translate(127.246094 0)"/>
       <use xlink:href="#DejaVuSans-30" transform="translate(190.869141 0)"/>
      </g>
     </g>
    </g>
    <g id="ytick_6">
     <g id="line2d_27">
      <path d="M 57.17 124.613216 
L 997.2 124.613216 
" clip-path="url(#p8a13b72c1e)" style="fill: none; stroke: #b0b0b0; stroke-width: 0.8; stroke-linecap: square"/>
     </g>
     <g id="line2d_28">
      <g>
       <use xlink:href="#mc4a72e9509" x="57.17" y="124.613216" style="stroke: #000000; stroke-width: 0.8"/>
      </g>
     </g>
     <g id="text_15">
      <!-- 6000 -->
      <g transform="translate(24.72 128.412435) scale(0.1 -0.1)">
       <defs>
        <path id="DejaVuSans-36" d="M 2113 2584 
Q 1688 2584 1439 2293 
Q 1191 2003 1191 1497 
Q 1191 994 1439 701 
Q 1688 409 2113 409 
Q 2538 409 2786 701 
Q 3034 994 3034 1497 
Q 3034 2003 2786 2293 
Q 2538 2584 2113 2584 
z
M 3366 4563 
L 3366 3988 
Q 3128 4100 2886 4159 
Q 2644 4219 2406 4219 
Q 1781 4219 1451 3797 
Q 1122 3375 1075 2522 
Q 1259 2794 1537 2939 
Q 1816 3084 2150 3084 
Q 2853 3084 3261 2657 
Q 3669 2231 3669 1497 
Q 3669 778 3244 343 
Q 2819 -91 2113 -91 
Q 1303 -91 875 529 
Q 447 1150 447 2328 
Q 447 3434 972 4092 
Q 1497 4750 2381 4750 
Q 2619 4750 2861 4703 
Q 3103 4656 3366 4563 
z
" transform="scale(0.015625)"/>
       </defs>
       <use xlink:href="#DejaVuSans-36"/>
       <use xlink:href="#DejaVuSans-30" transform="translate(63.623047 0)"/>
       <use xlink:href="#DejaVuSans-30" transform="translate(127.246094 0)"/>
       <use xlink:href="#DejaVuSans-30" transform="translate(190.869141 0)"/>
      </g>
     </g>
    </g>
    <g id="ytick_7">
     <g id="line2d_29">
      <path d="M 57.17 61.848952 
L 997.2 61.848952 
" clip-path="url(#p8a13b72c1e)" style="fill: none; stroke: #b0b0b0; stroke-width: 0.8; stroke-linecap: square"/>
     </g>
     <g id="line2d_30">
      <g>
       <use xlink:href="#mc4a72e9509" x="57.17" y="61.848952" style="stroke: #000000; stroke-width: 0.8"/>
      </g>
     </g>
     <g id="text_16">
      <!-- 7000 -->
      <g transform="translate(24.72 65.648171) scale(0.1 -0.1)">
       <use xlink:href="#DejaVuSans-37"/>
       <use xlink:href="#DejaVuSans-30" transform="translate(63.623047 0)"/>
       <use xlink:href="#DejaVuSans-30" transform="translate(127.246094 0)"/>
       <use xlink:href="#DejaVuSans-30" transform="translate(190.869141 0)"/>
      </g>
     </g>
    </g>
    <g id="text_17">
     <!-- Sales -->
     <g transform="translate(18.640313 257.768594) rotate(-90) scale(0.1 -0.1)">
      <defs>
       <path id="DejaVuSans-53" d="M 3425 4513 
L 3425 3897 
Q 3066 4069 2747 4153 
Q 2428 4238 2131 4238 
Q 1616 4238 1336 4038 
Q 1056 3838 1056 3469 
Q 1056 3159 1242 3001 
Q 1428 2844 1947 2747 
L 2328 2669 
Q 3034 2534 3370 2195 
Q 3706 1856 3706 1288 
Q 3706 609 3251 259 
Q 2797 -91 1919 -91 
Q 1588 -91 1214 -16 
Q 841 59 441 206 
L 441 856 
Q 825 641 1194 531 
Q 1563 422 1919 422 
Q 2459 422 2753 634 
Q 3047 847 3047 1241 
Q 3047 1584 2836 1778 
Q 2625 1972 2144 2069 
L 1759 2144 
Q 1053 2284 737 2584 
Q 422 2884 422 3419 
Q 422 4038 858 4394 
Q 1294 4750 2059 4750 
Q 2388 4750 2728 4690 
Q 3069 4631 3425 4513 
z
" transform="scale(0.015625)"/>
       <path id="DejaVuSans-6c" d="M 603 4863 
L 1178 4863 
L 1178 0 
L 603 0 
L 603 4863 
z
" transform="scale(0.015625)"/>
       <path id="DejaVuSans-73" d="M 2834 3397 
L 2834 2853 
Q 2591 2978 2328 3040 
Q 2066 3103 1784 3103 
Q 1356 3103 1142 2972 
Q 928 2841 928 2578 
Q 928 2378 1081 2264 
Q 1234 2150 1697 2047 
L 1894 2003 
Q 2506 1872 2764 1633 
Q 3022 1394 3022 966 
Q 3022 478 2636 193 
Q 2250 -91 1575 -91 
Q 1294 -91 989 -36 
Q 684 19 347 128 
L 347 722 
Q 666 556 975 473 
Q 1284 391 1588 391 
Q 1994 391 2212 530 
Q 2431 669 2431 922 
Q 2431 1156 2273 1281 
Q 2116 1406 1581 1522 
L 1381 1569 
Q 847 1681 609 1914 
Q 372 2147 372 2553 
Q 372 3047 722 3315 
Q 1072 3584 1716 3584 
Q 2034 3584 2315 3537 
Q 2597 3491 2834 3397 
z
" transform="scale(0.015625)"/>
      </defs>
      <use xlink:href="#DejaVuSans-53"/>
      <use xlink:href="#DejaVuSans-61" transform="translate(63.476562 0)"/>
      <use xlink:href="#DejaVuSans-6c" transform="translate(124.755859 0)"/>
      <use xlink:href="#DejaVuSans-65" transform="translate(152.539062 0)"/>
      <use xlink:href="#DejaVuSans-73" transform="translate(214.0625 0)"/>
     </g>
    </g>
   </g>
   <g id="line2d_31">
    <path d="M 99.898636 395.378252 
L 104.493113 401.340857 
L 109.08759 356.589937 
L 113.682067 393.746381 
L 118.276544 408.872569 
L 122.871022 414.77241 
L 127.465499 377.804258 
L 132.059976 347.238061 
L 136.654453 376.674501 
L 141.24893 338.262772 
L 145.843407 244.681254 
L 150.437884 176.142677 
L 155.032361 405.169477 
L 159.626838 405.608827 
L 164.221315 398.704758 
L 168.815792 377.176615 
L 173.410269 427.764612 
L 178.004746 408.30769 
L 182.599223 389.415647 
L 187.1937 346.04554 
L 191.788177 376.862794 
L 196.382654 358.535629 
L 200.977131 259.117034 
L 205.571608 215.558635 
L 210.166085 406.424763 
L 214.760562 417.785094 
L 219.355039 405.922648 
L 223.949516 388.850769 
L 228.543993 404.730127 
L 233.13847 410.253383 
L 237.732947 378.557429 
L 242.327424 382.134992 
L 246.921901 394.122967 
L 251.516378 343.409441 
L 256.110855 275.6868 
L 260.705332 217.25327 
L 265.299809 400.2111 
L 269.894286 398.390937 
L 274.488763 373.787345 
L 279.08324 414.897938 
L 283.677717 418.349973 
L 288.272195 423.057293 
L 292.866672 400.775979 
L 297.461149 356.966522 
L 302.055626 363.682299 
L 306.650103 343.597734 
L 311.24458 285.289733 
L 315.839057 192.210329 
L 320.433534 400.2111 
L 325.028011 411.132082 
L 329.622488 371.841653 
L 334.216965 388.913533 
L 338.811442 402.847199 
L 343.405919 413.077775 
L 348.000396 400.964272 
L 352.594873 302.926491 
L 357.18935 390.796461 
L 361.783827 344.037084 
L 366.378304 233.0071 
L 370.972781 170.180072 
L 375.567258 390.04329 
L 380.161735 395.629309 
L 384.756212 385.33597 
L 389.350689 401.466386 
L 393.945166 382.197757 
L 398.539643 414.646881 
L 403.13412 397.951587 
L 407.728597 343.53497 
L 412.323074 390.04329 
L 416.917551 267.276389 
L 421.512028 225.78921 
L 426.106505 160.13779 
L 430.700982 400.399393 
L 435.295459 405.608827 
L 439.889936 402.219557 
L 444.484413 400.462157 
L 449.078891 390.419875 
L 453.673368 413.140539 
L 458.267845 339.015943 
L 462.862322 292.946973 
L 467.456799 403.161021 
L 472.051276 353.765545 
L 476.645753 250.95768 
L 481.24023 131.454521 
L 485.834707 414.019239 
L 490.429184 410.692733 
L 495.023661 404.039721 
L 499.618138 379.74995 
L 504.212615 405.922648 
L 508.807092 422.743471 
L 513.401569 385.273206 
L 517.996046 380.063772 
L 522.590523 335.626673 
L 527.185 305.750883 
L 531.779477 224.722218 
L 536.373954 46.66 
L 540.968431 384.89662 
L 545.562908 389.541175 
L 550.157385 368.891733 
L 554.751862 354.58148 
L 559.346339 392.742153 
L 563.940816 396.947359 
L 568.535293 361.234492 
L 573.12977 397.951587 
L 577.724247 349.246518 
L 582.318724 266.460453 
L 586.913201 188.130652 
L 591.507678 77.100668 
L 596.102155 390.921989 
L 600.696632 413.705417 
L 605.291109 376.80003 
L 609.885587 397.637766 
L 614.480064 397.386708 
L 619.074541 412.952246 
L 623.669018 377.490437 
L 628.263495 377.67873 
L 632.857972 337.5096 
L 637.452449 259.870206 
L 642.046926 217.880913 
L 646.641403 81.054817 
L 651.23588 393.244267 
L 655.830357 418.287208 
L 660.424834 384.520034 
L 665.019311 399.018579 
L 669.613788 399.834515 
L 674.208265 409.751269 
L 678.802742 382.009464 
L 683.397219 400.462157 
L 687.991696 349.058225 
L 692.586173 305.625354 
L 697.18065 232.191165 
L 701.775127 121.663296 
L 706.369604 381.821171 
L 710.964081 372.594824 
L 715.558558 383.57857 
L 720.153035 420.923308 
L 724.747512 411.320375 
L 729.341989 404.541835 
L 733.936466 362.238721 
L 738.530943 384.645563 
L 743.12542 350.062453 
L 747.719897 297.089414 
L 752.314374 273.552815 
L 756.908851 115.010284 
L 761.503328 402.219557 
L 766.097805 396.570773 
L 770.692283 376.109623 
L 775.28676 375.858566 
L 779.881237 389.290118 
L 784.475714 399.206872 
L 789.070191 370.900189 
L 793.664668 389.917761 
L 798.259145 352.008145 
L 802.853622 307.382754 
L 807.448099 244.116375 
L 812.042576 117.144269 
L 816.637053 407.428991 
L 821.23153 403.035492 
L 825.826007 382.072228 
L 830.420484 368.075797 
L 835.014961 386.277434 
L 839.609438 406.110941 
L 844.203915 372.657588 
L 848.798392 325.772683 
L 853.392869 391.424103 
L 857.987346 291.628923 
L 862.581823 235.894257 
L 867.1763 98.879868 
L 871.770777 426.069977 
L 876.365254 377.67873 
L 880.959731 393.244267 
L 885.554208 392.930446 
L 890.148685 396.131423 
L 894.743162 394.938902 
L 899.337639 373.724581 
L 903.932116 407.366227 
L 908.526593 314.914465 
L 913.12107 288.741767 
L 917.715547 267.15086 
L 922.310024 124.67598 
L 926.904501 434.041039 
L 931.498978 413.203303 
L 936.093456 382.134992 
L 940.687933 384.331742 
L 945.28241 396.38248 
L 949.876887 395.252724 
L 954.471364 373.724581 
L 954.471364 373.724581 
" clip-path="url(#p8a13b72c1e)" style="fill: none; stroke: #0000ff; stroke-width: 1.5; stroke-linecap: square"/>
   </g>
   <g id="line2d_32">
    <path d="M 150.437884 352.625327 
L 155.032361 353.441263 
L 159.626838 353.796927 
L 164.221315 357.306495 
L 168.815792 355.925682 
L 173.410269 357.500019 
L 178.004746 356.961292 
L 182.599223 357.928908 
L 187.1937 357.829531 
L 191.788177 357.845222 
L 196.382654 359.534627 
L 200.977131 360.737609 
L 205.571608 364.022272 
L 210.166085 364.126879 
L 214.760562 365.141568 
L 219.355039 365.743059 
L 223.949516 366.715905 
L 228.543993 364.796364 
L 233.13847 364.958505 
L 237.732947 364.053654 
L 242.327424 367.061108 
L 246.921901 368.499456 
L 251.516378 367.23894 
L 256.110855 368.619754 
L 260.705332 368.760974 
L 265.299809 368.243168 
L 269.894286 366.626989 
L 274.488763 363.949047 
L 279.08324 366.119644 
L 288.272195 368.321624 
L 292.866672 370.17317 
L 297.461149 368.075797 
L 302.055626 365.539075 
L 306.650103 365.554766 
L 311.24458 366.35501 
L 315.839057 364.268098 
L 320.433534 364.268098 
L 325.028011 365.329861 
L 329.622488 365.16772 
L 334.216965 363.002352 
L 338.811442 361.710455 
L 343.405919 360.878828 
L 348.000396 360.894519 
L 352.594873 356.391183 
L 357.18935 358.650697 
L 361.783827 358.687309 
L 366.378304 354.330423 
L 370.972781 352.494569 
L 375.567258 351.647251 
L 380.161735 350.355353 
L 389.350689 352.525951 
L 393.945166 350.805164 
L 398.539643 350.935923 
L 403.13412 350.684866 
L 407.728597 354.068905 
L 412.323074 354.006141 
L 416.917551 347.609417 
L 421.512028 347.007926 
L 426.106505 346.171069 
L 435.295459 347.865704 
L 439.889936 349.27267 
L 444.484413 349.188984 
L 449.078891 349.87416 
L 453.673368 349.748632 
L 458.267845 344.837328 
L 462.862322 340.621662 
L 467.456799 341.714806 
L 472.051276 348.922236 
L 476.645753 351.019608 
L 481.24023 348.629336 
L 485.834707 349.764323 
L 490.429184 350.187982 
L 495.023661 350.339662 
L 499.618138 348.613645 
L 504.212615 349.905543 
L 508.807092 350.705787 
L 513.401569 354.560559 
L 517.996046 361.820292 
L 522.590523 356.19243 
L 527.185 352.191208 
L 531.779477 350.004919 
L 536.373954 342.938709 
L 540.968431 340.511824 
L 545.562908 338.749195 
L 550.157385 335.820196 
L 554.751862 333.722823 
L 559.346339 332.624449 
L 563.940816 330.474772 
L 568.535293 328.471546 
L 573.12977 329.962198 
L 577.724247 331.097185 
L 582.318724 327.822982 
L 586.913201 324.773685 
L 591.507678 327.310407 
L 596.102155 327.812522 
L 600.696632 329.826208 
L 605.291109 330.485233 
L 609.885587 334.073257 
L 614.480064 334.460303 
L 623.669018 337.148706 
L 628.263495 335.459301 
L 632.857972 334.481225 
L 637.452449 333.932037 
L 642.046926 336.411226 
L 646.641403 336.740738 
L 651.23588 336.934261 
L 655.830357 337.316077 
L 660.424834 337.959411 
L 669.613788 338.278463 
L 674.208265 338.011715 
L 678.802742 338.3883 
L 683.397219 340.286919 
L 687.991696 341.249305 
L 692.586173 345.062234 
L 697.18065 346.254755 
L 701.775127 349.638794 
L 706.369604 348.68687 
L 710.964081 344.879171 
L 715.558558 344.800716 
L 720.153035 346.62611 
L 724.747512 347.583265 
L 729.341989 347.149145 
L 733.936466 345.501583 
L 738.530943 344.183534 
L 743.12542 344.26722 
L 747.719897 343.555891 
L 752.314374 347.002695 
L 756.908851 346.448278 
L 761.503328 348.148143 
L 766.097805 350.146139 
L 770.692283 349.523727 
L 775.28676 345.768332 
L 779.881237 343.932477 
L 784.475714 343.487897 
L 789.070191 344.209686 
L 793.664668 344.649035 
L 798.259145 344.811176 
L 802.853622 345.668955 
L 807.448099 343.215918 
L 812.042576 343.39375 
L 821.23153 344.366596 
L 825.826007 344.86348 
L 830.420484 344.214916 
L 835.014961 343.963859 
L 839.609438 344.539198 
L 844.203915 344.685648 
L 848.798392 339.340225 
L 853.392869 342.624888 
L 857.987346 341.312069 
L 862.581823 340.626892 
L 867.1763 339.104859 
L 871.770777 340.658274 
L 876.365254 338.545211 
L 880.959731 339.476214 
L 885.554208 341.547435 
L 890.148685 342.368601 
L 894.743162 341.437597 
L 899.337639 341.526513 
L 903.932116 348.325975 
L 908.526593 341.950172 
L 913.12107 341.709576 
L 917.715547 344.314293 
L 922.310024 346.463969 
L 926.904501 347.128224 
L 931.498978 350.088605 
L 936.093456 349.162832 
L 940.687933 348.446273 
L 954.471364 348.493347 
L 954.471364 348.493347 
" clip-path="url(#p8a13b72c1e)" style="fill: none; stroke: #ff0000; stroke-width: 1.5; stroke-linecap: square"/>
   </g>
   <g id="line2d_33">
    <path d="M 150.437884 429.100773 
L 155.032361 428.519888 
L 159.626838 428.254218 
L 164.221315 427.103567 
L 168.815792 427.692328 
L 173.410269 426.26675 
L 178.004746 426.693924 
L 182.599223 426.324139 
L 191.788177 426.303543 
L 196.382654 426.557202 
L 200.977131 428.485116 
L 205.571608 437.215665 
L 210.166085 437.141294 
L 214.760562 436.333134 
L 223.949516 435.688737 
L 228.543993 437.323088 
L 233.13847 437.200248 
L 237.732947 437.501422 
L 242.327424 437.577034 
L 251.516378 436.779979 
L 256.110855 439.175199 
L 265.299809 439.874478 
L 274.488763 442.26 
L 279.08324 440.798048 
L 288.272195 438.964695 
L 292.866672 438.305459 
L 297.461149 438.320968 
L 302.055626 438.855566 
L 306.650103 438.861619 
L 311.24458 440.070243 
L 315.839057 434.356731 
L 320.433534 434.356731 
L 325.028011 433.667783 
L 329.622488 433.687602 
L 334.216965 435.02418 
L 338.811442 436.059712 
L 343.405919 436.855279 
L 348.000396 436.844643 
L 352.594873 434.690061 
L 357.18935 433.963235 
L 361.783827 433.972058 
L 366.378304 427.408985 
L 370.972781 422.874134 
L 375.567258 423.38392 
L 380.161735 424.338443 
L 384.756212 423.898049 
L 389.350689 423.263099 
L 393.945166 424.253505 
L 398.539643 424.136815 
L 403.13412 424.309904 
L 407.728597 425.722276 
L 412.323074 425.755288 
L 416.917551 421.68859 
L 421.512028 420.721395 
L 426.106505 418.688914 
L 435.295459 417.557303 
L 439.889936 416.731772 
L 444.484413 416.787705 
L 449.078891 416.462666 
L 453.673368 416.566292 
L 458.267845 417.91861 
L 462.862322 416.577106 
L 467.456799 415.799483 
L 476.645753 422.23576 
L 481.24023 415.763457 
L 485.834707 414.92681 
L 490.429184 414.61572 
L 495.023661 414.514747 
L 499.618138 415.401826 
L 504.212615 414.602107 
L 508.807092 413.922918 
L 513.401569 413.465828 
L 517.996046 415.445691 
L 522.590523 416.192635 
L 527.185 414.947122 
L 531.779477 411.870178 
L 536.373954 391.89093 
L 540.968431 393.298314 
L 545.562908 394.381667 
L 550.157385 395.863116 
L 559.346339 397.329549 
L 563.940816 399.112571 
L 568.535293 400.054117 
L 573.12977 399.097349 
L 577.724247 398.953057 
L 582.318724 397.449567 
L 586.913201 393.674791 
L 591.507678 400.7032 
L 596.102155 400.374805 
L 600.696632 398.800842 
L 605.291109 398.501551 
L 609.885587 396.844369 
L 614.480064 396.598663 
L 619.074541 395.631896 
L 623.669018 395.172459 
L 628.263495 396.071657 
L 632.857972 396.157027 
L 637.452449 395.752616 
L 642.046926 399.198828 
L 646.641403 400.110376 
L 651.23588 399.995065 
L 660.424834 399.374012 
L 669.613788 399.167797 
L 674.208265 399.3768 
L 678.802742 399.209297 
L 683.397219 398.204266 
L 687.991696 398.178624 
L 692.586173 400.647244 
L 697.18065 402.220154 
L 701.775127 411.889638 
L 706.369604 412.336913 
L 710.964081 414.641312 
L 715.558558 414.680091 
L 720.153035 413.213551 
L 724.747512 412.522338 
L 729.341989 412.842177 
L 733.936466 413.36854 
L 738.530943 414.153127 
L 743.12542 414.147532 
L 747.719897 413.769018 
L 752.314374 417.837921 
L 756.908851 416.197012 
L 766.097805 414.333141 
L 770.692283 414.568029 
L 775.28676 417.001961 
L 779.881237 418.331537 
L 784.475714 418.672657 
L 793.664668 418.208303 
L 798.259145 418.194866 
L 802.853622 418.681102 
L 807.448099 415.950044 
L 812.042576 416.468718 
L 825.826007 415.52489 
L 835.014961 415.891867 
L 839.609438 415.463213 
L 844.203915 415.412605 
L 848.798392 416.495651 
L 853.392869 415.205331 
L 857.987346 414.501027 
L 862.581823 413.634891 
L 867.1763 409.343597 
L 871.770777 407.936243 
L 876.365254 409.199311 
L 880.959731 408.663819 
L 885.554208 407.692413 
L 890.148685 407.221803 
L 894.743162 407.857498 
L 899.337639 407.824552 
L 903.932116 406.120772 
L 908.526593 406.710121 
L 913.12107 406.566773 
L 917.715547 409.354994 
L 922.310024 415.527329 
L 926.904501 414.82596 
L 931.498978 413.092274 
L 940.687933 413.885508 
L 954.471364 413.857786 
L 954.471364 413.857786 
" clip-path="url(#p8a13b72c1e)" style="fill: none; stroke: #008000; stroke-width: 1.5; stroke-linecap: square"/>
   </g>
   <g id="patch_3">
    <path d="M 57.17 462.04 
L 57.17 26.88 
" style="fill: none; stroke: #000000; stroke-width: 0.8; stroke-linejoin: miter; stroke-linecap: square"/>
   </g>
   <g id="patch_4">
    <path d="M 997.2 462.04 
L 997.2 26.88 
" style="fill: none; stroke: #000000; stroke-width: 0.8; stroke-linejoin: miter; stroke-linecap: square"/>
   </g>
   <g id="patch_5">
    <path d="M 57.17 462.04 
L 997.2 462.04 
" style="fill: none; stroke: #000000; stroke-width: 0.8; stroke-linejoin: miter; stroke-linecap: square"/>
   </g>
   <g id="patch_6">
    <path d="M 57.17 26.88 
L 997.2 26.88 
" style="fill: none; stroke: #000000; stroke-width: 0.8; stroke-linejoin: miter; stroke-linecap: square"/>
   </g>
   <g id="text_18">
    <!-- Sparkling Sales with Rolling Mean and Standard Deviation -->
    <g transform="translate(353.140938 20.88) scale(0.12 -0.12)">
     <defs>
      <path id="DejaVuSans-70" d="M 1159 525 
L 1159 -1331 
L 581 -1331 
L 581 3500 
L 1159 3500 
L 1159 2969 
Q 1341 3281 1617 3432 
Q 1894 3584 2278 3584 
Q 2916 3584 3314 3078 
Q 3713 2572 3713 1747 
Q 3713 922 3314 415 
Q 2916 -91 2278 -91 
Q 1894 -91 1617 61 
Q 1341 213 1159 525 
z
M 3116 1747 
Q 3116 2381 2855 2742 
Q 2594 3103 2138 3103 
Q 1681 3103 1420 2742 
Q 1159 2381 1159 1747 
Q 1159 1113 1420 752 
Q 1681 391 2138 391 
Q 2594 391 2855 752 
Q 3116 1113 3116 1747 
z
" transform="scale(0.015625)"/>
      <path id="DejaVuSans-72" d="M 2631 2963 
Q 2534 3019 2420 3045 
Q 2306 3072 2169 3072 
Q 1681 3072 1420 2755 
Q 1159 2438 1159 1844 
L 1159 0 
L 581 0 
L 581 3500 
L 1159 3500 
L 1159 2956 
Q 1341 3275 1631 3429 
Q 1922 3584 2338 3584 
Q 2397 3584 2469 3576 
Q 2541 3569 2628 3553 
L 2631 2963 
z
" transform="scale(0.015625)"/>
      <path id="DejaVuSans-6b" d="M 581 4863 
L 1159 4863 
L 1159 1991 
L 2875 3500 
L 3609 3500 
L 1753 1863 
L 3688 0 
L 2938 0 
L 1159 1709 
L 1159 0 
L 581 0 
L 581 4863 
z
" transform="scale(0.015625)"/>
      <path id="DejaVuSans-69" d="M 603 3500 
L 1178 3500 
L 1178 0 
L 603 0 
L 603 3500 
z
M 603 4863 
L 1178 4863 
L 1178 4134 
L 603 4134 
L 603 4863 
z
" transform="scale(0.015625)"/>
      <path id="DejaVuSans-6e" d="M 3513 2113 
L 3513 0 
L 2938 0 
L 2938 2094 
Q 2938 2591 2744 2837 
Q 2550 3084 2163 3084 
Q 1697 3084 1428 2787 
Q 1159 2491 1159 1978 
L 1159 0 
L 581 0 
L 581 3500 
L 1159 3500 
L 1159 2956 
Q 1366 3272 1645 3428 
Q 1925 3584 2291 3584 
Q 2894 3584 3203 3211 
Q 3513 2838 3513 2113 
z
" transform="scale(0.015625)"/>
      <path id="DejaVuSans-67" d="M 2906 1791 
Q 2906 2416 2648 2759 
Q 2391 3103 1925 3103 
Q 1463 3103 1205 2759 
Q 947 2416 947 1791 
Q 947 1169 1205 825 
Q 1463 481 1925 481 
Q 2391 481 2648 825 
Q 2906 1169 2906 1791 
z
M 3481 434 
Q 3481 -459 3084 -895 
Q 2688 -1331 1869 -1331 
Q 1566 -1331 1297 -1286 
Q 1028 -1241 775 -1147 
L 775 -588 
Q 1028 -725 1275 -790 
Q 1522 -856 1778 -856 
Q 2344 -856 2625 -561 
Q 2906 -266 2906 331 
L 2906 616 
Q 2728 306 2450 153 
Q 2172 0 1784 0 
Q 1141 0 747 490 
Q 353 981 353 1791 
Q 353 2603 747 3093 
Q 1141 3584 1784 3584 
Q 2172 3584 2450 3431 
Q 2728 3278 2906 2969 
L 2906 3500 
L 3481 3500 
L 3481 434 
z
" transform="scale(0.015625)"/>
      <path id="DejaVuSans-20" transform="scale(0.015625)"/>
      <path id="DejaVuSans-77" d="M 269 3500 
L 844 3500 
L 1563 769 
L 2278 3500 
L 2956 3500 
L 3675 769 
L 4391 3500 
L 4966 3500 
L 4050 0 
L 3372 0 
L 2619 2869 
L 1863 0 
L 1184 0 
L 269 3500 
z
" transform="scale(0.015625)"/>
      <path id="DejaVuSans-68" d="M 3513 2113 
L 3513 0 
L 2938 0 
L 2938 2094 
Q 2938 2591 2744 2837 
Q 2550 3084 2163 3084 
Q 1697 3084 1428 2787 
Q 1159 2491 1159 1978 
L 1159 0 
L 581 0 
L 581 4863 
L 1159 4863 
L 1159 2956 
Q 1366 3272 1645 3428 
Q 1925 3584 2291 3584 
Q 2894 3584 3203 3211 
Q 3513 2838 3513 2113 
z
" transform="scale(0.015625)"/>
      <path id="DejaVuSans-52" d="M 2841 2188 
Q 3044 2119 3236 1894 
Q 3428 1669 3622 1275 
L 4263 0 
L 3584 0 
L 2988 1197 
Q 2756 1666 2539 1819 
Q 2322 1972 1947 1972 
L 1259 1972 
L 1259 0 
L 628 0 
L 628 4666 
L 2053 4666 
Q 2853 4666 3247 4331 
Q 3641 3997 3641 3322 
Q 3641 2881 3436 2590 
Q 3231 2300 2841 2188 
z
M 1259 4147 
L 1259 2491 
L 2053 2491 
Q 2509 2491 2742 2702 
Q 2975 2913 2975 3322 
Q 2975 3731 2742 3939 
Q 2509 4147 2053 4147 
L 1259 4147 
z
" transform="scale(0.015625)"/>
      <path id="DejaVuSans-6f" d="M 1959 3097 
Q 1497 3097 1228 2736 
Q 959 2375 959 1747 
Q 959 1119 1226 758 
Q 1494 397 1959 397 
Q 2419 397 2687 759 
Q 2956 1122 2956 1747 
Q 2956 2369 2687 2733 
Q 2419 3097 1959 3097 
z
M 1959 3584 
Q 2709 3584 3137 3096 
Q 3566 2609 3566 1747 
Q 3566 888 3137 398 
Q 2709 -91 1959 -91 
Q 1206 -91 779 398 
Q 353 888 353 1747 
Q 353 2609 779 3096 
Q 1206 3584 1959 3584 
z
" transform="scale(0.015625)"/>
      <path id="DejaVuSans-4d" d="M 628 4666 
L 1569 4666 
L 2759 1491 
L 3956 4666 
L 4897 4666 
L 4897 0 
L 4281 0 
L 4281 4097 
L 3078 897 
L 2444 897 
L 1241 4097 
L 1241 0 
L 628 0 
L 628 4666 
z
" transform="scale(0.015625)"/>
      <path id="DejaVuSans-64" d="M 2906 2969 
L 2906 4863 
L 3481 4863 
L 3481 0 
L 2906 0 
L 2906 525 
Q 2725 213 2448 61 
Q 2172 -91 1784 -91 
Q 1150 -91 751 415 
Q 353 922 353 1747 
Q 353 2572 751 3078 
Q 1150 3584 1784 3584 
Q 2172 3584 2448 3432 
Q 2725 3281 2906 2969 
z
M 947 1747 
Q 947 1113 1208 752 
Q 1469 391 1925 391 
Q 2381 391 2643 752 
Q 2906 1113 2906 1747 
Q 2906 2381 2643 2742 
Q 2381 3103 1925 3103 
Q 1469 3103 1208 2742 
Q 947 2381 947 1747 
z
" transform="scale(0.015625)"/>
      <path id="DejaVuSans-76" d="M 191 3500 
L 800 3500 
L 1894 563 
L 2988 3500 
L 3597 3500 
L 2284 0 
L 1503 0 
L 191 3500 
z
" transform="scale(0.015625)"/>
     </defs>
     <use xlink:href="#DejaVuSans-53"/>
     <use xlink:href="#DejaVuSans-70" transform="translate(63.476562 0)"/>
     <use xlink:href="#DejaVuSans-61" transform="translate(126.953125 0)"/>
     <use xlink:href="#DejaVuSans-72" transform="translate(188.232422 0)"/>
     <use xlink:href="#DejaVuSans-6b" transform="translate(229.345703 0)"/>
     <use xlink:href="#DejaVuSans-6c" transform="translate(287.255859 0)"/>
     <use xlink:href="#DejaVuSans-69" transform="translate(315.039062 0)"/>
     <use xlink:href="#DejaVuSans-6e" transform="translate(342.822266 0)"/>
     <use xlink:href="#DejaVuSans-67" transform="translate(406.201172 0)"/>
     <use xlink:href="#DejaVuSans-20" transform="translate(469.677734 0)"/>
     <use xlink:href="#DejaVuSans-53" transform="translate(501.464844 0)"/>
     <use xlink:href="#DejaVuSans-61" transform="translate(564.941406 0)"/>
     <use xlink:href="#DejaVuSans-6c" transform="translate(626.220703 0)"/>
     <use xlink:href="#DejaVuSans-65" transform="translate(654.003906 0)"/>
     <use xlink:href="#DejaVuSans-73" transform="translate(715.527344 0)"/>
     <use xlink:href="#DejaVuSans-20" transform="translate(767.626953 0)"/>
     <use xlink:href="#DejaVuSans-77" transform="translate(799.414062 0)"/>
     <use xlink:href="#DejaVuSans-69" transform="translate(881.201172 0)"/>
     <use xlink:href="#DejaVuSans-74" transform="translate(908.984375 0)"/>
     <use xlink:href="#DejaVuSans-68" transform="translate(948.193359 0)"/>
     <use xlink:href="#DejaVuSans-20" transform="translate(1011.572266 0)"/>
     <use xlink:href="#DejaVuSans-52" transform="translate(1043.359375 0)"/>
     <use xlink:href="#DejaVuSans-6f" transform="translate(1108.341797 0)"/>
     <use xlink:href="#DejaVuSans-6c" transform="translate(1169.523438 0)"/>
     <use xlink:href="#DejaVuSans-6c" transform="translate(1197.306641 0)"/>
     <use xlink:href="#DejaVuSans-69" transform="translate(1225.089844 0)"/>
     <use xlink:href="#DejaVuSans-6e" transform="translate(1252.873047 0)"/>
     <use xlink:href="#DejaVuSans-67" transform="translate(1316.251953 0)"/>
     <use xlink:href="#DejaVuSans-20" transform="translate(1379.728516 0)"/>
     <use xlink:href="#DejaVuSans-4d" transform="translate(1411.515625 0)"/>
     <use xlink:href="#DejaVuSans-65" transform="translate(1497.794922 0)"/>
     <use xlink:href="#DejaVuSans-61" transform="translate(1559.318359 0)"/>
     <use xlink:href="#DejaVuSans-6e" transform="translate(1620.597656 0)"/>
     <use xlink:href="#DejaVuSans-20" transform="translate(1683.976562 0)"/>
     <use xlink:href="#DejaVuSans-61" transform="translate(1715.763672 0)"/>
     <use xlink:href="#DejaVuSans-6e" transform="translate(1777.042969 0)"/>
     <use xlink:href="#DejaVuSans-64" transform="translate(1840.421875 0)"/>
     <use xlink:href="#DejaVuSans-20" transform="translate(1903.898438 0)"/>
     <use xlink:href="#DejaVuSans-53" transform="translate(1935.685547 0)"/>
     <use xlink:href="#DejaVuSans-74" transform="translate(1999.162109 0)"/>
     <use xlink:href="#DejaVuSans-61" transform="translate(2038.371094 0)"/>
     <use xlink:href="#DejaVuSans-6e" transform="translate(2099.650391 0)"/>
     <use xlink:href="#DejaVuSans-64" transform="translate(2163.029297 0)"/>
     <use xlink:href="#DejaVuSans-61" transform="translate(2226.505859 0)"/>
     <use xlink:href="#DejaVuSans-72" transform="translate(2287.785156 0)"/>
     <use xlink:href="#DejaVuSans-64" transform="translate(2327.148438 0)"/>
     <use xlink:href="#DejaVuSans-20" transform="translate(2390.625 0)"/>
     <use xlink:href="#DejaVuSans-44" transform="translate(2422.412109 0)"/>
     <use xlink:href="#DejaVuSans-65" transform="translate(2499.414062 0)"/>
     <use xlink:href="#DejaVuSans-76" transform="translate(2560.9375 0)"/>
     <use xlink:href="#DejaVuSans-69" transform="translate(2620.117188 0)"/>
     <use xlink:href="#DejaVuSans-61" transform="translate(2647.900391 0)"/>
     <use xlink:href="#DejaVuSans-74" transform="translate(2709.179688 0)"/>
     <use xlink:href="#DejaVuSans-69" transform="translate(2748.388672 0)"/>
     <use xlink:href="#DejaVuSans-6f" transform="translate(2776.171875 0)"/>
     <use xlink:href="#DejaVuSans-6e" transform="translate(2837.353516 0)"/>
    </g>
   </g>
   <g id="legend_1">
    <g id="patch_7">
     <path d="M 793.1375 78.914375 
L 990.2 78.914375 
Q 992.2 78.914375 992.2 76.914375 
L 992.2 33.88 
Q 992.2 31.88 990.2 31.88 
L 793.1375 31.88 
Q 791.1375 31.88 791.1375 33.88 
L 791.1375 76.914375 
Q 791.1375 78.914375 793.1375 78.914375 
z
" style="fill: #ffffff; opacity: 0.8; stroke: #cccccc; stroke-linejoin: miter"/>
    </g>
    <g id="line2d_34">
     <path d="M 795.1375 39.978437 
L 805.1375 39.978437 
L 815.1375 39.978437 
" style="fill: none; stroke: #0000ff; stroke-width: 1.5; stroke-linecap: square"/>
    </g>
    <g id="text_19">
     <!-- Sparkling Sales -->
     <g transform="translate(823.1375 43.478437) scale(0.1 -0.1)">
      <use xlink:href="#DejaVuSans-53"/>
      <use xlink:href="#DejaVuSans-70" transform="translate(63.476562 0)"/>
      <use xlink:href="#DejaVuSans-61" transform="translate(126.953125 0)"/>
      <use xlink:href="#DejaVuSans-72" transform="translate(188.232422 0)"/>
      <use xlink:href="#DejaVuSans-6b" transform="translate(229.345703 0)"/>
      <use xlink:href="#DejaVuSans-6c" transform="translate(287.255859 0)"/>
      <use xlink:href="#DejaVuSans-69" transform="translate(315.039062 0)"/>
      <use xlink:href="#DejaVuSans-6e" transform="translate(342.822266 0)"/>
      <use xlink:href="#DejaVuSans-67" transform="translate(406.201172 0)"/>
      <use xlink:href="#DejaVuSans-20" transform="translate(469.677734 0)"/>
      <use xlink:href="#DejaVuSans-53" transform="translate(501.464844 0)"/>
      <use xlink:href="#DejaVuSans-61" transform="translate(564.941406 0)"/>
      <use xlink:href="#DejaVuSans-6c" transform="translate(626.220703 0)"/>
      <use xlink:href="#DejaVuSans-65" transform="translate(654.003906 0)"/>
      <use xlink:href="#DejaVuSans-73" transform="translate(715.527344 0)"/>
     </g>
    </g>
    <g id="line2d_35">
     <path d="M 795.1375 54.656562 
L 805.1375 54.656562 
L 815.1375 54.656562 
" style="fill: none; stroke: #ff0000; stroke-width: 1.5; stroke-linecap: square"/>
    </g>
    <g id="text_20">
     <!-- Sparkling 12-Month Rolling Mean -->
     <g transform="translate(823.1375 58.156562) scale(0.1 -0.1)">
      <defs>
       <path id="DejaVuSans-2d" d="M 313 2009 
L 1997 2009 
L 1997 1497 
L 313 1497 
L 313 2009 
z
" transform="scale(0.015625)"/>
      </defs>
      <use xlink:href="#DejaVuSans-53"/>
      <use xlink:href="#DejaVuSans-70" transform="translate(63.476562 0)"/>
      <use xlink:href="#DejaVuSans-61" transform="translate(126.953125 0)"/>
      <use xlink:href="#DejaVuSans-72" transform="translate(188.232422 0)"/>
      <use xlink:href="#DejaVuSans-6b" transform="translate(229.345703 0)"/>
      <use xlink:href="#DejaVuSans-6c" transform="translate(287.255859 0)"/>
      <use xlink:href="#DejaVuSans-69" transform="translate(315.039062 0)"/>
      <use xlink:href="#DejaVuSans-6e" transform="translate(342.822266 0)"/>
      <use xlink:href="#DejaVuSans-67" transform="translate(406.201172 0)"/>
      <use xlink:href="#DejaVuSans-20" transform="translate(469.677734 0)"/>
      <use xlink:href="#DejaVuSans-31" transform="translate(501.464844 0)"/>
      <use xlink:href="#DejaVuSans-32" transform="translate(565.087891 0)"/>
      <use xlink:href="#DejaVuSans-2d" transform="translate(628.710938 0)"/>
      <use xlink:href="#DejaVuSans-4d" transform="translate(664.794922 0)"/>
      <use xlink:href="#DejaVuSans-6f" transform="translate(751.074219 0)"/>
      <use xlink:href="#DejaVuSans-6e" transform="translate(812.255859 0)"/>
      <use xlink:href="#DejaVuSans-74" transform="translate(875.634766 0)"/>
      <use xlink:href="#DejaVuSans-68" transform="translate(914.84375 0)"/>
      <use xlink:href="#DejaVuSans-20" transform="translate(978.222656 0)"/>
      <use xlink:href="#DejaVuSans-52" transform="translate(1010.009766 0)"/>
      <use xlink:href="#DejaVuSans-6f" transform="translate(1074.992188 0)"/>
      <use xlink:href="#DejaVuSans-6c" transform="translate(1136.173828 0)"/>
      <use xlink:href="#DejaVuSans-6c" transform="translate(1163.957031 0)"/>
      <use xlink:href="#DejaVuSans-69" transform="translate(1191.740234 0)"/>
      <use xlink:href="#DejaVuSans-6e" transform="translate(1219.523438 0)"/>
      <use xlink:href="#DejaVuSans-67" transform="translate(1282.902344 0)"/>
      <use xlink:href="#DejaVuSans-20" transform="translate(1346.378906 0)"/>
      <use xlink:href="#DejaVuSans-4d" transform="translate(1378.166016 0)"/>
      <use xlink:href="#DejaVuSans-65" transform="translate(1464.445312 0)"/>
      <use xlink:href="#DejaVuSans-61" transform="translate(1525.96875 0)"/>
      <use xlink:href="#DejaVuSans-6e" transform="translate(1587.248047 0)"/>
     </g>
    </g>
    <g id="line2d_36">
     <path d="M 795.1375 69.334687 
L 805.1375 69.334687 
L 815.1375 69.334687 
" style="fill: none; stroke: #008000; stroke-width: 1.5; stroke-linecap: square"/>
    </g>
    <g id="text_21">
     <!-- Sparkling 12-Month Rolling Std -->
     <g transform="translate(823.1375 72.834687) scale(0.1 -0.1)">
      <use xlink:href="#DejaVuSans-53"/>
      <use xlink:href="#DejaVuSans-70" transform="translate(63.476562 0)"/>
      <use xlink:href="#DejaVuSans-61" transform="translate(126.953125 0)"/>
      <use xlink:href="#DejaVuSans-72" transform="translate(188.232422 0)"/>
      <use xlink:href="#DejaVuSans-6b" transform="translate(229.345703 0)"/>
      <use xlink:href="#DejaVuSans-6c" transform="translate(287.255859 0)"/>
      <use xlink:href="#DejaVuSans-69" transform="translate(315.039062 0)"/>
      <use xlink:href="#DejaVuSans-6e" transform="translate(342.822266 0)"/>
      <use xlink:href="#DejaVuSans-67" transform="translate(406.201172 0)"/>
      <use xlink:href="#DejaVuSans-20" transform="translate(469.677734 0)"/>
      <use xlink:href="#DejaVuSans-31" transform="translate(501.464844 0)"/>
      <use xlink:href="#DejaVuSans-32" transform="translate(565.087891 0)"/>
      <use xlink:href="#DejaVuSans-2d" transform="translate(628.710938 0)"/>
      <use xlink:href="#DejaVuSans-4d" transform="translate(664.794922 0)"/>
      <use xlink:href="#DejaVuSans-6f" transform="translate(751.074219 0)"/>
      <use xlink:href="#DejaVuSans-6e" transform="translate(812.255859 0)"/>
      <use xlink:href="#DejaVuSans-74" transform="translate(875.634766 0)"/>
      <use xlink:href="#DejaVuSans-68" transform="translate(914.84375 0)"/>
      <use xlink:href="#DejaVuSans-20" transform="translate(978.222656 0)"/>
      <use xlink:href="#DejaVuSans-52" transform="translate(1010.009766 0)"/>
      <use xlink:href="#DejaVuSans-6f" transform="translate(1074.992188 0)"/>
      <use xlink:href="#DejaVuSans-6c" transform="translate(1136.173828 0)"/>
      <use xlink:href="#DejaVuSans-6c" transform="translate(1163.957031 0)"/>
      <use xlink:href="#DejaVuSans-69" transform="translate(1191.740234 0)"/>
      <use xlink:href="#DejaVuSans-6e" transform="translate(1219.523438 0)"/>
      <use xlink:href="#DejaVuSans-67" transform="translate(1282.902344 0)"/>
      <use xlink:href="#DejaVuSans-20" transform="translate(1346.378906 0)"/>
      <use xlink:href="#DejaVuSans-53" transform="translate(1378.166016 0)"/>
      <use xlink:href="#DejaVuSans-74" transform="translate(1441.642578 0)"/>
      <use xlink:href="#DejaVuSans-64" transform="translate(1480.851562 0)"/>
     </g>
    </g>
   </g>
  </g>
 </g>
 <defs>
  <clipPath id="p8a13b72c1e">
   <rect x="57.17" y="26.88" width="940.03" height="435.16"/>
  </clipPath>
 </defs>
</svg>
