<?xml version="1.0" encoding="utf-8" standalone="no"?>
<!DOCTYPE svg PUBLIC "-//W3C//DTD SVG 1.1//EN"
  "http://www.w3.org/Graphics/SVG/1.1/DTD/svg11.dtd">
<svg xmlns:xlink="http://www.w3.org/1999/xlink" width="1008pt" height="504pt" viewBox="0 0 1008 504" xmlns="http://www.w3.org/2000/svg" version="1.1">
 <metadata>
  <rdf:RDF xmlns:dc="http://purl.org/dc/elements/1.1/" xmlns:cc="http://creativecommons.org/ns#" xmlns:rdf="http://www.w3.org/1999/02/22-rdf-syntax-ns#">
   <cc:Work>
    <dc:type rdf:resource="http://purl.org/dc/dcmitype/StillImage"/>
    <dc:date>2025-01-01T17:01:09.014541</dc:date>
    <dc:format>image/svg+xml</dc:format>
    <dc:creator>
     <cc:Agent>
      <dc:title>Matplotlib v3.10.0, https://matplotlib.org/</dc:title>
     </cc:Agent>
    </dc:creator>
   </cc:Work>
  </rdf:RDF>
 </metadata>
 <defs>
  <style type="text/css">*{stroke-linejoin: round; stroke-linecap: butt}</style>
 </defs>
 <g id="figure_1">
  <g id="patch_1">
   <path d="M 0 504 
L 1008 504 
L 1008 0 
L 0 0 
z
" style="fill: #ffffff"/>
  </g>
  <g id="axes_1">
   <g id="patch_2">
    <path d="M 126 448.56 
L 907.2 448.56 
L 907.2 60.48 
L 126 60.48 
z
" style="fill: #ffffff"/>
   </g>
   <g id="matplotlib.axis_1">
    <g id="xtick_1">
     <g id="line2d_1">
      <path d="M 161.509091 448.56 
L 161.509091 60.48 
" clip-path="url(#pac63a8adb0)" style="fill: none; stroke: #b0b0b0; stroke-width: 0.8; stroke-linecap: square"/>
     </g>
     <g id="line2d_2">
      <defs>
       <path id="m11cd04f517" d="M 0 0 
L 0 3.5 
" style="stroke: #000000; stroke-width: 0.8"/>
      </defs>
      <g>
       <use xlink:href="#m11cd04f517" x="161.509091" y="448.56" style="stroke: #000000; stroke-width: 0.8"/>
      </g>
     </g>
     <g id="text_1">
      <!-- 1980 -->
      <g transform="translate(148.784091 463.158437) scale(0.1 -0.1)">
       <defs>
        <path id="DejaVuSans-31" d="M 794 531 
L 1825 531 
L 1825 4091 
L 703 3866 
L 703 4441 
L 1819 4666 
L 2450 4666 
L 2450 531 
L 3481 531 
L 3481 0 
L 794 0 
L 794 531 
z
" transform="scale(0.015625)"/>
        <path id="DejaVuSans-39" d="M 703 97 
L 703 672 
Q 941 559 1184 500 
Q 1428 441 1663 441 
Q 2288 441 2617 861 
Q 2947 1281 2994 2138 
Q 2813 1869 2534 1725 
Q 2256 1581 1919 1581 
Q 1219 1581 811 2004 
Q 403 2428 403 3163 
Q 403 3881 828 4315 
Q 1253 4750 1959 4750 
Q 2769 4750 3195 4129 
Q 3622 3509 3622 2328 
Q 3622 1225 3098 567 
Q 2575 -91 1691 -91 
Q 1453 -91 1209 -44 
Q 966 3 703 97 
z
M 1959 2075 
Q 2384 2075 2632 2365 
Q 2881 2656 2881 3163 
Q 2881 3666 2632 3958 
Q 2384 4250 1959 4250 
Q 1534 4250 1286 3958 
Q 1038 3666 1038 3163 
Q 1038 2656 1286 2365 
Q 1534 2075 1959 2075 
z
" transform="scale(0.015625)"/>
        <path id="DejaVuSans-38" d="M 2034 2216 
Q 1584 2216 1326 1975 
Q 1069 1734 1069 1313 
Q 1069 891 1326 650 
Q 1584 409 2034 409 
Q 2484 409 2743 651 
Q 3003 894 3003 1313 
Q 3003 1734 2745 1975 
Q 2488 2216 2034 2216 
z
M 1403 2484 
Q 997 2584 770 2862 
Q 544 3141 544 3541 
Q 544 4100 942 4425 
Q 1341 4750 2034 4750 
Q 2731 4750 3128 4425 
Q 3525 4100 3525 3541 
Q 3525 3141 3298 2862 
Q 3072 2584 2669 2484 
Q 3125 2378 3379 2068 
Q 3634 1759 3634 1313 
Q 3634 634 3220 271 
Q 2806 -91 2034 -91 
Q 1263 -91 848 271 
Q 434 634 434 1313 
Q 434 1759 690 2068 
Q 947 2378 1403 2484 
z
M 1172 3481 
Q 1172 3119 1398 2916 
Q 1625 2713 2034 2713 
Q 2441 2713 2670 2916 
Q 2900 3119 2900 3481 
Q 2900 3844 2670 4047 
Q 2441 4250 2034 4250 
Q 1625 4250 1398 4047 
Q 1172 3844 1172 3481 
z
" transform="scale(0.015625)"/>
        <path id="DejaVuSans-30" d="M 2034 4250 
Q 1547 4250 1301 3770 
Q 1056 3291 1056 2328 
Q 1056 1369 1301 889 
Q 1547 409 2034 409 
Q 2525 409 2770 889 
Q 3016 1369 3016 2328 
Q 3016 3291 2770 3770 
Q 2525 4250 2034 4250 
z
M 2034 4750 
Q 2819 4750 3233 4129 
Q 3647 3509 3647 2328 
Q 3647 1150 3233 529 
Q 2819 -91 2034 -91 
Q 1250 -91 836 529 
Q 422 1150 422 2328 
Q 422 3509 836 4129 
Q 1250 4750 2034 4750 
z
" transform="scale(0.015625)"/>
       </defs>
       <use xlink:href="#DejaVuSans-31"/>
       <use xlink:href="#DejaVuSans-39" transform="translate(63.623047 0)"/>
       <use xlink:href="#DejaVuSans-38" transform="translate(127.246094 0)"/>
       <use xlink:href="#DejaVuSans-30" transform="translate(190.869141 0)"/>
      </g>
     </g>
    </g>
    <g id="xtick_2">
     <g id="line2d_3">
      <path d="M 253.230453 448.56 
L 253.230453 60.48 
" clip-path="url(#pac63a8adb0)" style="fill: none; stroke: #b0b0b0; stroke-width: 0.8; stroke-linecap: square"/>
     </g>
     <g id="line2d_4">
      <g>
       <use xlink:href="#m11cd04f517" x="253.230453" y="448.56" style="stroke: #000000; stroke-width: 0.8"/>
      </g>
     </g>
     <g id="text_2">
      <!-- 1982 -->
      <g transform="translate(240.505453 463.158437) scale(0.1 -0.1)">
       <defs>
        <path id="DejaVuSans-32" d="M 1228 531 
L 3431 531 
L 3431 0 
L 469 0 
L 469 531 
Q 828 903 1448 1529 
Q 2069 2156 2228 2338 
Q 2531 2678 2651 2914 
Q 2772 3150 2772 3378 
Q 2772 3750 2511 3984 
Q 2250 4219 1831 4219 
Q 1534 4219 1204 4116 
Q 875 4013 500 3803 
L 500 4441 
Q 881 4594 1212 4672 
Q 1544 4750 1819 4750 
Q 2544 4750 2975 4387 
Q 3406 4025 3406 3419 
Q 3406 3131 3298 2873 
Q 3191 2616 2906 2266 
Q 2828 2175 2409 1742 
Q 1991 1309 1228 531 
z
" transform="scale(0.015625)"/>
       </defs>
       <use xlink:href="#DejaVuSans-31"/>
       <use xlink:href="#DejaVuSans-39" transform="translate(63.623047 0)"/>
       <use xlink:href="#DejaVuSans-38" transform="translate(127.246094 0)"/>
       <use xlink:href="#DejaVuSans-32" transform="translate(190.869141 0)"/>
      </g>
     </g>
    </g>
    <g id="xtick_3">
     <g id="line2d_5">
      <path d="M 344.826341 448.56 
L 344.826341 60.48 
" clip-path="url(#pac63a8adb0)" style="fill: none; stroke: #b0b0b0; stroke-width: 0.8; stroke-linecap: square"/>
     </g>
     <g id="line2d_6">
      <g>
       <use xlink:href="#m11cd04f517" x="344.826341" y="448.56" style="stroke: #000000; stroke-width: 0.8"/>
      </g>
     </g>
     <g id="text_3">
      <!-- 1984 -->
      <g transform="translate(332.101341 463.158437) scale(0.1 -0.1)">
       <defs>
        <path id="DejaVuSans-34" d="M 2419 4116 
L 825 1625 
L 2419 1625 
L 2419 4116 
z
M 2253 4666 
L 3047 4666 
L 3047 1625 
L 3713 1625 
L 3713 1100 
L 3047 1100 
L 3047 0 
L 2419 0 
L 2419 1100 
L 313 1100 
L 313 1709 
L 2253 4666 
z
" transform="scale(0.015625)"/>
       </defs>
       <use xlink:href="#DejaVuSans-31"/>
       <use xlink:href="#DejaVuSans-39" transform="translate(63.623047 0)"/>
       <use xlink:href="#DejaVuSans-38" transform="translate(127.246094 0)"/>
       <use xlink:href="#DejaVuSans-34" transform="translate(190.869141 0)"/>
      </g>
     </g>
    </g>
    <g id="xtick_4">
     <g id="line2d_7">
      <path d="M 436.547703 448.56 
L 436.547703 60.48 
" clip-path="url(#pac63a8adb0)" style="fill: none; stroke: #b0b0b0; stroke-width: 0.8; stroke-linecap: square"/>
     </g>
     <g id="line2d_8">
      <g>
       <use xlink:href="#m11cd04f517" x="436.547703" y="448.56" style="stroke: #000000; stroke-width: 0.8"/>
      </g>
     </g>
     <g id="text_4">
      <!-- 1986 -->
      <g transform="translate(423.822703 463.158437) scale(0.1 -0.1)">
       <defs>
        <path id="DejaVuSans-36" d="M 2113 2584 
Q 1688 2584 1439 2293 
Q 1191 2003 1191 1497 
Q 1191 994 1439 701 
Q 1688 409 2113 409 
Q 2538 409 2786 701 
Q 3034 994 3034 1497 
Q 3034 2003 2786 2293 
Q 2538 2584 2113 2584 
z
M 3366 4563 
L 3366 3988 
Q 3128 4100 2886 4159 
Q 2644 4219 2406 4219 
Q 1781 4219 1451 3797 
Q 1122 3375 1075 2522 
Q 1259 2794 1537 2939 
Q 1816 3084 2150 3084 
Q 2853 3084 3261 2657 
Q 3669 2231 3669 1497 
Q 3669 778 3244 343 
Q 2819 -91 2113 -91 
Q 1303 -91 875 529 
Q 447 1150 447 2328 
Q 447 3434 972 4092 
Q 1497 4750 2381 4750 
Q 2619 4750 2861 4703 
Q 3103 4656 3366 4563 
z
" transform="scale(0.015625)"/>
       </defs>
       <use xlink:href="#DejaVuSans-31"/>
       <use xlink:href="#DejaVuSans-39" transform="translate(63.623047 0)"/>
       <use xlink:href="#DejaVuSans-38" transform="translate(127.246094 0)"/>
       <use xlink:href="#DejaVuSans-36" transform="translate(190.869141 0)"/>
      </g>
     </g>
    </g>
    <g id="xtick_5">
     <g id="line2d_9">
      <path d="M 528.143591 448.56 
L 528.143591 60.48 
" clip-path="url(#pac63a8adb0)" style="fill: none; stroke: #b0b0b0; stroke-width: 0.8; stroke-linecap: square"/>
     </g>
     <g id="line2d_10">
      <g>
       <use xlink:href="#m11cd04f517" x="528.143591" y="448.56" style="stroke: #000000; stroke-width: 0.8"/>
      </g>
     </g>
     <g id="text_5">
      <!-- 1988 -->
      <g transform="translate(515.418591 463.158437) scale(0.1 -0.1)">
       <use xlink:href="#DejaVuSans-31"/>
       <use xlink:href="#DejaVuSans-39" transform="translate(63.623047 0)"/>
       <use xlink:href="#DejaVuSans-38" transform="translate(127.246094 0)"/>
       <use xlink:href="#DejaVuSans-38" transform="translate(190.869141 0)"/>
      </g>
     </g>
    </g>
    <g id="xtick_6">
     <g id="line2d_11">
      <path d="M 619.864953 448.56 
L 619.864953 60.48 
" clip-path="url(#pac63a8adb0)" style="fill: none; stroke: #b0b0b0; stroke-width: 0.8; stroke-linecap: square"/>
     </g>
     <g id="line2d_12">
      <g>
       <use xlink:href="#m11cd04f517" x="619.864953" y="448.56" style="stroke: #000000; stroke-width: 0.8"/>
      </g>
     </g>
     <g id="text_6">
      <!-- 1990 -->
      <g transform="translate(607.139953 463.158437) scale(0.1 -0.1)">
       <use xlink:href="#DejaVuSans-31"/>
       <use xlink:href="#DejaVuSans-39" transform="translate(63.623047 0)"/>
       <use xlink:href="#DejaVuSans-39" transform="translate(127.246094 0)"/>
       <use xlink:href="#DejaVuSans-30" transform="translate(190.869141 0)"/>
      </g>
     </g>
    </g>
    <g id="xtick_7">
     <g id="line2d_13">
      <path d="M 711.460842 448.56 
L 711.460842 60.48 
" clip-path="url(#pac63a8adb0)" style="fill: none; stroke: #b0b0b0; stroke-width: 0.8; stroke-linecap: square"/>
     </g>
     <g id="line2d_14">
      <g>
       <use xlink:href="#m11cd04f517" x="711.460842" y="448.56" style="stroke: #000000; stroke-width: 0.8"/>
      </g>
     </g>
     <g id="text_7">
      <!-- 1992 -->
      <g transform="translate(698.735842 463.158437) scale(0.1 -0.1)">
       <use xlink:href="#DejaVuSans-31"/>
       <use xlink:href="#DejaVuSans-39" transform="translate(63.623047 0)"/>
       <use xlink:href="#DejaVuSans-39" transform="translate(127.246094 0)"/>
       <use xlink:href="#DejaVuSans-32" transform="translate(190.869141 0)"/>
      </g>
     </g>
    </g>
    <g id="xtick_8">
     <g id="line2d_15">
      <path d="M 803.182204 448.56 
L 803.182204 60.48 
" clip-path="url(#pac63a8adb0)" style="fill: none; stroke: #b0b0b0; stroke-width: 0.8; stroke-linecap: square"/>
     </g>
     <g id="line2d_16">
      <g>
       <use xlink:href="#m11cd04f517" x="803.182204" y="448.56" style="stroke: #000000; stroke-width: 0.8"/>
      </g>
     </g>
     <g id="text_8">
      <!-- 1994 -->
      <g transform="translate(790.457204 463.158437) scale(0.1 -0.1)">
       <use xlink:href="#DejaVuSans-31"/>
       <use xlink:href="#DejaVuSans-39" transform="translate(63.623047 0)"/>
       <use xlink:href="#DejaVuSans-39" transform="translate(127.246094 0)"/>
       <use xlink:href="#DejaVuSans-34" transform="translate(190.869141 0)"/>
      </g>
     </g>
    </g>
    <g id="xtick_9">
     <g id="line2d_17">
      <path d="M 894.778092 448.56 
L 894.778092 60.48 
" clip-path="url(#pac63a8adb0)" style="fill: none; stroke: #b0b0b0; stroke-width: 0.8; stroke-linecap: square"/>
     </g>
     <g id="line2d_18">
      <g>
       <use xlink:href="#m11cd04f517" x="894.778092" y="448.56" style="stroke: #000000; stroke-width: 0.8"/>
      </g>
     </g>
     <g id="text_9">
      <!-- 1996 -->
      <g transform="translate(882.053092 463.158437) scale(0.1 -0.1)">
       <use xlink:href="#DejaVuSans-31"/>
       <use xlink:href="#DejaVuSans-39" transform="translate(63.623047 0)"/>
       <use xlink:href="#DejaVuSans-39" transform="translate(127.246094 0)"/>
       <use xlink:href="#DejaVuSans-36" transform="translate(190.869141 0)"/>
      </g>
     </g>
    </g>
    <g id="text_10">
     <!-- Date -->
     <g transform="translate(504.649219 476.836563) scale(0.1 -0.1)">
      <defs>
       <path id="DejaVuSans-44" d="M 1259 4147 
L 1259 519 
L 2022 519 
Q 2988 519 3436 956 
Q 3884 1394 3884 2338 
Q 3884 3275 3436 3711 
Q 2988 4147 2022 4147 
L 1259 4147 
z
M 628 4666 
L 1925 4666 
Q 3281 4666 3915 4102 
Q 4550 3538 4550 2338 
Q 4550 1131 3912 565 
Q 3275 0 1925 0 
L 628 0 
L 628 4666 
z
" transform="scale(0.015625)"/>
       <path id="DejaVuSans-61" d="M 2194 1759 
Q 1497 1759 1228 1600 
Q 959 1441 959 1056 
Q 959 750 1161 570 
Q 1363 391 1709 391 
Q 2188 391 2477 730 
Q 2766 1069 2766 1631 
L 2766 1759 
L 2194 1759 
z
M 3341 1997 
L 3341 0 
L 2766 0 
L 2766 531 
Q 2569 213 2275 61 
Q 1981 -91 1556 -91 
Q 1019 -91 701 211 
Q 384 513 384 1019 
Q 384 1609 779 1909 
Q 1175 2209 1959 2209 
L 2766 2209 
L 2766 2266 
Q 2766 2663 2505 2880 
Q 2244 3097 1772 3097 
Q 1472 3097 1187 3025 
Q 903 2953 641 2809 
L 641 3341 
Q 956 3463 1253 3523 
Q 1550 3584 1831 3584 
Q 2591 3584 2966 3190 
Q 3341 2797 3341 1997 
z
" transform="scale(0.015625)"/>
       <path id="DejaVuSans-74" d="M 1172 4494 
L 1172 3500 
L 2356 3500 
L 2356 3053 
L 1172 3053 
L 1172 1153 
Q 1172 725 1289 603 
Q 1406 481 1766 481 
L 2356 481 
L 2356 0 
L 1766 0 
Q 1100 0 847 248 
Q 594 497 594 1153 
L 594 3053 
L 172 3053 
L 172 3500 
L 594 3500 
L 594 4494 
L 1172 4494 
z
" transform="scale(0.015625)"/>
       <path id="DejaVuSans-65" d="M 3597 1894 
L 3597 1613 
L 953 1613 
Q 991 1019 1311 708 
Q 1631 397 2203 397 
Q 2534 397 2845 478 
Q 3156 559 3463 722 
L 3463 178 
Q 3153 47 2828 -22 
Q 2503 -91 2169 -91 
Q 1331 -91 842 396 
Q 353 884 353 1716 
Q 353 2575 817 3079 
Q 1281 3584 2069 3584 
Q 2775 3584 3186 3129 
Q 3597 2675 3597 1894 
z
M 3022 2063 
Q 3016 2534 2758 2815 
Q 2500 3097 2075 3097 
Q 1594 3097 1305 2825 
Q 1016 2553 972 2059 
L 3022 2063 
z
" transform="scale(0.015625)"/>
      </defs>
      <use xlink:href="#DejaVuSans-44"/>
      <use xlink:href="#DejaVuSans-61" transform="translate(77.001953 0)"/>
      <use xlink:href="#DejaVuSans-74" transform="translate(138.28125 0)"/>
      <use xlink:href="#DejaVuSans-65" transform="translate(177.490234 0)"/>
     </g>
    </g>
   </g>
   <g id="matplotlib.axis_2">
    <g id="ytick_1">
     <g id="line2d_19">
      <path d="M 126 432.289337 
L 907.2 432.289337 
" clip-path="url(#pac63a8adb0)" style="fill: none; stroke: #b0b0b0; stroke-width: 0.8; stroke-linecap: square"/>
     </g>
     <g id="line2d_20">
      <defs>
       <path id="mba890d7b93" d="M 0 0 
L -3.5 0 
" style="stroke: #000000; stroke-width: 0.8"/>
      </defs>
      <g>
       <use xlink:href="#mba890d7b93" x="126" y="432.289337" style="stroke: #000000; stroke-width: 0.8"/>
      </g>
     </g>
     <g id="text_11">
      <!-- 0 -->
      <g transform="translate(112.6375 436.088556) scale(0.1 -0.1)">
       <use xlink:href="#DejaVuSans-30"/>
      </g>
     </g>
    </g>
    <g id="ytick_2">
     <g id="line2d_21">
      <path d="M 126 383.38443 
L 907.2 383.38443 
" clip-path="url(#pac63a8adb0)" style="fill: none; stroke: #b0b0b0; stroke-width: 0.8; stroke-linecap: square"/>
     </g>
     <g id="line2d_22">
      <g>
       <use xlink:href="#mba890d7b93" x="126" y="383.38443" style="stroke: #000000; stroke-width: 0.8"/>
      </g>
     </g>
     <g id="text_12">
      <!-- 1000 -->
      <g transform="translate(93.55 387.183649) scale(0.1 -0.1)">
       <use xlink:href="#DejaVuSans-31"/>
       <use xlink:href="#DejaVuSans-30" transform="translate(63.623047 0)"/>
       <use xlink:href="#DejaVuSans-30" transform="translate(127.246094 0)"/>
       <use xlink:href="#DejaVuSans-30" transform="translate(190.869141 0)"/>
      </g>
     </g>
    </g>
    <g id="ytick_3">
     <g id="line2d_23">
      <path d="M 126 334.479523 
L 907.2 334.479523 
" clip-path="url(#pac63a8adb0)" style="fill: none; stroke: #b0b0b0; stroke-width: 0.8; stroke-linecap: square"/>
     </g>
     <g id="line2d_24">
      <g>
       <use xlink:href="#mba890d7b93" x="126" y="334.479523" style="stroke: #000000; stroke-width: 0.8"/>
      </g>
     </g>
     <g id="text_13">
      <!-- 2000 -->
      <g transform="translate(93.55 338.278742) scale(0.1 -0.1)">
       <use xlink:href="#DejaVuSans-32"/>
       <use xlink:href="#DejaVuSans-30" transform="translate(63.623047 0)"/>
       <use xlink:href="#DejaVuSans-30" transform="translate(127.246094 0)"/>
       <use xlink:href="#DejaVuSans-30" transform="translate(190.869141 0)"/>
      </g>
     </g>
    </g>
    <g id="ytick_4">
     <g id="line2d_25">
      <path d="M 126 285.574616 
L 907.2 285.574616 
" clip-path="url(#pac63a8adb0)" style="fill: none; stroke: #b0b0b0; stroke-width: 0.8; stroke-linecap: square"/>
     </g>
     <g id="line2d_26">
      <g>
       <use xlink:href="#mba890d7b93" x="126" y="285.574616" style="stroke: #000000; stroke-width: 0.8"/>
      </g>
     </g>
     <g id="text_14">
      <!-- 3000 -->
      <g transform="translate(93.55 289.373835) scale(0.1 -0.1)">
       <defs>
        <path id="DejaVuSans-33" d="M 2597 2516 
Q 3050 2419 3304 2112 
Q 3559 1806 3559 1356 
Q 3559 666 3084 287 
Q 2609 -91 1734 -91 
Q 1441 -91 1130 -33 
Q 819 25 488 141 
L 488 750 
Q 750 597 1062 519 
Q 1375 441 1716 441 
Q 2309 441 2620 675 
Q 2931 909 2931 1356 
Q 2931 1769 2642 2001 
Q 2353 2234 1838 2234 
L 1294 2234 
L 1294 2753 
L 1863 2753 
Q 2328 2753 2575 2939 
Q 2822 3125 2822 3475 
Q 2822 3834 2567 4026 
Q 2313 4219 1838 4219 
Q 1578 4219 1281 4162 
Q 984 4106 628 3988 
L 628 4550 
Q 988 4650 1302 4700 
Q 1616 4750 1894 4750 
Q 2613 4750 3031 4423 
Q 3450 4097 3450 3541 
Q 3450 3153 3228 2886 
Q 3006 2619 2597 2516 
z
" transform="scale(0.015625)"/>
       </defs>
       <use xlink:href="#DejaVuSans-33"/>
       <use xlink:href="#DejaVuSans-30" transform="translate(63.623047 0)"/>
       <use xlink:href="#DejaVuSans-30" transform="translate(127.246094 0)"/>
       <use xlink:href="#DejaVuSans-30" transform="translate(190.869141 0)"/>
      </g>
     </g>
    </g>
    <g id="ytick_5">
     <g id="line2d_27">
      <path d="M 126 236.669709 
L 907.2 236.669709 
" clip-path="url(#pac63a8adb0)" style="fill: none; stroke: #b0b0b0; stroke-width: 0.8; stroke-linecap: square"/>
     </g>
     <g id="line2d_28">
      <g>
       <use xlink:href="#mba890d7b93" x="126" y="236.669709" style="stroke: #000000; stroke-width: 0.8"/>
      </g>
     </g>
     <g id="text_15">
      <!-- 4000 -->
      <g transform="translate(93.55 240.468928) scale(0.1 -0.1)">
       <use xlink:href="#DejaVuSans-34"/>
       <use xlink:href="#DejaVuSans-30" transform="translate(63.623047 0)"/>
       <use xlink:href="#DejaVuSans-30" transform="translate(127.246094 0)"/>
       <use xlink:href="#DejaVuSans-30" transform="translate(190.869141 0)"/>
      </g>
     </g>
    </g>
    <g id="ytick_6">
     <g id="line2d_29">
      <path d="M 126 187.764802 
L 907.2 187.764802 
" clip-path="url(#pac63a8adb0)" style="fill: none; stroke: #b0b0b0; stroke-width: 0.8; stroke-linecap: square"/>
     </g>
     <g id="line2d_30">
      <g>
       <use xlink:href="#mba890d7b93" x="126" y="187.764802" style="stroke: #000000; stroke-width: 0.8"/>
      </g>
     </g>
     <g id="text_16">
      <!-- 5000 -->
      <g transform="translate(93.55 191.564021) scale(0.1 -0.1)">
       <defs>
        <path id="DejaVuSans-35" d="M 691 4666 
L 3169 4666 
L 3169 4134 
L 1269 4134 
L 1269 2991 
Q 1406 3038 1543 3061 
Q 1681 3084 1819 3084 
Q 2600 3084 3056 2656 
Q 3513 2228 3513 1497 
Q 3513 744 3044 326 
Q 2575 -91 1722 -91 
Q 1428 -91 1123 -41 
Q 819 9 494 109 
L 494 744 
Q 775 591 1075 516 
Q 1375 441 1709 441 
Q 2250 441 2565 725 
Q 2881 1009 2881 1497 
Q 2881 1984 2565 2268 
Q 2250 2553 1709 2553 
Q 1456 2553 1204 2497 
Q 953 2441 691 2322 
L 691 4666 
z
" transform="scale(0.015625)"/>
       </defs>
       <use xlink:href="#DejaVuSans-35"/>
       <use xlink:href="#DejaVuSans-30" transform="translate(63.623047 0)"/>
       <use xlink:href="#DejaVuSans-30" transform="translate(127.246094 0)"/>
       <use xlink:href="#DejaVuSans-30" transform="translate(190.869141 0)"/>
      </g>
     </g>
    </g>
    <g id="ytick_7">
     <g id="line2d_31">
      <path d="M 126 138.859895 
L 907.2 138.859895 
" clip-path="url(#pac63a8adb0)" style="fill: none; stroke: #b0b0b0; stroke-width: 0.8; stroke-linecap: square"/>
     </g>
     <g id="line2d_32">
      <g>
       <use xlink:href="#mba890d7b93" x="126" y="138.859895" style="stroke: #000000; stroke-width: 0.8"/>
      </g>
     </g>
     <g id="text_17">
      <!-- 6000 -->
      <g transform="translate(93.55 142.659113) scale(0.1 -0.1)">
       <use xlink:href="#DejaVuSans-36"/>
       <use xlink:href="#DejaVuSans-30" transform="translate(63.623047 0)"/>
       <use xlink:href="#DejaVuSans-30" transform="translate(127.246094 0)"/>
       <use xlink:href="#DejaVuSans-30" transform="translate(190.869141 0)"/>
      </g>
     </g>
    </g>
    <g id="ytick_8">
     <g id="line2d_33">
      <path d="M 126 89.954988 
L 907.2 89.954988 
" clip-path="url(#pac63a8adb0)" style="fill: none; stroke: #b0b0b0; stroke-width: 0.8; stroke-linecap: square"/>
     </g>
     <g id="line2d_34">
      <g>
       <use xlink:href="#mba890d7b93" x="126" y="89.954988" style="stroke: #000000; stroke-width: 0.8"/>
      </g>
     </g>
     <g id="text_18">
      <!-- 7000 -->
      <g transform="translate(93.55 93.754206) scale(0.1 -0.1)">
       <defs>
        <path id="DejaVuSans-37" d="M 525 4666 
L 3525 4666 
L 3525 4397 
L 1831 0 
L 1172 0 
L 2766 4134 
L 525 4134 
L 525 4666 
z
" transform="scale(0.015625)"/>
       </defs>
       <use xlink:href="#DejaVuSans-37"/>
       <use xlink:href="#DejaVuSans-30" transform="translate(63.623047 0)"/>
       <use xlink:href="#DejaVuSans-30" transform="translate(127.246094 0)"/>
       <use xlink:href="#DejaVuSans-30" transform="translate(190.869141 0)"/>
      </g>
     </g>
    </g>
    <g id="text_19">
     <!-- Sales -->
     <g transform="translate(87.470312 267.828594) rotate(-90) scale(0.1 -0.1)">
      <defs>
       <path id="DejaVuSans-53" d="M 3425 4513 
L 3425 3897 
Q 3066 4069 2747 4153 
Q 2428 4238 2131 4238 
Q 1616 4238 1336 4038 
Q 1056 3838 1056 3469 
Q 1056 3159 1242 3001 
Q 1428 2844 1947 2747 
L 2328 2669 
Q 3034 2534 3370 2195 
Q 3706 1856 3706 1288 
Q 3706 609 3251 259 
Q 2797 -91 1919 -91 
Q 1588 -91 1214 -16 
Q 841 59 441 206 
L 441 856 
Q 825 641 1194 531 
Q 1563 422 1919 422 
Q 2459 422 2753 634 
Q 3047 847 3047 1241 
Q 3047 1584 2836 1778 
Q 2625 1972 2144 2069 
L 1759 2144 
Q 1053 2284 737 2584 
Q 422 2884 422 3419 
Q 422 4038 858 4394 
Q 1294 4750 2059 4750 
Q 2388 4750 2728 4690 
Q 3069 4631 3425 4513 
z
" transform="scale(0.015625)"/>
       <path id="DejaVuSans-6c" d="M 603 4863 
L 1178 4863 
L 1178 0 
L 603 0 
L 603 4863 
z
" transform="scale(0.015625)"/>
       <path id="DejaVuSans-73" d="M 2834 3397 
L 2834 2853 
Q 2591 2978 2328 3040 
Q 2066 3103 1784 3103 
Q 1356 3103 1142 2972 
Q 928 2841 928 2578 
Q 928 2378 1081 2264 
Q 1234 2150 1697 2047 
L 1894 2003 
Q 2506 1872 2764 1633 
Q 3022 1394 3022 966 
Q 3022 478 2636 193 
Q 2250 -91 1575 -91 
Q 1294 -91 989 -36 
Q 684 19 347 128 
L 347 722 
Q 666 556 975 473 
Q 1284 391 1588 391 
Q 1994 391 2212 530 
Q 2431 669 2431 922 
Q 2431 1156 2273 1281 
Q 2116 1406 1581 1522 
L 1381 1569 
Q 847 1681 609 1914 
Q 372 2147 372 2553 
Q 372 3047 722 3315 
Q 1072 3584 1716 3584 
Q 2034 3584 2315 3537 
Q 2597 3491 2834 3397 
z
" transform="scale(0.015625)"/>
      </defs>
      <use xlink:href="#DejaVuSans-53"/>
      <use xlink:href="#DejaVuSans-61" transform="translate(63.476562 0)"/>
      <use xlink:href="#DejaVuSans-6c" transform="translate(124.755859 0)"/>
      <use xlink:href="#DejaVuSans-65" transform="translate(152.539062 0)"/>
      <use xlink:href="#DejaVuSans-73" transform="translate(214.0625 0)"/>
     </g>
    </g>
   </g>
   <g id="line2d_35">
    <path d="M 161.509091 349.835664 
L 165.398779 354.48163 
L 169.03752 319.612431 
L 172.927208 348.564136 
L 176.691423 360.350219 
L 180.581111 364.94728 
L 184.345326 336.14229 
L 188.235014 312.3256 
L 192.124703 335.262002 
L 195.888917 305.332199 
L 199.778606 232.414982 
L 203.54282 179.010823 
L 207.432509 357.464829 
L 211.322197 357.807164 
L 214.835464 352.427624 
L 218.725153 335.653241 
L 222.489367 375.070596 
L 230.14327 345.189698 
L 234.032959 311.396407 
L 237.922647 335.408716 
L 241.686862 321.128484 
L 245.57655 243.663111 
L 249.340765 209.723105 
L 253.230453 358.442928 
L 257.120141 367.294716 
L 260.633408 358.051688 
L 264.523097 344.749554 
L 268.287311 357.122495 
L 272.177 361.426127 
L 275.941214 336.729149 
L 279.830903 339.516729 
L 283.720591 348.857566 
L 287.484806 309.342401 
L 291.374494 256.574006 
L 295.138709 211.043538 
L 299.028397 353.601342 
L 302.918085 352.1831 
L 306.431352 333.012376 
L 310.321041 365.04509 
L 314.085255 367.73486 
L 317.974944 371.402728 
L 321.739158 354.041486 
L 325.628847 319.905861 
L 329.518535 325.138686 
L 333.28275 309.489116 
L 337.172438 264.056457 
L 340.936653 191.53048 
L 344.826341 353.601342 
L 348.71603 362.110796 
L 352.35477 331.496324 
L 356.244459 344.798459 
L 360.008673 355.655348 
L 363.898362 363.626848 
L 367.662576 354.188201 
L 371.552265 277.798736 
L 375.441953 346.265606 
L 379.206168 309.83145 
L 383.095856 223.318669 
L 386.860071 174.364857 
L 390.749759 345.678747 
L 394.639447 350.031284 
L 398.152714 342.010879 
L 402.042403 354.57944 
L 405.806617 339.565633 
L 409.696306 364.84947 
L 413.46052 351.840765 
L 417.350209 309.440211 
L 421.239897 345.678747 
L 425.004112 250.020749 
L 428.8938 217.694605 
L 432.658015 166.540072 
L 436.547703 353.748057 
L 440.437392 357.807164 
L 443.950659 355.166299 
L 447.840347 353.796961 
L 451.604562 345.972176 
L 455.49425 363.675753 
L 459.258465 305.919057 
L 463.148153 270.022856 
L 467.037841 355.899872 
L 470.802056 317.411711 
L 474.691744 237.305473 
L 478.455959 144.19053 
L 482.345647 364.360421 
L 486.235336 361.768461 
L 489.748603 356.584541 
L 493.638291 337.658342 
L 497.402506 358.051688 
L 501.292194 371.158203 
L 505.056409 341.961974 
L 508.946097 337.902867 
L 512.835785 303.278192 
L 516.6 279.999457 
L 520.489688 216.863222 
L 524.253903 78.12 
L 528.143591 341.668544 
L 532.03328 345.287508 
L 535.672021 329.197793 
L 539.561709 318.047474 
L 543.325924 347.781658 
L 547.215612 351.058287 
L 550.979827 323.231395 
L 554.869515 351.840765 
L 558.759203 313.890557 
L 562.523418 249.384985 
L 566.413106 188.351661 
L 570.177321 101.83888 
L 574.067009 346.363416 
L 577.956698 364.115897 
L 581.469965 335.359811 
L 585.359653 351.596241 
L 589.123868 351.400621 
L 593.013556 363.529038 
L 596.777771 335.897765 
L 600.667459 336.04448 
L 604.557147 304.74534 
L 608.321362 244.24997 
L 612.21105 211.532587 
L 615.975265 104.919889 
L 619.864953 348.172897 
L 623.754642 367.685955 
L 627.267909 341.375115 
L 631.157597 352.672149 
L 634.921812 353.307912 
L 638.8115 361.034888 
L 642.575715 339.418919 
L 646.465403 353.796961 
L 650.355092 313.743843 
L 654.119306 279.901647 
L 658.008995 222.682905 
L 661.773209 136.561364 
L 665.662898 339.272204 
L 669.552586 332.083183 
L 673.065853 340.641541 
L 676.955541 369.739961 
L 680.719756 362.25751 
L 684.609444 356.97578 
L 688.373659 324.013873 
L 692.263347 341.472925 
L 696.153036 314.526321 
L 699.91725 273.250579 
L 703.806939 254.911239 
L 707.571153 131.377444 
L 711.460842 355.166299 
L 715.35053 350.764857 
L 718.989271 334.821857 
L 722.878959 334.626238 
L 726.643174 345.091888 
L 730.532862 352.818863 
L 734.297077 330.76275 
L 738.186765 345.580937 
L 742.076454 316.042373 
L 745.840668 281.270984 
L 749.730357 231.974838 
L 753.494571 133.040211 
L 757.38426 359.225406 
L 761.273948 355.802063 
L 764.787215 339.467824 
L 768.676903 328.562029 
L 772.441118 342.744452 
L 776.330806 358.198403 
L 780.095021 332.132088 
L 783.984709 295.600122 
L 787.874398 346.754655 
L 791.638612 268.995853 
L 795.528301 225.568295 
L 799.292515 118.808883 
L 803.182204 373.750164 
L 807.071892 336.04448 
L 810.585159 348.172897 
L 814.474847 347.928373 
L 818.239062 350.422523 
L 822.12875 349.49333 
L 825.892965 332.963471 
L 829.782653 359.176501 
L 833.672342 287.139573 
L 837.436556 266.746227 
L 841.326245 249.922939 
L 845.090459 138.9088 
L 848.980148 379.961087 
L 852.869836 363.724658 
L 856.383103 339.516729 
L 860.272792 341.2284 
L 864.037006 350.618143 
L 867.926695 349.737854 
L 871.690909 332.963471 
L 871.690909 332.963471 
" clip-path="url(#pac63a8adb0)" style="fill: none; stroke: #0000ff; stroke-width: 1.5; stroke-linecap: square"/>
   </g>
   <g id="line2d_36">
    <path d="M 161.509091 426.811988 
L 165.398779 426.518558 
L 169.03752 425.980604 
L 172.927208 427.447752 
L 176.691423 426.616368 
L 180.581111 424.073313 
L 184.345326 426.518558 
L 188.235014 425.980604 
L 192.124703 422.263831 
L 195.888917 425.100316 
L 199.778606 424.953601 
L 203.54282 419.231727 
L 207.432509 426.127319 
L 211.322197 425.980604 
L 214.835464 426.225129 
L 218.725153 427.545561 
L 222.489367 427.301037 
L 226.379056 426.078414 
L 230.14327 421.432448 
L 234.032959 421.823687 
L 237.922647 426.518558 
L 241.686862 425.393745 
L 245.57655 424.757982 
L 249.340765 421.236828 
L 253.230453 427.936801 
L 257.120141 428.52366 
L 260.633408 428.279135 
L 264.523097 427.545561 
L 268.287311 426.078414 
L 275.941214 426.567463 
L 279.830903 426.567463 
L 283.720591 427.105417 
L 287.484806 426.811988 
L 291.374494 425.73608 
L 295.138709 424.024408 
L 299.028397 428.621469 
L 302.918085 427.007607 
L 306.431352 426.665273 
L 310.321041 428.13242 
L 314.085255 427.349942 
L 317.974944 427.007607 
L 321.739158 426.958703 
L 325.628847 426.225129 
L 329.518535 427.154322 
L 333.28275 427.643371 
L 337.172438 425.687175 
L 340.936653 424.268933 
L 344.826341 427.985706 
L 348.71603 428.13242 
L 352.35477 426.811988 
L 356.244459 428.03461 
L 360.008673 427.838991 
L 363.898362 428.03461 
L 367.662576 428.03461 
L 371.552265 425.344841 
L 375.441953 427.643371 
L 379.206168 427.007607 
L 383.095856 425.491555 
L 386.860071 424.513457 
L 390.749759 429.306138 
L 394.639447 428.279135 
L 398.152714 426.225129 
L 402.042403 427.741181 
L 405.806617 427.007607 
L 409.696306 428.621469 
L 413.46052 428.03461 
L 417.350209 427.252132 
L 421.239897 427.887896 
L 425.004112 427.007607 
L 428.8938 426.274034 
L 432.658015 425.980604 
L 436.547703 429.501758 
L 440.437392 429.110518 
L 447.840347 428.817089 
L 451.604562 428.572564 
L 455.49425 429.012709 
L 459.258465 426.909798 
L 463.148153 426.518558 
L 467.037841 427.447752 
L 470.802056 428.13242 
L 474.691744 427.056512 
L 478.455959 425.393745 
L 482.345647 429.452853 
L 489.748603 428.865994 
L 493.638291 428.083515 
L 497.402506 427.741181 
L 501.292194 428.670374 
L 505.056409 428.03461 
L 508.946097 428.719279 
L 512.835785 427.349942 
L 516.6 427.398847 
L 520.489688 427.594466 
L 524.253903 424.611267 
L 528.143591 429.208328 
L 532.03328 426.665273 
L 535.672021 428.865994 
L 539.561709 429.061614 
L 543.325924 429.012709 
L 547.215612 428.23023 
L 554.869515 428.52366 
L 558.759203 427.301037 
L 562.523418 426.616368 
L 566.413106 427.398847 
L 570.177321 425.687175 
L 574.067009 428.817089 
L 577.956698 429.355043 
L 581.469965 427.936801 
L 585.359653 428.670374 
L 589.123868 428.719279 
L 593.013556 427.838991 
L 596.777771 428.083515 
L 600.667459 428.670374 
L 604.557147 428.03461 
L 608.321362 428.03461 
L 612.21105 426.958703 
L 615.975265 425.589365 
L 619.864953 430.186426 
L 623.754642 428.914899 
L 631.157597 428.52366 
L 634.921812 428.914899 
L 638.8115 428.572564 
L 642.575715 428.474755 
L 646.465403 428.865994 
L 650.355092 428.23023 
L 654.119306 429.110518 
L 658.008995 426.909798 
L 661.773209 425.83389 
L 665.662898 429.648472 
L 669.552586 429.599568 
L 673.065853 429.061614 
L 676.955541 429.110518 
L 680.719756 429.355043 
L 684.609444 429.110518 
L 688.373659 427.594466 
L 692.263347 429.599568 
L 696.153036 428.817089 
L 699.91725 429.208328 
L 703.806939 428.670374 
L 707.571153 427.105417 
L 711.460842 430.626571 
L 715.35053 429.990807 
L 718.989271 429.550663 
L 722.878959 429.697377 
L 730.532862 429.599568 
L 734.297077 429.012709 
L 738.186765 429.746282 
L 742.076454 430.039712 
L 749.730357 429.452853 
L 753.494571 427.838991 
L 757.38426 430.675475 
L 764.787215 430.039712 
L 768.676903 430.088617 
L 772.441118 430.284236 
L 776.330806 429.599568 
L 780.095021 429.501758 
L 783.984709 429.648472 
L 787.874398 430.039712 
L 791.638612 429.746282 
L 795.528301 429.941902 
L 799.292515 428.52366 
L 803.182204 430.82219 
L 807.071892 430.577666 
L 814.474847 429.941902 
L 818.239062 430.137521 
L 822.12875 430.088617 
M 833.672342 430.039712 
L 837.436556 429.795187 
L 841.326245 429.208328 
L 845.090459 428.181325 
L 848.980148 430.82219 
L 856.383103 430.088617 
L 860.272792 429.746282 
L 864.037006 430.92 
L 867.926695 430.333141 
L 871.690909 429.257233 
L 871.690909 429.257233 
" clip-path="url(#pac63a8adb0)" style="fill: none; stroke: #ffa500; stroke-width: 1.5; stroke-linecap: square"/>
   </g>
   <g id="patch_3">
    <path d="M 126 448.56 
L 126 60.48 
" style="fill: none; stroke: #000000; stroke-width: 0.8; stroke-linejoin: miter; stroke-linecap: square"/>
   </g>
   <g id="patch_4">
    <path d="M 907.2 448.56 
L 907.2 60.48 
" style="fill: none; stroke: #000000; stroke-width: 0.8; stroke-linejoin: miter; stroke-linecap: square"/>
   </g>
   <g id="patch_5">
    <path d="M 126 448.56 
L 907.2 448.56 
" style="fill: none; stroke: #000000; stroke-width: 0.8; stroke-linejoin: miter; stroke-linecap: square"/>
   </g>
   <g id="patch_6">
    <path d="M 126 60.48 
L 907.2 60.48 
" style="fill: none; stroke: #000000; stroke-width: 0.8; stroke-linejoin: miter; stroke-linecap: square"/>
   </g>
   <g id="text_20">
    <!-- Time Series Plot of Wine Sales -->
    <g transform="translate(425.912813 54.48) scale(0.12 -0.12)">
     <defs>
      <path id="DejaVuSans-54" d="M -19 4666 
L 3928 4666 
L 3928 4134 
L 2272 4134 
L 2272 0 
L 1638 0 
L 1638 4134 
L -19 4134 
L -19 4666 
z
" transform="scale(0.015625)"/>
      <path id="DejaVuSans-69" d="M 603 3500 
L 1178 3500 
L 1178 0 
L 603 0 
L 603 3500 
z
M 603 4863 
L 1178 4863 
L 1178 4134 
L 603 4134 
L 603 4863 
z
" transform="scale(0.015625)"/>
      <path id="DejaVuSans-6d" d="M 3328 2828 
Q 3544 3216 3844 3400 
Q 4144 3584 4550 3584 
Q 5097 3584 5394 3201 
Q 5691 2819 5691 2113 
L 5691 0 
L 5113 0 
L 5113 2094 
Q 5113 2597 4934 2840 
Q 4756 3084 4391 3084 
Q 3944 3084 3684 2787 
Q 3425 2491 3425 1978 
L 3425 0 
L 2847 0 
L 2847 2094 
Q 2847 2600 2669 2842 
Q 2491 3084 2119 3084 
Q 1678 3084 1418 2786 
Q 1159 2488 1159 1978 
L 1159 0 
L 581 0 
L 581 3500 
L 1159 3500 
L 1159 2956 
Q 1356 3278 1631 3431 
Q 1906 3584 2284 3584 
Q 2666 3584 2933 3390 
Q 3200 3197 3328 2828 
z
" transform="scale(0.015625)"/>
      <path id="DejaVuSans-20" transform="scale(0.015625)"/>
      <path id="DejaVuSans-72" d="M 2631 2963 
Q 2534 3019 2420 3045 
Q 2306 3072 2169 3072 
Q 1681 3072 1420 2755 
Q 1159 2438 1159 1844 
L 1159 0 
L 581 0 
L 581 3500 
L 1159 3500 
L 1159 2956 
Q 1341 3275 1631 3429 
Q 1922 3584 2338 3584 
Q 2397 3584 2469 3576 
Q 2541 3569 2628 3553 
L 2631 2963 
z
" transform="scale(0.015625)"/>
      <path id="DejaVuSans-50" d="M 1259 4147 
L 1259 2394 
L 2053 2394 
Q 2494 2394 2734 2622 
Q 2975 2850 2975 3272 
Q 2975 3691 2734 3919 
Q 2494 4147 2053 4147 
L 1259 4147 
z
M 628 4666 
L 2053 4666 
Q 2838 4666 3239 4311 
Q 3641 3956 3641 3272 
Q 3641 2581 3239 2228 
Q 2838 1875 2053 1875 
L 1259 1875 
L 1259 0 
L 628 0 
L 628 4666 
z
" transform="scale(0.015625)"/>
      <path id="DejaVuSans-6f" d="M 1959 3097 
Q 1497 3097 1228 2736 
Q 959 2375 959 1747 
Q 959 1119 1226 758 
Q 1494 397 1959 397 
Q 2419 397 2687 759 
Q 2956 1122 2956 1747 
Q 2956 2369 2687 2733 
Q 2419 3097 1959 3097 
z
M 1959 3584 
Q 2709 3584 3137 3096 
Q 3566 2609 3566 1747 
Q 3566 888 3137 398 
Q 2709 -91 1959 -91 
Q 1206 -91 779 398 
Q 353 888 353 1747 
Q 353 2609 779 3096 
Q 1206 3584 1959 3584 
z
" transform="scale(0.015625)"/>
      <path id="DejaVuSans-66" d="M 2375 4863 
L 2375 4384 
L 1825 4384 
Q 1516 4384 1395 4259 
Q 1275 4134 1275 3809 
L 1275 3500 
L 2222 3500 
L 2222 3053 
L 1275 3053 
L 1275 0 
L 697 0 
L 697 3053 
L 147 3053 
L 147 3500 
L 697 3500 
L 697 3744 
Q 697 4328 969 4595 
Q 1241 4863 1831 4863 
L 2375 4863 
z
" transform="scale(0.015625)"/>
      <path id="DejaVuSans-57" d="M 213 4666 
L 850 4666 
L 1831 722 
L 2809 4666 
L 3519 4666 
L 4500 722 
L 5478 4666 
L 6119 4666 
L 4947 0 
L 4153 0 
L 3169 4050 
L 2175 0 
L 1381 0 
L 213 4666 
z
" transform="scale(0.015625)"/>
      <path id="DejaVuSans-6e" d="M 3513 2113 
L 3513 0 
L 2938 0 
L 2938 2094 
Q 2938 2591 2744 2837 
Q 2550 3084 2163 3084 
Q 1697 3084 1428 2787 
Q 1159 2491 1159 1978 
L 1159 0 
L 581 0 
L 581 3500 
L 1159 3500 
L 1159 2956 
Q 1366 3272 1645 3428 
Q 1925 3584 2291 3584 
Q 2894 3584 3203 3211 
Q 3513 2838 3513 2113 
z
" transform="scale(0.015625)"/>
     </defs>
     <use xlink:href="#DejaVuSans-54"/>
     <use xlink:href="#DejaVuSans-69" transform="translate(57.958984 0)"/>
     <use xlink:href="#DejaVuSans-6d" transform="translate(85.742188 0)"/>
     <use xlink:href="#DejaVuSans-65" transform="translate(183.154297 0)"/>
     <use xlink:href="#DejaVuSans-20" transform="translate(244.677734 0)"/>
     <use xlink:href="#DejaVuSans-53" transform="translate(276.464844 0)"/>
     <use xlink:href="#DejaVuSans-65" transform="translate(339.941406 0)"/>
     <use xlink:href="#DejaVuSans-72" transform="translate(401.464844 0)"/>
     <use xlink:href="#DejaVuSans-69" transform="translate(442.578125 0)"/>
     <use xlink:href="#DejaVuSans-65" transform="translate(470.361328 0)"/>
     <use xlink:href="#DejaVuSans-73" transform="translate(531.884766 0)"/>
     <use xlink:href="#DejaVuSans-20" transform="translate(583.984375 0)"/>
     <use xlink:href="#DejaVuSans-50" transform="translate(615.771484 0)"/>
     <use xlink:href="#DejaVuSans-6c" transform="translate(676.074219 0)"/>
     <use xlink:href="#DejaVuSans-6f" transform="translate(703.857422 0)"/>
     <use xlink:href="#DejaVuSans-74" transform="translate(765.039062 0)"/>
     <use xlink:href="#DejaVuSans-20" transform="translate(804.248047 0)"/>
     <use xlink:href="#DejaVuSans-6f" transform="translate(836.035156 0)"/>
     <use xlink:href="#DejaVuSans-66" transform="translate(897.216797 0)"/>
     <use xlink:href="#DejaVuSans-20" transform="translate(932.421875 0)"/>
     <use xlink:href="#DejaVuSans-57" transform="translate(964.208984 0)"/>
     <use xlink:href="#DejaVuSans-69" transform="translate(1060.835938 0)"/>
     <use xlink:href="#DejaVuSans-6e" transform="translate(1088.619141 0)"/>
     <use xlink:href="#DejaVuSans-65" transform="translate(1151.998047 0)"/>
     <use xlink:href="#DejaVuSans-20" transform="translate(1213.521484 0)"/>
     <use xlink:href="#DejaVuSans-53" transform="translate(1245.308594 0)"/>
     <use xlink:href="#DejaVuSans-61" transform="translate(1308.785156 0)"/>
     <use xlink:href="#DejaVuSans-6c" transform="translate(1370.064453 0)"/>
     <use xlink:href="#DejaVuSans-65" transform="translate(1397.847656 0)"/>
     <use xlink:href="#DejaVuSans-73" transform="translate(1459.371094 0)"/>
    </g>
   </g>
   <g id="legend_1">
    <g id="patch_7">
     <path d="M 791.435938 97.83625 
L 900.2 97.83625 
Q 902.2 97.83625 902.2 95.83625 
L 902.2 67.48 
Q 902.2 65.48 900.2 65.48 
L 791.435938 65.48 
Q 789.435938 65.48 789.435938 67.48 
L 789.435938 95.83625 
Q 789.435938 97.83625 791.435938 97.83625 
z
" style="fill: #ffffff; opacity: 0.8; stroke: #cccccc; stroke-linejoin: miter"/>
    </g>
    <g id="line2d_37">
     <path d="M 793.435938 73.578438 
L 803.435938 73.578438 
L 813.435938 73.578438 
" style="fill: none; stroke: #0000ff; stroke-width: 1.5; stroke-linecap: square"/>
    </g>
    <g id="text_21">
     <!-- Sparkling Sales -->
     <g transform="translate(821.435938 77.078438) scale(0.1 -0.1)">
      <defs>
       <path id="DejaVuSans-70" d="M 1159 525 
L 1159 -1331 
L 581 -1331 
L 581 3500 
L 1159 3500 
L 1159 2969 
Q 1341 3281 1617 3432 
Q 1894 3584 2278 3584 
Q 2916 3584 3314 3078 
Q 3713 2572 3713 1747 
Q 3713 922 3314 415 
Q 2916 -91 2278 -91 
Q 1894 -91 1617 61 
Q 1341 213 1159 525 
z
M 3116 1747 
Q 3116 2381 2855 2742 
Q 2594 3103 2138 3103 
Q 1681 3103 1420 2742 
Q 1159 2381 1159 1747 
Q 1159 1113 1420 752 
Q 1681 391 2138 391 
Q 2594 391 2855 752 
Q 3116 1113 3116 1747 
z
" transform="scale(0.015625)"/>
       <path id="DejaVuSans-6b" d="M 581 4863 
L 1159 4863 
L 1159 1991 
L 2875 3500 
L 3609 3500 
L 1753 1863 
L 3688 0 
L 2938 0 
L 1159 1709 
L 1159 0 
L 581 0 
L 581 4863 
z
" transform="scale(0.015625)"/>
       <path id="DejaVuSans-67" d="M 2906 1791 
Q 2906 2416 2648 2759 
Q 2391 3103 1925 3103 
Q 1463 3103 1205 2759 
Q 947 2416 947 1791 
Q 947 1169 1205 825 
Q 1463 481 1925 481 
Q 2391 481 2648 825 
Q 2906 1169 2906 1791 
z
M 3481 434 
Q 3481 -459 3084 -895 
Q 2688 -1331 1869 -1331 
Q 1566 -1331 1297 -1286 
Q 1028 -1241 775 -1147 
L 775 -588 
Q 1028 -725 1275 -790 
Q 1522 -856 1778 -856 
Q 2344 -856 2625 -561 
Q 2906 -266 2906 331 
L 2906 616 
Q 2728 306 2450 153 
Q 2172 0 1784 0 
Q 1141 0 747 490 
Q 353 981 353 1791 
Q 353 2603 747 3093 
Q 1141 3584 1784 3584 
Q 2172 3584 2450 3431 
Q 2728 3278 2906 2969 
L 2906 3500 
L 3481 3500 
L 3481 434 
z
" transform="scale(0.015625)"/>
      </defs>
      <use xlink:href="#DejaVuSans-53"/>
      <use xlink:href="#DejaVuSans-70" transform="translate(63.476562 0)"/>
      <use xlink:href="#DejaVuSans-61" transform="translate(126.953125 0)"/>
      <use xlink:href="#DejaVuSans-72" transform="translate(188.232422 0)"/>
      <use xlink:href="#DejaVuSans-6b" transform="translate(229.345703 0)"/>
      <use xlink:href="#DejaVuSans-6c" transform="translate(287.255859 0)"/>
      <use xlink:href="#DejaVuSans-69" transform="translate(315.039062 0)"/>
      <use xlink:href="#DejaVuSans-6e" transform="translate(342.822266 0)"/>
      <use xlink:href="#DejaVuSans-67" transform="translate(406.201172 0)"/>
      <use xlink:href="#DejaVuSans-20" transform="translate(469.677734 0)"/>
      <use xlink:href="#DejaVuSans-53" transform="translate(501.464844 0)"/>
      <use xlink:href="#DejaVuSans-61" transform="translate(564.941406 0)"/>
      <use xlink:href="#DejaVuSans-6c" transform="translate(626.220703 0)"/>
      <use xlink:href="#DejaVuSans-65" transform="translate(654.003906 0)"/>
      <use xlink:href="#DejaVuSans-73" transform="translate(715.527344 0)"/>
     </g>
    </g>
    <g id="line2d_38">
     <path d="M 793.435938 88.256563 
L 803.435938 88.256563 
L 813.435938 88.256563 
" style="fill: none; stroke: #ffa500; stroke-width: 1.5; stroke-linecap: square"/>
    </g>
    <g id="text_22">
     <!-- Rose Sales -->
     <g transform="translate(821.435938 91.756563) scale(0.1 -0.1)">
      <defs>
       <path id="DejaVuSans-52" d="M 2841 2188 
Q 3044 2119 3236 1894 
Q 3428 1669 3622 1275 
L 4263 0 
L 3584 0 
L 2988 1197 
Q 2756 1666 2539 1819 
Q 2322 1972 1947 1972 
L 1259 1972 
L 1259 0 
L 628 0 
L 628 4666 
L 2053 4666 
Q 2853 4666 3247 4331 
Q 3641 3997 3641 3322 
Q 3641 2881 3436 2590 
Q 3231 2300 2841 2188 
z
M 1259 4147 
L 1259 2491 
L 2053 2491 
Q 2509 2491 2742 2702 
Q 2975 2913 2975 3322 
Q 2975 3731 2742 3939 
Q 2509 4147 2053 4147 
L 1259 4147 
z
" transform="scale(0.015625)"/>
      </defs>
      <use xlink:href="#DejaVuSans-52"/>
      <use xlink:href="#DejaVuSans-6f" transform="translate(64.982422 0)"/>
      <use xlink:href="#DejaVuSans-73" transform="translate(126.164062 0)"/>
      <use xlink:href="#DejaVuSans-65" transform="translate(178.263672 0)"/>
      <use xlink:href="#DejaVuSans-20" transform="translate(239.787109 0)"/>
      <use xlink:href="#DejaVuSans-53" transform="translate(271.574219 0)"/>
      <use xlink:href="#DejaVuSans-61" transform="translate(335.050781 0)"/>
      <use xlink:href="#DejaVuSans-6c" transform="translate(396.330078 0)"/>
      <use xlink:href="#DejaVuSans-65" transform="translate(424.113281 0)"/>
      <use xlink:href="#DejaVuSans-73" transform="translate(485.636719 0)"/>
     </g>
    </g>
   </g>
  </g>
 </g>
 <defs>
  <clipPath id="pac63a8adb0">
   <rect x="126" y="60.48" width="781.2" height="388.08"/>
  </clipPath>
 </defs>
</svg>
