<?xml version="1.0" encoding="utf-8" standalone="no"?>
<!DOCTYPE svg PUBLIC "-//W3C//DTD SVG 1.1//EN"
  "http://www.w3.org/Graphics/SVG/1.1/DTD/svg11.dtd">
<svg xmlns:xlink="http://www.w3.org/1999/xlink" width="1440pt" height="360pt" viewBox="0 0 1440 360" xmlns="http://www.w3.org/2000/svg" version="1.1">
 <metadata>
  <rdf:RDF xmlns:dc="http://purl.org/dc/elements/1.1/" xmlns:cc="http://creativecommons.org/ns#" xmlns:rdf="http://www.w3.org/1999/02/22-rdf-syntax-ns#">
   <cc:Work>
    <dc:type rdf:resource="http://purl.org/dc/dcmitype/StillImage"/>
    <dc:date>2025-01-01T18:19:01.823488</dc:date>
    <dc:format>image/svg+xml</dc:format>
    <dc:creator>
     <cc:Agent>
      <dc:title>Matplotlib v3.10.0, https://matplotlib.org/</dc:title>
     </cc:Agent>
    </dc:creator>
   </cc:Work>
  </rdf:RDF>
 </metadata>
 <defs>
  <style type="text/css">*{stroke-linejoin: round; stroke-linecap: butt}</style>
 </defs>
 <g id="figure_1">
  <g id="patch_1">
   <path d="M 0 360 
L 1440 360 
L 1440 0 
L 0 0 
z
" style="fill: #ffffff"/>
  </g>
  <g id="axes_1">
   <g id="patch_2">
    <path d="M 54.02 318.04 
L 1429.2 318.04 
L 1429.2 26.88 
L 54.02 26.88 
z
" style="fill: #ffffff"/>
   </g>
   <g id="matplotlib.axis_1">
    <g id="xtick_1">
     <g id="line2d_1">
      <defs>
       <path id="m40613ceb80" d="M 0 0 
L 0 3.5 
" style="stroke: #000000; stroke-width: 0.8"/>
      </defs>
      <g>
       <use xlink:href="#m40613ceb80" x="133.919196" y="318.04" style="stroke: #000000; stroke-width: 0.8"/>
      </g>
     </g>
     <g id="text_1">
      <!-- 0 -->
      <g transform="translate(130.737946 332.638438) scale(0.1 -0.1)">
       <defs>
        <path id="DejaVuSans-30" d="M 2034 4250 
Q 1547 4250 1301 3770 
Q 1056 3291 1056 2328 
Q 1056 1369 1301 889 
Q 1547 409 2034 409 
Q 2525 409 2770 889 
Q 3016 1369 3016 2328 
Q 3016 3291 2770 3770 
Q 2525 4250 2034 4250 
z
M 2034 4750 
Q 2819 4750 3233 4129 
Q 3647 3509 3647 2328 
Q 3647 1150 3233 529 
Q 2819 -91 2034 -91 
Q 1250 -91 836 529 
Q 422 1150 422 2328 
Q 422 3509 836 4129 
Q 1250 4750 2034 4750 
z
" transform="scale(0.015625)"/>
       </defs>
       <use xlink:href="#DejaVuSans-30"/>
      </g>
     </g>
    </g>
    <g id="xtick_2">
     <g id="line2d_2">
      <g>
       <use xlink:href="#m40613ceb80" x="298.605051" y="318.04" style="stroke: #000000; stroke-width: 0.8"/>
      </g>
     </g>
     <g id="text_2">
      <!-- 250 -->
      <g transform="translate(289.061301 332.638438) scale(0.1 -0.1)">
       <defs>
        <path id="DejaVuSans-32" d="M 1228 531 
L 3431 531 
L 3431 0 
L 469 0 
L 469 531 
Q 828 903 1448 1529 
Q 2069 2156 2228 2338 
Q 2531 2678 2651 2914 
Q 2772 3150 2772 3378 
Q 2772 3750 2511 3984 
Q 2250 4219 1831 4219 
Q 1534 4219 1204 4116 
Q 875 4013 500 3803 
L 500 4441 
Q 881 4594 1212 4672 
Q 1544 4750 1819 4750 
Q 2544 4750 2975 4387 
Q 3406 4025 3406 3419 
Q 3406 3131 3298 2873 
Q 3191 2616 2906 2266 
Q 2828 2175 2409 1742 
Q 1991 1309 1228 531 
z
" transform="scale(0.015625)"/>
        <path id="DejaVuSans-35" d="M 691 4666 
L 3169 4666 
L 3169 4134 
L 1269 4134 
L 1269 2991 
Q 1406 3038 1543 3061 
Q 1681 3084 1819 3084 
Q 2600 3084 3056 2656 
Q 3513 2228 3513 1497 
Q 3513 744 3044 326 
Q 2575 -91 1722 -91 
Q 1428 -91 1123 -41 
Q 819 9 494 109 
L 494 744 
Q 775 591 1075 516 
Q 1375 441 1709 441 
Q 2250 441 2565 725 
Q 2881 1009 2881 1497 
Q 2881 1984 2565 2268 
Q 2250 2553 1709 2553 
Q 1456 2553 1204 2497 
Q 953 2441 691 2322 
L 691 4666 
z
" transform="scale(0.015625)"/>
       </defs>
       <use xlink:href="#DejaVuSans-32"/>
       <use xlink:href="#DejaVuSans-35" transform="translate(63.623047 0)"/>
       <use xlink:href="#DejaVuSans-30" transform="translate(127.246094 0)"/>
      </g>
     </g>
    </g>
    <g id="xtick_3">
     <g id="line2d_3">
      <g>
       <use xlink:href="#m40613ceb80" x="463.290905" y="318.04" style="stroke: #000000; stroke-width: 0.8"/>
      </g>
     </g>
     <g id="text_3">
      <!-- 500 -->
      <g transform="translate(453.747155 332.638438) scale(0.1 -0.1)">
       <use xlink:href="#DejaVuSans-35"/>
       <use xlink:href="#DejaVuSans-30" transform="translate(63.623047 0)"/>
       <use xlink:href="#DejaVuSans-30" transform="translate(127.246094 0)"/>
      </g>
     </g>
    </g>
    <g id="xtick_4">
     <g id="line2d_4">
      <g>
       <use xlink:href="#m40613ceb80" x="627.97676" y="318.04" style="stroke: #000000; stroke-width: 0.8"/>
      </g>
     </g>
     <g id="text_4">
      <!-- 750 -->
      <g transform="translate(618.43301 332.638438) scale(0.1 -0.1)">
       <defs>
        <path id="DejaVuSans-37" d="M 525 4666 
L 3525 4666 
L 3525 4397 
L 1831 0 
L 1172 0 
L 2766 4134 
L 525 4134 
L 525 4666 
z
" transform="scale(0.015625)"/>
       </defs>
       <use xlink:href="#DejaVuSans-37"/>
       <use xlink:href="#DejaVuSans-35" transform="translate(63.623047 0)"/>
       <use xlink:href="#DejaVuSans-30" transform="translate(127.246094 0)"/>
      </g>
     </g>
    </g>
    <g id="xtick_5">
     <g id="line2d_5">
      <g>
       <use xlink:href="#m40613ceb80" x="792.662615" y="318.04" style="stroke: #000000; stroke-width: 0.8"/>
      </g>
     </g>
     <g id="text_5">
      <!-- 1000 -->
      <g transform="translate(779.937615 332.638438) scale(0.1 -0.1)">
       <defs>
        <path id="DejaVuSans-31" d="M 794 531 
L 1825 531 
L 1825 4091 
L 703 3866 
L 703 4441 
L 1819 4666 
L 2450 4666 
L 2450 531 
L 3481 531 
L 3481 0 
L 794 0 
L 794 531 
z
" transform="scale(0.015625)"/>
       </defs>
       <use xlink:href="#DejaVuSans-31"/>
       <use xlink:href="#DejaVuSans-30" transform="translate(63.623047 0)"/>
       <use xlink:href="#DejaVuSans-30" transform="translate(127.246094 0)"/>
       <use xlink:href="#DejaVuSans-30" transform="translate(190.869141 0)"/>
      </g>
     </g>
    </g>
    <g id="xtick_6">
     <g id="line2d_6">
      <g>
       <use xlink:href="#m40613ceb80" x="957.34847" y="318.04" style="stroke: #000000; stroke-width: 0.8"/>
      </g>
     </g>
     <g id="text_6">
      <!-- 1250 -->
      <g transform="translate(944.62347 332.638438) scale(0.1 -0.1)">
       <use xlink:href="#DejaVuSans-31"/>
       <use xlink:href="#DejaVuSans-32" transform="translate(63.623047 0)"/>
       <use xlink:href="#DejaVuSans-35" transform="translate(127.246094 0)"/>
       <use xlink:href="#DejaVuSans-30" transform="translate(190.869141 0)"/>
      </g>
     </g>
    </g>
    <g id="xtick_7">
     <g id="line2d_7">
      <g>
       <use xlink:href="#m40613ceb80" x="1122.034325" y="318.04" style="stroke: #000000; stroke-width: 0.8"/>
      </g>
     </g>
     <g id="text_7">
      <!-- 1500 -->
      <g transform="translate(1109.309325 332.638438) scale(0.1 -0.1)">
       <use xlink:href="#DejaVuSans-31"/>
       <use xlink:href="#DejaVuSans-35" transform="translate(63.623047 0)"/>
       <use xlink:href="#DejaVuSans-30" transform="translate(127.246094 0)"/>
       <use xlink:href="#DejaVuSans-30" transform="translate(190.869141 0)"/>
      </g>
     </g>
    </g>
    <g id="xtick_8">
     <g id="line2d_8">
      <g>
       <use xlink:href="#m40613ceb80" x="1286.720179" y="318.04" style="stroke: #000000; stroke-width: 0.8"/>
      </g>
     </g>
     <g id="text_8">
      <!-- 1750 -->
      <g transform="translate(1273.995179 332.638438) scale(0.1 -0.1)">
       <use xlink:href="#DejaVuSans-31"/>
       <use xlink:href="#DejaVuSans-37" transform="translate(63.623047 0)"/>
       <use xlink:href="#DejaVuSans-35" transform="translate(127.246094 0)"/>
       <use xlink:href="#DejaVuSans-30" transform="translate(190.869141 0)"/>
      </g>
     </g>
    </g>
    <g id="text_9">
     <!-- Values -->
     <g transform="translate(725.274063 346.316563) scale(0.1 -0.1)">
      <defs>
       <path id="DejaVuSans-56" d="M 1831 0 
L 50 4666 
L 709 4666 
L 2188 738 
L 3669 4666 
L 4325 4666 
L 2547 0 
L 1831 0 
z
" transform="scale(0.015625)"/>
       <path id="DejaVuSans-61" d="M 2194 1759 
Q 1497 1759 1228 1600 
Q 959 1441 959 1056 
Q 959 750 1161 570 
Q 1363 391 1709 391 
Q 2188 391 2477 730 
Q 2766 1069 2766 1631 
L 2766 1759 
L 2194 1759 
z
M 3341 1997 
L 3341 0 
L 2766 0 
L 2766 531 
Q 2569 213 2275 61 
Q 1981 -91 1556 -91 
Q 1019 -91 701 211 
Q 384 513 384 1019 
Q 384 1609 779 1909 
Q 1175 2209 1959 2209 
L 2766 2209 
L 2766 2266 
Q 2766 2663 2505 2880 
Q 2244 3097 1772 3097 
Q 1472 3097 1187 3025 
Q 903 2953 641 2809 
L 641 3341 
Q 956 3463 1253 3523 
Q 1550 3584 1831 3584 
Q 2591 3584 2966 3190 
Q 3341 2797 3341 1997 
z
" transform="scale(0.015625)"/>
       <path id="DejaVuSans-6c" d="M 603 4863 
L 1178 4863 
L 1178 0 
L 603 0 
L 603 4863 
z
" transform="scale(0.015625)"/>
       <path id="DejaVuSans-75" d="M 544 1381 
L 544 3500 
L 1119 3500 
L 1119 1403 
Q 1119 906 1312 657 
Q 1506 409 1894 409 
Q 2359 409 2629 706 
Q 2900 1003 2900 1516 
L 2900 3500 
L 3475 3500 
L 3475 0 
L 2900 0 
L 2900 538 
Q 2691 219 2414 64 
Q 2138 -91 1772 -91 
Q 1169 -91 856 284 
Q 544 659 544 1381 
z
M 1991 3584 
L 1991 3584 
z
" transform="scale(0.015625)"/>
       <path id="DejaVuSans-65" d="M 3597 1894 
L 3597 1613 
L 953 1613 
Q 991 1019 1311 708 
Q 1631 397 2203 397 
Q 2534 397 2845 478 
Q 3156 559 3463 722 
L 3463 178 
Q 3153 47 2828 -22 
Q 2503 -91 2169 -91 
Q 1331 -91 842 396 
Q 353 884 353 1716 
Q 353 2575 817 3079 
Q 1281 3584 2069 3584 
Q 2775 3584 3186 3129 
Q 3597 2675 3597 1894 
z
M 3022 2063 
Q 3016 2534 2758 2815 
Q 2500 3097 2075 3097 
Q 1594 3097 1305 2825 
Q 1016 2553 972 2059 
L 3022 2063 
z
" transform="scale(0.015625)"/>
       <path id="DejaVuSans-73" d="M 2834 3397 
L 2834 2853 
Q 2591 2978 2328 3040 
Q 2066 3103 1784 3103 
Q 1356 3103 1142 2972 
Q 928 2841 928 2578 
Q 928 2378 1081 2264 
Q 1234 2150 1697 2047 
L 1894 2003 
Q 2506 1872 2764 1633 
Q 3022 1394 3022 966 
Q 3022 478 2636 193 
Q 2250 -91 1575 -91 
Q 1294 -91 989 -36 
Q 684 19 347 128 
L 347 722 
Q 666 556 975 473 
Q 1284 391 1588 391 
Q 1994 391 2212 530 
Q 2431 669 2431 922 
Q 2431 1156 2273 1281 
Q 2116 1406 1581 1522 
L 1381 1569 
Q 847 1681 609 1914 
Q 372 2147 372 2553 
Q 372 3047 722 3315 
Q 1072 3584 1716 3584 
Q 2034 3584 2315 3537 
Q 2597 3491 2834 3397 
z
" transform="scale(0.015625)"/>
      </defs>
      <use xlink:href="#DejaVuSans-56"/>
      <use xlink:href="#DejaVuSans-61" transform="translate(60.658203 0)"/>
      <use xlink:href="#DejaVuSans-6c" transform="translate(121.9375 0)"/>
      <use xlink:href="#DejaVuSans-75" transform="translate(149.720703 0)"/>
      <use xlink:href="#DejaVuSans-65" transform="translate(213.099609 0)"/>
      <use xlink:href="#DejaVuSans-73" transform="translate(274.623047 0)"/>
     </g>
    </g>
   </g>
   <g id="matplotlib.axis_2">
    <g id="ytick_1">
     <g id="line2d_9">
      <defs>
       <path id="m599f9aae1e" d="M 0 0 
L -3.5 0 
" style="stroke: #000000; stroke-width: 0.8"/>
      </defs>
      <g>
       <use xlink:href="#m599f9aae1e" x="54.02" y="318.04" style="stroke: #000000; stroke-width: 0.8"/>
      </g>
     </g>
     <g id="text_10">
      <!-- 0.00 -->
      <g transform="translate(24.754375 321.839219) scale(0.1 -0.1)">
       <defs>
        <path id="DejaVuSans-2e" d="M 684 794 
L 1344 794 
L 1344 0 
L 684 0 
L 684 794 
z
" transform="scale(0.015625)"/>
       </defs>
       <use xlink:href="#DejaVuSans-30"/>
       <use xlink:href="#DejaVuSans-2e" transform="translate(63.623047 0)"/>
       <use xlink:href="#DejaVuSans-30" transform="translate(95.410156 0)"/>
       <use xlink:href="#DejaVuSans-30" transform="translate(159.033203 0)"/>
      </g>
     </g>
    </g>
    <g id="ytick_2">
     <g id="line2d_10">
      <g>
       <use xlink:href="#m599f9aae1e" x="54.02" y="258.663631" style="stroke: #000000; stroke-width: 0.8"/>
      </g>
     </g>
     <g id="text_11">
      <!-- 0.01 -->
      <g transform="translate(24.754375 262.462849) scale(0.1 -0.1)">
       <use xlink:href="#DejaVuSans-30"/>
       <use xlink:href="#DejaVuSans-2e" transform="translate(63.623047 0)"/>
       <use xlink:href="#DejaVuSans-30" transform="translate(95.410156 0)"/>
       <use xlink:href="#DejaVuSans-31" transform="translate(159.033203 0)"/>
      </g>
     </g>
    </g>
    <g id="ytick_3">
     <g id="line2d_11">
      <g>
       <use xlink:href="#m599f9aae1e" x="54.02" y="199.287261" style="stroke: #000000; stroke-width: 0.8"/>
      </g>
     </g>
     <g id="text_12">
      <!-- 0.02 -->
      <g transform="translate(24.754375 203.08648) scale(0.1 -0.1)">
       <use xlink:href="#DejaVuSans-30"/>
       <use xlink:href="#DejaVuSans-2e" transform="translate(63.623047 0)"/>
       <use xlink:href="#DejaVuSans-30" transform="translate(95.410156 0)"/>
       <use xlink:href="#DejaVuSans-32" transform="translate(159.033203 0)"/>
      </g>
     </g>
    </g>
    <g id="ytick_4">
     <g id="line2d_12">
      <g>
       <use xlink:href="#m599f9aae1e" x="54.02" y="139.910892" style="stroke: #000000; stroke-width: 0.8"/>
      </g>
     </g>
     <g id="text_13">
      <!-- 0.03 -->
      <g transform="translate(24.754375 143.710111) scale(0.1 -0.1)">
       <defs>
        <path id="DejaVuSans-33" d="M 2597 2516 
Q 3050 2419 3304 2112 
Q 3559 1806 3559 1356 
Q 3559 666 3084 287 
Q 2609 -91 1734 -91 
Q 1441 -91 1130 -33 
Q 819 25 488 141 
L 488 750 
Q 750 597 1062 519 
Q 1375 441 1716 441 
Q 2309 441 2620 675 
Q 2931 909 2931 1356 
Q 2931 1769 2642 2001 
Q 2353 2234 1838 2234 
L 1294 2234 
L 1294 2753 
L 1863 2753 
Q 2328 2753 2575 2939 
Q 2822 3125 2822 3475 
Q 2822 3834 2567 4026 
Q 2313 4219 1838 4219 
Q 1578 4219 1281 4162 
Q 984 4106 628 3988 
L 628 4550 
Q 988 4650 1302 4700 
Q 1616 4750 1894 4750 
Q 2613 4750 3031 4423 
Q 3450 4097 3450 3541 
Q 3450 3153 3228 2886 
Q 3006 2619 2597 2516 
z
" transform="scale(0.015625)"/>
       </defs>
       <use xlink:href="#DejaVuSans-30"/>
       <use xlink:href="#DejaVuSans-2e" transform="translate(63.623047 0)"/>
       <use xlink:href="#DejaVuSans-30" transform="translate(95.410156 0)"/>
       <use xlink:href="#DejaVuSans-33" transform="translate(159.033203 0)"/>
      </g>
     </g>
    </g>
    <g id="ytick_5">
     <g id="line2d_13">
      <g>
       <use xlink:href="#m599f9aae1e" x="54.02" y="80.534522" style="stroke: #000000; stroke-width: 0.8"/>
      </g>
     </g>
     <g id="text_14">
      <!-- 0.04 -->
      <g transform="translate(24.754375 84.333741) scale(0.1 -0.1)">
       <defs>
        <path id="DejaVuSans-34" d="M 2419 4116 
L 825 1625 
L 2419 1625 
L 2419 4116 
z
M 2253 4666 
L 3047 4666 
L 3047 1625 
L 3713 1625 
L 3713 1100 
L 3047 1100 
L 3047 0 
L 2419 0 
L 2419 1100 
L 313 1100 
L 313 1709 
L 2253 4666 
z
" transform="scale(0.015625)"/>
       </defs>
       <use xlink:href="#DejaVuSans-30"/>
       <use xlink:href="#DejaVuSans-2e" transform="translate(63.623047 0)"/>
       <use xlink:href="#DejaVuSans-30" transform="translate(95.410156 0)"/>
       <use xlink:href="#DejaVuSans-34" transform="translate(159.033203 0)"/>
      </g>
     </g>
    </g>
    <g id="text_15">
     <!-- Density -->
     <g transform="translate(18.674687 191.468594) rotate(-90) scale(0.1 -0.1)">
      <defs>
       <path id="DejaVuSans-44" d="M 1259 4147 
L 1259 519 
L 2022 519 
Q 2988 519 3436 956 
Q 3884 1394 3884 2338 
Q 3884 3275 3436 3711 
Q 2988 4147 2022 4147 
L 1259 4147 
z
M 628 4666 
L 1925 4666 
Q 3281 4666 3915 4102 
Q 4550 3538 4550 2338 
Q 4550 1131 3912 565 
Q 3275 0 1925 0 
L 628 0 
L 628 4666 
z
" transform="scale(0.015625)"/>
       <path id="DejaVuSans-6e" d="M 3513 2113 
L 3513 0 
L 2938 0 
L 2938 2094 
Q 2938 2591 2744 2837 
Q 2550 3084 2163 3084 
Q 1697 3084 1428 2787 
Q 1159 2491 1159 1978 
L 1159 0 
L 581 0 
L 581 3500 
L 1159 3500 
L 1159 2956 
Q 1366 3272 1645 3428 
Q 1925 3584 2291 3584 
Q 2894 3584 3203 3211 
Q 3513 2838 3513 2113 
z
" transform="scale(0.015625)"/>
       <path id="DejaVuSans-69" d="M 603 3500 
L 1178 3500 
L 1178 0 
L 603 0 
L 603 3500 
z
M 603 4863 
L 1178 4863 
L 1178 4134 
L 603 4134 
L 603 4863 
z
" transform="scale(0.015625)"/>
       <path id="DejaVuSans-74" d="M 1172 4494 
L 1172 3500 
L 2356 3500 
L 2356 3053 
L 1172 3053 
L 1172 1153 
Q 1172 725 1289 603 
Q 1406 481 1766 481 
L 2356 481 
L 2356 0 
L 1766 0 
Q 1100 0 847 248 
Q 594 497 594 1153 
L 594 3053 
L 172 3053 
L 172 3500 
L 594 3500 
L 594 4494 
L 1172 4494 
z
" transform="scale(0.015625)"/>
       <path id="DejaVuSans-79" d="M 2059 -325 
Q 1816 -950 1584 -1140 
Q 1353 -1331 966 -1331 
L 506 -1331 
L 506 -850 
L 844 -850 
Q 1081 -850 1212 -737 
Q 1344 -625 1503 -206 
L 1606 56 
L 191 3500 
L 800 3500 
L 1894 763 
L 2988 3500 
L 3597 3500 
L 2059 -325 
z
" transform="scale(0.015625)"/>
      </defs>
      <use xlink:href="#DejaVuSans-44"/>
      <use xlink:href="#DejaVuSans-65" transform="translate(77.001953 0)"/>
      <use xlink:href="#DejaVuSans-6e" transform="translate(138.525391 0)"/>
      <use xlink:href="#DejaVuSans-73" transform="translate(201.904297 0)"/>
      <use xlink:href="#DejaVuSans-69" transform="translate(254.003906 0)"/>
      <use xlink:href="#DejaVuSans-74" transform="translate(281.787109 0)"/>
      <use xlink:href="#DejaVuSans-79" transform="translate(320.996094 0)"/>
     </g>
    </g>
   </g>
   <g id="line2d_14">
    <path d="M 127.920977 318.009664 
L 129.472977 317.808729 
L 130.248978 317.530364 
L 131.024978 317.073665 
L 133.352979 315.364797 
L 134.12898 315.257635 
L 134.90498 315.549066 
L 136.068981 316.44662 
L 137.232981 317.312034 
L 138.008981 317.68171 
L 139.172982 317.946446 
L 141.112983 318.035251 
L 159.348992 318.039361 
L 165.168994 317.938693 
L 167.884996 317.699114 
L 170.212997 317.289114 
L 175.644999 315.984494 
L 177.585 315.311313 
L 179.137001 314.524234 
L 180.301002 313.687126 
L 181.465002 312.576313 
L 183.017003 310.727743 
L 184.957004 308.049757 
L 186.509005 305.53848 
L 187.673005 303.292803 
L 188.837006 300.644829 
L 190.389006 296.493864 
L 192.329007 291.330303 
L 193.105008 289.838656 
L 193.881008 288.928369 
L 194.269008 288.726707 
L 194.657008 288.710121 
L 195.045009 288.891801 
L 195.433009 289.287268 
L 195.821009 289.914184 
L 196.597009 291.93066 
L 197.37301 295.014968 
L 198.53701 301.278132 
L 200.089011 310.029943 
L 200.865011 313.32507 
L 201.641012 315.574221 
L 202.417012 316.901089 
L 203.193012 317.577493 
L 203.969013 317.875433 
L 205.133013 318.012891 
L 205.133013 318.012891 
" clip-path="url(#p5bea1fe8f3)" style="fill: none; stroke: #17becf; stroke-width: 1.5; stroke-linecap: square"/>
   </g>
   <g id="line2d_15">
    <path d="M 126.656457 317.834485 
L 127.698067 317.325514 
L 128.739677 315.961328 
L 129.781287 312.969988 
L 130.822897 307.646554 
L 133.947727 285.016721 
L 134.989337 282.247597 
L 136.030947 283.875463 
L 137.072557 288.549067 
L 139.155777 299.205863 
L 140.197387 303.030188 
L 141.238997 305.765247 
L 142.280607 307.747902 
L 143.322217 309.258155 
L 144.363827 310.453981 
L 145.405437 311.409154 
L 146.447047 312.164317 
L 148.530267 313.243381 
L 152.696707 314.813092 
L 155.821537 315.751425 
L 157.904757 316.144347 
L 161.029587 316.431827 
L 177.695347 317.429289 
L 192.277887 317.761398 
L 233.942287 317.965308 
L 273.523467 318.031739 
L 308.938207 318.04 
L 333.936847 318.039875 
L 333.936847 318.039875 
" clip-path="url(#p5bea1fe8f3)" style="fill: none; stroke: #bcbd22; stroke-width: 1.5; stroke-linecap: square"/>
   </g>
   <g id="line2d_16">
    <path d="M 129.396557 317.740703 
L 129.909421 317.225585 
L 130.422284 316.05685 
L 130.935148 313.714544 
L 131.448012 309.579708 
L 131.960875 303.178115 
L 132.986602 284.5306 
L 133.499466 274.76676 
L 134.012329 267.205807 
L 134.525193 263.370757 
L 135.038056 263.749204 
L 135.55092 267.677169 
L 137.602374 291.656746 
L 138.115238 295.573034 
L 138.628101 298.527498 
L 139.653828 302.611439 
L 140.679556 305.435851 
L 141.705283 307.586077 
L 142.73101 309.313489 
L 143.756737 310.753308 
L 144.782464 311.91896 
L 145.808191 312.794562 
L 147.346782 313.714742 
L 149.398236 314.639185 
L 151.44969 315.256884 
L 158.116916 316.95688 
L 159.655507 317.079561 
L 168.887051 317.236529 
L 171.451369 317.511213 
L 174.015687 317.4711 
L 176.067141 317.50705 
L 179.657186 317.720456 
L 185.298685 317.842882 
L 194.017365 318.001437 
L 231.456405 318.03986 
L 231.456405 318.03986 
" clip-path="url(#p5bea1fe8f3)" style="fill: none; stroke: #7f7f7f; stroke-width: 1.5; stroke-linecap: square"/>
   </g>
   <g id="line2d_17">
    <path d="M 132.058523 316.272939 
L 132.77761 287.188124 
L 133.496697 172.033055 
L 134.215784 120.148894 
L 134.934871 225.179404 
L 135.653957 289.960631 
L 136.373044 305.35331 
L 137.092131 310.203325 
L 137.811218 312.759107 
L 138.530305 314.366637 
L 139.249391 315.276507 
L 140.687565 316.103854 
L 141.406652 316.419908 
L 144.282999 317.151183 
L 145.002086 317.529673 
L 145.721173 317.719112 
L 146.44026 317.710262 
L 147.878433 317.882411 
L 149.316607 317.905017 
L 150.754781 317.935199 
L 152.192954 317.943795 
L 153.631128 318.03798 
L 183.832774 318.015465 
L 192.461816 318.04 
L 275.156801 318.039659 
L 275.156801 318.039659 
" clip-path="url(#p5bea1fe8f3)" style="fill: none; stroke: #e377c2; stroke-width: 1.5; stroke-linecap: square"/>
   </g>
   <g id="line2d_18">
    <path d="M 128.959902 317.375477 
L 129.619496 315.993944 
L 130.279089 312.659721 
L 130.938683 305.951638 
L 131.598277 294.818499 
L 132.917464 264.239796 
L 133.577057 252.887002 
L 134.236651 249.942332 
L 134.896245 256.141161 
L 136.875025 293.558741 
L 137.534619 301.402266 
L 138.194213 306.109067 
L 138.853806 308.781994 
L 139.5134 310.362687 
L 140.172993 311.402463 
L 140.832587 312.155744 
L 142.151774 313.179634 
L 143.470961 313.862857 
L 145.449742 314.609131 
L 147.428523 315.005808 
L 149.407304 315.341348 
L 155.343646 316.66474 
L 158.641614 317.029111 
L 169.854705 317.656527 
L 206.791946 318.002656 
L 222.622192 317.981006 
L 241.750406 318.022633 
L 260.219027 318.039794 
L 260.219027 318.039794 
" clip-path="url(#p5bea1fe8f3)" style="fill: none; stroke: #8c564b; stroke-width: 1.5; stroke-linecap: square"/>
   </g>
   <g id="line2d_19">
    <path d="M 132.189333 316.204843 
L 132.476307 310.783788 
L 132.76328 295.602108 
L 133.050254 263.727906 
L 133.624202 164.218232 
L 133.911176 136.512917 
L 134.198149 146.669517 
L 135.059071 261.497566 
L 135.346045 279.219746 
L 135.633019 287.528148 
L 135.919992 291.540598 
L 136.49394 295.841341 
L 137.928809 303.791296 
L 138.789731 307.877512 
L 139.363678 309.726034 
L 140.511573 312.355659 
L 141.372495 314.050844 
L 141.946443 314.645912 
L 142.52039 314.918306 
L 143.381312 315.022399 
L 143.955259 315.475533 
L 144.529207 315.875847 
L 145.390128 315.967922 
L 146.824998 316.758115 
L 147.398945 316.906272 
L 148.54684 317.370116 
L 151.990526 317.657861 
L 152.851448 317.615231 
L 154.860264 317.841878 
L 159.738819 317.869913 
L 161.460662 317.955398 
L 164.904348 317.999173 
L 166.339217 317.976727 
L 168.635008 318.026605 
L 173.226589 318.010031 
L 189.297123 318.039633 
L 189.297123 318.039633 
" clip-path="url(#p5bea1fe8f3)" style="fill: none; stroke: #9467bd; stroke-width: 1.5; stroke-linecap: square"/>
   </g>
   <g id="line2d_20">
    <path d="M 132.220162 317.57932 
L 132.434398 316.547416 
L 132.648633 313.828913 
L 132.862868 307.682674 
L 133.077103 295.79941 
L 133.505574 249.17736 
L 134.14828 170.016639 
L 134.362515 163.848129 
L 134.576751 170.043654 
L 136.076398 267.218824 
L 136.719104 288.526143 
L 137.361809 300.840586 
L 137.79028 305.606803 
L 138.218751 308.528481 
L 138.861457 311.184052 
L 139.504162 312.730814 
L 140.575339 314.672361 
L 141.43228 316.397519 
L 142.074986 317.001806 
L 142.717692 317.218772 
L 143.360398 317.119045 
L 144.431574 316.765036 
L 144.860045 316.382766 
L 146.145457 314.864379 
L 146.573927 314.795676 
L 147.002398 315.024565 
L 147.645104 315.849031 
L 148.28781 316.664803 
L 148.930516 317.094691 
L 150.430163 317.700385 
L 151.072869 317.738857 
L 152.786751 317.582532 
L 154.072163 317.569133 
L 154.929104 317.395316 
L 156.642987 316.775155 
L 157.071457 316.934754 
L 158.356869 317.638656 
L 159.428046 317.907044 
L 160.927693 318.007217 
L 164.569693 318.039985 
L 174.852987 318.039626 
L 174.852987 318.039626 
" clip-path="url(#p5bea1fe8f3)" style="fill: none; stroke: #d62728; stroke-width: 1.5; stroke-linecap: square"/>
   </g>
   <g id="line2d_21">
    <path d="M 133.110989 317.674499 
L 133.26044 315.834382 
L 133.40989 308.130744 
L 133.559341 284.773748 
L 133.783516 197.877697 
L 134.157143 40.889248 
L 134.231868 40.744762 
L 134.381319 72.25144 
L 134.904396 211.37525 
L 135.278022 243.70167 
L 135.875824 276.212849 
L 136.398901 291.312485 
L 136.847253 299.753541 
L 137.146154 302.036675 
L 137.445055 302.878828 
L 137.594506 302.943328 
L 137.818682 302.606684 
L 138.042858 302.346213 
L 138.192308 302.485103 
L 138.416484 303.107493 
L 138.715385 304.803546 
L 139.612089 311.463927 
L 139.91099 312.60659 
L 140.807693 314.018242 
L 141.181319 314.299141 
L 141.480221 314.513802 
L 141.779122 315.065689 
L 142.227473 315.95436 
L 142.6011 316.435812 
L 143.198902 317.493046 
L 143.721979 317.636265 
L 144.170331 317.740682 
L 144.842858 317.945724 
L 146.860441 318.003947 
L 147.458243 317.999616 
L 147.98132 318.039215 
L 147.98132 318.039215 
" clip-path="url(#p5bea1fe8f3)" style="fill: none; stroke: #2ca02c; stroke-width: 1.5; stroke-linecap: square"/>
   </g>
   <g id="line2d_22">
    <path d="M 124.175795 317.796978 
L 126.177123 316.697405 
L 128.178451 312.914202 
L 130.179779 304.466406 
L 132.181107 292.953687 
L 134.182435 285.312395 
L 136.183763 287.211609 
L 140.186419 304.946976 
L 142.187747 310.479399 
L 144.189075 313.254831 
L 146.190403 314.663014 
L 148.191731 315.433 
L 150.193059 315.872293 
L 154.195715 316.322567 
L 158.198371 316.347026 
L 162.201027 316.258703 
L 168.205011 316.47363 
L 176.210323 316.888771 
L 182.214307 317.271012 
L 202.227586 317.807436 
L 238.25149 318.018897 
L 270.272738 317.947451 
L 310.299297 318.026847 
L 476.409519 318.04 
L 522.440062 318.039935 
L 522.440062 318.039935 
" clip-path="url(#p5bea1fe8f3)" style="fill: none; stroke: #ff7f0e; stroke-width: 1.5; stroke-linecap: square"/>
   </g>
   <g id="line2d_23">
    <path d="M 116.528182 317.960394 
L 122.810411 316.638369 
L 129.09264 309.850258 
L 135.37487 301.091438 
L 141.657099 303.372286 
L 147.939328 310.301339 
L 154.221558 313.951794 
L 160.503787 315.418376 
L 166.786016 316.240242 
L 173.068246 316.858283 
L 179.350475 317.254567 
L 191.914934 317.635547 
L 204.479392 317.883985 
L 229.60831 317.979498 
L 286.148374 318.001829 
L 348.970667 318.036913 
L 575.130923 318.034106 
L 882.96016 318.04 
L 1366.691818 318.039963 
L 1366.691818 318.039963 
" clip-path="url(#p5bea1fe8f3)" style="fill: none; stroke: #1f77b4; stroke-width: 1.5; stroke-linecap: square"/>
   </g>
   <g id="patch_3">
    <path d="M 54.02 318.04 
L 54.02 26.88 
" style="fill: none; stroke: #000000; stroke-width: 0.8; stroke-linejoin: miter; stroke-linecap: square"/>
   </g>
   <g id="patch_4">
    <path d="M 1429.2 318.04 
L 1429.2 26.88 
" style="fill: none; stroke: #000000; stroke-width: 0.8; stroke-linejoin: miter; stroke-linecap: square"/>
   </g>
   <g id="patch_5">
    <path d="M 54.02 318.04 
L 1429.2 318.04 
" style="fill: none; stroke: #000000; stroke-width: 0.8; stroke-linejoin: miter; stroke-linecap: square"/>
   </g>
   <g id="patch_6">
    <path d="M 54.02 26.88 
L 1429.2 26.88 
" style="fill: none; stroke: #000000; stroke-width: 0.8; stroke-linejoin: miter; stroke-linecap: square"/>
   </g>
   <g id="text_16">
    <!-- Univariate Analysis-KDE Plot-large_scale -->
    <g transform="translate(620.483125 20.88) scale(0.12 -0.12)">
     <defs>
      <path id="DejaVuSans-55" d="M 556 4666 
L 1191 4666 
L 1191 1831 
Q 1191 1081 1462 751 
Q 1734 422 2344 422 
Q 2950 422 3222 751 
Q 3494 1081 3494 1831 
L 3494 4666 
L 4128 4666 
L 4128 1753 
Q 4128 841 3676 375 
Q 3225 -91 2344 -91 
Q 1459 -91 1007 375 
Q 556 841 556 1753 
L 556 4666 
z
" transform="scale(0.015625)"/>
      <path id="DejaVuSans-76" d="M 191 3500 
L 800 3500 
L 1894 563 
L 2988 3500 
L 3597 3500 
L 2284 0 
L 1503 0 
L 191 3500 
z
" transform="scale(0.015625)"/>
      <path id="DejaVuSans-72" d="M 2631 2963 
Q 2534 3019 2420 3045 
Q 2306 3072 2169 3072 
Q 1681 3072 1420 2755 
Q 1159 2438 1159 1844 
L 1159 0 
L 581 0 
L 581 3500 
L 1159 3500 
L 1159 2956 
Q 1341 3275 1631 3429 
Q 1922 3584 2338 3584 
Q 2397 3584 2469 3576 
Q 2541 3569 2628 3553 
L 2631 2963 
z
" transform="scale(0.015625)"/>
      <path id="DejaVuSans-20" transform="scale(0.015625)"/>
      <path id="DejaVuSans-41" d="M 2188 4044 
L 1331 1722 
L 3047 1722 
L 2188 4044 
z
M 1831 4666 
L 2547 4666 
L 4325 0 
L 3669 0 
L 3244 1197 
L 1141 1197 
L 716 0 
L 50 0 
L 1831 4666 
z
" transform="scale(0.015625)"/>
      <path id="DejaVuSans-2d" d="M 313 2009 
L 1997 2009 
L 1997 1497 
L 313 1497 
L 313 2009 
z
" transform="scale(0.015625)"/>
      <path id="DejaVuSans-4b" d="M 628 4666 
L 1259 4666 
L 1259 2694 
L 3353 4666 
L 4166 4666 
L 1850 2491 
L 4331 0 
L 3500 0 
L 1259 2247 
L 1259 0 
L 628 0 
L 628 4666 
z
" transform="scale(0.015625)"/>
      <path id="DejaVuSans-45" d="M 628 4666 
L 3578 4666 
L 3578 4134 
L 1259 4134 
L 1259 2753 
L 3481 2753 
L 3481 2222 
L 1259 2222 
L 1259 531 
L 3634 531 
L 3634 0 
L 628 0 
L 628 4666 
z
" transform="scale(0.015625)"/>
      <path id="DejaVuSans-50" d="M 1259 4147 
L 1259 2394 
L 2053 2394 
Q 2494 2394 2734 2622 
Q 2975 2850 2975 3272 
Q 2975 3691 2734 3919 
Q 2494 4147 2053 4147 
L 1259 4147 
z
M 628 4666 
L 2053 4666 
Q 2838 4666 3239 4311 
Q 3641 3956 3641 3272 
Q 3641 2581 3239 2228 
Q 2838 1875 2053 1875 
L 1259 1875 
L 1259 0 
L 628 0 
L 628 4666 
z
" transform="scale(0.015625)"/>
      <path id="DejaVuSans-6f" d="M 1959 3097 
Q 1497 3097 1228 2736 
Q 959 2375 959 1747 
Q 959 1119 1226 758 
Q 1494 397 1959 397 
Q 2419 397 2687 759 
Q 2956 1122 2956 1747 
Q 2956 2369 2687 2733 
Q 2419 3097 1959 3097 
z
M 1959 3584 
Q 2709 3584 3137 3096 
Q 3566 2609 3566 1747 
Q 3566 888 3137 398 
Q 2709 -91 1959 -91 
Q 1206 -91 779 398 
Q 353 888 353 1747 
Q 353 2609 779 3096 
Q 1206 3584 1959 3584 
z
" transform="scale(0.015625)"/>
      <path id="DejaVuSans-67" d="M 2906 1791 
Q 2906 2416 2648 2759 
Q 2391 3103 1925 3103 
Q 1463 3103 1205 2759 
Q 947 2416 947 1791 
Q 947 1169 1205 825 
Q 1463 481 1925 481 
Q 2391 481 2648 825 
Q 2906 1169 2906 1791 
z
M 3481 434 
Q 3481 -459 3084 -895 
Q 2688 -1331 1869 -1331 
Q 1566 -1331 1297 -1286 
Q 1028 -1241 775 -1147 
L 775 -588 
Q 1028 -725 1275 -790 
Q 1522 -856 1778 -856 
Q 2344 -856 2625 -561 
Q 2906 -266 2906 331 
L 2906 616 
Q 2728 306 2450 153 
Q 2172 0 1784 0 
Q 1141 0 747 490 
Q 353 981 353 1791 
Q 353 2603 747 3093 
Q 1141 3584 1784 3584 
Q 2172 3584 2450 3431 
Q 2728 3278 2906 2969 
L 2906 3500 
L 3481 3500 
L 3481 434 
z
" transform="scale(0.015625)"/>
      <path id="DejaVuSans-5f" d="M 3263 -1063 
L 3263 -1509 
L -63 -1509 
L -63 -1063 
L 3263 -1063 
z
" transform="scale(0.015625)"/>
      <path id="DejaVuSans-63" d="M 3122 3366 
L 3122 2828 
Q 2878 2963 2633 3030 
Q 2388 3097 2138 3097 
Q 1578 3097 1268 2742 
Q 959 2388 959 1747 
Q 959 1106 1268 751 
Q 1578 397 2138 397 
Q 2388 397 2633 464 
Q 2878 531 3122 666 
L 3122 134 
Q 2881 22 2623 -34 
Q 2366 -91 2075 -91 
Q 1284 -91 818 406 
Q 353 903 353 1747 
Q 353 2603 823 3093 
Q 1294 3584 2113 3584 
Q 2378 3584 2631 3529 
Q 2884 3475 3122 3366 
z
" transform="scale(0.015625)"/>
     </defs>
     <use xlink:href="#DejaVuSans-55"/>
     <use xlink:href="#DejaVuSans-6e" transform="translate(73.193359 0)"/>
     <use xlink:href="#DejaVuSans-69" transform="translate(136.572266 0)"/>
     <use xlink:href="#DejaVuSans-76" transform="translate(164.355469 0)"/>
     <use xlink:href="#DejaVuSans-61" transform="translate(223.535156 0)"/>
     <use xlink:href="#DejaVuSans-72" transform="translate(284.814453 0)"/>
     <use xlink:href="#DejaVuSans-69" transform="translate(325.927734 0)"/>
     <use xlink:href="#DejaVuSans-61" transform="translate(353.710938 0)"/>
     <use xlink:href="#DejaVuSans-74" transform="translate(414.990234 0)"/>
     <use xlink:href="#DejaVuSans-65" transform="translate(454.199219 0)"/>
     <use xlink:href="#DejaVuSans-20" transform="translate(515.722656 0)"/>
     <use xlink:href="#DejaVuSans-41" transform="translate(547.509766 0)"/>
     <use xlink:href="#DejaVuSans-6e" transform="translate(615.917969 0)"/>
     <use xlink:href="#DejaVuSans-61" transform="translate(679.296875 0)"/>
     <use xlink:href="#DejaVuSans-6c" transform="translate(740.576172 0)"/>
     <use xlink:href="#DejaVuSans-79" transform="translate(768.359375 0)"/>
     <use xlink:href="#DejaVuSans-73" transform="translate(827.539062 0)"/>
     <use xlink:href="#DejaVuSans-69" transform="translate(879.638672 0)"/>
     <use xlink:href="#DejaVuSans-73" transform="translate(907.421875 0)"/>
     <use xlink:href="#DejaVuSans-2d" transform="translate(959.521484 0)"/>
     <use xlink:href="#DejaVuSans-4b" transform="translate(995.605469 0)"/>
     <use xlink:href="#DejaVuSans-44" transform="translate(1061.181641 0)"/>
     <use xlink:href="#DejaVuSans-45" transform="translate(1138.183594 0)"/>
     <use xlink:href="#DejaVuSans-20" transform="translate(1201.367188 0)"/>
     <use xlink:href="#DejaVuSans-50" transform="translate(1233.154297 0)"/>
     <use xlink:href="#DejaVuSans-6c" transform="translate(1293.457031 0)"/>
     <use xlink:href="#DejaVuSans-6f" transform="translate(1321.240234 0)"/>
     <use xlink:href="#DejaVuSans-74" transform="translate(1382.421875 0)"/>
     <use xlink:href="#DejaVuSans-2d" transform="translate(1421.630859 0)"/>
     <use xlink:href="#DejaVuSans-6c" transform="translate(1457.714844 0)"/>
     <use xlink:href="#DejaVuSans-61" transform="translate(1485.498047 0)"/>
     <use xlink:href="#DejaVuSans-72" transform="translate(1546.777344 0)"/>
     <use xlink:href="#DejaVuSans-67" transform="translate(1586.140625 0)"/>
     <use xlink:href="#DejaVuSans-65" transform="translate(1649.617188 0)"/>
     <use xlink:href="#DejaVuSans-5f" transform="translate(1711.140625 0)"/>
     <use xlink:href="#DejaVuSans-73" transform="translate(1761.140625 0)"/>
     <use xlink:href="#DejaVuSans-63" transform="translate(1813.240234 0)"/>
     <use xlink:href="#DejaVuSans-61" transform="translate(1868.220703 0)"/>
     <use xlink:href="#DejaVuSans-6c" transform="translate(1929.5 0)"/>
     <use xlink:href="#DejaVuSans-65" transform="translate(1957.283203 0)"/>
    </g>
   </g>
   <g id="legend_1">
    <g id="patch_7">
     <path d="M 1354.778125 181.66125 
L 1422.2 181.66125 
Q 1424.2 181.66125 1424.2 179.66125 
L 1424.2 33.88 
Q 1424.2 31.88 1422.2 31.88 
L 1354.778125 31.88 
Q 1352.778125 31.88 1352.778125 33.88 
L 1352.778125 179.66125 
Q 1352.778125 181.66125 1354.778125 181.66125 
z
" style="fill: #ffffff; opacity: 0.8; stroke: #cccccc; stroke-linejoin: miter"/>
    </g>
    <g id="line2d_24">
     <path d="M 1356.778125 39.978437 
L 1366.778125 39.978437 
L 1376.778125 39.978437 
" style="fill: none; stroke: #1f77b4; stroke-width: 1.5; stroke-linecap: square"/>
    </g>
    <g id="text_17">
     <!-- lread -->
     <g transform="translate(1384.778125 43.478437) scale(0.1 -0.1)">
      <defs>
       <path id="DejaVuSans-64" d="M 2906 2969 
L 2906 4863 
L 3481 4863 
L 3481 0 
L 2906 0 
L 2906 525 
Q 2725 213 2448 61 
Q 2172 -91 1784 -91 
Q 1150 -91 751 415 
Q 353 922 353 1747 
Q 353 2572 751 3078 
Q 1150 3584 1784 3584 
Q 2172 3584 2448 3432 
Q 2725 3281 2906 2969 
z
M 947 1747 
Q 947 1113 1208 752 
Q 1469 391 1925 391 
Q 2381 391 2643 752 
Q 2906 1113 2906 1747 
Q 2906 2381 2643 2742 
Q 2381 3103 1925 3103 
Q 1469 3103 1208 2742 
Q 947 2381 947 1747 
z
" transform="scale(0.015625)"/>
      </defs>
      <use xlink:href="#DejaVuSans-6c"/>
      <use xlink:href="#DejaVuSans-72" transform="translate(27.783203 0)"/>
      <use xlink:href="#DejaVuSans-65" transform="translate(66.646484 0)"/>
      <use xlink:href="#DejaVuSans-61" transform="translate(128.169922 0)"/>
      <use xlink:href="#DejaVuSans-64" transform="translate(189.449219 0)"/>
     </g>
    </g>
    <g id="line2d_25">
     <path d="M 1356.778125 54.656563 
L 1366.778125 54.656563 
L 1376.778125 54.656563 
" style="fill: none; stroke: #ff7f0e; stroke-width: 1.5; stroke-linecap: square"/>
    </g>
    <g id="text_18">
     <!-- lwrite -->
     <g transform="translate(1384.778125 58.156563) scale(0.1 -0.1)">
      <defs>
       <path id="DejaVuSans-77" d="M 269 3500 
L 844 3500 
L 1563 769 
L 2278 3500 
L 2956 3500 
L 3675 769 
L 4391 3500 
L 4966 3500 
L 4050 0 
L 3372 0 
L 2619 2869 
L 1863 0 
L 1184 0 
L 269 3500 
z
" transform="scale(0.015625)"/>
      </defs>
      <use xlink:href="#DejaVuSans-6c"/>
      <use xlink:href="#DejaVuSans-77" transform="translate(27.783203 0)"/>
      <use xlink:href="#DejaVuSans-72" transform="translate(109.570312 0)"/>
      <use xlink:href="#DejaVuSans-69" transform="translate(150.683594 0)"/>
      <use xlink:href="#DejaVuSans-74" transform="translate(178.466797 0)"/>
      <use xlink:href="#DejaVuSans-65" transform="translate(217.675781 0)"/>
     </g>
    </g>
    <g id="line2d_26">
     <path d="M 1356.778125 69.334687 
L 1366.778125 69.334687 
L 1376.778125 69.334687 
" style="fill: none; stroke: #2ca02c; stroke-width: 1.5; stroke-linecap: square"/>
    </g>
    <g id="text_19">
     <!-- fork -->
     <g transform="translate(1384.778125 72.834687) scale(0.1 -0.1)">
      <defs>
       <path id="DejaVuSans-66" d="M 2375 4863 
L 2375 4384 
L 1825 4384 
Q 1516 4384 1395 4259 
Q 1275 4134 1275 3809 
L 1275 3500 
L 2222 3500 
L 2222 3053 
L 1275 3053 
L 1275 0 
L 697 0 
L 697 3053 
L 147 3053 
L 147 3500 
L 697 3500 
L 697 3744 
Q 697 4328 969 4595 
Q 1241 4863 1831 4863 
L 2375 4863 
z
" transform="scale(0.015625)"/>
       <path id="DejaVuSans-6b" d="M 581 4863 
L 1159 4863 
L 1159 1991 
L 2875 3500 
L 3609 3500 
L 1753 1863 
L 3688 0 
L 2938 0 
L 1159 1709 
L 1159 0 
L 581 0 
L 581 4863 
z
" transform="scale(0.015625)"/>
      </defs>
      <use xlink:href="#DejaVuSans-66"/>
      <use xlink:href="#DejaVuSans-6f" transform="translate(35.205078 0)"/>
      <use xlink:href="#DejaVuSans-72" transform="translate(96.386719 0)"/>
      <use xlink:href="#DejaVuSans-6b" transform="translate(137.5 0)"/>
     </g>
    </g>
    <g id="line2d_27">
     <path d="M 1356.778125 84.012812 
L 1366.778125 84.012812 
L 1376.778125 84.012812 
" style="fill: none; stroke: #d62728; stroke-width: 1.5; stroke-linecap: square"/>
    </g>
    <g id="text_20">
     <!-- exec -->
     <g transform="translate(1384.778125 87.512812) scale(0.1 -0.1)">
      <defs>
       <path id="DejaVuSans-78" d="M 3513 3500 
L 2247 1797 
L 3578 0 
L 2900 0 
L 1881 1375 
L 863 0 
L 184 0 
L 1544 1831 
L 300 3500 
L 978 3500 
L 1906 2253 
L 2834 3500 
L 3513 3500 
z
" transform="scale(0.015625)"/>
      </defs>
      <use xlink:href="#DejaVuSans-65"/>
      <use xlink:href="#DejaVuSans-78" transform="translate(59.773438 0)"/>
      <use xlink:href="#DejaVuSans-65" transform="translate(115.828125 0)"/>
      <use xlink:href="#DejaVuSans-63" transform="translate(177.351562 0)"/>
     </g>
    </g>
    <g id="line2d_28">
     <path d="M 1356.778125 98.690938 
L 1366.778125 98.690938 
L 1376.778125 98.690938 
" style="fill: none; stroke: #9467bd; stroke-width: 1.5; stroke-linecap: square"/>
    </g>
    <g id="text_21">
     <!-- pgout -->
     <g transform="translate(1384.778125 102.190938) scale(0.1 -0.1)">
      <defs>
       <path id="DejaVuSans-70" d="M 1159 525 
L 1159 -1331 
L 581 -1331 
L 581 3500 
L 1159 3500 
L 1159 2969 
Q 1341 3281 1617 3432 
Q 1894 3584 2278 3584 
Q 2916 3584 3314 3078 
Q 3713 2572 3713 1747 
Q 3713 922 3314 415 
Q 2916 -91 2278 -91 
Q 1894 -91 1617 61 
Q 1341 213 1159 525 
z
M 3116 1747 
Q 3116 2381 2855 2742 
Q 2594 3103 2138 3103 
Q 1681 3103 1420 2742 
Q 1159 2381 1159 1747 
Q 1159 1113 1420 752 
Q 1681 391 2138 391 
Q 2594 391 2855 752 
Q 3116 1113 3116 1747 
z
" transform="scale(0.015625)"/>
      </defs>
      <use xlink:href="#DejaVuSans-70"/>
      <use xlink:href="#DejaVuSans-67" transform="translate(63.476562 0)"/>
      <use xlink:href="#DejaVuSans-6f" transform="translate(126.953125 0)"/>
      <use xlink:href="#DejaVuSans-75" transform="translate(188.134766 0)"/>
      <use xlink:href="#DejaVuSans-74" transform="translate(251.513672 0)"/>
     </g>
    </g>
    <g id="line2d_29">
     <path d="M 1356.778125 113.369062 
L 1366.778125 113.369062 
L 1376.778125 113.369062 
" style="fill: none; stroke: #8c564b; stroke-width: 1.5; stroke-linecap: square"/>
    </g>
    <g id="text_22">
     <!-- ppgout -->
     <g transform="translate(1384.778125 116.869062) scale(0.1 -0.1)">
      <use xlink:href="#DejaVuSans-70"/>
      <use xlink:href="#DejaVuSans-70" transform="translate(63.476562 0)"/>
      <use xlink:href="#DejaVuSans-67" transform="translate(126.953125 0)"/>
      <use xlink:href="#DejaVuSans-6f" transform="translate(190.429688 0)"/>
      <use xlink:href="#DejaVuSans-75" transform="translate(251.611328 0)"/>
      <use xlink:href="#DejaVuSans-74" transform="translate(314.990234 0)"/>
     </g>
    </g>
    <g id="line2d_30">
     <path d="M 1356.778125 128.047188 
L 1366.778125 128.047188 
L 1376.778125 128.047188 
" style="fill: none; stroke: #e377c2; stroke-width: 1.5; stroke-linecap: square"/>
    </g>
    <g id="text_23">
     <!-- atch -->
     <g transform="translate(1384.778125 131.547188) scale(0.1 -0.1)">
      <defs>
       <path id="DejaVuSans-68" d="M 3513 2113 
L 3513 0 
L 2938 0 
L 2938 2094 
Q 2938 2591 2744 2837 
Q 2550 3084 2163 3084 
Q 1697 3084 1428 2787 
Q 1159 2491 1159 1978 
L 1159 0 
L 581 0 
L 581 4863 
L 1159 4863 
L 1159 2956 
Q 1366 3272 1645 3428 
Q 1925 3584 2291 3584 
Q 2894 3584 3203 3211 
Q 3513 2838 3513 2113 
z
" transform="scale(0.015625)"/>
      </defs>
      <use xlink:href="#DejaVuSans-61"/>
      <use xlink:href="#DejaVuSans-74" transform="translate(61.279297 0)"/>
      <use xlink:href="#DejaVuSans-63" transform="translate(100.488281 0)"/>
      <use xlink:href="#DejaVuSans-68" transform="translate(155.46875 0)"/>
     </g>
    </g>
    <g id="line2d_31">
     <path d="M 1356.778125 142.725312 
L 1366.778125 142.725312 
L 1376.778125 142.725312 
" style="fill: none; stroke: #7f7f7f; stroke-width: 1.5; stroke-linecap: square"/>
    </g>
    <g id="text_24">
     <!-- pgin -->
     <g transform="translate(1384.778125 146.225312) scale(0.1 -0.1)">
      <use xlink:href="#DejaVuSans-70"/>
      <use xlink:href="#DejaVuSans-67" transform="translate(63.476562 0)"/>
      <use xlink:href="#DejaVuSans-69" transform="translate(126.953125 0)"/>
      <use xlink:href="#DejaVuSans-6e" transform="translate(154.736328 0)"/>
     </g>
    </g>
    <g id="line2d_32">
     <path d="M 1356.778125 157.403437 
L 1366.778125 157.403437 
L 1376.778125 157.403437 
" style="fill: none; stroke: #bcbd22; stroke-width: 1.5; stroke-linecap: square"/>
    </g>
    <g id="text_25">
     <!-- ppgin -->
     <g transform="translate(1384.778125 160.903437) scale(0.1 -0.1)">
      <use xlink:href="#DejaVuSans-70"/>
      <use xlink:href="#DejaVuSans-70" transform="translate(63.476562 0)"/>
      <use xlink:href="#DejaVuSans-67" transform="translate(126.953125 0)"/>
      <use xlink:href="#DejaVuSans-69" transform="translate(190.429688 0)"/>
      <use xlink:href="#DejaVuSans-6e" transform="translate(218.212891 0)"/>
     </g>
    </g>
    <g id="line2d_33">
     <path d="M 1356.778125 172.081562 
L 1366.778125 172.081562 
L 1376.778125 172.081562 
" style="fill: none; stroke: #17becf; stroke-width: 1.5; stroke-linecap: square"/>
    </g>
    <g id="text_26">
     <!-- usr -->
     <g transform="translate(1384.778125 175.581562) scale(0.1 -0.1)">
      <use xlink:href="#DejaVuSans-75"/>
      <use xlink:href="#DejaVuSans-73" transform="translate(63.378906 0)"/>
      <use xlink:href="#DejaVuSans-72" transform="translate(115.478516 0)"/>
     </g>
    </g>
   </g>
  </g>
 </g>
 <defs>
  <clipPath id="p5bea1fe8f3">
   <rect x="54.02" y="26.88" width="1375.18" height="291.16"/>
  </clipPath>
 </defs>
</svg>
