<?xml version="1.0" encoding="utf-8" standalone="no"?>
<!DOCTYPE svg PUBLIC "-//W3C//DTD SVG 1.1//EN"
  "http://www.w3.org/Graphics/SVG/1.1/DTD/svg11.dtd">
<svg xmlns:xlink="http://www.w3.org/1999/xlink" width="1440pt" height="576pt" viewBox="0 0 1440 576" xmlns="http://www.w3.org/2000/svg" version="1.1">
 <metadata>
  <rdf:RDF xmlns:dc="http://purl.org/dc/elements/1.1/" xmlns:cc="http://creativecommons.org/ns#" xmlns:rdf="http://www.w3.org/1999/02/22-rdf-syntax-ns#">
   <cc:Work>
    <dc:type rdf:resource="http://purl.org/dc/dcmitype/StillImage"/>
    <dc:date>2025-01-01T18:21:32.704033</dc:date>
    <dc:format>image/svg+xml</dc:format>
    <dc:creator>
     <cc:Agent>
      <dc:title>Matplotlib v3.10.0, https://matplotlib.org/</dc:title>
     </cc:Agent>
    </dc:creator>
   </cc:Work>
  </rdf:RDF>
 </metadata>
 <defs>
  <style type="text/css">*{stroke-linejoin: round; stroke-linecap: butt}</style>
 </defs>
 <g id="figure_1">
  <g id="patch_1">
   <path d="M 0 576 
L 1440 576 
L 1440 0 
L 0 0 
z
" style="fill: #ffffff"/>
  </g>
  <g id="axes_1">
   <g id="patch_2">
    <path d="M 44.67125 276.465 
L 714.555 276.465 
L 714.555 50.83125 
L 44.67125 50.83125 
z
" style="fill: #ffffff"/>
   </g>
   <g id="matplotlib.axis_1">
    <g id="xtick_1">
     <g id="line2d_1">
      <defs>
       <path id="m272648f4b2" d="M 0 0 
L 0 3.5 
" style="stroke: #000000; stroke-width: 0.8"/>
      </defs>
      <g>
       <use xlink:href="#m272648f4b2" x="212.142187" y="276.465" style="stroke: #000000; stroke-width: 0.8"/>
      </g>
     </g>
     <g id="text_1">
      <!-- No -->
      <g transform="translate(205.342187 291.063437) scale(0.1 -0.1)">
       <defs>
        <path id="DejaVuSans-4e" d="M 628 4666 
L 1478 4666 
L 3547 763 
L 3547 4666 
L 4159 4666 
L 4159 0 
L 3309 0 
L 1241 3903 
L 1241 0 
L 628 0 
L 628 4666 
z
" transform="scale(0.015625)"/>
        <path id="DejaVuSans-6f" d="M 1959 3097 
Q 1497 3097 1228 2736 
Q 959 2375 959 1747 
Q 959 1119 1226 758 
Q 1494 397 1959 397 
Q 2419 397 2687 759 
Q 2956 1122 2956 1747 
Q 2956 2369 2687 2733 
Q 2419 3097 1959 3097 
z
M 1959 3584 
Q 2709 3584 3137 3096 
Q 3566 2609 3566 1747 
Q 3566 888 3137 398 
Q 2709 -91 1959 -91 
Q 1206 -91 779 398 
Q 353 888 353 1747 
Q 353 2609 779 3096 
Q 1206 3584 1959 3584 
z
" transform="scale(0.015625)"/>
       </defs>
       <use xlink:href="#DejaVuSans-4e"/>
       <use xlink:href="#DejaVuSans-6f" transform="translate(74.804688 0)"/>
      </g>
     </g>
    </g>
    <g id="xtick_2">
     <g id="line2d_2">
      <g>
       <use xlink:href="#m272648f4b2" x="547.084062" y="276.465" style="stroke: #000000; stroke-width: 0.8"/>
      </g>
     </g>
     <g id="text_2">
      <!-- Yes -->
      <g transform="translate(539.011406 291.063437) scale(0.1 -0.1)">
       <defs>
        <path id="DejaVuSans-59" d="M -13 4666 
L 666 4666 
L 1959 2747 
L 3244 4666 
L 3922 4666 
L 2272 2222 
L 2272 0 
L 1638 0 
L 1638 2222 
L -13 4666 
z
" transform="scale(0.015625)"/>
        <path id="DejaVuSans-65" d="M 3597 1894 
L 3597 1613 
L 953 1613 
Q 991 1019 1311 708 
Q 1631 397 2203 397 
Q 2534 397 2845 478 
Q 3156 559 3463 722 
L 3463 178 
Q 3153 47 2828 -22 
Q 2503 -91 2169 -91 
Q 1331 -91 842 396 
Q 353 884 353 1716 
Q 353 2575 817 3079 
Q 1281 3584 2069 3584 
Q 2775 3584 3186 3129 
Q 3597 2675 3597 1894 
z
M 3022 2063 
Q 3016 2534 2758 2815 
Q 2500 3097 2075 3097 
Q 1594 3097 1305 2825 
Q 1016 2553 972 2059 
L 3022 2063 
z
" transform="scale(0.015625)"/>
        <path id="DejaVuSans-73" d="M 2834 3397 
L 2834 2853 
Q 2591 2978 2328 3040 
Q 2066 3103 1784 3103 
Q 1356 3103 1142 2972 
Q 928 2841 928 2578 
Q 928 2378 1081 2264 
Q 1234 2150 1697 2047 
L 1894 2003 
Q 2506 1872 2764 1633 
Q 3022 1394 3022 966 
Q 3022 478 2636 193 
Q 2250 -91 1575 -91 
Q 1294 -91 989 -36 
Q 684 19 347 128 
L 347 722 
Q 666 556 975 473 
Q 1284 391 1588 391 
Q 1994 391 2212 530 
Q 2431 669 2431 922 
Q 2431 1156 2273 1281 
Q 2116 1406 1581 1522 
L 1381 1569 
Q 847 1681 609 1914 
Q 372 2147 372 2553 
Q 372 3047 722 3315 
Q 1072 3584 1716 3584 
Q 2034 3584 2315 3537 
Q 2597 3491 2834 3397 
z
" transform="scale(0.015625)"/>
       </defs>
       <use xlink:href="#DejaVuSans-59"/>
       <use xlink:href="#DejaVuSans-65" transform="translate(47.833984 0)"/>
       <use xlink:href="#DejaVuSans-73" transform="translate(109.357422 0)"/>
      </g>
     </g>
    </g>
    <g id="text_3">
     <!-- Contraceptive_method_used -->
     <g transform="translate(308.095156 304.741562) scale(0.1 -0.1)">
      <defs>
       <path id="DejaVuSans-43" d="M 4122 4306 
L 4122 3641 
Q 3803 3938 3442 4084 
Q 3081 4231 2675 4231 
Q 1875 4231 1450 3742 
Q 1025 3253 1025 2328 
Q 1025 1406 1450 917 
Q 1875 428 2675 428 
Q 3081 428 3442 575 
Q 3803 722 4122 1019 
L 4122 359 
Q 3791 134 3420 21 
Q 3050 -91 2638 -91 
Q 1578 -91 968 557 
Q 359 1206 359 2328 
Q 359 3453 968 4101 
Q 1578 4750 2638 4750 
Q 3056 4750 3426 4639 
Q 3797 4528 4122 4306 
z
" transform="scale(0.015625)"/>
       <path id="DejaVuSans-6e" d="M 3513 2113 
L 3513 0 
L 2938 0 
L 2938 2094 
Q 2938 2591 2744 2837 
Q 2550 3084 2163 3084 
Q 1697 3084 1428 2787 
Q 1159 2491 1159 1978 
L 1159 0 
L 581 0 
L 581 3500 
L 1159 3500 
L 1159 2956 
Q 1366 3272 1645 3428 
Q 1925 3584 2291 3584 
Q 2894 3584 3203 3211 
Q 3513 2838 3513 2113 
z
" transform="scale(0.015625)"/>
       <path id="DejaVuSans-74" d="M 1172 4494 
L 1172 3500 
L 2356 3500 
L 2356 3053 
L 1172 3053 
L 1172 1153 
Q 1172 725 1289 603 
Q 1406 481 1766 481 
L 2356 481 
L 2356 0 
L 1766 0 
Q 1100 0 847 248 
Q 594 497 594 1153 
L 594 3053 
L 172 3053 
L 172 3500 
L 594 3500 
L 594 4494 
L 1172 4494 
z
" transform="scale(0.015625)"/>
       <path id="DejaVuSans-72" d="M 2631 2963 
Q 2534 3019 2420 3045 
Q 2306 3072 2169 3072 
Q 1681 3072 1420 2755 
Q 1159 2438 1159 1844 
L 1159 0 
L 581 0 
L 581 3500 
L 1159 3500 
L 1159 2956 
Q 1341 3275 1631 3429 
Q 1922 3584 2338 3584 
Q 2397 3584 2469 3576 
Q 2541 3569 2628 3553 
L 2631 2963 
z
" transform="scale(0.015625)"/>
       <path id="DejaVuSans-61" d="M 2194 1759 
Q 1497 1759 1228 1600 
Q 959 1441 959 1056 
Q 959 750 1161 570 
Q 1363 391 1709 391 
Q 2188 391 2477 730 
Q 2766 1069 2766 1631 
L 2766 1759 
L 2194 1759 
z
M 3341 1997 
L 3341 0 
L 2766 0 
L 2766 531 
Q 2569 213 2275 61 
Q 1981 -91 1556 -91 
Q 1019 -91 701 211 
Q 384 513 384 1019 
Q 384 1609 779 1909 
Q 1175 2209 1959 2209 
L 2766 2209 
L 2766 2266 
Q 2766 2663 2505 2880 
Q 2244 3097 1772 3097 
Q 1472 3097 1187 3025 
Q 903 2953 641 2809 
L 641 3341 
Q 956 3463 1253 3523 
Q 1550 3584 1831 3584 
Q 2591 3584 2966 3190 
Q 3341 2797 3341 1997 
z
" transform="scale(0.015625)"/>
       <path id="DejaVuSans-63" d="M 3122 3366 
L 3122 2828 
Q 2878 2963 2633 3030 
Q 2388 3097 2138 3097 
Q 1578 3097 1268 2742 
Q 959 2388 959 1747 
Q 959 1106 1268 751 
Q 1578 397 2138 397 
Q 2388 397 2633 464 
Q 2878 531 3122 666 
L 3122 134 
Q 2881 22 2623 -34 
Q 2366 -91 2075 -91 
Q 1284 -91 818 406 
Q 353 903 353 1747 
Q 353 2603 823 3093 
Q 1294 3584 2113 3584 
Q 2378 3584 2631 3529 
Q 2884 3475 3122 3366 
z
" transform="scale(0.015625)"/>
       <path id="DejaVuSans-70" d="M 1159 525 
L 1159 -1331 
L 581 -1331 
L 581 3500 
L 1159 3500 
L 1159 2969 
Q 1341 3281 1617 3432 
Q 1894 3584 2278 3584 
Q 2916 3584 3314 3078 
Q 3713 2572 3713 1747 
Q 3713 922 3314 415 
Q 2916 -91 2278 -91 
Q 1894 -91 1617 61 
Q 1341 213 1159 525 
z
M 3116 1747 
Q 3116 2381 2855 2742 
Q 2594 3103 2138 3103 
Q 1681 3103 1420 2742 
Q 1159 2381 1159 1747 
Q 1159 1113 1420 752 
Q 1681 391 2138 391 
Q 2594 391 2855 752 
Q 3116 1113 3116 1747 
z
" transform="scale(0.015625)"/>
       <path id="DejaVuSans-69" d="M 603 3500 
L 1178 3500 
L 1178 0 
L 603 0 
L 603 3500 
z
M 603 4863 
L 1178 4863 
L 1178 4134 
L 603 4134 
L 603 4863 
z
" transform="scale(0.015625)"/>
       <path id="DejaVuSans-76" d="M 191 3500 
L 800 3500 
L 1894 563 
L 2988 3500 
L 3597 3500 
L 2284 0 
L 1503 0 
L 191 3500 
z
" transform="scale(0.015625)"/>
       <path id="DejaVuSans-5f" d="M 3263 -1063 
L 3263 -1509 
L -63 -1509 
L -63 -1063 
L 3263 -1063 
z
" transform="scale(0.015625)"/>
       <path id="DejaVuSans-6d" d="M 3328 2828 
Q 3544 3216 3844 3400 
Q 4144 3584 4550 3584 
Q 5097 3584 5394 3201 
Q 5691 2819 5691 2113 
L 5691 0 
L 5113 0 
L 5113 2094 
Q 5113 2597 4934 2840 
Q 4756 3084 4391 3084 
Q 3944 3084 3684 2787 
Q 3425 2491 3425 1978 
L 3425 0 
L 2847 0 
L 2847 2094 
Q 2847 2600 2669 2842 
Q 2491 3084 2119 3084 
Q 1678 3084 1418 2786 
Q 1159 2488 1159 1978 
L 1159 0 
L 581 0 
L 581 3500 
L 1159 3500 
L 1159 2956 
Q 1356 3278 1631 3431 
Q 1906 3584 2284 3584 
Q 2666 3584 2933 3390 
Q 3200 3197 3328 2828 
z
" transform="scale(0.015625)"/>
       <path id="DejaVuSans-68" d="M 3513 2113 
L 3513 0 
L 2938 0 
L 2938 2094 
Q 2938 2591 2744 2837 
Q 2550 3084 2163 3084 
Q 1697 3084 1428 2787 
Q 1159 2491 1159 1978 
L 1159 0 
L 581 0 
L 581 4863 
L 1159 4863 
L 1159 2956 
Q 1366 3272 1645 3428 
Q 1925 3584 2291 3584 
Q 2894 3584 3203 3211 
Q 3513 2838 3513 2113 
z
" transform="scale(0.015625)"/>
       <path id="DejaVuSans-64" d="M 2906 2969 
L 2906 4863 
L 3481 4863 
L 3481 0 
L 2906 0 
L 2906 525 
Q 2725 213 2448 61 
Q 2172 -91 1784 -91 
Q 1150 -91 751 415 
Q 353 922 353 1747 
Q 353 2572 751 3078 
Q 1150 3584 1784 3584 
Q 2172 3584 2448 3432 
Q 2725 3281 2906 2969 
z
M 947 1747 
Q 947 1113 1208 752 
Q 1469 391 1925 391 
Q 2381 391 2643 752 
Q 2906 1113 2906 1747 
Q 2906 2381 2643 2742 
Q 2381 3103 1925 3103 
Q 1469 3103 1208 2742 
Q 947 2381 947 1747 
z
" transform="scale(0.015625)"/>
       <path id="DejaVuSans-75" d="M 544 1381 
L 544 3500 
L 1119 3500 
L 1119 1403 
Q 1119 906 1312 657 
Q 1506 409 1894 409 
Q 2359 409 2629 706 
Q 2900 1003 2900 1516 
L 2900 3500 
L 3475 3500 
L 3475 0 
L 2900 0 
L 2900 538 
Q 2691 219 2414 64 
Q 2138 -91 1772 -91 
Q 1169 -91 856 284 
Q 544 659 544 1381 
z
M 1991 3584 
L 1991 3584 
z
" transform="scale(0.015625)"/>
      </defs>
      <use xlink:href="#DejaVuSans-43"/>
      <use xlink:href="#DejaVuSans-6f" transform="translate(69.824219 0)"/>
      <use xlink:href="#DejaVuSans-6e" transform="translate(131.005859 0)"/>
      <use xlink:href="#DejaVuSans-74" transform="translate(194.384766 0)"/>
      <use xlink:href="#DejaVuSans-72" transform="translate(233.59375 0)"/>
      <use xlink:href="#DejaVuSans-61" transform="translate(274.707031 0)"/>
      <use xlink:href="#DejaVuSans-63" transform="translate(335.986328 0)"/>
      <use xlink:href="#DejaVuSans-65" transform="translate(390.966797 0)"/>
      <use xlink:href="#DejaVuSans-70" transform="translate(452.490234 0)"/>
      <use xlink:href="#DejaVuSans-74" transform="translate(515.966797 0)"/>
      <use xlink:href="#DejaVuSans-69" transform="translate(555.175781 0)"/>
      <use xlink:href="#DejaVuSans-76" transform="translate(582.958984 0)"/>
      <use xlink:href="#DejaVuSans-65" transform="translate(642.138672 0)"/>
      <use xlink:href="#DejaVuSans-5f" transform="translate(703.662109 0)"/>
      <use xlink:href="#DejaVuSans-6d" transform="translate(753.662109 0)"/>
      <use xlink:href="#DejaVuSans-65" transform="translate(851.074219 0)"/>
      <use xlink:href="#DejaVuSans-74" transform="translate(912.597656 0)"/>
      <use xlink:href="#DejaVuSans-68" transform="translate(951.806641 0)"/>
      <use xlink:href="#DejaVuSans-6f" transform="translate(1015.185547 0)"/>
      <use xlink:href="#DejaVuSans-64" transform="translate(1076.367188 0)"/>
      <use xlink:href="#DejaVuSans-5f" transform="translate(1139.84375 0)"/>
      <use xlink:href="#DejaVuSans-75" transform="translate(1189.84375 0)"/>
      <use xlink:href="#DejaVuSans-73" transform="translate(1253.222656 0)"/>
      <use xlink:href="#DejaVuSans-65" transform="translate(1305.322266 0)"/>
      <use xlink:href="#DejaVuSans-64" transform="translate(1366.845703 0)"/>
     </g>
    </g>
   </g>
   <g id="matplotlib.axis_2">
    <g id="ytick_1">
     <g id="line2d_3">
      <defs>
       <path id="m80aef19b8e" d="M 0 0 
L -3.5 0 
" style="stroke: #000000; stroke-width: 0.8"/>
      </defs>
      <g>
       <use xlink:href="#m80aef19b8e" x="44.67125" y="272.424726" style="stroke: #000000; stroke-width: 0.8"/>
      </g>
     </g>
     <g id="text_4">
      <!-- 15 -->
      <g transform="translate(24.94625 276.223945) scale(0.1 -0.1)">
       <defs>
        <path id="DejaVuSans-31" d="M 794 531 
L 1825 531 
L 1825 4091 
L 703 3866 
L 703 4441 
L 1819 4666 
L 2450 4666 
L 2450 531 
L 3481 531 
L 3481 0 
L 794 0 
L 794 531 
z
" transform="scale(0.015625)"/>
        <path id="DejaVuSans-35" d="M 691 4666 
L 3169 4666 
L 3169 4134 
L 1269 4134 
L 1269 2991 
Q 1406 3038 1543 3061 
Q 1681 3084 1819 3084 
Q 2600 3084 3056 2656 
Q 3513 2228 3513 1497 
Q 3513 744 3044 326 
Q 2575 -91 1722 -91 
Q 1428 -91 1123 -41 
Q 819 9 494 109 
L 494 744 
Q 775 591 1075 516 
Q 1375 441 1709 441 
Q 2250 441 2565 725 
Q 2881 1009 2881 1497 
Q 2881 1984 2565 2268 
Q 2250 2553 1709 2553 
Q 1456 2553 1204 2497 
Q 953 2441 691 2322 
L 691 4666 
z
" transform="scale(0.015625)"/>
       </defs>
       <use xlink:href="#DejaVuSans-31"/>
       <use xlink:href="#DejaVuSans-35" transform="translate(63.623047 0)"/>
      </g>
     </g>
    </g>
    <g id="ytick_2">
     <g id="line2d_4">
      <g>
       <use xlink:href="#m80aef19b8e" x="44.67125" y="241.345697" style="stroke: #000000; stroke-width: 0.8"/>
      </g>
     </g>
     <g id="text_5">
      <!-- 20 -->
      <g transform="translate(24.94625 245.144916) scale(0.1 -0.1)">
       <defs>
        <path id="DejaVuSans-32" d="M 1228 531 
L 3431 531 
L 3431 0 
L 469 0 
L 469 531 
Q 828 903 1448 1529 
Q 2069 2156 2228 2338 
Q 2531 2678 2651 2914 
Q 2772 3150 2772 3378 
Q 2772 3750 2511 3984 
Q 2250 4219 1831 4219 
Q 1534 4219 1204 4116 
Q 875 4013 500 3803 
L 500 4441 
Q 881 4594 1212 4672 
Q 1544 4750 1819 4750 
Q 2544 4750 2975 4387 
Q 3406 4025 3406 3419 
Q 3406 3131 3298 2873 
Q 3191 2616 2906 2266 
Q 2828 2175 2409 1742 
Q 1991 1309 1228 531 
z
" transform="scale(0.015625)"/>
        <path id="DejaVuSans-30" d="M 2034 4250 
Q 1547 4250 1301 3770 
Q 1056 3291 1056 2328 
Q 1056 1369 1301 889 
Q 1547 409 2034 409 
Q 2525 409 2770 889 
Q 3016 1369 3016 2328 
Q 3016 3291 2770 3770 
Q 2525 4250 2034 4250 
z
M 2034 4750 
Q 2819 4750 3233 4129 
Q 3647 3509 3647 2328 
Q 3647 1150 3233 529 
Q 2819 -91 2034 -91 
Q 1250 -91 836 529 
Q 422 1150 422 2328 
Q 422 3509 836 4129 
Q 1250 4750 2034 4750 
z
" transform="scale(0.015625)"/>
       </defs>
       <use xlink:href="#DejaVuSans-32"/>
       <use xlink:href="#DejaVuSans-30" transform="translate(63.623047 0)"/>
      </g>
     </g>
    </g>
    <g id="ytick_3">
     <g id="line2d_5">
      <g>
       <use xlink:href="#m80aef19b8e" x="44.67125" y="210.266668" style="stroke: #000000; stroke-width: 0.8"/>
      </g>
     </g>
     <g id="text_6">
      <!-- 25 -->
      <g transform="translate(24.94625 214.065887) scale(0.1 -0.1)">
       <use xlink:href="#DejaVuSans-32"/>
       <use xlink:href="#DejaVuSans-35" transform="translate(63.623047 0)"/>
      </g>
     </g>
    </g>
    <g id="ytick_4">
     <g id="line2d_6">
      <g>
       <use xlink:href="#m80aef19b8e" x="44.67125" y="179.187639" style="stroke: #000000; stroke-width: 0.8"/>
      </g>
     </g>
     <g id="text_7">
      <!-- 30 -->
      <g transform="translate(24.94625 182.986858) scale(0.1 -0.1)">
       <defs>
        <path id="DejaVuSans-33" d="M 2597 2516 
Q 3050 2419 3304 2112 
Q 3559 1806 3559 1356 
Q 3559 666 3084 287 
Q 2609 -91 1734 -91 
Q 1441 -91 1130 -33 
Q 819 25 488 141 
L 488 750 
Q 750 597 1062 519 
Q 1375 441 1716 441 
Q 2309 441 2620 675 
Q 2931 909 2931 1356 
Q 2931 1769 2642 2001 
Q 2353 2234 1838 2234 
L 1294 2234 
L 1294 2753 
L 1863 2753 
Q 2328 2753 2575 2939 
Q 2822 3125 2822 3475 
Q 2822 3834 2567 4026 
Q 2313 4219 1838 4219 
Q 1578 4219 1281 4162 
Q 984 4106 628 3988 
L 628 4550 
Q 988 4650 1302 4700 
Q 1616 4750 1894 4750 
Q 2613 4750 3031 4423 
Q 3450 4097 3450 3541 
Q 3450 3153 3228 2886 
Q 3006 2619 2597 2516 
z
" transform="scale(0.015625)"/>
       </defs>
       <use xlink:href="#DejaVuSans-33"/>
       <use xlink:href="#DejaVuSans-30" transform="translate(63.623047 0)"/>
      </g>
     </g>
    </g>
    <g id="ytick_5">
     <g id="line2d_7">
      <g>
       <use xlink:href="#m80aef19b8e" x="44.67125" y="148.108611" style="stroke: #000000; stroke-width: 0.8"/>
      </g>
     </g>
     <g id="text_8">
      <!-- 35 -->
      <g transform="translate(24.94625 151.907829) scale(0.1 -0.1)">
       <use xlink:href="#DejaVuSans-33"/>
       <use xlink:href="#DejaVuSans-35" transform="translate(63.623047 0)"/>
      </g>
     </g>
    </g>
    <g id="ytick_6">
     <g id="line2d_8">
      <g>
       <use xlink:href="#m80aef19b8e" x="44.67125" y="117.029582" style="stroke: #000000; stroke-width: 0.8"/>
      </g>
     </g>
     <g id="text_9">
      <!-- 40 -->
      <g transform="translate(24.94625 120.8288) scale(0.1 -0.1)">
       <defs>
        <path id="DejaVuSans-34" d="M 2419 4116 
L 825 1625 
L 2419 1625 
L 2419 4116 
z
M 2253 4666 
L 3047 4666 
L 3047 1625 
L 3713 1625 
L 3713 1100 
L 3047 1100 
L 3047 0 
L 2419 0 
L 2419 1100 
L 313 1100 
L 313 1709 
L 2253 4666 
z
" transform="scale(0.015625)"/>
       </defs>
       <use xlink:href="#DejaVuSans-34"/>
       <use xlink:href="#DejaVuSans-30" transform="translate(63.623047 0)"/>
      </g>
     </g>
    </g>
    <g id="ytick_7">
     <g id="line2d_9">
      <g>
       <use xlink:href="#m80aef19b8e" x="44.67125" y="85.950553" style="stroke: #000000; stroke-width: 0.8"/>
      </g>
     </g>
     <g id="text_10">
      <!-- 45 -->
      <g transform="translate(24.94625 89.749771) scale(0.1 -0.1)">
       <use xlink:href="#DejaVuSans-34"/>
       <use xlink:href="#DejaVuSans-35" transform="translate(63.623047 0)"/>
      </g>
     </g>
    </g>
    <g id="ytick_8">
     <g id="line2d_10">
      <g>
       <use xlink:href="#m80aef19b8e" x="44.67125" y="54.871524" style="stroke: #000000; stroke-width: 0.8"/>
      </g>
     </g>
     <g id="text_11">
      <!-- 50 -->
      <g transform="translate(24.94625 58.670743) scale(0.1 -0.1)">
       <use xlink:href="#DejaVuSans-35"/>
       <use xlink:href="#DejaVuSans-30" transform="translate(63.623047 0)"/>
      </g>
     </g>
    </g>
    <g id="text_12">
     <!-- Wife_age -->
     <g transform="translate(18.588437 186.52) rotate(-90) scale(0.1 -0.1)">
      <defs>
       <path id="DejaVuSans-57" d="M 213 4666 
L 850 4666 
L 1831 722 
L 2809 4666 
L 3519 4666 
L 4500 722 
L 5478 4666 
L 6119 4666 
L 4947 0 
L 4153 0 
L 3169 4050 
L 2175 0 
L 1381 0 
L 213 4666 
z
" transform="scale(0.015625)"/>
       <path id="DejaVuSans-66" d="M 2375 4863 
L 2375 4384 
L 1825 4384 
Q 1516 4384 1395 4259 
Q 1275 4134 1275 3809 
L 1275 3500 
L 2222 3500 
L 2222 3053 
L 1275 3053 
L 1275 0 
L 697 0 
L 697 3053 
L 147 3053 
L 147 3500 
L 697 3500 
L 697 3744 
Q 697 4328 969 4595 
Q 1241 4863 1831 4863 
L 2375 4863 
z
" transform="scale(0.015625)"/>
       <path id="DejaVuSans-67" d="M 2906 1791 
Q 2906 2416 2648 2759 
Q 2391 3103 1925 3103 
Q 1463 3103 1205 2759 
Q 947 2416 947 1791 
Q 947 1169 1205 825 
Q 1463 481 1925 481 
Q 2391 481 2648 825 
Q 2906 1169 2906 1791 
z
M 3481 434 
Q 3481 -459 3084 -895 
Q 2688 -1331 1869 -1331 
Q 1566 -1331 1297 -1286 
Q 1028 -1241 775 -1147 
L 775 -588 
Q 1028 -725 1275 -790 
Q 1522 -856 1778 -856 
Q 2344 -856 2625 -561 
Q 2906 -266 2906 331 
L 2906 616 
Q 2728 306 2450 153 
Q 2172 0 1784 0 
Q 1141 0 747 490 
Q 353 981 353 1791 
Q 353 2603 747 3093 
Q 1141 3584 1784 3584 
Q 2172 3584 2450 3431 
Q 2728 3278 2906 2969 
L 2906 3500 
L 3481 3500 
L 3481 434 
z
" transform="scale(0.015625)"/>
      </defs>
      <use xlink:href="#DejaVuSans-57"/>
      <use xlink:href="#DejaVuSans-69" transform="translate(96.626953 0)"/>
      <use xlink:href="#DejaVuSans-66" transform="translate(124.410156 0)"/>
      <use xlink:href="#DejaVuSans-65" transform="translate(159.615234 0)"/>
      <use xlink:href="#DejaVuSans-5f" transform="translate(221.138672 0)"/>
      <use xlink:href="#DejaVuSans-61" transform="translate(271.138672 0)"/>
      <use xlink:href="#DejaVuSans-67" transform="translate(332.417969 0)"/>
      <use xlink:href="#DejaVuSans-65" transform="translate(395.894531 0)"/>
     </g>
    </g>
   </g>
   <g id="patch_3">
    <path d="M 78.165437 210.266668 
L 346.118938 210.266668 
L 346.118938 104.59797 
L 78.165437 104.59797 
L 78.165437 210.266668 
z
" clip-path="url(#p0d56a560f4)" style="fill: #3274a1; stroke: #3f3f3f; stroke-linejoin: miter"/>
   </g>
   <g id="line2d_11">
    <path d="M 212.142187 210.266668 
L 212.142187 266.20892 
" clip-path="url(#p0d56a560f4)" style="fill: none; stroke: #3f3f3f"/>
   </g>
   <g id="line2d_12">
    <path d="M 212.142187 104.59797 
L 212.142187 61.08733 
" clip-path="url(#p0d56a560f4)" style="fill: none; stroke: #3f3f3f"/>
   </g>
   <g id="line2d_13">
    <path d="M 145.153812 266.20892 
L 279.130562 266.20892 
" clip-path="url(#p0d56a560f4)" style="fill: none; stroke: #3f3f3f; stroke-linecap: square"/>
   </g>
   <g id="line2d_14">
    <path d="M 145.153812 61.08733 
L 279.130562 61.08733 
" clip-path="url(#p0d56a560f4)" style="fill: none; stroke: #3f3f3f; stroke-linecap: square"/>
   </g>
   <g id="line2d_15"/>
   <g id="patch_4">
    <path d="M 413.107313 204.050863 
L 681.060812 204.050863 
L 681.060812 135.676999 
L 413.107313 135.676999 
L 413.107313 204.050863 
z
" clip-path="url(#p0d56a560f4)" style="fill: #3274a1; stroke: #3f3f3f; stroke-linejoin: miter"/>
   </g>
   <g id="line2d_16">
    <path d="M 547.084062 204.050863 
L 547.084062 266.20892 
" clip-path="url(#p0d56a560f4)" style="fill: none; stroke: #3f3f3f"/>
   </g>
   <g id="line2d_17">
    <path d="M 547.084062 135.676999 
L 547.084062 61.08733 
" clip-path="url(#p0d56a560f4)" style="fill: none; stroke: #3f3f3f"/>
   </g>
   <g id="line2d_18">
    <path d="M 480.095687 266.20892 
L 614.072437 266.20892 
" clip-path="url(#p0d56a560f4)" style="fill: none; stroke: #3f3f3f; stroke-linecap: square"/>
   </g>
   <g id="line2d_19">
    <path d="M 480.095687 61.08733 
L 614.072437 61.08733 
" clip-path="url(#p0d56a560f4)" style="fill: none; stroke: #3f3f3f; stroke-linecap: square"/>
   </g>
   <g id="line2d_20"/>
   <g id="line2d_21">
    <path d="M 78.165437 166.756028 
L 346.118938 166.756028 
" clip-path="url(#p0d56a560f4)" style="fill: none; stroke: #3f3f3f"/>
   </g>
   <g id="line2d_22">
    <path d="M 413.107313 166.756028 
L 681.060812 166.756028 
" clip-path="url(#p0d56a560f4)" style="fill: none; stroke: #3f3f3f"/>
   </g>
   <g id="patch_5">
    <path d="M 44.67125 276.465 
L 44.67125 50.83125 
" style="fill: none; stroke: #000000; stroke-width: 0.8; stroke-linejoin: miter; stroke-linecap: square"/>
   </g>
   <g id="patch_6">
    <path d="M 714.555 276.465 
L 714.555 50.83125 
" style="fill: none; stroke: #000000; stroke-width: 0.8; stroke-linejoin: miter; stroke-linecap: square"/>
   </g>
   <g id="patch_7">
    <path d="M 44.67125 276.465 
L 714.555 276.465 
" style="fill: none; stroke: #000000; stroke-width: 0.8; stroke-linejoin: miter; stroke-linecap: square"/>
   </g>
   <g id="patch_8">
    <path d="M 44.67125 50.83125 
L 714.555 50.83125 
" style="fill: none; stroke: #000000; stroke-width: 0.8; stroke-linejoin: miter; stroke-linecap: square"/>
   </g>
   <g id="text_13">
    <!-- Wife_age -->
    <g transform="translate(352.166875 44.83125) scale(0.12 -0.12)">
     <use xlink:href="#DejaVuSans-57"/>
     <use xlink:href="#DejaVuSans-69" transform="translate(96.626953 0)"/>
     <use xlink:href="#DejaVuSans-66" transform="translate(124.410156 0)"/>
     <use xlink:href="#DejaVuSans-65" transform="translate(159.615234 0)"/>
     <use xlink:href="#DejaVuSans-5f" transform="translate(221.138672 0)"/>
     <use xlink:href="#DejaVuSans-61" transform="translate(271.138672 0)"/>
     <use xlink:href="#DejaVuSans-67" transform="translate(332.417969 0)"/>
     <use xlink:href="#DejaVuSans-65" transform="translate(395.894531 0)"/>
    </g>
   </g>
  </g>
  <g id="axes_2">
   <g id="patch_9">
    <path d="M 759.31625 276.465 
L 1429.2 276.465 
L 1429.2 50.83125 
L 759.31625 50.83125 
z
" style="fill: #ffffff"/>
   </g>
   <g id="matplotlib.axis_3">
    <g id="xtick_3">
     <g id="line2d_23">
      <g>
       <use xlink:href="#m272648f4b2" x="926.787187" y="276.465" style="stroke: #000000; stroke-width: 0.8"/>
      </g>
     </g>
     <g id="text_14">
      <!-- No -->
      <g transform="translate(919.987188 291.063437) scale(0.1 -0.1)">
       <use xlink:href="#DejaVuSans-4e"/>
       <use xlink:href="#DejaVuSans-6f" transform="translate(74.804688 0)"/>
      </g>
     </g>
    </g>
    <g id="xtick_4">
     <g id="line2d_24">
      <g>
       <use xlink:href="#m272648f4b2" x="1261.729062" y="276.465" style="stroke: #000000; stroke-width: 0.8"/>
      </g>
     </g>
     <g id="text_15">
      <!-- Yes -->
      <g transform="translate(1253.656406 291.063437) scale(0.1 -0.1)">
       <use xlink:href="#DejaVuSans-59"/>
       <use xlink:href="#DejaVuSans-65" transform="translate(47.833984 0)"/>
       <use xlink:href="#DejaVuSans-73" transform="translate(109.357422 0)"/>
      </g>
     </g>
    </g>
    <g id="text_16">
     <!-- Contraceptive_method_used -->
     <g transform="translate(1022.740156 304.741562) scale(0.1 -0.1)">
      <use xlink:href="#DejaVuSans-43"/>
      <use xlink:href="#DejaVuSans-6f" transform="translate(69.824219 0)"/>
      <use xlink:href="#DejaVuSans-6e" transform="translate(131.005859 0)"/>
      <use xlink:href="#DejaVuSans-74" transform="translate(194.384766 0)"/>
      <use xlink:href="#DejaVuSans-72" transform="translate(233.59375 0)"/>
      <use xlink:href="#DejaVuSans-61" transform="translate(274.707031 0)"/>
      <use xlink:href="#DejaVuSans-63" transform="translate(335.986328 0)"/>
      <use xlink:href="#DejaVuSans-65" transform="translate(390.966797 0)"/>
      <use xlink:href="#DejaVuSans-70" transform="translate(452.490234 0)"/>
      <use xlink:href="#DejaVuSans-74" transform="translate(515.966797 0)"/>
      <use xlink:href="#DejaVuSans-69" transform="translate(555.175781 0)"/>
      <use xlink:href="#DejaVuSans-76" transform="translate(582.958984 0)"/>
      <use xlink:href="#DejaVuSans-65" transform="translate(642.138672 0)"/>
      <use xlink:href="#DejaVuSans-5f" transform="translate(703.662109 0)"/>
      <use xlink:href="#DejaVuSans-6d" transform="translate(753.662109 0)"/>
      <use xlink:href="#DejaVuSans-65" transform="translate(851.074219 0)"/>
      <use xlink:href="#DejaVuSans-74" transform="translate(912.597656 0)"/>
      <use xlink:href="#DejaVuSans-68" transform="translate(951.806641 0)"/>
      <use xlink:href="#DejaVuSans-6f" transform="translate(1015.185547 0)"/>
      <use xlink:href="#DejaVuSans-64" transform="translate(1076.367188 0)"/>
      <use xlink:href="#DejaVuSans-5f" transform="translate(1139.84375 0)"/>
      <use xlink:href="#DejaVuSans-75" transform="translate(1189.84375 0)"/>
      <use xlink:href="#DejaVuSans-73" transform="translate(1253.222656 0)"/>
      <use xlink:href="#DejaVuSans-65" transform="translate(1305.322266 0)"/>
      <use xlink:href="#DejaVuSans-64" transform="translate(1366.845703 0)"/>
     </g>
    </g>
   </g>
   <g id="matplotlib.axis_4">
    <g id="ytick_9">
     <g id="line2d_25">
      <g>
       <use xlink:href="#m80aef19b8e" x="759.31625" y="266.20892" style="stroke: #000000; stroke-width: 0.8"/>
      </g>
     </g>
     <g id="text_17">
      <!-- 0 -->
      <g transform="translate(745.95375 270.008139) scale(0.1 -0.1)">
       <use xlink:href="#DejaVuSans-30"/>
      </g>
     </g>
    </g>
    <g id="ytick_10">
     <g id="line2d_26">
      <g>
       <use xlink:href="#m80aef19b8e" x="759.31625" y="240.568722" style="stroke: #000000; stroke-width: 0.8"/>
      </g>
     </g>
     <g id="text_18">
      <!-- 2 -->
      <g transform="translate(745.95375 244.36794) scale(0.1 -0.1)">
       <use xlink:href="#DejaVuSans-32"/>
      </g>
     </g>
    </g>
    <g id="ytick_11">
     <g id="line2d_27">
      <g>
       <use xlink:href="#m80aef19b8e" x="759.31625" y="214.928523" style="stroke: #000000; stroke-width: 0.8"/>
      </g>
     </g>
     <g id="text_19">
      <!-- 4 -->
      <g transform="translate(745.95375 218.727741) scale(0.1 -0.1)">
       <use xlink:href="#DejaVuSans-34"/>
      </g>
     </g>
    </g>
    <g id="ytick_12">
     <g id="line2d_28">
      <g>
       <use xlink:href="#m80aef19b8e" x="759.31625" y="189.288324" style="stroke: #000000; stroke-width: 0.8"/>
      </g>
     </g>
     <g id="text_20">
      <!-- 6 -->
      <g transform="translate(745.95375 193.087543) scale(0.1 -0.1)">
       <defs>
        <path id="DejaVuSans-36" d="M 2113 2584 
Q 1688 2584 1439 2293 
Q 1191 2003 1191 1497 
Q 1191 994 1439 701 
Q 1688 409 2113 409 
Q 2538 409 2786 701 
Q 3034 994 3034 1497 
Q 3034 2003 2786 2293 
Q 2538 2584 2113 2584 
z
M 3366 4563 
L 3366 3988 
Q 3128 4100 2886 4159 
Q 2644 4219 2406 4219 
Q 1781 4219 1451 3797 
Q 1122 3375 1075 2522 
Q 1259 2794 1537 2939 
Q 1816 3084 2150 3084 
Q 2853 3084 3261 2657 
Q 3669 2231 3669 1497 
Q 3669 778 3244 343 
Q 2819 -91 2113 -91 
Q 1303 -91 875 529 
Q 447 1150 447 2328 
Q 447 3434 972 4092 
Q 1497 4750 2381 4750 
Q 2619 4750 2861 4703 
Q 3103 4656 3366 4563 
z
" transform="scale(0.015625)"/>
       </defs>
       <use xlink:href="#DejaVuSans-36"/>
      </g>
     </g>
    </g>
    <g id="ytick_13">
     <g id="line2d_29">
      <g>
       <use xlink:href="#m80aef19b8e" x="759.31625" y="163.648125" style="stroke: #000000; stroke-width: 0.8"/>
      </g>
     </g>
     <g id="text_21">
      <!-- 8 -->
      <g transform="translate(745.95375 167.447344) scale(0.1 -0.1)">
       <defs>
        <path id="DejaVuSans-38" d="M 2034 2216 
Q 1584 2216 1326 1975 
Q 1069 1734 1069 1313 
Q 1069 891 1326 650 
Q 1584 409 2034 409 
Q 2484 409 2743 651 
Q 3003 894 3003 1313 
Q 3003 1734 2745 1975 
Q 2488 2216 2034 2216 
z
M 1403 2484 
Q 997 2584 770 2862 
Q 544 3141 544 3541 
Q 544 4100 942 4425 
Q 1341 4750 2034 4750 
Q 2731 4750 3128 4425 
Q 3525 4100 3525 3541 
Q 3525 3141 3298 2862 
Q 3072 2584 2669 2484 
Q 3125 2378 3379 2068 
Q 3634 1759 3634 1313 
Q 3634 634 3220 271 
Q 2806 -91 2034 -91 
Q 1263 -91 848 271 
Q 434 634 434 1313 
Q 434 1759 690 2068 
Q 947 2378 1403 2484 
z
M 1172 3481 
Q 1172 3119 1398 2916 
Q 1625 2713 2034 2713 
Q 2441 2713 2670 2916 
Q 2900 3119 2900 3481 
Q 2900 3844 2670 4047 
Q 2441 4250 2034 4250 
Q 1625 4250 1398 4047 
Q 1172 3844 1172 3481 
z
" transform="scale(0.015625)"/>
       </defs>
       <use xlink:href="#DejaVuSans-38"/>
      </g>
     </g>
    </g>
    <g id="ytick_14">
     <g id="line2d_30">
      <g>
       <use xlink:href="#m80aef19b8e" x="759.31625" y="138.007926" style="stroke: #000000; stroke-width: 0.8"/>
      </g>
     </g>
     <g id="text_22">
      <!-- 10 -->
      <g transform="translate(739.59125 141.807145) scale(0.1 -0.1)">
       <use xlink:href="#DejaVuSans-31"/>
       <use xlink:href="#DejaVuSans-30" transform="translate(63.623047 0)"/>
      </g>
     </g>
    </g>
    <g id="ytick_15">
     <g id="line2d_31">
      <g>
       <use xlink:href="#m80aef19b8e" x="759.31625" y="112.367727" style="stroke: #000000; stroke-width: 0.8"/>
      </g>
     </g>
     <g id="text_23">
      <!-- 12 -->
      <g transform="translate(739.59125 116.166946) scale(0.1 -0.1)">
       <use xlink:href="#DejaVuSans-31"/>
       <use xlink:href="#DejaVuSans-32" transform="translate(63.623047 0)"/>
      </g>
     </g>
    </g>
    <g id="ytick_16">
     <g id="line2d_32">
      <g>
       <use xlink:href="#m80aef19b8e" x="759.31625" y="86.727528" style="stroke: #000000; stroke-width: 0.8"/>
      </g>
     </g>
     <g id="text_24">
      <!-- 14 -->
      <g transform="translate(739.59125 90.526747) scale(0.1 -0.1)">
       <use xlink:href="#DejaVuSans-31"/>
       <use xlink:href="#DejaVuSans-34" transform="translate(63.623047 0)"/>
      </g>
     </g>
    </g>
    <g id="ytick_17">
     <g id="line2d_33">
      <g>
       <use xlink:href="#m80aef19b8e" x="759.31625" y="61.08733" style="stroke: #000000; stroke-width: 0.8"/>
      </g>
     </g>
     <g id="text_25">
      <!-- 16 -->
      <g transform="translate(739.59125 64.886548) scale(0.1 -0.1)">
       <use xlink:href="#DejaVuSans-31"/>
       <use xlink:href="#DejaVuSans-36" transform="translate(63.623047 0)"/>
      </g>
     </g>
    </g>
    <g id="text_26">
     <!-- No_of_children_born -->
     <g transform="translate(733.233437 214.196562) rotate(-90) scale(0.1 -0.1)">
      <defs>
       <path id="DejaVuSans-6c" d="M 603 4863 
L 1178 4863 
L 1178 0 
L 603 0 
L 603 4863 
z
" transform="scale(0.015625)"/>
       <path id="DejaVuSans-62" d="M 3116 1747 
Q 3116 2381 2855 2742 
Q 2594 3103 2138 3103 
Q 1681 3103 1420 2742 
Q 1159 2381 1159 1747 
Q 1159 1113 1420 752 
Q 1681 391 2138 391 
Q 2594 391 2855 752 
Q 3116 1113 3116 1747 
z
M 1159 2969 
Q 1341 3281 1617 3432 
Q 1894 3584 2278 3584 
Q 2916 3584 3314 3078 
Q 3713 2572 3713 1747 
Q 3713 922 3314 415 
Q 2916 -91 2278 -91 
Q 1894 -91 1617 61 
Q 1341 213 1159 525 
L 1159 0 
L 581 0 
L 581 4863 
L 1159 4863 
L 1159 2969 
z
" transform="scale(0.015625)"/>
      </defs>
      <use xlink:href="#DejaVuSans-4e"/>
      <use xlink:href="#DejaVuSans-6f" transform="translate(74.804688 0)"/>
      <use xlink:href="#DejaVuSans-5f" transform="translate(135.986328 0)"/>
      <use xlink:href="#DejaVuSans-6f" transform="translate(185.986328 0)"/>
      <use xlink:href="#DejaVuSans-66" transform="translate(247.167969 0)"/>
      <use xlink:href="#DejaVuSans-5f" transform="translate(282.373047 0)"/>
      <use xlink:href="#DejaVuSans-63" transform="translate(332.373047 0)"/>
      <use xlink:href="#DejaVuSans-68" transform="translate(387.353516 0)"/>
      <use xlink:href="#DejaVuSans-69" transform="translate(450.732422 0)"/>
      <use xlink:href="#DejaVuSans-6c" transform="translate(478.515625 0)"/>
      <use xlink:href="#DejaVuSans-64" transform="translate(506.298828 0)"/>
      <use xlink:href="#DejaVuSans-72" transform="translate(569.775391 0)"/>
      <use xlink:href="#DejaVuSans-65" transform="translate(608.638672 0)"/>
      <use xlink:href="#DejaVuSans-6e" transform="translate(670.162109 0)"/>
      <use xlink:href="#DejaVuSans-5f" transform="translate(733.541016 0)"/>
      <use xlink:href="#DejaVuSans-62" transform="translate(783.541016 0)"/>
      <use xlink:href="#DejaVuSans-6f" transform="translate(847.017578 0)"/>
      <use xlink:href="#DejaVuSans-72" transform="translate(908.199219 0)"/>
      <use xlink:href="#DejaVuSans-6e" transform="translate(947.5625 0)"/>
     </g>
    </g>
   </g>
   <g id="patch_10">
    <path d="M 792.810438 253.388821 
L 1060.763937 253.388821 
L 1060.763937 214.928523 
L 792.810438 214.928523 
L 792.810438 253.388821 
z
" clip-path="url(#p0b120cb252)" style="fill: #3274a1; stroke: #3f3f3f; stroke-linejoin: miter"/>
   </g>
   <g id="line2d_34">
    <path d="M 926.787187 253.388821 
L 926.787187 266.20892 
" clip-path="url(#p0b120cb252)" style="fill: none; stroke: #3f3f3f"/>
   </g>
   <g id="line2d_35">
    <path d="M 926.787187 214.928523 
L 926.787187 163.648125 
" clip-path="url(#p0b120cb252)" style="fill: none; stroke: #3f3f3f"/>
   </g>
   <g id="line2d_36">
    <path d="M 859.798812 266.20892 
L 993.775562 266.20892 
" clip-path="url(#p0b120cb252)" style="fill: none; stroke: #3f3f3f; stroke-linecap: square"/>
   </g>
   <g id="line2d_37">
    <path d="M 859.798812 163.648125 
L 993.775562 163.648125 
" clip-path="url(#p0b120cb252)" style="fill: none; stroke: #3f3f3f; stroke-linecap: square"/>
   </g>
   <g id="line2d_38">
    <defs>
     <path id="mc034cddef4" d="M 0 3 
C 0.795609 3 1.55874 2.683901 2.12132 2.12132 
C 2.683901 1.55874 3 0.795609 3 0 
C 3 -0.795609 2.683901 -1.55874 2.12132 -2.12132 
C 1.55874 -2.683901 0.795609 -3 0 -3 
C -0.795609 -3 -1.55874 -2.683901 -2.12132 -2.12132 
C -2.683901 -1.55874 -3 -0.795609 -3 0 
C -3 0.795609 -2.683901 1.55874 -2.12132 2.12132 
C -1.55874 2.683901 -0.795609 3 0 3 
z
" style="stroke: #3f3f3f"/>
    </defs>
    <g clip-path="url(#p0b120cb252)">
     <use xlink:href="#mc034cddef4" x="926.787187" y="138.007926" style="fill-opacity: 0; stroke: #3f3f3f"/>
     <use xlink:href="#mc034cddef4" x="926.787187" y="150.828026" style="fill-opacity: 0; stroke: #3f3f3f"/>
     <use xlink:href="#mc034cddef4" x="926.787187" y="150.828026" style="fill-opacity: 0; stroke: #3f3f3f"/>
     <use xlink:href="#mc034cddef4" x="926.787187" y="138.007926" style="fill-opacity: 0; stroke: #3f3f3f"/>
     <use xlink:href="#mc034cddef4" x="926.787187" y="138.007926" style="fill-opacity: 0; stroke: #3f3f3f"/>
     <use xlink:href="#mc034cddef4" x="926.787187" y="138.007926" style="fill-opacity: 0; stroke: #3f3f3f"/>
     <use xlink:href="#mc034cddef4" x="926.787187" y="112.367727" style="fill-opacity: 0; stroke: #3f3f3f"/>
     <use xlink:href="#mc034cddef4" x="926.787187" y="125.187827" style="fill-opacity: 0; stroke: #3f3f3f"/>
     <use xlink:href="#mc034cddef4" x="926.787187" y="125.187827" style="fill-opacity: 0; stroke: #3f3f3f"/>
     <use xlink:href="#mc034cddef4" x="926.787187" y="125.187827" style="fill-opacity: 0; stroke: #3f3f3f"/>
     <use xlink:href="#mc034cddef4" x="926.787187" y="138.007926" style="fill-opacity: 0; stroke: #3f3f3f"/>
     <use xlink:href="#mc034cddef4" x="926.787187" y="150.828026" style="fill-opacity: 0; stroke: #3f3f3f"/>
     <use xlink:href="#mc034cddef4" x="926.787187" y="125.187827" style="fill-opacity: 0; stroke: #3f3f3f"/>
     <use xlink:href="#mc034cddef4" x="926.787187" y="112.367727" style="fill-opacity: 0; stroke: #3f3f3f"/>
     <use xlink:href="#mc034cddef4" x="926.787187" y="138.007926" style="fill-opacity: 0; stroke: #3f3f3f"/>
     <use xlink:href="#mc034cddef4" x="926.787187" y="150.828026" style="fill-opacity: 0; stroke: #3f3f3f"/>
     <use xlink:href="#mc034cddef4" x="926.787187" y="125.187827" style="fill-opacity: 0; stroke: #3f3f3f"/>
     <use xlink:href="#mc034cddef4" x="926.787187" y="150.828026" style="fill-opacity: 0; stroke: #3f3f3f"/>
     <use xlink:href="#mc034cddef4" x="926.787187" y="138.007926" style="fill-opacity: 0; stroke: #3f3f3f"/>
     <use xlink:href="#mc034cddef4" x="926.787187" y="125.187827" style="fill-opacity: 0; stroke: #3f3f3f"/>
     <use xlink:href="#mc034cddef4" x="926.787187" y="112.367727" style="fill-opacity: 0; stroke: #3f3f3f"/>
     <use xlink:href="#mc034cddef4" x="926.787187" y="112.367727" style="fill-opacity: 0; stroke: #3f3f3f"/>
     <use xlink:href="#mc034cddef4" x="926.787187" y="138.007926" style="fill-opacity: 0; stroke: #3f3f3f"/>
     <use xlink:href="#mc034cddef4" x="926.787187" y="138.007926" style="fill-opacity: 0; stroke: #3f3f3f"/>
    </g>
   </g>
   <g id="patch_11">
    <path d="M 1127.752313 240.568722 
L 1395.705812 240.568722 
L 1395.705812 202.108423 
L 1127.752313 202.108423 
L 1127.752313 240.568722 
z
" clip-path="url(#p0b120cb252)" style="fill: #3274a1; stroke: #3f3f3f; stroke-linejoin: miter"/>
   </g>
   <g id="line2d_39">
    <path d="M 1261.729062 240.568722 
L 1261.729062 266.20892 
" clip-path="url(#p0b120cb252)" style="fill: none; stroke: #3f3f3f"/>
   </g>
   <g id="line2d_40">
    <path d="M 1261.729062 202.108423 
L 1261.729062 150.828026 
" clip-path="url(#p0b120cb252)" style="fill: none; stroke: #3f3f3f"/>
   </g>
   <g id="line2d_41">
    <path d="M 1194.740687 266.20892 
L 1328.717437 266.20892 
" clip-path="url(#p0b120cb252)" style="fill: none; stroke: #3f3f3f; stroke-linecap: square"/>
   </g>
   <g id="line2d_42">
    <path d="M 1194.740687 150.828026 
L 1328.717437 150.828026 
" clip-path="url(#p0b120cb252)" style="fill: none; stroke: #3f3f3f; stroke-linecap: square"/>
   </g>
   <g id="line2d_43">
    <g clip-path="url(#p0b120cb252)">
     <use xlink:href="#mc034cddef4" x="1261.729062" y="138.007926" style="fill-opacity: 0; stroke: #3f3f3f"/>
     <use xlink:href="#mc034cddef4" x="1261.729062" y="125.187827" style="fill-opacity: 0; stroke: #3f3f3f"/>
     <use xlink:href="#mc034cddef4" x="1261.729062" y="99.547628" style="fill-opacity: 0; stroke: #3f3f3f"/>
     <use xlink:href="#mc034cddef4" x="1261.729062" y="125.187827" style="fill-opacity: 0; stroke: #3f3f3f"/>
     <use xlink:href="#mc034cddef4" x="1261.729062" y="138.007926" style="fill-opacity: 0; stroke: #3f3f3f"/>
     <use xlink:href="#mc034cddef4" x="1261.729062" y="61.08733" style="fill-opacity: 0; stroke: #3f3f3f"/>
     <use xlink:href="#mc034cddef4" x="1261.729062" y="99.547628" style="fill-opacity: 0; stroke: #3f3f3f"/>
     <use xlink:href="#mc034cddef4" x="1261.729062" y="125.187827" style="fill-opacity: 0; stroke: #3f3f3f"/>
     <use xlink:href="#mc034cddef4" x="1261.729062" y="125.187827" style="fill-opacity: 0; stroke: #3f3f3f"/>
     <use xlink:href="#mc034cddef4" x="1261.729062" y="125.187827" style="fill-opacity: 0; stroke: #3f3f3f"/>
    </g>
   </g>
   <g id="line2d_44">
    <path d="M 792.810438 240.568722 
L 1060.763937 240.568722 
" clip-path="url(#p0b120cb252)" style="fill: none; stroke: #3f3f3f"/>
   </g>
   <g id="line2d_45">
    <path d="M 1127.752313 227.748622 
L 1395.705812 227.748622 
" clip-path="url(#p0b120cb252)" style="fill: none; stroke: #3f3f3f"/>
   </g>
   <g id="patch_12">
    <path d="M 759.31625 276.465 
L 759.31625 50.83125 
" style="fill: none; stroke: #000000; stroke-width: 0.8; stroke-linejoin: miter; stroke-linecap: square"/>
   </g>
   <g id="patch_13">
    <path d="M 1429.2 276.465 
L 1429.2 50.83125 
" style="fill: none; stroke: #000000; stroke-width: 0.8; stroke-linejoin: miter; stroke-linecap: square"/>
   </g>
   <g id="patch_14">
    <path d="M 759.31625 276.465 
L 1429.2 276.465 
" style="fill: none; stroke: #000000; stroke-width: 0.8; stroke-linejoin: miter; stroke-linecap: square"/>
   </g>
   <g id="patch_15">
    <path d="M 759.31625 50.83125 
L 1429.2 50.83125 
" style="fill: none; stroke: #000000; stroke-width: 0.8; stroke-linejoin: miter; stroke-linecap: square"/>
   </g>
   <g id="text_27">
    <!-- No_of_children_born -->
    <g transform="translate(1033.6 44.83125) scale(0.12 -0.12)">
     <use xlink:href="#DejaVuSans-4e"/>
     <use xlink:href="#DejaVuSans-6f" transform="translate(74.804688 0)"/>
     <use xlink:href="#DejaVuSans-5f" transform="translate(135.986328 0)"/>
     <use xlink:href="#DejaVuSans-6f" transform="translate(185.986328 0)"/>
     <use xlink:href="#DejaVuSans-66" transform="translate(247.167969 0)"/>
     <use xlink:href="#DejaVuSans-5f" transform="translate(282.373047 0)"/>
     <use xlink:href="#DejaVuSans-63" transform="translate(332.373047 0)"/>
     <use xlink:href="#DejaVuSans-68" transform="translate(387.353516 0)"/>
     <use xlink:href="#DejaVuSans-69" transform="translate(450.732422 0)"/>
     <use xlink:href="#DejaVuSans-6c" transform="translate(478.515625 0)"/>
     <use xlink:href="#DejaVuSans-64" transform="translate(506.298828 0)"/>
     <use xlink:href="#DejaVuSans-72" transform="translate(569.775391 0)"/>
     <use xlink:href="#DejaVuSans-65" transform="translate(608.638672 0)"/>
     <use xlink:href="#DejaVuSans-6e" transform="translate(670.162109 0)"/>
     <use xlink:href="#DejaVuSans-5f" transform="translate(733.541016 0)"/>
     <use xlink:href="#DejaVuSans-62" transform="translate(783.541016 0)"/>
     <use xlink:href="#DejaVuSans-6f" transform="translate(847.017578 0)"/>
     <use xlink:href="#DejaVuSans-72" transform="translate(908.199219 0)"/>
     <use xlink:href="#DejaVuSans-6e" transform="translate(947.5625 0)"/>
    </g>
   </g>
  </g>
  <g id="axes_3">
   <g id="patch_16">
    <path d="M 44.67125 548.12 
L 714.555 548.12 
L 714.555 322.48625 
L 44.67125 322.48625 
z
" style="fill: #ffffff"/>
   </g>
   <g id="matplotlib.axis_5">
    <g id="xtick_5">
     <g id="line2d_46">
      <g>
       <use xlink:href="#m272648f4b2" x="44.67125" y="548.12" style="stroke: #000000; stroke-width: 0.8"/>
      </g>
     </g>
     <g id="text_28">
      <!-- 0.0 -->
      <g transform="translate(36.719687 562.718437) scale(0.1 -0.1)">
       <defs>
        <path id="DejaVuSans-2e" d="M 684 794 
L 1344 794 
L 1344 0 
L 684 0 
L 684 794 
z
" transform="scale(0.015625)"/>
       </defs>
       <use xlink:href="#DejaVuSans-30"/>
       <use xlink:href="#DejaVuSans-2e" transform="translate(63.623047 0)"/>
       <use xlink:href="#DejaVuSans-30" transform="translate(95.410156 0)"/>
      </g>
     </g>
    </g>
    <g id="xtick_6">
     <g id="line2d_47">
      <g>
       <use xlink:href="#m272648f4b2" x="178.648" y="548.12" style="stroke: #000000; stroke-width: 0.8"/>
      </g>
     </g>
     <g id="text_29">
      <!-- 0.2 -->
      <g transform="translate(170.696438 562.718437) scale(0.1 -0.1)">
       <use xlink:href="#DejaVuSans-30"/>
       <use xlink:href="#DejaVuSans-2e" transform="translate(63.623047 0)"/>
       <use xlink:href="#DejaVuSans-32" transform="translate(95.410156 0)"/>
      </g>
     </g>
    </g>
    <g id="xtick_7">
     <g id="line2d_48">
      <g>
       <use xlink:href="#m272648f4b2" x="312.62475" y="548.12" style="stroke: #000000; stroke-width: 0.8"/>
      </g>
     </g>
     <g id="text_30">
      <!-- 0.4 -->
      <g transform="translate(304.673187 562.718437) scale(0.1 -0.1)">
       <use xlink:href="#DejaVuSans-30"/>
       <use xlink:href="#DejaVuSans-2e" transform="translate(63.623047 0)"/>
       <use xlink:href="#DejaVuSans-34" transform="translate(95.410156 0)"/>
      </g>
     </g>
    </g>
    <g id="xtick_8">
     <g id="line2d_49">
      <g>
       <use xlink:href="#m272648f4b2" x="446.6015" y="548.12" style="stroke: #000000; stroke-width: 0.8"/>
      </g>
     </g>
     <g id="text_31">
      <!-- 0.6 -->
      <g transform="translate(438.649938 562.718437) scale(0.1 -0.1)">
       <use xlink:href="#DejaVuSans-30"/>
       <use xlink:href="#DejaVuSans-2e" transform="translate(63.623047 0)"/>
       <use xlink:href="#DejaVuSans-36" transform="translate(95.410156 0)"/>
      </g>
     </g>
    </g>
    <g id="xtick_9">
     <g id="line2d_50">
      <g>
       <use xlink:href="#m272648f4b2" x="580.57825" y="548.12" style="stroke: #000000; stroke-width: 0.8"/>
      </g>
     </g>
     <g id="text_32">
      <!-- 0.8 -->
      <g transform="translate(572.626688 562.718437) scale(0.1 -0.1)">
       <use xlink:href="#DejaVuSans-30"/>
       <use xlink:href="#DejaVuSans-2e" transform="translate(63.623047 0)"/>
       <use xlink:href="#DejaVuSans-38" transform="translate(95.410156 0)"/>
      </g>
     </g>
    </g>
    <g id="xtick_10">
     <g id="line2d_51">
      <g>
       <use xlink:href="#m272648f4b2" x="714.555" y="548.12" style="stroke: #000000; stroke-width: 0.8"/>
      </g>
     </g>
     <g id="text_33">
      <!-- 1.0 -->
      <g transform="translate(706.603437 562.718437) scale(0.1 -0.1)">
       <use xlink:href="#DejaVuSans-31"/>
       <use xlink:href="#DejaVuSans-2e" transform="translate(63.623047 0)"/>
       <use xlink:href="#DejaVuSans-30" transform="translate(95.410156 0)"/>
      </g>
     </g>
    </g>
   </g>
   <g id="matplotlib.axis_6">
    <g id="ytick_18">
     <g id="line2d_52">
      <g>
       <use xlink:href="#m80aef19b8e" x="44.67125" y="548.12" style="stroke: #000000; stroke-width: 0.8"/>
      </g>
     </g>
     <g id="text_34">
      <!-- 0.0 -->
      <g transform="translate(21.768125 551.919219) scale(0.1 -0.1)">
       <use xlink:href="#DejaVuSans-30"/>
       <use xlink:href="#DejaVuSans-2e" transform="translate(63.623047 0)"/>
       <use xlink:href="#DejaVuSans-30" transform="translate(95.410156 0)"/>
      </g>
     </g>
    </g>
    <g id="ytick_19">
     <g id="line2d_53">
      <g>
       <use xlink:href="#m80aef19b8e" x="44.67125" y="502.99325" style="stroke: #000000; stroke-width: 0.8"/>
      </g>
     </g>
     <g id="text_35">
      <!-- 0.2 -->
      <g transform="translate(21.768125 506.792469) scale(0.1 -0.1)">
       <use xlink:href="#DejaVuSans-30"/>
       <use xlink:href="#DejaVuSans-2e" transform="translate(63.623047 0)"/>
       <use xlink:href="#DejaVuSans-32" transform="translate(95.410156 0)"/>
      </g>
     </g>
    </g>
    <g id="ytick_20">
     <g id="line2d_54">
      <g>
       <use xlink:href="#m80aef19b8e" x="44.67125" y="457.8665" style="stroke: #000000; stroke-width: 0.8"/>
      </g>
     </g>
     <g id="text_36">
      <!-- 0.4 -->
      <g transform="translate(21.768125 461.665719) scale(0.1 -0.1)">
       <use xlink:href="#DejaVuSans-30"/>
       <use xlink:href="#DejaVuSans-2e" transform="translate(63.623047 0)"/>
       <use xlink:href="#DejaVuSans-34" transform="translate(95.410156 0)"/>
      </g>
     </g>
    </g>
    <g id="ytick_21">
     <g id="line2d_55">
      <g>
       <use xlink:href="#m80aef19b8e" x="44.67125" y="412.73975" style="stroke: #000000; stroke-width: 0.8"/>
      </g>
     </g>
     <g id="text_37">
      <!-- 0.6 -->
      <g transform="translate(21.768125 416.538969) scale(0.1 -0.1)">
       <use xlink:href="#DejaVuSans-30"/>
       <use xlink:href="#DejaVuSans-2e" transform="translate(63.623047 0)"/>
       <use xlink:href="#DejaVuSans-36" transform="translate(95.410156 0)"/>
      </g>
     </g>
    </g>
    <g id="ytick_22">
     <g id="line2d_56">
      <g>
       <use xlink:href="#m80aef19b8e" x="44.67125" y="367.613" style="stroke: #000000; stroke-width: 0.8"/>
      </g>
     </g>
     <g id="text_38">
      <!-- 0.8 -->
      <g transform="translate(21.768125 371.412219) scale(0.1 -0.1)">
       <use xlink:href="#DejaVuSans-30"/>
       <use xlink:href="#DejaVuSans-2e" transform="translate(63.623047 0)"/>
       <use xlink:href="#DejaVuSans-38" transform="translate(95.410156 0)"/>
      </g>
     </g>
    </g>
    <g id="ytick_23">
     <g id="line2d_57">
      <g>
       <use xlink:href="#m80aef19b8e" x="44.67125" y="322.48625" style="stroke: #000000; stroke-width: 0.8"/>
      </g>
     </g>
     <g id="text_39">
      <!-- 1.0 -->
      <g transform="translate(21.768125 326.285469) scale(0.1 -0.1)">
       <use xlink:href="#DejaVuSans-31"/>
       <use xlink:href="#DejaVuSans-2e" transform="translate(63.623047 0)"/>
       <use xlink:href="#DejaVuSans-30" transform="translate(95.410156 0)"/>
      </g>
     </g>
    </g>
   </g>
   <g id="patch_17">
    <path d="M 44.67125 548.12 
L 44.67125 322.48625 
" style="fill: none; stroke: #000000; stroke-width: 0.8; stroke-linejoin: miter; stroke-linecap: square"/>
   </g>
   <g id="patch_18">
    <path d="M 714.555 548.12 
L 714.555 322.48625 
" style="fill: none; stroke: #000000; stroke-width: 0.8; stroke-linejoin: miter; stroke-linecap: square"/>
   </g>
   <g id="patch_19">
    <path d="M 44.67125 548.12 
L 714.555 548.12 
" style="fill: none; stroke: #000000; stroke-width: 0.8; stroke-linejoin: miter; stroke-linecap: square"/>
   </g>
   <g id="patch_20">
    <path d="M 44.67125 322.48625 
L 714.555 322.48625 
" style="fill: none; stroke: #000000; stroke-width: 0.8; stroke-linejoin: miter; stroke-linecap: square"/>
   </g>
  </g>
  <g id="text_40">
   <!-- Bivariate Analysis box plot Numerical Features vs Contraceptive_method_used -->
   <g transform="translate(483.826875 20.638125) scale(0.12 -0.12)">
    <defs>
     <path id="DejaVuSans-42" d="M 1259 2228 
L 1259 519 
L 2272 519 
Q 2781 519 3026 730 
Q 3272 941 3272 1375 
Q 3272 1813 3026 2020 
Q 2781 2228 2272 2228 
L 1259 2228 
z
M 1259 4147 
L 1259 2741 
L 2194 2741 
Q 2656 2741 2882 2914 
Q 3109 3088 3109 3444 
Q 3109 3797 2882 3972 
Q 2656 4147 2194 4147 
L 1259 4147 
z
M 628 4666 
L 2241 4666 
Q 2963 4666 3353 4366 
Q 3744 4066 3744 3513 
Q 3744 3084 3544 2831 
Q 3344 2578 2956 2516 
Q 3422 2416 3680 2098 
Q 3938 1781 3938 1306 
Q 3938 681 3513 340 
Q 3088 0 2303 0 
L 628 0 
L 628 4666 
z
" transform="scale(0.015625)"/>
     <path id="DejaVuSans-20" transform="scale(0.015625)"/>
     <path id="DejaVuSans-41" d="M 2188 4044 
L 1331 1722 
L 3047 1722 
L 2188 4044 
z
M 1831 4666 
L 2547 4666 
L 4325 0 
L 3669 0 
L 3244 1197 
L 1141 1197 
L 716 0 
L 50 0 
L 1831 4666 
z
" transform="scale(0.015625)"/>
     <path id="DejaVuSans-79" d="M 2059 -325 
Q 1816 -950 1584 -1140 
Q 1353 -1331 966 -1331 
L 506 -1331 
L 506 -850 
L 844 -850 
Q 1081 -850 1212 -737 
Q 1344 -625 1503 -206 
L 1606 56 
L 191 3500 
L 800 3500 
L 1894 763 
L 2988 3500 
L 3597 3500 
L 2059 -325 
z
" transform="scale(0.015625)"/>
     <path id="DejaVuSans-78" d="M 3513 3500 
L 2247 1797 
L 3578 0 
L 2900 0 
L 1881 1375 
L 863 0 
L 184 0 
L 1544 1831 
L 300 3500 
L 978 3500 
L 1906 2253 
L 2834 3500 
L 3513 3500 
z
" transform="scale(0.015625)"/>
     <path id="DejaVuSans-46" d="M 628 4666 
L 3309 4666 
L 3309 4134 
L 1259 4134 
L 1259 2759 
L 3109 2759 
L 3109 2228 
L 1259 2228 
L 1259 0 
L 628 0 
L 628 4666 
z
" transform="scale(0.015625)"/>
    </defs>
    <use xlink:href="#DejaVuSans-42"/>
    <use xlink:href="#DejaVuSans-69" transform="translate(68.603516 0)"/>
    <use xlink:href="#DejaVuSans-76" transform="translate(96.386719 0)"/>
    <use xlink:href="#DejaVuSans-61" transform="translate(155.566406 0)"/>
    <use xlink:href="#DejaVuSans-72" transform="translate(216.845703 0)"/>
    <use xlink:href="#DejaVuSans-69" transform="translate(257.958984 0)"/>
    <use xlink:href="#DejaVuSans-61" transform="translate(285.742188 0)"/>
    <use xlink:href="#DejaVuSans-74" transform="translate(347.021484 0)"/>
    <use xlink:href="#DejaVuSans-65" transform="translate(386.230469 0)"/>
    <use xlink:href="#DejaVuSans-20" transform="translate(447.753906 0)"/>
    <use xlink:href="#DejaVuSans-41" transform="translate(479.541016 0)"/>
    <use xlink:href="#DejaVuSans-6e" transform="translate(547.949219 0)"/>
    <use xlink:href="#DejaVuSans-61" transform="translate(611.328125 0)"/>
    <use xlink:href="#DejaVuSans-6c" transform="translate(672.607422 0)"/>
    <use xlink:href="#DejaVuSans-79" transform="translate(700.390625 0)"/>
    <use xlink:href="#DejaVuSans-73" transform="translate(759.570312 0)"/>
    <use xlink:href="#DejaVuSans-69" transform="translate(811.669922 0)"/>
    <use xlink:href="#DejaVuSans-73" transform="translate(839.453125 0)"/>
    <use xlink:href="#DejaVuSans-20" transform="translate(891.552734 0)"/>
    <use xlink:href="#DejaVuSans-62" transform="translate(923.339844 0)"/>
    <use xlink:href="#DejaVuSans-6f" transform="translate(986.816406 0)"/>
    <use xlink:href="#DejaVuSans-78" transform="translate(1044.873047 0)"/>
    <use xlink:href="#DejaVuSans-20" transform="translate(1104.052734 0)"/>
    <use xlink:href="#DejaVuSans-70" transform="translate(1135.839844 0)"/>
    <use xlink:href="#DejaVuSans-6c" transform="translate(1199.316406 0)"/>
    <use xlink:href="#DejaVuSans-6f" transform="translate(1227.099609 0)"/>
    <use xlink:href="#DejaVuSans-74" transform="translate(1288.28125 0)"/>
    <use xlink:href="#DejaVuSans-20" transform="translate(1327.490234 0)"/>
    <use xlink:href="#DejaVuSans-4e" transform="translate(1359.277344 0)"/>
    <use xlink:href="#DejaVuSans-75" transform="translate(1434.082031 0)"/>
    <use xlink:href="#DejaVuSans-6d" transform="translate(1497.460938 0)"/>
    <use xlink:href="#DejaVuSans-65" transform="translate(1594.873047 0)"/>
    <use xlink:href="#DejaVuSans-72" transform="translate(1656.396484 0)"/>
    <use xlink:href="#DejaVuSans-69" transform="translate(1697.509766 0)"/>
    <use xlink:href="#DejaVuSans-63" transform="translate(1725.292969 0)"/>
    <use xlink:href="#DejaVuSans-61" transform="translate(1780.273438 0)"/>
    <use xlink:href="#DejaVuSans-6c" transform="translate(1841.552734 0)"/>
    <use xlink:href="#DejaVuSans-20" transform="translate(1869.335938 0)"/>
    <use xlink:href="#DejaVuSans-46" transform="translate(1901.123047 0)"/>
    <use xlink:href="#DejaVuSans-65" transform="translate(1953.142578 0)"/>
    <use xlink:href="#DejaVuSans-61" transform="translate(2014.666016 0)"/>
    <use xlink:href="#DejaVuSans-74" transform="translate(2075.945312 0)"/>
    <use xlink:href="#DejaVuSans-75" transform="translate(2115.154297 0)"/>
    <use xlink:href="#DejaVuSans-72" transform="translate(2178.533203 0)"/>
    <use xlink:href="#DejaVuSans-65" transform="translate(2217.396484 0)"/>
    <use xlink:href="#DejaVuSans-73" transform="translate(2278.919922 0)"/>
    <use xlink:href="#DejaVuSans-20" transform="translate(2331.019531 0)"/>
    <use xlink:href="#DejaVuSans-76" transform="translate(2362.806641 0)"/>
    <use xlink:href="#DejaVuSans-73" transform="translate(2421.986328 0)"/>
    <use xlink:href="#DejaVuSans-20" transform="translate(2474.085938 0)"/>
    <use xlink:href="#DejaVuSans-43" transform="translate(2505.873047 0)"/>
    <use xlink:href="#DejaVuSans-6f" transform="translate(2575.697266 0)"/>
    <use xlink:href="#DejaVuSans-6e" transform="translate(2636.878906 0)"/>
    <use xlink:href="#DejaVuSans-74" transform="translate(2700.257812 0)"/>
    <use xlink:href="#DejaVuSans-72" transform="translate(2739.466797 0)"/>
    <use xlink:href="#DejaVuSans-61" transform="translate(2780.580078 0)"/>
    <use xlink:href="#DejaVuSans-63" transform="translate(2841.859375 0)"/>
    <use xlink:href="#DejaVuSans-65" transform="translate(2896.839844 0)"/>
    <use xlink:href="#DejaVuSans-70" transform="translate(2958.363281 0)"/>
    <use xlink:href="#DejaVuSans-74" transform="translate(3021.839844 0)"/>
    <use xlink:href="#DejaVuSans-69" transform="translate(3061.048828 0)"/>
    <use xlink:href="#DejaVuSans-76" transform="translate(3088.832031 0)"/>
    <use xlink:href="#DejaVuSans-65" transform="translate(3148.011719 0)"/>
    <use xlink:href="#DejaVuSans-5f" transform="translate(3209.535156 0)"/>
    <use xlink:href="#DejaVuSans-6d" transform="translate(3259.535156 0)"/>
    <use xlink:href="#DejaVuSans-65" transform="translate(3356.947266 0)"/>
    <use xlink:href="#DejaVuSans-74" transform="translate(3418.470703 0)"/>
    <use xlink:href="#DejaVuSans-68" transform="translate(3457.679688 0)"/>
    <use xlink:href="#DejaVuSans-6f" transform="translate(3521.058594 0)"/>
    <use xlink:href="#DejaVuSans-64" transform="translate(3582.240234 0)"/>
    <use xlink:href="#DejaVuSans-5f" transform="translate(3645.716797 0)"/>
    <use xlink:href="#DejaVuSans-75" transform="translate(3695.716797 0)"/>
    <use xlink:href="#DejaVuSans-73" transform="translate(3759.095703 0)"/>
    <use xlink:href="#DejaVuSans-65" transform="translate(3811.195312 0)"/>
    <use xlink:href="#DejaVuSans-64" transform="translate(3872.71875 0)"/>
   </g>
  </g>
 </g>
 <defs>
  <clipPath id="p0d56a560f4">
   <rect x="44.67125" y="50.83125" width="669.88375" height="225.63375"/>
  </clipPath>
  <clipPath id="p0b120cb252">
   <rect x="759.31625" y="50.83125" width="669.88375" height="225.63375"/>
  </clipPath>
 </defs>
</svg>
